<svg xmlns="http://www.w3.org/2000/svg" width="346.966" height="198.857" viewBox="0 0 346.966 198.857">
  <g id="Grupo_57213" data-name="Grupo 57213" transform="translate(-888 -3180.51)">
    <path id="Trazado_101438" data-name="Trazado 101438" d="M329.329,108.441H314.094a13.8,13.8,0,0,1-13.8-13.8h0a13.8,13.8,0,0,1,13.8-13.8h9.591a5.957,5.957,0,0,0,5.959-4.972,5.842,5.842,0,0,0-5.777-6.706H300.978a.69.69,0,0,1-.685-.7,14.022,14.022,0,0,0-14.022-14h-82.62a3.766,3.766,0,0,1-3.738-2.916,3.68,3.68,0,0,1,3.6-4.437h57.592a7.429,7.429,0,0,0,7.41-6.1,7.3,7.3,0,0,0-7.2-8.5H95.748a7.429,7.429,0,0,0-7.41,6.1,7.3,7.3,0,0,0,7.2,8.5h28.28a8.132,8.132,0,0,1,8.111,6.679,8,8,0,0,1-7.886,9.3H39.981A31.181,31.181,0,0,0,8.8,94.263h0A31.183,31.183,0,0,0,34.181,124.9a4.6,4.6,0,0,1,3.707,4.538v2.544a4.634,4.634,0,0,1-4.634,4.634h0a22.941,22.941,0,0,0-22.941,22.941h0a22.941,22.941,0,0,0,22.941,22.94h.083a6.9,6.9,0,0,1,6.895,6.895v.017a7.161,7.161,0,0,1-6.517,7.1,7.493,7.493,0,0,0-1.689.316,17.765,17.765,0,0,0,5.91,34.538H301.783a18.06,18.06,0,0,0,18.131-16.355c.006-.083.013-.165.018-.247a8.554,8.554,0,0,1,8.5-8.052h3.27a14.76,14.76,0,0,0,14.76-14.76h0c0-6.147-4.955-11.231-10.887-13.36a9.05,9.05,0,0,1-6.111-8.472v-.426a9.815,9.815,0,0,1,7.185-9.4,26.449,26.449,0,0,0,19.113-25.41h0A26.437,26.437,0,0,0,329.329,108.441Z" transform="translate(879.2 3148.006)" fill="#dbf6e9"/>
    <g id="habilidades-blandas" transform="translate(996.75 3221)">
      <g id="Grupo_57191" data-name="Grupo 57191" transform="translate(1.924 1.924)">
        <path id="Trazado_101718" data-name="Trazado 101718" d="M398.207,105.126l15.411-.753a15.286,15.286,0,1,0-22.736.121Z" transform="translate(-289.546 -60.665)" fill="#99e6fc"/>
        <path id="Trazado_101719" data-name="Trazado 101719" d="M17.312,105.7l14.222-1.332,2.567.121a15.29,15.29,0,1,0-22.736-.121Z" transform="translate(-7.498 -60.665)" fill="#99e6fc"/>
        <g id="Grupo_57190" data-name="Grupo 57190" transform="translate(3.867)">
          <circle id="Elipse_1416" data-name="Elipse 1416" cx="44.354" cy="44.354" r="44.354" transform="translate(15.62 39.095)" fill="#a79ba7"/>
          <path id="Trazado_101720" data-name="Trazado 101720" d="M156.01,198.077A34.611,34.611,0,1,1,121.4,232.689a34.611,34.611,0,0,1,34.612-34.612Z" transform="translate(-96.037 -149.239)" fill="#f9f7f8"/>
          <g id="XMLID_561_" transform="translate(36.727 48.838)">
            <g id="Grupo_57189" data-name="Grupo 57189">
              <path id="Trazado_101721" data-name="Trazado 101721" d="M211.4,252.785a33.081,33.081,0,0,0-7.334-16.523l0,0a22.089,22.089,0,1,0-30.25,0l0,0a33.081,33.081,0,0,0-7.334,16.523l-.785,5.545a34.612,34.612,0,0,0,46.494,0Z" transform="translate(-165.688 -198.077)" fill="#99e6fc"/>
              <path id="Trazado_101722" data-name="Trazado 101722" d="M176.7,260.706a6.135,6.135,0,0,1-2.433-5.829l.3-2.092a33.081,33.081,0,0,1,7.334-16.523l0,0a22.081,22.081,0,0,1,11.08-37.805,22.083,22.083,0,0,0-19.168,37.805l0,0a33.081,33.081,0,0,0-7.334,16.523l-.785,5.545a34.481,34.481,0,0,0,23.247,8.969,34.953,34.953,0,0,0,4.044-.235A34.424,34.424,0,0,1,176.7,260.706Z" transform="translate(-165.688 -198.077)" fill="#62dbfb"/>
            </g>
          </g>
          <path id="Trazado_101723" data-name="Trazado 101723" d="M205.608,32.6l13.94.319,4.262.416a15.287,15.287,0,1,0-22.736-.121Z" transform="translate(-152.393 -7.766)" fill="#99e6fc"/>
          <path id="Trazado_101724" data-name="Trazado 101724" d="M234.379,30.743a11.95,11.95,0,0,0-1.155-3.308,12.107,12.107,0,0,0-2.063-2.833h0a10.137,10.137,0,1,0-15.2,0h0a12,12,0,0,0-3.218,6.141l-.475,2.466A15.282,15.282,0,0,0,235,33.33Z" transform="translate(-163.586 -7.762)" fill="#fef48b"/>
          <path id="Trazado_101725" data-name="Trazado 101725" d="M218.2,33.708a1.283,1.283,0,0,1-.341-1.136l.352-1.828a12.005,12.005,0,0,1,3.218-6.141h0A10.133,10.133,0,0,1,226.3,8.138,10.134,10.134,0,0,0,215.961,24.6h0a12.006,12.006,0,0,0-3.218,6.141l-.475,2.466a15.26,15.26,0,0,0,14.156,4.881,15.263,15.263,0,0,1-8.224-4.382Z" transform="translate(-163.588 -7.762)" fill="#fef056"/>
          <path id="Trazado_101726" data-name="Trazado 101726" d="M44.681,101.907a12.011,12.011,0,0,0-3.22-6.14,10.138,10.138,0,1,0-15.2,0,12.01,12.01,0,0,0-3.22,6.14l-.472,2.466a15.282,15.282,0,0,0,22.736.121Z" transform="translate(-22.568 -60.665)" fill="#fd8087"/>
          <path id="Trazado_101727" data-name="Trazado 101727" d="M28.16,104.855a1.241,1.241,0,0,1-.33-1.1l.355-1.852a12.014,12.014,0,0,1,2.6-5.458,1.137,1.137,0,0,0,.04-1.4,10.134,10.134,0,0,1,5.61-15.79,10.134,10.134,0,0,0-10.172,16.51,12.01,12.01,0,0,0-3.22,6.14l-.472,2.466a15.284,15.284,0,0,0,13.992,4.912,15.244,15.244,0,0,1-8.4-4.43Z" transform="translate(-22.569 -60.665)" fill="#fe646f"/>
          <path id="Trazado_101728" data-name="Trazado 101728" d="M424.652,101.9a12.01,12.01,0,0,0-3.22-6.14,10.137,10.137,0,1,0-15.2,0,12.009,12.009,0,0,0-3.22,6.14l-.624,2.587a15.282,15.282,0,0,0,22.736-.121Z" transform="translate(-304.92 -60.663)" fill="#ade194"/>
          <path id="Trazado_101729" data-name="Trazado 101729" d="M408.793,105.44a2.24,2.24,0,0,1-.648-2.17l.33-1.367a12.013,12.013,0,0,1,2.611-5.471,1.114,1.114,0,0,0,.039-1.375A10.134,10.134,0,0,1,416.563,79.3a10.134,10.134,0,0,0-10.332,16.465,12.009,12.009,0,0,0-3.22,6.14l-.624,2.587a15.262,15.262,0,0,0,14.046,4.761A15.24,15.24,0,0,1,408.793,105.44Z" transform="translate(-304.92 -60.662)" fill="#97da7b"/>
        </g>
      </g>
      <g id="Grupo_57192" data-name="Grupo 57192" transform="translate(0 0)">
        <path id="Trazado_101730" data-name="Trazado 101730" d="M150.436,190.574a36.537,36.537,0,1,0,36.537,36.537A36.578,36.578,0,0,0,150.436,190.574Zm-32.687,36.537a32.642,32.642,0,0,1,12.719-25.855,23.864,23.864,0,0,0-4.032,12.749,1.925,1.925,0,1,0,3.848.092,20.131,20.131,0,1,1,1.235,7.487,1.925,1.925,0,1,0-3.61,1.336,23.858,23.858,0,0,0,4.847,7.9,34.959,34.959,0,0,0-6.685,16.119l-.237,1.67A32.55,32.55,0,0,1,117.748,227.111Zm57.291,21.5-.237-1.67c-.121-.857-.284-1.748-.484-2.65a1.925,1.925,0,0,0-3.758.832c.178.806.323,1.6.431,2.358l.638,4.5a32.62,32.62,0,0,1-42.385,0l.638-4.5a31.114,31.114,0,0,1,5.717-14.035,23.94,23.94,0,0,0,29.683.01,31.357,31.357,0,0,1,2.685,4.39,1.925,1.925,0,0,0,3.438-1.732,35.138,35.138,0,0,0-3.285-5.292,23.963,23.963,0,0,0,2.267-29.58,32.635,32.635,0,0,1,4.653,47.369Z" transform="translate(-84.671 -141.737)"/>
        <path id="Trazado_101731" data-name="Trazado 101731" d="M215.226,316.764a16.232,16.232,0,0,0,13.883-7.755,1.925,1.925,0,0,0-3.273-2.025,12.455,12.455,0,0,1-21.219,0,1.925,1.925,0,0,0-3.273,2.025A16.233,16.233,0,0,0,215.226,316.764Z" transform="translate(-149.461 -227.597)"/>
        <path id="Trazado_101732" data-name="Trazado 101732" d="M216.971,260.415a1.924,1.924,0,0,0,1.925-1.925v-2.239a1.925,1.925,0,0,0-3.849,0v2.239A1.924,1.924,0,0,0,216.971,260.415Z" transform="translate(-159.862 -189.13)"/>
        <path id="Trazado_101733" data-name="Trazado 101733" d="M285.435,260.415a1.924,1.924,0,0,0,1.925-1.925v-2.239a1.925,1.925,0,0,0-3.849,0v2.239A1.924,1.924,0,0,0,285.435,260.415Z" transform="translate(-210.757 -189.13)"/>
        <path id="Trazado_101734" data-name="Trazado 101734" d="M114.574,18.525a17.2,17.2,0,0,0-11.991,29.544l-4.041,4.892A46.166,46.166,0,0,0,67.818,39.409V34.578a17.213,17.213,0,1,0-3.849,0V39.4A46.135,46.135,0,0,0,33.146,52.841L29.2,48.069a17.149,17.149,0,1,0-3.039,2.364l4.346,5.261a46.249,46.249,0,1,0,79.464,16.22,1.925,1.925,0,0,0-3.677,1.14,42.471,42.471,0,1,1-3.022-7.258,1.925,1.925,0,1,0,3.4-1.8,46.575,46.575,0,0,0-5.51-8.167l4.456-5.393a17.21,17.21,0,1,0,8.951-31.909ZM8.872,30.586A8.212,8.212,0,1,1,17.084,38.8,8.221,8.221,0,0,1,8.872,30.586Zm21.7,5.151a13.281,13.281,0,0,1-1.233,5.6,13.848,13.848,0,0,0-2.185-4.126,11.989,11.989,0,0,0,1.988-6.622c0-.313-.015-.622-.039-.928A13.267,13.267,0,0,1,30.576,35.737ZM5.032,30.258c0,.11-.009.218-.009.329a11.989,11.989,0,0,0,1.988,6.622,13.852,13.852,0,0,0-2.075,3.8,13.312,13.312,0,0,1,.1-10.753ZM7.869,45.279l.285-1.484a10.037,10.037,0,0,1,1.525-3.7,12.023,12.023,0,0,0,14.81,0,10.039,10.039,0,0,1,1.525,3.7l.325,1.691a13.331,13.331,0,0,1-18.47-.207ZM57.553,12.325a8.212,8.212,0,1,1,8.212,8.212A8.221,8.221,0,0,1,57.553,12.325Zm-.718,13.209a10.039,10.039,0,0,1,1.525-3.7,12.023,12.023,0,0,0,14.81,0,10.039,10.039,0,0,1,1.525,3.7l.325,1.691a13.33,13.33,0,0,1-18.47-.207Zm22.422-8.057a13.281,13.281,0,0,1-1.233,5.6,13.851,13.851,0,0,0-2.185-4.126,11.988,11.988,0,0,0,1.988-6.622c0-.309-.015-.614-.037-.917A13.262,13.262,0,0,1,79.257,17.476ZM53.714,11.982c0,.114-.01.228-.01.343a11.989,11.989,0,0,0,1.988,6.622,13.851,13.851,0,0,0-2.075,3.8,13.34,13.34,0,0,1,.1-10.768Zm73.137,29.029a13.845,13.845,0,0,0-2.075-3.8,11.989,11.989,0,0,0,1.988-6.622c0-.112,0-.223-.006-.334a13.34,13.34,0,0,1,.093,10.759ZM106.49,30.586A8.212,8.212,0,1,1,114.7,38.8,8.222,8.222,0,0,1,106.49,30.586Zm-3.813-.927c-.023.306-.036.615-.036.927a11.988,11.988,0,0,0,1.988,6.622,13.848,13.848,0,0,0-2.185,4.126,13.326,13.326,0,0,1,.233-11.676Zm2.771,15.827.325-1.691a10.037,10.037,0,0,1,1.525-3.7,12.023,12.023,0,0,0,14.81,0,10.043,10.043,0,0,1,1.525,3.7l.285,1.484a13.331,13.331,0,0,1-18.47.207Z" transform="translate(0 -0.264)"/>
      </g>
    </g>
  </g>
</svg>
