<svg xmlns="http://www.w3.org/2000/svg" width="346.966" height="198.857" viewBox="0 0 346.966 198.857">
  <g id="Grupo_57323" data-name="Grupo 57323" transform="translate(-424 8600.031)">
    <path id="Trazado_101748" data-name="Trazado 101748" d="M329.329,108.441H314.094a13.8,13.8,0,0,1-13.8-13.8h0a13.8,13.8,0,0,1,13.8-13.8h9.591a5.957,5.957,0,0,0,5.959-4.972,5.842,5.842,0,0,0-5.777-6.706H300.978a.69.69,0,0,1-.685-.7,14.022,14.022,0,0,0-14.022-14h-82.62a3.766,3.766,0,0,1-3.738-2.916,3.68,3.68,0,0,1,3.6-4.437h57.592a7.429,7.429,0,0,0,7.41-6.1,7.3,7.3,0,0,0-7.2-8.5H95.748a7.429,7.429,0,0,0-7.41,6.1,7.3,7.3,0,0,0,7.2,8.5h28.28a8.132,8.132,0,0,1,8.111,6.679,8,8,0,0,1-7.886,9.3H39.981A31.181,31.181,0,0,0,8.8,94.263h0A31.183,31.183,0,0,0,34.181,124.9a4.6,4.6,0,0,1,3.707,4.538v2.544a4.634,4.634,0,0,1-4.634,4.634h0a22.941,22.941,0,0,0-22.941,22.941h0a22.941,22.941,0,0,0,22.941,22.94h.083a6.9,6.9,0,0,1,6.895,6.895v.017a7.161,7.161,0,0,1-6.517,7.1,7.493,7.493,0,0,0-1.689.316,17.765,17.765,0,0,0,5.91,34.538H301.783a18.06,18.06,0,0,0,18.131-16.355c.006-.083.013-.165.018-.247a8.554,8.554,0,0,1,8.5-8.052h3.27a14.76,14.76,0,0,0,14.76-14.76h0c0-6.147-4.955-11.231-10.887-13.36a9.05,9.05,0,0,1-6.111-8.472v-.426a9.815,9.815,0,0,1,7.185-9.4,26.449,26.449,0,0,0,19.113-25.41h0A26.437,26.437,0,0,0,329.329,108.441Z" transform="translate(415.2 -8632.535)" fill="#dbf6e9"/>
    <g id="liderazgo" transform="translate(515.797 -8561.248)">
      <path id="Trazado_101749" data-name="Trazado 101749" d="M218.739,92.469a.606.606,0,0,1,1.022.44v17.673h21.156V92.593a.578.578,0,0,1,1-.4l9.245,9.468a5.429,5.429,0,0,0,7.541.221l8.835-8.36a3.269,3.269,0,0,0,.128-4.619c-.03-.032-.062-.063-.094-.1a3.268,3.268,0,0,0-4.495-.061L254.88,96.3,245,85.8a5.9,5.9,0,0,0-4.3-1.855h-4.56a1.837,1.837,0,0,1-2.225-1.341,1.865,1.865,0,0,1-.054-.443V80.927a6.852,6.852,0,0,1-7.052-.013v1.305a1.835,1.835,0,0,1-2.235,1.794h-3.454a8.461,8.461,0,0,0-5.7,2.21l-8.04,7.327a11.052,11.052,0,0,0-3.239,5.347l-2.6,9.872a3.111,3.111,0,0,0,5.954,1.792c.014-.04.027-.081.039-.121l2.777-9.449a3.223,3.223,0,0,1,.887-1.443Zm0,0" transform="translate(-145.593 -58.626)" fill="#60bae2"/>
      <path id="Trazado_101750" data-name="Trazado 101750" d="M67.405,204.234a3.049,3.049,0,0,0-4.055,1.161l-4.882,8.362a1.1,1.1,0,0,1-1.527.312l-.027-.018-7.267-5.094a9.1,9.1,0,0,0-5.223-1.649H40.187a1.837,1.837,0,0,1-2.226-1.341,1.856,1.856,0,0,1-.054-.442v-1.231a6.852,6.852,0,0,1-7.052-.014v1.306a1.836,1.836,0,0,1-1.838,1.836,1.817,1.817,0,0,1-.4-.043H23.9a5.193,5.193,0,0,0-3.5,1.356l-9.688,8.831a7.779,7.779,0,0,0-2.281,3.765l-2.85,10.8a3.111,3.111,0,0,0,5.955,1.793c.013-.041.026-.081.038-.122l3.025-10.29,9.206-8.642v19.074H44.958V215.959a.578.578,0,0,1,1-.4l8.468,5.416a6.321,6.321,0,0,0,8.731-1.92c.049-.077.1-.157.143-.236l5.4-10.489a3.05,3.05,0,0,0-1.291-4.1Zm0,0" transform="translate(-3.613 -147.721)" fill="#e9e9ea"/>
      <path id="Trazado_101751" data-name="Trazado 101751" d="M269.531,234.724h5.632a4.466,4.466,0,0,1,1.2.169V200.023a3,3,0,0,1,3-3h9.751v20.828a4.467,4.467,0,0,1,1.512-.267h5.631a4.471,4.471,0,0,1,1.268.185V194.818a6.2,6.2,0,0,0-6.2-6.2H267.957v46.4A4.447,4.447,0,0,1,269.531,234.724Zm0,0" transform="translate(-193.79 -136.66)" fill="#6d6c6b"/>
      <path id="Trazado_101752" data-name="Trazado 101752" d="M73.578,359.13H79.21a4.422,4.422,0,0,1,1.2.17V324.431a3,3,0,0,1,3-3h9.751v20.831A4.438,4.438,0,0,1,94.672,342H100.3a4.479,4.479,0,0,1,1.268.185V319.226a6.2,6.2,0,0,0-6.2-6.2H72v46.4A4.47,4.47,0,0,1,73.578,359.13Zm0,0" transform="translate(-51.815 -226.797)" fill="#6d6c6b"/>
      <path id="Trazado_101753" data-name="Trazado 101753" d="M267.957,339.669v4.786a4.466,4.466,0,0,1,1.574-.292h5.632a4.418,4.418,0,0,1,1.2.17v-4.666Zm0,0" transform="translate(-193.79 -246.101)" fill="#e9e9ea"/>
      <path id="Trazado_101754" data-name="Trazado 101754" d="M344.762,277.463v4.763a4.46,4.46,0,0,1,1.512-.267H351.9a4.469,4.469,0,0,1,1.268.185v-4.683Zm0,0" transform="translate(-249.437 -201.03)" fill="#e9e9ea"/>
      <path id="Trazado_101755" data-name="Trazado 101755" d="M72,464.078v4.787a4.446,4.446,0,0,1,1.574-.292H79.21a4.469,4.469,0,0,1,1.2.169v-4.665Zm0,0" transform="translate(-51.815 -336.241)" fill="#e9e9ea"/>
      <path id="Trazado_101756" data-name="Trazado 101756" d="M148.812,401.875v4.767a4.435,4.435,0,0,1,1.511-.268h5.632a4.479,4.479,0,0,1,1.268.185v-4.683Zm0,0" transform="translate(-107.466 -291.173)" fill="#e9e9ea"/>
      <path id="Trazado_101757" data-name="Trazado 101757" d="M275.027,14.9a2.868,2.868,0,0,1,.44.036V14.6a.37.37,0,0,1,.372-.366.331.331,0,0,1,.073.009,7.479,7.479,0,0,0,7.486-2.46.371.371,0,0,1,.522-.061.35.35,0,0,1,.029.027,7.183,7.183,0,0,0,4.958,1.787.371.371,0,0,1,.356.363v1.033a2.867,2.867,0,0,1,2.44.772V10.527a3.951,3.951,0,0,0-3.937-3.942,3.9,3.9,0,0,0-2.013.562,3.944,3.944,0,0,0-3.38-1.928h-2.023a7.14,7.14,0,0,0-7.12,7.12v3.19A2.864,2.864,0,0,1,275.027,14.9Zm0,0" transform="translate(-197.611 -3.782)" fill="#6d6c6b"/>
      <path id="Trazado_101758" data-name="Trazado 101758" d="M79.074,139.308a2.873,2.873,0,0,1,.44.034v-.33a.368.368,0,0,1,.372-.364.34.34,0,0,1,.073.008,7.474,7.474,0,0,0,7.486-2.46.372.372,0,0,1,.522-.06c.01.009.019.016.029.026a7.185,7.185,0,0,0,4.958,1.788.371.371,0,0,1,.356.363v1.033a2.863,2.863,0,0,1,2.439.772v-5.179a3.953,3.953,0,0,0-3.936-3.944,3.909,3.909,0,0,0-2.013.563,3.943,3.943,0,0,0-3.379-1.928H84.4a7.141,7.141,0,0,0-7.12,7.12v3.19A2.856,2.856,0,0,1,79.074,139.308Zm0,0" transform="translate(-55.636 -93.921)" fill="#6d6c6b"/>
      <path id="Trazado_101759" data-name="Trazado 101759" d="M344.032,293.777H338.4a4.517,4.517,0,0,0-4.505,4.505v2.2a.61.61,0,0,0,.61.611h13.423a.61.61,0,0,0,.61-.61h0v-2.2A4.517,4.517,0,0,0,344.032,293.777Zm0,0" transform="translate(-241.564 -212.852)" fill="#c1814c"/>
      <path id="Trazado_101760" data-name="Trazado 101760" d="M267.454,355.992h-5.632a4.517,4.517,0,0,0-4.505,4.505v2.2a.61.61,0,0,0,.61.61h13.42a.61.61,0,0,0,.61-.609h0v-2.2A4.517,4.517,0,0,0,267.454,355.992Zm0,0" transform="translate(-186.08 -257.929)" fill="#c1814c"/>
      <path id="Trazado_101761" data-name="Trazado 101761" d="M148.079,418.2h-5.632a4.517,4.517,0,0,0-4.505,4.505v2.2a.611.611,0,0,0,.61.611h13.423a.61.61,0,0,0,.61-.61h0v-2.2A4.518,4.518,0,0,0,148.079,418.2Zm0,0" transform="translate(-99.589 -302.997)" fill="#c1814c"/>
      <path id="Trazado_101762" data-name="Trazado 101762" d="M71.5,480.4H65.869a4.517,4.517,0,0,0-4.505,4.505v2.2a.611.611,0,0,0,.61.611H75.4a.611.611,0,0,0,.61-.61h0v-2.2A4.518,4.518,0,0,0,71.5,480.4Zm0,0" transform="translate(-44.106 -348.065)" fill="#c1814c"/>
      <path id="Trazado_101763" data-name="Trazado 101763" d="M331.842,40.355a2.859,2.859,0,0,0-.46.038c.01.154.017.309.017.466v4.754c0,.155-.007.31-.017.463a2.879,2.879,0,0,0,.926-5.683A3.073,3.073,0,0,0,331.842,40.355Zm0,0" transform="translate(-239.744 -29.24)" fill="#f9d0b4"/>
      <path id="Trazado_101764" data-name="Trazado 101764" d="M272.567,45.6V40.848c0-.157.008-.312.017-.466a2.881,2.881,0,1,0,0,5.683C272.575,45.913,272.567,45.758,272.567,45.6Zm0,0" transform="translate(-194.708 -29.23)" fill="#f9d0b4"/>
      <path id="Trazado_101765" data-name="Trazado 101765" d="M298.757,82.16V80.927a6.852,6.852,0,0,1-7.052-.013v1.305a1.826,1.826,0,0,1-.7,1.445l1.016,1.829a1.651,1.651,0,0,0,1.443.849H297a1.651,1.651,0,0,0,1.443-.849l1.04-1.87A1.827,1.827,0,0,1,298.757,82.16Zm0,0" transform="translate(-210.485 -58.626)" fill="#f9d0b4"/>
      <path id="Trazado_101766" data-name="Trazado 101766" d="M331.842,40.355a2.859,2.859,0,0,0-.46.038c.01.154.017.309.017.466v4.754c0,.155-.007.31-.017.463a2.879,2.879,0,0,0,.926-5.683A3.073,3.073,0,0,0,331.842,40.355Zm0,0" transform="translate(-239.744 -29.24)" fill="#f9d0b4"/>
      <path id="Trazado_101767" data-name="Trazado 101767" d="M272.567,45.6V40.848c0-.157.008-.312.017-.466a2.881,2.881,0,1,0,0,5.683C272.575,45.913,272.567,45.758,272.567,45.6Zm0,0" transform="translate(-194.708 -29.23)" fill="#f9d0b4"/>
      <path id="Trazado_101768" data-name="Trazado 101768" d="M289.291,28.684a7.474,7.474,0,0,1-7.486,2.46.368.368,0,0,0-.437.283.427.427,0,0,0-.009.073v5.553a6.9,6.9,0,0,0,13.8,0V30.8a.369.369,0,0,0-.355-.363,7.2,7.2,0,0,1-4.959-1.788.376.376,0,0,0-.553.037Zm0,0" transform="translate(-203.5 -20.68)" fill="#f9d0b4"/>
      <path id="Trazado_101769" data-name="Trazado 101769" d="M202.315,171.359l-.775,2.939a3.111,3.111,0,0,0,5.954,1.793c.014-.041.027-.081.039-.122l.849-2.888Zm0,0" transform="translate(-145.593 -124.156)" fill="#f9d0b4"/>
      <path id="Trazado_101770" data-name="Trazado 101770" d="M419.021,107.037l-2.349,2.164,4.533,4.766,2.276-2.153a3.268,3.268,0,1,0-4.462-4.777Zm0,0" transform="translate(-301.539 -76.915)" fill="#f9d0b4"/>
      <path id="Trazado_101771" data-name="Trazado 101771" d="M135.889,164.766a2.851,2.851,0,0,0-.459.037c.011.155.017.31.017.466v4.755c0,.155-.006.309-.017.463a2.879,2.879,0,0,0,.925-5.683A2.813,2.813,0,0,0,135.889,164.766Zm0,0" transform="translate(-97.769 -119.379)" fill="#f9d0b4"/>
      <path id="Trazado_101772" data-name="Trazado 101772" d="M76.616,170.013v-4.755c0-.156.008-.311.018-.466a2.882,2.882,0,0,0-.957,5.684,2.915,2.915,0,0,0,.957,0C76.624,170.323,76.616,170.168,76.616,170.013Zm0,0" transform="translate(-52.736 -119.369)" fill="#f9d0b4"/>
      <path id="Trazado_101773" data-name="Trazado 101773" d="M102.807,206.567v-1.231a6.861,6.861,0,0,1-7.052-.016v1.305a1.826,1.826,0,0,1-.7,1.445l1.016,1.829a1.651,1.651,0,0,0,1.443.849h3.543a1.651,1.651,0,0,0,1.443-.849l1.038-1.87A1.829,1.829,0,0,1,102.807,206.567Zm0,0" transform="translate(-68.514 -148.762)" fill="#f9d0b4"/>
      <path id="Trazado_101774" data-name="Trazado 101774" d="M135.889,164.766a2.851,2.851,0,0,0-.459.037c.011.155.017.31.017.466v4.755c0,.155-.006.309-.017.463a2.879,2.879,0,0,0,.925-5.683A2.813,2.813,0,0,0,135.889,164.766Zm0,0" transform="translate(-97.769 -119.379)" fill="#f9d0b4"/>
      <path id="Trazado_101775" data-name="Trazado 101775" d="M76.616,170.013v-4.755c0-.156.008-.311.018-.466a2.882,2.882,0,0,0-.957,5.684,2.915,2.915,0,0,0,.957,0C76.624,170.323,76.616,170.168,76.616,170.013Zm0,0" transform="translate(-52.736 -119.369)" fill="#f9d0b4"/>
      <path id="Trazado_101776" data-name="Trazado 101776" d="M93.338,153.094a7.474,7.474,0,0,1-7.486,2.46.367.367,0,0,0-.437.282.44.44,0,0,0-.009.074v5.553a6.9,6.9,0,0,0,13.8,0v-6.256a.371.371,0,0,0-.356-.363,7.2,7.2,0,0,1-4.958-1.788.372.372,0,0,0-.525.007A.342.342,0,0,0,93.338,153.094Zm0,0" transform="translate(-61.526 -110.819)" fill="#f9d0b4"/>
      <path id="Trazado_101777" data-name="Trazado 101777" d="M6.356,295.777l-.777,2.937a3.111,3.111,0,0,0,5.955,1.793c.013-.041.026-.081.038-.122l.849-2.888Zm0,0" transform="translate(-3.613 -214.301)" fill="#f9d0b4"/>
      <path id="Trazado_101778" data-name="Trazado 101778" d="M214.758,204.234A3.049,3.049,0,0,0,210.7,205.4l-1.852,3.174,5.5,3.062,1.7-3.3A3.051,3.051,0,0,0,214.758,204.234Zm0,0" transform="translate(-150.966 -147.721)" fill="#f9d0b4"/>
      <path id="Trazado_101779" data-name="Trazado 101779" d="M388.136,36.841l1.5-1.377a3.257,3.257,0,0,1,2.2-.862L380.245,8.694a2.2,2.2,0,0,0-2.733-1.2,2.149,2.149,0,0,0-1.263,2.763c.016.043.033.084.052.126Zm0,0" transform="translate(-272.152 -5.34)" fill="#c1814c"/>
      <path id="Trazado_101780" data-name="Trazado 101780" d="M434.968,129.585l-1.6-3.581c-.055.064-.115.128-.179.188l-3.117,2.949.981,2.194a2.146,2.146,0,1,0,3.917-1.753Zm0,0" transform="translate(-311.246 -91.295)" fill="#c1814c"/>
      <path id="Trazado_101781" data-name="Trazado 101781" d="M392.551,15.383l6.1,13.645,12.012-13.561Zm0,0" transform="translate(-284.062 -11.146)" fill="#f75c64"/>
      <path id="Trazado_101782" data-name="Trazado 101782" d="M425.178,224.048H400.466a2.755,2.755,0,0,1,0-5.509h24.713a2.755,2.755,0,1,1,0,5.509Zm0,0" transform="translate(-287.801 -158.34)" fill="#e9e9ea"/>
      <path id="Trazado_101783" data-name="Trazado 101783" d="M438.3,198.543h-7.833a3,3,0,0,0-3,3v2.513H441.3v-2.513a3,3,0,0,0-3-3Zm0,0" transform="translate(-309.364 -143.852)" fill="#e9e9ea"/>
      <path id="Trazado_101784" data-name="Trazado 101784" d="M407.6,238.539h24.131v73.946H407.6Zm0,0" transform="translate(-294.964 -172.83)" fill="#ffae2c"/>
      <path id="Trazado_101785" data-name="Trazado 101785" d="M319.992,320.367h24.133v51.4H319.992Zm0,0" transform="translate(-231.491 -232.117)" fill="#fcd770"/>
      <path id="Trazado_101786" data-name="Trazado 101786" d="M232.391,382.57h24.131v34.27H232.391Zm0,0" transform="translate(-168.021 -277.186)" fill="#ffae2c"/>
      <path id="Trazado_101787" data-name="Trazado 101787" d="M144.785,444.773h24.132v17.135H144.785Zm0,0" transform="translate(-104.548 -322.254)" fill="#fcd770"/>
      <path id="Trazado_101788" data-name="Trazado 101788" d="M171.051,4.926A6.1,6.1,0,0,1,166.21.085.112.112,0,0,0,166.077,0a.112.112,0,0,0-.083.084,6.1,6.1,0,0,1-4.841,4.841.11.11,0,0,0,0,.214,6.1,6.1,0,0,1,4.841,4.841.111.111,0,0,0,.131.084.113.113,0,0,0,.084-.084,6.1,6.1,0,0,1,4.841-4.841.11.11,0,0,0,0-.214Zm0,0" transform="translate(-116.345 0)" fill="#ffae2c"/>
      <path id="Trazado_101789" data-name="Trazado 101789" d="M23.172,380.333H18.385a1.377,1.377,0,1,1,0-2.755h4.787a1.377,1.377,0,1,1,0,2.755Zm0,0" transform="translate(-11.969 -273.569)" fill="#60bae2"/>
      <path id="Trazado_101790" data-name="Trazado 101790" d="M27.073,376.421a1.377,1.377,0,0,1-1.377-1.377v-4.787a1.377,1.377,0,0,1,2.755,0v4.787A1.377,1.377,0,0,1,27.073,376.421Zm0,0" transform="translate(-18.263 -267.266)" fill="#60bae2"/>
      <path id="Trazado_101791" data-name="Trazado 101791" d="M491.213,120.223h-4.785a1.377,1.377,0,1,1,0-2.755h4.787a1.377,1.377,0,1,1,0,2.755Zm0,0" transform="translate(-351.081 -85.111)" fill="#f75c64"/>
      <path id="Trazado_101792" data-name="Trazado 101792" d="M495.108,116.319a1.377,1.377,0,0,1-1.377-1.377v-4.787a1.377,1.377,0,1,1,2.755,0v4.787A1.377,1.377,0,0,1,495.108,116.319Zm0,0" transform="translate(-357.37 -78.814)" fill="#f75c64"/>
      <path id="Trazado_101793" data-name="Trazado 101793" d="M474.041,167.087a1.391,1.391,0,0,1-.975-.4,1.372,1.372,0,0,1-.171-.209,1.536,1.536,0,0,1-.127-.24,1.426,1.426,0,0,1-.077-.256,1.285,1.285,0,0,1-.028-.27,1.271,1.271,0,0,1,.028-.27,1.428,1.428,0,0,1,.077-.256,1.491,1.491,0,0,1,.127-.24,1.363,1.363,0,0,1,.171-.209,1.39,1.39,0,0,1,1.5-.3,1.481,1.481,0,0,1,.237.127,1.277,1.277,0,0,1,.21.171,1.429,1.429,0,0,1,.171.209,1.414,1.414,0,0,1,.126.24,1.357,1.357,0,0,1,.081.256,1.485,1.485,0,0,1,.027.27,1.5,1.5,0,0,1-.027.27,1.356,1.356,0,0,1-.081.256,1.454,1.454,0,0,1-.126.24,1.435,1.435,0,0,1-.171.209,1.282,1.282,0,0,1-.21.171,1.569,1.569,0,0,1-.237.127,1.456,1.456,0,0,1-.258.076A1.247,1.247,0,0,1,474.041,167.087Zm0,0" transform="translate(-342.107 -119.066)" fill="#fcd770"/>
      <path id="Trazado_101794" data-name="Trazado 101794" d="M210.2,66.38a1.372,1.372,0,0,1-1.146-.611,1.5,1.5,0,0,1-.127-.24,1.425,1.425,0,0,1-.076-.256,1.257,1.257,0,0,1-.028-.27,1.271,1.271,0,0,1,.028-.27,1.426,1.426,0,0,1,.076-.256,1.55,1.55,0,0,1,.127-.24,1.375,1.375,0,0,1,1.672-.507,1.568,1.568,0,0,1,.237.127,1.278,1.278,0,0,1,.21.171,1.444,1.444,0,0,1,.171.209,1.46,1.46,0,0,1,.126.24,1.357,1.357,0,0,1,.081.256,1.519,1.519,0,0,1,.027.27,1.5,1.5,0,0,1-.027.27,1.356,1.356,0,0,1-.081.256,1.418,1.418,0,0,1-.126.24,1.444,1.444,0,0,1-.171.209,1.224,1.224,0,0,1-.21.171,1.469,1.469,0,0,1-.237.127,1.357,1.357,0,0,1-.259.077A1.229,1.229,0,0,1,210.2,66.38Zm0,0" transform="translate(-150.943 -46.101)" fill="#6dcc6d"/>
      <path id="Trazado_101795" data-name="Trazado 101795" d="M421.555,221.8H396.843a4.132,4.132,0,0,1,0-8.264h24.712a4.132,4.132,0,1,1,0,8.264Zm-24.712-5.509a1.377,1.377,0,1,0,0,2.755h24.712a1.377,1.377,0,1,0,0-2.755Zm0,0" transform="translate(-284.178 -154.717)" fill="#231f20"/>
      <path id="Trazado_101796" data-name="Trazado 101796" d="M437.67,201.806H423.842a1.377,1.377,0,0,1-1.377-1.377v-2.513a4.379,4.379,0,0,1,4.373-4.373h7.834a4.38,4.38,0,0,1,4.374,4.373v2.513A1.377,1.377,0,0,1,437.67,201.806Zm-12.451-2.755h11.074v-1.135a1.621,1.621,0,0,0-1.62-1.618H426.84a1.621,1.621,0,0,0-1.618,1.618Zm0,0" transform="translate(-305.736 -140.229)" fill="#231f20"/>
      <path id="Trazado_101797" data-name="Trazado 101797" d="M395.031,26.779a1.378,1.378,0,0,1-1.257-.815l-6.1-13.646a1.379,1.379,0,0,1,.1-1.314,1.342,1.342,0,0,1,1.161-.626l18.116.084a1.378,1.378,0,0,1,1.026,2.29L396.062,26.315A1.372,1.372,0,0,1,395.031,26.779Zm-3.975-13.637,4.36,9.747L404,13.2Zm0,0" transform="translate(-280.439 -7.52)" fill="#231f20"/>
      <path id="Trazado_101798" data-name="Trazado 101798" d="M331.842,40.355a2.859,2.859,0,0,0-.46.038c.01.154.017.309.017.466v4.754c0,.155-.007.31-.017.463a2.879,2.879,0,0,0,.926-5.683A3.073,3.073,0,0,0,331.842,40.355Zm0,0" transform="translate(-239.744 -29.24)" fill="#f9d0b4"/>
      <path id="Trazado_101799" data-name="Trazado 101799" d="M272.567,45.6V40.848c0-.157.008-.312.017-.466a2.881,2.881,0,1,0,0,5.683C272.575,45.913,272.567,45.758,272.567,45.6Zm0,0" transform="translate(-194.708 -29.23)" fill="#f9d0b4"/>
      <path id="Trazado_101800" data-name="Trazado 101800" d="M302.784,112.945a1.374,1.374,0,0,1-1.377-1.369v-.009a1.369,1.369,0,0,1,.4-.975,1.42,1.42,0,0,1,1.945,0,1.37,1.37,0,0,1,.408.975,1.4,1.4,0,0,1-.408.976,1.413,1.413,0,0,1-.445.3A1.393,1.393,0,0,1,302.784,112.945Zm0,0" transform="translate(-218.025 -79.85)" fill="#231f20"/>
      <path id="Trazado_101801" data-name="Trazado 101801" d="M302.783,131.467a1.4,1.4,0,0,1-.975-.4,1.375,1.375,0,0,1-.3-.447,1.624,1.624,0,0,1-.076-.259,1.13,1.13,0,0,1-.028-.27,1.4,1.4,0,0,1,.022-.269,1.491,1.491,0,0,1,.082-.259,1.465,1.465,0,0,1,.127-.237,1.247,1.247,0,0,1,.171-.21,1.434,1.434,0,0,1,1.95,0,1.569,1.569,0,0,1,.171.21,1.918,1.918,0,0,1,.127.237,1.468,1.468,0,0,1,.077.259,1.379,1.379,0,0,1,0,.539,1.208,1.208,0,0,1-.083.259,1.328,1.328,0,0,1-.122.238c-.055.071-.11.143-.171.209A1.4,1.4,0,0,1,302.783,131.467Zm0,0" transform="translate(-218.025 -93.272)" fill="#231f20"/>
      <path id="Trazado_101802" data-name="Trazado 101802" d="M302.785,149.934a1.207,1.207,0,0,1-.27-.028,1.427,1.427,0,0,1-.258-.077,1.173,1.173,0,0,1-.238-.127,1.5,1.5,0,0,1-.209-.171,1.575,1.575,0,0,1-.171-.209,1.391,1.391,0,0,1-.2-1.035,1.651,1.651,0,0,1,.076-.259,1.52,1.52,0,0,1,.127-.238,1.237,1.237,0,0,1,.171-.2,1.369,1.369,0,0,1,1.245-.38,1.435,1.435,0,0,1,.254.077,1.572,1.572,0,0,1,.237.127,1.086,1.086,0,0,1,.209.175,1.175,1.175,0,0,1,.176.2,2.046,2.046,0,0,1,.127.238,1.571,1.571,0,0,1,.077.259,1.6,1.6,0,0,1,.027.27,1.382,1.382,0,0,1-.408.975,1.275,1.275,0,0,1-.209.171,1.2,1.2,0,0,1-.237.126,1.3,1.3,0,0,1-.254.077A1.135,1.135,0,0,1,302.785,149.934Zm0,0" transform="translate(-218.026 -106.637)" fill="#231f20"/>
      <path id="Trazado_101803" data-name="Trazado 101803" d="M302.785,168.465a1.09,1.09,0,0,1-.27-.027,1.436,1.436,0,0,1-.258-.079,1.17,1.17,0,0,1-.238-.126,1.055,1.055,0,0,1-.209-.171,1.385,1.385,0,0,1,0-1.951,1.31,1.31,0,0,1,.209-.17,1.227,1.227,0,0,1,.238-.127,1.375,1.375,0,0,1,1.052,0,1.254,1.254,0,0,1,.237.127,1.712,1.712,0,0,1,.214.17c.061.067.116.138.171.21a1.622,1.622,0,0,1,.127.242,1.391,1.391,0,0,1,.077.254,1.373,1.373,0,0,1,0,.54,1.463,1.463,0,0,1-.077.258,1.8,1.8,0,0,1-.127.237,2.275,2.275,0,0,1-.171.21,1.224,1.224,0,0,1-.214.171,1.194,1.194,0,0,1-.237.126,1.443,1.443,0,0,1-.254.079A1.134,1.134,0,0,1,302.785,168.465Zm0,0" transform="translate(-218.026 -120.065)" fill="#231f20"/>
      <path id="Trazado_101804" data-name="Trazado 101804" d="M293.387,84.1h-3.542a3.029,3.029,0,0,1-2.645-1.558l-1.016-1.828a1.377,1.377,0,0,1,.354-1.753.456.456,0,0,0,.178-.362V77.291a1.378,1.378,0,0,1,2.088-1.18,5.563,5.563,0,0,0,5.636.011,1.377,1.377,0,0,1,2.083,1.183v1.233a.452.452,0,0,0,.183.367,1.376,1.376,0,0,1,.37,1.763l-1.038,1.87A3.032,3.032,0,0,1,293.387,84.1Zm-4.342-3.9.561,1.009a.278.278,0,0,0,.239.141h3.542a.276.276,0,0,0,.239-.141l.578-1.039a3.181,3.181,0,0,1-.339-.821,8.285,8.285,0,0,1-4.484,0A3.148,3.148,0,0,1,289.045,80.192Zm0,0" transform="translate(-206.87 -55.003)" fill="#231f20"/>
      <path id="Trazado_101805" data-name="Trazado 101805" d="M328.214,43.872a4.221,4.221,0,0,1-.679-.058,1.377,1.377,0,0,1-1.157-1.454c.007-.123.014-.245.014-.369V37.236c0-.127-.007-.251-.014-.374a1.378,1.378,0,0,1,1.157-1.452,4.257,4.257,0,0,1,1.337,8.408A4.214,4.214,0,0,1,328.214,43.872Zm.936-5.434v2.352a1.5,1.5,0,0,0,0-2.352Zm0,0" transform="translate(-236.115 -25.618)" fill="#231f20"/>
      <path id="Trazado_101806" data-name="Trazado 101806" d="M268.538,43.871a4.258,4.258,0,1,1,.68-8.46,1.376,1.376,0,0,1,1.157,1.453c-.008.124-.014.247-.014.372v4.755c0,.125.007.247.014.371a1.376,1.376,0,0,1-1.157,1.451A4.244,4.244,0,0,1,268.538,43.871Zm-.937-5.434a1.5,1.5,0,0,0-.243,2.109,1.535,1.535,0,0,0,.243.243Zm0,0" transform="translate(-191.121 -25.617)" fill="#231f20"/>
      <path id="Trazado_101807" data-name="Trazado 101807" d="M284.635,41.718a8.286,8.286,0,0,1-8.276-8.276V27.893a1.743,1.743,0,0,1,2.1-1.708,6.077,6.077,0,0,0,6.127-1.968,1.75,1.75,0,0,1,1.263-.657,1.785,1.785,0,0,1,1.332.5,5.854,5.854,0,0,0,4.03,1.395,1.745,1.745,0,0,1,1.694,1.71v6.28A8.285,8.285,0,0,1,284.635,41.718Zm-5.521-12.666v4.39a5.521,5.521,0,1,0,11.042,0V28.136a8.75,8.75,0,0,1-4.089-1.446A8.7,8.7,0,0,1,279.114,29.052Zm7.63-3.121" transform="translate(-199.878 -17.069)" fill="#231f20"/>
      <path id="Trazado_101808" data-name="Trazado 101808" d="M288.085,13.461a1.376,1.376,0,0,1-.957-.385,1.514,1.514,0,0,0-1.272-.4,1.378,1.378,0,0,1-1.588-1.361v-.084A8.741,8.741,0,0,1,280.18,9.78a8.775,8.775,0,0,1-7.217,2.338,1.378,1.378,0,0,1-1.329.551,1.476,1.476,0,0,0-1.166.311A1.377,1.377,0,0,1,268.23,11.9V8.716a8.508,8.508,0,0,1,8.5-8.5h2.023a5.344,5.344,0,0,1,3.8,1.614,5.246,5.246,0,0,1,1.591-.246A5.324,5.324,0,0,1,289.461,6.9v5.179a1.377,1.377,0,0,1-1.377,1.377ZM276.728,2.973a5.75,5.75,0,0,0-5.743,5.743V9.745c.04-.04.083-.079.127-.115a1.742,1.742,0,0,1,1.461-.355A6.076,6.076,0,0,0,278.7,7.307a1.751,1.751,0,0,1,1.263-.662,1.79,1.79,0,0,1,1.332.5,5.86,5.86,0,0,0,4.03,1.393,1.738,1.738,0,0,1,1.377.747V6.9a2.564,2.564,0,0,0-2.56-2.563,2.535,2.535,0,0,0-1.3.365,1.377,1.377,0,0,1-1.889-.472,2.582,2.582,0,0,0-2.2-1.259Zm2.637,6.139" transform="translate(-193.988 -0.16)" fill="#231f20"/>
      <path id="Trazado_101809" data-name="Trazado 101809" d="M200.935,110.436a4.5,4.5,0,0,1-4.346-5.636l2.6-9.868a12.4,12.4,0,0,1,3.643-6.014l8.039-7.328a9.819,9.819,0,0,1,6.63-2.568h3.454a1.383,1.383,0,0,1,.3.033.46.46,0,0,0,.55-.349.524.524,0,0,0,.011-.1V77.3A1.376,1.376,0,0,1,223.9,76.12a5.565,5.565,0,0,0,5.636.011,1.377,1.377,0,0,1,2.083,1.183v1.23a.462.462,0,0,0,.461.462.429.429,0,0,0,.111-.014,1.367,1.367,0,0,1,.33-.041h4.56a7.31,7.31,0,0,1,5.3,2.289l8.946,9.507,7.193-6.628a4.646,4.646,0,0,1,6.34,6.791l-8.837,8.36a6.788,6.788,0,0,1-9.472-.26l-7.879-8.068v16.026a1.377,1.377,0,0,1-1.377,1.377H216.142a1.377,1.377,0,0,1-1.377-1.377V91.074l-6.244,5.861a1.852,1.852,0,0,0-.509.826l-2.776,9.448a4.5,4.5,0,0,1-4.3,3.226ZM217.5,81.773a7.073,7.073,0,0,0-4.774,1.85l-8.039,7.328a9.643,9.643,0,0,0-2.836,4.683l-2.6,9.868a1.734,1.734,0,0,0,3.319,1c.008-.023.015-.045.021-.068l2.775-9.45a4.618,4.618,0,0,1,1.266-2.06l7.542-7.079a1.984,1.984,0,0,1,3.342,1.447v16.3h18.4V88.976a1.955,1.955,0,0,1,3.366-1.354l9.237,9.461a4.037,4.037,0,0,0,5.628.166l8.815-8.343a1.89,1.89,0,1,0-2.579-2.763l-8.194,7.552a1.377,1.377,0,0,1-1.936-.07l-9.88-10.5a4.54,4.54,0,0,0-3.291-1.421h-4.416a3.218,3.218,0,0,1-3.7-2.358,8.289,8.289,0,0,1-4.485,0,3.217,3.217,0,0,1-3.656,2.429Zm19.8,7.766.009.009Zm0,0" transform="translate(-141.974 -55.009)" fill="#231f20"/>
      <path id="Trazado_101810" data-name="Trazado 101810" d="M200.935,175.961a4.495,4.495,0,0,1-4.346-5.636l.775-2.939a1.376,1.376,0,0,1,1.683-.98l.025.007,6.067,1.722a1.377,1.377,0,0,1,.949,1.7l0,.012-.849,2.888a4.5,4.5,0,0,1-4.3,3.226Zm-1.266-6.515-.418,1.582a1.734,1.734,0,0,0,3.319,1c.009-.023.015-.045.022-.068l.457-1.554Zm0,0" transform="translate(-141.974 -120.534)" fill="#231f20"/>
      <path id="Trazado_101811" data-name="Trazado 101811" d="M417.583,111.816a1.372,1.372,0,0,1-1-.428l-4.532-4.767a1.376,1.376,0,0,1,.049-1.947.2.2,0,0,0,.015-.015l2.349-2.165a4.646,4.646,0,0,1,6.34,6.791l-2.276,2.153A1.375,1.375,0,0,1,417.583,111.816Zm-2.571-6.079,2.622,2.755,1.277-1.213a1.89,1.89,0,1,0-2.579-2.763Zm0,0" transform="translate(-297.918 -73.387)" fill="#231f20"/>
      <path id="Trazado_101812" data-name="Trazado 101812" d="M344.3,298.857H330.882a1.99,1.99,0,0,1-1.987-1.987v-2.2a5.89,5.89,0,0,1,5.883-5.888h5.632a5.89,5.89,0,0,1,5.883,5.886v2.2A1.99,1.99,0,0,1,344.3,298.857ZM331.649,296.1h11.888v-1.439a3.131,3.131,0,0,0-3.128-3.128h-5.632a3.131,3.131,0,0,0-3.128,3.128Zm0,0" transform="translate(-237.941 -209.23)" fill="#231f20"/>
      <path id="Trazado_101813" data-name="Trazado 101813" d="M267.724,361.079H254.3a1.989,1.989,0,0,1-1.987-1.987v-2.2A5.89,5.89,0,0,1,258.2,351h5.632a5.891,5.891,0,0,1,5.884,5.884v2.2A1.99,1.99,0,0,1,267.724,361.079Zm-12.655-2.755h11.889v-1.438a3.132,3.132,0,0,0-3.129-3.129H258.2a3.131,3.131,0,0,0-3.128,3.129Zm0,0" transform="translate(-182.458 -254.315)" fill="#231f20"/>
      <path id="Trazado_101814" data-name="Trazado 101814" d="M264.33,232.769a1.377,1.377,0,0,1-1.377-1.377v-46.4a1.377,1.377,0,0,1,1.377-1.377H287.7a7.587,7.587,0,0,1,7.58,7.579v22.955a1.378,1.378,0,0,1-1.767,1.322,3.114,3.114,0,0,0-.878-.129H287a3.078,3.078,0,0,0-1.047.187,1.377,1.377,0,0,1-1.761-.83,1.357,1.357,0,0,1-.082-.467V194.782h-8.375a1.619,1.619,0,0,0-1.617,1.618v34.87a1.378,1.378,0,0,1-1.377,1.377,1.352,1.352,0,0,1-.371-.052,3.076,3.076,0,0,0-.834-.118h-5.63a3.075,3.075,0,0,0-1.091.2A1.375,1.375,0,0,1,264.33,232.769Zm1.378-46.4v43.354c.065,0,.132,0,.2,0h5.459V196.4a4.378,4.378,0,0,1,4.373-4.373h9.752a1.377,1.377,0,0,1,1.377,1.377V212.59h5.657V191.2a4.831,4.831,0,0,0-4.825-4.824Zm0,0" transform="translate(-190.164 -133.038)" fill="#231f20"/>
      <path id="Trazado_101815" data-name="Trazado 101815" d="M264.33,342.213a1.377,1.377,0,0,1-1.377-1.377v-4.786a1.377,1.377,0,0,1,1.377-1.377h8.411a1.377,1.377,0,0,1,1.377,1.377v4.666a1.377,1.377,0,0,1-1.377,1.377,1.361,1.361,0,0,1-.371-.052,3.069,3.069,0,0,0-.833-.118h-5.632a3.076,3.076,0,0,0-1.091.2A1.372,1.372,0,0,1,264.33,342.213Zm1.378-4.786v1.744c.065,0,.132,0,.2,0h5.459v-1.741Zm0,0" transform="translate(-190.164 -242.482)" fill="#231f20"/>
      <path id="Trazado_101816" data-name="Trazado 101816" d="M341.139,279.986a1.376,1.376,0,0,1-1.377-1.377v-4.763a1.377,1.377,0,0,1,1.377-1.377h8.412a1.377,1.377,0,0,1,1.377,1.377v4.683a1.377,1.377,0,0,1-1.376,1.378,1.406,1.406,0,0,1-.391-.056,3.075,3.075,0,0,0-.878-.129h-5.632a3.1,3.1,0,0,0-1.047.186A1.334,1.334,0,0,1,341.139,279.986Zm1.378-4.763v1.742h5.657v-1.741Zm0,0" transform="translate(-245.815 -197.413)" fill="#231f20"/>
      <path id="Trazado_101817" data-name="Trazado 101817" d="M384.509,34.587a1.375,1.375,0,0,1-1.257-.815L371.412,7.307A3.527,3.527,0,0,1,373.2,2.65c.069-.03.139-.058.209-.085a3.568,3.568,0,0,1,4.47,1.933l11.59,25.908a1.375,1.375,0,0,1-1.251,1.939,1.89,1.89,0,0,0-1.273.5l-1.5,1.377A1.381,1.381,0,0,1,384.509,34.587ZM374.6,5.1a.674.674,0,0,0-.235.042.769.769,0,0,0-.458.986c.006.017.013.034.02.051L384.984,30.9l.088-.081a4.63,4.63,0,0,1,1.2-.8l-10.913-24.4A.859.859,0,0,0,374.6,5.1Zm0,0" transform="translate(-268.524 -1.708)" fill="#231f20"/>
      <path id="Trazado_101818" data-name="Trazado 101818" d="M429.391,130.38a3.524,3.524,0,0,1-3.222-2.084l-.981-2.193a1.377,1.377,0,0,1,.311-1.562l3.117-2.951c.036-.033.068-.07.1-.1a1.379,1.379,0,0,1,2.283.355l1.6,3.581a3.521,3.521,0,0,1-3.21,4.958Zm-1.289-4.51.582,1.3a.768.768,0,1,0,1.4-.627l-.8-1.794Zm0,0" transform="translate(-307.622 -87.69)" fill="#231f20"/>
      <path id="Trazado_101819" data-name="Trazado 101819" d="M135.889,164.766a2.851,2.851,0,0,0-.459.037c.011.155.017.31.017.466v4.755c0,.155-.006.309-.017.463a2.879,2.879,0,0,0,.925-5.683A2.813,2.813,0,0,0,135.889,164.766Zm0,0" transform="translate(-97.769 -119.379)" fill="#f9d0b4"/>
      <path id="Trazado_101820" data-name="Trazado 101820" d="M76.616,170.013v-4.755c0-.156.008-.311.018-.466a2.882,2.882,0,0,0-.957,5.684,2.915,2.915,0,0,0,.957,0C76.624,170.323,76.616,170.168,76.616,170.013Zm0,0" transform="translate(-52.736 -119.369)" fill="#f9d0b4"/>
      <g id="Grupo_57214" data-name="Grupo 57214" transform="translate(0.488 34.33)">
        <path id="Trazado_101821" data-name="Trazado 101821" d="M106.821,237.294a1.377,1.377,0,0,1-.975-2.352c.067-.06.138-.116.21-.171a1.915,1.915,0,0,1,.237-.127,1.533,1.533,0,0,1,.259-.077,1.3,1.3,0,0,1,.539,0,1.534,1.534,0,0,1,.259.077,2,2,0,0,1,.237.127,2.285,2.285,0,0,1,.21.171,1.377,1.377,0,0,1-.976,2.352Zm0,0" transform="translate(-76.53 -204.262)" fill="#231f20"/>
        <path id="Trazado_101822" data-name="Trazado 101822" d="M106.827,255.822a1.133,1.133,0,0,1-.269-.027,1.554,1.554,0,0,1-.259-.078,1.38,1.38,0,0,1-.237-.127,1.531,1.531,0,0,1-.21-.17,1.456,1.456,0,0,1-.171-.21,1.223,1.223,0,0,1-.126-.238,1.346,1.346,0,0,1-.078-.258,1.522,1.522,0,0,1-.028-.27,1.433,1.433,0,0,1,.028-.264,1.368,1.368,0,0,1,.078-.26,1.247,1.247,0,0,1,.126-.237,1.392,1.392,0,0,1,.171-.209,1.459,1.459,0,0,1,.21-.171,1.418,1.418,0,0,1,.237-.132,1.541,1.541,0,0,1,.259-.077,1.467,1.467,0,0,1,.539,0,1.368,1.368,0,0,1,.259.077,1.419,1.419,0,0,1,.237.132,1.241,1.241,0,0,1,.21.171,1.322,1.322,0,0,1,.17.209,1.254,1.254,0,0,1,.127.237,1.451,1.451,0,0,1,.077.26,1.337,1.337,0,0,1,0,.534,1.343,1.343,0,0,1-.077.258,1.23,1.23,0,0,1-.127.238,1.355,1.355,0,0,1-1.146.611Zm0,0" transform="translate(-76.536 -217.688)" fill="#231f20"/>
        <path id="Trazado_101823" data-name="Trazado 101823" d="M106.827,274.338a1.488,1.488,0,0,1-.269-.023,1.548,1.548,0,0,1-.259-.082,1.4,1.4,0,0,1-.237-.127,1.459,1.459,0,0,1-.21-.171,1.389,1.389,0,0,1-.171-.209,1.675,1.675,0,0,1-.126-.238,1.341,1.341,0,0,1-.078-.259,1.453,1.453,0,0,1-.028-.264,1.522,1.522,0,0,1,.028-.27,1.346,1.346,0,0,1,.078-.258,1.216,1.216,0,0,1,.126-.238,1.45,1.45,0,0,1,.171-.21,1.427,1.427,0,0,1,.21-.17,1.305,1.305,0,0,1,.237-.127,1.557,1.557,0,0,1,.259-.082,1.36,1.36,0,0,1,1.035.209,1.445,1.445,0,0,1,.21.171,1.321,1.321,0,0,1,.17.209,1.223,1.223,0,0,1,.127.238,1.355,1.355,0,0,1,.077.259,1.084,1.084,0,0,1,.027.27,1.1,1.1,0,0,1-.027.264,1.467,1.467,0,0,1-.077.259,1.247,1.247,0,0,1-.127.237,1.376,1.376,0,0,1-.17.21,1.454,1.454,0,0,1-.21.17,1.331,1.331,0,0,1-.237.127,1.429,1.429,0,0,1-.259.083A1.507,1.507,0,0,1,106.827,274.338Zm0,0" transform="translate(-76.536 -231.104)" fill="#231f20"/>
        <path id="Trazado_101824" data-name="Trazado 101824" d="M106.821,292.919a1.378,1.378,0,0,1-.975-2.353,1.424,1.424,0,0,1,1.951,0,1.226,1.226,0,0,1,.17.21,1.255,1.255,0,0,1,.127.237,1.436,1.436,0,0,1,.077.259,1.409,1.409,0,0,1,.027.27,1.52,1.52,0,0,1-.027.27,1.4,1.4,0,0,1-.077.253,1.259,1.259,0,0,1-.127.237,1.644,1.644,0,0,1-.17.215,1.6,1.6,0,0,1-.21.171,1.848,1.848,0,0,1-.237.126,1.434,1.434,0,0,1-.259.078A1.608,1.608,0,0,1,106.821,292.919Zm0,0" transform="translate(-76.53 -244.575)" fill="#231f20"/>
        <path id="Trazado_101825" data-name="Trazado 101825" d="M97.435,208.5H93.893a3.031,3.031,0,0,1-2.645-1.557l-1.016-1.829a1.377,1.377,0,0,1,.354-1.752.454.454,0,0,0,.178-.361V201.7a1.376,1.376,0,0,1,2.088-1.179,5.566,5.566,0,0,0,5.636.01,1.378,1.378,0,0,1,2.083,1.184v1.233a.452.452,0,0,0,.184.366,1.378,1.378,0,0,1,.37,1.763l-1.042,1.875A3.03,3.03,0,0,1,97.435,208.5Zm-4.342-3.9.561,1.009a.274.274,0,0,0,.239.14h3.543a.274.274,0,0,0,.239-.14l.578-1.039a3.179,3.179,0,0,1-.339-.821,8.286,8.286,0,0,1-4.484,0A3.245,3.245,0,0,1,93.093,204.6Zm0,0" transform="translate(-65.385 -179.47)" fill="#231f20"/>
        <path id="Trazado_101826" data-name="Trazado 101826" d="M132.261,168.279a4.216,4.216,0,0,1-.679-.058,1.376,1.376,0,0,1-1.157-1.45c.008-.124.014-.246.014-.371v-4.755c0-.126-.006-.25-.014-.374a1.376,1.376,0,0,1,1.157-1.451,4.257,4.257,0,1,1,.68,8.459Zm.937-5.434V165.2a1.5,1.5,0,0,0,.243-2.109A1.534,1.534,0,0,0,133.2,162.845Zm0,0" transform="translate(-94.63 -150.085)" fill="#231f20"/>
        <path id="Trazado_101827" data-name="Trazado 101827" d="M72.585,168.28a4.257,4.257,0,1,1-.013-8.515,4.147,4.147,0,0,1,.693.055,1.378,1.378,0,0,1,1.152,1.45c-.009.125-.014.249-.014.375V166.4c0,.125.005.247.014.371a1.377,1.377,0,0,1-1.157,1.451A4.208,4.208,0,0,1,72.585,168.28Zm-.937-5.434a1.5,1.5,0,0,0-.243,2.109,1.445,1.445,0,0,0,.243.243Zm0,0" transform="translate(-49.635 -150.086)" fill="#231f20"/>
        <path id="Trazado_101828" data-name="Trazado 101828" d="M88.682,166.125a8.285,8.285,0,0,1-8.276-8.276V152.3a1.746,1.746,0,0,1,1.746-1.745,1.811,1.811,0,0,1,.357.037,6.073,6.073,0,0,0,6.127-1.968,1.749,1.749,0,0,1,2.458-.28c.047.038.093.079.137.121a5.857,5.857,0,0,0,4.031,1.395,1.746,1.746,0,0,1,1.694,1.713v6.278A8.286,8.286,0,0,1,88.682,166.125Zm-5.521-12.666v4.39a5.521,5.521,0,0,0,11.042,0V152.54a8.728,8.728,0,0,1-4.088-1.444A8.7,8.7,0,0,1,83.161,153.459Zm7.631-3.123" transform="translate(-58.391 -141.535)" fill="#231f20"/>
        <path id="Trazado_101829" data-name="Trazado 101829" d="M92.129,137.871a1.381,1.381,0,0,1-.957-.386,1.513,1.513,0,0,0-1.272-.4,1.377,1.377,0,0,1-1.573-1.148,1.4,1.4,0,0,1-.016-.212v-.087a8.727,8.727,0,0,1-4.088-1.444A8.773,8.773,0,0,1,77,136.529a1.374,1.374,0,0,1-1.327.551,1.475,1.475,0,0,0-1.166.311,1.377,1.377,0,0,1-2.238-1.076v-3.188a8.507,8.507,0,0,1,8.5-8.5H82.8a5.33,5.33,0,0,1,3.8,1.614,5.25,5.25,0,0,1,1.59-.248,5.324,5.324,0,0,1,5.318,5.318v5.179a1.377,1.377,0,0,1-1.377,1.377ZM80.772,127.384a5.749,5.749,0,0,0-5.743,5.743v1.029c.041-.041.084-.08.128-.116a1.754,1.754,0,0,1,1.46-.355,6.073,6.073,0,0,0,6.127-1.968,1.75,1.75,0,0,1,2.458-.282,1.636,1.636,0,0,1,.137.122,5.857,5.857,0,0,0,4.032,1.395,1.741,1.741,0,0,1,1.377.746v-2.382a2.548,2.548,0,0,0-3.863-2.2,1.378,1.378,0,0,1-1.891-.471,0,0,0,0,0,0,0,2.579,2.579,0,0,0-2.2-1.259Zm0,0" transform="translate(-52.499 -124.629)" fill="#231f20"/>
        <path id="Trazado_101830" data-name="Trazado 101830" d="M4.982,233.792a4.5,4.5,0,0,1-4.347-5.636l2.849-10.8a9.145,9.145,0,0,1,2.685-4.431l9.688-8.832a6.562,6.562,0,0,1,4.429-1.716h4.721a1.393,1.393,0,0,1,.3.033.46.46,0,0,0,.549-.349.453.453,0,0,0,.011-.1v-1.306a1.376,1.376,0,0,1,2.088-1.179,5.565,5.565,0,0,0,5.636.011,1.377,1.377,0,0,1,2.083,1.183V201.9a.461.461,0,0,0,.461.461.421.421,0,0,0,.111-.014,1.375,1.375,0,0,1,.331-.04H40.81a10.43,10.43,0,0,1,6.014,1.9l7.022,4.922,4.7-8.05a4.427,4.427,0,0,1,7.759,4.259l-5.4,10.489-.033.06a7.7,7.7,0,0,1-10.524,2.8c-.1-.056-.192-.114-.285-.174l-7.344-4.7v16.51a1.377,1.377,0,0,1-1.377,1.377H20.19a1.377,1.377,0,0,1-1.377-1.377V214.428L12.2,220.634l-2.92,9.931a4.5,4.5,0,0,1-4.3,3.226Zm15.3-28.661a3.807,3.807,0,0,0-2.573,1l-9.687,8.83a6.4,6.4,0,0,0-1.878,3.1L3.3,228.858a1.734,1.734,0,0,0,3.319,1c.008-.023.015-.045.022-.068L9.663,219.5a1.376,1.376,0,0,1,.38-.615l9.2-8.64a1.378,1.378,0,0,1,2.32,1v17.7h18.4V212.332a1.955,1.955,0,0,1,3.213-1.5l8.369,5.352a4.943,4.943,0,0,0,6.829-1.5l.1-.157,5.381-10.457a1.673,1.673,0,0,0-2.932-1.61l-4.883,8.362c-.014.023-.027.045-.042.067a2.478,2.478,0,0,1-3.436.7l-.056-.038-7.265-5.1a7.688,7.688,0,0,0-4.432-1.4H36.718a3.217,3.217,0,0,1-3.7-2.357,8.311,8.311,0,0,1-4.485,0,3.218,3.218,0,0,1-3.656,2.429Zm0,0" transform="translate(-0.488 -178.424)" fill="#231f20"/>
        <path id="Trazado_101831" data-name="Trazado 101831" d="M4.982,300.37a4.5,4.5,0,0,1-4.347-5.636l.776-2.94a1.378,1.378,0,0,1,1.683-.98l.025.007,6.065,1.722a1.378,1.378,0,0,1,.949,1.7l0,.013-.849,2.887a4.5,4.5,0,0,1-4.3,3.226Zm-1.265-6.514L3.3,295.438a1.734,1.734,0,0,0,3.32,1c.008-.021.014-.044.022-.066l.456-1.555Zm0,0" transform="translate(-0.488 -245.002)" fill="#231f20"/>
        <path id="Trazado_101832" data-name="Trazado 101832" d="M148.351,423.281H134.929a1.99,1.99,0,0,1-1.987-1.987v-2.2a5.889,5.889,0,0,1,5.883-5.883h5.632a5.89,5.89,0,0,1,5.883,5.883v2.2A1.99,1.99,0,0,1,148.351,423.281ZM135.7,420.526h11.888v-1.439a3.131,3.131,0,0,0-3.128-3.128h-5.632a3.131,3.131,0,0,0-3.128,3.128Zm0,0" transform="translate(-96.455 -333.713)" fill="#231f20"/>
        <path id="Trazado_101833" data-name="Trazado 101833" d="M71.773,485.474H58.351a1.989,1.989,0,0,1-1.987-1.986v-2.2a5.889,5.889,0,0,1,5.883-5.886h5.632a5.889,5.889,0,0,1,5.883,5.883v2.2A1.99,1.99,0,0,1,71.773,485.474ZM59.118,482.72H71.006v-1.438a3.132,3.132,0,0,0-3.128-3.129H62.246a3.132,3.132,0,0,0-3.128,3.129Zm0,0" transform="translate(-40.972 -378.773)" fill="#231f20"/>
        <path id="Trazado_101834" data-name="Trazado 101834" d="M68.381,357.176A1.377,1.377,0,0,1,67,355.8V309.4a1.377,1.377,0,0,1,1.377-1.377H91.748a7.588,7.588,0,0,1,7.58,7.58v22.955a1.376,1.376,0,0,1-1.768,1.321,3.1,3.1,0,0,0-.877-.128H91.05a3.079,3.079,0,0,0-1.047.186,1.375,1.375,0,0,1-1.841-1.294V319.19H79.787a1.621,1.621,0,0,0-1.618,1.618v34.869a1.377,1.377,0,0,1-1.377,1.377A1.359,1.359,0,0,1,76.42,357a3.158,3.158,0,0,0-.833-.118H69.955a3.093,3.093,0,0,0-1.09.2A1.381,1.381,0,0,1,68.381,357.176Zm1.377-46.4v43.355q.1,0,.2,0h5.459V320.807a4.379,4.379,0,0,1,4.373-4.373h9.752a1.377,1.377,0,0,1,1.377,1.377V337h5.656V315.6a4.831,4.831,0,0,0-4.825-4.825Zm0,0" transform="translate(-48.681 -257.504)" fill="#231f20"/>
        <path id="Trazado_101835" data-name="Trazado 101835" d="M68.381,466.623A1.377,1.377,0,0,1,67,465.246v-4.786a1.377,1.377,0,0,1,1.377-1.377h8.41a1.377,1.377,0,0,1,1.377,1.377v4.665a1.375,1.375,0,0,1-1.749,1.326,3.162,3.162,0,0,0-.833-.118H69.955a3.1,3.1,0,0,0-1.09.2A1.381,1.381,0,0,1,68.381,466.623Zm1.377-4.786v1.743q.1,0,.2,0h5.459v-1.74Zm0,0" transform="translate(-48.681 -366.951)" fill="#231f20"/>
        <path id="Trazado_101836" data-name="Trazado 101836" d="M145.19,404.4a1.377,1.377,0,0,1-1.377-1.377v-4.764a1.377,1.377,0,0,1,1.377-1.377h8.41a1.377,1.377,0,0,1,1.377,1.377v4.683a1.378,1.378,0,0,1-1.376,1.378,1.419,1.419,0,0,1-.392-.056,3.059,3.059,0,0,0-.877-.129H146.7a3.075,3.075,0,0,0-1.047.186A1.359,1.359,0,0,1,145.19,404.4Zm1.377-4.764v1.742h5.656v-1.741Zm0,0" transform="translate(-104.331 -321.888)" fill="#231f20"/>
        <path id="Trazado_101837" data-name="Trazado 101837" d="M210.722,209.378a1.375,1.375,0,0,1-.67-.174l-5.5-3.061a1.378,1.378,0,0,1-.533-1.873l.013-.025,1.854-3.175a4.428,4.428,0,0,1,7.76,4.259l-1.7,3.3a1.377,1.377,0,0,1-1.224.747Zm-3.6-4.958,3.03,1.686,1.046-2.039a1.673,1.673,0,0,0-2.932-1.61Zm0,0" transform="translate(-147.826 -178.419)" fill="#231f20"/>
        <path id="Trazado_101838" data-name="Trazado 101838" d="M428.109,310.239h-24.13a1.377,1.377,0,0,1-1.377-1.377V234.916a1.377,1.377,0,0,1,1.377-1.377h24.13a1.377,1.377,0,0,1,1.377,1.377v73.946A1.377,1.377,0,0,1,428.109,310.239Zm-22.753-2.755h21.376V236.294H405.356Zm0,0" transform="translate(-291.832 -203.538)" fill="#231f20"/>
        <path id="Trazado_101839" data-name="Trazado 101839" d="M340.5,369.527H316.373A1.377,1.377,0,0,1,315,368.149v-51.4a1.377,1.377,0,0,1,1.377-1.377H340.5a1.377,1.377,0,0,1,1.377,1.377v51.4A1.377,1.377,0,0,1,340.5,369.527Zm-22.754-2.755h21.377v-48.65H317.751Zm0,0" transform="translate(-228.359 -262.825)" fill="#231f20"/>
        <path id="Trazado_101840" data-name="Trazado 101840" d="M252.9,414.6h-24.13a1.377,1.377,0,0,1-1.377-1.377V378.955a1.377,1.377,0,0,1,1.377-1.377H252.9a1.377,1.377,0,0,1,1.377,1.377v34.268A1.377,1.377,0,0,1,252.9,414.6Zm-22.753-2.755h21.376V380.333H230.149Zm0,0" transform="translate(-164.889 -307.899)" fill="#231f20"/>
        <path id="Trazado_101841" data-name="Trazado 101841" d="M165.3,459.666H141.166a1.377,1.377,0,0,1-1.377-1.377V441.155a1.377,1.377,0,0,1,1.377-1.377H165.3a1.377,1.377,0,0,1,1.377,1.377v17.134A1.377,1.377,0,0,1,165.3,459.666Zm-22.754-2.755H163.92V442.532H142.544Zm0,0" transform="translate(-101.416 -352.964)" fill="#231f20"/>
        <path id="Trazado_101842" data-name="Trazado 101842" d="M82.327,504.731H59.959a1.377,1.377,0,0,1,0-2.755H82.327a1.377,1.377,0,1,1,0,2.755Zm0,0" transform="translate(-42.579 -398.03)" fill="#231f20"/>
        <path id="Trazado_101843" data-name="Trazado 101843" d="M24.993,504.731H20.127a1.377,1.377,0,1,1,0-2.755h4.866a1.377,1.377,0,1,1,0,2.755Zm0,0" transform="translate(-13.719 -398.03)" fill="#231f20"/>
      </g>
    </g>
  </g>
</svg>
