<svg xmlns="http://www.w3.org/2000/svg" width="172" height="172" viewBox="0 0 172 172">
  <g id="Grupo_57271" data-name="Grupo 57271" transform="translate(-239 -1046)">
    <rect id="Rectángulo_5305" data-name="Rectángulo 5305" width="172" height="172" transform="translate(239 1046)" fill="#edfff6"/>
    <g id="team-worker-group-marketing-seo" transform="translate(263.06 1072.059)">
      <path id="Trazado_101617" data-name="Trazado 101617" d="M6,57.566V23.98a19.98,19.98,0,0,1,39.96,0V57.946" transform="translate(3.992 0.998)" fill="#c6c5ca"/>
      <path id="Trazado_101618" data-name="Trazado 101618" d="M37.956,23.978V57.944l-7.992-.08V23.978A20.022,20.022,0,0,0,14.02,4.4a19.98,19.98,0,0,1,23.936,19.58Z" transform="translate(11.996 1)" fill="#898890"/>
      <path id="Trazado_101619" data-name="Trazado 101619" d="M54.948,41.988V49.98a4.008,4.008,0,0,1-4,4H7a4.008,4.008,0,0,1-4-4V41.988A12.006,12.006,0,0,1,14.988,30H42.96A11.988,11.988,0,0,1,54.948,41.988Z" transform="translate(0.998 26.946)" fill="#cc3d60"/>
      <path id="Trazado_101620" data-name="Trazado 101620" d="M86.948,41.988V49.98a4.008,4.008,0,0,1-4,4H39a4.008,4.008,0,0,1-4-4V41.988A12.006,12.006,0,0,1,46.988,30H74.96A11.988,11.988,0,0,1,86.948,41.988Z" transform="translate(32.934 26.946)" fill="#00b6bd"/>
      <path id="Trazado_101621" data-name="Trazado 101621" d="M70.98,41.988V49.98a4.008,4.008,0,0,1-4,4H58.992a4.008,4.008,0,0,0,4-4V41.988A11.988,11.988,0,0,0,51,30h7.992A11.988,11.988,0,0,1,70.98,41.988Z" transform="translate(48.902 26.946)" fill="#007579"/>
      <path id="Trazado_101622" data-name="Trazado 101622" d="M74.964,4v7.992a11.958,11.958,0,0,1-5.994,10.37V19.984l-15.984-4-7.992,4v4H43a4.008,4.008,0,0,1-4-4v-4A11.988,11.988,0,0,1,50.988,4Z" transform="translate(36.926 0.998)" fill="#c0ab91"/>
      <path id="Trazado_101623" data-name="Trazado 101623" d="M65.976,14V25.984a11.988,11.988,0,0,1-23.976,0V14l7.992-4Z" transform="translate(39.92 6.986)" fill="#ffdaaa"/>
      <path id="Trazado_101624" data-name="Trazado 101624" d="M70.948,60.988V68.98a4.008,4.008,0,0,1-4,4H23a4.008,4.008,0,0,1-4-4V60.988A12.006,12.006,0,0,1,30.988,49H58.96A11.988,11.988,0,0,1,70.948,60.988Z" transform="translate(16.966 45.908)" fill="#ffc93c"/>
      <path id="Trazado_101625" data-name="Trazado 101625" d="M58.964,23v7.992a12,12,0,0,1-5.994,10.37V38.984l-15.984-4-7.992,4v4H27a4.008,4.008,0,0,1-4-4v-4a11.958,11.958,0,0,1,5.994-10.37A11.7,11.7,0,0,1,34.988,23Z" transform="translate(20.958 19.96)" fill="#ffde55"/>
      <path id="Trazado_101626" data-name="Trazado 101626" d="M45.261,23v7.992a12,12,0,0,1-5.994,10.37V38.984l-2.537-.639a13.14,13.14,0,0,0,.839-1.219,11.884,11.884,0,0,0,1.7-6.134V23Z" transform="translate(34.661 19.96)" fill="#ebbf00"/>
      <path id="Trazado_101627" data-name="Trazado 101627" d="M52.972,55.8,38.986,63.788,25,55.8,32.992,49.8V42.19a11.91,11.91,0,0,0,11.988,0V49.8Z" transform="translate(22.954 39.112)" fill="#ffdaaa"/>
      <path id="Trazado_101628" data-name="Trazado 101628" d="M40.988,42.19v5.994a11.91,11.91,0,0,1-11.988,0V42.19A11.91,11.91,0,0,0,40.988,42.19Z" transform="translate(26.946 39.112)" fill="#ffb655"/>
      <path id="Trazado_101629" data-name="Trazado 101629" d="M49.976,33V44.984a11.988,11.988,0,1,1-23.976,0V33l7.992-4Z" transform="translate(23.952 25.948)" fill="#ffdaaa"/>
      <path id="Trazado_101630" data-name="Trazado 101630" d="M46.982,33V44.984a11.989,11.989,0,0,1-4.338,9.233A12,12,0,0,1,32,56.592a12,12,0,0,0,3-1.239,11.623,11.623,0,0,0,1.658-1.139,11.988,11.988,0,0,0,4.336-9.231V33L29,30l2-1Z" transform="translate(26.946 25.948)" fill="#ffb655"/>
      <path id="Trazado_101631" data-name="Trazado 101631" d="M36.972,36.8,22.986,44.788,9,36.8,16.992,30.8V23.19a11.91,11.91,0,0,0,11.988,0V30.8Z" transform="translate(6.986 20.15)" fill="#ffdaaa"/>
      <path id="Trazado_101632" data-name="Trazado 101632" d="M33.976,14V25.984a11.988,11.988,0,0,1-23.976,0V14l7.992-4Z" transform="translate(7.984 6.986)" fill="#ffdaaa"/>
      <path id="Trazado_101633" data-name="Trazado 101633" d="M68.972,36.8,54.986,44.788,41,36.8,48.992,30.8V23.19a11.91,11.91,0,0,0,11.988,0V30.8Z" transform="translate(38.922 20.15)" fill="#ffdaaa"/>
      <path id="Trazado_101634" data-name="Trazado 101634" d="M61.261,4v7.992a12,12,0,0,1-5.994,10.37V19.984l-2.537-.639a13.145,13.145,0,0,0,.839-1.219,11.884,11.884,0,0,0,1.7-6.134V4Z" transform="translate(50.629 0.998)" fill="#a78966"/>
      <g id="Grupo_57178" data-name="Grupo 57178" transform="translate(23.978 16.986)">
        <path id="Trazado_101635" data-name="Trazado 101635" d="M56.988,23.19v5.994a11.91,11.91,0,0,1-11.988,0V23.19A11.91,11.91,0,0,0,56.988,23.19Z" transform="translate(18.936 3.164)" fill="#ffb655"/>
        <path id="Trazado_101636" data-name="Trazado 101636" d="M62.982,14V25.984a11.989,11.989,0,0,1-4.338,9.233A12,12,0,0,1,48,37.592a12,12,0,0,0,3-1.239,11.622,11.622,0,0,0,1.658-1.139,11.988,11.988,0,0,0,4.336-9.231V14L45,11l2-1Z" transform="translate(18.936 -10)" fill="#ffb655"/>
        <path id="Trazado_101637" data-name="Trazado 101637" d="M24.988,23.19v5.994a11.91,11.91,0,0,1-11.988,0V23.19a11.91,11.91,0,0,0,11.988,0Z" transform="translate(-13 3.164)" fill="#ffb655"/>
        <path id="Trazado_101638" data-name="Trazado 101638" d="M30.982,14V25.984a11.989,11.989,0,0,1-4.338,9.233A12,12,0,0,1,16,37.592a12,12,0,0,0,3-1.239,11.622,11.622,0,0,0,1.658-1.139,11.988,11.988,0,0,0,4.336-9.231V14L13,11l2-1Z" transform="translate(-13 -10)" fill="#ffb655"/>
      </g>
      <path id="Trazado_101639" data-name="Trazado 101639" d="M61.986,58.99a2,2,0,0,1-2,2H48v4H59.988a5.994,5.994,0,0,0,5.994-5.994V49h-4Z" transform="translate(45.908 45.908)"/>
      <path id="Trazado_101640" data-name="Trazado 101640" d="M55,45h4v4H55Z" transform="translate(52.894 41.916)"/>
      <path id="Trazado_101641" data-name="Trazado 101641" d="M11,58.99V49H7v9.99a5.994,5.994,0,0,0,5.994,5.994H24.982v-4H12.994A2,2,0,0,1,11,58.99Z" transform="translate(4.99 45.908)"/>
      <path id="Trazado_101642" data-name="Trazado 101642" d="M7,45h4v4H7Z" transform="translate(4.99 41.916)"/>
      <path id="Trazado_101643" data-name="Trazado 101643" d="M13,14h4v4H13Z" transform="translate(10.978 10.978)"/>
      <path id="Trazado_101644" data-name="Trazado 101644" d="M17,14h4v4H17Z" transform="translate(14.97 10.978)"/>
      <path id="Trazado_101645" data-name="Trazado 101645" d="M45,14h4v4H45Z" transform="translate(42.914 10.978)"/>
      <path id="Trazado_101646" data-name="Trazado 101646" d="M49,14h4v4H49Z" transform="translate(46.906 10.978)"/>
      <path id="Trazado_101647" data-name="Trazado 101647" d="M29,33h4v4H29Z" transform="translate(26.946 29.94)"/>
      <path id="Trazado_101648" data-name="Trazado 101648" d="M33,33h4v4H33Z" transform="translate(30.938 29.94)"/>
      <path id="Trazado_101649" data-name="Trazado 101649" d="M22,56h4v4H22Z" transform="translate(19.96 52.894)"/>
      <path id="Trazado_101650" data-name="Trazado 101650" d="M26,56H49.976v4H26Z" transform="translate(23.952 52.894)"/>
      <path id="Trazado_101651" data-name="Trazado 101651" d="M108.613,54.988,101.9,49.953V44.439a14.006,14.006,0,0,0,5.994-11.469V24.419a13.948,13.948,0,0,0,5.994-11.429V5a2,2,0,0,0-2-2H87.914A14,14,0,0,0,73.928,16.986v4a6.012,6.012,0,0,0,5.994,5.994V32.97a14.006,14.006,0,0,0,5.994,11.469v5.514L81.74,53.09a15.184,15.184,0,0,0,.18-2.138V42.96a2,2,0,0,0-2-2H55.946a14.522,14.522,0,0,0-4,.579V24.978a21.978,21.978,0,1,0-43.956,0V57.465a12.687,12.687,0,0,0-1.878,1.578A13.774,13.774,0,0,0,2,68.934v7.992A6.012,6.012,0,0,0,7.994,82.92H51.95a5.616,5.616,0,0,0,2-.36v5.355L47.235,92.95A13.986,13.986,0,0,0,33.968,106.9v7.992a6.012,6.012,0,0,0,5.994,5.994H83.918a6.012,6.012,0,0,0,5.994-5.994V106.9A13.986,13.986,0,0,0,76.645,92.95l-6.713-5.035V82.56a5.616,5.616,0,0,0,2,.36h43.956a6.012,6.012,0,0,0,5.994-5.994V68.934a13.986,13.986,0,0,0-13.267-13.946ZM79.922,20.982v2a2,2,0,0,1-2-2v-4A9.99,9.99,0,0,1,87.914,7h21.978V12.99a9.932,9.932,0,0,1-2.557,6.633,2.142,2.142,0,0,0-.959-.579l-15.984-4a1.942,1.942,0,0,0-1.379.16l-7.992,4A1.952,1.952,0,0,0,79.922,20.982Zm4,11.988V22.221L90.152,19.1,103.9,22.54V32.97a9.99,9.99,0,0,1-19.98,0Zm5.195,19.58a2.026,2.026,0,0,0,.8-1.6V46.377a14.07,14.07,0,0,0,7.992,0v4.575a2.026,2.026,0,0,0,.8,1.6l5.554,4.176L93.908,62.64l-10.35-5.914ZM11.99,24.978a17.982,17.982,0,1,1,35.964,0v18.5A14.02,14.02,0,0,0,42.1,53.05l-4.136-3.1V44.439A14.006,14.006,0,0,0,43.958,32.97V20.982a2,2,0,0,0-1.518-1.938l-15.984-4a1.954,1.954,0,0,0-1.379.16l-7.992,4a1.952,1.952,0,0,0-1.1,1.778V32.97A14.006,14.006,0,0,0,21.98,44.439v5.514l-6.713,5.035a13.868,13.868,0,0,0-3.277.539ZM25.177,52.55a2.026,2.026,0,0,0,.8-1.6V46.377a14.07,14.07,0,0,0,7.992,0v4.575a2.026,2.026,0,0,0,.8,1.6l5.554,4.176L29.972,62.64l-10.35-5.914ZM19.982,32.97V22.221L26.216,19.1,39.962,22.54V32.97a9.99,9.99,0,0,1-19.98,0ZM7.994,78.924a2,2,0,0,1-2-2V68.934a9.98,9.98,0,0,1,9.493-9.97l13.484,7.712a2.086,2.086,0,0,0,2,0L42.12,60.3a6.018,6.018,0,0,0,5.834,4.635v5.994a13.96,13.96,0,0,0,2.517,7.992ZM49.053,57.166a1.952,1.952,0,0,0-1.1,1.778v2a2,2,0,0,1-2-2v-4a9.99,9.99,0,0,1,9.99-9.99H77.924v5.994a9.932,9.932,0,0,1-2.557,6.633,2.142,2.142,0,0,0-.959-.579l-15.984-4a1.954,1.954,0,0,0-1.379.16ZM85.916,106.9v7.992a2,2,0,0,1-2,2H39.962a2,2,0,0,1-2-2V106.9a10,10,0,0,1,9.491-9.97l13.486,7.712a2.086,2.086,0,0,0,2,0l13.486-7.712a10,10,0,0,1,9.49,9.97ZM72.29,94.688,61.94,100.6,51.59,94.688l5.554-4.176a2.026,2.026,0,0,0,.8-1.6V84.339a14.07,14.07,0,0,0,7.992,0v4.575a2.026,2.026,0,0,0,.8,1.6Zm-.36-23.756a9.99,9.99,0,0,1-19.98,0V60.183l6.234-3.117L71.93,60.5Zm45.954,5.994a2,2,0,0,1-2,2H73.409a13.96,13.96,0,0,0,2.517-7.992V62.381a13.96,13.96,0,0,0,3.437-3.417h.06l13.486,7.712a2.086,2.086,0,0,0,2,0l13.486-7.712a10,10,0,0,1,9.49,9.97Z" transform="translate(0)"/>
      <path id="Trazado_101652" data-name="Trazado 101652" d="M40,56h4v4H40Z" transform="translate(37.924 52.894)"/>
    </g>
  </g>
</svg>
