<svg xmlns="http://www.w3.org/2000/svg" width="172" height="172" viewBox="0 0 172 172">
  <g id="Grupo_57272" data-name="Grupo 57272" transform="translate(-239 -2003)">
    <rect id="Rectángulo_5305" data-name="Rectángulo 5305" width="172" height="172" transform="translate(239 2003)" fill="#edfff6"/>
    <g id="grupo_1_" data-name="grupo (1)" transform="translate(268.844 2026.98)">
      <path id="Trazado_101653" data-name="Trazado 101653" d="M55.454,313.114a13.044,13.044,0,0,0-6.367-3.644l-9.025-2.163,0,.006,0-.006V301.8H29.04v5.527h0l-9,2.15A13.077,13.077,0,0,0,10,322.194v14.746H29.953Z" transform="translate(-7.806 -235.595)" fill="#78d2fa"/>
      <path id="Trazado_101654" data-name="Trazado 101654" d="M107.433,301.8v5.658l-5.72,13.7L96,307.475V301.8Z" transform="translate(-74.941 -235.595)" fill="#ffb487"/>
      <path id="Trazado_101655" data-name="Trazado 101655" d="M90.52,215.261v7.632a12.284,12.284,0,0,1-12.285,12.284h0a12.284,12.284,0,0,1-12.285-12.284v-7.632Z" transform="translate(-51.484 -168.041)" fill="#ffcdac"/>
      <path id="Trazado_101656" data-name="Trazado 101656" d="M90.52,172.026v-2.957a12.284,12.284,0,0,0-12.285-12.284h0a12.284,12.284,0,0,0-12.285,12.284v2.957h8.468a29.291,29.291,0,0,0,15.055-4.165h0" transform="translate(-51.484 -122.393)" fill="#878791"/>
      <path id="Trazado_101657" data-name="Trazado 101657" d="M294.79,313.114a13.044,13.044,0,0,1,6.367-3.644l9.025-2.163,0,.006,0-.006V301.8H321.2v5.527h0l9,2.15a13.077,13.077,0,0,1,10.039,12.719v14.746H320.29Z" transform="translate(-230.125 -235.595)" fill="#a5dc69"/>
      <path id="Trazado_101658" data-name="Trazado 101658" d="M126.5,352.4l-12.571,3.012a18.214,18.214,0,0,0-13.97,17.713v12.091h68.412v-12.08a18.214,18.214,0,0,0-13.982-17.716l-12.538-3Z" transform="translate(-78.034 -275.1)" fill="#ff5a5a"/>
      <g id="Grupo_57183" data-name="Grupo 57183" transform="translate(47.968 66.202)">
        <path id="Trazado_101659" data-name="Trazado 101659" d="M375.313,301.8v5.678L369.6,321.156l-5.72-13.7V301.8Z" transform="translate(-332.028 -301.797)" fill="#ffb487"/>
        <path id="Trazado_101660" data-name="Trazado 101660" d="M226.864,347.928l8.184-18.582a6.756,6.756,0,0,1-.954-3.464V324.1h-14.47v1.786a6.755,6.755,0,0,1-.95,3.459Z" transform="translate(-218.674 -319.204)" fill="#ffb487"/>
      </g>
      <path id="Trazado_101661" data-name="Trazado 101661" d="M212.221,191.525v11.806a17.11,17.11,0,0,1-17.11,17.11h0A17.11,17.11,0,0,1,178,203.331V191.525Z" transform="translate(-138.955 -149.512)" fill="#ffcdac"/>
      <path id="Trazado_101662" data-name="Trazado 101662" d="M195.109,115.437h0A17.11,17.11,0,0,0,178,132.547v4.119h8.366a18.8,18.8,0,0,0,14.408-6.725h0l11.446,6.725v-4.119A17.11,17.11,0,0,0,195.109,115.437Z" transform="translate(-138.953 -90.115)" fill="#f5b955"/>
      <path id="Trazado_101663" data-name="Trazado 101663" d="M334.045,215.261v7.632a12.284,12.284,0,0,0,12.285,12.284h0a12.284,12.284,0,0,0,12.285-12.284v-7.632Z" transform="translate(-260.769 -168.041)" fill="#ffcdac"/>
      <path id="Trazado_101664" data-name="Trazado 101664" d="M334.045,172.026v-2.957a12.284,12.284,0,0,1,12.285-12.284h0a12.284,12.284,0,0,1,12.285,12.284v2.957h-8.468a29.29,29.29,0,0,1-15.055-4.165h0" transform="translate(-260.769 -122.393)" fill="#878791"/>
      <path id="Trazado_101665" data-name="Trazado 101665" d="M247.934,492a2.195,2.195,0,1,0,1.551.643A2.21,2.21,0,0,0,247.934,492Z" transform="translate(-191.834 -384.075)"/>
      <path id="Trazado_101666" data-name="Trazado 101666" d="M100.59,154.055l-7.317-1.748v-2.9a14.477,14.477,0,0,0,6.767-12.244v-8.175a14.469,14.469,0,0,0-25.31-9.592,19.339,19.339,0,0,0-18.55-13.956h0a19.338,19.338,0,0,0-18.561,13.995,14.469,14.469,0,0,0-25.344,9.553v8.175A14.477,14.477,0,0,0,19.041,149.4v2.9l-7.317,1.748A15.221,15.221,0,0,0,0,168.907v14.746a2.194,2.194,0,0,0,2.194,2.194H19.734v6.581a2.194,2.194,0,0,0,2.194,2.194H45.993a2.194,2.194,0,1,0,0-4.387H36.2v-9.654a2.194,2.194,0,1,0-4.387,0v9.654H24.121v-9.9a15.971,15.971,0,0,1,12.287-15.579L47.2,162.172l6.942,15.793a2.193,2.193,0,0,0,2.008,1.311h0a2.193,2.193,0,0,0,2.008-1.311l6.935-15.77,10.757,2.57a15.968,15.968,0,0,1,12.3,15.582v2.448a2.2,2.2,0,0,0,0,1.716v5.723H80.5v-9.654a2.194,2.194,0,1,0-4.387,0v9.654H65.37a2.194,2.194,0,0,0,0,4.387H90.34a2.194,2.194,0,0,0,2.194-2.194v-6.581h17.585a2.194,2.194,0,0,0,2.194-2.194V168.907A15.221,15.221,0,0,0,100.59,154.055Zm-11.7.1-3.349,8.02-3.3-7.914a2.192,2.192,0,0,0,.015-.24c0-.02,0-.041,0-.061v-2.709a14.379,14.379,0,0,0,6.634,0v2.79C88.885,154.078,88.888,154.117,88.89,154.156Zm-42.615,1.762a15.232,15.232,0,0,0-4.483-1.869l-7.343-1.759v-2.877a14.582,14.582,0,0,0,4.534-4.52,19.443,19.443,0,0,0,7.293,7.8Zm-5.013-19.791v-5.074h6.172a20.935,20.935,0,0,0,14.826-6.129l8.823,5.183v6.535a14.915,14.915,0,0,1-29.821-.515Zm24.751,16.6a19.441,19.441,0,0,0,7.342-7.8,14.59,14.59,0,0,0,4.509,4.482v2.877l-7.343,1.759a15.235,15.235,0,0,0-4.508,1.885v-3.2Zm19.548-5.482A10.1,10.1,0,0,1,75.47,137.16V136.8c.008-.224.013-5.9.013-5.9a31.492,31.492,0,0,0,13.895,3.232h6.274v3.024A10.1,10.1,0,0,1,85.561,147.25Zm0-28.356a10.1,10.1,0,0,1,10.091,10.091v.764H89.378a27.1,27.1,0,0,1-13.5-3.6A10.11,10.11,0,0,1,85.561,118.894Zm-44.3,5.847a14.917,14.917,0,0,1,29.834,0v.286l-8.142-4.783a2.193,2.193,0,0,0-2.792.482,16.566,16.566,0,0,1-12.728,5.94H41.262Zm-24.6,4.244a10.092,10.092,0,0,1,19.775-2.839,27.105,27.105,0,0,1-13.5,3.6H16.661v-.764Zm0,5.151h6.274A31.491,31.491,0,0,0,36.843,130.9v6.263a10.091,10.091,0,0,1-20.182,0S16.661,134.136,16.661,134.136Zm10.091,17.5a14.468,14.468,0,0,0,3.31-.386V153.9c0,.041,0,.082,0,.124,0,.069.007.138.013.206l-3.319,7.947-3.331-7.98c0-.052.007-.1.007-.158v-2.79A14.467,14.467,0,0,0,26.752,151.638Zm-7.017,28.7v1.123H13.162v-9.746a2.194,2.194,0,0,0-4.387,0v9.746H4.387V168.907a10.848,10.848,0,0,1,8.355-10.585l6.953-1.661,4.538,10.87A20.364,20.364,0,0,0,19.734,180.337Zm15.652-19.846a20.621,20.621,0,0,0-3.709,1.275l2.137-5.116,6.954,1.666a10.869,10.869,0,0,1,1.574.508Zm20.761,11.141-5.486-12.481v-4.524a19.319,19.319,0,0,0,10.964.021v4.528ZM69.93,158.84a10.89,10.89,0,0,1,1.614-.524l6.937-1.662,2.145,5.139a20.621,20.621,0,0,0-3.759-1.295Zm38,22.619h-4.387v-9.746a2.194,2.194,0,0,0-4.387,0v9.746H92.533v-1.112a20.363,20.363,0,0,0-4.485-12.79l4.552-10.9,6.97,1.665a10.848,10.848,0,0,1,8.355,10.585Z" transform="translate(0 -82.308)"/>
      <path id="Trazado_101667" data-name="Trazado 101667" d="M214.654,231.25a2.195,2.195,0,1,0,1.551.643A2.21,2.21,0,0,0,214.654,231.25Z" transform="translate(-165.855 -180.523)"/>
      <path id="Trazado_101668" data-name="Trazado 101668" d="M281.524,235.637a2.194,2.194,0,1,0-1.551-.643A2.209,2.209,0,0,0,281.524,235.637Z" transform="translate(-218.056 -180.523)"/>
      <path id="Trazado_101669" data-name="Trazado 101669" d="M242.507,265.556a2.194,2.194,0,0,0-3.1,0,1.665,1.665,0,0,1-2.353,0,2.194,2.194,0,0,0-3.1,3.1,6.058,6.058,0,0,0,8.557,0A2.194,2.194,0,0,0,242.507,265.556Z" transform="translate(-182.129 -206.802)"/>
      <path id="Trazado_101670" data-name="Trazado 101670" d="M398.814,58.387h1.5a2.194,2.194,0,0,0,0-4.387h-1.5a2.194,2.194,0,0,0,0,4.387Z" transform="translate(-309.617 -42.155)"/>
      <path id="Trazado_101671" data-name="Trazado 101671" d="M447.335,58.387h1.5a2.194,2.194,0,0,0,0-4.387h-1.5a2.194,2.194,0,0,0,0,4.387Z" transform="translate(-347.495 -42.155)"/>
      <path id="Trazado_101672" data-name="Trazado 101672" d="M426.5,80.723a2.194,2.194,0,0,0,2.194-2.194v-1.5a2.194,2.194,0,1,0-4.387,0v1.5A2.194,2.194,0,0,0,426.5,80.723Z" transform="translate(-331.234 -58.416)"/>
      <path id="Trazado_101673" data-name="Trazado 101673" d="M426.5,32.2a2.194,2.194,0,0,0,2.194-2.194V28.5a2.194,2.194,0,1,0-4.387,0v1.5A2.194,2.194,0,0,0,426.5,32.2Z" transform="translate(-331.234 -20.539)"/>
      <path id="Trazado_101674" data-name="Trazado 101674" d="M41.638,58.387h1.5a2.194,2.194,0,0,0,0-4.387h-1.5a2.194,2.194,0,1,0,0,4.387Z" transform="translate(-30.792 -42.155)"/>
      <path id="Trazado_101675" data-name="Trazado 101675" d="M90.159,58.387h1.5a2.194,2.194,0,0,0,0-4.387h-1.5a2.194,2.194,0,0,0,0,4.387Z" transform="translate(-68.669 -42.155)"/>
      <path id="Trazado_101676" data-name="Trazado 101676" d="M69.328,80.723a2.194,2.194,0,0,0,2.194-2.194v-1.5a2.194,2.194,0,1,0-4.387,0v1.5A2.194,2.194,0,0,0,69.328,80.723Z" transform="translate(-52.407 -58.416)"/>
      <path id="Trazado_101677" data-name="Trazado 101677" d="M69.328,32.2a2.194,2.194,0,0,0,2.194-2.194V28.5a2.194,2.194,0,1,0-4.387,0v1.5A2.194,2.194,0,0,0,69.328,32.2Z" transform="translate(-52.407 -20.539)"/>
      <path id="Trazado_101678" data-name="Trazado 101678" d="M248.194,48.246a2.194,2.194,0,0,0,2.194-2.194V40.281a2.194,2.194,0,1,0-4.387,0v5.771A2.194,2.194,0,0,0,248.194,48.246Z" transform="translate(-192.037 -29.732)"/>
      <path id="Trazado_101679" data-name="Trazado 101679" d="M248.194,4.387a2.195,2.195,0,0,0,2.194-2.194,2.194,2.194,0,1,0-3.744,1.551A2.211,2.211,0,0,0,248.194,4.387Z" transform="translate(-192.037 0)"/>
      <path id="Trazado_101680" data-name="Trazado 101680" d="M193.1,29.511a2.194,2.194,0,0,0,3.1-3.1l-3.21-3.21a2.194,2.194,0,0,0-3.1,3.1Z" transform="translate(-147.735 -17.608)"/>
      <path id="Trazado_101681" data-name="Trazado 101681" d="M289.819,29.711a2.186,2.186,0,0,0,1.551-.643l3.317-3.317a2.194,2.194,0,1,0-3.1-3.1l-3.317,3.317a2.194,2.194,0,0,0,1.551,3.745Z" transform="translate(-224.532 -17.179)"/>
    </g>
  </g>
</svg>
