<svg xmlns="http://www.w3.org/2000/svg" width="69" height="69" viewBox="0 0 69 69">
  <g id="Grupo_57211" data-name="Grupo 57211" transform="translate(-500 -2939)">
    <g id="charla" transform="translate(511.065 2943.863)">
      <g id="Grupo_57199" data-name="Grupo 57199" transform="translate(0.721 29.516)">
        <g id="Grupo_57195" data-name="Grupo 57195" transform="translate(3.303)">
          <circle id="Elipse_1417" data-name="Elipse 1417" cx="4.858" cy="4.858" r="4.858" fill="#f1d0a5"/>
        </g>
        <g id="Grupo_57196" data-name="Grupo 57196" transform="translate(3.948 0.644)">
          <path id="Trazado_101735" data-name="Trazado 101735" d="M55.174,256.637a4.857,4.857,0,0,1-6.63,6.63,4.857,4.857,0,1,0,6.63-6.63Z" transform="translate(-48.544 -256.637)" fill="#f1b986"/>
        </g>
        <g id="Grupo_57197" data-name="Grupo 57197" transform="translate(0 9.716)">
          <path id="Trazado_101736" data-name="Trazado 101736" d="M7.5,354.842v4.275H23.822v-4.275a3.886,3.886,0,0,0-3.886-3.886h-8.55A3.886,3.886,0,0,0,7.5,354.842Z" transform="translate(-7.5 -350.956)" fill="#f6e266"/>
        </g>
        <g id="Grupo_57198" data-name="Grupo 57198" transform="translate(10.104 9.716)">
          <path id="Trazado_101737" data-name="Trazado 101737" d="M114.889,350.955h-2.332a3.886,3.886,0,0,1,3.886,3.886v4.275h2.332v-4.275A3.886,3.886,0,0,0,114.889,350.955Z" transform="translate(-112.557 -350.955)" fill="#f1d333"/>
        </g>
      </g>
      <g id="Grupo_57200" data-name="Grupo 57200" transform="translate(0.721 6.781)">
        <path id="Trazado_101738" data-name="Trazado 101738" d="M9.443,13.561H32.761A1.943,1.943,0,0,1,34.7,15.5V31.049a1.943,1.943,0,0,1-1.943,1.943H27.126l-3.886,3.886V32.992H9.443A1.943,1.943,0,0,1,7.5,31.049V15.5a1.943,1.943,0,0,1,1.943-1.943Z" transform="translate(-7.5 -13.561)" fill="#c8ea73"/>
      </g>
      <g id="Grupo_57201" data-name="Grupo 57201" transform="translate(19.181 10.668)">
        <path id="Trazado_101739" data-name="Trazado 101739" d="M203.512,53.967a4.085,4.085,0,0,0-4.081,4.081v12.63l1.166-1.166h5.635a1.943,1.943,0,0,0,1.943-1.943v-13.6Z" transform="translate(-199.431 -53.967)" fill="#b7e445"/>
      </g>
      <g id="Grupo_57206" data-name="Grupo 57206" transform="translate(32.2 35.54)">
        <g id="Grupo_57202" data-name="Grupo 57202" transform="translate(3.303)">
          <circle id="Elipse_1418" data-name="Elipse 1418" cx="4.858" cy="4.858" r="4.858" fill="#f1d0a5"/>
        </g>
        <g id="Grupo_57203" data-name="Grupo 57203" transform="translate(3.947 0.644)">
          <path id="Trazado_101740" data-name="Trazado 101740" d="M382.466,319.267a4.857,4.857,0,0,1-6.63,6.63,4.857,4.857,0,1,0,6.63-6.63Z" transform="translate(-375.836 -319.267)" fill="#f1b986"/>
        </g>
        <g id="Grupo_57204" data-name="Grupo 57204" transform="translate(0 9.716)">
          <path id="Trazado_101741" data-name="Trazado 101741" d="M334.793,417.471v4.275h16.322v-4.275a3.886,3.886,0,0,0-3.886-3.886h-8.55A3.886,3.886,0,0,0,334.793,417.471Z" transform="translate(-334.793 -413.585)" fill="#4073c8"/>
        </g>
        <g id="Grupo_57205" data-name="Grupo 57205" transform="translate(10.104 9.716)">
          <path id="Trazado_101742" data-name="Trazado 101742" d="M442.182,413.585H439.85a3.886,3.886,0,0,1,3.886,3.886v4.275h2.332v-4.275A3.886,3.886,0,0,0,442.182,413.585Z" transform="translate(-439.85 -413.585)" fill="#30579d"/>
        </g>
      </g>
      <g id="Grupo_57207" data-name="Grupo 57207" transform="translate(21.319 12.805)">
        <path id="Trazado_101743" data-name="Trazado 101743" d="M246.916,76.191H223.6a1.943,1.943,0,0,0-1.943,1.943V93.679a1.943,1.943,0,0,0,1.943,1.943h5.635l3.886,3.886V95.622h13.8a1.943,1.943,0,0,0,1.943-1.943V78.134A1.943,1.943,0,0,0,246.916,76.191Z" transform="translate(-221.655 -76.191)" fill="#ecf4ff"/>
      </g>
      <g id="Grupo_57208" data-name="Grupo 57208" transform="translate(43.664 12.805)">
        <path id="Trazado_101744" data-name="Trazado 101744" d="M456.907,76.191h-2.915a1.943,1.943,0,0,1,1.943,1.943V93.679a1.943,1.943,0,0,1-1.943,1.943h2.915a1.943,1.943,0,0,0,1.943-1.943V78.134A1.943,1.943,0,0,0,456.907,76.191Z" transform="translate(-453.992 -76.191)" fill="#cbe2ff"/>
      </g>
      <g id="Grupo_57209" data-name="Grupo 57209" transform="translate(0 6.06)">
        <path id="Trazado_101745" data-name="Trazado 101745" d="M13.157,252.155h-.535a5.579,5.579,0,1,0-7.479,0H4.608A4.613,4.613,0,0,0,0,256.762v4.275a.721.721,0,0,0,.721.721H17.044a.721.721,0,0,0,.721-.721v-4.275A4.613,4.613,0,0,0,13.157,252.155Zm-8.411-4.136a4.136,4.136,0,1,1,4.136,4.136,4.141,4.141,0,0,1-4.136-4.136Zm11.576,12.3H13.684v-1.222a.721.721,0,0,0-1.443,0v1.222H5.523v-1.222a.721.721,0,0,0-1.443,0v1.222H1.443v-3.554A3.169,3.169,0,0,1,4.608,253.6h8.55a3.168,3.168,0,0,1,3.165,3.165Z" transform="translate(0 -219.704)"/>
        <path id="Trazado_101746" data-name="Trazado 101746" d="M340.446,314.785h-.535a5.579,5.579,0,1,0-7.478,0H331.9a4.613,4.613,0,0,0-4.608,4.607v4.275a.721.721,0,0,0,.721.721h6.479a.721.721,0,0,0,0-1.443h-1.676v-1.222a.721.721,0,0,0-1.443,0v1.222h-2.638v-3.554a3.168,3.168,0,0,1,3.165-3.164h8.549a3.168,3.168,0,0,1,3.165,3.164v3.554h-2.638v-1.222a.721.721,0,0,0-1.443,0v1.222h-1.676a.721.721,0,1,0,0,1.443h6.478a.721.721,0,0,0,.721-.721v-4.275A4.613,4.613,0,0,0,340.446,314.785Zm-8.411-4.137a4.136,4.136,0,1,1,4.136,4.136A4.141,4.141,0,0,1,332.035,310.648Z" transform="translate(-295.811 -276.311)"/>
        <path id="Trazado_101747" data-name="Trazado 101747" d="M46.579,12.084H38.106a.721.721,0,0,0,0,1.443h8.473A1.223,1.223,0,0,1,47.8,14.748V30.293a1.223,1.223,0,0,1-1.221,1.221h-13.8a.721.721,0,0,0-.721.721v2.145l-2.654-2.655a.721.721,0,0,0-.51-.211H23.262a1.223,1.223,0,0,1-1.222-1.221V14.748a1.223,1.223,0,0,1,1.222-1.221H34.74a.721.721,0,1,0,0-1.443H28.647V8.724A2.668,2.668,0,0,0,25.982,6.06H2.664A2.667,2.667,0,0,0,0,8.724V24.27a2.667,2.667,0,0,0,2.664,2.664H6.71a.721.721,0,0,0,0-1.443H2.664A1.223,1.223,0,0,1,1.443,24.27V8.724A1.223,1.223,0,0,1,2.664,7.5H25.982A1.223,1.223,0,0,1,27.2,8.724v3.36H23.262A2.668,2.668,0,0,0,20.6,14.748V25.491h-.25a.722.722,0,0,0-.51.211l-2.654,2.655V26.212a.721.721,0,0,0-.721-.721H10.077a.721.721,0,0,0,0,1.443H15.74V30.1a.721.721,0,0,0,1.231.51L20.6,26.983v3.311a2.668,2.668,0,0,0,2.665,2.664H28.6l3.674,3.675a.721.721,0,0,0,1.231-.51V32.957H46.579a2.667,2.667,0,0,0,2.664-2.664V14.748a2.667,2.667,0,0,0-2.664-2.664Z" transform="translate(0 -6.06)"/>
      </g>
    </g>
    <rect id="Rectángulo_5307" data-name="Rectángulo 5307" width="69" height="69" transform="translate(500 2939)" fill="none"/>
  </g>
</svg>
