<svg xmlns="http://www.w3.org/2000/svg" width="69" height="69" viewBox="0 0 69 69">
  <g id="Grupo_57215" data-name="Grupo 57215" transform="translate(-759 -2939)">
    <g id="liderazgo" transform="translate(767.797 2947.938)">
      <path id="Trazado_101749" data-name="Trazado 101749" d="M207.6,85.033a.216.216,0,0,1,.364.157v6.3h7.542V85.078a.206.206,0,0,1,.355-.142l3.3,3.375a1.936,1.936,0,0,0,2.688.079l3.15-2.98a1.165,1.165,0,0,0,.046-1.647l-.033-.034a1.165,1.165,0,0,0-1.6-.022L220.489,86.4l-3.522-3.743a2.1,2.1,0,0,0-1.532-.661h-1.626a.655.655,0,0,1-.793-.478.665.665,0,0,1-.019-.158v-.44a2.443,2.443,0,0,1-2.514,0v.465a.654.654,0,0,1-.8.639h-1.231a3.016,3.016,0,0,0-2.033.788l-2.866,2.612a3.94,3.94,0,0,0-1.155,1.906l-.927,3.519a1.109,1.109,0,0,0,2.123.639c.005-.014.01-.029.014-.043l.99-3.368a1.149,1.149,0,0,1,.316-.514Zm0,0" transform="translate(-181.214 -72.969)" fill="#60bae2"/>
      <path id="Trazado_101750" data-name="Trazado 101750" d="M27.553,204.008a1.087,1.087,0,0,0-1.445.414l-1.74,2.981a.393.393,0,0,1-.544.111l-.01-.007-2.591-1.816a3.245,3.245,0,0,0-1.862-.588H17.85a.655.655,0,0,1-.794-.478.662.662,0,0,1-.019-.158v-.439a2.443,2.443,0,0,1-2.514-.005v.466a.654.654,0,0,1-.655.654.648.648,0,0,1-.142-.015H12.043a1.851,1.851,0,0,0-1.248.483l-3.454,3.148a2.773,2.773,0,0,0-.813,1.342l-1.016,3.851a1.109,1.109,0,0,0,2.123.639l.013-.043,1.078-3.668,3.282-3.081v6.8h7.542v-6.412a.206.206,0,0,1,.355-.143l3.019,1.931a2.254,2.254,0,0,0,3.113-.684c.018-.028.035-.056.051-.084l1.925-3.739a1.087,1.087,0,0,0-.46-1.46Zm0,0" transform="translate(-4.497 -183.861)" fill="#e9e9ea"/>
      <path id="Trazado_101751" data-name="Trazado 101751" d="M268.518,205.054h2.008a1.592,1.592,0,0,1,.429.06V192.683a1.068,1.068,0,0,1,1.068-1.068H275.5v7.425a1.592,1.592,0,0,1,.539-.1h2.007a1.594,1.594,0,0,1,.452.066v-8.184a2.211,2.211,0,0,0-2.211-2.211h-8.33v16.541A1.585,1.585,0,0,1,268.518,205.054Zm0,0" transform="translate(-241.202 -170.095)" fill="#6d6c6b"/>
      <path id="Trazado_101752" data-name="Trazado 101752" d="M72.565,329.461h2.008a1.577,1.577,0,0,1,.429.061V317.09a1.068,1.068,0,0,1,1.068-1.068h3.476v7.426a1.582,1.582,0,0,1,.539-.1h2.008a1.6,1.6,0,0,1,.452.066v-8.184a2.211,2.211,0,0,0-2.211-2.211H72v16.541A1.593,1.593,0,0,1,72.565,329.461Zm0,0" transform="translate(-64.492 -282.284)" fill="#6d6c6b"/>
      <path id="Trazado_101753" data-name="Trazado 101753" d="M267.957,339.668v1.706a1.593,1.593,0,0,1,.561-.1h2.008a1.576,1.576,0,0,1,.429.061v-1.663Zm0,0" transform="translate(-241.202 -306.312)" fill="#e9e9ea"/>
      <path id="Trazado_101754" data-name="Trazado 101754" d="M344.762,277.462v1.7a1.59,1.59,0,0,1,.539-.1h2.007a1.593,1.593,0,0,1,.452.066v-1.669Zm0,0" transform="translate(-310.464 -250.214)" fill="#e9e9ea"/>
      <path id="Trazado_101755" data-name="Trazado 101755" d="M72,464.078v1.707a1.584,1.584,0,0,1,.561-.1h2.008a1.593,1.593,0,0,1,.429.06v-1.663Zm0,0" transform="translate(-64.492 -418.505)" fill="#e9e9ea"/>
      <path id="Trazado_101756" data-name="Trazado 101756" d="M148.813,401.875v1.7a1.58,1.58,0,0,1,.539-.1h2.008a1.6,1.6,0,0,1,.452.066v-1.669Zm0,0" transform="translate(-133.758 -362.41)" fill="#e9e9ea"/>
      <path id="Trazado_101757" data-name="Trazado 101757" d="M273.871,8.669a1.022,1.022,0,0,1,.157.013V8.564a.132.132,0,0,1,.133-.13.118.118,0,0,1,.026,0,2.666,2.666,0,0,0,2.669-.877.132.132,0,0,1,.186-.022l.01.01a2.561,2.561,0,0,0,1.768.637.132.132,0,0,1,.127.129v.368a1.022,1.022,0,0,1,.87.275V7.111a1.408,1.408,0,0,0-1.4-1.405,1.388,1.388,0,0,0-.718.2,1.406,1.406,0,0,0-1.2-.687h-.721a2.545,2.545,0,0,0-2.538,2.538V8.895A1.021,1.021,0,0,1,273.871,8.669Zm0,0" transform="translate(-245.958 -4.708)" fill="#6d6c6b"/>
      <path id="Trazado_101758" data-name="Trazado 101758" d="M77.918,133.079a1.024,1.024,0,0,1,.157.012v-.118a.131.131,0,0,1,.133-.13l.026,0a2.665,2.665,0,0,0,2.669-.877.133.133,0,0,1,.186-.021l.01.009a2.561,2.561,0,0,0,1.768.638.132.132,0,0,1,.127.129v.368a1.021,1.021,0,0,1,.87.275v-1.846a1.409,1.409,0,0,0-1.4-1.406,1.393,1.393,0,0,0-.718.2,1.406,1.406,0,0,0-1.2-.687h-.722a2.546,2.546,0,0,0-2.538,2.538V133.3A1.018,1.018,0,0,1,77.918,133.079Zm0,0" transform="translate(-69.248 -116.9)" fill="#6d6c6b"/>
      <path id="Trazado_101759" data-name="Trazado 101759" d="M337.509,293.777H335.5a1.61,1.61,0,0,0-1.606,1.606v.786a.218.218,0,0,0,.217.218H338.9a.218.218,0,0,0,.218-.218h0v-.786A1.61,1.61,0,0,0,337.509,293.777Zm0,0" transform="translate(-300.664 -264.928)" fill="#c1814c"/>
      <path id="Trazado_101760" data-name="Trazado 101760" d="M260.93,355.992h-2.008a1.61,1.61,0,0,0-1.606,1.606v.786a.218.218,0,0,0,.217.217h4.784a.217.217,0,0,0,.218-.217h0V357.6A1.61,1.61,0,0,0,260.93,355.992Zm0,0" transform="translate(-231.606 -321.033)" fill="#c1814c"/>
      <path id="Trazado_101761" data-name="Trazado 101761" d="M141.555,418.2h-2.008a1.61,1.61,0,0,0-1.606,1.606v.786a.218.218,0,0,0,.218.218h4.785a.218.218,0,0,0,.218-.218h0V419.8A1.611,1.611,0,0,0,141.555,418.2Zm0,0" transform="translate(-123.955 -377.128)" fill="#c1814c"/>
      <path id="Trazado_101762" data-name="Trazado 101762" d="M64.977,480.4H62.969A1.61,1.61,0,0,0,61.363,482v.786a.218.218,0,0,0,.218.218h4.785a.218.218,0,0,0,.217-.218h0V482A1.611,1.611,0,0,0,64.977,480.4Zm0,0" transform="translate(-54.897 -433.222)" fill="#c1814c"/>
      <path id="Trazado_101763" data-name="Trazado 101763" d="M331.547,40.355a1.019,1.019,0,0,0-.164.013c0,.055.006.11.006.166V42.23c0,.055,0,.11-.006.165a1.026,1.026,0,0,0,.33-2.026A1.1,1.1,0,0,0,331.547,40.355Zm0,0" transform="translate(-298.399 -36.394)" fill="#f9d0b4"/>
      <path id="Trazado_101764" data-name="Trazado 101764" d="M270.417,42.218v-1.7c0-.056,0-.111.006-.166a1.027,1.027,0,1,0,0,2.026C270.419,42.328,270.417,42.273,270.417,42.218Zm0,0" transform="translate(-242.345 -36.381)" fill="#f9d0b4"/>
      <path id="Trazado_101765" data-name="Trazado 101765" d="M293.765,81.358v-.44a2.443,2.443,0,0,1-2.514,0v.465a.651.651,0,0,1-.251.515l.362.652a.589.589,0,0,0,.514.3h1.263a.589.589,0,0,0,.514-.3l.371-.667A.651.651,0,0,1,293.765,81.358Zm0,0" transform="translate(-261.982 -72.969)" fill="#f9d0b4"/>
      <path id="Trazado_101766" data-name="Trazado 101766" d="M331.547,40.355a1.019,1.019,0,0,0-.164.013c0,.055.006.11.006.166V42.23c0,.055,0,.11-.006.165a1.026,1.026,0,0,0,.33-2.026A1.1,1.1,0,0,0,331.547,40.355Zm0,0" transform="translate(-298.399 -36.394)" fill="#f9d0b4"/>
      <path id="Trazado_101767" data-name="Trazado 101767" d="M270.417,42.218v-1.7c0-.056,0-.111.006-.166a1.027,1.027,0,1,0,0,2.026C270.419,42.328,270.417,42.273,270.417,42.218Zm0,0" transform="translate(-242.345 -36.381)" fill="#f9d0b4"/>
      <path id="Trazado_101768" data-name="Trazado 101768" d="M284.187,28.592a2.664,2.664,0,0,1-2.669.877.131.131,0,0,0-.156.1.149.149,0,0,0,0,.026v1.98a2.46,2.46,0,0,0,4.919,0v-2.23a.132.132,0,0,0-.127-.129,2.566,2.566,0,0,1-1.768-.638.133.133,0,0,0-.187,0Zm0,0" transform="translate(-253.288 -25.74)" fill="#f9d0b4"/>
      <path id="Trazado_101769" data-name="Trazado 101769" d="M201.749,171.359l-.276,1.048a1.109,1.109,0,0,0,2.123.639c.005-.015.01-.029.014-.043l.3-1.03Zm0,0" transform="translate(-181.214 -154.532)" fill="#f9d0b4"/>
      <path id="Trazado_101770" data-name="Trazado 101770" d="M417.509,106.47l-.837.771,1.616,1.7.811-.768a1.165,1.165,0,1,0-1.591-1.7Zm0,0" transform="translate(-375.312 -95.733)" fill="#f9d0b4"/>
      <path id="Trazado_101771" data-name="Trazado 101771" d="M135.593,164.766a1.018,1.018,0,0,0-.164.013c0,.055.006.11.006.166v1.7c0,.055,0,.11-.006.165a1.026,1.026,0,0,0,.33-2.026A1,1,0,0,0,135.593,164.766Zm0,0" transform="translate(-121.689 -148.586)" fill="#f9d0b4"/>
      <path id="Trazado_101772" data-name="Trazado 101772" d="M74.466,166.628v-1.7c0-.056,0-.111.007-.166a1.027,1.027,0,0,0-.341,2.026,1.039,1.039,0,0,0,.341,0C74.469,166.738,74.466,166.683,74.466,166.628Zm0,0" transform="translate(-65.638 -148.574)" fill="#f9d0b4"/>
      <path id="Trazado_101773" data-name="Trazado 101773" d="M97.816,205.765v-.439a2.446,2.446,0,0,1-2.514-.006v.465a.651.651,0,0,1-.251.515l.362.652a.589.589,0,0,0,.514.3h1.263a.589.589,0,0,0,.514-.3l.37-.667A.652.652,0,0,1,97.816,205.765Zm0,0" transform="translate(-85.276 -185.158)" fill="#f9d0b4"/>
      <path id="Trazado_101774" data-name="Trazado 101774" d="M135.593,164.766a1.018,1.018,0,0,0-.164.013c0,.055.006.11.006.166v1.7c0,.055,0,.11-.006.165a1.026,1.026,0,0,0,.33-2.026A1,1,0,0,0,135.593,164.766Zm0,0" transform="translate(-121.689 -148.586)" fill="#f9d0b4"/>
      <path id="Trazado_101775" data-name="Trazado 101775" d="M74.466,166.628v-1.7c0-.056,0-.111.007-.166a1.027,1.027,0,0,0-.341,2.026,1.039,1.039,0,0,0,.341,0C74.469,166.738,74.466,166.683,74.466,166.628Zm0,0" transform="translate(-65.638 -148.574)" fill="#f9d0b4"/>
      <path id="Trazado_101776" data-name="Trazado 101776" d="M88.234,153a2.665,2.665,0,0,1-2.669.877.131.131,0,0,0-.156.1.156.156,0,0,0,0,.026v1.98a2.459,2.459,0,0,0,4.919,0v-2.23a.132.132,0,0,0-.127-.129,2.566,2.566,0,0,1-1.768-.638.133.133,0,0,0-.187,0Zm0,0" transform="translate(-76.579 -137.932)" fill="#f9d0b4"/>
      <path id="Trazado_101777" data-name="Trazado 101777" d="M5.789,295.777l-.277,1.047a1.109,1.109,0,0,0,2.123.639l.013-.043.3-1.03Zm0,0" transform="translate(-4.497 -266.732)" fill="#f9d0b4"/>
      <path id="Trazado_101778" data-name="Trazado 101778" d="M210.957,204.008a1.087,1.087,0,0,0-1.445.414l-.66,1.132,1.961,1.092.606-1.177A1.088,1.088,0,0,0,210.957,204.008Zm0,0" transform="translate(-187.901 -183.861)" fill="#f9d0b4"/>
      <path id="Trazado_101779" data-name="Trazado 101779" d="M380.4,17.876l.534-.491a1.161,1.161,0,0,1,.785-.307l-4.132-9.236a.783.783,0,0,0-.974-.429.766.766,0,0,0-.45.985c.006.015.012.03.018.045Zm0,0" transform="translate(-338.736 -6.647)" fill="#c1814c"/>
      <path id="Trazado_101780" data-name="Trazado 101780" d="M431.816,127.281,431.245,126c-.02.023-.041.046-.064.067l-1.111,1.051.35.782a.765.765,0,1,0,1.4-.625Zm0,0" transform="translate(-387.395 -113.631)" fill="#c1814c"/>
      <path id="Trazado_101781" data-name="Trazado 101781" d="M392.551,15.383l2.176,4.865,4.282-4.835Zm0,0" transform="translate(-353.56 -13.873)" fill="#f75c64"/>
      <path id="Trazado_101782" data-name="Trazado 101782" d="M407.5,220.5h-8.81a.982.982,0,0,1,0-1.964h8.81a.982.982,0,1,1,0,1.964Zm0,0" transform="translate(-358.213 -197.079)" fill="#e9e9ea"/>
      <path id="Trazado_101783" data-name="Trazado 101783" d="M431.333,198.543h-2.793a1.068,1.068,0,0,0-1.068,1.068v.9h4.93v-.9a1.068,1.068,0,0,0-1.068-1.068Zm0,0" transform="translate(-385.052 -179.046)" fill="#e9e9ea"/>
      <path id="Trazado_101784" data-name="Trazado 101784" d="M407.6,238.539h8.6V264.9h-8.6Zm0,0" transform="translate(-367.129 -215.115)" fill="#ffae2c"/>
      <path id="Trazado_101785" data-name="Trazado 101785" d="M319.992,320.367h8.6v18.326h-8.6Zm0,0" transform="translate(-288.127 -288.907)" fill="#fcd770"/>
      <path id="Trazado_101786" data-name="Trazado 101786" d="M232.391,382.57h8.6v12.217h-8.6Zm0,0" transform="translate(-209.128 -345.001)" fill="#ffae2c"/>
      <path id="Trazado_101787" data-name="Trazado 101787" d="M144.785,444.773h8.6v6.109h-8.6Zm0,0" transform="translate(-130.126 -401.096)" fill="#fcd770"/>
      <path id="Trazado_101788" data-name="Trazado 101788" d="M164.627,1.755A2.174,2.174,0,0,1,162.9.029a.04.04,0,0,0-.047-.03.04.04,0,0,0-.03.03A2.175,2.175,0,0,1,161.1,1.755a.039.039,0,0,0,0,.076,2.175,2.175,0,0,1,1.726,1.726.039.039,0,0,0,.047.03.04.04,0,0,0,.03-.03,2.174,2.174,0,0,1,1.726-1.726.039.039,0,0,0,0-.076Zm0,0" transform="translate(-144.81 0)" fill="#ffae2c"/>
      <path id="Trazado_101789" data-name="Trazado 101789" d="M19.206,378.56H17.5a.491.491,0,1,1,0-.982h1.707a.491.491,0,1,1,0,.982Zm0,0" transform="translate(-14.897 -340.499)" fill="#60bae2"/>
      <path id="Trazado_101790" data-name="Trazado 101790" d="M26.186,371.568a.491.491,0,0,1-.491-.491V369.37a.491.491,0,1,1,.982,0v1.707A.491.491,0,0,1,26.186,371.568Zm0,0" transform="translate(-22.732 -332.654)" fill="#60bae2"/>
      <path id="Trazado_101791" data-name="Trazado 101791" d="M487.248,118.451h-1.706a.491.491,0,1,1,0-.982h1.707a.491.491,0,1,1,0,.982Zm0,0" transform="translate(-436.976 -105.934)" fill="#f75c64"/>
      <path id="Trazado_101792" data-name="Trazado 101792" d="M494.221,111.466a.491.491,0,0,1-.491-.491v-1.707a.491.491,0,1,1,.982,0v1.707A.491.491,0,0,1,494.221,111.466Zm0,0" transform="translate(-444.803 -98.096)" fill="#f75c64"/>
      <path id="Trazado_101793" data-name="Trazado 101793" d="M473.155,165.315a.489.489,0,0,1-.409-.218.55.55,0,0,1-.045-.086.51.51,0,0,1-.027-.091.458.458,0,0,1-.01-.1.453.453,0,0,1,.01-.1.511.511,0,0,1,.027-.091.533.533,0,0,1,.045-.086.489.489,0,0,1,.061-.074.5.5,0,0,1,.535-.106.528.528,0,0,1,.084.045.454.454,0,0,1,.075.061.51.51,0,0,1,.061.074.5.5,0,0,1,.045.086.483.483,0,0,1,.029.091.532.532,0,0,1,.01.1.538.538,0,0,1-.01.1.482.482,0,0,1-.029.091.518.518,0,0,1-.045.086.511.511,0,0,1-.061.074.455.455,0,0,1-.075.061.559.559,0,0,1-.084.045.519.519,0,0,1-.092.027A.445.445,0,0,1,473.155,165.315Zm0,0" transform="translate(-425.806 -148.197)" fill="#fcd770"/>
      <path id="Trazado_101794" data-name="Trazado 101794" d="M209.311,64.608a.489.489,0,0,1-.409-.218.534.534,0,0,1-.045-.086.508.508,0,0,1-.027-.091.448.448,0,0,1-.01-.1.453.453,0,0,1,.01-.1.508.508,0,0,1,.027-.091.551.551,0,0,1,.045-.086.49.49,0,0,1,.6-.181.559.559,0,0,1,.084.045.456.456,0,0,1,.075.061.474.474,0,0,1,.106.16.485.485,0,0,1,.029.091.541.541,0,0,1,.01.1.534.534,0,0,1-.01.1.485.485,0,0,1-.029.091.506.506,0,0,1-.045.086.516.516,0,0,1-.061.074.436.436,0,0,1-.075.061.524.524,0,0,1-.084.045.484.484,0,0,1-.092.028A.438.438,0,0,1,209.311,64.608Zm0,0" transform="translate(-187.873 -57.38)" fill="#6dcc6d"/>
      <path id="Trazado_101795" data-name="Trazado 101795" d="M402.994,216.485h-8.81a1.473,1.473,0,0,1,0-2.946h8.81a1.473,1.473,0,1,1,0,2.946Zm-8.81-1.964a.491.491,0,1,0,0,.982h8.81a.491.491,0,1,0,0-.982Zm0,0" transform="translate(-353.704 -192.57)" fill="#231f20"/>
      <path id="Trazado_101796" data-name="Trazado 101796" d="M427.886,196.489h-4.93a.491.491,0,0,1-.491-.491v-.9a1.561,1.561,0,0,1,1.559-1.559h2.793a1.561,1.561,0,0,1,1.559,1.559v.9A.491.491,0,0,1,427.886,196.489Zm-4.439-.982h3.948v-.4a.578.578,0,0,0-.577-.577h-2.793a.578.578,0,0,0-.577.577Zm0,0" transform="translate(-380.536 -174.537)" fill="#231f20"/>
      <path id="Trazado_101797" data-name="Trazado 101797" d="M390.217,16.225a.491.491,0,0,1-.448-.29l-2.176-4.865a.492.492,0,0,1,.037-.468.478.478,0,0,1,.414-.223l6.458.03a.491.491,0,0,1,.366.816l-4.283,4.835A.489.489,0,0,1,390.217,16.225ZM388.8,11.364l1.554,3.475,3.059-3.453Zm0,0" transform="translate(-349.05 -9.36)" fill="#231f20"/>
      <path id="Trazado_101798" data-name="Trazado 101798" d="M331.547,40.355a1.019,1.019,0,0,0-.164.013c0,.055.006.11.006.166V42.23c0,.055,0,.11-.006.165a1.026,1.026,0,0,0,.33-2.026A1.1,1.1,0,0,0,331.547,40.355Zm0,0" transform="translate(-298.399 -36.394)" fill="#f9d0b4"/>
      <path id="Trazado_101799" data-name="Trazado 101799" d="M270.417,42.218v-1.7c0-.056,0-.111.006-.166a1.027,1.027,0,1,0,0,2.026C270.419,42.328,270.417,42.273,270.417,42.218Zm0,0" transform="translate(-242.345 -36.381)" fill="#f9d0b4"/>
      <path id="Trazado_101800" data-name="Trazado 101800" d="M301.9,111.184a.49.49,0,0,1-.491-.488v0a.488.488,0,0,1,.143-.348.506.506,0,0,1,.693,0,.488.488,0,0,1,.145.348.5.5,0,0,1-.145.348.5.5,0,0,1-.159.106A.5.5,0,0,1,301.9,111.184Zm0,0" transform="translate(-271.366 -99.386)" fill="#231f20"/>
      <path id="Trazado_101801" data-name="Trazado 101801" d="M301.9,129.707a.5.5,0,0,1-.348-.143.489.489,0,0,1-.106-.159.58.58,0,0,1-.027-.092.4.4,0,0,1-.01-.1.5.5,0,0,1,.008-.1.529.529,0,0,1,.029-.092.523.523,0,0,1,.045-.084.444.444,0,0,1,.061-.075.511.511,0,0,1,.7,0,.56.56,0,0,1,.061.075.685.685,0,0,1,.045.084.524.524,0,0,1,.028.092.492.492,0,0,1,0,.192.43.43,0,0,1-.03.092.475.475,0,0,1-.043.085c-.02.025-.039.051-.061.074A.5.5,0,0,1,301.9,129.707Zm0,0" transform="translate(-271.366 -116.091)" fill="#231f20"/>
      <path id="Trazado_101802" data-name="Trazado 101802" d="M301.9,148.161a.43.43,0,0,1-.1-.01.509.509,0,0,1-.092-.028.418.418,0,0,1-.085-.045.537.537,0,0,1-.074-.061.566.566,0,0,1-.061-.074.5.5,0,0,1-.072-.369.589.589,0,0,1,.027-.092.543.543,0,0,1,.045-.085.441.441,0,0,1,.061-.072.488.488,0,0,1,.444-.135.512.512,0,0,1,.091.028.562.562,0,0,1,.084.045.387.387,0,0,1,.074.063.419.419,0,0,1,.063.072.725.725,0,0,1,.045.085.556.556,0,0,1,.028.092.569.569,0,0,1,.01.1.493.493,0,0,1-.145.348.454.454,0,0,1-.074.061.427.427,0,0,1-.084.045.465.465,0,0,1-.091.028A.4.4,0,0,1,301.9,148.161Zm0,0" transform="translate(-271.368 -132.726)" fill="#231f20"/>
      <path id="Trazado_101803" data-name="Trazado 101803" d="M301.9,166.694a.389.389,0,0,1-.1-.01.512.512,0,0,1-.092-.028.417.417,0,0,1-.085-.045.377.377,0,0,1-.074-.061.494.494,0,0,1,0-.7.468.468,0,0,1,.074-.061.437.437,0,0,1,.085-.045.49.49,0,0,1,.375,0,.448.448,0,0,1,.084.045.608.608,0,0,1,.076.061c.022.024.041.049.061.075a.577.577,0,0,1,.045.086.494.494,0,0,1,.028.091.489.489,0,0,1,0,.193.519.519,0,0,1-.028.092.639.639,0,0,1-.045.084.811.811,0,0,1-.061.075.435.435,0,0,1-.076.061.426.426,0,0,1-.084.045.515.515,0,0,1-.091.028A.4.4,0,0,1,301.9,166.694Zm0,0" transform="translate(-271.368 -149.44)" fill="#231f20"/>
      <path id="Trazado_101804" data-name="Trazado 101804" d="M288.64,78.831h-1.263a1.08,1.08,0,0,1-.943-.555l-.362-.652A.491.491,0,0,1,286.2,77a.162.162,0,0,0,.063-.129v-.465a.491.491,0,0,1,.744-.421,1.983,1.983,0,0,0,2.009,0,.491.491,0,0,1,.743.422v.44a.161.161,0,0,0,.065.131.49.49,0,0,1,.132.628l-.37.667A1.081,1.081,0,0,1,288.64,78.831Zm-1.548-1.392.2.36a.1.1,0,0,0,.085.05h1.263a.1.1,0,0,0,.085-.05l.206-.371a1.134,1.134,0,0,1-.121-.293,2.954,2.954,0,0,1-1.6,0A1.122,1.122,0,0,1,287.092,77.439Zm0,0" transform="translate(-257.482 -68.46)" fill="#231f20"/>
      <path id="Trazado_101805" data-name="Trazado 101805" d="M327.03,38.393a1.5,1.5,0,0,1-.242-.021.491.491,0,0,1-.412-.518c0-.044.005-.087.005-.132v-1.7c0-.045,0-.089-.005-.133a.491.491,0,0,1,.412-.517,1.518,1.518,0,0,1,.477,3A1.5,1.5,0,0,1,327.03,38.393Zm.334-1.937v.839a.534.534,0,0,0,0-.839Zm0,0" transform="translate(-293.883 -31.886)" fill="#231f20"/>
      <path id="Trazado_101806" data-name="Trazado 101806" d="M265.794,38.391a1.518,1.518,0,1,1,.242-3.016.491.491,0,0,1,.412.518c0,.044-.005.088-.005.133v1.7c0,.045,0,.088.005.132a.491.491,0,0,1-.412.517A1.513,1.513,0,0,1,265.794,38.391Zm-.334-1.937a.535.535,0,0,0-.087.752.547.547,0,0,0,.087.087Zm0,0" transform="translate(-237.88 -31.885)" fill="#231f20"/>
      <path id="Trazado_101807" data-name="Trazado 101807" d="M279.31,30.032a2.954,2.954,0,0,1-2.95-2.95V25.1a.621.621,0,0,1,.75-.609,2.166,2.166,0,0,0,2.184-.7.624.624,0,0,1,.45-.234.636.636,0,0,1,.475.178,2.087,2.087,0,0,0,1.437.5.622.622,0,0,1,.6.61v2.239A2.954,2.954,0,0,1,279.31,30.032Zm-1.968-4.516v1.565a1.968,1.968,0,1,0,3.937,0V25.19a3.12,3.12,0,0,1-1.458-.516A3.1,3.1,0,0,1,277.341,25.516Zm2.72-1.112" transform="translate(-248.779 -21.245)" fill="#231f20"/>
      <path id="Trazado_101808" data-name="Trazado 101808" d="M275.309,4.939a.491.491,0,0,1-.341-.137.54.54,0,0,0-.453-.144.491.491,0,0,1-.566-.485v-.03a3.116,3.116,0,0,1-1.457-.516,3.128,3.128,0,0,1-2.573.834.491.491,0,0,1-.474.2.526.526,0,0,0-.416.111.491.491,0,0,1-.8-.384V3.248A3.033,3.033,0,0,1,271.26.219h.721a1.905,1.905,0,0,1,1.355.575A1.87,1.87,0,0,1,273.9.706a1.9,1.9,0,0,1,1.9,1.9V4.448a.491.491,0,0,1-.491.491ZM271.26,1.2a2.05,2.05,0,0,0-2.047,2.047v.367c.014-.014.03-.028.045-.041a.621.621,0,0,1,.521-.127,2.166,2.166,0,0,0,2.184-.7.624.624,0,0,1,.45-.236.638.638,0,0,1,.475.178,2.089,2.089,0,0,0,1.437.5.62.62,0,0,1,.491.266V2.6a.914.914,0,0,0-.913-.914.9.9,0,0,0-.465.13.491.491,0,0,1-.674-.168.921.921,0,0,0-.784-.449Zm.94,2.189" transform="translate(-241.449 -0.199)" fill="#231f20"/>
      <path id="Trazado_101809" data-name="Trazado 101809" d="M198.043,88.226a1.6,1.6,0,0,1-1.549-2.009l.928-3.518a4.421,4.421,0,0,1,1.3-2.144l2.866-2.612a3.5,3.5,0,0,1,2.363-.916h1.231a.493.493,0,0,1,.106.012.164.164,0,0,0,.2-.124.187.187,0,0,0,0-.036v-.466a.491.491,0,0,1,.744-.42,1.984,1.984,0,0,0,2.009,0,.491.491,0,0,1,.743.422v.438a.165.165,0,0,0,.164.165.153.153,0,0,0,.04,0,.487.487,0,0,1,.118-.015h1.626a2.606,2.606,0,0,1,1.889.816l3.189,3.389,2.564-2.363a1.656,1.656,0,0,1,2.26,2.421l-3.15,2.98a2.42,2.42,0,0,1-3.377-.093L211.5,81.276v5.713a.491.491,0,0,1-.491.491h-7.542a.491.491,0,0,1-.491-.491V81.324l-2.226,2.09a.66.66,0,0,0-.181.295l-.99,3.368a1.6,1.6,0,0,1-1.532,1.15Zm5.907-10.218a2.522,2.522,0,0,0-1.7.659l-2.866,2.612a3.438,3.438,0,0,0-1.011,1.669l-.927,3.518a.618.618,0,0,0,1.183.356l.008-.024.989-3.369a1.646,1.646,0,0,1,.452-.734l2.689-2.524a.707.707,0,0,1,1.191.516V86.5h6.56V80.576a.7.7,0,0,1,1.2-.483l3.293,3.373a1.439,1.439,0,0,0,2.006.059l3.143-2.974a.674.674,0,1,0-.919-.985l-2.921,2.692a.491.491,0,0,1-.69-.025L212.1,78.49a1.619,1.619,0,0,0-1.173-.507h-1.574a1.147,1.147,0,0,1-1.319-.84,2.955,2.955,0,0,1-1.6,0,1.147,1.147,0,0,1-1.3.866Zm7.06,2.769,0,0Zm0,0" transform="translate(-176.71 -68.467)" fill="#231f20"/>
      <path id="Trazado_101810" data-name="Trazado 101810" d="M198.043,169.783a1.6,1.6,0,0,1-1.549-2.009l.276-1.048a.49.49,0,0,1,.6-.349l.009,0,2.163.614a.491.491,0,0,1,.338.607v0l-.3,1.03a1.6,1.6,0,0,1-1.532,1.15Zm-.452-2.323-.149.564a.618.618,0,0,0,1.183.356c0-.008.005-.016.008-.024l.163-.554Zm0,0" transform="translate(-176.71 -150.024)" fill="#231f20"/>
      <path id="Trazado_101811" data-name="Trazado 101811" d="M413.781,105.041a.489.489,0,0,1-.356-.153l-1.616-1.7a.491.491,0,0,1,.018-.694l.005-.005.837-.772a1.656,1.656,0,0,1,2.26,2.421l-.811.768A.49.49,0,0,1,413.781,105.041Zm-.916-2.167.935.982.455-.432a.674.674,0,1,0-.919-.985Zm0,0" transform="translate(-370.805 -91.341)" fill="#231f20"/>
      <path id="Trazado_101812" data-name="Trazado 101812" d="M334.388,292.371H329.6a.709.709,0,0,1-.709-.709v-.786a2.1,2.1,0,0,1,2.1-2.1H333a2.1,2.1,0,0,1,2.1,2.1v.786A.709.709,0,0,1,334.388,292.371Zm-4.512-.982h4.238v-.513A1.116,1.116,0,0,0,333,289.761h-2.008a1.116,1.116,0,0,0-1.115,1.115Zm0,0" transform="translate(-296.155 -260.419)" fill="#231f20"/>
      <path id="Trazado_101813" data-name="Trazado 101813" d="M257.809,354.6h-4.784a.709.709,0,0,1-.708-.709V353.1a2.1,2.1,0,0,1,2.1-2.1h2.008a2.1,2.1,0,0,1,2.1,2.1v.786A.709.709,0,0,1,257.809,354.6Zm-4.512-.982h4.239V353.1a1.117,1.117,0,0,0-1.116-1.116h-2.007A1.116,1.116,0,0,0,253.3,353.1Zm0,0" transform="translate(-227.097 -316.535)" fill="#231f20"/>
      <path id="Trazado_101814" data-name="Trazado 101814" d="M263.444,201.14a.491.491,0,0,1-.491-.491V184.108a.491.491,0,0,1,.491-.491h8.331a2.7,2.7,0,0,1,2.7,2.7V194.5a.491.491,0,0,1-.63.471,1.11,1.11,0,0,0-.313-.046h-2.008a1.1,1.1,0,0,0-.373.067.491.491,0,0,1-.628-.3.484.484,0,0,1-.029-.166V187.6H267.51a.577.577,0,0,0-.577.577v12.431a.491.491,0,0,1-.491.491.482.482,0,0,1-.132-.018,1.1,1.1,0,0,0-.3-.042h-2.007a1.1,1.1,0,0,0-.389.073A.49.49,0,0,1,263.444,201.14Zm.491-16.541v15.456h2.017V188.174a1.561,1.561,0,0,1,1.559-1.559h3.477a.491.491,0,0,1,.491.491v6.839H273.5v-7.627a1.722,1.722,0,0,0-1.72-1.72Zm0,0" transform="translate(-236.689 -165.586)" fill="#231f20"/>
      <path id="Trazado_101815" data-name="Trazado 101815" d="M263.444,337.36a.491.491,0,0,1-.491-.491v-1.706a.491.491,0,0,1,.491-.491h3a.491.491,0,0,1,.491.491v1.663a.491.491,0,0,1-.491.491.485.485,0,0,1-.132-.018,1.094,1.094,0,0,0-.3-.042h-2.008a1.1,1.1,0,0,0-.389.072A.489.489,0,0,1,263.444,337.36Zm.491-1.706v.622h2.017v-.621Zm0,0" transform="translate(-236.689 -301.807)" fill="#231f20"/>
      <path id="Trazado_101816" data-name="Trazado 101816" d="M340.253,275.149a.491.491,0,0,1-.491-.491v-1.7a.491.491,0,0,1,.491-.491h3a.491.491,0,0,1,.491.491v1.669a.491.491,0,0,1-.491.491.5.5,0,0,1-.139-.02,1.1,1.1,0,0,0-.313-.046h-2.008a1.106,1.106,0,0,0-.373.066A.476.476,0,0,1,340.253,275.149Zm.491-1.7v.621h2.017v-.621Zm0,0" transform="translate(-305.955 -245.712)" fill="#231f20"/>
      <path id="Trazado_101817" data-name="Trazado 101817" d="M375.884,13.847a.49.49,0,0,1-.448-.29l-4.221-9.435a1.258,1.258,0,0,1,.636-1.66l.074-.03a1.272,1.272,0,0,1,1.594.689l4.132,9.236a.49.49,0,0,1-.446.691.674.674,0,0,0-.454.177l-.534.491A.492.492,0,0,1,375.884,13.847ZM372.351,3.336a.24.24,0,0,0-.084.015.274.274,0,0,0-.163.351l.007.018,3.942,8.812.031-.029a1.651,1.651,0,0,1,.428-.285l-3.891-8.7A.306.306,0,0,0,372.351,3.336Zm0,0" transform="translate(-334.221 -2.126)" fill="#231f20"/>
      <path id="Trazado_101818" data-name="Trazado 101818" d="M426.609,124.363a1.257,1.257,0,0,1-1.149-.743l-.35-.782a.491.491,0,0,1,.111-.557l1.111-1.052c.013-.012.024-.025.036-.037a.492.492,0,0,1,.814.127l.571,1.277a1.255,1.255,0,0,1-1.144,1.768Zm-.46-1.608.207.464a.274.274,0,1,0,.5-.224l-.286-.639Zm0,0" transform="translate(-382.884 -109.144)" fill="#231f20"/>
      <path id="Trazado_101819" data-name="Trazado 101819" d="M135.593,164.766a1.018,1.018,0,0,0-.164.013c0,.055.006.11.006.166v1.7c0,.055,0,.11-.006.165a1.026,1.026,0,0,0,.33-2.026A1,1,0,0,0,135.593,164.766Zm0,0" transform="translate(-121.689 -148.586)" fill="#f9d0b4"/>
      <path id="Trazado_101820" data-name="Trazado 101820" d="M74.466,166.628v-1.7c0-.056,0-.111.007-.166a1.027,1.027,0,0,0-.341,2.026,1.039,1.039,0,0,0,.341,0C74.469,166.738,74.466,166.683,74.466,166.628Zm0,0" transform="translate(-65.638 -148.574)" fill="#f9d0b4"/>
      <g id="Grupo_57214" data-name="Grupo 57214" transform="translate(0.488 12.238)">
        <path id="Trazado_101821" data-name="Trazado 101821" d="M105.933,235.521a.491.491,0,0,1-.348-.839c.024-.021.049-.041.075-.061a.683.683,0,0,1,.084-.045.546.546,0,0,1,.092-.028.464.464,0,0,1,.192,0,.546.546,0,0,1,.092.028.714.714,0,0,1,.084.045.817.817,0,0,1,.075.061.491.491,0,0,1-.348.839Zm0,0" transform="translate(-95.134 -223.744)" fill="#231f20"/>
        <path id="Trazado_101822" data-name="Trazado 101822" d="M105.94,254.051a.4.4,0,0,1-.1-.01.554.554,0,0,1-.092-.028.493.493,0,0,1-.084-.045.545.545,0,0,1-.075-.061.52.52,0,0,1-.061-.075.436.436,0,0,1-.045-.085.479.479,0,0,1-.028-.092.542.542,0,0,1-.01-.1.511.511,0,0,1,.01-.094.487.487,0,0,1,.028-.093.445.445,0,0,1,.045-.084.5.5,0,0,1,.061-.074.52.52,0,0,1,.075-.061.506.506,0,0,1,.084-.047.549.549,0,0,1,.092-.028.523.523,0,0,1,.192,0,.488.488,0,0,1,.092.028.507.507,0,0,1,.084.047.442.442,0,0,1,.075.061.472.472,0,0,1,.061.074.447.447,0,0,1,.045.084.517.517,0,0,1,.028.093.477.477,0,0,1,0,.19.478.478,0,0,1-.028.092.438.438,0,0,1-.045.085.483.483,0,0,1-.409.218Zm0,0" transform="translate(-95.142 -240.456)" fill="#231f20"/>
        <path id="Trazado_101823" data-name="Trazado 101823" d="M105.94,272.567a.53.53,0,0,1-.1-.008.551.551,0,0,1-.092-.029.5.5,0,0,1-.084-.045.52.52,0,0,1-.075-.061.5.5,0,0,1-.061-.074.6.6,0,0,1-.045-.085.477.477,0,0,1-.028-.092.518.518,0,0,1-.01-.094.542.542,0,0,1,.01-.1.48.48,0,0,1,.028-.092.435.435,0,0,1,.045-.085.517.517,0,0,1,.061-.075.511.511,0,0,1,.075-.061.467.467,0,0,1,.084-.045.554.554,0,0,1,.092-.029.485.485,0,0,1,.369.074.516.516,0,0,1,.075.061.469.469,0,0,1,.061.074.437.437,0,0,1,.045.085.483.483,0,0,1,.028.092.386.386,0,0,1,.01.1.39.39,0,0,1-.01.094.523.523,0,0,1-.028.092.444.444,0,0,1-.045.084.491.491,0,0,1-.061.075.518.518,0,0,1-.075.061.473.473,0,0,1-.084.045.508.508,0,0,1-.092.03A.536.536,0,0,1,105.94,272.567Zm0,0" transform="translate(-95.142 -257.154)" fill="#231f20"/>
        <path id="Trazado_101824" data-name="Trazado 101824" d="M105.933,291.155a.491.491,0,0,1-.348-.839.508.508,0,0,1,.7,0,.438.438,0,0,1,.061.075.449.449,0,0,1,.045.084.512.512,0,0,1,.028.092.5.5,0,0,1,.01.1.542.542,0,0,1-.01.1.5.5,0,0,1-.028.09.449.449,0,0,1-.045.084.588.588,0,0,1-.061.077.575.575,0,0,1-.075.061.657.657,0,0,1-.084.045.51.51,0,0,1-.092.028A.574.574,0,0,1,105.933,291.155Zm0,0" transform="translate(-95.134 -273.921)" fill="#231f20"/>
        <path id="Trazado_101825" data-name="Trazado 101825" d="M92.689,203.238H91.426a1.081,1.081,0,0,1-.943-.555l-.362-.652a.491.491,0,0,1,.126-.625.162.162,0,0,0,.063-.129v-.466a.491.491,0,0,1,.744-.42,1.984,1.984,0,0,0,2.009,0,.491.491,0,0,1,.743.422v.44a.161.161,0,0,0,.066.13.491.491,0,0,1,.132.628l-.371.668A1.08,1.08,0,0,1,92.689,203.238Zm-1.548-1.392.2.36a.1.1,0,0,0,.085.05h1.263a.1.1,0,0,0,.085-.05l.206-.371a1.133,1.133,0,0,1-.121-.293,2.954,2.954,0,0,1-1.6,0A1.157,1.157,0,0,1,91.141,201.846Zm0,0" transform="translate(-81.263 -192.887)" fill="#231f20"/>
        <path id="Trazado_101826" data-name="Trazado 101826" d="M131.078,162.8a1.5,1.5,0,0,1-.242-.021.491.491,0,0,1-.412-.517c0-.044,0-.088,0-.132v-1.7c0-.045,0-.089,0-.134a.491.491,0,0,1,.412-.517,1.518,1.518,0,1,1,.242,3.016Zm.334-1.937v.839a.535.535,0,0,0,.087-.752A.546.546,0,0,0,131.412,160.863Zm0,0" transform="translate(-117.662 -156.314)" fill="#231f20"/>
        <path id="Trazado_101827" data-name="Trazado 101827" d="M69.841,162.8a1.518,1.518,0,1,1,0-3.036,1.478,1.478,0,0,1,.247.02.491.491,0,0,1,.411.517c0,.045,0,.089,0,.134v1.7c0,.044,0,.088,0,.132a.491.491,0,0,1-.412.517A1.5,1.5,0,0,1,69.841,162.8Zm-.334-1.937a.535.535,0,0,0-.087.752.516.516,0,0,0,.087.087Zm0,0" transform="translate(-61.659 -156.315)" fill="#231f20"/>
        <path id="Trazado_101828" data-name="Trazado 101828" d="M83.357,154.438a2.954,2.954,0,0,1-2.95-2.95v-1.978a.622.622,0,0,1,.623-.622.645.645,0,0,1,.127.013,2.165,2.165,0,0,0,2.184-.7.624.624,0,0,1,.876-.1c.017.013.033.028.049.043a2.088,2.088,0,0,0,1.437.5.622.622,0,0,1,.6.611v2.238A2.954,2.954,0,0,1,83.357,154.438Zm-1.968-4.516v1.565a1.968,1.968,0,0,0,3.937,0v-1.893a3.112,3.112,0,0,1-1.457-.515A3.1,3.1,0,0,1,81.388,149.923Zm2.721-1.113" transform="translate(-72.558 -145.672)" fill="#231f20"/>
        <path id="Trazado_101829" data-name="Trazado 101829" d="M79.352,129.35a.492.492,0,0,1-.341-.138.54.54,0,0,0-.453-.144.491.491,0,0,1-.561-.409.5.5,0,0,1-.006-.076v-.031a3.111,3.111,0,0,1-1.457-.515,3.128,3.128,0,0,1-2.573.834.49.49,0,0,1-.473.2.526.526,0,0,0-.416.111.491.491,0,0,1-.8-.384v-1.137a3.033,3.033,0,0,1,3.03-3.029h.722a1.9,1.9,0,0,1,1.355.575,1.872,1.872,0,0,1,.567-.088,1.9,1.9,0,0,1,1.9,1.9v1.846a.491.491,0,0,1-.491.491ZM75.3,125.611a2.05,2.05,0,0,0-2.047,2.047v.367c.015-.015.03-.028.046-.041a.625.625,0,0,1,.521-.127,2.165,2.165,0,0,0,2.184-.7.624.624,0,0,1,.876-.1.585.585,0,0,1,.049.043,2.088,2.088,0,0,0,1.437.5.621.621,0,0,1,.491.266v-.849a.908.908,0,0,0-1.377-.784.491.491,0,0,1-.674-.168h0a.919.919,0,0,0-.783-.449Zm0,0" transform="translate(-65.224 -124.629)" fill="#231f20"/>
        <path id="Trazado_101830" data-name="Trazado 101830" d="M2.09,211.324a1.6,1.6,0,0,1-1.55-2.009l1.016-3.851a3.26,3.26,0,0,1,.957-1.58l3.454-3.149a2.34,2.34,0,0,1,1.579-.612H9.229a.5.5,0,0,1,.106.012.164.164,0,0,0,.2-.124.162.162,0,0,0,0-.036v-.466a.491.491,0,0,1,.744-.42,1.984,1.984,0,0,0,2.009,0,.491.491,0,0,1,.743.422v.44a.164.164,0,0,0,.164.164.15.15,0,0,0,.04-.005.49.49,0,0,1,.118-.014h1.51a3.718,3.718,0,0,1,2.144.676l2.5,1.755,1.676-2.87a1.578,1.578,0,0,1,2.766,1.518l-1.925,3.739-.012.021a2.745,2.745,0,0,1-3.752,1c-.034-.02-.068-.041-.1-.062L15.545,204.2v5.886a.491.491,0,0,1-.491.491H7.512a.491.491,0,0,1-.491-.491v-5.666l-2.357,2.212-1.041,3.54a1.6,1.6,0,0,1-1.532,1.15Zm5.456-10.218a1.357,1.357,0,0,0-.917.356L3.175,204.61a2.28,2.28,0,0,0-.669,1.1L1.49,209.565a.618.618,0,0,0,1.183.356l.008-.024,1.078-3.669a.491.491,0,0,1,.135-.219l3.281-3.08a.491.491,0,0,1,.827.358V209.6h6.56v-5.922a.7.7,0,0,1,1.145-.534l2.984,1.908a1.762,1.762,0,0,0,2.434-.535l.035-.056,1.918-3.728a.6.6,0,0,0-1.045-.574l-1.741,2.981-.015.024a.883.883,0,0,1-1.225.249l-.02-.013-2.59-1.816a2.741,2.741,0,0,0-1.58-.5H13.4a1.147,1.147,0,0,1-1.319-.84,2.963,2.963,0,0,1-1.6,0,1.147,1.147,0,0,1-1.3.866Zm0,0" transform="translate(-0.488 -191.585)" fill="#231f20"/>
        <path id="Trazado_101831" data-name="Trazado 101831" d="M2.09,294.191a1.6,1.6,0,0,1-1.55-2.009l.277-1.048a.491.491,0,0,1,.6-.349l.009,0,2.162.614a.491.491,0,0,1,.338.607v0l-.3,1.029a1.6,1.6,0,0,1-1.533,1.15Zm-.451-2.322-.149.564a.618.618,0,0,0,1.183.355l.008-.023.163-.554Zm0,0" transform="translate(-0.488 -274.452)" fill="#231f20"/>
        <path id="Trazado_101832" data-name="Trazado 101832" d="M138.435,416.8H133.65a.709.709,0,0,1-.709-.708V415.3a2.1,2.1,0,0,1,2.1-2.1h2.008a2.1,2.1,0,0,1,2.1,2.1v.786A.709.709,0,0,1,138.435,416.8Zm-4.512-.982h4.238V415.3a1.116,1.116,0,0,0-1.115-1.115h-2.008a1.116,1.116,0,0,0-1.115,1.115Zm0,0" transform="translate(-119.934 -384.867)" fill="#231f20"/>
        <path id="Trazado_101833" data-name="Trazado 101833" d="M61.857,478.991H57.072a.709.709,0,0,1-.709-.708V477.5a2.1,2.1,0,0,1,2.1-2.1h2.008a2.1,2.1,0,0,1,2.1,2.1v.786A.709.709,0,0,1,61.857,478.991Zm-4.512-.982h4.238V477.5a1.117,1.117,0,0,0-1.115-1.116H58.46a1.117,1.117,0,0,0-1.115,1.116Zm0,0" transform="translate(-50.876 -440.951)" fill="#231f20"/>
        <path id="Trazado_101834" data-name="Trazado 101834" d="M67.495,325.547a.491.491,0,0,1-.491-.491V308.514a.491.491,0,0,1,.491-.491h8.33a2.705,2.705,0,0,1,2.7,2.7v8.184a.49.49,0,0,1-.63.471,1.105,1.105,0,0,0-.313-.046H75.576a1.1,1.1,0,0,0-.373.066.49.49,0,0,1-.656-.461V312H71.561a.578.578,0,0,0-.577.577v12.431a.491.491,0,0,1-.491.491.485.485,0,0,1-.132-.018,1.126,1.126,0,0,0-.3-.042H68.056a1.1,1.1,0,0,0-.389.073A.493.493,0,0,1,67.495,325.547Zm.491-16.541v15.456H70v-11.88a1.561,1.561,0,0,1,1.559-1.559h3.477a.491.491,0,0,1,.491.491v6.839h2.016v-7.627a1.722,1.722,0,0,0-1.72-1.72Zm0,0" transform="translate(-60.472 -290.013)" fill="#231f20"/>
        <path id="Trazado_101835" data-name="Trazado 101835" d="M67.495,461.77a.491.491,0,0,1-.491-.491v-1.706a.491.491,0,0,1,.491-.491h3a.491.491,0,0,1,.491.491v1.663a.49.49,0,0,1-.623.473,1.126,1.126,0,0,0-.3-.042H68.056a1.1,1.1,0,0,0-.389.073A.493.493,0,0,1,67.495,461.77Zm.491-1.706v.621H70v-.62Zm0,0" transform="translate(-60.472 -426.237)" fill="#231f20"/>
        <path id="Trazado_101836" data-name="Trazado 101836" d="M144.3,399.567a.491.491,0,0,1-.491-.491v-1.7a.491.491,0,0,1,.491-.491h3a.491.491,0,0,1,.491.491v1.669a.491.491,0,0,1-.491.491.506.506,0,0,1-.14-.02,1.091,1.091,0,0,0-.313-.046h-2.008a1.1,1.1,0,0,0-.373.066A.485.485,0,0,1,144.3,399.567Zm.491-1.7v.621h2.016v-.621Zm0,0" transform="translate(-129.737 -370.15)" fill="#231f20"/>
        <path id="Trazado_101837" data-name="Trazado 101837" d="M206.3,202.617a.49.49,0,0,1-.239-.062l-1.961-1.091a.491.491,0,0,1-.19-.668l0-.009.661-1.132a1.578,1.578,0,0,1,2.767,1.518l-.606,1.177a.491.491,0,0,1-.437.266Zm-1.284-1.768,1.08.6.373-.727a.6.6,0,0,0-1.045-.574Zm0,0" transform="translate(-183.873 -191.58)" fill="#231f20"/>
        <path id="Trazado_101838" data-name="Trazado 101838" d="M411.7,260.883h-8.6a.491.491,0,0,1-.491-.491V234.03a.491.491,0,0,1,.491-.491h8.6a.491.491,0,0,1,.491.491v26.362A.491.491,0,0,1,411.7,260.883Zm-8.112-.982H411.2v-25.38h-7.621Zm0,0" transform="translate(-363.112 -222.844)" fill="#231f20"/>
        <path id="Trazado_101839" data-name="Trazado 101839" d="M324.09,334.675h-8.6a.491.491,0,0,1-.491-.491V315.858a.491.491,0,0,1,.491-.491h8.6a.491.491,0,0,1,.491.491v18.326A.491.491,0,0,1,324.09,334.675Zm-8.112-.982H323.6V316.349h-7.621Zm0,0" transform="translate(-284.11 -296.636)" fill="#231f20"/>
        <path id="Trazado_101840" data-name="Trazado 101840" d="M236.488,390.777h-8.6a.491.491,0,0,1-.491-.491V378.069a.491.491,0,0,1,.491-.491h8.6a.491.491,0,0,1,.491.491v12.216A.491.491,0,0,1,236.488,390.777Zm-8.112-.982H236V378.56h-7.62Zm0,0" transform="translate(-205.111 -352.737)" fill="#231f20"/>
        <path id="Trazado_101841" data-name="Trazado 101841" d="M148.883,446.868h-8.6a.491.491,0,0,1-.491-.491v-6.108a.491.491,0,0,1,.491-.491h8.6a.491.491,0,0,1,.491.491v6.108A.491.491,0,0,1,148.883,446.868Zm-8.112-.982h7.621v-5.126h-7.621Zm0,0" transform="translate(-126.109 -408.828)" fill="#231f20"/>
        <path id="Trazado_101842" data-name="Trazado 101842" d="M67.047,502.959H59.073a.491.491,0,0,1,0-.982h7.974a.491.491,0,0,1,0,.982Zm0,0" transform="translate(-52.877 -464.919)" fill="#231f20"/>
        <path id="Trazado_101843" data-name="Trazado 101843" d="M20.976,502.959H19.241a.491.491,0,0,1,0-.982h1.735a.491.491,0,0,1,0,.982Zm0,0" transform="translate(-16.957 -464.919)" fill="#231f20"/>
      </g>
    </g>
    <rect id="Rectángulo_5307" data-name="Rectángulo 5307" width="69" height="69" transform="translate(759 2939)" fill="none"/>
  </g>
</svg>
