<svg xmlns="http://www.w3.org/2000/svg" width="69" height="69" viewBox="0 0 69 69">
  <g id="Grupo_57218" data-name="Grupo 57218" transform="translate(-984 -2939)">
    <g id="grupo_2_" data-name="grupo (2)" transform="translate(992 2947)">
      <path id="Trazado_101844" data-name="Trazado 101844" d="M308.629,155.1v-4.985a3.692,3.692,0,0,0-.709-2.185,3.745,3.745,0,0,0-1.852-1.366l-.709-.709.137-.145L311.19,144a2.774,2.774,0,0,0,5.122,0l6.1,1.827a3.424,3.424,0,0,1,2.433,3.278v6.847h-5.976V155.1a5.122,5.122,0,0,0-10.244,0Zm0,0" transform="translate(-272.774 -128.634)" fill="#ff826e"/>
      <path id="Trazado_101845" data-name="Trazado 101845" d="M24.22,152.2V155.1a5.122,5.122,0,0,0-10.244,0v.854H8v-6.847a3.424,3.424,0,0,1,2.433-3.278l6.1-1.827a3.158,3.158,0,0,0,2.561,1.707A3.158,3.158,0,0,0,21.659,144l5.4,1.622A9.012,9.012,0,0,0,24.22,152.2Zm0,0" transform="translate(-7.146 -128.634)" fill="#ff826e"/>
      <path id="Trazado_101846" data-name="Trazado 101846" d="M311.865,347.952H307.6a1.712,1.712,0,0,0-1.707,1.707v-5.318a5.122,5.122,0,0,0-3.97-4.985l-5.327-1.229-.034-.009a3.562,3.562,0,0,1,.666-.29l6.1-1.827a2.774,2.774,0,0,0,5.122,0l6.1,1.827a3.424,3.424,0,0,1,2.433,3.278v6.847Zm0,0" transform="translate(-264.913 -300.145)" fill="#b4dd7f"/>
      <path id="Trazado_101847" data-name="Trazado 101847" d="M28.4,338.126l-5.336,1.229a5.122,5.122,0,0,0-3.97,4.985v5.318a1.712,1.712,0,0,0-1.707-1.707H8v-6.847a3.424,3.424,0,0,1,2.433-3.278l6.1-1.827a3.158,3.158,0,0,0,2.561,1.707A3.158,3.158,0,0,0,21.659,336l6.1,1.827a3.562,3.562,0,0,1,.666.29Zm0,0" transform="translate(-7.146 -300.145)" fill="#b4dd7f"/>
      <path id="Trazado_101848" data-name="Trazado 101848" d="M117.976,366.513H112v-7.88a5.122,5.122,0,0,1,3.97-4.985l5.336-1.229L123.1,352h6.83l1.793.435.008-.017,5.327,1.229a5.122,5.122,0,0,1,3.97,4.985v7.88Zm0,0" transform="translate(-100.048 -314.438)" fill="#e6e9ed"/>
      <path id="Trazado_101849" data-name="Trazado 101849" d="M228.268,416l.854,7.683H224l.854-7.683Zm0,0" transform="translate(-200.097 -371.608)" fill="#ff826e"/>
      <path id="Trazado_101850" data-name="Trazado 101850" d="M228.557,377.579l-.077.128-.854,2.561h-3.415l-.854-2.561-.077-.128L225.919,376Zm0,0" transform="translate(-199.455 -335.877)" fill="#ff826e"/>
      <path id="Trazado_101851" data-name="Trazado 101851" d="M253.182,352.41l.034.009-.008.017-.939,4.687-1.631-.982L248,354.561,251.415,352Zm0,0" transform="translate(-221.536 -314.438)" fill="#ccd1d9"/>
      <path id="Trazado_101852" data-name="Trazado 101852" d="M199.225,352.41l1.767-.41,3.415,2.561-2.638,1.579-1.631.982-.939-4.7Zm0,0" transform="translate(-177.942 -314.438)" fill="#ccd1d9"/>
      <path id="Trazado_101853" data-name="Trazado 101853" d="M346.244,13.122v.854h-1.357a2.915,2.915,0,0,1-2.058-.854,2.914,2.914,0,0,1-2.058.854H336v-.854a5.122,5.122,0,1,1,10.244,0Zm0,0" transform="translate(-300.145 -7.146)" fill="#b27946"/>
      <path id="Trazado_101854" data-name="Trazado 101854" d="M74.244,13.976H69.472a2.915,2.915,0,0,1-2.058-.854,2.915,2.915,0,0,1-2.058.854H64v-.854a5.122,5.122,0,0,1,10.244,0Zm0,0" transform="translate(-57.17 -7.146)" fill="#b27946"/>
      <path id="Trazado_101855" data-name="Trazado 101855" d="M360,121.52a5.088,5.088,0,0,0,5.122,0v2.4a2.774,2.774,0,0,1-5.122,0Zm0,0" transform="translate(-321.584 -108.552)" fill="#f0d0b4"/>
      <path id="Trazado_101856" data-name="Trazado 101856" d="M343.683,62.992a5.088,5.088,0,0,1-5.122,0A5.108,5.108,0,0,1,336,58.561V56.854h4.772A2.914,2.914,0,0,0,342.829,56a2.915,2.915,0,0,0,2.058.854h1.357v1.707a5.075,5.075,0,0,1-1.5,3.62A4.918,4.918,0,0,1,343.683,62.992Zm0,0" transform="translate(-300.145 -50.024)" fill="#f0d0b4"/>
      <path id="Trazado_101857" data-name="Trazado 101857" d="M88,121.52l2.561.692a5,5,0,0,0,2.561-.692v2.4a2.774,2.774,0,0,1-5.122,0Zm0,0" transform="translate(-78.609 -108.552)" fill="#f0d0b4"/>
      <path id="Trazado_101858" data-name="Trazado 101858" d="M71.683,62.992a5,5,0,0,1-2.561.692l-2.561-.692a4.918,4.918,0,0,1-1.059-.811,5.075,5.075,0,0,1-1.5-3.62V56.854h1.357A2.915,2.915,0,0,0,67.415,56a2.915,2.915,0,0,0,2.058.854h4.772v1.707A5.108,5.108,0,0,1,71.683,62.992Zm0,0" transform="translate(-57.17 -50.024)" fill="#f0d0b4"/>
      <path id="Trazado_101859" data-name="Trazado 101859" d="M339.415,205.122a2.915,2.915,0,0,1-2.058.854H336v-.854a5.122,5.122,0,1,1,10.244,0v.854h-4.772A2.915,2.915,0,0,1,339.415,205.122Zm0,0" transform="translate(-300.145 -178.658)" fill="#b27946"/>
      <path id="Trazado_101860" data-name="Trazado 101860" d="M72.887,205.976a2.915,2.915,0,0,1-2.058-.854,2.915,2.915,0,0,1-2.058.854H64v-.854a5.122,5.122,0,0,1,10.244,0v.854Zm0,0" transform="translate(-57.17 -178.658)" fill="#b27946"/>
      <path id="Trazado_101861" data-name="Trazado 101861" d="M162.843,138.476a9.036,9.036,0,0,1,9.681-1.784,9.14,9.14,0,0,1,2.937,1.963l.76.76a3.745,3.745,0,0,1,1.852,1.366,3.692,3.692,0,0,1,.709,2.186v6.693c0-.111-.008-.222-.017-.333a3.493,3.493,0,0,0-3.4-3.073.846.846,0,0,0-.145-.008h-1.562l-.854-1.707a10.2,10.2,0,0,1-5.643,1.707h-3.6a.846.846,0,0,0-.145.008,3.493,3.493,0,0,0-3.4,3.073c-.009.111-.017.222-.017.333v-4.6A9.012,9.012,0,0,1,162.843,138.476Zm0,0" transform="translate(-142.926 -121.487)" fill="#fcd770"/>
      <g id="Grupo_57217" data-name="Grupo 57217" transform="translate(6.83 23.05)">
        <path id="Trazado_101862" data-name="Trazado 101862" d="M360,313.52a5.088,5.088,0,0,0,5.122,0v2.4a2.774,2.774,0,0,1-5.122,0Zm0,0" transform="translate(-328.414 -303.113)" fill="#f0d0b4"/>
        <path id="Trazado_101863" data-name="Trazado 101863" d="M88,313.52l2.561.692a5,5,0,0,0,2.561-.692v2.4a2.774,2.774,0,0,1-5.122,0Zm0,0" transform="translate(-85.439 -303.113)" fill="#f0d0b4"/>
        <path id="Trazado_101864" data-name="Trazado 101864" d="M71.683,254.992a5,5,0,0,1-2.561.692l-2.561-.692a4.917,4.917,0,0,1-1.059-.811,5.075,5.075,0,0,1-1.5-3.62v-1.707h4.772A2.915,2.915,0,0,0,70.83,248a2.915,2.915,0,0,0,2.058.854h1.357v1.707A5.108,5.108,0,0,1,71.683,254.992Zm0,0" transform="translate(-64 -244.585)" fill="#f0d0b4"/>
        <path id="Trazado_101865" data-name="Trazado 101865" d="M338.561,254.992A5.108,5.108,0,0,1,336,250.561v-1.707h1.357a2.915,2.915,0,0,0,2.058-.854,2.915,2.915,0,0,0,2.058.854h4.772v1.707a5.075,5.075,0,0,1-1.5,3.62,4.917,4.917,0,0,1-1.059.811,5.088,5.088,0,0,1-5.122,0Zm0,0" transform="translate(-306.975 -244.585)" fill="#f0d0b4"/>
        <path id="Trazado_101866" data-name="Trazado 101866" d="M216,329.2v-2.561l.077-.162c2.519.973,2.928,1.016,3.338,1.016a5.951,5.951,0,0,0,3.338-1.016l.077.162V329.2l-3.415,2.561Zm0,0" transform="translate(-199.78 -314.691)" fill="#f0d0b4"/>
        <path id="Trazado_101867" data-name="Trazado 101867" d="M305.485,235.485v.008a3.412,3.412,0,0,1-3.415,3.406l-.231-.06a5.819,5.819,0,0,0,.231-1.648v-5.114a3.493,3.493,0,0,1,3.4,3.073C305.477,235.263,305.485,235.374,305.485,235.485Zm0,0" transform="translate(-276.46 -230.362)" fill="#f0d0b4"/>
        <path id="Trazado_101868" data-name="Trazado 101868" d="M163.415,237.192a5.818,5.818,0,0,0,.231,1.648l-.231.06A3.412,3.412,0,0,1,160,235.493v-.008c0-.111.008-.222.017-.333a3.493,3.493,0,0,1,3.4-3.073Zm0,0" transform="translate(-149.756 -230.362)" fill="#f0d0b4"/>
        <path id="Trazado_101869" data-name="Trazado 101869" d="M203.952,217.716v5.114a5.819,5.819,0,0,1-.231,1.648,5.967,5.967,0,0,1-5.745,4.328c-.41,0-.82-.043-3.338-1.016a6.191,6.191,0,0,1-.888-.734,5.946,5.946,0,0,1-1.519-2.578A5.818,5.818,0,0,1,192,222.83v-5.114a.848.848,0,0,1,.145-.008h3.6A10.2,10.2,0,0,0,201.391,216l.854,1.707h1.562A.848.848,0,0,1,203.952,217.716Zm0,0" transform="translate(-178.341 -216)" fill="#f0d0b4"/>
      </g>
      <path id="Trazado_101870" data-name="Trazado 101870" d="M52.929,27.318v-6.85a4.242,4.242,0,0,0-3.042-4.088l-5.5-1.649v-1.3a5.969,5.969,0,0,0,2.561-4.9V5.976A5.976,5.976,0,1,0,35,5.976V8.537a5.967,5.967,0,0,0,2.561,4.9v1.3l-4.843,1.453a9.866,9.866,0,0,0-13.011-.149l-4.342-1.3v-1.3a5.969,5.969,0,0,0,2.561-4.9V5.976a5.976,5.976,0,1,0-11.952,0V8.537a5.967,5.967,0,0,0,2.561,4.9v1.3l-5.5,1.649A4.244,4.244,0,0,0,0,20.468v6.85H1.707v-6.85a2.544,2.544,0,0,1,1.825-2.453l5.5-1.649a3.713,3.713,0,0,0,2.922,1.561,3.713,3.713,0,0,0,2.922-1.561l3.5,1.05a9.854,9.854,0,0,0-2.076,4.96A5.968,5.968,0,0,0,5.976,26.464v2.561a5.967,5.967,0,0,0,2.561,4.9v1.3l-5.5,1.649A4.244,4.244,0,0,0,0,40.957v7.7H10.244a.855.855,0,0,1,.854.854v3.415H41.831V49.514a.855.855,0,0,1,.854-.854H52.929v-7.7a4.242,4.242,0,0,0-3.042-4.088l-5.5-1.649v-1.3a5.969,5.969,0,0,0,2.561-4.9V26.465a5.971,5.971,0,0,0-10.244-4.175v-.809a4.591,4.591,0,0,0-2.346-4.006l3.692-1.108a3.515,3.515,0,0,0,5.844,0l5.5,1.649a2.544,2.544,0,0,1,1.825,2.453v6.85ZM11.952,1.707A4.273,4.273,0,0,1,16.22,5.976H12.305a2.075,2.075,0,0,1-1.457-.6l-.6-.6-.6.6a2.075,2.075,0,0,1-1.457.6h-.5A4.273,4.273,0,0,1,11.952,1.707ZM7.683,8.537V7.683h.5a3.739,3.739,0,0,0,2.061-.612,3.739,3.739,0,0,0,2.061.612H16.22v.854a4.268,4.268,0,0,1-8.537,0Zm4.268,7.683a2.184,2.184,0,0,1-1.707-1.088v-.87a5.925,5.925,0,0,0,3.415,0v.87A2.181,2.181,0,0,1,11.952,16.22ZM35.418,31.2a6,6,0,0,0,2.145,2.719v1.3l-5.494,1.649a4.191,4.191,0,0,0-.529.2l-.807-.186V35.2a6.865,6.865,0,0,0,2.073-2.8A4.251,4.251,0,0,0,35.418,31.2Zm-8.953,5.5a6.783,6.783,0,0,0,2.561-.5v.93l-2.561,1.921L23.9,37.135v-.93A6.783,6.783,0,0,0,26.464,36.709Zm-3.609,1.775,2.081,1.561L22.8,41.33l-.541-2.707Zm2.666,6.762h1.887l.664,5.976H24.857Zm2.035-1.707H25.372l-.49-1.47,1.583-.949,1.582.949Zm.436-3.493,2.081-1.561.6.138-.541,2.707Zm6.343-10.15a2.56,2.56,0,0,1-1.078.69,6.924,6.924,0,0,0,.037-.705V25.794a2.578,2.578,0,0,1,1.694,2.123A2.547,2.547,0,0,1,34.336,29.895Zm-2.749-.015a5.122,5.122,0,0,1-10.244,0V25.611h2.9a10.979,10.979,0,0,0,5.289-1.351l.675,1.351h1.381Zm-11.915.705a2.524,2.524,0,0,1-.037-4.789v4.084A6.923,6.923,0,0,0,19.672,30.584Zm.451,1.817A6.85,6.85,0,0,0,22.2,35.2v1.682l-.807.186a4.418,4.418,0,0,0-.528-.2l-5.5-1.649v-1.3A6.007,6.007,0,0,0,17.511,31.2,4.251,4.251,0,0,0,20.123,32.4ZM11.952,22.2a4.273,4.273,0,0,1,4.268,4.268h-.5a2.075,2.075,0,0,1-1.457-.6l-.6-.6-.6.6a2.075,2.075,0,0,1-1.457.6H7.683A4.273,4.273,0,0,1,11.952,22.2Zm-4.268,6.83v-.854H11.6a3.739,3.739,0,0,0,2.061-.612,3.739,3.739,0,0,0,2.061.612h.5v.854a4.268,4.268,0,1,1-8.537,0ZM11.952,35a5.94,5.94,0,0,0,1.707-.252v.87a2.181,2.181,0,0,1-1.707,1.089,2.184,2.184,0,0,1-1.707-1.088v-.87A5.968,5.968,0,0,0,11.952,35ZM10.244,46.953H6.83V40.977H5.122v5.976H1.707v-6A2.544,2.544,0,0,1,3.533,38.5l5.5-1.649a3.713,3.713,0,0,0,2.922,1.561,3.713,3.713,0,0,0,2.922-1.561l3.237.972-2.381.549A5.949,5.949,0,0,0,11.1,44.2v1.048h1.707V44.2a4.25,4.25,0,0,1,3.309-4.159l4.475-1.033L21.6,44.039l1.786-1.071.505,1.516-.748,6.737H18.781v-6.83H17.074v6.83H12.805V49.514A2.564,2.564,0,0,0,10.244,46.953ZM49.4,38.5a2.544,2.544,0,0,1,1.825,2.453v6H47.807V40.977H46.1v5.976H42.684a2.564,2.564,0,0,0-2.561,2.561v1.707H35.855v-6.83H34.148v6.83H29.789l-.749-6.737.505-1.516,1.786,1.071,1.006-5.033,4.476,1.033A4.25,4.25,0,0,1,40.123,44.2v1.048h1.707V44.2A5.949,5.949,0,0,0,37.2,38.375l-2.381-.549,3.237-.972a3.515,3.515,0,0,0,5.844,0ZM42.684,35.62a1.883,1.883,0,0,1-3.415,0v-.871a5.915,5.915,0,0,0,3.415,0Zm-1.707-2.326a4.273,4.273,0,0,1-4.268-4.268v-.854h.5a3.739,3.739,0,0,0,2.061-.612,3.739,3.739,0,0,0,2.061.612h3.915v.854A4.273,4.273,0,0,1,40.977,33.294Zm0-11.1a4.273,4.273,0,0,1,4.268,4.268H41.331a2.075,2.075,0,0,1-1.457-.6l-.6-.6-.6.6a2.075,2.075,0,0,1-1.457.6h-.5A4.273,4.273,0,0,1,40.977,22.2ZM35,24.83a4.485,4.485,0,0,0-2.708-.926H31.261l-1.05-2.1-.8.536A9.281,9.281,0,0,1,24.241,23.9H20.635a4.485,4.485,0,0,0-2.708.926V23.567a8.2,8.2,0,0,1,14-5.8l.906.906.191.064A2.888,2.888,0,0,1,35,21.481ZM40.977,1.707a4.273,4.273,0,0,1,4.268,4.268h-.5a2.075,2.075,0,0,1-1.457-.6l-.6-.6-.6.6a2.075,2.075,0,0,1-1.457.6H36.709A4.273,4.273,0,0,1,40.977,1.707Zm-4.268,6.83V7.683h3.915a3.739,3.739,0,0,0,2.061-.612,3.739,3.739,0,0,0,2.061.612h.5v.854a4.268,4.268,0,1,1-8.537,0Zm4.268,7.683a2.183,2.183,0,0,1-1.707-1.088v-.871a5.915,5.915,0,0,0,3.415,0v.87A2.181,2.181,0,0,1,40.977,16.22Zm0,0"/>
      <path id="Trazado_101871" data-name="Trazado 101871" d="M184,0h1.707V1.707H184Zm0,0" transform="translate(-164.365)"/>
      <path id="Trazado_101872" data-name="Trazado 101872" d="M184,32h1.707v9.391H184Zm0,0" transform="translate(-164.365 -28.585)"/>
      <path id="Trazado_101873" data-name="Trazado 101873" d="M296,0h1.707V1.707H296Zm0,0" transform="translate(-264.414)"/>
      <path id="Trazado_101874" data-name="Trazado 101874" d="M296,32h1.707v9.391H296Zm0,0" transform="translate(-264.414 -28.585)"/>
      <path id="Trazado_101875" data-name="Trazado 101875" d="M216,32h1.707v5.976H216Zm0,0" transform="translate(-192.95 -28.585)"/>
      <path id="Trazado_101876" data-name="Trazado 101876" d="M216,104h1.707v1.707H216Zm0,0" transform="translate(-192.95 -92.902)"/>
      <path id="Trazado_101877" data-name="Trazado 101877" d="M264,32h1.707v5.976H264Zm0,0" transform="translate(-235.828 -28.585)"/>
      <path id="Trazado_101878" data-name="Trazado 101878" d="M264,104h1.707v1.707H264Zm0,0" transform="translate(-235.828 -92.902)"/>
    </g>
    <rect id="Rectángulo_5307" data-name="Rectángulo 5307" width="69" height="69" transform="translate(984 2939)" fill="none"/>
  </g>
</svg>
