<svg xmlns="http://www.w3.org/2000/svg" width="69" height="69" viewBox="0 0 69 69">
  <g id="Grupo_57220" data-name="Grupo 57220" transform="translate(-1242 -2939)">
    <g id="grupo" transform="translate(1254 2950.797)">
      <path id="Trazado_101553" data-name="Trazado 101553" d="M22.66,88.94H14.007a.681.681,0,0,1-.681-.681v-1.91a5.008,5.008,0,0,1,5.008-5.008h0a5.008,5.008,0,0,1,5.008,5.008v1.91A.681.681,0,0,1,22.66,88.94Z" transform="translate(-12.159 -74.034)" fill="#c3da40"/>
      <path id="Trazado_101554" data-name="Trazado 101554" d="M130.649,249.283A4.293,4.293,0,0,1,128.8,247.1a4.461,4.461,0,0,1-2.687-4.139,4.412,4.412,0,0,1,4.335-4.475h5.517a4.477,4.477,0,0,1,0,8.95h-4.278a4.3,4.3,0,0,0,.044,1.143l.2,1.169a.187.187,0,0,1-.287.187Z" transform="translate(-115.069 -217.422)" fill="#ff62a7"/>
      <path id="Trazado_101555" data-name="Trazado 101555" d="M167.247,242.962a4.412,4.412,0,0,0-4.335-4.475h-5.517a4.193,4.193,0,0,0-1.749.382,7.113,7.113,0,0,0,7.128,6.6H166.5A4.551,4.551,0,0,0,167.247,242.962Z" transform="translate(-142.019 -217.422)" fill="#fc5479"/>
      <path id="Trazado_101556" data-name="Trazado 101556" d="M195.226,192.893a5.247,5.247,0,0,0,.12-1.735H189.99a5.489,5.489,0,1,1-.083-10.978h6.924A5.539,5.539,0,0,1,202.4,185.6a5.469,5.469,0,0,1-3.407,5.145,5.827,5.827,0,0,1-2.728,2.911l-1.028.593a.187.187,0,0,1-.275-.2Z" transform="translate(-168.272 -164.22)" fill="#31d2f7"/>
      <path id="Trazado_101557" data-name="Trazado 101557" d="M188.9,187.245a5.5,5.5,0,0,1,5.488-5.574h6.243a5.6,5.6,0,0,0-3.806-1.491h-6.924a5.489,5.489,0,1,0,.083,10.978h.677A5.425,5.425,0,0,1,188.9,187.245Z" transform="translate(-168.271 -164.22)" fill="#13ace8"/>
      <path id="Trazado_101558" data-name="Trazado 101558" d="M393.143,88.94H384.49a.681.681,0,0,1-.681-.681v-1.91a5.008,5.008,0,0,1,5.008-5.008h0a5.008,5.008,0,0,1,5.008,5.008v1.91A.681.681,0,0,1,393.143,88.94Z" transform="translate(-350.207 -74.034)" fill="#ffcf59"/>
      <path id="Trazado_101559" data-name="Trazado 101559" d="M22.66,394.468H14.007a.681.681,0,0,1-.681-.681v-1.91a5.008,5.008,0,0,1,5.008-5.008h0a5.008,5.008,0,0,1,5.008,5.008v1.91A.681.681,0,0,1,22.66,394.468Z" transform="translate(-12.159 -352.814)" fill="#ff62a7"/>
      <path id="Trazado_101560" data-name="Trazado 101560" d="M393.143,394.468H384.49a.681.681,0,0,1-.681-.681v-1.91a5.008,5.008,0,0,1,5.008-5.008h0a5.008,5.008,0,0,1,5.008,5.008v1.91A.681.681,0,0,1,393.143,394.468Z" transform="translate(-350.207 -352.814)" fill="#31d2f7"/>
      <path id="Trazado_101561" data-name="Trazado 101561" d="M17.173,88.259v-1.91a5.009,5.009,0,0,1,3.084-4.624,4.992,4.992,0,0,0-1.924-.384h0a5.008,5.008,0,0,0-5.008,5.008v1.91a.681.681,0,0,0,.681.681h3.848A.681.681,0,0,1,17.173,88.259Z" transform="translate(-12.158 -74.034)" fill="#adbc15"/>
      <path id="Trazado_101562" data-name="Trazado 101562" d="M387.655,88.259v-1.91a5.009,5.009,0,0,1,3.084-4.624,4.992,4.992,0,0,0-1.924-.384h0a5.008,5.008,0,0,0-5.008,5.008v1.91a.681.681,0,0,0,.681.681h3.848A.681.681,0,0,1,387.655,88.259Z" transform="translate(-350.205 -74.034)" fill="#ffb55c"/>
      <path id="Trazado_101563" data-name="Trazado 101563" d="M17.173,393.787v-1.91a5.009,5.009,0,0,1,3.084-4.624,4.993,4.993,0,0,0-1.924-.384h0a5.008,5.008,0,0,0-5.008,5.008v1.91a.681.681,0,0,0,.681.681h3.848A.681.681,0,0,1,17.173,393.787Z" transform="translate(-12.158 -352.814)" fill="#fc5479"/>
      <path id="Trazado_101564" data-name="Trazado 101564" d="M387.655,393.787v-1.91a5.009,5.009,0,0,1,3.084-4.624,4.994,4.994,0,0,0-1.924-.384h0a5.008,5.008,0,0,0-5.008,5.008v1.91a.681.681,0,0,0,.681.681h3.848A.681.681,0,0,1,387.655,393.787Z" transform="translate(-350.205 -352.814)" fill="#13ace8"/>
      <g id="Grupo_57155" data-name="Grupo 57155" transform="translate(2.886 3.667)">
        <path id="Trazado_101565" data-name="Trazado 101565" d="M36.209,46.261a3.245,3.245,0,1,1,3.245-3.245A3.249,3.249,0,0,1,36.209,46.261Z" transform="translate(-32.964 -39.771)" fill="#fad393"/>
        <path id="Trazado_101566" data-name="Trazado 101566" d="M406.691,46.261a3.245,3.245,0,1,1,3.245-3.245A3.249,3.249,0,0,1,406.691,46.261Z" transform="translate(-371.011 -39.771)" fill="#fad393"/>
        <path id="Trazado_101567" data-name="Trazado 101567" d="M36.209,351.79a3.245,3.245,0,1,1,3.245-3.245A3.249,3.249,0,0,1,36.209,351.79Z" transform="translate(-32.964 -318.551)" fill="#fad393"/>
        <path id="Trazado_101568" data-name="Trazado 101568" d="M406.691,351.79a3.245,3.245,0,1,1,3.245-3.245A3.249,3.249,0,0,1,406.691,351.79Z" transform="translate(-371.011 -318.551)" fill="#fad393"/>
      </g>
      <g id="Grupo_57156" data-name="Grupo 57156" transform="translate(2.886 3.667)">
        <path id="Trazado_101569" data-name="Trazado 101569" d="M36.028,43.016a3.248,3.248,0,0,1,1.713-2.86,3.245,3.245,0,1,0,0,5.719A3.247,3.247,0,0,1,36.028,43.016Z" transform="translate(-32.963 -39.771)" fill="#edb769"/>
        <path id="Trazado_101570" data-name="Trazado 101570" d="M406.511,43.016a3.248,3.248,0,0,1,1.713-2.86,3.245,3.245,0,1,0,0,5.719A3.247,3.247,0,0,1,406.511,43.016Z" transform="translate(-371.01 -39.771)" fill="#edb769"/>
        <path id="Trazado_101571" data-name="Trazado 101571" d="M36.028,348.545a3.248,3.248,0,0,1,1.713-2.86,3.245,3.245,0,1,0,0,5.719A3.248,3.248,0,0,1,36.028,348.545Z" transform="translate(-32.963 -318.551)" fill="#edb769"/>
        <path id="Trazado_101572" data-name="Trazado 101572" d="M406.511,348.545a3.248,3.248,0,0,1,1.713-2.86,3.245,3.245,0,1,0,0,5.719A3.248,3.248,0,0,1,406.511,348.545Z" transform="translate(-371.01 -318.551)" fill="#edb769"/>
      </g>
      <path id="Trazado_101573" data-name="Trazado 101573" d="M124.261,23.133a.727.727,0,0,0,.365-.1,20.948,20.948,0,0,1,2.173-1.1.729.729,0,0,0-.58-1.338,22.417,22.417,0,0,0-2.325,1.174.729.729,0,0,0,.367,1.36Z" transform="translate(-112.716 -18.555)"/>
      <path id="Trazado_101574" data-name="Trazado 101574" d="M290.884,5.3a20.9,20.9,0,0,1,2.371.556.729.729,0,0,0,.415-1.4,22.368,22.368,0,0,0-2.537-.595.729.729,0,0,0-.249,1.437Z" transform="translate(-264.865 -3.33)"/>
      <path id="Trazado_101575" data-name="Trazado 101575" d="M233.609,1.7h.044c.414-.024.834-.037,1.25-.037h0c.395,0,.794.011,1.185.033a.729.729,0,1,0,.081-1.456C235.752.215,235.326.2,234.9.2h0c-.444,0-.893.013-1.335.039a.729.729,0,0,0,.042,1.457Z" transform="translate(-212.492)"/>
      <path id="Trazado_101576" data-name="Trazado 101576" d="M489.162,190.273a.729.729,0,0,0-.54.878,20.994,20.994,0,0,1,.425,2.4.729.729,0,1,0,1.448-.17,22.409,22.409,0,0,0-.455-2.566A.729.729,0,0,0,489.162,190.273Z" transform="translate(-445.825 -173.411)"/>
      <path id="Trazado_101577" data-name="Trazado 101577" d="M480.516,307.874a.729.729,0,1,0,1.371.5,22.341,22.341,0,0,0,.747-2.5.729.729,0,1,0-1.42-.335A20.908,20.908,0,0,1,480.516,307.874Z" transform="translate(-438.407 -278.091)"/>
      <path id="Trazado_101578" data-name="Trazado 101578" d="M345.84,21.628a20.964,20.964,0,0,1,2.179,1.091.729.729,0,1,0,.728-1.264,22.4,22.4,0,0,0-2.331-1.168.729.729,0,1,0-.576,1.34Z" transform="translate(-315.159 -18.272)"/>
      <path id="Trazado_101579" data-name="Trazado 101579" d="M7.236,305.254a.729.729,0,0,0-.541.878,22.331,22.331,0,0,0,.749,2.5.729.729,0,0,0,1.37-.5,20.882,20.882,0,0,1-.7-2.333A.729.729,0,0,0,7.236,305.254Z" transform="translate(-6.09 -278.326)"/>
      <path id="Trazado_101580" data-name="Trazado 101580" d="M177,6.031a.728.728,0,0,0,.21-.031,20.9,20.9,0,0,1,2.369-.563A.729.729,0,1,0,179.321,4a22.353,22.353,0,0,0-2.536.6A.729.729,0,0,0,177,6.031Z" transform="translate(-160.834 -3.454)"/>
      <path id="Trazado_101581" data-name="Trazado 101581" d="M494.564,247.347a.729.729,0,0,0-.729.729v.046a21.28,21.28,0,0,1-.14,2.433.729.729,0,1,0,1.449.168,22.73,22.73,0,0,0,.149-2.6v-.046A.729.729,0,0,0,494.564,247.347Z" transform="translate(-450.468 -225.507)"/>
      <path id="Trazado_101582" data-name="Trazado 101582" d="M265.3,491.811a21.1,21.1,0,0,1-2.42.281.729.729,0,0,0,.042,1.457h.043a22.512,22.512,0,0,0,2.588-.3.729.729,0,1,0-.252-1.436Z" transform="translate(-239.242 -448.558)"/>
      <path id="Trazado_101583" data-name="Trazado 101583" d="M208.074,492.135a21.1,21.1,0,0,1-2.42-.279.729.729,0,1,0-.251,1.437,22.547,22.547,0,0,0,2.588.3h.042a.729.729,0,0,0,.041-1.457Z" transform="translate(-186.869 -448.599)"/>
      <path id="Trazado_101584" data-name="Trazado 101584" d="M153,476.3a20.843,20.843,0,0,1-2.29-.832.729.729,0,0,0-.577,1.339,22.333,22.333,0,0,0,2.451.89.729.729,0,1,0,.417-1.4Z" transform="translate(-136.59 -433.601)"/>
      <path id="Trazado_101585" data-name="Trazado 101585" d="M2.265,194.959a.728.728,0,0,0,.807-.641,20.96,20.96,0,0,1,.418-2.4.729.729,0,0,0-1.42-.333,22.444,22.444,0,0,0-.447,2.567A.729.729,0,0,0,2.265,194.959Z" transform="translate(-1.476 -174.112)"/>
      <path id="Trazado_101586" data-name="Trazado 101586" d="M321.627,475.37a20.9,20.9,0,0,1-2.288.834.729.729,0,1,0,.419,1.4,22.361,22.361,0,0,0,2.449-.893.729.729,0,0,0-.579-1.339Z" transform="translate(-290.906 -433.511)"/>
      <path id="Trazado_101587" data-name="Trazado 101587" d="M.961,252.106a.729.729,0,0,0,.64-.809,21.263,21.263,0,0,1-.142-2.433.729.729,0,0,0-.729-.729h0a.729.729,0,0,0-.728.73,22.731,22.731,0,0,0,.152,2.6.729.729,0,0,0,.723.645A.748.748,0,0,0,.961,252.106Z" transform="translate(0 -226.227)"/>
      <path id="Trazado_101588" data-name="Trazado 101588" d="M6.252,45.192h8.426a1.552,1.552,0,0,0,1.55-1.55V41.885a5.266,5.266,0,0,0-.282-1.7A.658.658,0,1,0,14.7,40.6a3.954,3.954,0,0,1,.211,1.28v1.757a.234.234,0,0,1-.234.234H6.252a.234.234,0,0,1-.234-.234V41.885a3.968,3.968,0,0,1,1.319-2.951,3.851,3.851,0,1,0-.61-1.2A5.284,5.284,0,0,0,4.7,41.885v1.757A1.552,1.552,0,0,0,6.252,45.192Zm4.17-11.118a2.543,2.543,0,1,1-2.543,2.543A2.546,2.546,0,0,1,10.421,34.074Z" transform="translate(-4.29 -29.705)"/>
      <path id="Trazado_101589" data-name="Trazado 101589" d="M375.652,41.886v1.757a1.552,1.552,0,0,0,1.55,1.55h8.426a1.552,1.552,0,0,0,1.55-1.55V41.886a5.265,5.265,0,0,0-.282-1.7.658.658,0,1,0-1.245.425,3.957,3.957,0,0,1,.211,1.28v1.757a.234.234,0,0,1-.234.234H377.2a.234.234,0,0,1-.234-.234V41.886a3.968,3.968,0,0,1,1.319-2.951,3.851,3.851,0,1,0-.61-1.2A5.283,5.283,0,0,0,375.652,41.886Zm5.719-7.811a2.543,2.543,0,1,1-2.543,2.543A2.546,2.546,0,0,1,381.371,34.075Z" transform="translate(-342.764 -29.706)"/>
      <path id="Trazado_101590" data-name="Trazado 101590" d="M386.061,344.639a.658.658,0,0,0-.41.835,3.956,3.956,0,0,1,.211,1.28v1.757a.234.234,0,0,1-.234.234H377.2a.234.234,0,0,1-.234-.234v-1.757a3.968,3.968,0,0,1,1.319-2.951,3.85,3.85,0,1,0-.61-1.2,5.284,5.284,0,0,0-2.025,4.154v1.757a1.552,1.552,0,0,0,1.55,1.55h8.426a1.552,1.552,0,0,0,1.55-1.55v-1.757a5.265,5.265,0,0,0-.282-1.7A.658.658,0,0,0,386.061,344.639Zm-4.689-5.7a2.543,2.543,0,1,1-2.543,2.544A2.546,2.546,0,0,1,381.371,338.943Z" transform="translate(-342.764 -307.883)"/>
      <path id="Trazado_101591" data-name="Trazado 101591" d="M15.111,344.639a.658.658,0,0,0-.41.835,3.953,3.953,0,0,1,.211,1.28v1.757a.234.234,0,0,1-.234.234H6.252a.234.234,0,0,1-.234-.234v-1.757A3.968,3.968,0,0,1,7.337,343.8a3.85,3.85,0,1,0-.61-1.2A5.284,5.284,0,0,0,4.7,346.754v1.757a1.552,1.552,0,0,0,1.55,1.55h8.426a1.552,1.552,0,0,0,1.55-1.55v-1.757a5.265,5.265,0,0,0-.282-1.7A.658.658,0,0,0,15.111,344.639Zm-4.689-5.7a2.543,2.543,0,1,1-2.543,2.544A2.546,2.546,0,0,1,10.421,338.943Z" transform="translate(-4.29 -307.883)"/>
      <path id="Trazado_101592" data-name="Trazado 101592" d="M137.306,173.165h-7a6.112,6.112,0,0,0-6.02,5.1h-.239a5.026,5.026,0,0,0-4.949,5.089,5.082,5.082,0,0,0,2.813,4.591c.845,2.046,3.48,3.027,3.6,3.07a.658.658,0,0,0,.824-.89,4.762,4.762,0,0,1-.445-1.681h3.677a4.954,4.954,0,0,0,4.545-3.077h1.048a5.718,5.718,0,0,1-.584,2.272.658.658,0,0,0,.815.9c.146-.052,3.467-1.249,4.487-3.737a6.1,6.1,0,0,0-2.566-11.641Zm1.8,10.54a.647.647,0,0,0-.376.4,5.113,5.113,0,0,1-2.42,2.546,5.909,5.909,0,0,0,.13-2.006.66.66,0,0,0-.654-.589H130.3a4.752,4.752,0,0,1-1.783-.346.654.654,0,0,0-.709.141l-.009.009a.653.653,0,0,0,.219,1.067,6.062,6.062,0,0,0,2.283.444h2.329a3.6,3.6,0,0,1-3.071,1.761h-4.318a.656.656,0,0,0-.653.581,4.964,4.964,0,0,0,.045,1.381,3.727,3.727,0,0,1-1.571-1.811.68.68,0,0,0-.378-.425,3.761,3.761,0,0,1-2.275-3.5,3.709,3.709,0,0,1,3.633-3.773h.164a6.052,6.052,0,0,0,.431,1.955.653.653,0,0,0,1.068.221l.01-.01a.653.653,0,0,0,.142-.706,4.758,4.758,0,0,1-.342-1.884,4.832,4.832,0,0,1,4.854-4.681h6.853a4.867,4.867,0,0,1,4.868,4.8A4.769,4.769,0,0,1,139.1,183.7Z" transform="translate(-108.67 -157.819)"/>
    </g>
    <rect id="Rectángulo_5307" data-name="Rectángulo 5307" width="69" height="69" transform="translate(1242 2939)" fill="none"/>
  </g>
</svg>
