<svg xmlns="http://www.w3.org/2000/svg" width="103" height="103" viewBox="0 0 103 103">
  <g id="Grupo_57163" data-name="Grupo 57163" transform="translate(-1153 -4216)">
    <circle id="Elipse_1408" data-name="Elipse 1408" cx="51.5" cy="51.5" r="51.5" transform="translate(1153 4216)" fill="#9ddfd3"/>
    <g id="mobile-app" transform="translate(1166.951 4230.951)">
      <ellipse id="Elipse_1409" data-name="Elipse 1409" cx="2" cy="2.5" rx="2" ry="2.5" transform="translate(10.049 51.049)" fill="#ff826e"/>
      <circle id="Elipse_1410" data-name="Elipse 1410" cx="2.5" cy="2.5" r="2.5" transform="translate(61.049 15.049)" fill="#ff826e"/>
      <path id="Trazado_101509" data-name="Trazado 101509" d="M18.705,37.144v7.584H12.023l-.757-3.018c-.111-.045-.223-.078-.334-.134l-2.651,1.6L3.548,38.448l1.6-2.651c-.056-.111-.089-.223-.134-.334L2,34.705V28.023l3.018-.757c.045-.111.078-.223.134-.334l-1.6-2.651,4.733-4.733,2.651,1.6c.111-.056.223-.089.334-.134L12.023,18h6.682v7.584a6.682,6.682,0,1,0,0,11.56Z" transform="translate(0.114 1.933)" fill="#ffc729"/>
      <path id="Trazado_101510" data-name="Trazado 101510" d="M54.866,54v4.455a4.454,4.454,0,0,1-4.455,4.455H21.455A4.454,4.454,0,0,1,17,58.455V54Z" transform="translate(1.819 6.026)" fill="#aab2bd"/>
      <path id="Trazado_101511" data-name="Trazado 101511" d="M54.866,6.455V10.91H17V6.455A4.454,4.454,0,0,1,21.455,2H50.411A4.454,4.454,0,0,1,54.866,6.455Z" transform="translate(1.819 0.114)" fill="#aab2bd"/>
      <path id="Trazado_101512" data-name="Trazado 101512" d="M17,10H54.866V59H17Z" transform="translate(1.819 1.023)" fill="#69d6f4"/>
      <path id="Trazado_101513" data-name="Trazado 101513" d="M21,14H49.956V54.093H21Z" transform="translate(2.274 1.478)" fill="#ffeaa7"/>
      <path id="Trazado_101514" data-name="Trazado 101514" d="M25,18H45.047V31.364H25Z" transform="translate(2.729 1.933)" fill="#ff826e"/>
      <circle id="Elipse_1411" data-name="Elipse 1411" cx="14.5" cy="14.5" r="14.5" transform="translate(40.049 22.049)" fill="#e6e9ed"/>
      <path id="Trazado_101515" data-name="Trazado 101515" d="M52.364,48.334a14.933,14.933,0,0,1-4.455,0A14.438,14.438,0,0,1,39,43.267V41.952a4.465,4.465,0,0,1,3.375-4.321L47.91,36.25V34.524a4.451,4.451,0,0,1-2.227-3.842V28.688a4.606,4.606,0,0,1,4.054-4.666,4.45,4.45,0,0,1,4.856,4.433v2.227a4.451,4.451,0,0,1-2.227,3.842V36.25L57.9,37.631a4.465,4.465,0,0,1,3.375,4.321v1.314a14.438,14.438,0,0,1-8.91,5.067Z" transform="translate(4.321 2.616)" fill="#b4dd7f"/>
      <path id="Trazado_101516" data-name="Trazado 101516" d="M70.049,36.638A15.612,15.612,0,0,0,57.8,21.416V6.568A5.575,5.575,0,0,0,52.23,1H23.274a5.575,5.575,0,0,0-5.568,5.568V18.819H11.267L10.6,21.51,8.219,20.083,2.263,26.036,3.69,28.415,1,29.086v8.422l2.691.672L2.263,40.559l5.955,5.954,2.377-1.427.673,2.69h6.438V64.481a5.575,5.575,0,0,0,5.568,5.568H52.23A5.575,5.575,0,0,0,57.8,64.481V51.86A15.612,15.612,0,0,0,70.049,36.638Zm-2.227,0a13.265,13.265,0,0,1-1.453,6.03,5.556,5.556,0,0,0-3.878-3.5L57.8,38V37.73A5.574,5.574,0,0,0,60.026,33.3V31.071a5.569,5.569,0,0,0-6.063-5.547A5.729,5.729,0,0,0,48.889,31.3v2a5.574,5.574,0,0,0,2.227,4.431v.266l-4.692,1.174a5.556,5.556,0,0,0-3.878,3.5,13.358,13.358,0,1,1,25.275-6.028ZM51.116,21.416a15.464,15.464,0,0,0-2.227.676V18.819H26.615V34.411H39.044A15.441,15.441,0,0,0,51.116,51.86v2.6H24.388V16.592H51.116ZM39.523,32.184H28.842V21.047H46.662v2.109A15.646,15.646,0,0,0,39.523,32.184ZM23.274,3.227H52.23a3.345,3.345,0,0,1,3.341,3.341V9.91H19.933V6.568A3.345,3.345,0,0,1,23.274,3.227ZM17.705,38.389a5.569,5.569,0,1,1,0-10.184Zm-4.7,7.159-.542-2.171-.226-.6-1.272-.517-2.4,1.443-3.495-3.5,1.443-2.4-.557-1.359-2.727-.68V30.826l2.724-.68.56-1.359-1.443-2.4,3.495-3.5,2.4,1.443,1.359-.552.682-2.731h4.7v4.794a7.8,7.8,0,1,0,0,14.912v4.794ZM52.23,67.822H23.274a3.345,3.345,0,0,1-3.341-3.341V61.14H55.571v3.341A3.345,3.345,0,0,1,52.23,67.822Zm3.341-8.91H19.933V12.137H55.571V21.1c-.37-.027-.737-.057-1.114-.057s-.744.03-1.114.057V14.364H22.16V56.685H53.344V52.173c.37.027.737.057,1.114.057s.744-.03,1.114-.057ZM54.458,50a13.327,13.327,0,0,1-10.023-4.554v-.878a3.338,3.338,0,0,1,2.53-3.242l6.379-1.594V36.494l-.554-.322A3.305,3.305,0,0,1,51.116,33.3v-2a3.49,3.49,0,0,1,3.039-3.558A3.341,3.341,0,0,1,57.8,31.07V33.3a3.305,3.305,0,0,1-1.674,2.874l-.554.322v3.242l6.379,1.594a3.338,3.338,0,0,1,2.53,3.242v.878A13.326,13.326,0,0,1,54.458,50Z" transform="translate(0 0)"/>
      <path id="Trazado_101517" data-name="Trazado 101517" d="M38,5h2.227V7.227H38Z" transform="translate(4.207 0.455)"/>
      <path id="Trazado_101518" data-name="Trazado 101518" d="M28,5h8.91V7.227H28Z" transform="translate(3.07 0.455)"/>
      <path id="Trazado_101519" data-name="Trazado 101519" d="M30,57h8.91v2.227H30Z" transform="translate(3.297 6.367)"/>
      <path id="Trazado_101520" data-name="Trazado 101520" d="M44,57h2.227v2.227H44Z" transform="translate(4.889 6.367)"/>
      <path id="Trazado_101521" data-name="Trazado 101521" d="M22,57h2.227v2.227H22Z" transform="translate(2.388 6.367)"/>
      <path id="Trazado_101522" data-name="Trazado 101522" d="M24,33H34.023v2.227H24Z" transform="translate(2.615 3.638)"/>
      <path id="Trazado_101523" data-name="Trazado 101523" d="M24,37H34.023v2.227H24Z" transform="translate(2.615 4.093)"/>
      <path id="Trazado_101524" data-name="Trazado 101524" d="M24,41H34.023v2.227H24Z" transform="translate(2.615 4.548)"/>
      <path id="Trazado_101525" data-name="Trazado 101525" d="M24,45H34.023v2.227H24Z" transform="translate(2.615 5.003)"/>
      <path id="Trazado_101526" data-name="Trazado 101526" d="M57.341,20.592a3.333,3.333,0,0,0,1.114-6.477V5H56.227v9.115a3.333,3.333,0,0,0,1.114,6.477Zm0-4.455a1.114,1.114,0,1,1-1.114,1.114A1.115,1.115,0,0,1,57.341,16.137Z" transform="translate(6.026 0.455)"/>
      <path id="Trazado_101527" data-name="Trazado 101527" d="M56,1h2.227V3.227H56Z" transform="translate(6.253 0)"/>
      <path id="Trazado_101528" data-name="Trazado 101528" d="M11.341,45a3.333,3.333,0,0,0-1.114,6.477v9.115h2.227V51.477A3.333,3.333,0,0,0,11.341,45Zm0,4.455a1.114,1.114,0,1,1,1.114-1.114A1.115,1.115,0,0,1,11.341,49.455Z" transform="translate(0.796 5.003)"/>
      <path id="Trazado_101529" data-name="Trazado 101529" d="M10,61h2.227v2.227H10Z" transform="translate(1.023 6.822)"/>
    </g>
  </g>
</svg>
