<svg xmlns="http://www.w3.org/2000/svg" width="103" height="103" viewBox="0 0 103 103">
  <g id="Grupo_57164" data-name="Grupo 57164" transform="translate(-327 -4576)">
    <circle id="Elipse_1412" data-name="Elipse 1412" cx="51.5" cy="51.5" r="51.5" transform="translate(327 4576)" fill="#9ddfd3"/>
    <g id="lista-de-verificacion" transform="translate(344.533 4592.636)">
      <g id="Grupo_57153" data-name="Grupo 57153" transform="translate(1.135 1.135)">
        <g id="Grupo_57142" data-name="Grupo 57142">
          <path id="Trazado_101530" data-name="Trazado 101530" d="M14.14,14.2l-5.9,2.621a4.552,4.552,0,0,0-2.7,4.153v4.993H4.4a3.277,3.277,0,0,0-1.373.3L1.613,21.3A15.924,15.924,0,0,1,16.92,1h9.01A15.925,15.925,0,0,1,41.237,21.3l-1.418,4.959a3.277,3.277,0,0,0-1.373-.3H37.311V21.425a4.538,4.538,0,0,0-4.539-4.539H22.8A15.3,15.3,0,0,1,14.14,14.2Z" transform="translate(-1 -1)" fill="#b27946"/>
        </g>
        <g id="Grupo_57143" data-name="Grupo 57143" transform="translate(4.539 43.244)">
          <path id="Trazado_101531" data-name="Trazado 101531" d="M36.772,47.723A7.145,7.145,0,0,0,33.1,41.482L28.852,39.11H28.84a15.523,15.523,0,0,1-4.55,1.782v.363H26.56a1.138,1.138,0,0,1,1.135,1.135v5.674H25.425v6.808h2.269v3.4A1.138,1.138,0,0,1,26.56,59.41H15.212a1.138,1.138,0,0,1-1.135-1.135V42.389a1.138,1.138,0,0,1,1.135-1.135h2.269v-.363a15.523,15.523,0,0,1-4.55-1.782H12.92L9.006,41.3l-.329.182A7.132,7.132,0,0,0,10.571,54.69L9.539,63.949H32.233L31.2,54.69a7.1,7.1,0,0,0,5.571-6.967Z" transform="translate(-5 -39.11)" fill="#fcd770"/>
        </g>
        <g id="Grupo_57144" data-name="Grupo 57144" transform="translate(47.658 29.503)">
          <path id="Trazado_101532" data-name="Trazado 101532" d="M58.886,29.928V41.751a1.138,1.138,0,0,1-1.135,1.135H44.135A1.138,1.138,0,0,1,43,41.751V28.135A1.138,1.138,0,0,1,44.135,27H57.751a1.138,1.138,0,0,1,1.135,1.135Z" transform="translate(-43 -27)" fill="#ff826e"/>
        </g>
        <g id="Grupo_57145" data-name="Grupo 57145" transform="translate(47.658 6.808)">
          <path id="Trazado_101533" data-name="Trazado 101533" d="M58.886,9.928V21.751a1.138,1.138,0,0,1-1.135,1.135H44.135A1.138,1.138,0,0,1,43,21.751V8.135A1.138,1.138,0,0,1,44.135,7H57.751a1.138,1.138,0,0,1,1.135,1.135Z" transform="translate(-43 -7)" fill="#ff826e"/>
        </g>
        <g id="Grupo_57146" data-name="Grupo 57146" transform="translate(13.617 45.389)">
          <path id="Trazado_101534" data-name="Trazado 101534" d="M26.617,54.617v3.4a1.138,1.138,0,0,1-1.135,1.135H14.135A1.138,1.138,0,0,1,13,58.021V42.135A1.138,1.138,0,0,1,14.135,41H16.4v1.135a1.138,1.138,0,0,0,1.135,1.135h4.539a1.138,1.138,0,0,0,1.135-1.135V41h2.269a1.138,1.138,0,0,1,1.135,1.135v5.674H20.943a3.4,3.4,0,0,0,0,6.808h5.674Z" transform="translate(-13 -41)" fill="#e6e9ed"/>
        </g>
        <g id="Grupo_57147" data-name="Grupo 57147" transform="translate(17.021 43.119)">
          <path id="Trazado_101535" data-name="Trazado 101535" d="M22.808,40.906v1.5a1.138,1.138,0,0,1-1.135,1.135H17.135A1.138,1.138,0,0,1,16,42.4V40.135A1.138,1.138,0,0,1,17.135,39h4.539a1.138,1.138,0,0,1,1.135,1.135Z" transform="translate(-16 -39)" fill="#b4dd7f"/>
        </g>
        <g id="Grupo_57148" data-name="Grupo 57148" transform="translate(18.155 52.197)">
          <path id="Trazado_101536" data-name="Trazado 101536" d="M23.808,47v6.808H20.4A3.4,3.4,0,0,1,20.4,47Z" transform="translate(-17 -47)" fill="#f0d0b4"/>
        </g>
        <g id="Grupo_57149" data-name="Grupo 57149" transform="translate(36.152 24.964)">
          <path id="Trazado_101537" data-name="Trazado 101537" d="M35.527,23.3a3.4,3.4,0,0,1-1.373,6.513H32.86a16.566,16.566,0,0,0,.159-2.269V23h1.135A3.277,3.277,0,0,1,35.527,23.3Z" transform="translate(-32.86 -23)" fill="#f0d0b4"/>
        </g>
        <g id="Grupo_57150" data-name="Grupo 57150" transform="translate(4.539 13.197)">
          <path id="Trazado_101538" data-name="Trazado 101538" d="M36.772,24.4v4.539a16.566,16.566,0,0,1-.159,2.269,15.906,15.906,0,0,1-7.761,11.472H28.84a15.523,15.523,0,0,1-4.55,1.782v-.772a1.138,1.138,0,0,0-1.135-1.135H18.617a1.138,1.138,0,0,0-1.135,1.135v.772a15.523,15.523,0,0,1-4.55-1.782H12.92A15.906,15.906,0,0,1,5.159,31.205,16.567,16.567,0,0,1,5,28.936V19.4a4.552,4.552,0,0,1,2.7-4.153l5.9-2.621a15.3,15.3,0,0,0,8.658,2.689h9.974a4.538,4.538,0,0,1,4.539,4.539Z" transform="translate(-5 -12.63)" fill="#f0d0b4"/>
        </g>
        <g id="Grupo_57151" data-name="Grupo 57151" transform="translate(0 24.964)">
          <path id="Trazado_101539" data-name="Trazado 101539" d="M5.539,23v4.539A16.567,16.567,0,0,0,5.7,29.808H4.4A3.4,3.4,0,0,1,3.031,23.3,3.277,3.277,0,0,1,4.4,23Z" transform="translate(-1 -23)" fill="#f0d0b4"/>
        </g>
        <g id="Grupo_57152" data-name="Grupo 57152" transform="translate(15.886 34.042)">
          <path id="Trazado_101540" data-name="Trazado 101540" d="M24.078,31l-.306,1.237a4.364,4.364,0,0,1-8.465,0L15,31Z" transform="translate(-15 -31)" fill="#ff826e"/>
        </g>
      </g>
      <g id="Grupo_57154" data-name="Grupo 57154" transform="translate(0)">
        <path id="Trazado_101541" data-name="Trazado 101541" d="M14.381,32.646a5.5,5.5,0,0,0,10.662,0L25.7,30H13.719Zm8.412-.377a3.226,3.226,0,0,1-6.162,0Z" transform="translate(1.848 4.042)"/>
        <path id="Trazado_101542" data-name="Trazado 101542" d="M17.078,24.539a4.539,4.539,0,1,0-9.078,0h2.269a2.269,2.269,0,1,1,4.539,0Z" transform="translate(1.078 2.694)"/>
        <path id="Trazado_101543" data-name="Trazado 101543" d="M26.539,20A4.543,4.543,0,0,0,22,24.539h2.269a2.269,2.269,0,0,1,4.539,0h2.269A4.543,4.543,0,0,0,26.539,20Z" transform="translate(2.964 2.694)"/>
        <path id="Trazado_101544" data-name="Trazado 101544" d="M44.269,24.39H57.886a2.272,2.272,0,0,0,2.269-2.269V10.8l5.306-4.863L63.927,4.262,60.041,7.825a2.265,2.265,0,0,0-2.155-1.591H44.269A2.272,2.272,0,0,0,42,8.5V22.12A2.272,2.272,0,0,0,44.269,24.39Zm0-15.886H57.886V9.8l-6.774,6.21-2.636-2.636-1.6,1.6,4.172,4.172,6.842-6.273V22.12H44.269Z" transform="translate(5.658 0.574)"/>
        <path id="Trazado_101545" data-name="Trazado 101545" d="M63.927,24.263l-3.886,3.563a2.265,2.265,0,0,0-2.155-1.592H44.269A2.272,2.272,0,0,0,42,28.5V42.12a2.272,2.272,0,0,0,2.269,2.269H57.886a2.272,2.272,0,0,0,2.269-2.269V30.8l5.306-4.863ZM57.887,42.12H44.269V28.5H57.886v1.3l-6.774,6.21-2.636-2.636-1.6,1.6,4.172,4.172,6.842-6.273Z" transform="translate(5.658 3.269)"/>
        <path id="Trazado_101546" data-name="Trazado 101546" d="M42,46h6.808v2.269H42Z" transform="translate(5.658 6.197)"/>
        <path id="Trazado_101547" data-name="Trazado 101547" d="M50,46h9.078v2.269H50Z" transform="translate(6.736 6.197)"/>
        <path id="Trazado_101548" data-name="Trazado 101548" d="M42,50H60.156v2.269H42Z" transform="translate(5.658 6.736)"/>
        <path id="Trazado_101549" data-name="Trazado 101549" d="M42,54h2.269v2.269H42Z" transform="translate(5.658 7.275)"/>
        <path id="Trazado_101550" data-name="Trazado 101550" d="M46,54h2.269v2.269H46Z" transform="translate(6.197 7.275)"/>
        <path id="Trazado_101551" data-name="Trazado 101551" d="M50,54h2.269v2.269H50Z" transform="translate(6.736 7.275)"/>
        <path id="Trazado_101552" data-name="Trazado 101552" d="M43.119,17.059A17.078,17.078,0,0,0,26.06,0h-9A17.057,17.057,0,0,0,.657,21.746l1.18,4.132a4.524,4.524,0,0,0,2.7,8.164H4.9A17.193,17.193,0,0,0,11.431,44.3l-1.438.8L8.851,43.573,7.035,44.935l.993,1.323a8.259,8.259,0,0,0,1.981,14.516L8.945,70.353H34.174L33.11,60.774A8.271,8.271,0,0,0,34.323,45.76L31.689,44.3a17.2,17.2,0,0,0,6.529-10.254h.362a4.524,4.524,0,0,0,2.7-8.164l1.18-4.132a17.041,17.041,0,0,0,.657-4.686ZM4.539,31.772a2.269,2.269,0,1,1,0-4.539v3.4c0,.381.024.758.05,1.135Zm9.077,13.906c.23.123.466.234.7.346a2.257,2.257,0,0,0-.7,1.634v2.271l-2.25-3Zm10.214,4.25A2.272,2.272,0,0,0,26.1,47.658h1.135V52.2H22.694a4.539,4.539,0,1,0,0,9.078h4.539v2.269H15.886V47.658h1.135a2.272,2.272,0,0,0,2.269,2.269ZM19.29,47.658V45.389h4.539v2.269Zm3.4,11.347a2.269,2.269,0,1,1,0-4.539h2.269v4.539ZM6.808,53A6,6,0,0,1,9.39,48.073l3.125,4.167a4.955,4.955,0,0,0-3.1,1.424l1.606,1.6a2.716,2.716,0,0,1,1.936-.8h.665v4.539h-.8A6.016,6.016,0,0,1,6.808,53ZM31.639,68.083H11.48l.759-6.838c.192.014.384.03.578.03h.8v2.269a2.272,2.272,0,0,0,2.269,2.269H27.233A2.272,2.272,0,0,0,29.5,63.544V61.275h.8c.2,0,.386-.016.578-.03Zm1.581-20.34A6.009,6.009,0,0,1,30.3,59.005H27.233V54.467h2.934a2.721,2.721,0,0,1,1.937.8l1.606-1.6A4.975,4.975,0,0,0,30.168,52.2H29.5V47.658a2.257,2.257,0,0,0-.7-1.634c.236-.112.473-.224.7-.346Zm3.091-17.106A14.845,14.845,0,0,1,25.984,44.712a2.265,2.265,0,0,0-2.155-1.593H19.29a2.265,2.265,0,0,0-2.155,1.593A14.845,14.845,0,0,1,6.808,30.637V21.106A3.4,3.4,0,0,1,8.83,18L14.2,15.61a16.383,16.383,0,0,0,8.736,2.545h9.973a3.408,3.408,0,0,1,3.4,3.4Zm2.269,1.135h-.05c.026-.377.05-.753.05-1.135v-3.4a2.269,2.269,0,1,1,0,4.539Zm0-6.808v-3.4a5.68,5.68,0,0,0-5.674-5.674H22.934a14.125,14.125,0,0,1-11.777-6.3l-1.888,1.26A16.456,16.456,0,0,0,12.1,14.059L7.909,15.92a5.679,5.679,0,0,0-3.37,5.186v3.858a4.508,4.508,0,0,0-.586.059l-1.114-3.9A14.788,14.788,0,0,1,17.059,2.269h9A14.792,14.792,0,0,1,40.281,21.123l-1.114,3.9a4.546,4.546,0,0,0-.587-.059Z" transform="translate(0)"/>
      </g>
    </g>
  </g>
</svg>
