<svg xmlns="http://www.w3.org/2000/svg" width="103" height="103" viewBox="0 0 103 103">
  <g id="Grupo_57158" data-name="Grupo 57158" transform="translate(-327 -3841)">
    <circle id="Elipse_1400" data-name="Elipse 1400" cx="51.5" cy="51.5" r="51.5" transform="translate(327 3841)" fill="#9ddfd3"/>
    <g id="learning" transform="translate(344.001 3858)">
      <path id="Trazado_101440" data-name="Trazado 101440" d="M52.8,20.424H48.445c0-2.178-5.445-2.178-5.445-8.712C43,6.779,47.868,3,52.8,3s9.8,3.779,9.8,8.712c0,6.534-5.445,6.534-5.445,8.712Z" transform="translate(3.648 0.089)" fill="#ffeb99"/>
      <path id="Trazado_101441" data-name="Trazado 101441" d="M56.89,19a2.178,2.178,0,1,1,0,4.356H48.178a2.178,2.178,0,0,1,0-4.356Z" transform="translate(3.915 1.513)" fill="#57a4ff"/>
      <path id="Trazado_101442" data-name="Trazado 101442" d="M56.89,23a2.178,2.178,0,1,1,0,4.356H48.178a2.178,2.178,0,0,1,0-4.356Z" transform="translate(3.915 1.869)" fill="#57a4ff"/>
      <path id="Trazado_101443" data-name="Trazado 101443" d="M56.712,27v2.178a2.185,2.185,0,0,1-2.178,2.178H50.178A2.184,2.184,0,0,1,48,29.178V27Z" transform="translate(4.093 2.225)" fill="#c6c5ca"/>
      <path id="Trazado_101444" data-name="Trazado 101444" d="M61.979,11.712c0,6.534-5.445,6.534-5.445,8.712H52.178c0-2.178,5.445-2.178,5.445-8.712,0-4.2-3.528-7.568-7.623-8.461A9.828,9.828,0,0,1,52.178,3C57.111,3,61.979,6.779,61.979,11.712Z" transform="translate(4.271 0.089)" fill="#ffde55"/>
      <path id="Trazado_101445" data-name="Trazado 101445" d="M58.534,21.178a2.194,2.194,0,0,1-2.178,2.178H52A2.178,2.178,0,1,0,52,19h4.356a2.185,2.185,0,0,1,2.178,2.178Z" transform="translate(4.449 1.513)" fill="#2488ff"/>
      <path id="Trazado_101446" data-name="Trazado 101446" d="M58.534,25.178a2.194,2.194,0,0,1-2.178,2.178H52A2.178,2.178,0,1,0,52,23h4.356a2.185,2.185,0,0,1,2.178,2.178Z" transform="translate(4.449 1.869)" fill="#2488ff"/>
      <path id="Trazado_101447" data-name="Trazado 101447" d="M56.534,27v2.178a2.184,2.184,0,0,1-2.178,2.178H50a2.184,2.184,0,0,0,2.178-2.178V27Z" transform="translate(4.271 2.225)" fill="#acabb1"/>
      <path id="Trazado_101448" data-name="Trazado 101448" d="M45.666,58.755l.893,3.093h-14.9a11.961,11.961,0,0,0,5.1-9.8h2.178a2.185,2.185,0,0,0,2.178-2.178V47.691a2.185,2.185,0,0,0-2.178-2.178H36.759V40.068L20.424,35.712,12.8,40.068v5.445H10.623a2.185,2.185,0,0,0-2.178,2.178v2.178a2.185,2.185,0,0,0,2.178,2.178H12.8a11.961,11.961,0,0,0,5.1,9.8H3l.937-3.289a32.614,32.614,0,0,0,1.241-8.93V47.114c0-10.411,7.906-19.395,18.284-20.07A19.6,19.6,0,0,1,44.381,46.6v3.082a32.779,32.779,0,0,0,1.285,9.071Z" transform="translate(0.089 2.225)" fill="#ffde55"/>
      <path id="Trazado_101449" data-name="Trazado 101449" d="M44.958,61.848H40.6l-.893-3.093a32.827,32.827,0,0,1-1.22-7.035,2.212,2.212,0,0,0,1.024-1.851V47.691A2.178,2.178,0,0,0,38.4,45.8,19.584,19.584,0,0,0,21,27.12c.283-.033.577-.054.86-.076A19.6,19.6,0,0,1,42.78,46.6v3.082a32.779,32.779,0,0,0,1.285,9.071Z" transform="translate(1.691 2.225)" fill="#ffcd00"/>
      <path id="Trazado_101450" data-name="Trazado 101450" d="M38.356,46.178v2.178a2.185,2.185,0,0,1-2.178,2.178H34V44h2.178A2.185,2.185,0,0,1,38.356,46.178Z" transform="translate(2.848 3.737)" fill="#ffc477"/>
      <path id="Trazado_101451" data-name="Trazado 101451" d="M35.958,39.356V51.335a11.979,11.979,0,1,1-23.958,0V39.356L19.623,35Z" transform="translate(0.89 2.936)" fill="#ffdaaa"/>
      <path id="Trazado_101452" data-name="Trazado 101452" d="M35.448,39.356V51.335A11.986,11.986,0,0,1,23.469,63.314a11.107,11.107,0,0,1-2.178-.207A11.678,11.678,0,0,0,26,61.136a11.961,11.961,0,0,0,5.1-9.8V39.356L17.73,35.795,19.113,35Z" transform="translate(1.4 2.936)" fill="#ffc477"/>
      <path id="Trazado_101453" data-name="Trazado 101453" d="M20.424,13.89l-2.156.534,1.143,1.906-3.082,3.082-1.906-1.143-.534,2.156H9.534L9,18.268,7.095,19.411,4.013,16.329l1.143-1.906L3,13.89V9.534L5.156,9,4.013,7.095,7.095,4.013,9,5.156,9.534,3H13.89l.534,2.156,1.906-1.143,3.082,3.082L18.268,9l2.156.534Z" transform="translate(0.089 0.089)" fill="#ffeb99"/>
      <circle id="Elipse_1399" data-name="Elipse 1399" cx="3.271" cy="3.271" r="3.271" transform="translate(8.542 8.543)" fill="#c6c5ca"/>
      <path id="Trazado_101454" data-name="Trazado 101454" d="M12.356,44v6.534H10.178A2.185,2.185,0,0,1,8,48.356V46.178A2.185,2.185,0,0,1,10.178,44Z" transform="translate(0.534 3.737)" fill="#ffc477"/>
      <path id="Trazado_101455" data-name="Trazado 101455" d="M47.694,61.632,46.8,58.539a31.4,31.4,0,0,1-1.241-8.766V46.691A20.679,20.679,0,0,0,23.486,26.044,21,21,0,0,0,4.178,47.2v2.516a31.726,31.726,0,0,1-1.2,8.636l-.937,3.289a1.056,1.056,0,0,0,.174.947,1.1,1.1,0,0,0,.871.436H17.66a13.02,13.02,0,0,0,14.418,0H46.648a1.1,1.1,0,0,0,.871-.436,1.079,1.079,0,0,0,.174-.958ZM24.869,63.026a10.907,10.907,0,0,1-10.89-10.89V40.789l6.686-3.822L35.759,41v11.14a10.907,10.907,0,0,1-10.89,10.89Zm9.714-2.178a12.97,12.97,0,0,0,3.3-7.623h1.143a3.277,3.277,0,0,0,3.267-3.267V47.78a3.277,3.277,0,0,0-3.267-3.267H37.937V40.157a1.089,1.089,0,0,0-.806-1.056L20.8,34.745a1.149,1.149,0,0,0-.828.109L12.345,39.21a1.089,1.089,0,0,0-.544.947v4.356H10.712A3.277,3.277,0,0,0,7.445,47.78v2.178a3.277,3.277,0,0,0,3.267,3.267h1.143a12.97,12.97,0,0,0,3.3,7.623H4.527l.544-1.906a33.921,33.921,0,0,0,1.285-9.224V47.2A18.821,18.821,0,0,1,23.627,28.222,18.513,18.513,0,0,1,43.382,46.691v3.082a33.748,33.748,0,0,0,1.329,9.376l.49,1.7Zm3.354-9.8V46.691h1.089a1.089,1.089,0,0,1,1.089,1.089v2.178a1.089,1.089,0,0,1-1.089,1.089ZM11.8,46.691v4.356H10.712a1.089,1.089,0,0,1-1.089-1.089V47.78a1.089,1.089,0,0,1,1.089-1.089Z" transform="translate(0 2.135)"/>
      <path id="Trazado_101456" data-name="Trazado 101456" d="M63.78,11.8c0-5.859-5.63-9.8-10.89-9.8S42,5.942,42,11.8a8.345,8.345,0,0,0,4.258,7.666c.2.131.414.283.61.436a3.223,3.223,0,0,0-.751,4.966,3.239,3.239,0,0,0-.849,2.178,3.278,3.278,0,0,0,2.178,3.071V31.4a3.277,3.277,0,0,0,3.267,3.267h4.356A3.277,3.277,0,0,0,58.336,31.4V30.118a3.278,3.278,0,0,0,2.178-3.071,3.239,3.239,0,0,0-.849-2.178,3.223,3.223,0,0,0-.751-4.966c.2-.152.414-.3.61-.436A8.345,8.345,0,0,0,63.78,11.8ZM56.158,31.4a1.089,1.089,0,0,1-1.089,1.089H50.713A1.089,1.089,0,0,1,49.624,31.4V30.314h6.534Zm1.089-3.267H48.535a1.089,1.089,0,1,1,0-2.178h8.712a1.089,1.089,0,1,1,0,2.178Zm0-4.356H48.535a1.089,1.089,0,1,1,0-2.178h8.712a1.089,1.089,0,1,1,0,2.178Zm1.035-6.109a5.621,5.621,0,0,0-1.851,1.753H53.98V12.89h2.178V10.712H49.624V12.89H51.8v6.534h-2.45A5.621,5.621,0,0,0,47.5,17.67c-1.557-1.078-3.321-2.3-3.321-5.87,0-4.487,4.6-7.623,8.712-7.623S61.6,7.314,61.6,11.8C61.6,15.373,59.838,16.592,58.281,17.67Z" transform="translate(3.559 0)"/>
      <path id="Trazado_101457" data-name="Trazado 101457" d="M51,34h2.178v2.178H51Z" transform="translate(4.36 2.848)"/>
      <path id="Trazado_101458" data-name="Trazado 101458" d="M53.8,38v9.8a1.089,1.089,0,0,1-1.089,1.089H44V46.712h7.623V38Z" transform="translate(3.737 3.203)"/>
      <path id="Trazado_101459" data-name="Trazado 101459" d="M11.356,15.712A4.356,4.356,0,1,0,7,11.356,4.356,4.356,0,0,0,11.356,15.712Zm0-6.534a2.178,2.178,0,1,1-2.178,2.178A2.178,2.178,0,0,1,11.356,9.178Z" transform="translate(0.445 0.445)"/>
      <path id="Trazado_101460" data-name="Trazado 101460" d="M20.774,8.567l-.73-.185.392-.643a1.089,1.089,0,0,0-.163-1.329L17.191,3.329a1.1,1.1,0,0,0-1.329-.163l-.643.392-.185-.73A1.089,1.089,0,0,0,13.979,2H9.623a1.089,1.089,0,0,0-1.056.828l-.185.73-.643-.392a1.1,1.1,0,0,0-1.329.163L3.329,6.41a1.089,1.089,0,0,0-.163,1.329l.392.643-.73.185A1.089,1.089,0,0,0,2,9.623v4.356a1.089,1.089,0,0,0,.828,1.056l.73.185-.392.643a1.089,1.089,0,0,0,.163,1.329L6.41,20.273a1.1,1.1,0,0,0,1.329.163l.643-.392.185.73a1.089,1.089,0,0,0,1.056.828h4.356a1.089,1.089,0,0,0,1.056-.828l.185-.73.643.392a1.1,1.1,0,0,0,1.329-.163l3.082-3.082a1.089,1.089,0,0,0,.163-1.329l-.392-.643.73-.185a1.089,1.089,0,0,0,.828-1.056V9.623A1.089,1.089,0,0,0,20.774,8.567Zm-1.35,4.563-1.329.327a1.1,1.1,0,0,0-.741.643,1.077,1.077,0,0,0,.076.98l.7,1.176-1.873,1.873-1.176-.708a1.11,1.11,0,0,0-.98-.065,1.1,1.1,0,0,0-.642.741l-.327,1.329H10.472L10.146,18.1a1.1,1.1,0,0,0-.643-.741,1.11,1.11,0,0,0-.98.065l-1.176.708L5.474,16.255l.7-1.176a1.077,1.077,0,0,0,.076-.98,1.1,1.1,0,0,0-.741-.643l-1.329-.327V10.472l1.329-.327A1.1,1.1,0,0,0,6.247,9.5a1.077,1.077,0,0,0-.076-.98l-.7-1.176L7.347,5.474l1.176.7a1.077,1.077,0,0,0,.98.076,1.1,1.1,0,0,0,.642-.741l.327-1.329h2.657l.327,1.329a1.1,1.1,0,0,0,.643.741,1.077,1.077,0,0,0,.98-.076l1.176-.7,1.873,1.873-.7,1.176a1.077,1.077,0,0,0-.076.98,1.1,1.1,0,0,0,.741.642l1.329.327Z" transform="translate(0)"/>
      <path id="Trazado_101461" data-name="Trazado 101461" d="M22,10h2.178v2.178H22Z" transform="translate(1.78 0.712)"/>
      <path id="Trazado_101462" data-name="Trazado 101462" d="M26,10H41.246v2.178H26Z" transform="translate(2.136 0.712)"/>
      <path id="Trazado_101463" data-name="Trazado 101463" d="M10,22h2.178v6.534H10Z" transform="translate(0.712 1.78)"/>
    </g>
  </g>
</svg>
