<svg xmlns="http://www.w3.org/2000/svg" width="103" height="103" viewBox="0 0 103 103">
  <g id="Grupo_57160" data-name="Grupo 57160" transform="translate(-1153 -3841)">
    <circle id="Elipse_1402" data-name="Elipse 1402" cx="51.5" cy="51.5" r="51.5" transform="translate(1153 3841)" fill="#9ddfd3"/>
    <g id="recursos" transform="translate(1170.999 3857)">
      <path id="Trazado_101480" data-name="Trazado 101480" d="M79.83,36.377a26.156,26.156,0,0,0-3.8-9.2l3.034-5.056-2.81-2.81L73.449,16.5l-5.056,3.034a26.157,26.157,0,0,0-9.2-3.8L57.757,10H49.811l-1.448,5.789a26.151,26.151,0,0,0-9.094,3.8L34.119,16.5,28.5,22.119l3.129,5.214a26.114,26.114,0,0,0-3.69,8.994L22,37.811v7.946l5.99,1.5A26.428,26.428,0,0,0,48.313,67.579l1.5,5.99h7.946l1.485-5.94a26.152,26.152,0,0,0,8.994-3.688l5.214,3.128,5.619-5.619L75.978,56.3a26.134,26.134,0,0,0,3.8-9.093l5.789-1.448V37.811Zm-26.046,16a10.595,10.595,0,1,1,0-21.19,10.595,10.595,0,0,1,0,21.19Z" transform="translate(-19.086 -8.676)" fill="#e2e2e2"/>
      <path id="Trazado_101481" data-name="Trazado 101481" d="M196.941,235,193.2,246.236l-.984.984a10.6,10.6,0,0,1-7.492-7.492l.984-.984Z" transform="translate(-160.256 -203.877)" fill="#feb756"/>
      <path id="Trazado_101482" data-name="Trazado 101482" d="M63.066,278.2l-1.987,1.987-4.087,4.087-5.7,5.7-7.943,7.943-3.747-3.745-3.745-3.747,7.943-7.943,5.7-5.7,4.087-4.087,1.987-1.987A10.6,10.6,0,0,0,63.066,278.2Z" transform="translate(-31.11 -234.857)" fill="#fd3c65"/>
      <path id="Trazado_101483" data-name="Trazado 101483" d="M20.918,427.059l-1.874,1.873a5.3,5.3,0,1,1-7.491-7.491l1.873-1.874,3.745,3.747Z" transform="translate(-8.676 -364.002)" fill="#4dbbeb"/>
      <path id="Trazado_101484" data-name="Trazado 101484" d="M66.8,27.851l-4.941-1.235a27.366,27.366,0,0,0-3.357-8.137l2.613-4.354a1.325,1.325,0,0,0-.2-1.618L55.3,6.888a1.324,1.324,0,0,0-1.618-.2L49.328,9.3a27.367,27.367,0,0,0-8.137-3.357L39.957,1a1.324,1.324,0,0,0-1.285-1H30.726a1.324,1.324,0,0,0-1.285,1l-1.25,5A27.37,27.37,0,0,0,20.16,9.357L15.715,6.689a1.324,1.324,0,0,0-1.618.2L8.478,12.507a1.324,1.324,0,0,0-.2,1.618l2.711,4.517a27.339,27.339,0,0,0-3.253,7.923L2.593,27.851a1.324,1.324,0,0,0-1,1.285v7.946a1.324,1.324,0,0,0,1,1.285l5.2,1.3a27.454,27.454,0,0,0,3.213,7.768L3.814,54.629h0L1.942,56.5A6.621,6.621,0,1,0,11.3,65.867l1.874-1.873h0L20.373,56.8a27.479,27.479,0,0,0,7.768,3.213l1.3,5.2a1.324,1.324,0,0,0,1.285,1h7.946a1.324,1.324,0,0,0,1.285-1l1.286-5.144a27.381,27.381,0,0,0,7.923-3.251l4.517,2.71a1.325,1.325,0,0,0,1.618-.2L60.92,53.71a1.324,1.324,0,0,0,.2-1.618l-2.668-4.447a27.35,27.35,0,0,0,3.355-8.03l5-1.25a1.324,1.324,0,0,0,1-1.285V29.135A1.325,1.325,0,0,0,66.8,27.851ZM13.63,48.559l.005-.005,5.7-5.7.007-.007,4.6-4.6a11.954,11.954,0,0,0,5.619,5.619l-4.6,4.6-.006.006-5.7,5.7-.006.006-7.006,7.006L6.623,55.565Zm11.8-15.45a9.27,9.27,0,1,1,9.27,9.27c-.123,0-.245,0-.367-.008l3.61-10.83a1.324,1.324,0,0,0-1.675-1.675l-10.83,3.61C25.432,33.353,25.428,33.231,25.428,33.109Zm6.157,8.732a9.282,9.282,0,0,1-5.619-5.619l.2-.2,8.428-2.809-2.809,8.428ZM6.623,65.158a3.973,3.973,0,0,1-2.808-6.783l.936-.937,5.618,5.618-.938.937A3.944,3.944,0,0,1,6.623,65.158Zm58.536-29.11-4.786,1.2a1.324,1.324,0,0,0-.975,1.012,24.746,24.746,0,0,1-3.609,8.633,1.325,1.325,0,0,0-.033,1.414l2.559,4.265-4.157,4.157-4.327-2.6a1.324,1.324,0,0,0-1.4.024,24.775,24.775,0,0,1-8.539,3.5,1.324,1.324,0,0,0-1.019.976l-1.234,4.937H31.76l-1.247-4.987a1.324,1.324,0,0,0-1.009-.974,24.893,24.893,0,0,1-7.2-2.742l3.833-3.833A19.863,19.863,0,1,0,41.681,14.51a1.324,1.324,0,1,0-.934,2.479,17.216,17.216,0,1,1-12.6,32.038L32.372,44.8a11.911,11.911,0,1,0-9.365-9.365l-4.226,4.226a17.21,17.21,0,0,1,9.869-22.673,1.324,1.324,0,1,0-.934-2.479A19.858,19.858,0,0,0,16.775,41.667L12.942,45.5A24.879,24.879,0,0,1,10.2,38.3a1.324,1.324,0,0,0-.974-1.009L4.238,36.048V30.17l4.937-1.234a1.324,1.324,0,0,0,.976-1.02,24.732,24.732,0,0,1,3.5-8.538,1.325,1.325,0,0,0,.024-1.4l-2.6-4.327,4.157-4.157L19.5,12.051a1.324,1.324,0,0,0,1.414-.032,24.765,24.765,0,0,1,8.635-3.61,1.324,1.324,0,0,0,1.012-.975l1.2-4.786h5.878l1.184,4.735a1.325,1.325,0,0,0,1.022.977,24.767,24.767,0,0,1,8.736,3.6,1.325,1.325,0,0,0,1.41.029l4.17-2.5,4.157,4.157-2.5,4.17a1.324,1.324,0,0,0,.029,1.41,24.765,24.765,0,0,1,3.6,8.736,1.324,1.324,0,0,0,.977,1.022l4.735,1.184v5.878Z"/>
      <path id="Trazado_101485" data-name="Trazado 101485" d="M253.324,100a1.324,1.324,0,1,0,1.324,1.324A1.325,1.325,0,0,0,253.324,100Z" transform="translate(-218.626 -86.756)"/>
    </g>
  </g>
</svg>
