<svg xmlns="http://www.w3.org/2000/svg" width="103" height="103" viewBox="0 0 103 103">
  <g id="Grupo_57161" data-name="Grupo 57161" transform="translate(-327 -4216)">
    <circle id="Elipse_1404" data-name="Elipse 1404" cx="51.5" cy="51.5" r="51.5" transform="translate(327 4216)" fill="#9ddfd3"/>
    <g id="proposito" transform="translate(340.533 4230.533)">
      <path id="Trazado_101486" data-name="Trazado 101486" d="M3,41.315v8.519H7.564V64.669H18.976V49.834H23.54V41.315A6.315,6.315,0,0,0,17.225,35H9.315A6.315,6.315,0,0,0,3,41.315Z" transform="translate(0.141 4.657)" fill="#b6dedc"/>
      <ellipse id="Elipse_1403" data-name="Elipse 1403" cx="5" cy="4.5" rx="5" ry="4.5" transform="translate(8.467 30.467)" fill="#b6dedc"/>
      <path id="Trazado_101487" data-name="Trazado 101487" d="M43,22H58.976V32.27H43Z" transform="translate(5.786 2.822)" fill="#fcd821"/>
      <path id="Trazado_101488" data-name="Trazado 101488" d="M62.552,7.564,50,3v9.129Z" transform="translate(6.773 0.141)" fill="#ec322c"/>
      <path id="Trazado_101489" data-name="Trazado 101489" d="M17.923,35.157a5.706,5.706,0,1,0-9.024,0A7.461,7.461,0,0,0,2,42.585V51.1a1.141,1.141,0,0,0,1.141,1.141H6.564V65.939A1.141,1.141,0,0,0,7.706,67.08H19.117a1.141,1.141,0,0,0,1.141-1.141V52.246h3.423A1.141,1.141,0,0,0,24.822,51.1V42.585A7.461,7.461,0,0,0,17.923,35.157Zm-4.512-6.875a3.423,3.423,0,1,1-3.423,3.423,3.423,3.423,0,0,1,3.423-3.423ZM22.54,49.963H20.258V40.834H17.976V64.8H14.552V52.246H12.27V64.8H8.847V40.834H6.564v9.129H4.282V42.585a5.18,5.18,0,0,1,5.174-5.174h7.91a5.18,5.18,0,0,1,5.174,5.174Z" transform="translate(0 3.387)"/>
      <path id="Trazado_101490" data-name="Trazado 101490" d="M64.071,6.633,51.519,2.069a1.142,1.142,0,0,0-1.531,1.073v20.54H43.141A1.141,1.141,0,0,0,42,24.822v10.27a1.141,1.141,0,0,0,1.141,1.141H59.117a1.141,1.141,0,0,0,1.141-1.141V24.822a1.141,1.141,0,0,0-1.141-1.141H52.27V13.07l11.8-4.291a1.141,1.141,0,0,0,0-2.145Zm-6.1,19.33v7.988H44.282V25.963h5.706v4.564H52.27V25.963ZM52.27,10.641V4.77l8.072,2.935Z" transform="translate(5.645 0)"/>
      <path id="Trazado_101491" data-name="Trazado 101491" d="M42.4,37.084H29.847a4.564,4.564,0,0,1,0-9.129h8.259l-4.425,3.688L35.142,33.4l6.847-5.706a1.141,1.141,0,0,0,0-1.753l-6.847-5.706-1.461,1.753,4.425,3.688H29.847a6.847,6.847,0,0,0,0,13.693H42.4a10.27,10.27,0,0,1,0,20.54H23v2.282H42.4a12.552,12.552,0,1,0,0-25.1Z" transform="translate(2.963 2.573)"/>
    </g>
  </g>
</svg>
