<svg xmlns="http://www.w3.org/2000/svg" width="1205" height="1066" viewBox="0 0 1205 1066">
  <g id="Grupo_57357" data-name="Grupo 57357" transform="translate(10924 8909)">
    <rect id="Rectángulo_5356" data-name="Rectángulo 5356" width="237" height="58" rx="5" transform="translate(-10649 -8909)" fill="#cc3d60"/>
    <text id="METODOLOGíAS_ACTIVAS" data-name="METODOLOGíAS ACTIVAS" transform="translate(-10627 -8874)" fill="#fff" font-size="17" font-family="Roboto-Black, Roboto" font-weight="800"><tspan x="0" y="0">METODOLOGÍAS ACTIVAS</tspan></text>
    <rect id="Rectángulo_5357" data-name="Rectángulo 5357" width="122" height="58" rx="5" transform="translate(-10771 -8778)" fill="#9ddfd3"/>
    <text id="Lógica" transform="translate(-10735 -8743)" fill="#12263f" font-size="17" font-family="Roboto-Black, Roboto" font-weight="800"><tspan x="0" y="0">Lógica</tspan></text>
    <rect id="Rectángulo_5358" data-name="Rectángulo 5358" width="169" height="58" rx="5" transform="translate(-10412 -8778)" fill="#9ddfd3"/>
    <text id="Procedimientos" transform="translate(-10388 -8743)" fill="#12263f" font-size="17" font-family="Roboto-Black, Roboto" font-weight="800"><tspan x="0" y="0">Procedimientos</tspan></text>
    <text id="Estudia" transform="translate(-10556 -8743)" fill="#12263f" font-size="17" font-family="Roboto-Regular, Roboto"><tspan x="0" y="0">Estudia</tspan></text>
    <path id="Trazado_102361" data-name="Trazado 102361" d="M-10259.59-10941.98v67.035" transform="translate(-264 2104)" fill="none" stroke="#21214b" stroke-width="1"/>
    <path id="Trazado_102362" data-name="Trazado 102362" d="M-10259.59-10941.98v67.035" transform="translate(-264 2221.98)" fill="none" stroke="#21214b" stroke-width="1"/>
    <path id="Trazado_102363" data-name="Trazado 102363" d="M-10259.59-10941.98v67.035" transform="translate(-21510.053 1511.59) rotate(90)" fill="none" stroke="#21214b" stroke-width="1"/>
    <path id="Trazado_102364" data-name="Trazado 102364" d="M-10259.59-10941.98v67.035" transform="translate(-21362.873 1511.59) rotate(90)" fill="none" stroke="#21214b" stroke-width="1"/>
    <rect id="Rectángulo_5359" data-name="Rectángulo 5359" width="122" height="58" rx="5" transform="translate(-10585 -8646)" fill="#31326f"/>
    <text id="MéTODOS" transform="translate(-10564 -8611)" fill="#fff" font-size="17" font-family="Roboto-Black, Roboto" font-weight="800"><tspan x="0" y="0">MÉTODOS</tspan></text>
    <text id="Combina" transform="translate(-10412 -8611)" fill="#12263f" font-size="17" font-family="Roboto-Regular, Roboto"><tspan x="0" y="0">Combina</tspan></text>
    <rect id="Rectángulo_5360" data-name="Rectángulo 5360" width="151" height="58" rx="5" transform="translate(-10296 -8646)" fill="#31326f"/>
    <text id="Estrategías" transform="translate(-10275 -8611)" fill="#fff" font-size="17" font-family="Roboto-Black, Roboto" font-weight="800"><tspan x="0" y="0">ESTRATEGÍAS</tspan></text>
    <path id="Trazado_102365" data-name="Trazado 102365" d="M-10259.59-10941.98v39.031" transform="translate(-21357.359 1642.59) rotate(90)" fill="none" stroke="#21214b" stroke-width="1"/>
    <path id="Trazado_102366" data-name="Trazado 102366" d="M-10259.59-10941.98v39.031" transform="translate(-21243.57 1642.59) rotate(90)" fill="none" stroke="#21214b" stroke-width="1"/>
    <text id="como" transform="translate(-10687 -8611)" fill="#12263f" font-size="17" font-family="Roboto-Regular, Roboto"><tspan x="0" y="0">como</tspan></text>
    <path id="Trazado_102367" data-name="Trazado 102367" d="M-10259.59-10941.98v39.031" transform="translate(-21535.57 1644.59) rotate(90)" fill="none" stroke="#21214b" stroke-width="1"/>
    <path id="Trazado_102368" data-name="Trazado 102368" d="M-10259.59-10941.98v67.035" transform="translate(-115 2346.98)" fill="none" stroke="#21214b" stroke-width="1"/>
    <rect id="Rectángulo_5361" data-name="Rectángulo 5361" width="122" height="58" rx="5" transform="translate(-10434 -8518)" fill="#ffc93c"/>
    <text id="Técnicas" transform="translate(-10413 -8483)" fill="#12263f" font-size="17" font-family="Roboto-Black, Roboto" font-weight="800"><tspan x="0" y="0">TÉCNICAS</tspan></text>
    <path id="Trazado_102369" data-name="Trazado 102369" d="M-10259.59-10941.98v67.035" transform="translate(-115 2489.98)" fill="none" stroke="#21214b" stroke-width="1"/>
    <text id="como-2" data-name="como" transform="translate(-10396 -8368)" fill="#12263f" font-size="17" font-family="Roboto-Regular, Roboto"><tspan x="0" y="0">como</tspan></text>
    <text id="como-3" data-name="como" transform="translate(-10649 -8363)" fill="#12263f" font-size="17" font-family="Roboto-Regular, Roboto"><tspan x="0" y="0">como</tspan></text>
    <text id="como-4" data-name="como" transform="translate(-10148 -8368)" fill="#12263f" font-size="17" font-family="Roboto-Regular, Roboto"><tspan x="0" y="0">como</tspan></text>
    <rect id="Rectángulo_5362" data-name="Rectángulo 5362" width="122" height="35" rx="5" transform="translate(-10924 -8672)" fill="#c7c7d3"/>
    <text id="Inductivo" transform="translate(-10902 -8648)" fill="#12263f" font-size="17" font-family="Roboto-Regular, Roboto"><tspan x="0" y="0">Inductivo</tspan></text>
    <rect id="Rectángulo_5363" data-name="Rectángulo 5363" width="122" height="35" rx="5" transform="translate(-10924 -8633)" fill="#c7c7d3"/>
    <text id="Deductivo" transform="translate(-10902 -8609)" fill="#12263f" font-size="17" font-family="Roboto-Regular, Roboto"><tspan x="0" y="0">Deductivo</tspan></text>
    <rect id="Rectángulo_5364" data-name="Rectángulo 5364" width="122" height="35" rx="5" transform="translate(-10924 -8594)" fill="#c7c7d3"/>
    <text id="Analítico" transform="translate(-10902 -8570)" fill="#12263f" font-size="17" font-family="Roboto-Regular, Roboto"><tspan x="0" y="0">Analítico</tspan></text>
    <rect id="Rectángulo_5365" data-name="Rectángulo 5365" width="122" height="35" rx="5" transform="translate(-10924 -8555)" fill="#c7c7d3"/>
    <text id="Sintético" transform="translate(-10902 -8531)" fill="#12263f" font-size="17" font-family="Roboto-Regular, Roboto"><tspan x="0" y="0">Sintético</tspan></text>
    <rect id="Rectángulo_5366" data-name="Rectángulo 5366" width="122" height="35" rx="5" transform="translate(-10924 -8516)" fill="#c7c7d3"/>
    <text id="Dialéctico_" data-name="Dialéctico " transform="translate(-10902 -8492)" fill="#12263f" font-size="17" font-family="Roboto-Regular, Roboto"><tspan x="0" y="0">Dialéctico </tspan></text>
    <rect id="Rectángulo_5367" data-name="Rectángulo 5367" width="122" height="35" rx="5" transform="translate(-10924 -8477)" fill="#c7c7d3"/>
    <text id="Didáctico_" data-name="Didáctico " transform="translate(-10902 -8453)" fill="#12263f" font-size="17" font-family="Roboto-Regular, Roboto"><tspan x="0" y="0">Didáctico </tspan></text>
    <rect id="Rectángulo_5368" data-name="Rectángulo 5368" width="122" height="35" rx="5" transform="translate(-10924 -8438)" fill="#c7c7d3"/>
    <text id="Lógico" transform="translate(-10902 -8414)" fill="#12263f" font-size="17" font-family="Roboto-Regular, Roboto"><tspan x="0" y="0">Lógico</tspan></text>
    <path id="Trazado_102370" data-name="Trazado 102370" d="M-10259.59-10941.981v88.438" transform="translate(-21640.359 1644.59) rotate(90)" fill="none" stroke="#21214b" stroke-width="1"/>
    <path id="Trazado_102371" data-name="Trazado 102371" d="M-10478.529-10767.008v234.68" transform="translate(-264 2114.043)" fill="none" stroke="#707070" stroke-width="1"/>
    <path id="Trazado_102372" data-name="Trazado 102372" d="M-10259.59-10941.981v44.219" transform="translate(-21684.578 1606.625) rotate(90)" fill="none" stroke="#21214b" stroke-width="1"/>
    <path id="Trazado_102373" data-name="Trazado 102373" d="M-10259.59-10941.981v44.219" transform="translate(-21684.578 1682.555) rotate(90)" fill="none" stroke="#21214b" stroke-width="1"/>
    <path id="Trazado_102374" data-name="Trazado 102374" d="M-10259.59-10941.981v44.219" transform="translate(-21684.578 1720.52) rotate(90)" fill="none" stroke="#21214b" stroke-width="1"/>
    <path id="Trazado_102375" data-name="Trazado 102375" d="M-10259.59-10941.981v44.219" transform="translate(-21684.578 1758.484) rotate(90)" fill="none" stroke="#21214b" stroke-width="1"/>
    <path id="Trazado_102376" data-name="Trazado 102376" d="M-10259.59-10941.981v44.219" transform="translate(-21684.578 1796.449) rotate(90)" fill="none" stroke="#21214b" stroke-width="1"/>
    <path id="Trazado_102377" data-name="Trazado 102377" d="M-10259.59-10941.981v44.219" transform="translate(-21684.578 1841.305) rotate(90)" fill="none" stroke="#21214b" stroke-width="1"/>
    <path id="Polígono_21" data-name="Polígono 21" d="M4,0,8,7H0Z" transform="translate(-10793 -8649) rotate(-90)" fill="#31326f"/>
    <path id="Polígono_22" data-name="Polígono 22" d="M4,0,8,7H0Z" transform="translate(-10793 -8611) rotate(-90)" fill="#31326f"/>
    <path id="Polígono_23" data-name="Polígono 23" d="M4,0,8,7H0Z" transform="translate(-10793 -8573) rotate(-90)" fill="#31326f"/>
    <path id="Polígono_24" data-name="Polígono 24" d="M4,0,8,7H0Z" transform="translate(-10793 -8535) rotate(-90)" fill="#31326f"/>
    <path id="Polígono_25" data-name="Polígono 25" d="M4,0,8,7H0Z" transform="translate(-10793 -8497) rotate(-90)" fill="#31326f"/>
    <path id="Polígono_26" data-name="Polígono 26" d="M4,0,8,7H0Z" transform="translate(-10793 -8459) rotate(-90)" fill="#31326f"/>
    <path id="Polígono_27" data-name="Polígono 27" d="M4,0,8,7H0Z" transform="translate(-10793 -8414) rotate(-90)" fill="#31326f"/>
    <rect id="Rectángulo_5369" data-name="Rectángulo 5369" width="326" height="35" rx="5" transform="translate(-10045 -8672)" fill="#c7c7d3"/>
    <text id="Aprendizaje_basado_en_problemas" data-name="Aprendizaje basado en problemas" transform="translate(-10023 -8648)" fill="#12263f" font-size="17" font-family="Roboto-Regular, Roboto"><tspan x="0" y="0">Aprendizaje basado en problemas</tspan></text>
    <rect id="Rectángulo_5370" data-name="Rectángulo 5370" width="326" height="35" rx="5" transform="translate(-10045 -8633)" fill="#c7c7d3"/>
    <rect id="Rectángulo_5371" data-name="Rectángulo 5371" width="326" height="35" rx="5" transform="translate(-10045 -8594)" fill="#c7c7d3"/>
    <rect id="Rectángulo_5372" data-name="Rectángulo 5372" width="326" height="35" rx="5" transform="translate(-10045 -8555)" fill="#c7c7d3"/>
    <text id="Aprendizaje_cooperativo" data-name="Aprendizaje cooperativo" transform="translate(-10023 -8531)" fill="#12263f" font-size="17" font-family="Roboto-Regular, Roboto"><tspan x="0" y="0">Aprendizaje cooperativo</tspan></text>
    <rect id="Rectángulo_5373" data-name="Rectángulo 5373" width="326" height="35" rx="5" transform="translate(-10045 -8516)" fill="#c7c7d3"/>
    <path id="Trazado_102378" data-name="Trazado 102378" d="M-10478.529-10767.008v25.965" transform="translate(373.529 2114.043)" fill="none" stroke="#707070" stroke-width="1"/>
    <path id="Trazado_102379" data-name="Trazado 102379" d="M0,44.219V0" transform="translate(-10060.781 -8652.965) rotate(90)" fill="none" stroke="#21214b" stroke-width="1"/>
    <path id="Trazado_102380" data-name="Trazado 102380" d="M0,44.219V0" transform="translate(-10060.781 -8577.035) rotate(90)" fill="none" stroke="#21214b" stroke-width="1"/>
    <path id="Trazado_102381" data-name="Trazado 102381" d="M0,44.219V0" transform="translate(-10060.781 -8539.07) rotate(90)" fill="none" stroke="#21214b" stroke-width="1"/>
    <path id="Trazado_102382" data-name="Trazado 102382" d="M0,44.219V0" transform="translate(-10060.781 -8501.105) rotate(90)" fill="none" stroke="#21214b" stroke-width="1"/>
    <path id="Polígono_28" data-name="Polígono 28" d="M4,0,8,7H0Z" transform="translate(-10054.597 -8657) rotate(90)" fill="#31326f"/>
    <path id="Polígono_29" data-name="Polígono 29" d="M4,0,8,7H0Z" transform="translate(-10054.597 -8619) rotate(90)" fill="#31326f"/>
    <path id="Polígono_30" data-name="Polígono 30" d="M4,0,8,7H0Z" transform="translate(-10054.597 -8581) rotate(90)" fill="#31326f"/>
    <path id="Polígono_31" data-name="Polígono 31" d="M4,0,8,7H0Z" transform="translate(-10054.597 -8543) rotate(90)" fill="#31326f"/>
    <path id="Polígono_32" data-name="Polígono 32" d="M4,0,8,7H0Z" transform="translate(-10054.597 -8505) rotate(90)" fill="#31326f"/>
    <text id="Aprendizaje_basado_en_proyectos" data-name="Aprendizaje basado en proyectos" transform="translate(-10023 -8609)" fill="#12263f" font-size="17" font-family="Roboto-Regular, Roboto"><tspan x="0" y="0">Aprendizaje basado en proyectos</tspan></text>
    <text id="Aprendizaje_basado_en_lecciones" data-name="Aprendizaje basado en lecciones" transform="translate(-10023 -8570)" fill="#12263f" font-size="17" font-family="Roboto-Regular, Roboto"><tspan x="0" y="0">Aprendizaje basado en lecciones</tspan></text>
    <text id="Aprendizaje_por_indagación" data-name="Aprendizaje por indagación" transform="translate(-10023 -8495)" fill="#12263f" font-size="17" font-family="Roboto-Regular, Roboto"><tspan x="0" y="0">Aprendizaje por indagación</tspan></text>
    <text id="como-5" data-name="como" transform="translate(-10133 -8611)" fill="#12263f" font-size="17" font-family="Roboto-Regular, Roboto"><tspan x="0" y="0">como</tspan></text>
    <path id="Trazado_102383" data-name="Trazado 102383" d="M-10478.529-10767.008v102" transform="translate(373.529 2164.008)" fill="none" stroke="#707070" stroke-width="1"/>
    <path id="Trazado_102384" data-name="Trazado 102384" d="M-10259.59-10941.981v25.3" transform="translate(-21002.762 1644.59) rotate(90)" fill="none" stroke="#21214b" stroke-width="1"/>
    <path id="Trazado_102385" data-name="Trazado 102385" d="M-10385.43-10595l-167.551,103.656" transform="translate(-60 2109)" fill="none" stroke="#707070" stroke-width="1"/>
    <path id="Trazado_102386" data-name="Trazado 102386" d="M-10490.391-10595l-62.59,38.722" transform="translate(-165.059 2243)" fill="none" stroke="#707070" stroke-width="1"/>
    <rect id="Rectángulo_5374" data-name="Rectángulo 5374" width="149" height="47" rx="5" transform="translate(-10793 -8307)" fill="#fde39f"/>
    <text id="MAGISTRALES" transform="translate(-10777 -8277)" fill="#12263f" font-size="17" font-family="Roboto-Black, Roboto" font-weight="800"><tspan x="0" y="0">MAGISTRALES</tspan></text>
    <rect id="Rectángulo_5375" data-name="Rectángulo 5375" width="278" height="47" rx="5" transform="translate(-10510 -8307)" fill="#fde39f"/>
    <text id="INDIVIDUALES_O_AUTÓNOMAS" data-name="INDIVIDUALES O AUTÓNOMAS" transform="translate(-10491 -8277)" fill="#12263f" font-size="17" font-family="Roboto-Black, Roboto" font-weight="800"><tspan x="0" y="0">INDIVIDUALES O AUTÓNOMAS</tspan></text>
    <path id="Trazado_102387" data-name="Trazado 102387" d="M-10552.98-10595l167.551,103.656" transform="translate(249.371 2109)" fill="none" stroke="#707070" stroke-width="1"/>
    <path id="Trazado_102388" data-name="Trazado 102388" d="M-10552.98-10595l62.59,38.722" transform="translate(459.391 2243)" fill="none" stroke="#707070" stroke-width="1"/>
    <rect id="Rectángulo_5376" data-name="Rectángulo 5376" width="149" height="47" rx="5" transform="translate(-10102 -8307)" fill="#fde39f"/>
    <text id="GRUPALES" transform="translate(-10070 -8277)" fill="#12263f" font-size="17" font-family="Roboto-Black, Roboto" font-weight="800"><tspan x="0" y="0">GRUPALES</tspan></text>
    <path id="Trazado_102389" data-name="Trazado 102389" d="M-10259.59-10941.98v33.527" transform="translate(-115 2589.98)" fill="none" stroke="#21214b" stroke-width="1"/>
    <rect id="Rectángulo_5377" data-name="Rectángulo 5377" width="122" height="35" rx="5" transform="translate(-10782 -8112)" fill="#c7c7d3"/>
    <text id="Conferencia" transform="translate(-10774 -8088)" fill="#12263f" font-size="17" font-family="Roboto-Regular, Roboto"><tspan x="0" y="0">Conferencia</tspan></text>
    <rect id="Rectángulo_5378" data-name="Rectángulo 5378" width="122" height="35" rx="5" transform="translate(-10782 -8073)" fill="#c7c7d3"/>
    <text id="Conversación" transform="translate(-10774 -8049)" fill="#12263f" font-size="17" font-family="Roboto-Regular, Roboto"><tspan x="0" y="0">Conversación</tspan></text>
    <rect id="Rectángulo_5380" data-name="Rectángulo 5380" width="122" height="35" rx="5" transform="translate(-10782 -8034)" fill="#c7c7d3"/>
    <text id="Exposición" transform="translate(-10774 -8010)" fill="#12263f" font-size="17" font-family="Roboto-Regular, Roboto"><tspan x="0" y="0">Exposición</tspan></text>
    <rect id="Rectángulo_5381" data-name="Rectángulo 5381" width="122" height="35" rx="5" transform="translate(-10782 -7995)" fill="#c7c7d3"/>
    <text id="Explicación" transform="translate(-10774 -7971)" fill="#12263f" font-size="17" font-family="Roboto-Regular, Roboto"><tspan x="0" y="0">Explicación</tspan></text>
    <rect id="Rectángulo_5382" data-name="Rectángulo 5382" width="122" height="35" rx="5" transform="translate(-10782 -7956)" fill="#c7c7d3"/>
    <text id="Narración" transform="translate(-10774 -7932)" fill="#12263f" font-size="17" font-family="Roboto-Regular, Roboto"><tspan x="0" y="0">Narración</tspan></text>
    <rect id="Rectángulo_5383" data-name="Rectángulo 5383" width="191" height="35" rx="5" transform="translate(-10443 -8112)" fill="#c7c7d3"/>
    <text id="Trabajo_independiente" data-name="Trabajo independiente" transform="translate(-10435 -8088)" fill="#12263f" font-size="17" font-family="Roboto-Regular, Roboto"><tspan x="0" y="0">Trabajo independiente</tspan></text>
    <rect id="Rectángulo_5384" data-name="Rectángulo 5384" width="122" height="35" rx="5" transform="translate(-10443 -8073)" fill="#c7c7d3"/>
    <text id="Hipótesis" transform="translate(-10435 -8049)" fill="#12263f" font-size="17" font-family="Roboto-Regular, Roboto"><tspan x="0" y="0">Hipótesis</tspan></text>
    <rect id="Rectángulo_5385" data-name="Rectángulo 5385" width="122" height="35" rx="5" transform="translate(-10443 -8034)" fill="#c7c7d3"/>
    <text id="Síntesis" transform="translate(-10435 -8010)" fill="#12263f" font-size="17" font-family="Roboto-Regular, Roboto"><tspan x="0" y="0">Síntesis</tspan></text>
    <rect id="Rectángulo_5386" data-name="Rectángulo 5386" width="122" height="35" rx="5" transform="translate(-10443 -7995)" fill="#c7c7d3"/>
    <text id="Ensayos" transform="translate(-10435 -7971)" fill="#12263f" font-size="17" font-family="Roboto-Regular, Roboto"><tspan x="0" y="0">Ensayos</tspan></text>
    <rect id="Rectángulo_5387" data-name="Rectángulo 5387" width="153" height="35" rx="5" transform="translate(-10443 -7956)" fill="#c7c7d3"/>
    <text id="Estudios_de_caso" data-name="Estudios de caso" transform="translate(-10435 -7932)" fill="#12263f" font-size="17" font-family="Roboto-Regular, Roboto"><tspan x="0" y="0">Estudios de caso</tspan></text>
    <rect id="Rectángulo_5388" data-name="Rectángulo 5388" width="191" height="35" rx="5" transform="translate(-10443 -7917)" fill="#c7c7d3"/>
    <text id="Solución_de_problemas" data-name="Solución de problemas" transform="translate(-10435 -7893)" fill="#12263f" font-size="17" font-family="Roboto-Regular, Roboto"><tspan x="0" y="0">Solución de problemas</tspan></text>
    <rect id="Rectángulo_5389" data-name="Rectángulo 5389" width="122" height="35" rx="5" transform="translate(-10099 -8112)" fill="#c7c7d3"/>
    <text id="Simposio" transform="translate(-10091 -8088)" fill="#12263f" font-size="17" font-family="Roboto-Regular, Roboto"><tspan x="0" y="0">Simposio</tspan></text>
    <rect id="Rectángulo_5390" data-name="Rectángulo 5390" width="122" height="35" rx="5" transform="translate(-10099 -8073)" fill="#c7c7d3"/>
    <text id="Foro" transform="translate(-10091 -8049)" fill="#12263f" font-size="17" font-family="Roboto-Regular, Roboto"><tspan x="0" y="0">Foro</tspan></text>
    <rect id="Rectángulo_5391" data-name="Rectángulo 5391" width="122" height="35" rx="5" transform="translate(-10099 -8034)" fill="#c7c7d3"/>
    <text id="Panel" transform="translate(-10091 -8010)" fill="#12263f" font-size="17" font-family="Roboto-Regular, Roboto"><tspan x="0" y="0">Panel</tspan></text>
    <rect id="Rectángulo_5392" data-name="Rectángulo 5392" width="137" height="35" rx="5" transform="translate(-10099 -7995)" fill="#c7c7d3"/>
    <text id="Mesa_redonda" data-name="Mesa redonda" transform="translate(-10091 -7971)" fill="#12263f" font-size="17" font-family="Roboto-Regular, Roboto"><tspan x="0" y="0">Mesa redonda</tspan></text>
    <rect id="Rectángulo_5393" data-name="Rectángulo 5393" width="137" height="35" rx="5" transform="translate(-10099 -7956)" fill="#c7c7d3"/>
    <text id="Lluvia_de_ideas" data-name="Lluvia de ideas" transform="translate(-10091 -7932)" fill="#12263f" font-size="17" font-family="Roboto-Regular, Roboto"><tspan x="0" y="0">Lluvia de ideas</tspan></text>
    <rect id="Rectángulo_5394" data-name="Rectángulo 5394" width="137" height="35" rx="5" transform="translate(-10099 -7917)" fill="#c7c7d3"/>
    <text id="Juego_de_roles" data-name="Juego de roles" transform="translate(-10091 -7893)" fill="#12263f" font-size="17" font-family="Roboto-Regular, Roboto"><tspan x="0" y="0">Juego de roles</tspan></text>
    <rect id="Rectángulo_5395" data-name="Rectángulo 5395" width="137" height="35" rx="5" transform="translate(-10099 -7878)" fill="#c7c7d3"/>
    <text id="Entrevistas" transform="translate(-10091 -7854)" fill="#12263f" font-size="17" font-family="Roboto-Regular, Roboto"><tspan x="0" y="0">Entrevistas</tspan></text>
    <path id="Trazado_102390" data-name="Trazado 102390" d="M-10259.59-10941.98v49.883" transform="translate(-468.91 2690.945)" fill="none" stroke="#21214b" stroke-width="1"/>
    <path id="Trazado_102391" data-name="Trazado 102391" d="M-10259.59-10941.98v49.883" transform="translate(-114.91 2690.945)" fill="none" stroke="#21214b" stroke-width="1"/>
    <path id="Trazado_102392" data-name="Trazado 102392" d="M-10259.59-10941.98v49.883" transform="translate(229.09 2690.945)" fill="none" stroke="#21214b" stroke-width="1"/>
    <path id="Polígono_33" data-name="Polígono 33" d="M4,0,8,7H0Z" transform="translate(-10370.5 -8197.652) rotate(180)" fill="#31326f"/>
    <path id="Polígono_34" data-name="Polígono 34" d="M4,0,8,7H0Z" transform="translate(-10724.5 -8197.652) rotate(180)" fill="#31326f"/>
    <path id="Polígono_35" data-name="Polígono 35" d="M4,0,8,7H0Z" transform="translate(-10026.5 -8197.652) rotate(180)" fill="#31326f"/>
    <path id="Polígono_36" data-name="Polígono 36" d="M4,0,8,7H0Z" transform="translate(-10370.5 -8523.652) rotate(180)" fill="#31326f"/>
    <path id="Polígono_37" data-name="Polígono 37" d="M4,0,8,7H0Z" transform="translate(-10370.5 -8381.465) rotate(180)" fill="#31326f"/>
    <path id="Polígono_38" data-name="Polígono 38" d="M4,0,8,7H0Z" transform="translate(-10370.5 -8312.652) rotate(180)" fill="#31326f"/>
    <path id="Trazado_102393" data-name="Trazado 102393" d="M6.095,51.4a.458.458,0,0,1,.457.459v4.722a.459.459,0,0,1-.917,0V51.856a.459.459,0,0,1,.46-.456Z" transform="translate(-10161.194 -8749.852)" fill="#fff"/>
    <path id="Trazado_102394" data-name="Trazado 102394" d="M6.1,48.256a.459.459,0,0,1,.458.459v.236a.459.459,0,1,1-.917,0v-.24a.458.458,0,0,1,.459-.455Z" transform="translate(-10156.245 -8754.472)" fill="#fff"/>
    <g id="diagrama" transform="translate(-9938.894 -8772)">
      <g id="Grupo_57349" data-name="Grupo 57349" transform="translate(9.901 3.226)">
        <ellipse id="Elipse_1430" data-name="Elipse 1430" cx="5.5" cy="6" rx="5.5" ry="6" transform="translate(58.099 -0.438)" fill="#ff826e"/>
        <circle id="Elipse_1431" data-name="Elipse 1431" cx="5.5" cy="5.5" r="5.5" transform="translate(29.099 24.562)" fill="#ff826e"/>
        <ellipse id="Elipse_1432" data-name="Elipse 1432" cx="5.5" cy="6" rx="5.5" ry="6" transform="translate(0.099 48.562)" fill="#ff826e"/>
      </g>
      <path id="Trazado_102321" data-name="Trazado 102321" d="M74.793,48.2v8.4l-3.485.9a20.19,20.19,0,0,1-1.932,4.675l1.834,3.094L65.261,71.2l-3.094-1.82a20.19,20.19,0,0,1-4.675,1.932l-.9,3.485H48.2l-.9-3.485a20.19,20.19,0,0,1-4.675-1.932L39.533,71.2l-5.949-5.935,1.834-3.094a20.19,20.19,0,0,1-1.932-4.675L30,56.6V48.2l3.485-.9A21.613,21.613,0,0,1,34.7,44h6.5a14,14,0,1,0,11.2-5.6,14.059,14.059,0,0,0-5.6,1.162V30h9.8l.9,3.485a20.191,20.191,0,0,1,4.675,1.932l3.094-1.834,5.949,5.949-1.834,3.094A20.191,20.191,0,0,1,71.308,47.3Z" transform="translate(11.594 11.594)" fill="#ffc729"/>
      <path id="Trazado_102322" data-name="Trazado 102322" d="M50,36a14,14,0,1,1-11.2,5.6h2.8a2.808,2.808,0,0,0,2.8-2.8V37.162A14.059,14.059,0,0,1,50,36Zm5.6,14A5.6,5.6,0,1,0,50,55.6,5.6,5.6,0,0,0,55.6,50Z" transform="translate(13.993 13.993)" fill="#fcd770"/>
      <path id="Trazado_102323" data-name="Trazado 102323" d="M70,12.8V24a2.808,2.808,0,0,1-2.8,2.8H44.8A2.808,2.808,0,0,1,42,24V12.8A2.808,2.808,0,0,1,44.8,10H67.2A2.808,2.808,0,0,1,70,12.8Z" transform="translate(16.391 3.598)" fill="#e6e9ed"/>
      <path id="Trazado_102324" data-name="Trazado 102324" d="M50,30.8V42a2.808,2.808,0,0,1-2.8,2.8H24.8A2.808,2.808,0,0,1,22,42V30.8A2.808,2.808,0,0,1,24.8,28H47.2A2.808,2.808,0,0,1,50,30.8Z" transform="translate(8.396 10.794)" fill="#e6e9ed"/>
      <path id="Trazado_102325" data-name="Trazado 102325" d="M2,60V48.8A2.808,2.808,0,0,1,4.8,46H27.2A2.808,2.808,0,0,1,30,48.8V60a2.808,2.808,0,0,1-2.8,2.8H4.8A2.808,2.808,0,0,1,2,60Z" transform="translate(0.4 17.991)" fill="#e6e9ed"/>
      <path id="Trazado_102326" data-name="Trazado 102326" d="M61.191,12.2a4.2,4.2,0,0,0-4.2,4.2V27.6a4.2,4.2,0,0,0,4.2,4.2h22.4a4.2,4.2,0,0,0,4.2-4.2V16.4a4.2,4.2,0,0,0-4.2-4.2H77.952A6.927,6.927,0,0,0,79.388,8,7,7,0,0,0,65.532,6.6H49.993a7.007,7.007,0,0,0-7,7v12.74A7.021,7.021,0,0,0,37.536,31.8H22a7.007,7.007,0,0,0-7,7v12.74a7.012,7.012,0,0,0-5.6,6.858,6.927,6.927,0,0,0,1.436,4.2H5.2A4.2,4.2,0,0,0,1,66.79v11.2a4.2,4.2,0,0,0,4.2,4.2H27.6a4.2,4.2,0,0,0,4.2-4.2V66.79a4.2,4.2,0,0,0-4.2-4.2H21.96a6.927,6.927,0,0,0,1.436-4.2,7.012,7.012,0,0,0-5.6-6.858V38.794A4.2,4.2,0,0,1,22,34.6H37.536a6.95,6.95,0,0,0,1.293,2.8H33.2a4.2,4.2,0,0,0-4.2,4.2v11.2a4.2,4.2,0,0,0,4.2,4.2h11.03c-.088.248-.182.493-.26.745l-3.771.97v10.57l3.771.969a20.908,20.908,0,0,0,1.442,3.488L43.426,77.08,50.9,84.555l3.347-1.979a20.9,20.9,0,0,0,3.49,1.442l.967,3.77H69.276l.967-3.77a21.07,21.07,0,0,0,3.49-1.442l3.347,1.979,7.475-7.475-1.981-3.347a20.908,20.908,0,0,0,1.442-3.488l3.771-.97V58.705l-3.771-.969a20.908,20.908,0,0,0-1.442-3.488L84.555,50.9,77.08,43.426l-3.347,1.981a20.805,20.805,0,0,0-3.49-1.442l-.967-3.771H59.534a4.194,4.194,0,0,0-3.942-2.8H49.956a6.927,6.927,0,0,0,1.436-4.2,7.012,7.012,0,0,0-5.6-6.858V13.6a4.2,4.2,0,0,1,4.2-4.2H65.532a6.95,6.95,0,0,0,1.293,2.8ZM29,66.79v11.2a1.4,1.4,0,0,1-1.4,1.4H5.2a1.4,1.4,0,0,1-1.4-1.4V66.79a1.4,1.4,0,0,1,1.4-1.4H27.6A1.4,1.4,0,0,1,29,66.79Zm-8.4-8.4a4.2,4.2,0,1,1-4.2-4.2A4.2,4.2,0,0,1,20.6,58.391ZM67.934,46.227l.788.211a18.1,18.1,0,0,1,4.337,1.792l.708.409,2.868-1.7,4.4,4.4-1.7,2.871.409.708a18,18,0,0,1,1.792,4.335l.213.788,3.232.829V67.1l-3.232.83-.213.788a18.058,18.058,0,0,1-1.792,4.335l-.409.708,1.7,2.871-4.4,4.4-2.868-1.7-.708.409a18.028,18.028,0,0,1-4.335,1.792l-.789.211-.83,3.234H60.878l-.83-3.234-.789-.211a18.084,18.084,0,0,1-4.335-1.792l-.708-.409-2.868,1.7-4.4-4.4,1.7-2.871-.409-.708a18,18,0,0,1-1.792-4.335l-.213-.788-3.232-.829V60.878l3.232-.83.213-.788a18.156,18.156,0,0,1,.791-2.266h3.046a15.491,15.491,0,1,0,9.516-7.8v-6.2H67.1Zm-8.143,6.565v-.669a12.606,12.606,0,1,1-6.267,4.868h2.067A4.2,4.2,0,0,0,59.791,52.792Zm-2.8-11.2v11.2a1.4,1.4,0,0,1-1.4,1.4H33.2a1.4,1.4,0,0,1-1.4-1.4v-11.2a1.4,1.4,0,0,1,1.4-1.4h22.4A1.4,1.4,0,0,1,56.992,41.594Zm-8.4-8.4a4.2,4.2,0,1,1-4.2-4.2A4.2,4.2,0,0,1,48.593,33.2ZM84.988,16.4V27.6a1.4,1.4,0,0,1-1.4,1.4h-22.4a1.4,1.4,0,0,1-1.4-1.4V16.4a1.4,1.4,0,0,1,1.4-1.4h22.4A1.4,1.4,0,0,1,84.988,16.4ZM68.19,8a4.2,4.2,0,1,1,4.2,4.2A4.2,4.2,0,0,1,68.19,8Z" transform="translate(0 0)"/>
      <path id="Trazado_102327" data-name="Trazado 102327" d="M45,13H64.6v2.8H45Z" transform="translate(17.591 4.798)"/>
      <path id="Trazado_102328" data-name="Trazado 102328" d="M45,17H64.6v2.8H45Z" transform="translate(17.591 6.397)"/>
      <path id="Trazado_102329" data-name="Trazado 102329" d="M25,31H44.6v2.8H25Z" transform="translate(9.595 11.994)"/>
      <path id="Trazado_102330" data-name="Trazado 102330" d="M25,35H44.6v2.8H25Z" transform="translate(9.595 13.593)"/>
      <path id="Trazado_102331" data-name="Trazado 102331" d="M5,49H24.6v2.8H5Z" transform="translate(1.599 19.19)"/>
      <path id="Trazado_102332" data-name="Trazado 102332" d="M5,53H24.6v2.8H5Z" transform="translate(1.599 20.789)"/>
      <path id="Trazado_102333" data-name="Trazado 102333" d="M48,55a7,7,0,1,0-7-7A7.007,7.007,0,0,0,48,55Zm0-11.2A4.2,4.2,0,1,1,43.8,48,4.2,4.2,0,0,1,48,43.8Z" transform="translate(15.992 15.992)"/>
    </g>
    <g id="idea" transform="translate(-10975.33 -8766)">
      <g id="Grupo_57350" data-name="Grupo 57350" transform="translate(84.044 1.215)">
        <path id="Trazado_102334" data-name="Trazado 102334" d="M117.127,7.512a26.79,26.79,0,0,1,13.164,50.12,3.455,3.455,0,0,0-1.994,3.185v6.559l-11.656,1.457-10.684-1.457V60.817a3.62,3.62,0,0,0-2-3.19A26.79,26.79,0,0,1,117.127,7.512Z" transform="translate(-90.341 -7.512)" fill="#fff9df" fill-rule="evenodd"/>
        <path id="Trazado_102335" data-name="Trazado 102335" d="M243.786,7.512a26.79,26.79,0,0,1,13.164,50.12,3.455,3.455,0,0,0-1.994,3.185v6.559h-4.707V60.817a3.454,3.454,0,0,1,1.994-3.185A26.792,26.792,0,0,0,241.43,7.613c.779-.064,1.563-.1,2.356-.1Z" transform="translate(-217 -7.512)" fill="#fff3bf" fill-rule="evenodd"/>
        <path id="Trazado_102336" data-name="Trazado 102336" d="M209.259,430.539a11.17,11.17,0,0,1-22.34,0l11.248-.944Z" transform="translate(-171.303 -361.348)" fill="#90d8f9" fill-rule="evenodd"/>
        <path id="Trazado_102337" data-name="Trazado 102337" d="M254.956,435.434a11.166,11.166,0,0,1-13.526,10.918,11.173,11.173,0,0,0,8.819-10.918h4.707Z" transform="translate(-217 -366.243)" fill="#6bbef6" fill-rule="evenodd"/>
        <path id="Trazado_102338" data-name="Trazado 102338" d="M186.919,377.75h22.34v9.327h-22.34Z" transform="translate(-171.303 -317.886)" fill="#365e7d" fill-rule="evenodd"/>
        <path id="Trazado_102339" data-name="Trazado 102339" d="M139.145,62.73a4.25,4.25,0,0,1,4.24,4.235,4.237,4.237,0,0,1,8.475,0v1.32a4.71,4.71,0,0,1,8.026,4.922,6.782,6.782,0,0,1,0,13.2,4.711,4.711,0,0,1-8.026,4.923v1.32a4.237,4.237,0,1,1-8.475,0,4.237,4.237,0,1,1-8.475,0v-1.32a4.71,4.71,0,0,1-8.025-4.923,6.782,6.782,0,0,1,0-13.2,4.71,4.71,0,0,1,8.025-4.922v-1.32a4.249,4.249,0,0,1,4.235-4.236Z" transform="translate(-116.599 -53.802)" fill="#fca7ac" fill-rule="evenodd"/>
        <path id="Trazado_102340" data-name="Trazado 102340" d="M295.97,377.75h4.707v9.327H295.97Z" transform="translate(-262.721 -317.886)" fill="#2b4d66" fill-rule="evenodd"/>
      </g>
      <path id="Trazado_102341" data-name="Trazado 102341" d="M106.59,8.928a5.451,5.451,0,0,1,4.24,2.03,5.454,5.454,0,0,1,9.543,2.159l.06-.032a5.919,5.919,0,0,1,8.5,6.8,7.993,7.993,0,0,1,0,14.676,5.958,5.958,0,0,1,.215,1.582,5.916,5.916,0,0,1-8.777,5.184,5.472,5.472,0,0,1-1.453,2.59,5.561,5.561,0,0,1-1.036.816l-2.833,15.135h5.738V54.52a4.56,4.56,0,0,1,.72-2.549,5.282,5.282,0,0,1,1.911-1.7A25.575,25.575,0,0,0,128.6,9.6a1.207,1.207,0,1,1,1.673-1.742,27.99,27.99,0,0,1-5.656,44.51,3.039,3.039,0,0,0-1.077.926,2.188,2.188,0,0,0-.325,1.224V70.406a12.385,12.385,0,0,1-24.769,0V54.52a2.145,2.145,0,0,0-.325-1.174,2.879,2.879,0,0,0-1.072-.972q-1.141-.646-2.237-1.416T92.7,49.327a1.206,1.206,0,1,1,1.563-1.838c.614.523,1.256,1.018,1.934,1.49s1.352.9,2.058,1.3a5.322,5.322,0,0,1,1.916,1.783,4.558,4.558,0,0,1,.7,2.461v5.344h5.739l-2.833-15.135a5.566,5.566,0,0,1-1.036-.816,5.471,5.471,0,0,1-1.453-2.59l-.059.032a5.919,5.919,0,0,1-8.5-6.8,8,8,0,0,1,0-14.676A5.96,5.96,0,0,1,92.51,18.3a5.916,5.916,0,0,1,8.777-5.184,5.469,5.469,0,0,1,5.3-4.189Zm8.686,36.58a5.467,5.467,0,0,1-4.446-2.026,5.467,5.467,0,0,1-4.446,2.026l2.686,14.355h3.52Zm5.514,23.683v-6.9H100.87v6.9h7.214a1.212,1.212,0,0,1,0,2.425h-7.141a9.961,9.961,0,0,0,19.773,0h-7.141a1.212,1.212,0,0,1,0-2.425ZM90.635,43.7a1.206,1.206,0,1,1-1.9,1.485,27.995,27.995,0,0,1,37.034-40.87,1.21,1.21,0,0,1-1.288,2.049A25.581,25.581,0,0,0,90.635,43.7Zm34.554-10.46a3.5,3.5,0,0,0-1.962-.6,3.314,3.314,0,0,0-1.077.17,1.212,1.212,0,0,1-.752-2.305,6.192,6.192,0,0,1,1.829-.289,5.9,5.9,0,0,1,3.318,1.018,5.816,5.816,0,0,1,1.274,1.169,5.573,5.573,0,0,0-.765-10.606,1.212,1.212,0,0,1-.908-1.453,1.155,1.155,0,0,1,.16-.376,3.683,3.683,0,0,0,.307-.774,3.5,3.5,0,1,0-6.88-.894,3.459,3.459,0,0,0,.569,1.916,3.512,3.512,0,0,0,1.531,1.3,1.208,1.208,0,0,1-.967,2.214,5.9,5.9,0,0,1-3.2-7.439,5.678,5.678,0,0,1,.431-.926v-.985a3.036,3.036,0,0,0-3.025-3.025,3.036,3.036,0,0,0-3.025,3.025V26.91a3.025,3.025,0,0,0,6.05,0,1.212,1.212,0,1,1,2.425,0,5.45,5.45,0,0,1-8.475,4.533v8.621a3.025,3.025,0,0,0,6.05,0v-1.32a1.211,1.211,0,0,1,2.26-.61,3.457,3.457,0,0,0,1.224,1.091,3.5,3.5,0,0,0,3.612-5.982ZM93.839,32.4a5.821,5.821,0,0,1,1.274-1.169,5.9,5.9,0,0,1,3.318-1.018,6.192,6.192,0,0,1,1.829.289,1.212,1.212,0,0,1-.752,2.305,3.314,3.314,0,0,0-1.077-.17,3.5,3.5,0,1,0,1.65,6.582,3.457,3.457,0,0,0,1.224-1.091,1.211,1.211,0,0,1,2.259.61v1.32a3.025,3.025,0,0,0,6.05,0V31.442a5.455,5.455,0,0,1-8.475-4.533,1.212,1.212,0,1,1,2.425,0,3.025,3.025,0,0,0,6.05,0V14.378a3.025,3.025,0,0,0-6.05,0v.985a5.664,5.664,0,0,1,.431.926,5.909,5.909,0,0,1-3.2,7.439,1.208,1.208,0,0,1-.967-2.214,3.515,3.515,0,0,0,1.531-1.3,3.553,3.553,0,0,0,.367-3.108A3.5,3.5,0,0,0,95.045,19.2c.119.44.38.788.468,1.15A1.212,1.212,0,0,1,94.6,21.8,5.574,5.574,0,0,0,93.839,32.4Z"/>
    </g>
    <g id="formacion" transform="translate(-10758.631 -8189.631)">
      <g id="Grupo_57133" data-name="Grupo 57133" transform="translate(4.176 2.059)">
        <g id="Grupo_57113" data-name="Grupo 57113" transform="translate(44.46 6.351)">
          <path id="Trazado_101414" data-name="Trazado 101414" d="M62.937,10.117v8.468A2.123,2.123,0,0,1,60.82,20.7H56.586l-3.8,3.8a1.5,1.5,0,0,1-2.551-1.059V20.7H48.117A2.123,2.123,0,0,1,46,18.586V10.117A2.123,2.123,0,0,1,48.117,8h12.7A2.123,2.123,0,0,1,62.937,10.117Z" transform="translate(-46 -8)" fill="#e6e9ed"/>
        </g>
        <g id="Grupo_57114" data-name="Grupo 57114" transform="translate(0 52.918)">
          <path id="Trazado_101415" data-name="Trazado 101415" d="M13.887,52.72l.7,1.4-3.451,1.154A4.21,4.21,0,0,0,8.34,58.363l-.074-.011H6.117A2.123,2.123,0,0,1,4,56.235V52h9.527l.021-.011c.106.243.222.487.339.73Z" transform="translate(-4 -51.99)" fill="#ccd1d9"/>
        </g>
        <g id="Grupo_57115" data-name="Grupo 57115" transform="translate(16.937 52.918)">
          <path id="Trazado_101416" data-name="Trazado 101416" d="M30.586,52v4.234a2.123,2.123,0,0,1-2.117,2.117H26.32l-.074.011a4.21,4.21,0,0,0-2.795-3.091L20,54.118l.7-1.4c.116-.243.233-.487.339-.73l.021.011Z" transform="translate(-20 -51.99)" fill="#ccd1d9"/>
        </g>
        <g id="Grupo_57116" data-name="Grupo 57116" transform="translate(31.757 52.928)">
          <path id="Trazado_101417" data-name="Trazado 101417" d="M42.468,52v2.117l-1.895.942a4.268,4.268,0,0,0-2.308,3.292H36.117A2.123,2.123,0,0,1,34,56.234V52Z" transform="translate(-34 -52)" fill="#ccd1d9"/>
        </g>
        <g id="Grupo_57117" data-name="Grupo 57117" transform="translate(50.811 52.928)">
          <path id="Trazado_101418" data-name="Trazado 101418" d="M60.468,52v4.234a2.123,2.123,0,0,1-2.117,2.117H56.2a4.268,4.268,0,0,0-2.308-3.292L52,54.117V52Z" transform="translate(-52 -52)" fill="#ccd1d9"/>
        </g>
        <g id="Grupo_57118" data-name="Grupo 57118" transform="translate(4.404 24.146)">
          <path id="Trazado_101419" data-name="Trazado 101419" d="M46.956,27.986a7.926,7.926,0,0,0-4.6-2.255l-3-.37a3.322,3.322,0,0,1-.91-.254l-.815,7.315L33.4,28.187l-4.234,4.234L28.336,25a3.445,3.445,0,0,1-.815.233,20.413,20.413,0,0,0-3.652.836,18.881,18.881,0,0,0-5.981,3.9A5.03,5.03,0,0,0,17,28.9L12.4,24.81l-.18.2L8.16,29.076l5.293,4.764a6.824,6.824,0,0,0,7.622,1.037l2.763-1.387a2.851,2.851,0,0,1,.032.423V47.241H49.275V33.575A7.909,7.909,0,0,0,46.956,27.986Z" transform="translate(-8.16 -24.81)" fill="#b4dd7f"/>
        </g>
        <g id="Grupo_57119" data-name="Grupo 57119" transform="translate(0 38.108)">
          <path id="Trazado_101420" data-name="Trazado 101420" d="M31.523,40.117v12.7H22l-.021-.011a13.47,13.47,0,0,0,1.08-5.282,5.293,5.293,0,1,0-10.586,0,13.47,13.47,0,0,0,1.08,5.282l-.021.011H4v-12.7A2.123,2.123,0,0,1,6.117,38H29.405a2.123,2.123,0,0,1,2.117,2.117Z" transform="translate(-4 -38)" fill="#69d6f4"/>
        </g>
        <g id="Grupo_57120" data-name="Grupo 57120" transform="translate(31.757 38.108)">
          <path id="Trazado_101421" data-name="Trazado 101421" d="M61.523,40.117v12.7H53.054V47.527a5.293,5.293,0,1,0-10.586,0V52.82H34v-12.7A2.123,2.123,0,0,1,36.117,38H59.405A2.123,2.123,0,0,1,61.523,40.117Z" transform="translate(-34 -38)" fill="#69d6f4"/>
        </g>
        <g id="Grupo_57121" data-name="Grupo 57121" transform="translate(35.991 55.045)">
          <path id="Trazado_101422" data-name="Trazado 101422" d="M57.054,58.732v3.737H38V58.732a3.925,3.925,0,0,1,.032-.5,4.268,4.268,0,0,1,2.308-3.292L42.234,54v4.234H52.82V54l1.895.942a4.268,4.268,0,0,1,2.308,3.292A3.923,3.923,0,0,1,57.054,58.732Z" transform="translate(-38 -54)" fill="#fcd770"/>
        </g>
        <g id="Grupo_57122" data-name="Grupo 57122" transform="translate(4.234 55.045)">
          <path id="Trazado_101423" data-name="Trazado 101423" d="M27.054,59.166v3.3H8v-3.3a3.781,3.781,0,0,1,.106-.921A4.21,4.21,0,0,1,10.9,55.154L14.351,54H20.7l3.451,1.154a4.21,4.21,0,0,1,2.795,3.091A3.781,3.781,0,0,1,27.054,59.166Z" transform="translate(-8 -54)" fill="#ff826e"/>
        </g>
        <g id="Grupo_57123" data-name="Grupo 57123" transform="translate(8.468 42.342)">
          <path id="Trazado_101424" data-name="Trazado 101424" d="M22.586,47.293a13.47,13.47,0,0,1-1.08,5.282c-.106.243-.222.487-.339.73l-.7,1.4H14.117l-.7-1.4c-.116-.243-.233-.487-.339-.73A13.47,13.47,0,0,1,12,47.293a5.293,5.293,0,1,1,10.586,0Z" transform="translate(-12 -42)" fill="#b27946"/>
        </g>
        <g id="Grupo_57124" data-name="Grupo 57124" transform="translate(40.225 42.342)">
          <path id="Trazado_101425" data-name="Trazado 101425" d="M52.586,54.7v4.234H42V47.293a5.293,5.293,0,0,1,10.586,0V54.7Z" transform="translate(-42 -42)" fill="#b27946"/>
        </g>
        <g id="Grupo_57125" data-name="Grupo 57125" transform="translate(24.58 23.13)">
          <path id="Trazado_101426" data-name="Trazado 101426" d="M28.617,23.85l3.663,4.393-4.234,4.234-.826-7.421A3.105,3.105,0,0,0,28.617,23.85Z" transform="translate(-27.22 -23.85)" fill="#a0d468"/>
        </g>
        <g id="Grupo_57126" data-name="Grupo 57126" transform="translate(29.64 23.172)">
          <path id="Trazado_101427" data-name="Trazado 101427" d="M37.049,25.16l-.815,7.315L32,28.241l3.62-4.351A3.324,3.324,0,0,0,37.049,25.16Z" transform="translate(-32 -23.89)" fill="#a0d468"/>
        </g>
        <g id="Grupo_57127" data-name="Grupo 57127" transform="translate(35.621 10.586)">
          <path id="Trazado_101428" data-name="Trazado 101428" d="M40.921,12.593a3.175,3.175,0,0,1-1.842,5.759H37.65a6.143,6.143,0,0,0,.37-2.117V12h1.059a3.16,3.16,0,0,1,1.842.593Z" transform="translate(-37.65 -12)" fill="#f0d0b4"/>
        </g>
        <g id="Grupo_57128" data-name="Grupo 57128" transform="translate(19.054)">
          <path id="Trazado_101429" data-name="Trazado 101429" d="M43.171,9.05a7.037,7.037,0,0,1-1.334,4.128A3.16,3.16,0,0,0,40,12.586H38.937V10.468h-.561A19.979,19.979,0,0,1,29.41,8.351l-.275.1a4.221,4.221,0,0,0-2.9,4.012v.127H25.176a3.16,3.16,0,0,0-1.842.593A7.052,7.052,0,0,1,29.05,2h7.071a7.048,7.048,0,0,1,7.05,7.05Z" transform="translate(-22 -2)" fill="#656d78"/>
        </g>
        <g id="Grupo_57129" data-name="Grupo 57129" transform="translate(23.288 6.351)">
          <path id="Trazado_101430" data-name="Trazado 101430" d="M38.7,12.234v4.234a6.143,6.143,0,0,1-.37,2.117,6.366,6.366,0,0,1-2.805,3.387,6.378,6.378,0,0,1-6.351,0,6.494,6.494,0,0,1-1.313-1.016A6.414,6.414,0,0,1,26,16.468V12.107A4.221,4.221,0,0,1,28.9,8.1l.275-.1a19.979,19.979,0,0,0,8.966,2.117H38.7Z" transform="translate(-26 -8)" fill="#f0d0b4"/>
        </g>
        <g id="Grupo_57130" data-name="Grupo 57130" transform="translate(25.977 20.324)">
          <path id="Trazado_101431" data-name="Trazado 101431" d="M35.823,24.048,32.2,28.4,28.54,24.005a3.225,3.225,0,0,0,.487-1.694V21.2a6.378,6.378,0,0,0,6.351,0v1.217A3.22,3.22,0,0,0,35.823,24.048Z" transform="translate(-28.54 -21.2)" fill="#f0d0b4"/>
        </g>
        <g id="Grupo_57131" data-name="Grupo 57131" transform="translate(19.054 10.586)">
          <path id="Trazado_101432" data-name="Trazado 101432" d="M26.6,18.351H25.176a3.174,3.174,0,0,1-2.244-5.42,2.437,2.437,0,0,1,.4-.339A3.16,3.16,0,0,1,25.176,12h1.059v4.234A6.143,6.143,0,0,0,26.6,18.351Z" transform="translate(-22 -12)" fill="#f0d0b4"/>
        </g>
        <g id="Grupo_57132" data-name="Grupo 57132" transform="translate(1.059 21.171)">
          <path id="Trazado_101433" data-name="Trazado 101433" d="M12.59,24.975l-.18.2L8.345,29.241,5.974,27.1A2.925,2.925,0,0,1,7.932,22h.191a2.938,2.938,0,0,1,1.948.741Z" transform="translate(-5 -22)" fill="#f0d0b4"/>
        </g>
      </g>
      <g id="Grupo_57134" data-name="Grupo 57134" transform="translate(1 1)">
        <path id="Trazado_101434" data-name="Trazado 101434" d="M60.279,62.4h1.059a3.18,3.18,0,0,0,3.176-3.176V42.284a3.18,3.18,0,0,0-3.176-3.176H50.752V34.973a8.907,8.907,0,0,0-2.626-6.34A9.006,9.006,0,0,0,42.9,26.077L39.9,25.7a2.12,2.12,0,0,1-1.855-2.1v-.651a7.449,7.449,0,0,0,2.451-2.9h.725a4.239,4.239,0,0,0,4.234-4.234,4.2,4.2,0,0,0-1.048-2.758A8.083,8.083,0,0,0,37.348,1H30.282a8.082,8.082,0,0,0-7.063,12.062,4.2,4.2,0,0,0-1.048,2.758,4.239,4.239,0,0,0,4.234,4.234h.725a7.449,7.449,0,0,0,2.451,2.9v.539a2.1,2.1,0,0,1-1.786,2.09,21.89,21.89,0,0,0-3.843.881,18.288,18.288,0,0,0-5.516,3.359c-.1-.108-.207-.217-.321-.318L11,23.179a3.977,3.977,0,0,0-2.649-1.008H8.164A3.988,3.988,0,0,0,5.5,29.124l7.667,6.9a7.891,7.891,0,0,0,8.807,1.192l1.26-.63v2.521H6.293a3.18,3.18,0,0,0-3.176,3.176V59.221A3.18,3.18,0,0,0,6.293,62.4H7.351v2.117H1v2.117H66.631V64.514H60.279Zm-45.268-7.16A12.448,12.448,0,0,1,13.7,49.694a4.234,4.234,0,1,1,8.468,0,12.448,12.448,0,0,1-1.308,5.543l-.4.809H15.415Zm7.745.947c.022-.044.037-.093.059-.139H30.64v3.176a1.06,1.06,0,0,1-1.059,1.059H28.117A5.272,5.272,0,0,0,24.9,57.251l-2.3-.765ZM28.523,62.4h1.059a3.18,3.18,0,0,0,3.176-3.176V49.694h2.117v9.527A3.18,3.18,0,0,0,38.05,62.4h1.059v2.117H28.523Zm14.82-5.947-1.308.654a5.259,5.259,0,0,0-2.688,3.176h-1.3a1.06,1.06,0,0,1-1.059-1.059V56.045h6.351Zm-2.117,5.388A3.158,3.158,0,0,1,42.98,59l.362-.181V62.4h12.7v-3.58l.362.181a3.158,3.158,0,0,1,1.755,2.84v2.676H41.225Zm4.234-1.558V49.694a4.234,4.234,0,1,1,8.469,0V60.279Zm15.878,0h-1.3A5.259,5.259,0,0,0,57.355,57.1l-1.309-.654v-.4H62.4v3.176A1.06,1.06,0,0,1,61.338,60.279Zm1.059-18V53.928H56.045V49.694a6.351,6.351,0,1,0-12.7,0v4.234H36.991V42.284a1.06,1.06,0,0,1,1.059-1.059H61.338A1.06,1.06,0,0,1,62.4,42.284ZM37.467,26.852c.086.071.178.133.269.2l-.5,4.46-1.993-1.993Zm3.758-8.915h-.085a7.437,7.437,0,0,0,.085-1.059V13.7a2.117,2.117,0,0,1,0,4.234Zm-14.82,0a2.117,2.117,0,1,1,0-4.234v3.176a7.438,7.438,0,0,0,.085,1.059Zm.089-6.351h-.089a4.169,4.169,0,0,0-1.448.272,5.99,5.99,0,0,1,5.326-8.741h7.066a5.99,5.99,0,0,1,5.325,8.741,4.164,4.164,0,0,0-1.448-.272V9.468H39.608a19.079,19.079,0,0,1-8.495-2.006l-.392-.2-.7.233A5.281,5.281,0,0,0,26.494,11.586Zm2.028,5.293V12.52a3.172,3.172,0,0,1,2.046-2.968,21.243,21.243,0,0,0,8.539,2.027v5.3a5.293,5.293,0,0,1-10.586,0Zm5.293,7.41a7.371,7.371,0,0,0,2.151-.321,4.222,4.222,0,0,0,.233,1.1l-2.384,2.86-2.414-2.9a4.23,4.23,0,0,0,.252-1.067A7.373,7.373,0,0,0,33.815,24.288Zm-3.7,2.5,2.27,2.724L30.39,31.509l-.507-4.561C29.959,26.9,30.042,26.85,30.114,26.792ZM6.293,26.16a1.873,1.873,0,0,1,1.872-1.872h.191a1.865,1.865,0,0,1,1.243.473l1.691,1.5-2.75,2.75L6.912,27.551a1.875,1.875,0,0,1-.619-1.391Zm17.685,5.849-1.5,1.5a2.55,2.55,0,0,1,.545.816l-2,1a5.883,5.883,0,0,1-6.443-.871l-4.466-4.019,2.76-2.76,3.836,3.41a3.662,3.662,0,0,1,1.227,2.733h2.117a5.767,5.767,0,0,0-.447-2.209,16.679,16.679,0,0,1,5.015-3.138,19.565,19.565,0,0,1,3.216-.746l.933,8.4,5.044-5.043,5.043,5.043.922-8.3,2.856.357a6.885,6.885,0,0,1,3.993,1.953,6.8,6.8,0,0,1,2.006,4.842v4.135H44.4v-3.8a2.575,2.575,0,0,1,.748-1.807l-1.5-1.5a4.639,4.639,0,0,0-1.369,3.3v3.8H38.05a3.18,3.18,0,0,0-3.176,3.176v5.293H32.757V42.284a3.18,3.18,0,0,0-3.176-3.176H25.347v-3.8A4.639,4.639,0,0,0,23.978,32.008ZM6.293,41.225H29.581a1.06,1.06,0,0,1,1.059,1.059V53.928H23.63a14.533,14.533,0,0,0,.658-4.234,6.351,6.351,0,1,0-12.7,0,14.533,14.533,0,0,0,.658,4.234H5.234V42.284A1.06,1.06,0,0,1,6.293,41.225Zm-1.059,18V56.045h7.824c.022.046.037.093.059.139l.151.3-2.3.765a5.273,5.273,0,0,0-3.213,3.029H6.293A1.06,1.06,0,0,1,5.234,59.221Zm4.234,3.052a3.174,3.174,0,0,1,2.171-3.014l3.292-1.1h6.012l3.291,1.1a3.174,3.174,0,0,1,2.171,3.014v2.241H9.468Z" transform="translate(-1 -1)"/>
        <path id="Trazado_101435" data-name="Trazado 101435" d="M49,11H59.586v2.117H49Z" transform="translate(1.811 -0.414)"/>
        <path id="Trazado_101436" data-name="Trazado 101436" d="M49,15H59.586v2.117H49Z" transform="translate(1.811 -0.18)"/>
        <path id="Trazado_101437" data-name="Trazado 101437" d="M60.878,7h-12.7A3.18,3.18,0,0,0,45,10.176v8.468a3.18,3.18,0,0,0,3.176,3.176h1.059V23.5A2.555,2.555,0,0,0,53.6,25.306l3.486-3.486h3.8a3.18,3.18,0,0,0,3.176-3.176V10.176A3.18,3.18,0,0,0,60.878,7Zm1.059,11.644A1.06,1.06,0,0,1,60.878,19.7H56.206L52.1,23.809a.455.455,0,0,1-.748-.31V19.7H48.176a1.06,1.06,0,0,1-1.059-1.059V10.176a1.06,1.06,0,0,1,1.059-1.059h12.7a1.06,1.06,0,0,1,1.059,1.059Z" transform="translate(1.577 -0.649)"/>
      </g>
    </g>
    <g id="desarrollo" transform="translate(-10064.582 -8189.631)">
      <path id="Trazado_102188" data-name="Trazado 102188" d="M42.586,36.1c0,2.339,1.418,4.234,3.176,4.234s3.176-1.895,3.176-4.234a5.346,5.346,0,0,0-.318-1.821,13.772,13.772,0,0,1,10.9,13.465v3.176H41.929A13.724,13.724,0,0,0,32,46.687a7.4,7.4,0,0,0,7.41-7.41,7.33,7.33,0,0,0-.773-3.3A20.741,20.741,0,0,1,42.9,34.28v.011A5.284,5.284,0,0,0,42.586,36.1Z" transform="translate(1.582 1.949)" fill="#e6e9ed"/>
      <path id="Trazado_102189" data-name="Trazado 102189" d="M11.494,36.61l4.033,8.881L19.762,40.2,24,45.491l2.138-4.69.159-.042a7.4,7.4,0,0,0,7.23,5.79,13.7,13.7,0,0,0-9.728,4.033l-.2.2H6V47.609a13.721,13.721,0,0,1,4.033-9.728A13.958,13.958,0,0,1,11.494,36.61Z" transform="translate(0.059 2.086)" fill="#e6e9ed"/>
      <path id="Trazado_102190" data-name="Trazado 102190" d="M24.575,35.069l-5.282,5.282L14,35.059A13.769,13.769,0,0,1,19.293,34,13.342,13.342,0,0,1,24.575,35.069Z" transform="translate(0.527 1.933)" fill="#f0d0b4"/>
      <path id="Trazado_102191" data-name="Trazado 102191" d="M25.351,39.234a7.373,7.373,0,0,0,.18,1.62l-.159.042-2.138,4.69L19,40.292l5.282-5.282a11.083,11.083,0,0,1,1.842.921A7.33,7.33,0,0,0,25.351,39.234Z" transform="translate(0.82 1.992)" fill="#ff826e"/>
      <path id="Trazado_102192" data-name="Trazado 102192" d="M19.457,40.293l-4.234,5.293L11.19,36.7A13.554,13.554,0,0,1,14.165,35Z" transform="translate(0.363 1.992)" fill="#ff826e"/>
      <path id="Trazado_102193" data-name="Trazado 102193" d="M24.293,62.846H19V59.67a13.7,13.7,0,0,1,3.832-9.527l.2-.2A13.763,13.763,0,0,1,26.22,47.56l6.542,15.286Z" transform="translate(0.82 2.727)" fill="#5cd6b3"/>
      <path id="Trazado_102194" data-name="Trazado 102194" d="M40.469,62.846H32L38.542,47.56a13.782,13.782,0,0,1,7.22,12.11v3.176Z" transform="translate(1.582 2.727)" fill="#5cd6b3"/>
      <path id="Trazado_102195" data-name="Trazado 102195" d="M38.9,47.651,32.362,62.937,25.82,47.651a13.784,13.784,0,0,1,13.084,0Z" transform="translate(1.22 2.636)" fill="#ccd1d9"/>
      <path id="Trazado_102196" data-name="Trazado 102196" d="M48.034,34.3a5.345,5.345,0,0,1,.318,1.821c0,2.339-1.418,4.234-3.176,4.234S42,38.457,42,36.117a5.284,5.284,0,0,1,.318-1.81V34.3a13.929,13.929,0,0,1,5.716,0Z" transform="translate(2.167 1.933)" fill="#f0d0b4"/>
      <path id="Trazado_102197" data-name="Trazado 102197" d="M32.41,8A7.41,7.41,0,1,1,25,15.41,7.4,7.4,0,0,1,32.41,8Zm3.176,7.41a3.176,3.176,0,1,0-3.176,3.176A3.171,3.171,0,0,0,35.586,15.41Z" transform="translate(1.172 0.41)" fill="#fcd770"/>
      <path id="Trazado_102198" data-name="Trazado 102198" d="M46.523,15.762v2.477l-1.98.476A12.432,12.432,0,0,1,43.3,21.8,7.378,7.378,0,0,0,39.4,26.421l-.36-.233A11.818,11.818,0,0,1,35.651,27.6l-.466,1.98H30.337l-.466-1.98a11.818,11.818,0,0,1-3.387-1.408l-.36.233A7.378,7.378,0,0,0,22.218,21.8a12.432,12.432,0,0,1-1.239-3.08L19,18.249V13.337l1.98-.466a11.818,11.818,0,0,1,1.408-3.387L21.318,7.748l3.43-3.43,1.736,1.069A11.818,11.818,0,0,1,29.872,3.98L30.337,2h4.848l.466,1.98a11.818,11.818,0,0,1,3.387,1.408l1.736-1.069,3.43,3.43L43.136,9.484a11.818,11.818,0,0,1,1.408,3.387l1.98.466Zm-6.351,0a7.41,7.41,0,1,0-7.41,7.41A7.4,7.4,0,0,0,40.172,15.762Z" transform="translate(0.82 0.059)" fill="#ffc729"/>
      <g id="Grupo_57341" data-name="Grupo 57341" transform="translate(12.41 21.113)">
        <path id="Trazado_102199" data-name="Trazado 102199" d="M38.286,25.367a7.378,7.378,0,0,1,3.906-4.626A7.3,7.3,0,0,1,45.41,20,7.41,7.41,0,1,1,38,27.41,7.218,7.218,0,0,1,38.286,25.367Z" transform="translate(-10.477 -20)" fill="#f0d0b4"/>
        <path id="Trazado_102200" data-name="Trazado 102200" d="M39.047,36.107a7.33,7.33,0,0,1,.773,3.3,7.41,7.41,0,0,1-14.82,0,7.33,7.33,0,0,1,.773-3.3,7.417,7.417,0,0,1,13.275,0Z" transform="translate(-11.238 -19.297)" fill="#f0d0b4"/>
        <path id="Trazado_102201" data-name="Trazado 102201" d="M26.534,25.367a7.218,7.218,0,0,1,.286,2.043A7.41,7.41,0,1,1,19.41,20a7.3,7.3,0,0,1,3.218.741,7.378,7.378,0,0,1,3.906,4.626Z" transform="translate(-12 -20)" fill="#f0d0b4"/>
      </g>
      <path id="Trazado_102202" data-name="Trazado 102202" d="M62.163,49.695A14.839,14.839,0,0,0,51.952,35.618a8.446,8.446,0,0,0-5.922-15.451c.059-.171.134-.339.186-.512L48.4,19.14V12.553l-2.183-.514a12.975,12.975,0,0,0-1.029-2.48L46.37,7.65,41.752,3.03,39.843,4.212a13.1,13.1,0,0,0-2.481-1.029L36.848,1H30.315L29.8,3.183A13.064,13.064,0,0,0,27.32,4.212L25.412,3.03,20.793,7.65l1.18,1.909a13.112,13.112,0,0,0-1.029,2.48l-2.183.516v6.588l2.184.514c.052.173.127.34.186.511a8.357,8.357,0,0,0-1.312-.113,8.462,8.462,0,0,0-4.609,15.563A14.839,14.839,0,0,0,5,49.695v4.234H21.437A14.726,14.726,0,0,0,18.762,62.4v4.234H48.4V62.4a14.726,14.726,0,0,0-2.675-8.469H62.163ZM49.46,38.05c0,1.721-.97,3.176-2.117,3.176s-2.117-1.454-2.117-3.176a4.248,4.248,0,0,1,.106-.893,11.972,11.972,0,0,1,4.026.011A4.3,4.3,0,0,1,49.46,38.05ZM33.582,47.577a6.351,6.351,0,1,1,6.351-6.351A6.358,6.358,0,0,1,33.582,47.577Zm-8.24-9.318c.09.043.181.084.27.129a8.1,8.1,0,0,0-.4,4.079l-1.41,3.1-2.566-3.206Zm8.24-5.5A8.466,8.466,0,0,0,26.56,36.5a14.8,14.8,0,0,0-2.129-.881,8.465,8.465,0,0,0,3.857-7.094c0-.2-.016-.39-.03-.582a13.267,13.267,0,0,0,1.542.571l.513,2.183h6.534l.513-2.183a13.267,13.267,0,0,0,1.542-.571c-.014.193-.03.385-.03.582a8.464,8.464,0,0,0,3.857,7.094A14.723,14.723,0,0,0,40.6,36.5a8.469,8.469,0,0,0-7.023-3.741Zm20.113-4.234a6.351,6.351,0,1,1-6.351-6.351A6.358,6.358,0,0,1,53.695,28.523ZM22.83,18.517l-.155-.63-1.8-.423V14.229l1.8-.422.155-.63a10.969,10.969,0,0,1,1.281-3.09l.336-.554-.972-1.57,2.249-2.249,1.57.972.554-.337a10.973,10.973,0,0,1,3.091-1.281l.63-.155.424-1.8h3.18l.422,1.8.63.155a11,11,0,0,1,3.091,1.281l.554.337,1.57-.972,2.249,2.249-.971,1.571.336.554a10.969,10.969,0,0,1,1.281,3.09l.155.63,1.8.423v3.235l-1.8.422-.155.63a10.909,10.909,0,0,1-1,2.549A8.523,8.523,0,0,0,39.557,25.2l-.241.146a10.973,10.973,0,0,1-3.091,1.281l-.63.155-.422,1.8h-3.18l-.422-1.8-.63-.155a10.993,10.993,0,0,1-3.091-1.281l-.241-.146a8.52,8.52,0,0,0-3.777-4.133A10.816,10.816,0,0,1,22.83,18.517ZM13.469,28.523a6.351,6.351,0,1,1,6.351,6.351A6.358,6.358,0,0,1,13.469,28.523Zm9.7,8.919L19.82,40.788l-3.337-3.337a12.505,12.505,0,0,1,6.683-.01ZM18.4,42.363l-2.566,3.206-2.956-6.5a12.7,12.7,0,0,1,1.427-.8ZM7.117,49.695a12.655,12.655,0,0,1,4.052-9.275l4.167,9.166,4.484-5.606L24.3,49.586l1.909-4.2a8.531,8.531,0,0,0,2.759,2.935,14.822,14.822,0,0,0-5.743,3.491H12.41V45.461H10.293v6.351H7.117Zm26.464,0A12.608,12.608,0,0,1,38.746,50.8L33.582,62.879,28.417,50.8A12.625,12.625,0,0,1,33.582,49.695Zm-12.7,12.7a12.7,12.7,0,0,1,5.672-10.571l5.426,12.688H26.172V58.163H24.054v6.351H20.879Zm25.406,2.117H43.109V58.163H40.992v6.351H35.186l5.426-12.688A12.7,12.7,0,0,1,46.285,62.4Zm13.762-12.7H56.87V45.46H54.753v6.351H43.933a14.83,14.83,0,0,0-5.743-3.491,8.416,8.416,0,0,0,3.361-9.929,12.477,12.477,0,0,1,1.587-.682c-.006.113-.03.227-.03.341,0,2.919,1.9,5.293,4.234,5.293s4.234-2.374,4.234-5.293c0-.11-.022-.218-.029-.328a12.714,12.714,0,0,1,8.5,11.973Z" transform="translate(0 0)"/>
      <path id="Trazado_102203" data-name="Trazado 102203" d="M32.234,19.469A4.234,4.234,0,1,0,28,15.234,4.239,4.239,0,0,0,32.234,19.469Zm0-6.351a2.117,2.117,0,1,1-2.117,2.117A2.119,2.119,0,0,1,32.234,13.117Z" transform="translate(1.347 0.586)"/>
      <path id="Trazado_102204" data-name="Trazado 102204" d="M32.469,23.937A8.469,8.469,0,1,0,24,15.469,8.479,8.479,0,0,0,32.469,23.937Zm0-14.82a6.351,6.351,0,1,1-6.351,6.351A6.358,6.358,0,0,1,32.469,9.117Z" transform="translate(1.113 0.351)"/>
    </g>
    <g id="estudiante" transform="translate(-10492.129 -8188.631)">
      <g id="Grupo_57353" data-name="Grupo 57353" transform="translate(98.195 1.029)">
        <path id="Trazado_102342" data-name="Trazado 102342" d="M143.854,332.455H104.988V322.107a14.987,14.987,0,0,1,14.987-14.987h8.893a14.987,14.987,0,0,1,14.987,14.987Z" transform="translate(-104.988 -268.628)" fill="#86dcff"/>
        <path id="Trazado_102343" data-name="Trazado 102343" d="M104.988,486h38.866v2.316H104.988Z" transform="translate(-104.988 -424.489)" fill="#56caed"/>
        <path id="Trazado_102344" data-name="Trazado 102344" d="M180.6,320.945l11.136-12.253a14.924,14.924,0,0,0-6.689-1.573h-8.893a14.924,14.924,0,0,0-6.689,1.573Z" transform="translate(-161.169 -268.627)" fill="#e4eef9"/>
        <path id="Trazado_102345" data-name="Trazado 102345" d="M170.979,314.269a14.918,14.918,0,0,0-1.512.653L180.6,327.175l11.135-12.253a14.93,14.93,0,0,0-1.512-.653l-9.148,10.066a.643.643,0,0,1-.952,0Z" transform="translate(-161.17 -274.857)" fill="#d5e0f2"/>
        <g id="Grupo_57351" data-name="Grupo 57351" transform="translate(2.794 21.432)">
          <path id="Trazado_102346" data-name="Trazado 102346" d="M131.178,179.446v-4.875a4.1,4.1,0,0,0-.419-.021,4.056,4.056,0,1,0,.827,8.027A12.178,12.178,0,0,1,131.178,179.446Z" transform="translate(-126.703 -174.55)" fill="#ffc4ad"/>
          <path id="Trazado_102347" data-name="Trazado 102347" d="M348.181,174.549a4.1,4.1,0,0,0-.419.021v4.875a12.18,12.18,0,0,1-.408,3.131,4.056,4.056,0,1,0,.827-8.027Z" transform="translate(-318.96 -174.549)" fill="#ffc4ad"/>
        </g>
        <path id="Trazado_102348" data-name="Trazado 102348" d="M130.759,199.965a4.057,4.057,0,0,1-3.887-2.9,4.058,4.058,0,0,0,4.714,5.129,12.158,12.158,0,0,1-.376-2.257A4.081,4.081,0,0,1,130.759,199.965Z" transform="translate(-123.909 -172.737)" fill="#ffb69f"/>
        <path id="Trazado_102349" data-name="Trazado 102349" d="M348.182,199.965a4.081,4.081,0,0,1-.451-.026,12.159,12.159,0,0,1-.376,2.257,4.057,4.057,0,0,0,4.714-5.129A4.057,4.057,0,0,1,348.182,199.965Z" transform="translate(-316.166 -172.738)" fill="#ffb69f"/>
        <path id="Trazado_102350" data-name="Trazado 102350" d="M161.479,77.674V95.037a12.163,12.163,0,1,0,24.327,0V77.674Z" transform="translate(-154.209 -68.708)" fill="#ffe0cc"/>
        <path id="Trazado_102351" data-name="Trazado 102351" d="M173.642,206.762A12.163,12.163,0,0,1,161.479,194.6v2.316a12.163,12.163,0,1,0,24.327,0V194.6A12.164,12.164,0,0,1,173.642,206.762Z" transform="translate(-154.209 -170.587)" fill="#ffceb3"/>
        <path id="Trazado_102352" data-name="Trazado 102352" d="M142.165,25.9c-2.411-1.381-4.645-5.4-4.645-5.4-2.325,4.434-7.374,4.912-7.374,4.912a5.95,5.95,0,0,0-1.262-4.366,14.353,14.353,0,0,1-10.719,5.039,2.289,2.289,0,0,1-.613-.1c-3.184-.975-6.158-4.874-6.158-4.874,4.609.143,6.142-2.846,6.142-2.846-4.709.142-5.032-4.716-5.032-4.716,7.1.926,8.523-3.273,14.785-5.123s10.7,2.927,10.7,2.927,6.347-.613,6.892,5.858c.52,6.184-2.714,8.688-2.714,8.688" transform="translate(-110.57 -8.002)" fill="#2d4456"/>
        <g id="Grupo_57352" data-name="Grupo 57352" transform="translate(0.824 9.35)">
          <path id="Trazado_102353" data-name="Trazado 102353" d="M260.137,86.6a16.214,16.214,0,0,1-3.671-4.242.645.645,0,0,0-1.057-.039c-2.63,3.4-8.1,2.032-8.1,2.032a5.95,5.95,0,0,1,1.262,4.366s5.048-.478,7.374-4.912c0,0,2.235,4.018,4.645,5.4,0,0,3.183-2.468,2.723-8.549a9.582,9.582,0,0,1-2.329,5.857A.644.644,0,0,1,260.137,86.6Z" transform="translate(-229.815 -80.659)" fill="#253847"/>
          <path id="Trazado_102354" data-name="Trazado 102354" d="M129.02,98.479a.643.643,0,0,0-1.082-.553,14.306,14.306,0,0,1-9.773,4.039,2.289,2.289,0,0,1-.613-.1,11.465,11.465,0,0,1-4.172-2.707,9,9,0,0,1-1.987.149s2.974,3.9,6.158,4.874a2.282,2.282,0,0,0,.613.1,14.352,14.352,0,0,0,10.719-5.039C128.943,98.953,128.988,98.7,129.02,98.479Z" transform="translate(-111.394 -95.546)" fill="#253847"/>
        </g>
        <path id="Trazado_102355" data-name="Trazado 102355" d="M236.33,311.476H231.82l-.984-4.356h6.476Z" transform="translate(-214.642 -268.628)" fill="#e6485d"/>
        <path id="Trazado_102356" data-name="Trazado 102356" d="M233.544,350.443l3.316-3.649-1.062-5.82H231.29l-1.062,5.82Z" transform="translate(-214.111 -298.125)" fill="#ff5876"/>
        <path id="Trazado_102357" data-name="Trazado 102357" d="M236.861,373.14l-.352-1.929-2.488,2.738a.643.643,0,0,1-.952,0l-2.488-2.738-.352,1.929,3.316,3.649Z" transform="translate(-214.111 -324.471)" fill="#e6485d"/>
        <path id="Trazado_102358" data-name="Trazado 102358" d="M146.571,319.344a15.018,15.018,0,0,0-3.382,2.315l13.089,14.4a1.93,1.93,0,0,0,2.857,0l13.089-14.4a15.012,15.012,0,0,0-3.382-2.315L157.706,331.6Z" transform="translate(-138.273 -279.279)" fill="#ffcf4d"/>
        <path id="Trazado_102359" data-name="Trazado 102359" d="M159.135,342.736a1.93,1.93,0,0,1-2.857,0L144.4,329.664a15.028,15.028,0,0,0-1.208.987l13.089,14.4a1.93,1.93,0,0,0,2.857,0l13.089-14.4a14.993,14.993,0,0,0-1.208-.987Z" transform="translate(-138.273 -288.271)" fill="#ffb629"/>
      </g>
      <g id="Grupo_57355" data-name="Grupo 57355" transform="translate(97.192 -0.001)">
        <g id="Grupo_57354" data-name="Grupo 57354" transform="translate(0 0)">
          <path id="Trazado_102360" data-name="Trazado 102360" d="M124.242,38.716a13.221,13.221,0,0,0,5.857-7.181c.045,0,.091,0,.136,0a5.03,5.03,0,0,0,.547-10.03V19.327c.923-.929,3.17-3.785,2.714-9.208a7.116,7.116,0,0,0-2.414-5.1,8.061,8.061,0,0,0-5.074-1.674A11.878,11.878,0,0,0,114.636.471a18.693,18.693,0,0,0-3.305,1.334.967.967,0,1,0,.886,1.719,16.768,16.768,0,0,1,2.966-1.2c5.6-1.655,9.57,2.488,9.734,2.663a.975.975,0,0,0,.8.3,6.306,6.306,0,0,1,4.137,1.224,5.27,5.27,0,0,1,1.714,3.763c.35,4.161-1.09,6.457-1.874,7.379A18.475,18.475,0,0,1,126,13.026a.974.974,0,0,0-1.7.021,8.694,8.694,0,0,1-5.5,4.176,7.578,7.578,0,0,0-1.546-3.791.973.973,0,0,0-1.481-.02,13.4,13.4,0,0,1-9.982,4.714,1.329,1.329,0,0,1-.355-.058A11.77,11.77,0,0,1,101,14.94a6.914,6.914,0,0,0,5-3.242.974.974,0,0,0-.889-1.408,3.457,3.457,0,0,1-3.389-1.765,4.993,4.993,0,0,1-.405-.912,12.227,12.227,0,0,0,7.623-2.144.967.967,0,1,0-1-1.653,10.48,10.48,0,0,1-7.712,1.757A.973.973,0,0,0,99.133,6.6,7.389,7.389,0,0,0,100,9.419a5.251,5.251,0,0,0,3.168,2.573,6.435,6.435,0,0,1-4.158,1.149.974.974,0,0,0-.8,1.553c.124.163,2.975,3.863,6.259,5.085v1.729a5.03,5.03,0,0,0,.547,10.03c.045,0,.091,0,.136,0a13.22,13.22,0,0,0,5.857,7.181A16.005,16.005,0,0,0,97.192,54.551V56.56a.967.967,0,1,0,1.934,0V54.551a14,14,0,0,1,3.919-9.724l12.436,13.684a2.92,2.92,0,0,0,4.293,0l4.065-4.472a.967.967,0,0,0-1.431-1.3l-4.065,4.472a.971.971,0,0,1-1.431,0L104.477,43.527a14.087,14.087,0,0,1,1.789-1.2l10.647,11.715a.973.973,0,0,0,1.431,0l10.647-11.715a14.115,14.115,0,0,1,1.789,1.2l-5.769,6.348a.967.967,0,0,0,1.431,1.3l5.769-6.348a14,14,0,0,1,3.919,9.724v9.4h-5.757V56.407a.967.967,0,0,0-1.934,0v7.545H106.817V56.407a.967.967,0,1,0-1.934,0v7.545H99.126V60.428a.967.967,0,1,0-1.934,0V64.92a.967.967,0,0,0,.967.967H137.1a.967.967,0,0,0,.967-.967V54.551a16.006,16.006,0,0,0-13.823-15.836Zm-5.128,4.218h-2.972l-.549-2.431h4.069Zm14.217-16.426a3.1,3.1,0,0,1-2.74,3.075,13.183,13.183,0,0,0,.19-2.233V23.461A3.1,3.1,0,0,1,133.331,26.508Zm-31.405,0a3.1,3.1,0,0,1,2.55-3.047V27.35a13.184,13.184,0,0,0,.19,2.233A3.1,3.1,0,0,1,101.926,26.508Zm4.483.842V20.045a15.54,15.54,0,0,0,9.946-4.425,4.121,4.121,0,0,1,.47,2.6.967.967,0,0,0,1.038,1.158,11.186,11.186,0,0,0,7.283-4.066,16.176,16.176,0,0,0,3.7,4.119V27.35a11.219,11.219,0,0,1-22.438,0ZM113.173,40.5h.438l.772,3.418-.677,3.713-5.615-6.179a13.976,13.976,0,0,1,5.083-.952Zm4.455,11.447-2.286-2.515.833-4.568h2.9l.833,4.568Zm3.923-4.316-.677-3.713.772-3.418h.438a13.975,13.975,0,0,1,5.083.952Z" transform="translate(-97.192 0.001)"/>
        </g>
      </g>
    </g>
  </g>
</svg>
