<svg xmlns="http://www.w3.org/2000/svg" width="208" height="145.806" viewBox="0 0 208 145.806">
  <g id="Grupo_55167" data-name="Grupo 55167" transform="translate(-242.066 -12403.926)">
    <path id="Trazado_100439" data-name="Trazado 100439" d="M200.951,78.027h-9.133a8.273,8.273,0,0,1-8.273-8.273h0a8.274,8.274,0,0,1,8.273-8.274h5.749A3.571,3.571,0,0,0,201.14,58.5a3.5,3.5,0,0,0-3.463-4.02H183.956a.414.414,0,0,1-.411-.42,8.406,8.406,0,0,0-8.406-8.4H125.61a2.258,2.258,0,0,1-2.241-1.748,2.206,2.206,0,0,1,2.158-2.66h34.525a4.453,4.453,0,0,0,4.442-3.658,4.378,4.378,0,0,0-4.318-5.093H60.924a4.453,4.453,0,0,0-4.442,3.657A4.379,4.379,0,0,0,60.8,41.255H77.754a4.875,4.875,0,0,1,4.862,4,4.793,4.793,0,0,1-4.728,5.576h-50.4A18.693,18.693,0,0,0,8.8,69.528h0A18.694,18.694,0,0,0,24.016,87.892a2.757,2.757,0,0,1,2.222,2.721v1.525a2.778,2.778,0,0,1-2.778,2.778h0A13.753,13.753,0,0,0,9.708,108.669h0A13.753,13.753,0,0,0,23.46,122.421h.049a4.134,4.134,0,0,1,4.133,4.133v.01a4.293,4.293,0,0,1-3.907,4.257,4.492,4.492,0,0,0-1.013.189,10.65,10.65,0,0,0,3.543,20.705H184.438a10.826,10.826,0,0,0,10.869-9.8c0-.049.008-.1.011-.148a5.128,5.128,0,0,1,5.1-4.827h1.96a8.848,8.848,0,0,0,8.849-8.849h0c0-3.685-2.971-6.733-6.527-8.009A5.425,5.425,0,0,1,201.035,115v-.256a5.884,5.884,0,0,1,4.307-5.635A15.856,15.856,0,0,0,216.8,93.876h0A15.849,15.849,0,0,0,200.951,78.027Z" transform="translate(233.266 12383.481)" fill="#9ddfd3"/>
    <g id="chico" transform="translate(273.23 12475.591)">
      <g id="Grupo_53406" data-name="Grupo 53406" transform="translate(1.086 1.086)">
        <path id="Trazado_99303" data-name="Trazado 99303" d="M166,399.595H129.31a21.329,21.329,0,0,1,13.866-10v-7.763h8.959V389.6A21.329,21.329,0,0,1,166,399.595Z" transform="translate(-122.007 -327.626)" fill="#ffc93c"/>
        <path id="Trazado_99304" data-name="Trazado 99304" d="M145.652,381.828v7.764c-2.64,1.261-4.872,4.965-6.206,10H129.31a21.327,21.327,0,0,1,13.866-10v-7.764Z" transform="translate(-122.007 -327.622)" fill="#e2b234"/>
        <path id="Trazado_99305" data-name="Trazado 99305" d="M221.495,386.657h-9.368a1.854,1.854,0,0,1-1.854-1.854v-1.118a1.854,1.854,0,0,1,1.854-1.854h9.368a1.854,1.854,0,0,1,1.853,1.854V384.8A1.854,1.854,0,0,1,221.495,386.657Z" transform="translate(-191.246 -327.626)" fill="#b3e59f"/>
        <path id="Trazado_99306" data-name="Trazado 99306" d="M217.617,386.654h-5.489a1.853,1.853,0,0,1-1.853-1.853v-1.118a1.854,1.854,0,0,1,1.853-1.855h5.489a1.855,1.855,0,0,0-1.853,1.855V384.8A1.853,1.853,0,0,0,217.617,386.654Z" transform="translate(-191.247 -327.622)" fill="#95d6a4"/>
        <path id="Trazado_99307" data-name="Trazado 99307" d="M153.434,44.947V18.387a6.975,6.975,0,0,0-13-3.518,15.949,15.949,0,0,0-29.395,8.58V44.821" transform="translate(-106.384 -7.499)" fill="#9ddfd3"/>
        <path id="Trazado_99308" data-name="Trazado 99308" d="M111.04,44.82V23.449A15.954,15.954,0,0,1,133.806,9.026a15.958,15.958,0,0,0-9.132,14.423V44.82Z" transform="translate(-106.383 -7.498)" fill="#dbf6e9"/>
        <g id="Grupo_53405" data-name="Grupo 53405" transform="translate(0 32.624)">
          <circle id="Elipse_6" data-name="Elipse 6" cx="5.736" cy="5.736" r="5.736" fill="#f5fffa"/>
          <circle id="Elipse_7" data-name="Elipse 7" cx="5.736" cy="5.736" r="5.736" transform="translate(39.825)" fill="#f5fffa"/>
        </g>
        <path id="Trazado_99309" data-name="Trazado 99309" d="M172.4,125.095V136.62a15.7,15.7,0,0,1-15.7,15.7h-2.676a15.7,15.7,0,0,1-15.7-15.7V125.095c0-.046,0-.094,0-.14a7.048,7.048,0,0,1,10.508-6.038,13.5,13.5,0,0,0,18.626-5.825A16.981,16.981,0,0,1,172.4,125.095Z" transform="translate(-129.716 -97.8)" fill="#f5fffa"/>
        <path id="Trazado_99310" data-name="Trazado 99310" d="M160.472,180.925a15.667,15.667,0,0,1-3.766.456H154.03a15.7,15.7,0,0,1-15.7-15.7V154.153c0-.046,0-.094,0-.14a7.048,7.048,0,0,1,10.508-6.038,13.3,13.3,0,0,0,2.011.906,6.864,6.864,0,0,0-2.311,5.132c0,.046,0,.094,0,.14v11.526A15.707,15.707,0,0,0,160.472,180.925Z" transform="translate(-129.719 -126.86)" fill="#e0ffef"/>
      </g>
      <g id="Grupo_53407" data-name="Grupo 53407" transform="translate(0)">
        <path id="Trazado_99311" data-name="Trazado 99311" d="M120.6,33.13V11.975A8.06,8.06,0,0,0,106.535,6.6a17.036,17.036,0,0,0-30.5,10.438V32.978A6.822,6.822,0,1,0,81,45.666a16.876,16.876,0,0,0,9.839,9.944,2.92,2.92,0,0,0-.438,1.536v1.118a2.943,2.943,0,0,0,2.142,2.827V62.2a21.963,21.963,0,0,0-2.29.72,1.086,1.086,0,1,0,.765,2.033,19.973,19.973,0,0,1,2.838-.831,1.086,1.086,0,0,0,.858-1.062V61.2h6.786v1.852a1.086,1.086,0,0,0,.859,1.062,20.255,20.255,0,0,1,12.077,7.851H81.783a20.383,20.383,0,0,1,5.588-5.21,1.086,1.086,0,1,0-1.155-1.839A22.558,22.558,0,0,0,78.832,72.5a1.086,1.086,0,0,0,.935,1.639h36.691a1.086,1.086,0,0,0,.935-1.639A22.459,22.459,0,0,0,103.679,62.2V61.038a2.942,2.942,0,0,0,1.975-2.774V57.147a2.92,2.92,0,0,0-.406-1.485,16.875,16.875,0,0,0,9.974-10A6.822,6.822,0,1,0,120.6,33.13ZM82.562,6.525A14.862,14.862,0,0,1,105.6,9.041,1.086,1.086,0,0,0,107.454,9a5.89,5.89,0,0,1,10.976,2.97V32.637c-.134-.008-.268-.013-.4-.013a6.835,6.835,0,0,0-1.787.238V28.381a18.127,18.127,0,0,0-.89-5.628,1.086,1.086,0,0,0-2.065.674,15.952,15.952,0,0,1,.784,4.955V30.87l-1.3.707a4.189,4.189,0,0,0-3.846-2.54H103.3a4.189,4.189,0,0,0-4.138,3.575,3.577,3.577,0,0,0-2.09,0,4.189,4.189,0,0,0-4.138-3.575h-5.62a4.188,4.188,0,0,0-3.846,2.54l-1.306-.708V28.381c0-.035,0-.072,0-.107,0-.008,0-.016,0-.025a5.837,5.837,0,0,1,2.923-5.036,5.989,5.989,0,0,1,5.974-.061,14.6,14.6,0,0,0,7.057,1.819,14.482,14.482,0,0,0,12.3-6.749,16.025,16.025,0,0,1,1.121,1.533,1.086,1.086,0,1,0,1.826-1.175,18.191,18.191,0,0,0-2.384-2.968,1.086,1.086,0,0,0-1.744.284,12.417,12.417,0,0,1-17.127,5.358,8.142,8.142,0,0,0-8.122.085,7.99,7.99,0,0,0-4,6.884c0,.053,0,.107,0,.16v4.481a6.845,6.845,0,0,0-1.779-.238V17.037A14.769,14.769,0,0,1,82.562,6.525ZM110.927,33.22v5.423a2.013,2.013,0,0,1-2.011,2.011H103.3a2.013,2.013,0,0,1-2.011-2.011V33.22a2.013,2.013,0,0,1,2.011-2.011h5.62a2.013,2.013,0,0,1,2.011,2.011Zm-15.986,0v5.423a2.013,2.013,0,0,1-2.011,2.011h-5.62A2.013,2.013,0,0,1,85.3,38.643V33.22a2.013,2.013,0,0,1,2.011-2.011h5.62a2.013,2.013,0,0,1,2.011,2.011ZM78.2,44.1a4.65,4.65,0,1,1,1.786-8.944v2.428a5.162,5.162,0,0,0-1.436-.347,6.59,6.59,0,0,0-2.06.121,1.086,1.086,0,1,0,.518,2.11,4.571,4.571,0,0,1,1.325-.07,2.192,2.192,0,0,1,1.657.831,16.751,16.751,0,0,0,.4,3.325A4.605,4.605,0,0,1,78.2,44.1Zm24.514,12.282a.769.769,0,0,1,.767.769v1.118a.768.768,0,0,1-.767.767H93.346a.768.768,0,0,1-.767-.767V57.146a.769.769,0,0,1,.767-.769h.186a16.8,16.8,0,0,0,3.244.316h2.676a16.812,16.812,0,0,0,3.243-.316Zm-3.263-1.857H96.776A14.633,14.633,0,0,1,82.159,39.906V33.34l.969.526v4.777a4.187,4.187,0,0,0,4.183,4.183h5.62a4.187,4.187,0,0,0,4.183-4.183v-3.6a1.4,1.4,0,0,1,2,0v3.6a4.187,4.187,0,0,0,4.183,4.183h5.62a4.187,4.187,0,0,0,4.183-4.183V33.866l.968-.525v6.565A14.632,14.632,0,0,1,99.452,54.521ZM118.026,44.1a4.612,4.612,0,0,1-2.186-.547,16.754,16.754,0,0,0,.4-3.321,2.169,2.169,0,0,1,1.607-.828,4.542,4.542,0,0,1,1.381.065,1.086,1.086,0,0,0,.514-2.111,6.585,6.585,0,0,0-2.06-.121,5.164,5.164,0,0,0-1.438.348V35.152a4.65,4.65,0,1,1,1.787,8.943Z" transform="translate(-71.379 0)" fill="#21214b"/>
        <ellipse id="Elipse_8" data-name="Elipse 8" cx="1.9" cy="2.603" rx="1.9" ry="2.603" transform="translate(17.465 32.964)" fill="#21214b"/>
        <path id="Trazado_99312" data-name="Trazado 99312" d="M295.672,227.64c-1.048,0-1.9,1.168-1.9,2.6s.852,2.6,1.9,2.6,1.9-1.168,1.9-2.6S296.72,227.64,295.672,227.64Z" transform="translate(-261.568 -194.676)" fill="#21214b"/>
        <path id="Trazado_99313" data-name="Trazado 99313" d="M177.611,177.2a1.086,1.086,0,1,0,1.536,1.536,2.212,2.212,0,0,1,3.125,0,1.086,1.086,0,1,0,1.536-1.536A4.387,4.387,0,0,0,177.611,177.2Z" transform="translate(-161.955 -150.444)" fill="#21214b"/>
        <path id="Trazado_99314" data-name="Trazado 99314" d="M288.973,177.2a1.086,1.086,0,1,0,1.536,1.536,2.212,2.212,0,0,1,3.125,0,1.086,1.086,0,1,0,1.536-1.536A4.387,4.387,0,0,0,288.973,177.2Z" transform="translate(-257.191 -150.444)" fill="#21214b"/>
        <path id="Trazado_99315" data-name="Trazado 99315" d="M236.5,302.786a1.086,1.086,0,0,0-1.519.229,2.4,2.4,0,0,1-3.853,0,1.086,1.086,0,1,0-1.748,1.29,4.567,4.567,0,0,0,7.348,0A1.086,1.086,0,0,0,236.5,302.786Z" transform="translate(-206.317 -258.759)" fill="#21214b"/>
      </g>
    </g>
    <g id="Grupo_55095" data-name="Grupo 55095" transform="translate(356.956 12481.676)">
      <rect id="Rect치ngulo_5082" data-name="Rect치ngulo 5082" width="32.31" height="28.204" transform="translate(5.803 23.067)" fill="#9ddfd3"/>
      <rect id="Rect치ngulo_5083" data-name="Rect치ngulo 5083" width="8.929" height="10.121" transform="translate(17.494 37.401)" fill="#fccda2"/>
      <path id="Trazado_100366" data-name="Trazado 100366" d="M222.412,285.034a19.014,19.014,0,0,0,8.929,0V278.38h-8.929v6.654Z" transform="translate(-204.918 -241.377)" fill="#333" opacity="0.15"/>
      <g id="Grupo_55068" data-name="Grupo 55068" transform="translate(1.079 20.121)">
        <path id="Trazado_100367" data-name="Trazado 100367" d="M104.094,151.37a5.18,5.18,0,0,0-5.18,5.18h0a5.18,5.18,0,0,0,5.18,5.18h2.377V151.37Z" transform="translate(-98.914 -151.37)" fill="#e0ffef"/>
        <path id="Trazado_100368" data-name="Trazado 100368" d="M358.6,151.37a5.18,5.18,0,0,1,5.18,5.18h0a5.18,5.18,0,0,1-5.18,5.18h-2.377V151.37Z" transform="translate(-322.023 -151.37)" fill="#e0ffef"/>
      </g>
      <path id="Trazado_100369" data-name="Trazado 100369" d="M134.465,67.4v8.381A16.155,16.155,0,0,0,150.62,91.934h0a16.155,16.155,0,0,0,16.155-16.155V67.4c0-4.461-8.077-9.525-16.155-9.525S134.465,62.936,134.465,67.4Z" transform="translate(-128.661 -50.18)" fill="#f5fffa"/>
      <path id="Trazado_100370" data-name="Trazado 100370" d="M137.439,75.779V67.4c0-4.187,7.115-8.9,14.668-9.468q-.742-.055-1.487-.056c-8.077,0-16.155,5.064-16.155,9.525v8.381a16.155,16.155,0,0,0,16.155,16.155h0c.5,0,1-.024,1.487-.069A16.155,16.155,0,0,1,137.439,75.779Z" transform="translate(-128.66 -50.18)" fill="#333" opacity="0.1"/>
      <path id="Trazado_100371" data-name="Trazado 100371" d="M150.62,7.993h0a16.155,16.155,0,0,0-16.155,16.155v2.9C147.634,24.7,150.62,16.129,150.62,16.129s2.986,8.572,16.155,10.923v-2.9A16.155,16.155,0,0,0,150.62,7.993Z" transform="translate(-128.661 -6.931)" fill="#9ddfd3"/>
      <path id="Trazado_100372" data-name="Trazado 100372" d="M137.44,24.146A16.156,16.156,0,0,1,152.107,8.06c-.49-.045-.986-.069-1.487-.069h0a16.155,16.155,0,0,0-16.155,16.155v2.9c1.056-.188,2.046-.418,2.975-.678V24.146Z" transform="translate(-128.661 -6.929)" fill="#dbf6e9"/>
      <path id="Trazado_100373" data-name="Trazado 100373" d="M128.5,346.863H111.1a12.18,12.18,0,0,0-12.18,12.18v8.708h41.76v-8.708A12.18,12.18,0,0,0,128.5,346.863Z" transform="translate(-97.836 -300.757)" fill="#ffc93c"/>
      <g id="Grupo_55069" data-name="Grupo 55069" transform="translate(1.079 46.106)">
        <path id="Trazado_100374" data-name="Trazado 100374" d="M106.472,353.713a12.182,12.182,0,0,0-7.557,11.27v8.708h7.557Z" transform="translate(-98.915 -352.803)" fill="#fff9f2"/>
        <path id="Trazado_100375" data-name="Trazado 100375" d="M356.228,353.713a12.182,12.182,0,0,1,7.557,11.27v8.708h-7.557Z" transform="translate(-322.025 -352.803)" fill="#fff9f2"/>
        <path id="Trazado_100376" data-name="Trazado 100376" d="M187.049,361.841l10.571-14.835a12.264,12.264,0,0,0-1.871-.143h-17.4a12.284,12.284,0,0,0-1.87.143Z" transform="translate(-166.168 -346.863)" fill="#fff9f2"/>
      </g>
      <path id="Trazado_100377" data-name="Trazado 100377" d="M239.411,346.863l1.659,2.266-1.659,2.9h-2.089l-1.659-2.9,1.659-2.266Z" transform="translate(-216.407 -300.757)" fill="#f9a"/>
      <path id="Trazado_100378" data-name="Trazado 100378" d="M242.111,392l-1.47-6.284h-2.089L237.082,392l2.515,3.53Z" transform="translate(-217.638 -334.445)" fill="#ff8095"/>
      <g id="Grupo_55070" data-name="Grupo 55070">
        <circle id="Elipse_1244" data-name="Elipse 1244" cx="2.091" cy="2.091" r="2.091" transform="translate(12.278 20.976)" fill="#31326f"/>
        <circle id="Elipse_1245" data-name="Elipse 1245" cx="2.091" cy="2.091" r="2.091" transform="translate(27.425 20.976)" fill="#31326f"/>
        <path id="Trazado_100379" data-name="Trazado 100379" d="M134.664,57.72a14.393,14.393,0,0,0-.608-3.479,13.231,13.231,0,0,0-4.1-6.1V31.356a6.24,6.24,0,0,0,0-12.108V17.217a17.217,17.217,0,1,0-34.434,0v2.031a6.241,6.241,0,0,0,0,12.108V48.141c0,.154-.863.788-1,.931a13.166,13.166,0,0,0-2.518,3.681,17.744,17.744,0,0,0-1.205,7.68v6.561a1.062,1.062,0,0,0,1.062,1.062h41.76a1.062,1.062,0,0,0,1.062-1.062V62.77C134.685,61.1,134.771,59.4,134.664,57.72Zm-4.7-32.12h0V21.476a4.114,4.114,0,0,1,0,7.651ZM97.65,17.217a15.092,15.092,0,1,1,30.185,0v1.608q-.2-.045-.4-.092a23.526,23.526,0,0,1-9.712-4.7,11.358,11.358,0,0,1-.992-.914,13.2,13.2,0,0,1-2.981-4.273,1.06,1.06,0,0,0-1.987-.044c-.006.014-.013.026-.018.04a11,11,0,0,1-1.428,2.471l-.005.007-.072.1a17.668,17.668,0,0,1-4.723,4.281l-.077.049-.142.087a25.208,25.208,0,0,1-7.643,2.99V17.217Zm0,5.85V21l.209-.045C103.4,19.773,109,16.939,112.3,12.19c.163-.235.311-.461.443-.673a17.508,17.508,0,0,0,2.381,3,23.239,23.239,0,0,0,9.207,5.555,30.993,30.993,0,0,0,3.3.877l.207.045V25.07a16.023,16.023,0,0,1-1.842,7.748,15.242,15.242,0,0,1-4.447,5.032,15.051,15.051,0,0,1-17.61,0,15.241,15.241,0,0,1-3.979-4.239,15.073,15.073,0,0,1-2.2-6.2A36.447,36.447,0,0,1,97.65,23.067Zm15.521,27.141h-.857l-1.01-1.765.933-1.275h1.011l.933,1.275Zm.942,7.121-1.371,1.924-1.371-1.924,1.169-5h.4Zm-.326-12.286H109.34V42.479a14.845,14.845,0,0,0,3.039.332,17.334,17.334,0,0,0,3.765-.332v2.564Zm-4.67,3.856,1.451,2.535-.839,3.588-5.6-7.855H109.6l-.422.576A1.062,1.062,0,0,0,109.117,48.9Zm7.186-1.155-.422-.576h5.473l-5.6,7.856-.84-3.589,1.451-2.535A1.063,1.063,0,0,0,116.3,47.745ZM92.925,25.3a4.15,4.15,0,0,1,2.6-3.825v1.59h0v6.059A4.123,4.123,0,0,1,92.925,25.3Zm5.433,40.631H92.925V58.286c0-.172.005-.342.013-.511q0-.056.006-.113c.009-.171.022-.341.039-.509v-.009c.018-.175.041-.349.067-.522l.007-.046a11.128,11.128,0,0,1,4.324-7.185l.034-.026q.2-.149.407-.289l.016-.011c.17-.115.344-.223.52-.328V65.932ZM97.65,46.686V33.879c.014.026.029.05.043.076a17.456,17.456,0,0,0,9.522,7.952v3.138a36.35,36.35,0,0,0-5.052.133,13.047,13.047,0,0,0-2.37.562C99.54,45.824,97.65,46.431,97.65,46.686ZM125,65.932H100.482V47.757a11.074,11.074,0,0,1,1.219-.338L111.878,61.7a1.062,1.062,0,0,0,.865.446h0c.031,0,.062,0,.092-.006l.035,0c.025,0,.049-.009.074-.013l.051-.009.035-.011c.029-.008.057-.016.085-.026l.006,0a1.061,1.061,0,0,0,.487-.376l10.177-14.282a10.982,10.982,0,0,1,1.218.338V65.932h0Zm-2.031-20.785a23.45,23.45,0,0,0-2.438-.1H118.27V41.906l.172-.061.14-.049a17.436,17.436,0,0,0,8.939-7.372l.07-.119q.105-.179.206-.36l.038-.067V46.686c0-.162-1.292-.628-1.463-.7a13.017,13.017,0,0,0-1.708-.553A12.247,12.247,0,0,0,122.972,45.146Zm9.589,20.785h-5.433V48.737c.176.105.349.213.519.328l.019.013q.205.139.4.287l.037.028a11.128,11.128,0,0,1,4.323,7.184l.007.047c.026.173.049.347.067.522v.009c.017.168.029.338.039.509,0,.037,0,.075.006.113.008.17.013.34.013.511v7.645Z" transform="translate(-90.8 0)" fill="#31326f"/>
        <path id="Trazado_100380" data-name="Trazado 100380" d="M207.554,227.312a1.062,1.062,0,0,0,.244,1.482,12.373,12.373,0,0,0,12.012,0,1.062,1.062,0,1,0-1.238-1.727,10.4,10.4,0,0,1-9.537,0A1.062,1.062,0,0,0,207.554,227.312Z" transform="translate(-191.862 -196.712)" fill="#31326f"/>
      </g>
    </g>
    <g id="el-pensamiento-de-diseno" transform="translate(312.412 12403.926)">
      <g id="Grupo_55110" data-name="Grupo 55110" transform="translate(1.086 1.086)">
        <g id="Grupo_55096" data-name="Grupo 55096" transform="translate(45.617 13.027)">
          <path id="Trazado_100440" data-name="Trazado 100440" d="M55.94,19.428,48.265,27.1a18.409,18.409,0,0,0-4.125-6.492l-.119-.119L50.512,14Z" transform="translate(-44.02 -14)" fill="#5cd6b3"/>
        </g>
        <g id="Grupo_55097" data-name="Grupo 55097" transform="translate(10.856 44.77)">
          <path id="Trazado_100441" data-name="Trazado 100441" d="M26.33,49.276l-8.9,8.9L12,52.75l9.51-9.51A21.351,21.351,0,0,1,26.33,49.276Z" transform="translate(-12 -43.24)" fill="#5cd6b3"/>
        </g>
        <g id="Grupo_55098" data-name="Grupo 55098" transform="translate(5.428 38.788)">
          <path id="Trazado_100442" data-name="Trazado 100442" d="M21.938,43.712l-9.51,9.51L7,47.793,17.063,37.73a18.4,18.4,0,0,0,3.561,4.69c.434.434.868.868,1.314,1.292Z" transform="translate(-7 -37.73)" fill="#ff826e"/>
        </g>
        <g id="Grupo_55099" data-name="Grupo 55099" transform="translate(39.005 7.599)">
          <path id="Trazado_100443" data-name="Trazado 100443" d="M51.033,14.428,44.541,20.92a18.3,18.3,0,0,0-6.611-4.245L45.605,9Z" transform="translate(-37.93 -9)" fill="#ff826e"/>
        </g>
        <g id="Grupo_55100" data-name="Grupo 55100" transform="translate(49.937 0)">
          <path id="Trazado_100444" data-name="Trazado 100444" d="M63.2,9.675A7.656,7.656,0,0,1,60.951,15.1l-2.1,2.1L48,6.342l2.1-2.1A7.675,7.675,0,0,1,63.2,9.675Z" transform="translate(-48 -2)" fill="#aab2bd"/>
        </g>
        <g id="Grupo_55101" data-name="Grupo 55101" transform="translate(0 48.852)">
          <path id="Trazado_100445" data-name="Trazado 100445" d="M18.284,57.856l-13.8,5.309a1.92,1.92,0,0,1-.651.119A1.839,1.839,0,0,1,2,61.449a1.92,1.92,0,0,1,.119-.651L7.428,47l5.428,5.428Z" transform="translate(-2 -47)" fill="#ccd1d9"/>
        </g>
        <g id="Grupo_55102" data-name="Grupo 55102" transform="translate(46.681 4.342)">
          <path id="Trazado_100446" data-name="Trazado 100446" d="M59.113,16.856l-3.257,3.257-5.428-5.428L45,9.257,48.257,6Z" transform="translate(-45 -6)" fill="#e6e9ed"/>
        </g>
        <g id="Grupo_55103" data-name="Grupo 55103" transform="translate(39.266 32.568)">
          <path id="Trazado_100447" data-name="Trazado 100447" d="M52.1,33.14a3.161,3.161,0,0,0,1.954,2.931c.011,0,.033.011.043.011a3.156,3.156,0,0,0,3.463-.673l.814-.814,3.072,3.072-.814.814a3.156,3.156,0,0,0-.673,3.463c0,.011.011.033.011.043A3.161,3.161,0,0,0,62.9,43.942h1.14v4.342H62.9a3.161,3.161,0,0,0-2.931,1.954c0,.011-.011.033-.011.043a3.156,3.156,0,0,0,.673,3.463l.814.814-3.072,3.072-.814-.814a3.156,3.156,0,0,0-3.463-.673c-.011,0-.033.011-.043.011A3.161,3.161,0,0,0,52.1,59.086v1.14H47.756v-1.14A3.161,3.161,0,0,0,45.8,56.154c-.011,0-.033-.011-.043-.011a3.156,3.156,0,0,0-3.463.673l-.814.814-2.747-2.747a2.148,2.148,0,0,0,.337-1.172,2.179,2.179,0,0,0-.9-1.759c1.053-3.387,3.289-5.591,5.537-7.773a6.716,6.716,0,0,0-.293,1.932A6.514,6.514,0,1,0,49.927,39.6a6.623,6.623,0,0,0-2.508.5A13.272,13.272,0,0,0,49.927,32H52.1Z" transform="translate(-38.17 -32)" fill="#ffc729"/>
        </g>
        <g id="Grupo_55104" data-name="Grupo 55104" transform="translate(44.509 40.167)">
          <path id="Trazado_100448" data-name="Trazado 100448" d="M49.514,39A6.514,6.514,0,1,1,43,45.514a6.715,6.715,0,0,1,.293-1.932V43.57A30.116,30.116,0,0,0,47.006,39.5a6.623,6.623,0,0,1,2.508-.5Zm2.171,6.514a2.171,2.171,0,1,0-2.171,2.171A2.178,2.178,0,0,0,51.685,45.514Z" transform="translate(-43 -39)" fill="#fcd770"/>
        </g>
        <g id="Grupo_55105" data-name="Grupo 55105" transform="translate(27.14 60.793)">
          <path id="Trazado_100449" data-name="Trazado 100449" d="M32.428,62.342a5.562,5.562,0,0,1-5.4-4.212L27,58H37.856l-.033.13a5.6,5.6,0,0,1-1.976,3.04A5.545,5.545,0,0,1,32.428,62.342Z" transform="translate(-27 -58)" fill="#aab2bd"/>
        </g>
        <g id="Grupo_55106" data-name="Grupo 55106" transform="translate(24.969 56.451)">
          <path id="Trazado_100450" data-name="Trazado 100450" d="M38.027,54A2.178,2.178,0,0,1,40.2,56.171a2.187,2.187,0,0,1-2.171,2.171H27.171A2.178,2.178,0,0,1,25,56.171,2.187,2.187,0,0,1,27.171,54Z" transform="translate(-25 -54)" fill="#ccd1d9"/>
        </g>
        <g id="Grupo_55107" data-name="Grupo 55107" transform="translate(24.969 52.109)">
          <path id="Trazado_100451" data-name="Trazado 100451" d="M40.2,52.171a2.148,2.148,0,0,1-.337,1.172,2.41,2.41,0,0,1-.3.358,2.123,2.123,0,0,1-1.531.641H27.171A2.178,2.178,0,0,1,25,52.171a2.123,2.123,0,0,1,.64-1.531,1.31,1.31,0,0,1,.261-.228A2.141,2.141,0,0,1,27.171,50H38.027a2.141,2.141,0,0,1,1.27.413,2.179,2.179,0,0,1,.9,1.759Z" transform="translate(-25 -50)" fill="#ccd1d9"/>
        </g>
        <g id="Grupo_55108" data-name="Grupo 55108" transform="translate(14.113 14.113)">
          <path id="Trazado_100452" data-name="Trazado 100452" d="M50.749,27.018a18.409,18.409,0,0,0-4.125-6.492l-.119-.119A18.5,18.5,0,0,0,33.813,15H33.8a7.43,7.43,0,0,1,.738,3.257,7.516,7.516,0,0,1-.4,2.432V20.7a4.251,4.251,0,0,1,1.487-.271,4.342,4.342,0,1,1,0,8.685H15.51A18.431,18.431,0,0,0,15,33.455a13.48,13.48,0,0,0,1.379,6.22,18.4,18.4,0,0,0,3.561,4.69c.434.434.868.868,1.314,1.292a21.351,21.351,0,0,1,4.82,6.036,10.463,10.463,0,0,1,.684,1.715A2.141,2.141,0,0,1,28.027,53H38.883a2.141,2.141,0,0,1,1.27.413c1.053-3.387,3.289-5.591,5.537-7.773v-.011A30.117,30.117,0,0,0,49.4,41.554a13.272,13.272,0,0,0,2.508-8.1,18.306,18.306,0,0,0-1.162-6.438Z" transform="translate(-15 -15)" fill="#ffeaa7"/>
        </g>
        <g id="Grupo_55109" data-name="Grupo 55109" transform="translate(0 4.342)">
          <path id="Trazado_100453" data-name="Trazado 100453" d="M25.123,12.014a7.6,7.6,0,0,1,9.792,3.756,7.43,7.43,0,0,1,.738,3.257,7.516,7.516,0,0,1-.4,2.432v.011a4.251,4.251,0,0,1,1.487-.271,4.342,4.342,0,1,1,0,8.685H7.428A5.424,5.424,0,0,1,6.907,19.06v-.011a9.631,9.631,0,0,1-.565-3.278,9.769,9.769,0,0,1,18.77-3.8Z" transform="translate(-2 -6)" fill="#e6e9ed"/>
        </g>
      </g>
      <g id="Grupo_55111" data-name="Grupo 55111" transform="translate(0 0)">
        <path id="Trazado_100454" data-name="Trazado 100454" d="M49.257,48.514A3.257,3.257,0,1,0,46,45.257,3.261,3.261,0,0,0,49.257,48.514Zm0-4.342a1.086,1.086,0,1,1-1.086,1.086A1.087,1.087,0,0,1,49.257,44.171Z" transform="translate(2.852 2.509)"/>
        <path id="Trazado_100455" data-name="Trazado 100455" d="M64.138,44.183a2.083,2.083,0,0,1,.444-2.283l1.58-1.581-4.607-4.607-1.582,1.581a2.1,2.1,0,0,1-2.324.426A2.069,2.069,0,0,1,56.365,35.8V33.568H54.139a19.232,19.232,0,0,0-.962-5.047L65.739,15.958A8.762,8.762,0,1,0,53.35,3.566L40.8,16.117a19.285,19.285,0,0,0-5.121-.956,8.639,8.639,0,0,0-9.921-4.05A10.835,10.835,0,0,0,5.63,18.65,6.513,6.513,0,0,0,7.514,31.4h7.875a19.684,19.684,0,0,0-.276,3.257,14.905,14.905,0,0,0,1.155,5.995L6.583,50.334,1.194,64.344A2.889,2.889,0,0,0,1,65.39a2.917,2.917,0,0,0,3.964,2.723l14.011-5.389,7.081-7.082a3.173,3.173,0,0,0,.76,2.9A3.229,3.229,0,0,0,28.4,63.845a6.613,6.613,0,0,0,12.506,0,3.252,3.252,0,0,0,2.432-3.137c0-.081-.018-.157-.024-.237l1.348,1.348,1.582-1.581a2.126,2.126,0,0,1,3.607,1.495v2.231h6.514V61.734a2.127,2.127,0,0,1,3.609-1.495l1.581,1.581,4.607-4.607-1.58-1.581a2.1,2.1,0,0,1-.427-2.324,2.072,2.072,0,0,1,1.92-1.284h2.231V45.509H66.076a2.089,2.089,0,0,1-1.938-1.327Zm-16.267,3.2a32.4,32.4,0,0,0,3.395-3.7,5.364,5.364,0,0,1,1.842-.342,5.481,5.481,0,1,1-5.237,4.045Zm1.3-25.716,5.019-5.02,3.893,3.893-5.8,5.8A19.7,19.7,0,0,0,49.175,21.668ZM50.3,9.685l1.722-1.722,9.321,9.321-1.722,1.722Zm9.244-6.514a6.591,6.591,0,0,1,4.66,11.251l-1.327,1.327L53.558,6.428,54.885,5.1A6.551,6.551,0,0,1,59.545,3.171ZM48.766,11.22l3.893,3.893-5.017,5.017a19.679,19.679,0,0,0-4.669-3.117Zm3.257,23.434c0,5.648-2.844,8.423-5.856,11.36-2.073,2.022-4.2,4.113-5.443,7.161a3.21,3.21,0,0,0-.643-.065H35.739V47.681a3.261,3.261,0,0,0-3.257-3.257H30.311a1.086,1.086,0,1,1,0-2.171H41.167a3.257,3.257,0,0,0,0-6.514H32.482A1.087,1.087,0,0,1,31.4,34.653V31.4h5.428a5.428,5.428,0,0,0,0-10.856c-.03,0-.059.009-.089.009a8.548,8.548,0,0,0,.089-1.094,8.7,8.7,0,0,0-.256-2.058A17.462,17.462,0,0,1,52.023,34.653ZM28.14,56.365a1.087,1.087,0,0,1,1.086-1.086H40.081a1.086,1.086,0,0,1,0,2.171H29.225A1.087,1.087,0,0,1,28.14,56.365Zm-13.663,0,7.98-7.98a19.706,19.706,0,0,1,3.489,4.3L18.37,60.258ZM3.171,24.883a4.342,4.342,0,1,1,8.685,0h2.171a6.516,6.516,0,0,0-6.236-6.5,8.676,8.676,0,0,1,15.972-6.418,8.692,8.692,0,0,0-4.254,6.541A4.342,4.342,0,0,0,16.2,22.712H18.37a2.171,2.171,0,1,1,4.342,0h2.171A4.336,4.336,0,0,0,21.7,18.545,6.506,6.506,0,1,1,34.415,21.13,5.417,5.417,0,0,0,31.4,25.969h2.171a3.257,3.257,0,1,1,3.257,3.257H7.514A4.347,4.347,0,0,1,3.171,24.883ZM29.225,31.4v3.257a3.261,3.261,0,0,0,3.257,3.257h8.685a1.086,1.086,0,0,1,0,2.171H30.311a3.257,3.257,0,1,0,0,6.514h2.171a1.087,1.087,0,0,1,1.086,1.086v5.428H29.225a3.209,3.209,0,0,0-.643.065c-1.24-3.047-3.37-5.138-5.443-7.161-3.011-2.937-5.856-5.711-5.856-11.36a17.5,17.5,0,0,1,.334-3.257ZM20.907,46.865,12.942,54.83,9.049,50.937l8.283-8.283a24.42,24.42,0,0,0,3.575,4.211ZM7.927,52.886l8.494,8.494L9.23,64.146,5.161,60.077Zm-3.742,13.2a.747.747,0,0,1-.965-.963l1.088-2.829,2.7,2.7Zm30.468.05a4.46,4.46,0,0,1-3.826-2.171h7.651a4.46,4.46,0,0,1-3.826,2.171Zm5.428-4.342H29.225a1.086,1.086,0,1,1,0-2.171H40.081a1.086,1.086,0,0,1,0,2.171ZM66.136,49.852h-.06a4.3,4.3,0,0,0-3.03,7.315l.046.046-1.537,1.537-.046-.046a4.3,4.3,0,0,0-7.315,3.03v.06H52.023v-.06a4.3,4.3,0,0,0-7.316-3.03l-.046.046-1.471-1.471a3.182,3.182,0,0,0,.148-.913,3.225,3.225,0,0,0-.73-2.029,14,14,0,0,1,2.966-4.627,7.6,7.6,0,1,0,7.534-8.543c-.106,0-.21.011-.315.015a14.243,14.243,0,0,0,1.367-5.443h.034v.06a4.3,4.3,0,0,0,7.315,3.03l.046-.046,1.537,1.537-.046.046a4.3,4.3,0,0,0,3.03,7.315h.06Z" transform="translate(-1 -1)" fill="#31326f"/>
      </g>
    </g>
  </g>
</svg>
