<svg xmlns="http://www.w3.org/2000/svg" width="346.966" height="198.857" viewBox="0 0 346.966 198.857">
  <g id="Grupo_57342" data-name="Grupo 57342" transform="translate(6072 10271.429)">
    <path id="Trazado_102187" data-name="Trazado 102187" d="M329.329,108.441H314.094a13.8,13.8,0,0,1-13.8-13.8h0a13.8,13.8,0,0,1,13.8-13.8h9.591a5.957,5.957,0,0,0,5.959-4.972,5.842,5.842,0,0,0-5.777-6.706H300.978a.69.69,0,0,1-.685-.7,14.022,14.022,0,0,0-14.022-14h-82.62a3.766,3.766,0,0,1-3.738-2.916,3.68,3.68,0,0,1,3.6-4.437h57.592a7.429,7.429,0,0,0,7.41-6.1,7.3,7.3,0,0,0-7.2-8.5H95.748a7.429,7.429,0,0,0-7.41,6.1,7.3,7.3,0,0,0,7.2,8.5h28.28a8.132,8.132,0,0,1,8.111,6.679,8,8,0,0,1-7.886,9.3H39.981A31.181,31.181,0,0,0,8.8,94.263h0A31.183,31.183,0,0,0,34.181,124.9a4.6,4.6,0,0,1,3.707,4.538v2.544a4.634,4.634,0,0,1-4.634,4.634h0a22.941,22.941,0,0,0-22.941,22.941h0a22.941,22.941,0,0,0,22.941,22.94h.083a6.9,6.9,0,0,1,6.895,6.895v.017a7.161,7.161,0,0,1-6.517,7.1,7.493,7.493,0,0,0-1.689.316,17.765,17.765,0,0,0,5.91,34.538H301.783a18.06,18.06,0,0,0,18.131-16.355c.006-.083.013-.165.018-.247a8.554,8.554,0,0,1,8.5-8.052h3.27a14.76,14.76,0,0,0,14.76-14.76h0c0-6.147-4.955-11.231-10.887-13.36a9.05,9.05,0,0,1-6.111-8.472v-.426a9.815,9.815,0,0,1,7.185-9.4,26.449,26.449,0,0,0,19.113-25.41h0A26.437,26.437,0,0,0,329.329,108.441Z" transform="translate(-6080.8 -10303.933)" fill="#dbf6e9"/>
    <g id="desarrollo" transform="translate(-5962 -10207.588)">
      <path id="Trazado_102188" data-name="Trazado 102188" d="M53.616,38c0,4.777,2.9,8.646,6.485,8.646S66.585,42.775,66.585,38a10.915,10.915,0,0,0-.648-3.718A28.123,28.123,0,0,1,88.2,61.775V68.26H52.275A28.024,28.024,0,0,0,32,59.613,15.12,15.12,0,0,0,47.131,44.483a14.966,14.966,0,0,0-1.578-6.744C46.785,37,47.8,36.485,54.264,34.28V34.3A10.79,10.79,0,0,0,53.616,38Z" transform="translate(31.362 38.657)" fill="#e6e9ed"/>
      <path id="Trazado_102189" data-name="Trazado 102189" d="M17.218,36.61l8.236,18.135L34.1,43.938l8.646,10.808,4.366-9.576.324-.086A15.118,15.118,0,0,0,62.2,56.907a27.966,27.966,0,0,0-19.865,8.236l-.411.411H6V59.069A28.017,28.017,0,0,1,14.236,39.2,28.5,28.5,0,0,1,17.218,36.61Z" transform="translate(1.162 41.363)" fill="#e6e9ed"/>
      <path id="Trazado_102190" data-name="Trazado 102190" d="M35.594,36.183,24.808,46.969,14,36.162A28.116,28.116,0,0,1,24.808,34,27.244,27.244,0,0,1,35.594,36.183Z" transform="translate(10.454 38.331)" fill="#f0d0b4"/>
      <path id="Trazado_102191" data-name="Trazado 102191" d="M31.969,43.635a15.055,15.055,0,0,0,.367,3.307l-.324.086L27.646,56.6,19,45.8,29.786,35.01a22.631,22.631,0,0,1,3.761,1.881A14.967,14.967,0,0,0,31.969,43.635Z" transform="translate(16.262 39.505)" fill="#ff826e"/>
      <path id="Trazado_102192" data-name="Trazado 102192" d="M28.072,45.808,19.426,56.616,11.19,38.48A27.677,27.677,0,0,1,17.264,35Z" transform="translate(7.19 39.493)" fill="#ff826e"/>
      <path id="Trazado_102193" data-name="Trazado 102193" d="M29.808,78.773H19V72.288a27.972,27.972,0,0,1,7.825-19.454l.411-.411a28.1,28.1,0,0,1,6.506-4.863L47.1,78.773Z" transform="translate(16.262 54.082)" fill="#5cd6b3"/>
      <path id="Trazado_102194" data-name="Trazado 102194" d="M49.292,78.773H32L45.358,47.56A28.142,28.142,0,0,1,60.1,72.288v6.485Z" transform="translate(31.362 54.082)" fill="#5cd6b3"/>
      <path id="Trazado_102195" data-name="Trazado 102195" d="M52.537,49.372,39.178,80.585,25.82,49.372a28.146,28.146,0,0,1,26.717,0Z" transform="translate(24.184 52.27)" fill="#ccd1d9"/>
      <path id="Trazado_102196" data-name="Trazado 102196" d="M54.321,34.605a10.915,10.915,0,0,1,.648,3.718c0,4.777-2.9,8.646-6.485,8.646S42,43.1,42,38.323a10.79,10.79,0,0,1,.648-3.7v-.022a28.442,28.442,0,0,1,11.672,0Z" transform="translate(42.978 38.331)" fill="#f0d0b4"/>
      <path id="Trazado_102197" data-name="Trazado 102197" d="M40.131,8A15.131,15.131,0,1,1,25,23.131,15.12,15.12,0,0,1,40.131,8Zm6.485,15.131a6.485,6.485,0,1,0-6.485,6.485A6.476,6.476,0,0,0,46.616,23.131Z" transform="translate(23.231 8.131)" fill="#fcd770"/>
      <path id="Trazado_102198" data-name="Trazado 102198" d="M75.2,30.1v5.058l-4.042.973a25.385,25.385,0,0,1-2.529,6.29,15.066,15.066,0,0,0-7.976,9.446l-.735-.476A24.131,24.131,0,0,1,53,54.266l-.951,4.042h-9.9L41.2,54.266a24.131,24.131,0,0,1-6.917-2.875l-.735.476a15.065,15.065,0,0,0-7.976-9.446,25.386,25.386,0,0,1-2.529-6.29L19,35.18V25.15l4.042-.951a24.131,24.131,0,0,1,2.875-6.917l-2.183-3.545,7-7,3.545,2.183A24.131,24.131,0,0,1,41.2,6.042L42.15,2h9.9L53,6.042a24.131,24.131,0,0,1,6.917,2.875l3.545-2.183,7,7-2.183,3.545A24.131,24.131,0,0,1,71.158,24.2l4.042.951Zm-12.969,0A15.131,15.131,0,1,0,47.1,45.231,15.12,15.12,0,0,0,62.231,30.1Z" transform="translate(16.262 1.162)" fill="#ffc729"/>
      <g id="Grupo_57341" data-name="Grupo 57341" transform="translate(20.131 42.07)">
        <path id="Trazado_102199" data-name="Trazado 102199" d="M38.584,30.959a15.065,15.065,0,0,1,7.976-9.446A14.9,14.9,0,0,1,53.131,20,15.131,15.131,0,1,1,38,35.131,14.739,14.739,0,0,1,38.584,30.959Z" transform="translate(18.201 -20)" fill="#f0d0b4"/>
        <path id="Trazado_102200" data-name="Trazado 102200" d="M53.684,40.387a14.966,14.966,0,0,1,1.578,6.744,15.131,15.131,0,0,1-30.262,0,14.967,14.967,0,0,1,1.578-6.744,15.144,15.144,0,0,1,27.106,0Z" transform="translate(3.1 -6.061)" fill="#f0d0b4"/>
        <path id="Trazado_102201" data-name="Trazado 102201" d="M41.678,30.959a14.739,14.739,0,0,1,.584,4.172A15.131,15.131,0,1,1,27.131,20,14.9,14.9,0,0,1,33.7,21.513a15.066,15.066,0,0,1,7.976,9.446Z" transform="translate(-12 -20)" fill="#f0d0b4"/>
      </g>
      <path id="Trazado_102202" data-name="Trazado 102202" d="M121.724,100.432a30.3,30.3,0,0,0-20.85-28.744,17.247,17.247,0,0,0-12.092-31.55c.121-.35.275-.692.38-1.046l4.461-1.051V24.591l-4.457-1.051a26.494,26.494,0,0,0-2.1-5.065l2.41-3.9L80.045,5.146l-3.9,2.412a26.758,26.758,0,0,0-5.067-2.1L70.033,1H56.691L55.643,5.457a26.676,26.676,0,0,0-5.067,2.1l-3.9-2.412-9.431,9.433,2.41,3.9a26.773,26.773,0,0,0-2.1,5.065L33.1,24.593V38.045L37.56,39.1c.106.352.259.694.38,1.044a17.065,17.065,0,0,0-2.678-.231A17.279,17.279,0,0,0,25.85,71.687,30.3,30.3,0,0,0,5,100.432v8.646H38.563A30.069,30.069,0,0,0,33.1,126.37v8.646H93.624V126.37a30.069,30.069,0,0,0-5.462-17.292h33.563ZM95.785,76.655c0,3.515-1.98,6.485-4.323,6.485s-4.323-2.97-4.323-6.485a8.674,8.674,0,0,1,.216-1.824,24.447,24.447,0,0,1,8.22.022A8.77,8.77,0,0,1,95.785,76.655ZM63.362,96.109A12.969,12.969,0,1,1,76.331,83.139,12.982,12.982,0,0,1,63.362,96.109ZM46.536,77.083c.184.089.37.171.551.264a16.547,16.547,0,0,0-.811,8.328L43.4,92.01l-5.24-6.547ZM63.362,65.847a17.287,17.287,0,0,0-14.338,7.637,30.223,30.223,0,0,0-4.347-1.8A17.286,17.286,0,0,0,52.554,57.2c0-.4-.032-.8-.061-1.189a27.088,27.088,0,0,0,3.149,1.165l1.048,4.457H70.033l1.048-4.457a27.088,27.088,0,0,0,3.149-1.165c-.028.393-.061.787-.061,1.189a17.283,17.283,0,0,0,7.877,14.485,30.065,30.065,0,0,0-4.345,1.8,17.293,17.293,0,0,0-14.34-7.639Zm41.07-8.646A12.969,12.969,0,1,1,91.462,44.231,12.982,12.982,0,0,1,104.432,57.2ZM41.407,36.769l-.316-1.286-3.668-.865V28.013l3.666-.862.316-1.286a22.4,22.4,0,0,1,2.615-6.31l.685-1.13-1.984-3.206,4.593-4.593L50.52,12.61l1.131-.687a22.406,22.406,0,0,1,6.312-2.615l1.286-.316.867-3.668h6.493l.862,3.666,1.286.316a22.47,22.47,0,0,1,6.312,2.615l1.13.687,3.206-1.984L84,15.217l-1.982,3.208.685,1.13a22.4,22.4,0,0,1,2.615,6.31l.316,1.286,3.668.865v6.606l-3.666.862-.316,1.286a22.276,22.276,0,0,1-2.043,5.205,17.4,17.4,0,0,0-7.712,8.437l-.493.3a22.406,22.406,0,0,1-6.312,2.615l-1.286.316-.862,3.666H60.118l-.862-3.668-1.286-.316a22.448,22.448,0,0,1-6.312-2.615l-.493-.3a17.4,17.4,0,0,0-7.712-8.439A22.085,22.085,0,0,1,41.407,36.769ZM22.292,57.2A12.969,12.969,0,1,1,35.262,70.17,12.982,12.982,0,0,1,22.292,57.2Zm19.8,18.211-6.833,6.833-6.813-6.813a25.536,25.536,0,0,1,13.646-.019ZM32.365,85.461l-5.24,6.547L21.091,78.732A25.926,25.926,0,0,1,24,77.1ZM9.323,100.432A25.842,25.842,0,0,1,17.6,81.492l8.508,18.717,9.156-11.448,9.156,11.448,3.9-8.575a17.419,17.419,0,0,0,5.633,5.994,30.267,30.267,0,0,0-11.726,7.129H20.131V91.788H15.808v12.969H9.323Zm54.039,0a25.746,25.746,0,0,1,10.546,2.263L63.362,127.354,52.816,102.693A25.779,25.779,0,0,1,63.362,100.432ZM37.423,126.37a25.926,25.926,0,0,1,11.582-21.585l11.08,25.908H48.231V117.724H43.908v12.969H37.423ZM89.3,130.693H82.816V117.724H78.493v12.969H66.639l11.08-25.908A25.926,25.926,0,0,1,89.3,126.37Zm28.1-25.939h-6.485V91.785h-4.323v12.969H84.5a30.283,30.283,0,0,0-11.726-7.129,17.184,17.184,0,0,0,6.863-20.275,25.476,25.476,0,0,1,3.24-1.392c-.013.231-.061.463-.061.7,0,5.959,3.878,10.808,8.646,10.808s8.646-4.848,8.646-10.808c0-.225-.045-.445-.058-.67A25.962,25.962,0,0,1,117.4,100.432Z" transform="translate(0)"/>
      <path id="Trazado_102203" data-name="Trazado 102203" d="M36.646,28.292A8.646,8.646,0,1,0,28,19.646,8.655,8.655,0,0,0,36.646,28.292Zm0-12.969a4.323,4.323,0,1,1-4.323,4.323A4.327,4.327,0,0,1,36.646,15.323Z" transform="translate(26.716 11.616)"/>
      <path id="Trazado_102204" data-name="Trazado 102204" d="M41.292,41.585A17.292,17.292,0,1,0,24,24.292,17.313,17.313,0,0,0,41.292,41.585Zm0-30.262A12.969,12.969,0,1,1,28.323,24.292,12.982,12.982,0,0,1,41.292,11.323Z" transform="translate(22.07 6.969)"/>
    </g>
  </g>
</svg>
