<svg xmlns="http://www.w3.org/2000/svg" width="346.966" height="198.857" viewBox="0 0 346.966 198.857">
  <g id="Grupo_57345" data-name="Grupo 57345" transform="translate(6072 10034.429)">
    <path id="Trazado_102187" data-name="Trazado 102187" d="M329.329,108.441H314.094a13.8,13.8,0,0,1-13.8-13.8h0a13.8,13.8,0,0,1,13.8-13.8h9.591a5.957,5.957,0,0,0,5.959-4.972,5.842,5.842,0,0,0-5.777-6.706H300.978a.69.69,0,0,1-.685-.7,14.022,14.022,0,0,0-14.022-14h-82.62a3.766,3.766,0,0,1-3.738-2.916,3.68,3.68,0,0,1,3.6-4.437h57.592a7.429,7.429,0,0,0,7.41-6.1,7.3,7.3,0,0,0-7.2-8.5H95.748a7.429,7.429,0,0,0-7.41,6.1,7.3,7.3,0,0,0,7.2,8.5h28.28a8.132,8.132,0,0,1,8.111,6.679,8,8,0,0,1-7.886,9.3H39.981A31.181,31.181,0,0,0,8.8,94.263h0A31.183,31.183,0,0,0,34.181,124.9a4.6,4.6,0,0,1,3.707,4.538v2.544a4.634,4.634,0,0,1-4.634,4.634h0a22.941,22.941,0,0,0-22.941,22.941h0a22.941,22.941,0,0,0,22.941,22.94h.083a6.9,6.9,0,0,1,6.895,6.895v.017a7.161,7.161,0,0,1-6.517,7.1,7.493,7.493,0,0,0-1.689.316,17.765,17.765,0,0,0,5.91,34.538H301.783a18.06,18.06,0,0,0,18.131-16.355c.006-.083.013-.165.018-.247a8.554,8.554,0,0,1,8.5-8.052h3.27a14.76,14.76,0,0,0,14.76-14.76h0c0-6.147-4.955-11.231-10.887-13.36a9.05,9.05,0,0,1-6.111-8.472v-.426a9.815,9.815,0,0,1,7.185-9.4,26.449,26.449,0,0,0,19.113-25.41h0A26.437,26.437,0,0,0,329.329,108.441Z" transform="translate(-6080.8 -10066.933)" fill="#dbf6e9"/>
    <g id="piezas-de-rompecabezas" transform="translate(-5965.886 -9970.762)">
      <g id="Grupo_57344" data-name="Grupo 57344" transform="translate(1.974 3.38)">
        <g id="Grupo_57343" data-name="Grupo 57343">
          <path id="Trazado_102205" data-name="Trazado 102205" d="M38.532,123.845a7.155,7.155,0,0,1,7.135,7.135c0,12.594,3.4,20.883,3.4,30.513,0,9.273-3.106,17.152-7.433,20.057v7.18L29.81,193.9,18.088,188.73c-2.912-13.376-10.576-18.8-10.576-40.166,0-22.336,8.751-40.434,19.543-40.434a10.177,10.177,0,0,1,4.35,1v21.852A7.153,7.153,0,0,1,38.532,123.845Z" transform="translate(-7.512 -82.063)" fill="#ffcbbe" fill-rule="evenodd"/>
          <path id="Trazado_102206" data-name="Trazado 102206" d="M48.86,23.426h6a1.744,1.744,0,0,0,1.408-1.407v-6a7.105,7.105,0,0,1,14.21,0v6a1.743,1.743,0,0,0,1.415,1.407h5.988a7.134,7.134,0,0,1,7.113,7.105v7.411h7.4a7.1,7.1,0,1,1,0,14.21h-7.4v7.4a7.129,7.129,0,0,1-7.113,7.1H48.86a7.123,7.123,0,0,1-7.106-7.1V30.531a7.128,7.128,0,0,1,7.106-7.105Z" transform="translate(-32.757 -8.918)" fill="#ccf49f" fill-rule="evenodd"/>
          <path id="Trazado_102207" data-name="Trazado 102207" d="M105.576,167.942a7.155,7.155,0,0,1,7.135,7.135c0,12.594,3.4,20.883,3.4,30.513,0,9.273-3.106,17.152-7.433,20.057v7.18H98.448v-57.75A7.153,7.153,0,0,1,105.576,167.942Z" transform="translate(-74.556 -126.16)" fill="#ffcbbe" fill-rule="evenodd"/>
          <path id="Trazado_102208" data-name="Trazado 102208" d="M356.852,123.845a7.155,7.155,0,0,0-7.135,7.135c0,12.594-3.4,20.883-3.4,30.513,0,9.273,3.106,17.152,7.44,20.057v7.18l12.3,5.363L377.3,188.73c2.912-13.376,10.576-18.8,10.576-40.166,0-22.336-8.751-40.434-19.551-40.434a10.168,10.168,0,0,0-4.342,1v21.852A7.155,7.155,0,0,0,356.852,123.845Z" transform="translate(-257.297 -82.063)" fill="#ffcbbe" fill-rule="evenodd"/>
          <path id="Trazado_102209" data-name="Trazado 102209" d="M333.849,23.426h-6a1.744,1.744,0,0,1-1.408-1.407v-6a7.105,7.105,0,0,0-14.21,0v6a1.743,1.743,0,0,1-1.415,1.407h-5.988a7.128,7.128,0,0,0-7.1,7.105v6a1.743,1.743,0,0,0,1.408,1.415h6a7.1,7.1,0,1,1,0,14.21h-6a1.743,1.743,0,0,0-1.408,1.407v6a7.123,7.123,0,0,0,7.1,7.1h29.017a7.123,7.123,0,0,0,7.105-7.1V30.531a7.128,7.128,0,0,0-7.105-7.105Z" transform="translate(-221.476 -8.918)" fill="#ff8793" fill-rule="evenodd"/>
          <path id="Trazado_102210" data-name="Trazado 102210" d="M356.852,167.942a7.155,7.155,0,0,0-7.135,7.135c0,12.594-3.4,20.883-3.4,30.513,0,7.924,2.294,14.821,5.638,18.493a5.688,5.688,0,0,1,1.8,4.58v4.163h10.233v-57.75A7.155,7.155,0,0,0,356.852,167.942Z" transform="translate(-257.297 -126.16)" fill="#ffcbbe" fill-rule="evenodd"/>
          <path id="Trazado_102211" data-name="Trazado 102211" d="M58.858,435.958V421.793a6.92,6.92,0,0,0-6.9-6.9H28.412a6.92,6.92,0,0,0-6.9,6.9v14.166a2.465,2.465,0,0,0,2.108,2.108H56.751a2.48,2.48,0,0,0,2.107-2.108Z" transform="translate(-17.836 -308.23)" fill="#a5cdff" fill-rule="evenodd"/>
          <path id="Trazado_102212" data-name="Trazado 102212" d="M348.382,435.958V421.793a6.92,6.92,0,0,1,6.9-6.9h23.543a6.92,6.92,0,0,1,6.9,6.9v14.166a2.465,2.465,0,0,1-2.1,2.108H350.482A2.464,2.464,0,0,1,348.382,435.958Z" transform="translate(-258.822 -308.23)" fill="#a5cdff" fill-rule="evenodd"/>
        </g>
        <path id="Trazado_102213" data-name="Trazado 102213" d="M87.706,241.282a1.914,1.914,0,0,1-3.828,0V228.688h3.828Z" transform="translate(-63.814 -170.946)" fill="#f0b6a6"/>
        <path id="Trazado_102214" data-name="Trazado 102214" d="M417.407,241.282a1.914,1.914,0,0,1-3.828,0V228.688h3.828Z" transform="translate(-306.889 -170.946)" fill="#f0b6a6"/>
        <path id="Trazado_102215" data-name="Trazado 102215" d="M121.5,201.529c0,7.977-2.294,14.918-5.7,18.552-1.951,2.093-1.743,4.863-1.735,5.928v6.837h6.122v-4c0-3.18.894-2.86,3.441-6.934,2.443-3.9,3.992-9.749,3.992-16.3,0-9.63-3.4-17.919-3.4-30.513a7.156,7.156,0,0,0-6.807-7.128,7.08,7.08,0,0,1,.685,3.046C118.1,183.61,121.5,191.9,121.5,201.529Z" transform="translate(-86.065 -126.181)" fill="#f0b6a6" fill-rule="evenodd"/>
        <path id="Trazado_102216" data-name="Trazado 102216" d="M119.423,36.907V59.555a7.123,7.123,0,0,1-7.105,7.105h6.375a7.129,7.129,0,0,0,7.113-7.105v-7.4h7.4a7.105,7.105,0,1,0,0-14.21h-7.4V30.531a7.134,7.134,0,0,0-7.113-7.105h-5.988a1.744,1.744,0,0,1-1.415-1.407v-6a7.1,7.1,0,0,0-14.173-.7c.223-.022.462-.03.693-.03a7.123,7.123,0,0,1,7.105,7.1v6A1.743,1.743,0,0,0,106.33,29.8h5.988a7.128,7.128,0,0,1,7.105,7.105Z" transform="translate(-73.574 -8.918)" fill="#b3e59f" fill-rule="evenodd"/>
        <path id="Trazado_102217" data-name="Trazado 102217" d="M375.372,36.907V59.555a7.131,7.131,0,0,1-6.412,7.075v.03h5.683a7.123,7.123,0,0,0,7.105-7.105V30.531a7.128,7.128,0,0,0-7.105-7.105h-6a1.744,1.744,0,0,1-1.408-1.407v-6a7.108,7.108,0,0,0-14.181-.7c.231-.022.462-.03.7-.03a7.123,7.123,0,0,1,7.105,7.105v6a1.744,1.744,0,0,0,1.408,1.408h6a7.139,7.139,0,0,1,6.889,5.362,7.289,7.289,0,0,1,.208,1.415c.007.1.007.216.007.328Z" transform="translate(-262.27 -8.918)" fill="#ff6978" fill-rule="evenodd"/>
        <path id="Trazado_102218" data-name="Trazado 102218" d="M450.554,159.661c0,21.368-7.671,26.789-10.583,40.166h6.383c2.912-13.376,10.576-18.8,10.576-40.166,0-16.072-4.536-29.955-11.1-36.479V133.3c2.949,7.076,4.729,16.288,4.729,26.357Z" transform="translate(-326.347 -93.16)" fill="#f0b6a6" fill-rule="evenodd"/>
        <path id="Trazado_102219" data-name="Trazado 102219" d="M446.868,421.793v14.166a2.464,2.464,0,0,1-2.1,2.108h6.375a2.465,2.465,0,0,0,2.1-2.108V421.793a6.92,6.92,0,0,0-6.9-6.9h-6.375a6.916,6.916,0,0,1,6.9,6.9Z" transform="translate(-326.347 -308.23)" fill="#8abfff" fill-rule="evenodd"/>
        <path id="Trazado_102220" data-name="Trazado 102220" d="M120.02,421.793v14.166a2.464,2.464,0,0,1-2.1,2.108H124.3a2.48,2.48,0,0,0,2.107-2.108V421.793a6.92,6.92,0,0,0-6.9-6.9h-6.375a6.916,6.916,0,0,1,6.889,6.9Z" transform="translate(-85.381 -308.23)" fill="#8abfff" fill-rule="evenodd"/>
      </g>
      <path id="Trazado_102221" data-name="Trazado 102221" d="M23.892,52.3a9.105,9.105,0,0,1,18.21,0,68.356,68.356,0,0,0,.343,6.852h4.647a5.15,5.15,0,0,0,5.139-5.132v-7.4a1.972,1.972,0,0,1,1.974-1.974h7.4a5.135,5.135,0,0,0,0-10.27h-7.4A1.966,1.966,0,0,1,52.232,32.4V24.993a5.162,5.162,0,0,0-5.139-5.132h-7.4a1.97,1.97,0,0,1-1.966-1.974v-7.4a5.135,5.135,0,0,0-10.271,0v7.4a1.977,1.977,0,0,1-1.974,1.974h-7.4a5.162,5.162,0,0,0-5.139,5.132V54.017a5.15,5.15,0,0,0,5.139,5.132h5.817Zm86.737,21.42a1.97,1.97,0,0,1-3.94,0V52.3a5.161,5.161,0,0,0-10.322,0A97.739,97.739,0,0,1,94.461,69.97a73.277,73.277,0,0,0-1.5,12.84c0,5.34,1.5,15.029,6.554,18.426a1.946,1.946,0,0,1,.872,1.631l.007,5.214h20.02a69.756,69.756,0,0,1,4.17-11.291c2.942-6.688,6-13.637,6-26.909a72.7,72.7,0,0,0-2.9-20.921,42.824,42.824,0,0,0-4.253-9.816V54.017a9.1,9.1,0,0,1-9.079,9.079H110.63Zm0-21.42v6.852h3.717a5.149,5.149,0,0,0,5.139-5.132V24.993a5.162,5.162,0,0,0-5.139-5.132h-7.4a1.977,1.977,0,0,1-1.974-1.974v-7.4a5.136,5.136,0,0,0-10.271,0v7.4a1.971,1.971,0,0,1-1.966,1.974h-7.4a5.162,5.162,0,0,0-5.139,5.132V30.43h5.437a9.075,9.075,0,0,1,0,18.15H80.191v5.437a5.149,5.149,0,0,0,5.139,5.132h6.755c.208-2.152.343-4.424.343-6.852a9.1,9.1,0,0,1,18.2,0ZM23.892,63.1H18.076A9.1,9.1,0,0,1,9,54.017V42.942a48.541,48.541,0,0,0-2.763,7.828A75.69,75.69,0,0,0,3.94,69.88c0,13.272,3.054,20.221,6,26.909a69.756,69.756,0,0,1,4.171,11.291h20.02v-5.213A1.965,1.965,0,0,1,35,101.236c5.057-3.4,6.562-13.086,6.562-18.426a73.293,73.293,0,0,0-1.5-12.84,98.394,98.394,0,0,1-1.9-17.673,5.165,5.165,0,0,0-10.33,0v21.42a1.97,1.97,0,0,1-3.94,0Zm81.844,68.147a1.974,1.974,0,1,1,0,3.947h-14.2a1.977,1.977,0,0,1-1.974-1.974V116.943a8.894,8.894,0,0,1,6.9-8.639v-4.461c-5.608-4.64-7.433-14.285-7.433-21.033A76.337,76.337,0,0,1,90.58,69.3c.358-2,.715-4.051,1.028-6.2H85.33a9.1,9.1,0,0,1-9.079-9.079v-7.4a1.972,1.972,0,0,1,1.974-1.974h7.4a5.135,5.135,0,0,0,0-10.27h-7.4A1.966,1.966,0,0,1,76.251,32.4V24.993a9.1,9.1,0,0,1,9.079-9.071h5.43V10.485a9.079,9.079,0,0,1,18.157,0v5.437h5.43a9.1,9.1,0,0,1,9.079,9.071v7.627c3.3,3.552,6.07,8.825,8.014,15.2a76.827,76.827,0,0,1,3.084,22.06c0,14.084-3.225,21.427-6.331,28.5a68.687,68.687,0,0,0-3.791,10.04,8.95,8.95,0,0,1,3.836,2.264,8.845,8.845,0,0,1,2.607,6.263v16.273a1.977,1.977,0,0,1-1.974,1.974h-14.2a1.974,1.974,0,1,1,0-3.947H126.9v-14.3a4.946,4.946,0,0,0-4.923-4.923H98.43a4.933,4.933,0,0,0-4.923,4.923v14.3ZM28.786,135.19a1.974,1.974,0,0,1,0-3.947H41.023v-14.3A4.946,4.946,0,0,0,36.1,112.02H12.549a4.934,4.934,0,0,0-4.923,4.923v14.3H19.863a1.974,1.974,0,0,1,0,3.947H5.653a1.971,1.971,0,0,1-1.966-1.974V116.943a8.868,8.868,0,0,1,2.6-6.263,8.994,8.994,0,0,1,3.835-2.264,68.678,68.678,0,0,0-3.783-10.04C3.225,91.308,0,83.964,0,69.88A79.271,79.271,0,0,1,2.435,49.764,43.166,43.166,0,0,1,9,35.182V24.993a9.1,9.1,0,0,1,9.079-9.071h5.437V10.485a9.075,9.075,0,0,1,18.15,0v5.437h5.43a9.1,9.1,0,0,1,9.079,9.071V30.43h5.437a9.075,9.075,0,0,1,0,18.15H56.171v5.437A9.1,9.1,0,0,1,47.092,63.1H42.922c.305,2.152.671,4.208,1.02,6.2a76.323,76.323,0,0,1,1.564,13.51c0,6.748-1.832,16.393-7.441,21.033V108.3a8.875,8.875,0,0,1,6.9,8.639v16.273A1.971,1.971,0,0,1,43,135.19H28.786Z" transform="translate(0)"/>
    </g>
  </g>
</svg>
