<svg xmlns="http://www.w3.org/2000/svg" width="95" height="96" viewBox="0 0 95 96">
  <g id="Grupo_57321" data-name="Grupo 57321" transform="translate(-754 -3405)">
    <ellipse id="Base" cx="47.5" cy="48" rx="47.5" ry="48" transform="translate(754 3405)" fill="#fff"/>
    <g id="conversacion" transform="translate(773 3416.833)">
      <g id="Grupo_57300" data-name="Grupo 57300" transform="translate(0.85 9.017)">
        <path id="Trazado_101995" data-name="Trazado 101995" d="M188.766,324.372h7.316c2.387.715,4.455,2.114,4.455,3.724v9.555H184.311V328.1C184.311,326.486,186.377,325.087,188.766,324.372Z" transform="translate(-164.305 -289.442)" fill="#ebd2ff" fill-rule="evenodd"/>
        <path id="Trazado_101996" data-name="Trazado 101996" d="M268.534,328.1v9.555h2.746V328.1c0-1.61-2.069-3.009-4.456-3.724h-2.746C266.465,325.087,268.534,326.486,268.534,328.1Z" transform="translate(-235.047 -289.442)" fill="#d7bef0" fill-rule="evenodd"/>
        <path id="Trazado_101997" data-name="Trazado 101997" d="M94.281,432.538H98.6l3.535-.494,3.506.494h13.873l3.448-.677,3.589.677h4.327v6.62h-36.6Z" transform="translate(-84.463 -384.768)" fill="#d09080" fill-rule="evenodd"/>
        <path id="Trazado_101998" data-name="Trazado 101998" d="M7.512,350.635V336.553a3.16,3.16,0,0,1,3.15-3.15h5.2c.09,0,.18,0,.266.01a2.421,2.421,0,0,1,2.162.946l4.234,5.607a.961.961,0,0,0,.866.43h5.3a2.412,2.412,0,1,1,0,4.824H21.654a2.4,2.4,0,0,1-1.921-.959l-.719-.949v8.529H8.715a1.487,1.487,0,0,1-1.2-1.206Z" transform="translate(-7.512 -297.45)" fill="#ff6978" fill-rule="evenodd"/>
        <path id="Trazado_101999" data-name="Trazado 101999" d="M319.569,350.635V336.553a3.16,3.16,0,0,0-3.153-3.15h-5.2q-.135,0-.269.01a2.421,2.421,0,0,0-2.162.946l-4.231,5.607a.975.975,0,0,1-.866.43h-5.3a2.412,2.412,0,1,0,0,4.824h7.037a2.412,2.412,0,0,0,1.925-.959l.715-.949v8.529h10.3a1.5,1.5,0,0,0,1.206-1.206Z" transform="translate(-263.33 -297.45)" fill="#ccf49f" fill-rule="evenodd"/>
        <path id="Trazado_102000" data-name="Trazado 102000" d="M203.424,89.683h13.818l3.5,3.5c.279.276.6.116.6-.25V89.683a3.249,3.249,0,0,0,3.236-3.24V78.27a3.246,3.246,0,0,0-3.236-3.236H203.424a3.249,3.249,0,0,0-3.24,3.236v8.173A3.251,3.251,0,0,0,203.424,89.683Z" transform="translate(-178.382 -68.318)" fill="#ecf4ff" fill-rule="evenodd"/>
        <path id="Trazado_102001" data-name="Trazado 102001" d="M20.013,33.779H34.55a4.311,4.311,0,0,0,4.3-4.3V19.974a4.31,4.31,0,0,0-4.3-4.295H15.92a4.31,4.31,0,0,0-4.3,4.295v9.507a4.311,4.311,0,0,0,4.3,4.3v3.249a.335.335,0,0,0,.6.247Z" transform="translate(-11.157 -15.679)" fill="#ecf4ff" fill-rule="evenodd"/>
        <path id="Trazado_102002" data-name="Trazado 102002" d="M224.682,244.224a4.58,4.58,0,0,1-9.161,0v-4.908a2.571,2.571,0,0,1,2.566-2.563H224a.613.613,0,0,1,.683.68Z" transform="translate(-191.984 -211.738)" fill="#ffcbbe" fill-rule="evenodd"/>
        <path id="Trazado_102003" data-name="Trazado 102003" d="M215.521,239.315v1.479h9.161v-3.362a.613.613,0,0,0-.683-.68h-5.911A2.571,2.571,0,0,0,215.521,239.315Z" transform="translate(-191.984 -211.736)" fill="#ffe5a0" fill-rule="evenodd"/>
        <path id="Trazado_102004" data-name="Trazado 102004" d="M17.858,244.224a4.58,4.58,0,0,0,9.161,0v-4.908a2.571,2.571,0,0,0-2.566-2.563H20.421a2.57,2.57,0,0,0-2.563,2.563v4.908Z" transform="translate(-16.687 -211.738)" fill="#ffcbbe" fill-rule="evenodd"/>
        <path id="Trazado_102005" data-name="Trazado 102005" d="M422.371,244.224a4.579,4.579,0,1,1-9.158,0v-4.908a2.568,2.568,0,0,1,2.563-2.563h4.032a2.568,2.568,0,0,1,2.563,2.563Z" transform="translate(-367.306 -211.738)" fill="#c68b87" fill-rule="evenodd"/>
        <path id="Trazado_102006" data-name="Trazado 102006" d="M447.483,264.31a4.593,4.593,0,0,1-4.577,4.58,4.659,4.659,0,0,1-1.376-.212,4.6,4.6,0,0,0,3.185-3.923,6.128,6.128,0,0,0,2.765-.285l0-5.068Z" transform="translate(-392.419 -231.823)" fill="#bd7d79" fill-rule="evenodd"/>
        <path id="Trazado_102007" data-name="Trazado 102007" d="M27.019,239.316V241.1a3.438,3.438,0,0,1-2.97-.266c-.481-.273-.565-.276-.622.167-.167,1.286-.747,4.837-5.562,3.384l-.006-5.068a2.57,2.57,0,0,1,2.563-2.563h4.032A2.571,2.571,0,0,1,27.019,239.316Z" transform="translate(-16.687 -211.737)" fill="#c68b87" fill-rule="evenodd"/>
        <path id="Trazado_102008" data-name="Trazado 102008" d="M413.212,239.316V241.1a3.432,3.432,0,0,0,2.967-.266c.484-.273.565-.276.622.167.167,1.286.747,4.837,5.565,3.384l0-5.068a2.566,2.566,0,0,0-2.563-2.563h-4.032A2.568,2.568,0,0,0,413.212,239.316Z" transform="translate(-367.305 -211.737)" fill="#477b9e" fill-rule="evenodd"/>
        <path id="Trazado_102009" data-name="Trazado 102009" d="M449.791,239.315v4.908a4.158,4.158,0,0,1-.022.446,6.129,6.129,0,0,0,2.765-.285l0-5.068a2.569,2.569,0,0,0-2.383-2.556,1.669,1.669,0,0,0-.18-.006h-2.746A2.568,2.568,0,0,1,449.791,239.315Z" transform="translate(-397.472 -211.736)" fill="#365e7d" fill-rule="evenodd"/>
        <path id="Trazado_102010" data-name="Trazado 102010" d="M49.414,277.131a4.6,4.6,0,0,1-3.208,4.369,4.578,4.578,0,0,0,5.953-4.369v-3.124a3.391,3.391,0,0,1-2.746-.148v3.272Z" transform="translate(-41.828 -244.645)" fill="#f7beaf" fill-rule="evenodd"/>
        <path id="Trazado_102011" data-name="Trazado 102011" d="M51.875,236.753a2.571,2.571,0,0,1,2.566,2.563v1.636a3.391,3.391,0,0,0,2.746.148v-1.783a2.571,2.571,0,0,0-2.566-2.563Z" transform="translate(-46.855 -211.737)" fill="#bd7d79" fill-rule="evenodd"/>
        <path id="Trazado_102012" data-name="Trazado 102012" d="M247.075,275.9a4.6,4.6,0,0,1-3.207,4.369,4.578,4.578,0,0,0,5.953-4.369V272.47h-2.746V275.9Z" transform="translate(-217.123 -243.413)" fill="#f7beaf" fill-rule="evenodd"/>
        <path id="Trazado_102013" data-name="Trazado 102013" d="M266.86,237.433v3.362h2.746v-3.362a.613.613,0,0,0-.683-.68h-2.746A.613.613,0,0,1,266.86,237.433Z" transform="translate(-236.908 -211.737)" fill="#f2ce7e" fill-rule="evenodd"/>
        <path id="Trazado_102014" data-name="Trazado 102014" d="M85.233,392.129a.183.183,0,0,0-.333.112v11.611h2.746v-8.529Z" transform="translate(-76.143 -349.462)" fill="#cf4351" fill-rule="evenodd"/>
        <path id="Trazado_102015" data-name="Trazado 102015" d="M470.8,336.715V350.8A1.5,1.5,0,0,1,469.593,352h2.746a1.5,1.5,0,0,0,1.206-1.206V336.715a3.165,3.165,0,0,0-2.794-3.131,4.546,4.546,0,0,1-1.107.7A3.149,3.149,0,0,1,470.8,336.715Z" transform="translate(-417.306 -297.611)" fill="#b3e59f" fill-rule="evenodd"/>
        <path id="Trazado_102016" data-name="Trazado 102016" d="M200.5,87.154a3.25,3.25,0,0,0,3.2,2.781H217.52l3.5,3.5c.279.276.6.116.6-.25V89.935a3.248,3.248,0,0,0,3.236-3.24V78.522a3.247,3.247,0,0,0-2.778-3.2,3.1,3.1,0,0,1,.032.459V83.95a3.246,3.246,0,0,1-3.237,3.236H200.956A3.08,3.08,0,0,1,200.5,87.154Z" transform="translate(-178.66 -68.57)" fill="#ddeafb" fill-rule="evenodd"/>
        <path id="Trazado_102017" data-name="Trazado 102017" d="M37.787,28.395a4.308,4.308,0,0,1-4.3,4.3H14.859a4.279,4.279,0,0,1-1.337-.215,4.314,4.314,0,0,0,4.083,2.961v3.249a.335.335,0,0,0,.6.247l3.5-3.5H36.235a4.311,4.311,0,0,0,4.3-4.3V21.633a4.32,4.32,0,0,0-2.96-4.083,4.309,4.309,0,0,1,.215,1.337v9.507Z" transform="translate(-12.842 -17.338)" fill="#ddeafb" fill-rule="evenodd"/>
        <path id="Trazado_102018" data-name="Trazado 102018" d="M378.571,437.843h2.746v6.62h-2.746Z" transform="translate(-336.584 -390.073)" fill="#be694f" fill-rule="evenodd"/>
      </g>
      <path id="Trazado_102019" data-name="Trazado 102019" d="M3.1,42.783a3.731,3.731,0,0,0,7.233-1.28V39.428A4.274,4.274,0,0,1,8.317,39.1a6.943,6.943,0,0,1-.173.686A4.464,4.464,0,0,1,6.726,42.01a4.139,4.139,0,0,1-2.922.847,6.39,6.39,0,0,1-.706-.074Zm21.985-5.559h7.461V34.879H26.8A1.725,1.725,0,0,0,25.083,36.6Zm7.461,1.7H25.083V41.5a3.73,3.73,0,0,0,7.461,0V38.921ZM55.8,44.586a4.041,4.041,0,0,1,1.187.956,3.975,3.975,0,0,1,.949,2.579v5.722a.848.848,0,0,1-1.7,0V48.12a2.292,2.292,0,0,0-.545-1.485,2.33,2.33,0,0,0-1.174-.744,5.4,5.4,0,0,1-6.46-.067,1.624,1.624,0,0,0-.5.141,1.554,1.554,0,0,0-.577.472l-4.558,6.037a.852.852,0,0,1-.677.34H35.906a1.564,1.564,0,1,0,0,3.127h6.976a1.526,1.526,0,0,0,.76-.164,5.027,5.027,0,0,0,1.293-1.447l3.018-3.993a.846.846,0,1,1,1.35,1.02l-2.871,3.8v7.4h9.805V57.685a.848.848,0,0,1,1.7,0v5.722a.846.846,0,0,1-.847.847H.85A.849.849,0,0,1,0,63.407V57.685a.848.848,0,0,1,1.7,0v4.872h9.809v-7.4l-2.874-3.8a.847.847,0,0,1,1.354-1.02l2.951,3.907c.27.356.539.715.808,1.074a1.561,1.561,0,0,0,.552.459,1.485,1.485,0,0,0,.709.164h7.028a1.564,1.564,0,1,0,0-3.127H16.189a.847.847,0,0,1-.677-.34l-4.558-6.037a1.569,1.569,0,0,0-1.078-.613,5.406,5.406,0,0,1-6.46.071,2.326,2.326,0,0,0-1.161.725,2.3,2.3,0,0,0-.558,1.5v5.722a.848.848,0,0,1-1.7,0V48.12a3.987,3.987,0,0,1,.975-2.608,4.085,4.085,0,0,1,1.164-.927A5.382,5.382,0,0,1,1.174,41.5V36.6a3.417,3.417,0,0,1,3.41-3.413H8.616A3.417,3.417,0,0,1,12.029,36.6V41.5a5.391,5.391,0,0,1-.879,2.954,3.286,3.286,0,0,1,1.158.959l4.3,5.7h3.4V47.671a3.54,3.54,0,0,1,1.354-2.6A8.916,8.916,0,0,1,23.8,43.588a5.388,5.388,0,0,1-.417-2.085V36.6A3.417,3.417,0,0,1,26.8,33.183h6.595a.852.852,0,0,1,.85.85V41.5a5.426,5.426,0,0,1-.375,1.979,9.235,9.235,0,0,1,2.624,1.507,3.6,3.6,0,0,1,1.437,2.682v3.442h3.4l4.3-5.7a3.249,3.249,0,0,1,1.161-.956,5.387,5.387,0,0,1-.882-2.957V36.6a3.417,3.417,0,0,1,3.413-3.413h4.032A3.417,3.417,0,0,1,56.765,36.6V41.5A5.406,5.406,0,0,1,55.8,44.586Zm-.962-1.8a6.313,6.313,0,0,1-.706.074,4.136,4.136,0,0,1-2.919-.847,4.447,4.447,0,0,1-1.421-2.223,6.929,6.929,0,0,1-.17-.686,4.29,4.29,0,0,1-2.018.327V41.5a3.731,3.731,0,0,0,7.233,1.28ZM47.6,37.728a2.766,2.766,0,0,0,2.107-.625.857.857,0,0,1,.552-.237.844.844,0,0,1,.885.8,6.756,6.756,0,0,0,.263,1.62,2.81,2.81,0,0,0,.86,1.4,2.545,2.545,0,0,0,1.78.475,6.109,6.109,0,0,0,1.017-.148V36.6a1.731,1.731,0,0,0-1.716-1.716H49.32A1.731,1.731,0,0,0,47.6,36.6Zm-37.272,0V36.6a1.725,1.725,0,0,0-1.716-1.716H4.584A1.725,1.725,0,0,0,2.871,36.6v4.423a6.04,6.04,0,0,0,1.014.148,2.546,2.546,0,0,0,1.78-.475,2.838,2.838,0,0,0,.863-1.4,6.6,6.6,0,0,0,.26-1.62A.849.849,0,0,1,8.218,37.1,2.768,2.768,0,0,0,10.332,37.728Zm14.38,7.32a7.373,7.373,0,0,0-2.226,1.28,1.937,1.937,0,0,0-.783,1.344v3.442h.33a3.261,3.261,0,0,1,2.861,4.827h8.147a3.265,3.265,0,0,1,2.864-4.827h.327V47.671a2,2,0,0,0-.84-1.4,7.892,7.892,0,0,0-2.4-1.318c-.109.131-.225.26-.343.379a5.409,5.409,0,0,1-7.669,0q-.14-.14-.27-.289ZM7.073,14.45a.848.848,0,0,1,0-1.7H22.783a.848.848,0,0,1,0,1.7Zm0,8.93a.85.85,0,0,1,0-1.7h7.855a.85.85,0,0,1,0,1.7Zm0-4.465a.848.848,0,0,1,0-1.7H22.783a.848.848,0,0,1,0,1.7Zm16.58,9.048a2.346,2.346,0,0,0,.549.866,2.372,2.372,0,0,0,1.69.7h4.988a.848.848,0,0,1,0,1.7H25.892A4.054,4.054,0,0,1,23,30.023a4.125,4.125,0,0,1-1.11-2.059H10.059L6.216,31.807a.851.851,0,0,1-1.453-.6V27.893A5.163,5.163,0,0,1,.468,22.819V13.312A5.158,5.158,0,0,1,5.613,8.167h18.63a5.158,5.158,0,0,1,5.145,5.145v1.572H43.8A4.1,4.1,0,0,1,47.89,18.97v8.173a4.1,4.1,0,0,1-3.24,4v3.336a.847.847,0,0,1-1.447.6L39.357,31.23H34.722a.848.848,0,1,1,0-1.7H39.71a.838.838,0,0,1,.6.253l2.64,2.64V30.383a.85.85,0,0,1,.85-.85,2.4,2.4,0,0,0,2.39-2.39V18.97a2.4,2.4,0,0,0-2.39-2.39H29.388v6.239a5.158,5.158,0,0,1-5.145,5.145h-.59Zm-13.947-1.7H24.243a3.46,3.46,0,0,0,3.448-3.448V13.312a3.461,3.461,0,0,0-3.448-3.448H5.613a3.461,3.461,0,0,0-3.448,3.448v9.507a3.461,3.461,0,0,0,3.448,3.448.849.849,0,0,1,.847.85v2.043l2.646-2.643a.843.843,0,0,1,.6-.25Zm35.03,31.37H13.2v4.92H44.736v-4.92Z"/>
    </g>
  </g>
</svg>
