<svg xmlns="http://www.w3.org/2000/svg" width="63.612" height="69.741" viewBox="0 0 63.612 69.741">
  <g id="buscar" transform="translate(-22.501 0)">
    <g id="Grupo_57281" data-name="Grupo 57281" transform="translate(38.142 44.11)">
      <path id="Trazado_101975" data-name="Trazado 101975" d="M143.3,323.823l-5.966,5.966.247,3.623,3.78.4,5.962-5.962-.043-3.984Z" transform="translate(-137.331 -323.823)" fill="#6d80aa" fill-rule="evenodd"/>
    </g>
    <g id="Grupo_57282" data-name="Grupo 57282" transform="translate(23.523 52.437)">
      <path id="Trazado_101976" data-name="Trazado 101976" d="M45.438,385.874l.845,5.8-8.188,8.185a4.745,4.745,0,0,1-6.71-6.71l8.187-8.187Z" transform="translate(-30 -384.96)" fill="#fdb440" fill-rule="evenodd"/>
    </g>
    <g id="Grupo_57283" data-name="Grupo 57283" transform="translate(33.093 49.039)">
      <path id="Trazado_101977" data-name="Trazado 101977" d="M103.444,360.23l-3.181,3.181,6.71,6.71,3.181-3.177a.752.752,0,0,0,0-1.058l-.815-.815-4.027-4.023-.815-.819A.747.747,0,0,0,103.444,360.23Z" transform="translate(-100.263 -360.013)" fill="#f8f2f0" fill-rule="evenodd"/>
    </g>
    <g id="Grupo_57284" data-name="Grupo 57284" transform="translate(23.974 56.891)">
      <path id="Trazado_101978" data-name="Trazado 101978" d="M46.887,417.656,38.7,425.843a4.763,4.763,0,0,1-5.386.932,4.7,4.7,0,0,0,.932,1.324,4.752,4.752,0,0,0,6.71,0l8.187-8.187Z" transform="translate(-33.314 -417.656)" fill="#fe9900" fill-rule="evenodd"/>
    </g>
    <g id="Grupo_57285" data-name="Grupo 57285" transform="translate(37.547 52.657)">
      <path id="Trazado_101979" data-name="Trazado 101979" d="M135.925,387.835,132.96,390.8l2.256,2.256,3.181-3.177a.752.752,0,0,0,0-1.058l-.815-.815-1.442-1.441a.747.747,0,0,1,0,1.054Z" transform="translate(-132.96 -386.57)" fill="#eee1dc" fill-rule="evenodd"/>
    </g>
    <g id="Grupo_57286" data-name="Grupo 57286" transform="translate(39.289 9.671)">
      <path id="Trazado_101980" data-name="Trazado 101980" d="M179.1,70.995H158.2a22.883,22.883,0,1,0,20.894,0Z" transform="translate(-145.749 -70.995)" fill="#f8f2f0" fill-rule="evenodd"/>
    </g>
    <g id="Grupo_57287" data-name="Grupo 57287" transform="translate(44.116 15.597)">
      <path id="Trazado_101981" data-name="Trazado 101981" d="M210.1,114.5h-21.69a18.072,18.072,0,1,0,21.69,0Z" transform="translate(-181.187 -114.504)" fill="#22a6fe" fill-rule="evenodd"/>
    </g>
    <g id="Grupo_57288" data-name="Grupo 57288" transform="translate(53.98 24.568)">
      <path id="Trazado_101982" data-name="Trazado 101982" d="M255.467,184.9c-.615.169-1.242.329-1.868.505l6.738,6.675a2.226,2.226,0,0,0,2.942,0l6.738-6.675c-.627-.176-1.253-.337-1.865-.505-1.426-.388-1.8-2.225-2.092-2.82-2.985-2.288-5.512-2.3-8.5,0C257.265,182.677,256.889,184.514,255.467,184.9Z" transform="translate(-253.599 -180.363)" fill="#fed1a3" fill-rule="evenodd"/>
    </g>
    <g id="Grupo_57289" data-name="Grupo 57289" transform="translate(51.343 6.146)">
      <path id="Trazado_101983" data-name="Trazado 101983" d="M234.244,55.539c0,3.435,2.852,7.642,6.6,9.722a11.742,11.742,0,0,0,1.532.709,7.026,7.026,0,0,0,5.433,0,11.554,11.554,0,0,0,1.536-.709c3.745-2.08,6.593-6.287,6.593-9.722V52.221c-16.2-8.676-4.524-10.227-21.69,0v3.318Z" transform="translate(-234.244 -45.121)" fill="#ffe5c1" fill-rule="evenodd"/>
    </g>
    <g id="Grupo_57290" data-name="Grupo 57290" transform="translate(51.343 1.022)">
      <path id="Trazado_101984" data-name="Trazado 101984" d="M243.219,7.689a10.807,10.807,0,0,0-8.575,8.461,15.449,15.449,0,0,0-.4,3.576c4.391-.306,3.737-3.659,6.765-2.879a20.028,20.028,0,0,0,4.082.909,20.013,20.013,0,0,0,4.078-.909c3.032-.78,2.378,2.573,6.765,2.879a15.457,15.457,0,0,0-.4-3.576,10.807,10.807,0,0,0-8.579-8.461,9.4,9.4,0,0,0-3.741,0Z" transform="translate(-234.245 -7.501)" fill="#6d80aa" fill-rule="evenodd"/>
    </g>
    <g id="Grupo_57291" data-name="Grupo 57291" transform="translate(47.042 29.613)">
      <path id="Trazado_101985" data-name="Trazado 101985" d="M209.606,217.395c-3.506.987-6.937,2.4-6.937,7.439V227.7a18.075,18.075,0,0,0,30.292,0v-2.863c0-5.041-3.428-6.451-6.937-7.439l-6.738,3.952a2.226,2.226,0,0,1-2.942,0Z" transform="translate(-202.669 -217.395)" fill="#fd4755" fill-rule="evenodd"/>
    </g>
    <g id="Grupo_57292" data-name="Grupo 57292" transform="translate(58.191 12.205)">
      <path id="Trazado_101986" data-name="Trazado 101986" d="M296.34,92.993c-.039,3.239-2.585,7.141-6.009,9.3-.192.121-.388.239-.584.349a11.551,11.551,0,0,1-1.536.709,7.016,7.016,0,0,1-3.7.466,10.685,10.685,0,0,0,1.281.576,7.026,7.026,0,0,0,5.433,0,11.553,11.553,0,0,0,1.536-.709c3.745-2.08,6.593-6.287,6.593-9.722V90.643a5.319,5.319,0,0,1-3.012-1.042v3.314C296.344,92.942,296.34,92.97,296.34,92.993Z" transform="translate(-284.514 -89.601)" fill="#fed1a3" fill-rule="evenodd"/>
    </g>
    <g id="Grupo_57293" data-name="Grupo 57293" transform="translate(64.055 1.21)">
      <path id="Trazado_101987" data-name="Trazado 101987" d="M333.342,17.372a15.634,15.634,0,0,1,.172,1.818c.008.227.016.454.016.685a5.316,5.316,0,0,0,3.012,1.042,15.457,15.457,0,0,0-.4-3.576,10.806,10.806,0,0,0-8.579-8.461h0A10.975,10.975,0,0,1,333.13,16.3c.078.337.149.682.2,1.042,0,.012,0,.02.008.031Z" transform="translate(-327.564 -8.88)" fill="#49679b" fill-rule="evenodd"/>
    </g>
    <g id="Grupo_57294" data-name="Grupo 57294" transform="translate(67.706 29.613)">
      <path id="Trazado_101988" data-name="Trazado 101988" d="M355.212,219.219c3.2.991,6.091,2.558,6.091,7.192v4.516a17.934,17.934,0,0,0,2.691-3.232v-2.863c0-5.041-3.428-6.451-6.937-7.439l-2.691,1.579C354.648,219.051,354.934,219.133,355.212,219.219Z" transform="translate(-354.366 -217.394)" fill="#e41e2b" fill-rule="evenodd"/>
    </g>
    <g id="Grupo_57295" data-name="Grupo 57295" transform="translate(72.861 15.597)">
      <path id="Trazado_101989" data-name="Trazado 101989" d="M392.211,117.011a33.816,33.816,0,0,1,2.162,12.017c0,.513-.012,1.022-.035,1.532a6.376,6.376,0,0,1,2.346,5.4v2.863a18.074,18.074,0,0,0-4.3-24.317v.968A7.289,7.289,0,0,1,392.211,117.011Z" transform="translate(-392.211 -114.504)" fill="#0182fc" fill-rule="evenodd"/>
    </g>
    <g id="Grupo_57296" data-name="Grupo 57296" transform="translate(65.81 9.671)">
      <path id="Trazado_101990" data-name="Trazado 101990" d="M347.67,76.922a18.08,18.08,0,0,1-1.806,30.106,25.6,25.6,0,0,1-5.418,6.964,22.908,22.908,0,0,0,6.828-43,15.454,15.454,0,0,1,.4,3.576v2.35Z" transform="translate(-340.447 -70.995)" fill="#eee1dc" fill-rule="evenodd"/>
    </g>
    <g id="Grupo_57297" data-name="Grupo 57297" transform="translate(57.008 26.287)">
      <path id="Trazado_101991" data-name="Trazado 101991" d="M276.76,192.979a9.371,9.371,0,0,1-.932,1.986c-.027.031,4.129,2.186,7.345.991.517-.161.556-.266.752.2.4.936,1.532,1.32,2.6,1.731l2.691-1.579c-.627-.176-1.253-.337-1.865-.505-1.426-.388-1.8-2.225-2.092-2.82a11.55,11.55,0,0,1-1.535.709,7.026,7.026,0,0,1-5.433,0,10.688,10.688,0,0,1-1.281-.576c-.086-.043-.168-.086-.251-.133Z" transform="translate(-275.828 -192.979)" fill="#ffbc85" fill-rule="evenodd"/>
    </g>
    <g id="Grupo_57298" data-name="Grupo 57298" transform="translate(40.728 46.808)">
      <path id="Trazado_101992" data-name="Trazado 101992" d="M162.16,343.636l-5.848,5.848,1.442,1.441,5.962-5.962c-.533-.415-1.054-.858-1.555-1.328Z" transform="translate(-156.312 -343.636)" fill="#49679b" fill-rule="evenodd"/>
    </g>
    <g id="Grupo_57299" data-name="Grupo 57299" transform="translate(22.501 0.001)">
      <path id="Trazado_101993" data-name="Trazado 101993" d="M173.687,30.055a19.094,19.094,0,0,0,38.187,0,18.887,18.887,0,0,0-2.08-8.673,19.286,19.286,0,0,0-5.147-6.285V13.247a13.53,13.53,0,0,0-3.687-9.822A11.712,11.712,0,0,0,192.8,0h-.032A11.716,11.716,0,0,0,184.6,3.426a13.527,13.527,0,0,0-3.687,9.822V15.1a19.286,19.286,0,0,0-5.147,6.285A18.887,18.887,0,0,0,173.687,30.055ZM206.9,39.6a17.04,17.04,0,0,1-28.248,0V37.051c0-4.136,2.639-5.416,5.778-6.335l6.34,3.719a3.21,3.21,0,0,0,4.013,0l6.341-3.72c3.138.919,5.777,2.2,5.777,6.336Zm-19.764-9.661a4.024,4.024,0,0,0,1.934-2.241c.21.093.422.181.635.26a8.078,8.078,0,0,0,6.143,0c.214-.079.426-.168.636-.26a4.014,4.014,0,0,0,1.934,2.241l-4.687,2.749-.038.023c-.8.521-1.027.521-1.832,0l-.038-.023Zm22.691.12a16.973,16.973,0,0,1-.965,5.655c-.579-4.681-4.227-6.129-7.6-7.081l-.025-.007c-.382-.107-.76-.209-1.13-.308-.24-.064-.48-.128-.717-.193-.541-.147-.871-.826-1.1-1.407,3.243-2.1,5.768-5.666,6.262-8.992a16.9,16.9,0,0,1,5.274,12.333ZM192.783,2.044c4.476.079,9.269,3.247,9.777,10a4.394,4.394,0,0,1-2.137-1.4,3.494,3.494,0,0,0-3.816-1.264c-.568.146-1.05.275-1.467.387a10.279,10.279,0,0,1-2.356.49,10.364,10.364,0,0,1-2.37-.493c-.414-.111-.893-.239-1.457-.384a3.489,3.489,0,0,0-3.812,1.263,4.4,4.4,0,0,1-2.142,1.4c.508-6.755,5.3-9.924,9.781-10Zm-9.825,12.1a6.256,6.256,0,0,0,3.645-2.076c.7-.71.93-.949,1.843-.714.557.143,1.03.27,1.439.379a11.413,11.413,0,0,0,2.9.562,11.337,11.337,0,0,0,2.884-.559c.411-.11.887-.237,1.448-.382.916-.236,1.151,0,1.848.715a6.253,6.253,0,0,0,3.641,2.075v2.417c0,3.574-3.487,8-7.462,9.473a5.992,5.992,0,0,1-4.723,0c-3.975-1.474-7.462-5.9-7.462-9.473ZM181,17.722c.494,3.326,3.02,6.89,6.264,8.992-.228.58-.558,1.261-1.1,1.408-.236.065-.475.128-.715.192-.369.1-.746.2-1.126.307l-.056.016c-3.368.952-7,2.4-7.579,7.073A17.053,17.053,0,0,1,181,17.722Z" transform="translate(-153.093 -0.001)"/>
      <path id="Trazado_101994" data-name="Trazado 101994" d="M79.106,85.894c-.517-.517-1.043-1-1.562-1.43a1.022,1.022,0,0,0-1.307,1.571c.471.392.95.831,1.423,1.3a21.879,21.879,0,1,1-30.943,0c.4-.4.77-.744,1.137-1.059a1.022,1.022,0,1,0-1.33-1.551c-.408.349-.817.731-1.252,1.166a23.932,23.932,0,0,0-2.516,30.875l-4.614,4.614-.094-.094a1.769,1.769,0,0,0-2.5,0l-3.159,3.16-.022.02-.02.022-2.393,2.395a1.022,1.022,0,1,0,1.445,1.444l1.692-1.693L38.36,131.9l-7.467,7.464a3.723,3.723,0,0,1-5.265-5.266l2.664-2.664a1.022,1.022,0,0,0-1.445-1.445l-2.664,2.664a5.766,5.766,0,0,0,8.155,8.155l11.368-11.364a1.774,1.774,0,0,0,0-2.5l-.092-.092,4.616-4.616A23.923,23.923,0,0,0,79.106,85.894ZM39.8,130.459l-5.266-5.266,2.262-2.264,5.267,5.267Zm2.364-5.051-2.58-2.58,4.442-4.442q.593.689,1.243,1.34t1.338,1.24Z" transform="translate(-22.501 -72.755)"/>
    </g>
  </g>
</svg>
