<svg xmlns="http://www.w3.org/2000/svg" width="96" height="96" viewBox="0 0 96 96">
  <g id="Grupo_57319" data-name="Grupo 57319" transform="translate(-435 -2890)">
    <g id="Icon" transform="translate(435.343 2889.828)">
      <circle id="Base" cx="48" cy="48" r="48" transform="translate(-0.343 0.172)" fill="#fff"/>
    </g>
    <g id="seminario" transform="translate(456.947 2905.648)">
      <path id="Trazado_102044" data-name="Trazado 102044" d="M20.573,444.07a1.52,1.52,0,0,0-1.137-1.379l-2.928-.726-1.766-.871H11.233l-1.766.871-2.952.726a1.55,1.55,0,0,0-1.137,1.379l-.242,4.452a.545.545,0,0,0,.508.581H20.259a.548.548,0,0,0,.556-.557v-.024Zm0,0" transform="translate(-4.383 -387.731)" fill="#e9e9ea"/>
      <path id="Trazado_102045" data-name="Trazado 102045" d="M150.171,443.895a1.52,1.52,0,0,0-1.137-1.379l-2.952-.75-1.766-.871h-3.484l-1.766.871-2.952.75a1.551,1.551,0,0,0-1.137,1.379l-.242,4.452a.545.545,0,0,0,.508.581h14.614a.548.548,0,0,0,.557-.557v-.024Zm0,0" transform="translate(-118.302 -387.556)" fill="#e9e9ea"/>
      <path id="Trazado_102046" data-name="Trazado 102046" d="M279.773,443.895a1.52,1.52,0,0,0-1.137-1.379l-2.952-.75-1.766-.871h-3.484l-1.766.871-2.952.75a1.55,1.55,0,0,0-1.137,1.379l-.242,4.452a.545.545,0,0,0,.508.581h14.614a.548.548,0,0,0,.557-.557v-.024Zm0,0" transform="translate(-232.225 -387.556)" fill="#e9e9ea"/>
      <path id="Trazado_102047" data-name="Trazado 102047" d="M138.253,176.529l-.412-7.283a1.881,1.881,0,0,0-1.428-1.718l-3.7-.944-2.226-1.089-.75,2.154a.338.338,0,0,1-.29.217h-2.3a.285.285,0,0,1-.291-.217l-.75-2.154-2.226,1.089-3.7.944a1.883,1.883,0,0,0-1.428,1.718l-.411,7.283a.972.972,0,0,0,.92,1.016h18.05a.971.971,0,0,0,.968-.968C138.253,176.577,138.253,176.553,138.253,176.529Zm0,0" transform="translate(-103.892 -145.475)" fill="#60bae2"/>
      <path id="Trazado_102048" data-name="Trazado 102048" d="M105.441,266.255a1.162,1.162,0,0,0-1.162-1.162H76.455a1.15,1.15,0,0,0,0,2.3H104.3A1.106,1.106,0,0,0,105.441,266.255Zm0,0" transform="translate(-66.096 -233.023)" fill="#c1814c"/>
      <path id="Trazado_102049" data-name="Trazado 102049" d="M112.4,288.023V284.3H84.547v3.726Zm0,0" transform="translate(-74.188 -249.903)" fill="#b26e3b"/>
      <path id="Trazado_102050" data-name="Trazado 102050" d="M43.909,408.287l-.073.024a4.371,4.371,0,0,1-2.492,0l-.1-.024a4.769,4.769,0,0,1-2.3-1.525,3.74,3.74,0,0,0,1.621,2.3.779.779,0,0,1,.363.678v.919h3.484v-.944a.847.847,0,0,1,.339-.677,3.937,3.937,0,0,0,1.6-2.54A4.275,4.275,0,0,1,43.909,408.287Zm0,0" transform="translate(-34.107 -357.319)" fill="#f9d0b4"/>
      <path id="Trazado_102051" data-name="Trazado 102051" d="M103.291,377.7a10.125,10.125,0,0,1-.944,3.121h.411a1.569,1.569,0,0,0,1.815-1.307.735.735,0,0,0,.025-.242A1.648,1.648,0,0,0,103.291,377.7Zm0,0" transform="translate(-89.835 -332.002)" fill="#f9d0b4"/>
      <path id="Trazado_102052" data-name="Trazado 102052" d="M18.63,377.895a1.605,1.605,0,0,0-1.283,1.573,1.57,1.57,0,0,0,1.6,1.549.91.91,0,0,0,.242-.024h.363A9.336,9.336,0,0,1,18.63,377.895Zm0,0" transform="translate(-15.118 -332.177)" fill="#f9d0b4"/>
      <path id="Trazado_102053" data-name="Trazado 102053" d="M173.507,408.287l-.072.024a4.371,4.371,0,0,1-2.492,0l-.1-.024a4.771,4.771,0,0,1-2.3-1.525,3.742,3.742,0,0,0,1.621,2.3.779.779,0,0,1,.363.678v.919h3.484v-.944a.847.847,0,0,1,.339-.677,3.935,3.935,0,0,0,1.6-2.54A4.272,4.272,0,0,1,173.507,408.287Zm0,0" transform="translate(-148.026 -357.319)" fill="#f9d0b4"/>
      <path id="Trazado_102054" data-name="Trazado 102054" d="M232.892,377.7a10.124,10.124,0,0,1-.943,3.121h.387a1.569,1.569,0,0,0,1.815-1.307.749.749,0,0,0,.024-.242A1.6,1.6,0,0,0,232.892,377.7Zm0,0" transform="translate(-203.758 -332.002)" fill="#f9d0b4"/>
      <path id="Trazado_102055" data-name="Trazado 102055" d="M148.231,377.895a1.605,1.605,0,0,0-1.282,1.573,1.57,1.57,0,0,0,1.6,1.549.912.912,0,0,0,.242-.024h.363A9.337,9.337,0,0,1,148.231,377.895Zm0,0" transform="translate(-129.041 -332.177)" fill="#f9d0b4"/>
      <path id="Trazado_102056" data-name="Trazado 102056" d="M303.109,408.287l-.073.024a4.369,4.369,0,0,1-2.492,0l-.1-.024a4.769,4.769,0,0,1-2.3-1.525,3.742,3.742,0,0,0,1.621,2.3.779.779,0,0,1,.363.678v.919h3.533v-.944a.847.847,0,0,1,.339-.677,3.936,3.936,0,0,0,1.6-2.54A4.547,4.547,0,0,1,303.109,408.287Zm0,0" transform="translate(-261.949 -357.319)" fill="#f9d0b4"/>
      <path id="Trazado_102057" data-name="Trazado 102057" d="M362.491,377.7a10.122,10.122,0,0,1-.944,3.121h.387a1.569,1.569,0,0,0,1.815-1.307.735.735,0,0,0,.025-.242A1.6,1.6,0,0,0,362.491,377.7Zm0,0" transform="translate(-317.677 -332.002)" fill="#f9d0b4"/>
      <path id="Trazado_102058" data-name="Trazado 102058" d="M277.829,377.895a1.606,1.606,0,0,0-1.283,1.573,1.57,1.57,0,0,0,1.6,1.549.909.909,0,0,0,.242-.024h.363A9.336,9.336,0,0,1,277.829,377.895Zm0,0" transform="translate(-242.96 -332.177)" fill="#f9d0b4"/>
      <path id="Trazado_102059" data-name="Trazado 102059" d="M239.662,85.7a1.386,1.386,0,0,0-.315.024c0,.1.024.218.024.315v3.291a1.387,1.387,0,0,1-.024.315A2,2,0,0,0,240,85.7Zm0,0" transform="translate(-210.261 -75.328)" fill="#f9d0b4"/>
      <path id="Trazado_102060" data-name="Trazado 102060" d="M143.8,89.279V85.988a1.386,1.386,0,0,1,.024-.315,2,2,0,1,0-.653,3.944,1.605,1.605,0,0,0,.678,0A.877.877,0,0,1,143.8,89.279Zm0,0" transform="translate(-124.247 -75.282)" fill="#f9d0b4"/>
      <path id="Trazado_102061" data-name="Trazado 102061" d="M166.04,67.036a5.111,5.111,0,0,1-5.178,1.694.27.27,0,0,0-.315.194v3.9a4.767,4.767,0,0,0,9.533,0V68.512a.243.243,0,0,0-.242-.242,5,5,0,0,1-3.436-1.234A.227.227,0,0,0,166.04,67.036Zm0,0" transform="translate(-140.994 -58.846)" fill="#f9d0b4"/>
      <path id="Trazado_102062" data-name="Trazado 102062" d="M184.477,150.877a4.6,4.6,0,0,1-2.129-.508v1.766l.75,2.154a.339.339,0,0,0,.291.217h2.3a.312.312,0,0,0,.29-.217l.75-2.154V150.3A4.519,4.519,0,0,1,184.477,150.877Zm0,0" transform="translate(-160.157 -132.114)" fill="#f9d0b4"/>
      <path id="Trazado_102063" data-name="Trazado 102063" d="M37.306,337.416a3.95,3.95,0,0,0-3.92-3.919H32.273a2.163,2.163,0,0,0-1.863,1.065,2.153,2.153,0,0,0-3.266,1.911v1.016a10.48,10.48,0,0,0,.581,3.46l.1.291a4.454,4.454,0,0,0,3.049,2.855l.1.025a4.369,4.369,0,0,0,2.492,0l.073-.025a4.538,4.538,0,0,0,3.049-2.879l.145-.388A10.212,10.212,0,0,0,37.306,337.416Zm0,0" transform="translate(-23.729 -293.15)" fill="#6d6c6b"/>
      <path id="Trazado_102064" data-name="Trazado 102064" d="M166.9,337.416a3.95,3.95,0,0,0-3.919-3.919h-1.113a2.164,2.164,0,0,0-1.863,1.065,2.153,2.153,0,0,0-3.266,1.911v1.016a10.492,10.492,0,0,0,.581,3.46l.1.291a4.453,4.453,0,0,0,3.049,2.855l.1.025a4.368,4.368,0,0,0,2.492,0l.072-.025a4.537,4.537,0,0,0,3.049-2.879l.146-.388A10.212,10.212,0,0,0,166.9,337.416Zm0,0" transform="translate(-137.649 -293.15)" fill="#6d6c6b"/>
      <path id="Trazado_102065" data-name="Trazado 102065" d="M296.506,337.416a3.95,3.95,0,0,0-3.92-3.919h-1.113a2.163,2.163,0,0,0-1.863,1.065,2.153,2.153,0,0,0-3.266,1.911v1.016a10.492,10.492,0,0,0,.581,3.46l.1.291a4.453,4.453,0,0,0,3.049,2.855l.1.025a4.367,4.367,0,0,0,2.492,0l.073-.025a4.537,4.537,0,0,0,3.049-2.879l.145-.388A10.212,10.212,0,0,0,296.506,337.416Zm0,0" transform="translate(-251.571 -293.15)" fill="#6d6c6b"/>
      <path id="Trazado_102066" data-name="Trazado 102066" d="M148.98,36.82a1.493,1.493,0,0,1,.314.024v-.218a.249.249,0,0,1,.266-.242h.049a5.216,5.216,0,0,0,5.178-1.694.265.265,0,0,1,.363-.048.024.024,0,0,1,.024.024A5,5,0,0,0,158.61,35.9a.243.243,0,0,1,.242.242v.7a2.008,2.008,0,0,1,1.694.533V33.772a2.747,2.747,0,0,0-2.734-2.734,2.917,2.917,0,0,0-1.4.387,2.722,2.722,0,0,0-2.347-1.331h-1.4a4.952,4.952,0,0,0-4.912,4.936v2.2A2,2,0,0,1,148.98,36.82Zm0,0" transform="translate(-129.742 -26.453)" fill="#6d6c6b"/>
      <path id="Trazado_102067" data-name="Trazado 102067" d="M299.185,7.171a7.36,7.36,0,0,0-11.275,9.219.543.543,0,0,1,.024.435l-1.258,2.71a.5.5,0,0,0,.217.629.537.537,0,0,0,.388,0l2.71-1.258a.461.461,0,0,1,.436.025,7.371,7.371,0,0,0,8.759-11.759Zm0,0" transform="translate(-251.831 -4.618)" fill="#6dcc6d"/>
      <path id="Trazado_102068" data-name="Trazado 102068" d="M78.353,20.674a2.685,2.685,0,0,1-2.129-2.129.052.052,0,0,0-.048-.048c-.024,0-.024.024-.048.048A2.685,2.685,0,0,1,74,20.674a.052.052,0,0,0-.048.048c0,.024.024.024.048.049A2.684,2.684,0,0,1,76.127,22.9a.052.052,0,0,0,.048.049c.024,0,.024-.025.048-.049a2.684,2.684,0,0,1,2.129-2.129.052.052,0,0,0,.048-.049C78.377,20.7,78.377,20.674,78.353,20.674Zm0,0" transform="translate(-64.873 -16.258)" fill="#60bae2"/>
      <path id="Trazado_102069" data-name="Trazado 102069" d="M357.152,269.7h2.105a.6.6,0,1,1,0,1.21h-2.105a.6.6,0,0,1,0-1.21Zm0,0" transform="translate(-313.282 -237.068)" fill="#fcd770"/>
      <path id="Trazado_102070" data-name="Trazado 102070" d="M365.953,261.094a.6.6,0,0,1,.6.6V263.8a.6.6,0,1,1-1.21,0V261.7A.6.6,0,0,1,365.953,261.094Zm0,0" transform="translate(-321.018 -229.507)" fill="#fcd770"/>
      <path id="Trazado_102071" data-name="Trazado 102071" d="M33.257,215.905H31.152a.6.6,0,1,1,0-1.21h2.105a.6.6,0,1,1,0,1.21Zm0,0" transform="translate(-26.721 -188.722)" fill="#6dcc6d"/>
      <path id="Trazado_102072" data-name="Trazado 102072" d="M39.953,209.21a.6.6,0,0,1-.6-.6V206.5a.6.6,0,0,1,1.21,0V208.6A.615.615,0,0,1,39.953,209.21Zm0,0" transform="translate(-34.457 -180.986)" fill="#6dcc6d"/>
      <path id="Trazado_102073" data-name="Trazado 102073" d="M344.128,222.895a.7.7,0,0,1,.436.17.332.332,0,0,1,.072.1.186.186,0,0,1,.049.1.22.22,0,0,1,.024.121c0,.049.024.073.024.121a.218.218,0,0,1-.024.121c0,.049-.024.073-.024.121-.025.049-.025.073-.049.1s-.048.073-.072.1a.6.6,0,0,1-.654.121c-.024-.024-.072-.024-.1-.049s-.072-.048-.1-.072a.328.328,0,0,1-.073-.1.184.184,0,0,1-.048-.1.179.179,0,0,1-.025-.121.22.22,0,0,0-.024-.121.22.22,0,0,1,.024-.121c0-.048.025-.072.025-.121.024-.048.024-.072.048-.1s.048-.072.073-.1a.325.325,0,0,1,.1-.073.185.185,0,0,1,.1-.048.216.216,0,0,1,.121-.025C344.055,222.919,344.1,222.895,344.128,222.895Zm0,0" transform="translate(-301.855 -195.929)" fill="#f75c64"/>
      <path id="Trazado_102074" data-name="Trazado 102074" d="M96.327,87.094a.7.7,0,0,1,.436.17.33.33,0,0,1,.072.1.18.18,0,0,1,.049.1.22.22,0,0,1,.024.121c0,.049.024.073.024.121a.218.218,0,0,1-.024.121c0,.049-.024.073-.024.121-.024.049-.024.073-.049.1s-.048.073-.072.1a.6.6,0,0,1-.654.121c-.024-.024-.072-.024-.1-.048s-.073-.049-.1-.073a.329.329,0,0,1-.073-.1.438.438,0,0,1-.072-.218.216.216,0,0,0-.025-.121.216.216,0,0,1,.025-.121c0-.048.024-.072.024-.121.024-.048.024-.072.048-.1s.049-.073.073-.1a.33.33,0,0,1,.1-.073.183.183,0,0,1,.1-.048.22.22,0,0,1,.121-.024C96.23,87.094,96.279,87.094,96.327,87.094Zm0,0" transform="translate(-84.032 -76.557)" fill="#fcd770"/>
      <g id="Grupo_57303" data-name="Grupo 57303" transform="translate(0.148 0)">
        <path id="Trazado_102075" data-name="Trazado 102075" d="M102.351,487.859a.6.6,0,0,1-.6-.6V485.1a.6.6,0,0,1,1.21,0v2.154A.615.615,0,0,1,102.351,487.859Zm0,0" transform="translate(-89.455 -425.883)" fill="#231f20"/>
        <path id="Trazado_102076" data-name="Trazado 102076" d="M28.152,487.859a.6.6,0,0,1-.6-.6V485.1a.6.6,0,0,1,1.21,0v2.154A.615.615,0,0,1,28.152,487.859Zm0,0" transform="translate(-24.232 -425.883)" fill="#231f20"/>
        <path id="Trazado_102077" data-name="Trazado 102077" d="M15.9,445.138H1.31a1.162,1.162,0,0,1-1.161-1.162V443.9l.242-4.452a2.086,2.086,0,0,1,1.6-1.912l2.879-.726,1.718-.847a.486.486,0,0,1,.266-.073h3.484a.485.485,0,0,1,.266.073l1.718.847,2.879.726a2.086,2.086,0,0,1,1.6,1.912l.242,4.452a1.158,1.158,0,0,1-1.089,1.21C15.924,445.138,15.924,445.138,15.9,445.138Zm-14.541-1.21H15.827l-.242-4.4a.9.9,0,0,0-.677-.823l-2.952-.75c-.048,0-.072-.024-.121-.048l-1.645-.823H7L5.35,437.9c-.049.024-.073.024-.121.048l-2.952.775a.9.9,0,0,0-.677.822Zm0,0" transform="translate(-0.148 -383.161)" fill="#231f20"/>
        <path id="Trazado_102078" data-name="Trazado 102078" d="M40.111,406.975H36.627c-.193,0-.6-.072-.6-.75v-.8a.3.3,0,0,0-.1-.194,4.419,4.419,0,0,1-1.887-2.661.605.605,0,0,1,.46-.726.594.594,0,0,1,.6.218,3.933,3.933,0,0,0,1.984,1.307l.1.024a4.162,4.162,0,0,0,2.178,0l.072-.024a4.037,4.037,0,0,0,2.154-1.525.612.612,0,0,1,.847-.145.591.591,0,0,1,.242.6,4.492,4.492,0,0,1-1.839,2.952.247.247,0,0,0-.1.17v1.064A.675.675,0,0,1,40.111,406.975Zm-2.879-1.21h2.274v-.338a1.547,1.547,0,0,1,.315-.9c-.025,0-.049.024-.073.024l-.073.025a4.914,4.914,0,0,1-2.71.024,1.449,1.449,0,0,1,.266.823Zm0,0" transform="translate(-29.925 -353.008)" fill="#231f20"/>
        <path id="Trazado_102079" data-name="Trazado 102079" d="M28.01,340.7a5.457,5.457,0,0,1-1.4-.193l-.1-.025a5.117,5.117,0,0,1-3.436-3.242l-.1-.291a11.16,11.16,0,0,1-.629-3.653v-1.016a2.824,2.824,0,0,1,2.2-2.758,2.775,2.775,0,0,1,1.476.1,2.859,2.859,0,0,1,2.057-.92H29.2a4.533,4.533,0,0,1,4.524,4.524,10.745,10.745,0,0,1-.6,3.605l-.145.387a5.188,5.188,0,0,1-3.46,3.266l-.072.025A5.95,5.95,0,0,1,28.01,340.7Zm-2.928-10.065a1.564,1.564,0,0,0-1.573,1.549v1.065a9.816,9.816,0,0,0,.556,3.242l.1.291a3.989,3.989,0,0,0,2.637,2.492l.1.025a4.16,4.16,0,0,0,2.178,0l.072-.025a3.939,3.939,0,0,0,2.637-2.492l.145-.387a9.761,9.761,0,0,0,.533-3.218,3.32,3.32,0,0,0-3.315-3.315H28.034a1.506,1.506,0,0,0-1.331.774.6.6,0,0,1-.823.218A1.787,1.787,0,0,0,25.082,330.631Zm0,0" transform="translate(-19.662 -288.93)" fill="#231f20"/>
        <path id="Trazado_102080" data-name="Trazado 102080" d="M98.606,377.177a1.183,1.183,0,0,1-.29-.024h-.363a.6.6,0,0,1-.6-.6.573.573,0,0,1,.073-.291,10.071,10.071,0,0,0,.871-2.9.6.6,0,0,1,.677-.508h.025a2.205,2.205,0,0,1,1.766,2.178A2.128,2.128,0,0,1,98.606,377.177Zm.75-2.807a11.455,11.455,0,0,1-.46,1.549.984.984,0,0,0,.46-1.549Zm0,0" transform="translate(-85.589 -327.734)" fill="#231f20"/>
        <path id="Trazado_102081" data-name="Trazado 102081" d="M14.525,377.124a2.169,2.169,0,0,1-2.178-2.178,2.2,2.2,0,0,1,1.766-2.153.613.613,0,0,1,.726.46v.048a8.754,8.754,0,0,0,.871,2.9.6.6,0,0,1-.218.823.641.641,0,0,1-.29.073h-.339A1.721,1.721,0,0,1,14.525,377.124Zm-.75-2.807a.992.992,0,0,0,.145,1.379,1.835,1.835,0,0,0,.29.17C14.041,375.358,13.9,374.85,13.775,374.318Zm0,0" transform="translate(-10.872 -327.681)" fill="#231f20"/>
        <path id="Trazado_102082" data-name="Trazado 102082" d="M231.953,487.859a.6.6,0,0,1-.6-.6V485.1a.6.6,0,0,1,1.21,0v2.154A.615.615,0,0,1,231.953,487.859Zm0,0" transform="translate(-203.378 -425.883)" fill="#231f20"/>
        <path id="Trazado_102083" data-name="Trazado 102083" d="M157.753,487.859a.6.6,0,0,1-.6-.6V485.1a.6.6,0,0,1,1.21,0v2.154A.615.615,0,0,1,157.753,487.859Zm0,0" transform="translate(-138.155 -425.883)" fill="#231f20"/>
        <path id="Trazado_102084" data-name="Trazado 102084" d="M145.5,445.138h-14.59a1.162,1.162,0,0,1-1.162-1.162V443.9l.242-4.452a2.087,2.087,0,0,1,1.6-1.912l2.879-.726,1.718-.847a.485.485,0,0,1,.266-.073h3.484a.487.487,0,0,1,.266.073l1.718.847,2.879.726a2.086,2.086,0,0,1,1.6,1.912l.242,4.452a1.159,1.159,0,0,1-1.089,1.21C145.522,445.138,145.522,445.138,145.5,445.138Zm-14.542-1.21h14.469l-.242-4.4a.9.9,0,0,0-.678-.823l-2.952-.75c-.048,0-.073-.024-.121-.048l-1.645-.823H136.57l-1.645.823c-.048.024-.072.024-.121.048l-2.952.75a.9.9,0,0,0-.678.823Zm0,0" transform="translate(-114.068 -383.161)" fill="#231f20"/>
        <path id="Trazado_102085" data-name="Trazado 102085" d="M169.912,406.975h-3.484c-.194,0-.6-.072-.6-.75v-.8a.3.3,0,0,0-.1-.194,4.417,4.417,0,0,1-1.887-2.661.605.605,0,0,1,.459-.726.593.593,0,0,1,.6.218,3.934,3.934,0,0,0,1.984,1.307l.1.024a4.162,4.162,0,0,0,2.178,0l.072-.024a4.039,4.039,0,0,0,2.153-1.525.612.612,0,0,1,.847-.145.592.592,0,0,1,.242.6,4.494,4.494,0,0,1-1.839,2.952.245.245,0,0,0-.1.17v.943A.694.694,0,0,1,169.912,406.975Zm-2.9-1.21h2.274v-.338a1.55,1.55,0,0,1,.314-.9c-.024,0-.048.024-.072.024l-.073.025a5.149,5.149,0,0,1-2.71.024,1.45,1.45,0,0,1,.266.823Zm0,0" transform="translate(-144.022 -353.008)" fill="#231f20"/>
        <path id="Trazado_102086" data-name="Trazado 102086" d="M157.432,340.7a5.454,5.454,0,0,1-1.4-.193l-.1-.025a5.2,5.2,0,0,1-3.46-3.242l-.1-.291a11.148,11.148,0,0,1-.629-3.653v-1.016a2.824,2.824,0,0,1,2.2-2.758,2.775,2.775,0,0,1,1.476.1,2.858,2.858,0,0,1,2.057-.92h1.113a4.533,4.533,0,0,1,4.524,4.524,10.734,10.734,0,0,1-.6,3.605l-.145.387a5.135,5.135,0,0,1-3.46,3.266l-.073.025A5.457,5.457,0,0,1,157.432,340.7ZM154.5,330.631a1.565,1.565,0,0,0-1.573,1.549v1.065a9.816,9.816,0,0,0,.557,3.242l.1.291a3.988,3.988,0,0,0,2.637,2.492l.1.025a4.16,4.16,0,0,0,2.178,0l.073-.025a3.939,3.939,0,0,0,2.637-2.492l.145-.387a9.76,9.76,0,0,0,.532-3.218,3.32,3.32,0,0,0-3.315-3.315h-1.113a1.506,1.506,0,0,0-1.331.774.6.6,0,0,1-.823.218A1.788,1.788,0,0,0,154.5,330.631Zm0,0" transform="translate(-133.406 -288.93)" fill="#231f20"/>
        <path id="Trazado_102087" data-name="Trazado 102087" d="M228.207,377.177a1.179,1.179,0,0,1-.29-.024h-.363a.6.6,0,0,1-.6-.6.578.578,0,0,1,.072-.291,9.359,9.359,0,0,0,.871-2.9.6.6,0,0,1,.678-.508h.024a2.2,2.2,0,0,1,1.766,2.178A2.128,2.128,0,0,1,228.207,377.177Zm.75-2.807a11.383,11.383,0,0,1-.46,1.549.984.984,0,0,0,.46-1.549Zm0,0" transform="translate(-199.511 -327.734)" fill="#231f20"/>
        <path id="Trazado_102088" data-name="Trazado 102088" d="M144.127,377.124a2.169,2.169,0,0,1-2.178-2.178,2.2,2.2,0,0,1,1.766-2.153.612.612,0,0,1,.726.46v.048a8.766,8.766,0,0,0,.871,2.9.6.6,0,0,1-.217.823.641.641,0,0,1-.291.073h-.339A1.718,1.718,0,0,1,144.127,377.124Zm-.75-2.807a.992.992,0,0,0,.146,1.379,1.794,1.794,0,0,0,.29.17C143.643,375.358,143.5,374.85,143.376,374.318Zm0,0" transform="translate(-124.794 -327.681)" fill="#231f20"/>
        <path id="Trazado_102089" data-name="Trazado 102089" d="M361.554,487.859a.6.6,0,0,1-.6-.6V485.1a.6.6,0,0,1,1.21,0v2.154A.615.615,0,0,1,361.554,487.859Zm0,0" transform="translate(-317.3 -425.883)" fill="#231f20"/>
        <path id="Trazado_102090" data-name="Trazado 102090" d="M287.351,487.859a.6.6,0,0,1-.6-.6V485.1a.6.6,0,0,1,1.21,0v2.154A.615.615,0,0,1,287.351,487.859Zm0,0" transform="translate(-252.074 -425.883)" fill="#231f20"/>
        <path id="Trazado_102091" data-name="Trazado 102091" d="M275.1,445.138h-14.59a1.162,1.162,0,0,1-1.162-1.162V443.9l.242-4.452a2.086,2.086,0,0,1,1.6-1.912l2.879-.726,1.718-.847a.487.487,0,0,1,.266-.073h3.508a.488.488,0,0,1,.267.073l1.718.847,2.879.726a2.087,2.087,0,0,1,1.6,1.912l.242,4.452a1.159,1.159,0,0,1-1.089,1.21C275.123,445.138,275.123,445.138,275.1,445.138Zm-14.541-1.21h14.469l-.242-4.4a.9.9,0,0,0-.678-.823l-2.952-.75c-.049,0-.073-.024-.121-.048l-1.646-.823h-3.218l-1.645.823c-.049.024-.073.024-.121.048l-2.952.75a.9.9,0,0,0-.677.823Zm0,0" transform="translate(-227.99 -383.161)" fill="#231f20"/>
        <path id="Trazado_102092" data-name="Trazado 102092" d="M299.51,407.15h-3.484a.6.6,0,0,1-.6-.6v-.919a.3.3,0,0,0-.1-.194,4.418,4.418,0,0,1-1.887-2.661.606.606,0,0,1,.46-.726.593.593,0,0,1,.6.218,3.933,3.933,0,0,0,1.984,1.307l.1.024a4.152,4.152,0,0,0,2.178,0l.073-.024a4.041,4.041,0,0,0,2.154-1.525.612.612,0,0,1,.847-.145.592.592,0,0,1,.242.6,4.491,4.491,0,0,1-1.839,2.952.246.246,0,0,0-.1.17v1.04A.726.726,0,0,1,299.51,407.15Zm-2.9-1.21h2.274V405.6a1.547,1.547,0,0,1,.315-.9l-.073.024-.072.025a4.915,4.915,0,0,1-2.71.024,1.446,1.446,0,0,1,.266.823Zm0,0" transform="translate(-257.943 -353.183)" fill="#231f20"/>
        <path id="Trazado_102093" data-name="Trazado 102093" d="M287.209,340.7a5.457,5.457,0,0,1-1.4-.193l-.1-.025a5.117,5.117,0,0,1-3.436-3.242l-.1-.291a11.16,11.16,0,0,1-.629-3.653v-1.016a2.824,2.824,0,0,1,2.2-2.758,2.777,2.777,0,0,1,1.476.1,2.858,2.858,0,0,1,2.057-.92h1.113a4.533,4.533,0,0,1,4.524,4.524,10.735,10.735,0,0,1-.6,3.605l-.145.387a5.188,5.188,0,0,1-3.46,3.266l-.072.025A5.794,5.794,0,0,1,287.209,340.7Zm-2.928-10.065a1.565,1.565,0,0,0-1.573,1.549v1.065a9.815,9.815,0,0,0,.556,3.242l.1.291A3.989,3.989,0,0,0,286,339.269l.1.025a4.16,4.16,0,0,0,2.178,0l.072-.025a3.938,3.938,0,0,0,2.637-2.492l.145-.387a9.762,9.762,0,0,0,.533-3.218,3.32,3.32,0,0,0-3.315-3.315h-1.113a1.506,1.506,0,0,0-1.331.774.6.6,0,0,1-.823.218A1.788,1.788,0,0,0,284.281,330.631Zm0,0" transform="translate(-247.504 -288.93)" fill="#231f20"/>
        <path id="Trazado_102094" data-name="Trazado 102094" d="M357.805,377.177a1.184,1.184,0,0,1-.291-.024h-.363a.6.6,0,0,1-.6-.6.573.573,0,0,1,.073-.291,10.071,10.071,0,0,0,.871-2.9.6.6,0,0,1,.678-.508h.024a2.2,2.2,0,0,1,1.766,2.178A2.127,2.127,0,0,1,357.805,377.177Zm.75-2.807a11.385,11.385,0,0,1-.46,1.549.984.984,0,0,0,.46-1.549Zm0,0" transform="translate(-313.431 -327.734)" fill="#231f20"/>
        <path id="Trazado_102095" data-name="Trazado 102095" d="M273.724,377.124a2.169,2.169,0,0,1-2.178-2.178,2.2,2.2,0,0,1,1.766-2.153.612.612,0,0,1,.726.46v.048a8.754,8.754,0,0,0,.871,2.9.6.6,0,0,1-.218.823.639.639,0,0,1-.29.073h-.339A1.6,1.6,0,0,1,273.724,377.124Zm-.75-2.807a.992.992,0,0,0,.145,1.379,1.815,1.815,0,0,0,.291.17C273.241,375.358,273.1,374.85,272.975,374.318Zm0,0" transform="translate(-238.714 -327.681)" fill="#231f20"/>
        <path id="Trazado_102096" data-name="Trazado 102096" d="M235.254,85.822c-.146,0-.267-.024-.412-.024a.587.587,0,0,1-.508-.629V81.3a.587.587,0,0,1,.508-.629,2.6,2.6,0,0,1,.823,5.13A2.22,2.22,0,0,1,235.254,85.822Zm.29-3.944v2.71a1.382,1.382,0,0,0,1.065-1.646A1.409,1.409,0,0,0,235.544,81.877Zm0,0" transform="translate(-206.001 -70.881)" fill="#231f20"/>
        <path id="Trazado_102097" data-name="Trazado 102097" d="M139.136,85.873a2.589,2.589,0,1,1,0-5.178,2.355,2.355,0,0,1,.411.024.587.587,0,0,1,.508.629V85.22a.587.587,0,0,1-.508.629A2.354,2.354,0,0,1,139.136,85.873Zm-.291-3.944a1.382,1.382,0,0,0-1.065,1.645,1.409,1.409,0,0,0,1.065,1.065Zm0,0" transform="translate(-120.046 -70.933)" fill="#231f20"/>
        <path id="Trazado_102098" data-name="Trazado 102098" d="M160.919,73.923a5.375,5.375,0,0,1-5.372-5.371V64.7a.867.867,0,0,1,.871-.871.414.414,0,0,1,.17.024,4.553,4.553,0,0,0,4.6-1.476.8.8,0,0,1,.629-.315.822.822,0,0,1,.653.242,4.36,4.36,0,0,0,3.024,1.065.852.852,0,0,1,.823.847v4.355A5.39,5.39,0,0,1,160.919,73.923Zm-4.162-8.807v3.436a4.162,4.162,0,0,0,8.323,0V64.56a5.756,5.756,0,0,1-3.218-1.137A5.65,5.65,0,0,1,156.757,65.116Zm4.888-2.347" transform="translate(-136.747 -54.555)" fill="#231f20"/>
        <path id="Trazado_102099" data-name="Trazado 102099" d="M155.951,33.765a.63.63,0,0,1-.411-.17,1.342,1.342,0,0,0-1.186-.363.62.62,0,0,1-.7-.508v-.484a5.757,5.757,0,0,1-3.218-1.137,5.779,5.779,0,0,1-5.153,1.718.507.507,0,0,1-.194.266.61.61,0,0,1-.484.145,1.374,1.374,0,0,0-1.089.291.587.587,0,0,1-.847-.1.533.533,0,0,1-.121-.387v-2.2a5.54,5.54,0,0,1,5.541-5.54h1.4a3.376,3.376,0,0,1,2.541,1.185,3.45,3.45,0,0,1,1.21-.217A3.345,3.345,0,0,1,156.58,29.6V33.16A.654.654,0,0,1,155.951,33.765ZM154.863,32a3.374,3.374,0,0,1,.484.1V29.555a2.127,2.127,0,0,0-2.1-2.129,1.908,1.908,0,0,0-1.089.315.6.6,0,0,1-.823-.218,2.145,2.145,0,0,0-1.815-1.041h-1.4a4.327,4.327,0,0,0-4.331,4.331v1.258a1.366,1.366,0,0,1,.436-.073.831.831,0,0,1,.944-.436,4.553,4.553,0,0,0,4.6-1.476.8.8,0,0,1,.629-.314.819.819,0,0,1,.653.242,4.362,4.362,0,0,0,3.024,1.064.853.853,0,0,1,.823.847Zm-4.186-1.186" transform="translate(-125.32 -22.237)" fill="#231f20"/>
        <path id="Trazado_102100" data-name="Trazado 102100" d="M196.152,203.15a.22.22,0,0,1-.121-.024c-.048,0-.072-.024-.121-.024-.024-.024-.072-.024-.1-.049s-.072-.048-.1-.072a.328.328,0,0,1-.073-.1.184.184,0,0,1-.048-.1.179.179,0,0,1-.025-.121.22.22,0,0,0-.024-.121.22.22,0,0,1,.024-.121c0-.048.025-.072.025-.121.024-.048.024-.072.048-.1s.048-.072.073-.1a.63.63,0,0,1,.847,0,.583.583,0,0,1,.169.435.218.218,0,0,1-.024.121c0,.049-.024.073-.024.121a.487.487,0,0,1-.218.266.182.182,0,0,1-.1.049A.71.71,0,0,1,196.152,203.15Zm0,0" transform="translate(-171.908 -177.515)" fill="#231f20"/>
        <path id="Trazado_102101" data-name="Trazado 102101" d="M196.152,224.061a.7.7,0,0,1-.435-.169.328.328,0,0,1-.073-.1.184.184,0,0,1-.048-.1.7.7,0,0,1-.049-.242.7.7,0,0,1,.17-.435.648.648,0,0,1,.556-.17c.049,0,.073.024.121.049s.073.024.1.048.073.048.1.073a.583.583,0,0,1,.169.435.218.218,0,0,1-.024.121c0,.049-.024.073-.024.121-.024.024-.024.073-.049.1s-.048.073-.072.1A.583.583,0,0,1,196.152,224.061Zm0,0" transform="translate(-171.908 -195.886)" fill="#231f20"/>
        <path id="Trazado_102102" data-name="Trazado 102102" d="M196.152,245.174a.22.22,0,0,1-.121-.024.855.855,0,0,1-.218-.1c-.024-.024-.072-.048-.1-.072a.583.583,0,0,1-.17-.436.22.22,0,0,1,.024-.121c0-.048.025-.072.025-.121.024-.048.024-.072.048-.1s.048-.072.073-.1a.63.63,0,0,1,.847,0,.332.332,0,0,1,.072.1.187.187,0,0,1,.049.1.22.22,0,0,1,.024.121.218.218,0,0,0,.024.121.7.7,0,0,1-.169.436.343.343,0,0,1-.1.072.182.182,0,0,1-.1.049.219.219,0,0,1-.121.024C196.225,245.174,196.2,245.174,196.152,245.174Zm0,0" transform="translate(-171.908 -214.434)" fill="#231f20"/>
        <path id="Trazado_102103" data-name="Trazado 102103" d="M242.351,226.333a.6.6,0,0,1-.6-.6V221.3a.6.6,0,1,1,1.21,0v4.428A.6.6,0,0,1,242.351,226.333Zm0,0" transform="translate(-212.518 -193.996)" fill="#231f20"/>
        <path id="Trazado_102104" data-name="Trazado 102104" d="M148.753,226.333a.6.6,0,0,1-.6-.6V221.3a.6.6,0,0,1,1.21,0v4.428A.6.6,0,0,1,148.753,226.333Zm0,0" transform="translate(-130.244 -193.996)" fill="#231f20"/>
        <path id="Trazado_102105" data-name="Trazado 102105" d="M181.292,150.88h-2.3a.907.907,0,0,1-.871-.629l-.75-2.153a.536.536,0,0,1-.024-.194v-1.766a.6.6,0,0,1,.6-.6.488.488,0,0,1,.266.073,4.137,4.137,0,0,0,1.863.436,4.036,4.036,0,0,0,1.984-.508.605.605,0,0,1,.823.242.647.647,0,0,1,.072.291V147.9a.475.475,0,0,1-.024.194l-.75,2.153A.971.971,0,0,1,181.292,150.88Zm-2.081-1.21H181.1l.653-1.863v-.823a5.33,5.33,0,0,1-3.194.049v.774Zm0,0" transform="translate(-155.91 -127.858)" fill="#231f20"/>
        <path id="Trazado_102106" data-name="Trazado 102106" d="M132.723,173.845h-18a1.57,1.57,0,0,1-1.573-1.573v-.1l.411-7.283a2.473,2.473,0,0,1,1.887-2.274l3.653-.92,2.178-1.065a.6.6,0,0,1,.8.267c0,.024.024.048.024.072l.677,1.96h1.887l.678-1.96a.6.6,0,0,1,.774-.363c.024,0,.048.024.073.024l2.178,1.065,3.653.92a2.5,2.5,0,0,1,1.887,2.274l.412,7.283a1.59,1.59,0,0,1-1.476,1.67Zm-11.542-11.832-1.621.8c-.049.025-.073.025-.121.049l-3.7.944a1.288,1.288,0,0,0-.968,1.161l-.411,7.283a.374.374,0,0,0,.339.388h18.026a.373.373,0,0,0,.363-.363v-.025l-.412-7.283a1.236,1.236,0,0,0-.968-1.161l-3.7-.944c-.049,0-.073-.024-.121-.049l-1.621-.8-.532,1.524a.976.976,0,0,1-.871.629h-2.3a.918.918,0,0,1-.871-.6Zm0,0" transform="translate(-99.478 -141.145)" fill="#231f20"/>
        <path id="Trazado_102107" data-name="Trazado 102107" d="M99.911,263.805H72.061a1.755,1.755,0,0,1,0-3.508H99.911a1.756,1.756,0,0,1,1.718,1.79A1.792,1.792,0,0,1,99.911,263.805Zm-27.849-2.3a.576.576,0,0,0-.532.556.554.554,0,0,0,.532.533H99.911a.576.576,0,0,0,.533-.557.554.554,0,0,0-.533-.532Zm0,0" transform="translate(-61.851 -228.807)" fill="#231f20"/>
        <path id="Trazado_102108" data-name="Trazado 102108" d="M108,284.232H80.152a.6.6,0,0,1-.6-.6V279.9a.6.6,0,0,1,.6-.6H108a.6.6,0,0,1,.6.6v3.726A.614.614,0,0,1,108,284.232Zm-27.244-1.21H107.4v-2.516H80.757Zm0,0" transform="translate(-69.941 -245.508)" fill="#231f20"/>
        <path id="Trazado_102109" data-name="Trazado 102109" d="M314.152,63.348a.6.6,0,0,1-.6-.6.7.7,0,0,1,.17-.435.332.332,0,0,1,.1-.073.186.186,0,0,1,.1-.048.22.22,0,0,1,.121-.024.406.406,0,0,1,.242,0c.049,0,.073.024.121.024.049.024.073.024.1.048s.073.049.1.073a.33.33,0,0,1,.072.1.18.18,0,0,1,.049.1.22.22,0,0,1,.024.121.218.218,0,0,0,.024.121A.6.6,0,0,1,314.152,63.348Zm0,0" transform="translate(-275.633 -54.626)" fill="#231f20"/>
        <path id="Trazado_102110" data-name="Trazado 102110" d="M334.152,63.346a.6.6,0,0,1-.6-.6.7.7,0,0,1,.17-.435.333.333,0,0,1,.1-.073.186.186,0,0,1,.1-.048.636.636,0,0,1,.8.314.6.6,0,0,1-.121.654.335.335,0,0,1-.1.072.432.432,0,0,1-.218.073A.157.157,0,0,1,334.152,63.346Zm0,0" transform="translate(-293.213 -54.624)" fill="#231f20"/>
        <path id="Trazado_102111" data-name="Trazado 102111" d="M353.953,63.348a.6.6,0,0,1-.6-.6.7.7,0,0,1,.169-.435.342.342,0,0,1,.1-.073.184.184,0,0,1,.1-.048.219.219,0,0,1,.121-.024.406.406,0,0,1,.242,0c.048,0,.073.024.121.024.048.024.073.024.1.048s.072.049.1.073a.585.585,0,0,1,0,.847A.606.606,0,0,1,353.953,63.348Zm0,0" transform="translate(-310.618 -54.626)" fill="#231f20"/>
        <path id="Trazado_102112" data-name="Trazado 102112" d="M373.953,63.3a.6.6,0,0,1-.6-.6.7.7,0,0,1,.169-.435.342.342,0,0,1,.1-.073.184.184,0,0,1,.1-.048.594.594,0,0,1,.653.121.321.321,0,0,1,.073.1.183.183,0,0,1,.048.1.216.216,0,0,1,.025.121.218.218,0,0,0,.024.121.7.7,0,0,1-.17.436.341.341,0,0,1-.1.073.185.185,0,0,1-.1.048.22.22,0,0,1-.121.024C374.025,63.3,374,63.3,373.953,63.3Zm0,0" transform="translate(-328.199 -54.576)" fill="#231f20"/>
        <path id="Trazado_102113" data-name="Trazado 102113" d="M282.612,16.2a1.079,1.079,0,0,1-1.065-1.089.883.883,0,0,1,.1-.435l1.234-2.662a7.988,7.988,0,1,1,2.831,2.807l-2.662,1.234A.565.565,0,0,1,282.612,16.2Zm7.138-14.953a6.733,6.733,0,0,0-5.807,10.21,1.1,1.1,0,0,1,.048.992l-1.113,2.371,2.371-1.113a1.156,1.156,0,0,1,1.016.048,6.756,6.756,0,0,0,6.944-11.59A7.038,7.038,0,0,0,289.749,1.246Zm0,0" transform="translate(-247.504 0)" fill="#231f20"/>
      </g>
    </g>
  </g>
</svg>
