<svg xmlns="http://www.w3.org/2000/svg" width="97" height="96" viewBox="0 0 97 96">
  <g id="Grupo_57318" data-name="Grupo 57318" transform="translate(-440 -3405)">
    <g id="Icon" transform="translate(439.89 3404.828)">
      <ellipse id="Base" cx="48.5" cy="48" rx="48.5" ry="48" transform="translate(0.11 0.172)" fill="#fff"/>
    </g>
    <g id="lista-de-tareas_1_" data-name="lista-de-tareas (1)" transform="translate(460 3406.313)">
      <g id="Grupo_57304" data-name="Grupo 57304" transform="translate(0.839 21.526)">
        <path id="Trazado_102145" data-name="Trazado 102145" d="M7.494,33.011V78.49a.693.693,0,0,0,.693.688H47.543a.7.7,0,0,0,.7-.688V36.744l0-.429a.32.32,0,0,0-.029-.154H42.592a2.782,2.782,0,0,1-2.786-2.767l0-5.179a.394.394,0,0,0-.18-.035H8.187a.693.693,0,0,0-.693.688Z" transform="translate(-7.494 -28.181)" fill="#f9f7f7" fill-rule="evenodd"/>
      </g>
      <g id="Grupo_57305" data-name="Grupo 57305" transform="translate(22.891 21.526)">
        <path id="Trazado_102146" data-name="Trazado 102146" d="M207.128,28.181c5.322,5.447,8.787,14.327,8.787,24.361a42.346,42.346,0,0,1-.474,6.333c-.1.656-.213,1.3-.341,1.942q-.232,1.152-.528,2.271c-1.839,6.96-5.447,12.692-10.047,16.089h18a.7.7,0,0,0,.7-.688V36.744l0-.429a.32.32,0,0,0-.029-.154l-8.4-7.946a.4.4,0,0,0-.18-.035h-7.48Z" transform="translate(-204.525 -28.181)" fill="#e2e2e2" fill-rule="evenodd"/>
      </g>
      <g id="Grupo_57306" data-name="Grupo 57306" transform="translate(33.151 21.561)">
        <path id="Trazado_102147" data-name="Trazado 102147" d="M296.2,28.5l0,5.179a2.782,2.782,0,0,0,2.786,2.767h5.615a2.133,2.133,0,0,0-.364-.374l-7.586-7.184A2.346,2.346,0,0,0,296.2,28.5Z" transform="translate(-296.192 -28.496)" fill="#cecece" fill-rule="evenodd"/>
      </g>
      <g id="Grupo_57307" data-name="Grupo 57307" transform="translate(6.382 42.052)">
        <path id="Trazado_102148" data-name="Trazado 102148" d="M57.631,220.924h8.2a.6.6,0,0,0,.606-.6v-8.147a.606.606,0,0,0-.409-.569.563.563,0,0,0-.2-.032h-8.2a.6.6,0,0,0-.606.6v8.147A.607.607,0,0,0,57.631,220.924Z" transform="translate(-57.025 -211.574)" fill="#97da7b" fill-rule="evenodd"/>
      </g>
      <g id="Grupo_57308" data-name="Grupo 57308" transform="translate(6.382 56.107)">
        <path id="Trazado_102149" data-name="Trazado 102149" d="M57.025,337.751V345.9a.607.607,0,0,0,.606.6h8.2a.6.6,0,0,0,.606-.6v-8.147a.605.605,0,0,0-.409-.569.65.65,0,0,0-.2-.032h-8.2A.607.607,0,0,0,57.025,337.751Z" transform="translate(-57.025 -337.15)" fill="#97da7b" fill-rule="evenodd"/>
      </g>
      <g id="Grupo_57309" data-name="Grupo 57309" transform="translate(12.165 42.052)">
        <path id="Trazado_102150" data-name="Trazado 102150" d="M108.687,220.924h3.028a.6.6,0,0,0,.606-.6v-8.147a.606.606,0,0,0-.409-.569.563.563,0,0,0-.2-.032H108.69a.621.621,0,0,1,.19.032.606.606,0,0,1,.409.569v8.147A.6.6,0,0,1,108.687,220.924Z" transform="translate(-108.687 -211.574)" fill="#68ca44" fill-rule="evenodd"/>
      </g>
      <g id="Grupo_57310" data-name="Grupo 57310" transform="translate(12.165 56.107)">
        <path id="Trazado_102151" data-name="Trazado 102151" d="M108.687,346.5h3.028a.6.6,0,0,0,.606-.6v-8.147a.605.605,0,0,0-.409-.569.65.65,0,0,0-.2-.032H108.69a.621.621,0,0,1,.19.032.605.605,0,0,1,.409.569V345.9A.6.6,0,0,1,108.687,346.5Z" transform="translate(-108.687 -337.15)" fill="#68ca44" fill-rule="evenodd"/>
      </g>
      <g id="Grupo_57311" data-name="Grupo 57311" transform="translate(47.253 22.373)">
        <path id="Trazado_102152" data-name="Trazado 102152" d="M422.193,41.816h4.5V37.991a2.252,2.252,0,0,0-4.5,0v3.826Z" transform="translate(-422.193 -35.755)" fill="#cecece" fill-rule="evenodd"/>
      </g>
      <g id="Grupo_57312" data-name="Grupo 57312" transform="translate(46.268 62.136)">
        <path id="Trazado_102153" data-name="Trazado 102153" d="M415.006,396.963l1.5,3.509c.116.224.116.24.232,0l1.5-3.509,1.62-3.778-3.24-2.162-3.237,2.162Z" transform="translate(-413.389 -391.023)" fill="#838383" fill-rule="evenodd"/>
      </g>
      <g id="Grupo_57313" data-name="Grupo 57313" transform="translate(46.268 28.435)">
        <path id="Trazado_102154" data-name="Trazado 102154" d="M413.387,90.891v34.885h6.478V90.891a.987.987,0,0,0-.989-.979h-4.5A.986.986,0,0,0,413.387,90.891Z" transform="translate(-413.387 -89.912)" fill="#fe9737" fill-rule="evenodd"/>
      </g>
      <g id="Grupo_57314" data-name="Grupo 57314" transform="translate(48.381 22.373)">
        <path id="Trazado_102155" data-name="Trazado 102155" d="M433.391,37.991v3.826h2.252V37.991a2.252,2.252,0,0,0-3.376-1.935A2.238,2.238,0,0,1,433.391,37.991Z" transform="translate(-432.267 -35.755)" fill="#b5adb6" fill-rule="evenodd"/>
      </g>
      <g id="Grupo_57315" data-name="Grupo 57315" transform="translate(49.505 28.435)">
        <path id="Trazado_102156" data-name="Trazado 102156" d="M443.3,93.45v32.326h2.252V90.891a.987.987,0,0,0-.989-.979h-2.252a.987.987,0,0,1,.989.979Z" transform="translate(-442.311 -89.912)" fill="#f36b37" fill-rule="evenodd"/>
      </g>
      <g id="Grupo_57316" data-name="Grupo 57316" transform="translate(48.381 64.298)">
        <path id="Trazado_102157" data-name="Trazado 102157" d="M434.38,410.342l-1.62,3.778-.493,1.155,1.008,2.354c.116.224.116.24.232,0l1.5-3.509,1.62-3.778Z" transform="translate(-432.267 -410.342)" fill="#595959" fill-rule="evenodd"/>
      </g>
      <g id="Grupo_57317" data-name="Grupo 57317" transform="translate(0 20.687)">
        <path id="Trazado_102158" data-name="Trazado 102158" d="M42.1,28.844c-.068-.062-7.918-7.5-7.918-7.5l-.112-.107a2.436,2.436,0,0,0-.494-.4.843.843,0,0,0-.089-.045,1.219,1.219,0,0,0-.51-.1H1.531A1.531,1.531,0,0,0,0,22.214V71.835a1.531,1.531,0,0,0,1.531,1.527H40.888a1.532,1.532,0,0,0,1.535-1.527V48.459a.839.839,0,0,0-1.678,0V71.683H1.678V22.365H32.315l0,4.373a3.562,3.562,0,0,0,1.052,2.539,3.611,3.611,0,0,0,2.573,1.069h4.808V44.553a.839.839,0,1,0,1.678,0V29.506a.907.907,0,0,0-.326-.663Zm-7.545-.752a1.9,1.9,0,0,1-.562-1.351l0-3.269,5.486,5.2h-3.54A1.944,1.944,0,0,1,34.552,28.092Z" transform="translate(0 -20.687)"/>
        <path id="Trazado_102159" data-name="Trazado 102159" d="M121.17,126.726a.839.839,0,0,0-.839-.839h-15.71a.839.839,0,1,0,0,1.677h15.71A.839.839,0,0,0,121.17,126.726Z" transform="translate(-92.167 -114.113)"/>
        <path id="Trazado_102160" data-name="Trazado 102160" d="M104.622,80.123h15.71a.839.839,0,1,0,0-1.678h-15.71a.839.839,0,1,0,0,1.678Z" transform="translate(-92.167 -71.981)"/>
        <path id="Trazado_102161" data-name="Trazado 102161" d="M194.336,267.5h-15.2a.839.839,0,0,0,0,1.678h15.2a.839.839,0,1,0,0-1.678Z" transform="translate(-158.341 -239.873)"/>
        <path id="Trazado_102162" data-name="Trazado 102162" d="M194.336,224.2h-15.2a.839.839,0,0,0,0,1.678h15.2a.839.839,0,1,0,0-1.678Z" transform="translate(-158.341 -201.422)"/>
        <path id="Trazado_102163" data-name="Trazado 102163" d="M194.336,395.246h-15.2a.839.839,0,1,0,0,1.677h15.2a.839.839,0,1,0,0-1.677Z" transform="translate(-158.341 -353.324)"/>
        <path id="Trazado_102164" data-name="Trazado 102164" d="M194.336,351.977h-15.2a.839.839,0,0,0,0,1.678h15.2a.839.839,0,0,0,0-1.678Z" transform="translate(-158.341 -314.898)"/>
        <path id="Trazado_102165" data-name="Trazado 102165" d="M61.8,181.323a.839.839,0,0,0-1.173.175l-1.648,2.226h-8a1.444,1.444,0,0,0-1.444,1.44v8.147a1.444,1.444,0,0,0,1.444,1.44h8.2a1.444,1.444,0,0,0,1.444-1.44v-8.147a1.425,1.425,0,0,0-.152-.64l1.5-2.028A.839.839,0,0,0,61.8,181.323Zm-2.852,11.75H51.209V185.4h6.527l-2.674,3.611-.828-.932a.839.839,0,1,0-1.254,1.114l1.514,1.7a.839.839,0,0,0,.627.282h.037a.839.839,0,0,0,.637-.339l3.151-4.257v6.489Z" transform="translate(-43.987 -163.198)"/>
        <path id="Trazado_102166" data-name="Trazado 102166" d="M61.8,306.9a.839.839,0,0,0-1.173.175L58.978,309.3h-8a1.444,1.444,0,0,0-1.444,1.44v8.147a1.444,1.444,0,0,0,1.444,1.44h8.2a1.444,1.444,0,0,0,1.444-1.44v-8.147a1.425,1.425,0,0,0-.152-.64l1.5-2.028A.839.839,0,0,0,61.8,306.9Zm-2.852,11.75H51.209v-7.672h6.527l-2.674,3.612-.828-.932a.839.839,0,1,0-1.254,1.114l1.514,1.7a.839.839,0,0,0,.627.282h.037a.839.839,0,0,0,.637-.339l3.151-4.257Z" transform="translate(-43.987 -274.72)"/>
        <path id="Trazado_102167" data-name="Trazado 102167" d="M416.929,37.86h-2.882V36.14a1.817,1.817,0,0,0-.989-1.613V31.336a3.09,3.09,0,0,0-6.181,0v3.192a1.817,1.817,0,0,0-.986,1.612V71.025c0,.005,0,.01,0,.016s0,.022,0,.034,0,.043.006.064,0,.021,0,.031.009.048.016.072c0,.007,0,.014.005.021a.849.849,0,0,0,.033.093l3.122,7.287q.012.028.026.055l.011.021a.96.96,0,0,0,.85.606h.013a.968.968,0,0,0,.858-.647l.016-.035,3.124-7.286a.835.835,0,0,0,.033-.094l.005-.02c.006-.024.012-.048.016-.073s0-.02,0-.03,0-.043.006-.065,0-.022,0-.033,0-.011,0-.016V64.714a.839.839,0,0,0-1.678,0v5.472h-4.8V36.14a.147.147,0,0,1,.147-.14h4.5a.149.149,0,0,1,.15.14V60.8a.839.839,0,0,0,1.678,0V39.538h2.043V51.263a.839.839,0,0,0,1.678,0V38.7a.839.839,0,0,0-.839-.839Zm-4.993,34-1.968,4.59L408,71.863Zm-3.381-37.541V31.336a1.413,1.413,0,0,1,2.826,0v2.987h-2.826Z" transform="translate(-360.463 -27.413)"/>
      </g>
    </g>
  </g>
</svg>
