<svg xmlns="http://www.w3.org/2000/svg" width="558.72" height="365.406" viewBox="0 0 558.72 365.406">
  <g id="Grupo_55495" data-name="Grupo 55495" transform="translate(-836.961 -610.169)">
    <path id="Trazado_101412" data-name="Trazado 101412" d="M91.764,406.725S32.281,337.4,99.288,261.959c54.012-60.81,36.766-84.327,34.276-125.333-2.107-34.71,37.253-86.033,96.158-88.6,96.548-4.2,120.55,26.828,171.81,24.633S475.975,52.525,535.515,59.6C646,72.717,631.106,177.429,615.006,255.7s32.279,104.991-2.537,151.091" transform="translate(769.538 568.787)" fill="#edfff6"/>
    <g id="Grupo_55494" data-name="Grupo 55494" transform="translate(-711.506 181.587)">
      <path id="Trazado_101318" data-name="Trazado 101318" d="M2253.671,656.274l-3.923,1.2-2.635-6.1-5.953,1.053-2.718-4.241-2.147,1.376,3.635,5.673,5.642-1,2.741,6.344,5.9-1.812Z" transform="translate(-444.164 -158.146)" fill="#ffc93c"/>
      <path id="Trazado_101319" data-name="Trazado 101319" d="M3152.581,1439.984l-3.923,1.2-2.634-6.1-5.953,1.053-2.718-4.241-2.147,1.376,3.635,5.673,5.642-1,2.741,6.344,5.9-1.812Z" transform="translate(-1091.492 -722.515)" fill="#cc3d60"/>
      <g id="Grupo_55460" data-name="Grupo 55460" transform="translate(1762.555 625.258)">
        <g id="Grupo_55459" data-name="Grupo 55459" transform="translate(0 0)">
          <path id="Trazado_101320" data-name="Trazado 101320" d="M2153.4,1295.72s-20.935-70.955-22.614-86.607,10.026-10.8,10.026-10.8-9.847-29.824-2.727-36.9,13.544,6.116,13.544,6.116,2.156-36.2,9.748-36.217c14.141-.025,13.863,39.484,13.863,39.484s3.609-15.468,11.181-11.228c11.419,6.395-4.956,37.393-4.956,37.393s14.551.011,19.662,7.347C2210.3,1217.468,2153.4,1295.72,2153.4,1295.72Z" transform="translate(-2130.621 -1131.307)" fill="#cc3d60"/>
        </g>
      </g>
      <g id="Grupo_55462" data-name="Grupo 55462" transform="translate(1683.589 675.875)">
        <g id="Grupo_55461" data-name="Grupo 55461" transform="translate(0)">
          <path id="Trazado_101321" data-name="Trazado 101321" d="M1957.064,1416.567s-60.35-10.092-73.477-20.785-.134-15.515-.134-15.515-30.317-15.542-29.966-26.109,15.412-5.2,15.412-5.2-25.545-29.129-19.5-34.66c11.264-10.3,40.8,19.976,40.8,19.976s-8.769-14.4.466-16.679c13.927-3.437,24.206,32.071,24.206,32.071s-2.612-14.023,6.992-12.155C1939.092,1340.867,1957.064,1416.567,1957.064,1416.567Z" transform="translate(-1848.476 -1312.164)" fill="#dbf6e9"/>
        </g>
        <path id="Trazado_101322" data-name="Trazado 101322" d="M1924.244,1337.516c-9.627-1.741-6.992,12.155-6.992,12.155s-10.279-35.507-24.206-32.071c-9.235,2.279-.466,16.679-.466,16.679s-29.531-30.28-40.8-19.976l107.458,102.282C1957.331,1406.815,1940.384,1340.434,1924.244,1337.516Z" transform="translate(-1850.859 -1312.164)" fill="#9ddfd3"/>
      </g>
      <g id="Grupo_55463" data-name="Grupo 55463" transform="translate(1679.149 738.706)">
        <path id="Trazado_101323" data-name="Trazado 101323" d="M1962.809,1586.914s-31.782-32.321-47.787-35.687-13.126,8.022-13.126,8.022-31.755-27.77-39.114-21.041.6,13.224.6,13.224-26.45-4.687-30.237,3.993c-5.818,13.338,37.683,20.6,37.683,20.6s-18.229,1.263-14,9.626C1863.2,1598.26,1962.809,1586.914,1962.809,1586.914Z" transform="translate(-1832.611 -1537.017)" fill="#dbf6e9"/>
        <path id="Trazado_101324" data-name="Trazado 101324" d="M1834.525,1555.067c3.786-8.68,30.237-3.993,30.237-3.993s-7.96-6.5-.6-13.224,38.126,17.265,38.126,17.265-7.255-13.866,8.75-10.5,53.15,41.943,53.15,41.943Z" transform="translate(-1833.99 -1536.66)" fill="#9ddfd3"/>
      </g>
      <g id="Grupo_55471" data-name="Grupo 55471" transform="translate(1836.984 438.475)">
        <path id="Trazado_101325" data-name="Trazado 101325" d="M2452.479,523.467c-10.7,1.76-13.875,15.8-4.981,22.082a8.163,8.163,0,0,1,3.173,4.723l1.619,6.531a3.557,3.557,0,0,0,4.03,2.654l4.053-.667a3.556,3.556,0,0,0,2.967-3.805c-.562-6.743-1.258-9.189.934-12.2C2470.685,533.991,2463.179,521.707,2452.479,523.467Z" transform="translate(-2429.518 -506.682)" fill="#ffc93c"/>
        <g id="Grupo_55464" data-name="Grupo 55464" transform="translate(18.18 24.741)">
          <path id="Trazado_101326" data-name="Trazado 101326" d="M2467.389,572.922c-.7-5.777-1.674-11.876-2.007-13.606-6.132.338-3.8-6.125-.972-3.5a5.355,5.355,0,0,1,1.439,2.878,15.854,15.854,0,0,0,5.843-1.7,7.524,7.524,0,0,1,.159-3.416c.6-1.377,2.346-1.752,3.056-.41a2.146,2.146,0,0,1,.12,1.682,5.45,5.45,0,0,1-2.727,2.481c.322,4.593.77,9.221,1.332,13.779l-.579.072c-.554-4.484-1-9.036-1.317-13.556a16.438,16.438,0,0,1-5.769,1.646c.42,2.212,1.347,8.157,2,13.58Zm-4.919-14.968a3.431,3.431,0,0,0,2.79.784,4.744,4.744,0,0,0-1.247-2.492C2462.491,554.832,2461.556,556.968,2462.47,557.954Zm9.916-4.142a6.5,6.5,0,0,0-.13,2.877,4.613,4.613,0,0,0,2.223-2.036,1.322,1.322,0,0,0-.681-1.713C2473.727,552.922,2472.62,553.274,2472.386,553.812Z" transform="translate(-2461.517 -552.333)" fill="#fff"/>
        </g>
        <path id="Trazado_101327" data-name="Trazado 101327" d="M2471.969,613.955c.014.054.034.107.047.161l1.619,6.531a3.556,3.556,0,0,0,4.03,2.654l4.053-.667a3.556,3.556,0,0,0,2.967-3.805c-.25-3-.526-5.148-.563-6.874Z" transform="translate(-2450.864 -570.527)" fill="#31326f"/>
        <g id="Grupo_55465" data-name="Grupo 55465" transform="translate(11.688 4.341)">
          <path id="Trazado_101328" data-name="Trazado 101328" d="M2441.664,487.01l-3.2-5.84a1.167,1.167,0,0,1,2.047-1.121l3.2,5.84a1.167,1.167,0,0,1-2.047,1.121Z" transform="translate(-2438.322 -479.443)" fill="#ffc93c"/>
        </g>
        <g id="Grupo_55466" data-name="Grupo 55466" transform="translate(0 23.094)">
          <path id="Trazado_101329" data-name="Trazado 101329" d="M2404.6,549.386l-6.973-.609a1.167,1.167,0,0,1,.2-2.325l6.973.61a1.167,1.167,0,0,1-.2,2.325Z" transform="translate(-2396.559 -546.447)" fill="#ffc93c"/>
        </g>
        <g id="Grupo_55467" data-name="Grupo 55467" transform="translate(0.787 40.994)">
          <path id="Trazado_101330" data-name="Trazado 101330" d="M2399.709,616.822a1.167,1.167,0,0,1,.01-1.65,38.129,38.129,0,0,1,5.6-4.57,1.167,1.167,0,0,1,1.3,1.94,35.811,35.811,0,0,0-5.259,4.29A1.166,1.166,0,0,1,2399.709,616.822Z" transform="translate(-2399.372 -610.405)" fill="#ffc93c"/>
        </g>
        <g id="Grupo_55468" data-name="Grupo 55468" transform="translate(31.394)">
          <path id="Trazado_101331" data-name="Trazado 101331" d="M2509.594,475.524a1.167,1.167,0,0,1-.826-1.428,44.392,44.392,0,0,0,1.439-9.06,1.167,1.167,0,1,1,2.33.125,46.712,46.712,0,0,1-1.514,9.537A1.167,1.167,0,0,1,2509.594,475.524Z" transform="translate(-2508.729 -463.931)" fill="#ffc93c"/>
        </g>
        <g id="Grupo_55469" data-name="Grupo 55469" transform="translate(39.391 16.868)">
          <path id="Trazado_101332" data-name="Trazado 101332" d="M2537.352,527.889a1.167,1.167,0,0,1,.78-1.454l7.25-2.185a1.167,1.167,0,1,1,.674,2.234l-7.249,2.185A1.168,1.168,0,0,1,2537.352,527.889Z" transform="translate(-2537.302 -524.2)" fill="#ffc93c"/>
        </g>
        <g id="Grupo_55470" data-name="Grupo 55470" transform="translate(43.154 34.695)">
          <path id="Trazado_101333" data-name="Trazado 101333" d="M2558.944,593.049a1.174,1.174,0,0,1-.317-.044,36.628,36.628,0,0,1-7.259-2.91,1.167,1.167,0,0,1,1.1-2.061,34.281,34.281,0,0,0,6.8,2.724,1.167,1.167,0,0,1-.315,2.29Z" transform="translate(-2550.749 -587.898)" fill="#ffc93c"/>
        </g>
      </g>
      <path id="Trazado_101334" data-name="Trazado 101334" d="M2923.689,714.185l-3.657-8.649-9.2-1.89a1.29,1.29,0,0,1-.585-2.239l7.1-6.151-1.045-9.332a1.29,1.29,0,0,1,1.948-1.249l8.042,4.847,8.552-3.877a1.291,1.291,0,0,1,1.79,1.467l-2.125,9.146,6.331,6.936a1.29,1.29,0,0,1-.842,2.155l-9.355.806L2926,714.32A1.291,1.291,0,0,1,2923.689,714.185Z" transform="translate(-929.173 -184.284)" fill="#31326f"/>
      <path id="Trazado_101335" data-name="Trazado 101335" d="M3109.665,684.566l-1.5,6.054-10.009-1.343-3.29,8.581-7.655.22.111,3.875,10.238-.293,3.118-8.132,10.412,1.4,2.262-9.111Z" transform="translate(-1056.927 -184.341)" fill="#cc3d60"/>
      <path id="Trazado_101336" data-name="Trazado 101336" d="M2364.808,1637.335H2188.864a12.4,12.4,0,0,1-12.168-12.621v-7.5a12.4,12.4,0,0,1,12.168-12.621h175.944a24.927,24.927,0,0,0-.323,32.365Z" transform="translate(-401.246 -846.871)" fill="#cc3d60"/>
      <path id="Trazado_101337" data-name="Trazado 101337" d="M2556.713,1618h-97.587a12.4,12.4,0,0,0-12.168,12.621h0a12.4,12.4,0,0,0,12.168,12.621h97.6A25.039,25.039,0,0,1,2556.713,1618Z" transform="translate(-595.868 -856.525)" fill="#f2f2f2"/>
      <path id="Trazado_101338" data-name="Trazado 101338" d="M2352.564,1520.668a.73.73,0,0,0-.725-1.035h-93.1c-7.3,0-13.212,5.323-13.212,11.891h0c0,6.567,5.916,11.891,13.212,11.891h93.124a.733.733,0,0,0,.726-1.041h0A22.78,22.78,0,0,1,2352.564,1520.668Z" transform="translate(-450.814 -785.692)" fill="#9ddfd3"/>
      <path id="Trazado_101339" data-name="Trazado 101339" d="M2467.252,1527.54h-46.14c-8.564,0-15.507,4.461-15.507,9.965s6.942,9.964,15.507,9.964h46.444A22.737,22.737,0,0,1,2467.252,1527.54Z" transform="translate(-566.09 -791.386)" fill="#f2f2f2"/>
      <g id="Grupo_55472" data-name="Grupo 55472" transform="translate(1880.898 740.877)">
        <path id="Trazado_101340" data-name="Trazado 101340" d="M2561.813,1544.417h-6.01c-1.292,0-2.339.434-2.339.969v.087h8.349Z" transform="translate(-2553.464 -1544.417)" fill="#34bed1"/>
        <path id="Trazado_101341" data-name="Trazado 101341" d="M2572.748,1546.848c0-1.342-1.569-2.431-3.505-2.431h-7.711c1.468,0,2.658.825,2.658,1.843l-.037,26.053,4.261-3.35,4.343,3.35Z" transform="translate(-2559.273 -1544.417)" fill="#31dae7"/>
      </g>
      <g id="Grupo_55474" data-name="Grupo 55474" transform="translate(1788.604 711.367)">
        <path id="Trazado_101342" data-name="Trazado 101342" d="M2405.053,1463.444h-54.169c-4.8,0-8.7-4.622-8.7-10.323h0c0-5.7,3.894-10.323,8.7-10.323h54.169a18.161,18.161,0,0,0-.387,20.06Z" transform="translate(-2309.024 -1441.729)" fill="#f2f2f2"/>
        <path id="Trazado_101343" data-name="Trazado 101343" d="M2256.865,1450.37h0c0-5.7,3.986-10.323,8.9-10.323h54.991a.5.5,0,0,0,.461-.54h0a.5.5,0,0,0-.461-.529h-87.236c-5.427,0-9.826,5.1-9.826,11.393h0c0,6.292,4.4,11.393,9.826,11.393h87.236a.5.5,0,0,0,.461-.53h0a.5.5,0,0,0-.461-.54h-54.991C2260.851,1460.693,2256.865,1456.071,2256.865,1450.37Z" transform="translate(-2223.697 -1438.977)" fill="#5c407b"/>
        <g id="Grupo_55473" data-name="Grupo 55473" transform="translate(78.222 6.143)">
          <path id="Trazado_101344" data-name="Trazado 101344" d="M2511.533,1460.925h-6.009c-1.292,0-2.34.425-2.34.95v.085h8.349Z" transform="translate(-2503.184 -1460.925)" fill="#34bed1"/>
          <path id="Trazado_101345" data-name="Trazado 101345" d="M2522.468,1463.308c0-1.317-1.57-2.383-3.505-2.383h-7.711c1.469,0,2.659.809,2.659,1.808l-.037,25.549,4.261-3.285,4.342,3.285Z" transform="translate(-2508.993 -1460.925)" fill="#31dae7"/>
        </g>
      </g>
      <g id="Grupo_55477" data-name="Grupo 55477" transform="translate(1801.407 499.631)">
        <g id="Grupo_55476" data-name="Grupo 55476" transform="translate(99.229 57.933)">
          <path id="Trazado_101346" data-name="Trazado 101346" d="M2857.135,891.632l8-2.1-5.42,72.291-9.594.32,4.84-67.88A2.931,2.931,0,0,1,2857.135,891.632Z" transform="translate(-2786.829 -889.502)" fill="#e4c4ff"/>
          <g id="Grupo_55475" data-name="Grupo 55475">
            <path id="Trazado_101347" data-name="Trazado 101347" d="M2878.765,963.814a2.6,2.6,0,0,1-.548-.008,3.206,3.206,0,0,1-2.625-3.528l5.322-67.975a2.915,2.915,0,0,1,3.126-2.849,3.206,3.206,0,0,1,2.625,3.528l-5.322,67.975A2.985,2.985,0,0,1,2878.765,963.814Z" transform="translate(-2805.167 -889.435)" fill="#f36b80"/>
            <path id="Trazado_101348" data-name="Trazado 101348" d="M2623.989,1150.075c0,.05.006.1.01.15h0c.251,2.766,2.394,4.834,4.786,4.62l67.535-6.044c2.393-.214,4.129-2.629,3.879-5.4-.011-.117-.026-.232-.043-.346Z" transform="translate(-2623.989 -1072.076)" fill="#f36b80"/>
          </g>
        </g>
        <path id="Trazado_101349" data-name="Trazado 101349" d="M2706.915,1423.256c-4.422,2.452-17.939-1.848-17.939-2.236-.195,3.695-15.136,39.853-15.136,39.853l.012,11.125s30.789,1.468,30.346-1.253-2.1-.951-8.24-6.09c-.545-.456-9.169-2.458-6.835-7.562C2693.821,1446.813,2703.8,1429.674,2706.915,1423.256Z" transform="translate(-2560.658 -1214.309)" fill="#ffb3c5"/>
        <path id="Trazado_101350" data-name="Trazado 101350" d="M2667.812,1574.863l33.7.009c1.216-.124,1.5-1.112,1.071-1.715-.885-1.239-7.344-4.16-11.686-6.1-7.563.883-20.857-2.025-22.074-3.749C2665.625,1567.6,2667.133,1574.723,2667.812,1574.863Z" transform="translate(-2555.631 -1316.776)" fill="#5c407b"/>
        <path id="Trazado_101351" data-name="Trazado 101351" d="M2643.551,1240.177c-.456-1.367,29.017-13.875,30.336-12.446,2.333,2.528-15.946,49.978-15.946,49.978l21,6.417s21.834-54.82,20.923-64.847-11.85-21.42-35.549-14.128S2643.551,1240.177,2643.551,1240.177Z" transform="translate(-2538.763 -1057.191)" fill="#31326f"/>
        <path id="Trazado_101352" data-name="Trazado 101352" d="M2808.871,1448.07a111.463,111.463,0,0,0-16.586-1.253c.608,4.6,3.563,28.166,3.023,29.614a17.688,17.688,0,0,1-7.042,8.613s22.886,20.649,24.267,18.264-1.02-2.066-2.515-9.933c-.132-.7-3.441-11.68-3.646-17.6C2805.981,1464.474,2808.7,1454.343,2808.871,1448.07Z" transform="translate(-2643.06 -1232.886)" fill="#ffb3c5"/>
        <path id="Trazado_101353" data-name="Trazado 101353" d="M2522.021,1171.9c-3.193-1.7-11.481-1.763-20.6-1.172a209.119,209.119,0,0,0-52.209,10.247l-11.311,3.747.037-11.6s-35.981-6.021-37.233,2.9c-1.885,13.429.454,40.693,12.443,46.778,37.238,18.9,89.42-30.112,89.609-23.7.254,8.612,7.514,40.659,9.37,54.691,5.163.089,14.032.085,17.879-.8C2530.759,1225.512,2531.11,1176.753,2522.021,1171.9Z" transform="translate(-2363.552 -1033.827)" fill="#31326f"/>
        <path id="Trazado_101354" data-name="Trazado 101354" d="M2785.711,1561.578l25.727,20.551c1.02.675,1.866.09,1.915-.647.1-1.519-3.043-7.872-5.174-12.123-6.411-4.11-14.864-14.829-14.712-16.933C2790.754,1554.716,2785.275,1561.04,2785.711,1561.578Z" transform="translate(-2641.202 -1308.938)" fill="#5c407b"/>
        <path id="Trazado_101355" data-name="Trazado 101355" d="M2355.719,708.429c-.864-7.9-1.774-15.829-8.323-21.619-5.3-4.686-12.038-5.479-18.7-2.973-18.877,7.1-9.151,23.869-33.222,40.772-7.479,5.252-15.723,8.847-21.355,15.92-7.882,9.9-4.906,21.808,2.277,29.758,34.373,38.041,72.748-13.334,75.5-25.667C2353.949,735.446,2356.275,713.514,2355.719,708.429Z" transform="translate(-2269.441 -682.44)" fill="#31326f"/>
        <path id="Trazado_101356" data-name="Trazado 101356" d="M2441.137,890.076a104.874,104.874,0,0,0-5.7-9.284C2432.525,875.615,2425,873,2425,873s-2.517.051-5.406.193a2.286,2.286,0,0,1-.545.96c-1.086.814-7.31-.237-11.331,2.492-13.475,11.551-9.748,67.539-8.688,85.223l41.039.388s-5.174-38.049,3.164-47.825C2449.04,907.62,2445.3,897.755,2441.137,890.076Z" transform="translate(-2361.839 -819.665)" fill="#f2f2f2"/>
        <path id="Trazado_101357" data-name="Trazado 101357" d="M2476.406,800.228s-2.256,16.11-3.831,20.025,8.663,12.288,17.182,14.829-2.6-8.648-2.251-12.833,1.9-24,1.9-24Z" transform="translate(-2415.606 -765.837)" fill="#ffb3c5"/>
        <path id="Trazado_101358" data-name="Trazado 101358" d="M2497.476,803.932c.249-3.278.43-5.683.43-5.683l-13,1.979s-.328,1.892-.69,4.569C2489.485,807.855,2494.225,806.89,2497.476,803.932Z" transform="translate(-2424.104 -765.837)" fill="#ea94ad"/>
        <path id="Trazado_101359" data-name="Trazado 101359" d="M2473.2,699.805a14.768,14.768,0,0,0-8.289,5.984c-3.164,4.829-5.336,19.045,5.087,25.681s18.527-2.751,18.661-11.906S2486.83,698.191,2473.2,699.805Z" transform="translate(-2408.321 -694.841)" fill="#ffb3c5"/>
        <path id="Trazado_101360" data-name="Trazado 101360" d="M2551.723,747.552c-.889,2.209-2.654,3.58-3.94,3.062s-1.609-2.729-.72-4.938,2.653-3.58,3.94-3.062S2552.612,745.343,2551.723,747.552Z" transform="translate(-2469.001 -725.694)" fill="#ffb3c5"/>
        <path id="Trazado_101361" data-name="Trazado 101361" d="M2460.606,699.1s-6.534,14.655-12.274,15.964-5.657,8.683-5.657,8.683.129-17.028,5.508-20.934S2460.606,699.1,2460.606,699.1Z" transform="translate(-2394.192 -694.438)" fill="#472a6a"/>
        <path id="Trazado_101362" data-name="Trazado 101362" d="M2455.261,758.064c.755,2.38.064,4.723-1.545,5.234s-3.525-1-4.281-3.385-.064-4.723,1.545-5.234S2454.5,755.685,2455.261,758.064Z" transform="translate(-2398.839 -734.391)" fill="#ffb3c5"/>
        <path id="Trazado_101363" data-name="Trazado 101363" d="M2516.644,1028.637c-2.462-.89-6.127-1-6.066-1.326.248-1.316,11.125,2.9,9.655.985-.818-1.069-8.958-4.855-10.938-4.23-1.92.606-14.527,4.145-14.527,4.145l-34.454-8.075s-8.7-19.763-9.546-36.741a47.35,47.35,0,0,0-18.331,6.217c3.013,16.237,10.337,42.557,18.433,47.5,3.406,2.078,44.07-2.487,44.07-2.487s8.961-.633,10.426-1.2c1.111-.428,3.97-2.038,5.526-2.478,3.535-1,9.834,1.512,9.854.82C2520.759,1031.26,2519.16,1029.547,2516.644,1028.637Z" transform="translate(-2386.818 -899.164)" fill="#ffb3c5"/>
        <path id="Trazado_101364" data-name="Trazado 101364" d="M2441.8,886.948c-.331-5.225-2.31-10.269-7.869-11.893a11.254,11.254,0,0,0-10.063,2.205c-3.276,2.675-4.19,6.967-4.175,11.028a157.643,157.643,0,0,0,2.348,27.865,59.623,59.623,0,0,1,20.731-6.524C2442.772,909.575,2442.243,893.853,2441.8,886.948Z" transform="translate(-2377.643 -820.86)" fill="#e1dde7"/>
      </g>
      <g id="Grupo_55478" data-name="Grupo 55478" transform="translate(1703.605 522.082)">
        <path id="Trazado_101365" data-name="Trazado 101365" d="M1975.664,825.661l-53.417-9.947a1.976,1.976,0,0,1-1.581-2.3l6.691-35.935a1.976,1.976,0,0,1,2.3-1.581l53.417,9.947a1.976,1.976,0,0,1,1.581,2.3l-6.691,35.935A1.976,1.976,0,0,1,1975.664,825.661Z" transform="translate(-1920.454 -772.166)" fill="#31326f"/>
        <path id="Trazado_101366" data-name="Trazado 101366" d="M1980.419,775.074l-16.26-3.028a1.975,1.975,0,0,1-1.581-2.3l1.018-5.468a1.976,1.976,0,0,1,2.3-1.581l16.26,3.028a1.976,1.976,0,0,1,1.581,2.3l-1.018,5.468A1.976,1.976,0,0,1,1980.419,775.074Z" transform="translate(-1950.635 -762.659)" fill="#ffc93c"/>
        <path id="Trazado_101367" data-name="Trazado 101367" d="M1977.635,833.781a1.976,1.976,0,0,1-2.263,1.406l-53.766-10.012A1.976,1.976,0,0,1,1920,823.06l2.814-32.212a1.976,1.976,0,0,1,2.33-1.771l59.728,11.122a1.975,1.975,0,0,1,1.54,2.479Z" transform="translate(-1919.992 -781.66)" fill="#ffc93c"/>
      </g>
      <g id="Grupo_55479" data-name="Grupo 55479" transform="translate(1995.133 447.386)">
        <path id="Trazado_101368" data-name="Trazado 101368" d="M2972.744,504.889l-9.147,2.5-1.97-11.085,2.994-.532,1.387,7.807,5.936-1.621Z" transform="translate(-2961.627 -495.769)" fill="#cc3d60"/>
      </g>
      <g id="Grupo_55480" data-name="Grupo 55480" transform="translate(1713.203 606.582)">
        <path id="Trazado_101369" data-name="Trazado 101369" d="M1960.123,1072.218a14.148,14.148,0,0,1,7.384,1.892,10.68,10.68,0,0,1,3.935,4.066l-.424.294a9.6,9.6,0,0,0-4.92-3.026,11.843,11.843,0,0,0-5.49-.054Z" transform="translate(-1958.49 -1070.064)" fill="#8b5dd0"/>
        <path id="Trazado_101370" data-name="Trazado 101370" d="M1967.028,1072.838s-13.957,2.329-12.655,13.232,16.025,19.385,29.167,12.642c17.678-9.072,10.7-32.134-1.887-33.918S1967.028,1072.838,1967.028,1072.838Z" transform="translate(-1954.287 -1064.578)" fill="#cc3d60"/>
        <path id="Trazado_101371" data-name="Trazado 101371" d="M2017.062,1072.392s3.641-3.738,11.619-.337,8.556,19.261,1.44,18.339S2011.373,1074.681,2017.062,1072.392Z" transform="translate(-1998.4 -1068.933)" fill="#ff8da3"/>
      </g>
      <g id="Grupo_55483" data-name="Grupo 55483" transform="translate(1755.128 428.582)">
        <path id="Trazado_101372" data-name="Trazado 101372" d="M2176.835,465.192l-57.4,20.477a3.556,3.556,0,0,1-4.545-2.155l-10.6-29.7a3.557,3.557,0,0,1,2.155-4.545l57.4-20.477a3.557,3.557,0,0,1,4.545,2.155l10.6,29.7A3.557,3.557,0,0,1,2176.835,465.192Z" transform="translate(-2104.084 -428.582)" fill="#9ddfd3"/>
        <path id="Trazado_101373" data-name="Trazado 101373" d="M2171.233,512.667a11.376,11.376,0,1,1-14.536-6.892A11.375,11.375,0,0,1,2171.233,512.667Z" transform="translate(-2136.53 -483.692)" fill="#fff"/>
        <path id="Trazado_101374" data-name="Trazado 101374" d="M2178.858,520.688a3.355,3.355,0,1,1-4.287-2.032A3.355,3.355,0,0,1,2178.858,520.688Z" transform="translate(-2153.239 -493.305)" fill="#31326f"/>
        <path id="Rectángulo_5291" data-name="Rectángulo 5291" d="M5.177,0h.365A5.178,5.178,0,0,1,10.72,5.178v0a0,0,0,0,1,0,0H0a0,0,0,0,1,0,0v0A5.177,5.177,0,0,1,5.177,0Z" transform="translate(19.248 35.463) rotate(-19.632)" fill="#31326f"/>
        <g id="Grupo_55481" data-name="Grupo 55481" transform="translate(34.667 10.913)">
          <path id="Trazado_101375" data-name="Trazado 101375" d="M2229.4,479.427a1.451,1.451,0,0,1-.488-2.817l25.094-8.951a1.451,1.451,0,1,1,.975,2.733l-25.093,8.951A1.449,1.449,0,0,1,2229.4,479.427Z" transform="translate(-2227.95 -467.574)" fill="#fff"/>
        </g>
        <g id="Grupo_55482" data-name="Grupo 55482" transform="translate(41.441 19.128)">
          <path id="Trazado_101376" data-name="Trazado 101376" d="M2253.6,506.821a1.451,1.451,0,0,1-.488-2.817l19.6-6.991a1.451,1.451,0,1,1,.975,2.733l-19.6,6.991A1.448,1.448,0,0,1,2253.6,506.821Z" transform="translate(-2252.153 -496.928)" fill="#fff"/>
        </g>
      </g>
      <path id="Trazado_101377" data-name="Trazado 101377" d="M2306.017,1359.874H2167.411a7.793,7.793,0,0,0-7.793,7.794v6.555a7.793,7.793,0,0,0,7.793,7.793h138.605l-.072-.075A15.871,15.871,0,0,1,2306.017,1359.874Z" transform="translate(-388.948 -670.646)" fill="#16d8b5"/>
      <path id="Trazado_101378" data-name="Trazado 101378" d="M2463.233,1371.585h-74.1a7.793,7.793,0,0,0-7.793,7.793h0a7.793,7.793,0,0,0,7.793,7.793h74.095A15.894,15.894,0,0,1,2463.233,1371.585Z" transform="translate(-548.618 -679.079)" fill="#f2f2f2"/>
      <g id="Grupo_55487" data-name="Grupo 55487" transform="translate(2019.818 644.894)">
        <g id="Grupo_55485" data-name="Grupo 55485">
          <path id="Trazado_101379" data-name="Trazado 101379" d="M3060.52,1246.44l-10.506-26.359a2.584,2.584,0,0,1,1.444-3.358l37.807-15.069a2.585,2.585,0,0,1,3.358,1.444l10.507,26.36a2.585,2.585,0,0,1-1.444,3.358l-37.806,15.069A2.585,2.585,0,0,1,3060.52,1246.44Z" transform="translate(-3049.829 -1201.469)" fill="#ffc93c"/>
          <path id="Trazado_101380" data-name="Trazado 101380" d="M3191.029,1244.13l-9.441-23.686a.742.742,0,0,1,.414-.964h0a.742.742,0,0,1,.963.415l9.441,23.687a.741.741,0,0,1-.414.963h0A.741.741,0,0,1,3191.029,1244.13Z" transform="translate(-3144.673 -1214.401)" fill="#fff"/>
          <path id="Trazado_101381" data-name="Trazado 101381" d="M3179.3,1243.891l-7.752-19.448a.741.741,0,0,1,.415-.964h0a.742.742,0,0,1,.963.415l7.751,19.448a.742.742,0,0,1-.414.963h0A.742.742,0,0,1,3179.3,1243.891Z" transform="translate(-3137.447 -1217.281)" fill="#fff"/>
          <path id="Trazado_101382" data-name="Trazado 101382" d="M3170.958,1252.13l-9.441-23.687a.742.742,0,0,1,.415-.964h0a.741.741,0,0,1,.963.414l9.441,23.687a.741.741,0,0,1-.414.963h0A.741.741,0,0,1,3170.958,1252.13Z" transform="translate(-3130.22 -1220.162)" fill="#fff"/>
          <path id="Trazado_101383" data-name="Trazado 101383" d="M3158.77,1250.725l-7.287-18.282a.741.741,0,0,1,.414-.964h0a.742.742,0,0,1,.964.414l7.287,18.282a.742.742,0,0,1-.414.964h0A.742.742,0,0,1,3158.77,1250.725Z" transform="translate(-3122.994 -1223.042)" fill="#fff"/>
          <g id="Grupo_55484" data-name="Grupo 55484" transform="translate(41.699 2.819)">
            <path id="Trazado_101384" data-name="Trazado 101384" d="M3203.223,1212.24l-.19-.477a.333.333,0,0,0-.426-.2l-3.588,1.43a.332.332,0,0,0-.172.437l.191.477a.332.332,0,0,0,.425.2l3.588-1.43A.333.333,0,0,0,3203.223,1212.24Z" transform="translate(-3198.821 -1211.542)" fill="#31326f"/>
            <path id="Trazado_101385" data-name="Trazado 101385" d="M3206.129,1219.53l-.19-.477a.333.333,0,0,0-.426-.2l-3.588,1.431a.332.332,0,0,0-.172.437l.19.477a.332.332,0,0,0,.426.2l3.589-1.43A.333.333,0,0,0,3206.129,1219.53Z" transform="translate(-3200.913 -1216.792)" fill="#31326f"/>
            <path id="Trazado_101386" data-name="Trazado 101386" d="M3209.034,1226.819l-.19-.477a.332.332,0,0,0-.426-.2l-3.588,1.43a.332.332,0,0,0-.172.437l.19.477a.333.333,0,0,0,.426.2l3.588-1.43A.333.333,0,0,0,3209.034,1226.819Z" transform="translate(-3203.005 -1222.041)" fill="#31326f"/>
            <path id="Trazado_101387" data-name="Trazado 101387" d="M3211.94,1234.108l-.19-.477a.333.333,0,0,0-.426-.2l-3.588,1.431a.332.332,0,0,0-.172.437l.19.477a.333.333,0,0,0,.426.2l3.588-1.43A.332.332,0,0,0,3211.94,1234.108Z" transform="translate(-3205.098 -1227.29)" fill="#31326f"/>
            <path id="Trazado_101388" data-name="Trazado 101388" d="M3214.844,1241.4l-.19-.477a.332.332,0,0,0-.426-.2l-3.589,1.43a.333.333,0,0,0-.172.437l.19.477a.333.333,0,0,0,.426.2l3.588-1.43A.332.332,0,0,0,3214.844,1241.4Z" transform="translate(-3207.19 -1232.54)" fill="#31326f"/>
            <path id="Trazado_101389" data-name="Trazado 101389" d="M3217.75,1248.687l-.19-.477a.333.333,0,0,0-.426-.2l-3.588,1.431a.333.333,0,0,0-.173.437l.19.477a.332.332,0,0,0,.426.2l3.588-1.43A.333.333,0,0,0,3217.75,1248.687Z" transform="translate(-3209.282 -1237.789)" fill="#31326f"/>
            <path id="Trazado_101390" data-name="Trazado 101390" d="M3220.656,1255.977l-.19-.477a.333.333,0,0,0-.426-.2l-3.588,1.43a.332.332,0,0,0-.172.437l.19.477a.332.332,0,0,0,.426.2l3.588-1.43A.332.332,0,0,0,3220.656,1255.977Z" transform="translate(-3211.375 -1243.038)" fill="#31326f"/>
            <path id="Trazado_101391" data-name="Trazado 101391" d="M3223.561,1263.266l-.19-.477a.333.333,0,0,0-.426-.2l-3.588,1.43a.332.332,0,0,0-.172.437l.19.477a.332.332,0,0,0,.426.2l3.588-1.43A.332.332,0,0,0,3223.561,1263.266Z" transform="translate(-3213.467 -1248.288)" fill="#31326f"/>
            <path id="Trazado_101392" data-name="Trazado 101392" d="M3226.467,1270.556l-.19-.477a.333.333,0,0,0-.426-.2l-3.588,1.43a.334.334,0,0,0-.172.437l.19.477a.333.333,0,0,0,.426.2l3.588-1.431A.332.332,0,0,0,3226.467,1270.556Z" transform="translate(-3215.559 -1253.537)" fill="#31326f"/>
            <path id="Trazado_101393" data-name="Trazado 101393" d="M3229.373,1277.846l-.19-.477a.333.333,0,0,0-.426-.2l-3.588,1.43a.333.333,0,0,0-.173.437l.19.477a.332.332,0,0,0,.426.2l3.588-1.43A.333.333,0,0,0,3229.373,1277.846Z" transform="translate(-3217.651 -1258.787)" fill="#31326f"/>
            <path id="Trazado_101394" data-name="Trazado 101394" d="M3232.278,1285.135l-.19-.477a.332.332,0,0,0-.426-.2l-3.588,1.43a.332.332,0,0,0-.172.437l.19.477a.333.333,0,0,0,.426.2l3.588-1.43A.332.332,0,0,0,3232.278,1285.135Z" transform="translate(-3219.744 -1264.036)" fill="#31326f"/>
            <path id="Trazado_101395" data-name="Trazado 101395" d="M3235.183,1292.424l-.19-.477a.333.333,0,0,0-.426-.2l-3.588,1.43a.332.332,0,0,0-.172.437l.19.477a.332.332,0,0,0,.426.2l3.588-1.43A.332.332,0,0,0,3235.183,1292.424Z" transform="translate(-3221.836 -1269.286)" fill="#31326f"/>
          </g>
        </g>
        <g id="Grupo_55486" data-name="Grupo 55486" transform="translate(48.316 23.609)">
          <path id="Trazado_101396" data-name="Trazado 101396" d="M3239.107,1286.073l-15.006,21.367a.591.591,0,0,0-.077.156l-1.53,4.695a.588.588,0,0,0,.913.651l4.016-3.027a.58.58,0,0,0,.128-.131l15.044-21.422a.589.589,0,0,0-.165-.833l-2.526-1.613A.588.588,0,0,0,3239.107,1286.073Z" transform="translate(-3222.464 -1285.823)" fill="#cc3d60"/>
          <path id="Trazado_101397" data-name="Trazado 101397" d="M3227.8,1365.9l-.037.053-3.875,2.921-1.056-.707,1.45-4.45A18.06,18.06,0,0,1,3227.8,1365.9Z" transform="translate(-3222.726 -1341.913)" fill="#f2f2f2"/>
        </g>
      </g>
      <g id="Grupo_55488" data-name="Grupo 55488" transform="translate(1919.222 433.784)">
        <path id="Trazado_101398" data-name="Trazado 101398" d="M2712.3,460.248c2.16,1.724,5.917,7.271,10.711,11.165,2.8,2.278,4.964,1.7,8.543,2.131,16.984,2.053,12.382,5.524,14.418,5.865-.579,1.331-5.87,12.579-6.858,14.852a4.144,4.144,0,0,1-4.773,2.72c-3.512-.486-7.056-.847-10.514-1.6-8.864-1.922-13.8-6.355-20.148-11.739a4.154,4.154,0,0,1-1.227-5.229A144.226,144.226,0,0,1,2712.3,460.248Z" transform="translate(-2698.758 -456.588)" fill="#31326f"/>
        <path id="Trazado_101399" data-name="Trazado 101399" d="M2739.45,483.522c-.077,3.7.207,4.444-1.383,3.882a22.311,22.311,0,0,1-2.787-1.245c-.638-.329-.662-.763-.144-1.283.754-.757,1.528-1.495,2.282-2.229a3.276,3.276,0,0,1,1.438-3.935c.277-.162.074.182,2.439-5.262-7.821-.965-13.34-1.612-22.882-2.786a12.836,12.836,0,0,1-6.794-2.956q-10.223-8.554-20.441-17.114a1.886,1.886,0,0,1-.307-2.782,2.135,2.135,0,0,1,2.1-.6c2.178.273,23.53,2.926,25.7,3.179a14.038,14.038,0,0,1,7.559,3.25q10.044,8.41,20.113,16.79c.92.768,1.169,1.473.846,2.327a1.8,1.8,0,0,1-2.3,1.133c-.846-.183-1.22.072-1.511.856-1.316,3.54-2.233,4.324-1.916,5.617C2741.708,481.361,2740.521,483.088,2739.45,483.522Z" transform="translate(-2690.394 -447.169)" fill="#5e5fa2"/>
      </g>
      <g id="Grupo_55490" data-name="Grupo 55490" transform="translate(2003.622 711.552)">
        <path id="Trazado_101400" data-name="Trazado 101400" d="M2992.237,1450.115l3.892,3.711a103.432,103.432,0,0,1,22.141,30.681l.6,1.262s10.19.9,11.613-8.312h0a154,154,0,0,1-22.373-32.858l-1.842-4.308Z" transform="translate(-2992.159 -1440.107)" fill="#9ddfd3"/>
        <path id="Trazado_101401" data-name="Trazado 101401" d="M3006.054,1439.807c.5.717-2.233,3.488-6.1,6.188s-7.433,4.34-7.934,3.624,2.25-3.52,6.122-6.22S3005.554,1439.09,3006.054,1439.807Z" transform="translate(-2991.958 -1439.636)" fill="#f2f2f2"/>
        <path id="Trazado_101402" data-name="Trazado 101402" d="M3014.164,1440.3l-.012-.014s-7.757,6.565-10.955,7.236l.988,1.344a41.022,41.022,0,0,0,3.858-2.4C3011.871,1443.8,3014.585,1441.058,3014.164,1440.3Z" transform="translate(-3000.052 -1440.106)" fill="#f2f2f2"/>
        <g id="Grupo_55489" data-name="Grupo 55489" transform="translate(4.697 19.259)">
          <path id="Trazado_101403" data-name="Trazado 101403" d="M3057.417,1508.449c.014,1.132-.418,6.016-8.546,8.056q.8,1.092,1.576,2.2c5.145-1.521,7.458-4.162,8.5-6.173.164-.318.363-.745.5-1.075Q3058.411,1509.967,3057.417,1508.449Z" transform="translate(-3037.639 -1508.449)" fill="#cc3d60"/>
          <path id="Trazado_101404" data-name="Trazado 101404" d="M3020.7,1530.97l-11.961-.427,2.834,2.406-1.693,3.074,11.321-2.886Z" transform="translate(-3008.739 -1524.359)" fill="#cc3d60"/>
          <path id="Trazado_101405" data-name="Trazado 101405" d="M3044.437,1542.01l-4.25,7.4,2.989-1.138,1.151,2.351,2-7.786Z" transform="translate(-3031.385 -1532.617)" fill="#cc3d60"/>
          <path id="Trazado_101406" data-name="Trazado 101406" d="M3050.645,1528.992a3.93,3.93,0,1,1,3.526-4.188A3.872,3.872,0,0,1,3050.645,1528.992Z" transform="translate(-3035.971 -1517.592)" fill="#cc3d60"/>
        </g>
      </g>
      <g id="Grupo_55492" data-name="Grupo 55492" transform="translate(2022.291 534.13)">
        <path id="Trazado_101407" data-name="Trazado 101407" d="M3084.753,845.814l-25.189-22.477c-1.637-1.461-.955-4.466,1.3-5.745l20.1-11.383a3.142,3.142,0,0,1,3.67.172l25.189,22.477c1.636,1.461.955,4.466-1.3,5.745l-20.1,11.383A3.142,3.142,0,0,1,3084.753,845.814Z" transform="translate(-3058.661 -805.706)" fill="#9ddfd3"/>
        <g id="Grupo_55491" data-name="Grupo 55491" transform="translate(22.79 3.32)">
          <path id="Trazado_101408" data-name="Trazado 101408" d="M3142.2,836.477l-2.1-17.27a1.55,1.55,0,0,1,1.076-1.578,1,1,0,0,1,1.367.817l1.933,15.891,19.1,4.619a1.054,1.054,0,0,1,.641,1.5,1.48,1.48,0,0,1-1.617.954Z" transform="translate(-3140.089 -817.569)" fill="#fff"/>
        </g>
      </g>
      <path id="Trazado_101410" data-name="Trazado 101410" d="M1957.344,602.494l2.6,5.15,5.882-.19,2.51,5.98,6.2-2.135,3.137,6.638,5.954-1.261,4.062,5.893-2.23,1.537-3.037-4.406-6.283,1.331-3.015-6.38-6.307,2.17-2.77-6.6-5.744.186-2.413-4.774-3.747.911-.64-2.633Z" transform="translate(-239.084 -125.239)" fill="#9ddfd3"/>
      <path id="Trazado_101411" data-name="Trazado 101411" d="M3088.987,1056.346l5.347,2.173,4.31-4.008,5.821,2.86,3.274-5.685,6.725,2.944,3.661-4.863,6.934,1.775-.671,2.624-5.185-1.326-3.863,5.131-6.465-2.83-3.329,5.78-6.423-3.156-4.209,3.913-4.956-2.014-2.226,3.148-2.212-1.564Z" transform="translate(-1055.712 -447.331)" fill="#cc3d60"/>
    </g>
  </g>
</svg>
