<svg xmlns="http://www.w3.org/2000/svg" width="172" height="172" viewBox="0 0 172 172">
  <g id="Grupo_57270" data-name="Grupo 57270" transform="translate(-239 -492)">
    <rect id="Rectángulo_5306" data-name="Rectángulo 5306" width="172" height="172" transform="translate(239 492)" fill="#edfff6"/>
    <g id="cooperar" transform="translate(269.405 518.02)">
      <g id="Grupo_57175" data-name="Grupo 57175" transform="translate(0.904 12.919)">
        <path id="Trazado_101601" data-name="Trazado 101601" d="M77.84,48.4,53.086,23.648a6.026,6.026,0,0,0-4.29-1.777h-7.1a4.416,4.416,0,0,1-3.143-1.3,4.3,4.3,0,0,0-6.084,0L31.05,21.984,5.706,47.328a4.674,4.674,0,0,0,0,6.606,4.472,4.472,0,0,1,1.257,2.514L7.9,63.005a6.1,6.1,0,0,0,1.716,3.432l7.27,7.27L45.613,44.981a5.963,5.963,0,0,1,8.434,0h0L67.654,58.589A7.2,7.2,0,0,0,77.84,48.4Z" transform="translate(-4.339 -19.309)" fill="#9ddfd3"/>
        <path id="Trazado_101602" data-name="Trazado 101602" d="M5.706,57.5a4.674,4.674,0,0,0,0,6.606,4.472,4.472,0,0,1,1.257,2.514L7.9,73.179a6.1,6.1,0,0,0,1.716,3.432l7.27,7.27L45.613,55.155a5.963,5.963,0,0,1,8.434,0l-23-23Z" transform="translate(-4.339 -29.483)" fill="#9ddfd3"/>
      </g>
      <path id="Trazado_101603" data-name="Trazado 101603" d="M54.357,50.084,48.569,44.3a5.941,5.941,0,0,0-8.4,0L19.395,65.069a2.558,2.558,0,0,1-3.617,0h0a6.1,6.1,0,0,1-1.716-3.432l-.952-6.665a4.275,4.275,0,0,0-1.243-2.407,4.674,4.674,0,0,1,0-6.6l20.6-20.6h0L5.706,52.121a4.661,4.661,0,0,0-1.318,3.991,4.91,4.91,0,0,0,1.381,2.68,4.472,4.472,0,0,1,1.194,2.449L7.9,67.8a6.1,6.1,0,0,0,1.716,3.432l7.1,7.1,5.3-5.329,4.688,4.728Z" transform="translate(-3.436 -11.183)" fill="#dbf6e9"/>
      <path id="Trazado_101604" data-name="Trazado 101604" d="M138.322,56.623l-27.04-27.04a2.283,2.283,0,0,0-3.239.012l-1.278,1.3A12.041,12.041,0,0,1,99.9,34.355l-1.96.28a12.351,12.351,0,0,0-5.413,2.177l-1.737,1.242L45.879,83.223a7.18,7.18,0,0,0-2.053,6.009,7.083,7.083,0,0,0,1.448,3.493,7.224,7.224,0,0,0,8.167,2.361.612.612,0,0,1,.788.788,7.212,7.212,0,0,0,9.239,9.237.609.609,0,0,1,.793.771,7.279,7.279,0,0,0-.383,3.4,7.084,7.084,0,0,0,1.428,3.469,7.177,7.177,0,0,0,5.718,2.817c1.328,0,3.88-1.3,5.325-2.1a.41.41,0,0,1,.579.513,16.42,16.42,0,0,0-1.271,4.415,5.067,5.067,0,0,0,1.575,3.808,5.383,5.383,0,0,0,7.116.457l42.537-39.914,3.682-3.682a12.267,12.267,0,0,0,3.593-8.674V69.9a14.118,14.118,0,0,1,4.163-10.049,2.282,2.282,0,0,0,0-3.227Z" transform="translate(-34.657 -13.996)" fill="#e8c684"/>
      <path id="Trazado_101605" data-name="Trazado 101605" d="M91.184,297.868l-.295.276a5.383,5.383,0,0,1-7.116-.457,5.068,5.068,0,0,1-1.575-3.808,16.431,16.431,0,0,1,1.271-4.415.41.41,0,0,0-.579-.513c-1.445.8-4,2.1-5.325,2.1a7.176,7.176,0,0,1-5.718-2.818,7.085,7.085,0,0,1-1.428-3.469,7.275,7.275,0,0,1,.383-3.4.609.609,0,0,0-.793-.771,7.212,7.212,0,0,1-9.239-9.236.612.612,0,0,0-.788-.788,7.224,7.224,0,0,1-8.167-2.361,7.08,7.08,0,0,1-1.448-3.493,7.179,7.179,0,0,1,1.953-5.9.309.309,0,0,1-.026-.017l-6.41,6.448a7.18,7.18,0,0,0-2.053,6.009,7.083,7.083,0,0,0,1.448,3.493,7.224,7.224,0,0,0,8.167,2.361.612.612,0,0,1,.788.788,7.212,7.212,0,0,0,9.239,9.237.609.609,0,0,1,.793.771,7.279,7.279,0,0,0-.383,3.4,7.084,7.084,0,0,0,1.428,3.469,7.176,7.176,0,0,0,5.718,2.817c1.328,0,3.88-1.3,5.325-2.1a.41.41,0,0,1,.579.513,16.42,16.42,0,0,0-1.271,4.415,5.067,5.067,0,0,0,1.575,3.808,5.383,5.383,0,0,0,7.116.457l7.027-6.594Z" transform="translate(-34.659 -196.017)" fill="#e2ac76"/>
      <g id="Grupo_57176" data-name="Grupo 57176" transform="translate(42.894 59.361)">
        <path id="Trazado_101606" data-name="Trazado 101606" d="M221.215,407.545a6.313,6.313,0,0,1-4.495-1.859l-8.831-8.831a6.363,6.363,0,0,1,0-8.989l.237-.237a6.363,6.363,0,0,1,8.989,0l8.831,8.831a6.362,6.362,0,0,1,0,8.989l-.237.237A6.312,6.312,0,0,1,221.215,407.545Z" transform="translate(-206.03 -355.916)" fill="#9ddfd3"/>
        <path id="Trazado_101607" data-name="Trazado 101607" d="M267.2,360.474a6.314,6.314,0,0,1-4.495-1.859l-8.831-8.831a6.363,6.363,0,0,1,0-8.989l.237-.237a6.363,6.363,0,0,1,8.989,0l8.831,8.831a6.363,6.363,0,0,1,0,8.989l-.238.237A6.313,6.313,0,0,1,267.2,360.474Z" transform="translate(-242.44 -318.645)" fill="#9ddfd3"/>
        <path id="Trazado_101608" data-name="Trazado 101608" d="M320.783,311.228a6.314,6.314,0,0,1-4.495-1.859l-8.831-8.831a6.356,6.356,0,0,1,0-8.99l.236-.237a6.362,6.362,0,0,1,8.99,0l8.831,8.831a6.363,6.363,0,0,1,0,8.989l-.237.237A6.315,6.315,0,0,1,320.783,311.228Z" transform="translate(-284.866 -279.652)" fill="#9ddfd3"/>
        <path id="Trazado_101609" data-name="Trazado 101609" d="M368.951,264.156a6.314,6.314,0,0,1-4.495-1.859l-8.831-8.831a6.363,6.363,0,0,1,0-8.989l.237-.237a6.363,6.363,0,0,1,8.989,0l8.831,8.831a6.362,6.362,0,0,1,0,8.989l-.237.237A6.313,6.313,0,0,1,368.951,264.156Z" transform="translate(-323.008 -242.38)" fill="#9ddfd3"/>
      </g>
      <g id="Grupo_57177" data-name="Grupo 57177" transform="translate(42.894 59.718)">
        <path id="Trazado_101610" data-name="Trazado 101610" d="M225.339,404.78a6.313,6.313,0,0,1-4.495-1.859l-8.831-8.831a6.378,6.378,0,0,1-1.5-6.6,6.325,6.325,0,0,0-2.384,1.5l-.237.237a6.363,6.363,0,0,0,0,8.989l8.831,8.831a6.362,6.362,0,0,0,8.99,0l.237-.237a6.321,6.321,0,0,0,1.5-2.384A6.377,6.377,0,0,1,225.339,404.78Z" transform="translate(-206.03 -357.632)" fill="#edfff6"/>
        <path id="Trazado_101611" data-name="Trazado 101611" d="M271.325,357.708a6.314,6.314,0,0,1-4.495-1.859L258,347.018a6.378,6.378,0,0,1-1.5-6.6,6.324,6.324,0,0,0-2.384,1.5l-.237.237a6.363,6.363,0,0,0,0,8.989l8.831,8.831a6.363,6.363,0,0,0,8.989,0l.238-.237a6.322,6.322,0,0,0,1.5-2.384A6.379,6.379,0,0,1,271.325,357.708Z" transform="translate(-242.442 -320.36)" fill="#edfff6"/>
        <path id="Trazado_101612" data-name="Trazado 101612" d="M324.905,308.464a6.314,6.314,0,0,1-4.495-1.859l-8.831-8.831a6.369,6.369,0,0,1-1.5-6.6,6.321,6.321,0,0,0-2.383,1.5l-.236.237a6.356,6.356,0,0,0,0,8.99l8.831,8.831a6.363,6.363,0,0,0,8.989,0l.237-.237a6.32,6.32,0,0,0,1.5-2.384A6.38,6.38,0,0,1,324.905,308.464Z" transform="translate(-284.865 -281.368)" fill="#edfff6"/>
        <path id="Trazado_101613" data-name="Trazado 101613" d="M373.075,261.391a6.314,6.314,0,0,1-4.495-1.859l-8.831-8.831a6.378,6.378,0,0,1-1.5-6.6,6.324,6.324,0,0,0-2.384,1.5l-.237.237a6.363,6.363,0,0,0,0,8.989l8.831,8.831a6.363,6.363,0,0,0,8.99,0l.237-.237a6.323,6.323,0,0,0,1.5-2.384A6.377,6.377,0,0,1,373.075,261.391Z" transform="translate(-323.008 -244.095)" fill="#edfff6"/>
      </g>
      <path id="Trazado_101614" data-name="Trazado 101614" d="M169.24,58.59A7.2,7.2,0,0,0,179.426,48.4L154.671,23.649a6.026,6.026,0,0,0-4.29-1.777h-7.1a4.416,4.416,0,0,1-3.143-1.3,4.3,4.3,0,0,0-6.084,0l-1.415,1.415,23,23h0Z" transform="translate(-105.021 -6.391)" fill="#9ddfd3"/>
      <path id="Trazado_101615" data-name="Trazado 101615" d="M216.087,136.722h0L229.7,150.33a7.2,7.2,0,0,0,11.8-7.724,7.206,7.206,0,0,1-11.8,2.462L216.088,131.46h0l-1.847-1.847a3.71,3.71,0,0,0-5.254.008h0Z" transform="translate(-165.476 -92.869)" fill="#e2ac76"/>
      <path id="Trazado_101616" data-name="Trazado 101616" d="M105.464,41.41,78.425,14.371a3.867,3.867,0,0,0-5.487.019l-1.278,1.3a10.514,10.514,0,0,1-5.966,3.008l-1.959.28a13.948,13.948,0,0,0-6.56,2.793l-5.726-5.726a7.6,7.6,0,0,0-5.41-2.241h-7.1a2.842,2.842,0,0,1-2.023-.838,5.886,5.886,0,0,0-8.324,0L1.829,39.722a6.262,6.262,0,0,0,0,8.845,2.877,2.877,0,0,1,.809,1.618l.937,6.558a7.7,7.7,0,0,0,2.164,4.328l5.991,5.991-.949.949a8.787,8.787,0,0,0,6.213,15,8.9,8.9,0,0,0,1.346-.1A8.779,8.779,0,0,0,28.362,92.93a8.907,8.907,0,0,0-.1,1.346,8.787,8.787,0,0,0,8.787,8.787,8.9,8.9,0,0,0,1.346-.1,8.785,8.785,0,0,0,14.4,8.008,8.628,8.628,0,0,0,11.833-.335h0l.237-.237a8.611,8.611,0,0,0,2.427-7.362,8.682,8.682,0,0,0,1.268.094,8.592,8.592,0,0,0,6.094-2.52l.238-.238a8.612,8.612,0,0,0,2.427-7.363,8.681,8.681,0,0,0,1.268.094,8.592,8.592,0,0,0,6.094-2.52l.237-.237a8.612,8.612,0,0,0,2.427-7.362,8.68,8.68,0,0,0,1.268.094,8.591,8.591,0,0,0,6.094-2.521h0l.237-.237A8.629,8.629,0,0,0,95.3,68.505l2.414-2.414a13.76,13.76,0,0,0,4.057-9.794v-.491a12.544,12.544,0,0,1,3.7-8.928A3.871,3.871,0,0,0,105.464,41.41ZM47.073,109.7a5.392,5.392,0,0,1-4.218-8.753,8.654,8.654,0,0,0,.751.86l6.765,6.765A5.352,5.352,0,0,1,47.073,109.7Zm15.39-1.7-.237.237a5.231,5.231,0,0,1-7.389,0L46.006,99.4a5.231,5.231,0,0,1,0-7.389l.237-.237a5.231,5.231,0,0,1,7.389,0l8.831,8.831A5.231,5.231,0,0,1,62.463,108ZM72.49,97.97l-.237.237h0a5.231,5.231,0,0,1-7.389,0l-8.831-8.831a5.231,5.231,0,0,1,0-7.389l.237-.237a5.231,5.231,0,0,1,7.389,0l8.831,8.831A5.231,5.231,0,0,1,72.49,97.97ZM82.516,87.944l-.237.237a5.231,5.231,0,0,1-7.389,0L66.059,79.35a5.225,5.225,0,0,1,0-7.389l.237-.237a5.231,5.231,0,0,1,7.389,0l8.831,8.831A5.231,5.231,0,0,1,82.516,87.944ZM92.542,77.918l-.237.237a5.231,5.231,0,0,1-7.389,0l-8.831-8.831a5.231,5.231,0,0,1,0-7.389l.237-.237a5.231,5.231,0,0,1,7.389,0l8.831,8.831A5.231,5.231,0,0,1,92.542,77.918Zm10.535-33.453a16.332,16.332,0,0,0-4.7,11.046V56.3a10.457,10.457,0,0,1-3.063,7.394l-2.4,2.4-6.8-6.8a8.619,8.619,0,0,0-12.189,0l-.237.237A8.611,8.611,0,0,0,71.258,66.9,8.612,8.612,0,0,0,63.9,69.324l-.133.133a8.634,8.634,0,0,0-2.536,7.465,8.611,8.611,0,0,0-7.357,2.428l-.237.237a8.612,8.612,0,0,0-2.427,7.363,8.612,8.612,0,0,0-7.363,2.427l-.237.237a8.623,8.623,0,0,0-2.275,8.145,1.692,1.692,0,0,0-.471.331,5.4,5.4,0,0,1-8.265-.765,5.214,5.214,0,0,1-.859-2.094,5.387,5.387,0,0,1,1.5-4.768l9.31-9.31a1.7,1.7,0,0,0-.037-2.436,1.744,1.744,0,0,0-2.413.087l-9.26,9.26a5.4,5.4,0,0,1-7.706-.082,5.483,5.483,0,0,1,0-7.456l.081-.09,9.309-9.309a1.7,1.7,0,1,0-2.4-2.4l-9.312,9.312A5.39,5.39,0,0,1,16,79.528a5.182,5.182,0,0,1-2.056-.853,5.4,5.4,0,0,1-.761-8.264L28.758,54.833a1.681,1.681,0,0,0,0-2.372l-.024-.024a1.68,1.68,0,0,0-2.381,0l-12.23,12.23L8.138,58.672a4.285,4.285,0,0,1-1.2-2.408L6,49.706a6.543,6.543,0,0,0-1.812-3.582,2.864,2.864,0,0,1,.043-4l26.7-26.7a2.6,2.6,0,0,1,1.7-.784,2.478,2.478,0,0,1,1.863.709,6.171,6.171,0,0,0,4.3,1.85h7.246a4.254,4.254,0,0,1,3.009,1.247L73.717,43.109a5.494,5.494,0,0,1,.021,7.778,5.4,5.4,0,0,1-7.561-.065L49.361,34.005a3.235,3.235,0,0,0-4.575,0L31.977,46.813a1.68,1.68,0,0,0,0,2.376l.024.024a1.68,1.68,0,0,0,2.376,0l12.7-12.7L63.654,53.1a8.951,8.951,0,0,0,12.589.083,8.731,8.731,0,0,0,2.532-6.349,9,9,0,0,0-2.689-6.155L59.6,24.191a10.526,10.526,0,0,1,4.616-1.857l1.959-.28a13.853,13.853,0,0,0,7.9-3.985l1.278-1.3a.464.464,0,0,1,.335-.141.457.457,0,0,1,.336.138l27.04,27.04a.473.473,0,0,1,.013.655Z" transform="translate(0 0)"/>
    </g>
  </g>
</svg>
