<svg xmlns="http://www.w3.org/2000/svg" width="500" height="284" viewBox="0 0 500 284">
  <g id="Grupo_55041" data-name="Grupo 55041" transform="translate(-596 -5154.346)">
    <rect id="Rectángulo_5074" data-name="Rectángulo 5074" width="500" height="284" rx="11" transform="translate(596 5154.346)" fill="#9ddfd3"/>
    <g id="Grupo_55040" data-name="Grupo 55040" transform="translate(700 5176.8)">
      <g id="Grupo_54913" data-name="Grupo 54913" transform="translate(8.34 0)">
        <g id="Grupo_54811" data-name="Grupo 54811" transform="translate(110.562 167.722)">
          <path id="Trazado_100191" data-name="Trazado 100191" d="M242.418,361.265a13.286,13.286,0,0,0-.339,8.485,8.415,8.415,0,0,0,5.991,5.678,6.209,6.209,0,0,0,7-3.7c-.1,1.611,1.286,2.574,2.888,2.77a3.324,3.324,0,0,0,3.541-2.6c1.183,5.163,6.2,8.777,11.254,10.362a15.561,15.561,0,0,0,14.826-3.273c4.422-4.024,6.081-10.2,7.272-16.055a6.2,6.2,0,0,0,7.311,1.655,6.389,6.389,0,0,0,3.342-6.853c2.656-1.558,4.193-5.747,3.735-8.793a14.426,14.426,0,0,0-4.492-7.888c-6.467-6.342-16.106-8.671-25.128-7.872s-17.561,4.4-25.6,8.566" transform="translate(-241.532 -333.034)" fill="#fff"/>
        </g>
        <g id="Grupo_54812" data-name="Grupo 54812" transform="translate(0 145.225)">
          <path id="Trazado_100192" data-name="Trazado 100192" d="M112.168,296.44a23.859,23.859,0,0,0-13.718-2.48,17.306,17.306,0,0,0-11.835,7A13.628,13.628,0,0,0,85.366,314.4c-1.766-.73-3.961.269-5.484,1.424a5.617,5.617,0,0,0-2.139,5.042c-.5-4.521-5.992-8.958-10.446-9.883a14.463,14.463,0,0,0-12.54,3.885,20.729,20.729,0,0,0-5.929,12.013c-.74,4.854-.025,10.082,2.8,14.1s7.987,6.529,12.776,5.448c-2.009,3.09-3.482,7.752-1.658,10.956a10.107,10.107,0,0,0,17.945-.732c2.123,3.912,6.1,6.166,10.484,6.922a15.023,15.023,0,0,0,12.4-3.574c4.528,10.784,17.576,16.932,28.951,14.213s19.9-14.36,19.063-26.026" transform="translate(-48.557 -293.767)" fill="#fff"/>
        </g>
        <g id="Grupo_54822" data-name="Grupo 54822" transform="translate(52.302 152.849)">
          <g id="Grupo_54813" data-name="Grupo 54813" transform="translate(1.712 7.573)">
            <path id="Trazado_100193" data-name="Trazado 100193" d="M146.477,337.689c-3.964-5.135-4.233-9.768-2.978-12.536q5.541-12.221,78.851,6.287c11.558,3.147,23.151,4.5,34.709,7.649l-74.336,28.136Z" transform="translate(-142.833 -320.292)" fill="#3689bb"/>
          </g>
          <g id="Grupo_54814" data-name="Grupo 54814" transform="translate(7.458 9.576)">
            <path id="Trazado_100194" data-name="Trazado 100194" d="M154.476,323.788a11.162,11.162,0,0,0,2.783,14.612c7.862,6.581,29.29,23.473,29.29,23.473l66.813-23.659s-2.817-4.551-.155-8.243Z" transform="translate(-152.862 -323.788)" fill="#fff"/>
          </g>
          <g id="Grupo_54815" data-name="Grupo 54815" transform="translate(7.482 9.576)">
            <path id="Trazado_100195" data-name="Trazado 100195" d="M253.225,329.971l-98.731-6.183a12.256,12.256,0,0,0-1.59,5.278l32.916,28.017L252.089,333.3A6.04,6.04,0,0,1,253.225,329.971Z" transform="translate(-152.903 -323.788)" fill="#e4ebed"/>
          </g>
          <g id="Grupo_54816" data-name="Grupo 54816" transform="translate(41.224 26.368)">
            <path id="Trazado_100196" data-name="Trazado 100196" d="M286.511,353.1l.029,1.526L211.8,383.454l.05-2.214Z" transform="translate(-211.796 -353.098)" fill="#26769e"/>
          </g>
          <g id="Grupo_54817" data-name="Grupo 54817" transform="translate(6.441 24.289)">
            <path id="Trazado_100197" data-name="Trazado 100197" d="M185.869,381.9l.378-2.221-35.161-30.215.054,2.871Z" transform="translate(-151.087 -349.469)" fill="#54aad6"/>
          </g>
          <g id="Grupo_54818" data-name="Grupo 54818" transform="translate(6.089)">
            <path id="Trazado_100198" data-name="Trazado 100198" d="M150.472,312.644l74.788-5.569,34.808,12.9-74.436,22.881Z" transform="translate(-150.472 -307.074)" fill="#3689bb"/>
          </g>
          <g id="Grupo_54819" data-name="Grupo 54819" transform="translate(40.922 12.903)">
            <path id="Trazado_100199" data-name="Trazado 100199" d="M286.033,329.6l.029,1.526-74.716,25.425-.077-4.065Z" transform="translate(-211.269 -329.596)" fill="#26769e"/>
          </g>
          <g id="Grupo_54820" data-name="Grupo 54820" transform="translate(6.089 5.569)">
            <path id="Trazado_100200" data-name="Trazado 100200" d="M185.381,351.081l.252-4.071L150.472,316.8l.054,2.871Z" transform="translate(-150.472 -316.795)" fill="#54aad6"/>
          </g>
          <g id="Grupo_54821" data-name="Grupo 54821" transform="translate(0 5.569)">
            <path id="Trazado_100201" data-name="Trazado 100201" d="M146.286,335.515c-3.415-3.289-3.754-7.533-3.584-10.63s3.47-5.053,6.644-2.193l.732-2.336-4.144-3.561s-4.636.015-5.868,7.093,2.943,11.494,6.274,14.5S146.286,335.515,146.286,335.515Z" transform="translate(-139.844 -316.795)" fill="#54aad6"/>
          </g>
        </g>
        <g id="Grupo_54832" data-name="Grupo 54832" transform="translate(56.073 128.879)">
          <g id="Grupo_54823" data-name="Grupo 54823" transform="translate(1.7 6.367)">
            <path id="Trazado_100202" data-name="Trazado 100202" d="M152.867,293.527c-3.867-5.209-4.049-9.846-2.741-12.591q5.769-12.113,78.719,7.77c11.5,3.364,22.994,8.576,34.49,11.94L188.55,323.738Z" transform="translate(-149.395 -276.351)" fill="#3689bb"/>
          </g>
          <g id="Grupo_54824" data-name="Grupo 54824" transform="translate(7.45 8.223)">
            <path id="Trazado_100203" data-name="Trazado 100203" d="M161.158,279.589a11.162,11.162,0,0,0,2.507,14.661c7.736,6.727,28.843,24.02,28.843,24.02l67.179-18.757s-2.731-4.6,0-8.244Z" transform="translate(-159.43 -279.589)" fill="#fff"/>
          </g>
          <g id="Grupo_54825" data-name="Grupo 54825" transform="translate(7.488 8.223)">
            <path id="Trazado_100204" data-name="Trazado 100204" d="M259.715,291.269l-98.528-11.68a12.259,12.259,0,0,0-1.69,5.247l32.383,28.632,66.638-18.891A6.042,6.042,0,0,1,259.715,291.269Z" transform="translate(-159.496 -279.589)" fill="#e4ebed"/>
          </g>
          <g id="Grupo_54826" data-name="Grupo 54826" transform="translate(40.436 30.664)">
            <path id="Trazado_100205" data-name="Trazado 100205" d="M292.209,318.758v1.527L217,344.062l.092-2.213Z" transform="translate(-217.004 -318.758)" fill="#26769e"/>
          </g>
          <g id="Grupo_54827" data-name="Grupo 54827" transform="translate(6.27 22.884)">
            <path id="Trazado_100206" data-name="Trazado 100206" d="M191.537,338.263l.42-2.213-34.586-30.871v2.871Z" transform="translate(-157.371 -305.179)" fill="#54aad6"/>
          </g>
          <g id="Grupo_54828" data-name="Grupo 54828" transform="translate(6.27)">
            <path id="Trazado_100207" data-name="Trazado 100207" d="M157.371,269.4l74.88-4.161,34.49,17.2-74.784,17.836Z" transform="translate(-157.371 -265.237)" fill="#3689bb"/>
          </g>
          <g id="Grupo_54829" data-name="Grupo 54829" transform="translate(40.528 17.196)">
            <path id="Trazado_100208" data-name="Trazado 100208" d="M292.277,295.252v1.527l-75.113,20.374v-4.065Z" transform="translate(-217.164 -295.252)" fill="#26769e"/>
          </g>
          <g id="Grupo_54830" data-name="Grupo 54830" transform="translate(6.27 4.161)">
            <path id="Trazado_100209" data-name="Trazado 100209" d="M191.629,307.436l.328-4.065L157.371,272.5v2.871Z" transform="translate(-157.371 -272.5)" fill="#54aad6"/>
          </g>
          <g id="Grupo_54831" data-name="Grupo 54831" transform="translate(0 4.161)">
            <path id="Trazado_100210" data-name="Trazado 100210" d="M152.7,291.223c-3.353-3.353-3.611-7.6-3.384-10.7s3.565-4.987,6.684-2.067l.776-2.322L152.7,272.5s-4.635-.072-6,6.982,2.726,11.547,6,14.612S152.7,291.223,152.7,291.223Z" transform="translate(-146.427 -272.5)" fill="#54aad6"/>
          </g>
        </g>
        <g id="Grupo_54854" data-name="Grupo 54854" transform="translate(18.166 38.868)">
          <g id="Grupo_54838" data-name="Grupo 54838" transform="translate(174.154 37.877)">
            <g id="Grupo_54837" data-name="Grupo 54837">
              <g id="Grupo_54833" data-name="Grupo 54833" transform="translate(8.27 1.593)">
                <path id="Trazado_100211" data-name="Trazado 100211" d="M403.168,177.021l-1.69,3.528-2.81-2.721,5.878,24.874,1.435,2.968.5-3.7Z" transform="translate(-398.668 -177.021)" fill="#e4ebed"/>
              </g>
              <g id="Grupo_54834" data-name="Grupo 54834" transform="translate(8.27 2.399)">
                <path id="Trazado_100212" data-name="Trazado 100212" d="M404.546,203.3l1.435,2.968-4.5-25.121-2.81-2.721Z" transform="translate(-398.668 -178.429)" fill="#d1dde0"/>
              </g>
              <g id="Grupo_54835" data-name="Grupo 54835" transform="translate(12.769)">
                <path id="Trazado_100213" data-name="Trazado 100213" d="M409.335,204.482l-2.814-28.648,8.885-1.593Z" transform="translate(-406.521 -174.241)" fill="#fff"/>
              </g>
              <g id="Grupo_54836" data-name="Grupo 54836" transform="translate(0 2.399)">
                <path id="Trazado_100214" data-name="Trazado 100214" d="M399.817,206.271,392.5,178.429l-8.27,1.624Z" transform="translate(-384.234 -178.429)" fill="#fff"/>
              </g>
            </g>
          </g>
          <g id="Grupo_54844" data-name="Grupo 54844" transform="translate(8.738 5.582)">
            <g id="Grupo_54843" data-name="Grupo 54843">
              <g id="Grupo_54839" data-name="Grupo 54839" transform="translate(4.062)">
                <path id="Trazado_100215" data-name="Trazado 100215" d="M102.6,129.819l2.373-.46-.316,2.4,10.183-12.077.945-1.805-2.02,1.116Z" transform="translate(-102.605 -117.874)" fill="#e4ebed"/>
              </g>
              <g id="Grupo_54840" data-name="Grupo 54840" transform="translate(6.119)">
                <path id="Trazado_100216" data-name="Trazado 100216" d="M116.378,119.679l.945-1.805-10.811,11.485-.316,2.4Z" transform="translate(-106.195 -117.874)" fill="#d1dde0"/>
              </g>
              <g id="Grupo_54841" data-name="Grupo 54841">
                <path id="Trazado_100217" data-name="Trazado 100217" d="M112.762,117.874,99.577,129.819,95.515,126Z" transform="translate(-95.515 -117.874)" fill="#fff"/>
              </g>
              <g id="Grupo_54842" data-name="Grupo 54842" transform="translate(6.119)">
                <path id="Trazado_100218" data-name="Trazado 100218" d="M117.323,117.874,106.2,131.756l3.851,3.507Z" transform="translate(-106.195 -117.874)" fill="#fff"/>
              </g>
            </g>
          </g>
          <g id="Grupo_54851" data-name="Grupo 54851" transform="translate(0 22.675)">
            <g id="Grupo_54846" data-name="Grupo 54846" transform="translate(1.293 34.786)">
              <g id="Grupo_54845" data-name="Grupo 54845">
                <path id="Trazado_100219" data-name="Trazado 100219" d="M83.277,210.283a.539.539,0,0,1-.517-.389c-.076-.264-.15-.527-.221-.791a.539.539,0,1,1,1.042-.278q.1.386.214.768a.539.539,0,0,1-.367.668A.551.551,0,0,1,83.277,210.283Z" transform="translate(-82.521 -208.425)" fill="#fff"/>
              </g>
            </g>
            <g id="Grupo_54848" data-name="Grupo 54848" transform="translate(0 1.915)">
              <g id="Grupo_54847" data-name="Grupo 54847">
                <path id="Trazado_100220" data-name="Trazado 100220" d="M81.724,183.482a.539.539,0,0,1-.526-.422q-.173-.773-.313-1.554a.539.539,0,0,1,1.061-.191q.137.759.3,1.511a.539.539,0,0,1-.409.643A.551.551,0,0,1,81.724,183.482Zm-.555-3.076a.54.54,0,0,1-.533-.465q-.108-.785-.186-1.573a.539.539,0,1,1,1.073-.106q.076.767.182,1.531a.54.54,0,0,1-.46.608A.545.545,0,0,1,81.169,180.406Zm-.306-3.111a.539.539,0,0,1-.537-.508q-.046-.791-.062-1.583a.54.54,0,0,1,.529-.549.552.552,0,0,1,.549.529q.015.771.06,1.541a.538.538,0,0,1-.506.569Zm-.06-3.125h-.01a.539.539,0,0,1-.529-.549q.015-.792.061-1.583a.539.539,0,0,1,1.077.062q-.045.77-.06,1.541A.539.539,0,0,1,80.8,174.17Zm.181-3.121-.052,0a.54.54,0,0,1-.485-.589q.076-.787.182-1.573a.539.539,0,1,1,1.069.144q-.1.765-.178,1.533A.539.539,0,0,1,80.984,171.049Zm.418-3.1a.517.517,0,0,1-.093-.008.539.539,0,0,1-.439-.623q.136-.78.3-1.555a.539.539,0,0,1,1.054.225q-.162.755-.293,1.515A.539.539,0,0,1,81.4,167.952Zm.652-3.057a.555.555,0,0,1-.132-.017.538.538,0,0,1-.39-.655q.194-.767.418-1.527a.539.539,0,1,1,1.034.3q-.217.74-.407,1.488A.538.538,0,0,1,82.054,164.9Zm.883-3a.528.528,0,0,1-.172-.029.538.538,0,0,1-.339-.682q.253-.751.534-1.492a.539.539,0,0,1,1.007.383q-.273.721-.52,1.452A.539.539,0,0,1,82.937,161.9Zm1.11-2.922a.541.541,0,0,1-.5-.75q.309-.73.648-1.446a.539.539,0,1,1,.975.46q-.328.7-.63,1.407A.539.539,0,0,1,84.047,158.975Zm1.334-2.827a.532.532,0,0,1-.249-.061.539.539,0,0,1-.229-.727q.366-.7.76-1.391a.539.539,0,1,1,.935.536q-.383.669-.74,1.352A.54.54,0,0,1,85.381,156.148Zm1.554-2.712a.539.539,0,0,1-.456-.826q.422-.671.871-1.325a.539.539,0,1,1,.888.611q-.437.636-.846,1.288A.539.539,0,0,1,86.935,153.436Z" transform="translate(-80.264 -151.051)" fill="#fff"/>
              </g>
            </g>
            <g id="Grupo_54850" data-name="Grupo 54850" transform="translate(7.904)">
              <g id="Grupo_54849" data-name="Grupo 54849">
                <path id="Trazado_100221" data-name="Trazado 100221" d="M94.6,149.429a.54.54,0,0,1-.431-.863c.164-.218.331-.436.5-.651a.539.539,0,1,1,.848.665q-.247.314-.486.633A.538.538,0,0,1,94.6,149.429Z" transform="translate(-94.06 -147.709)" fill="#fff"/>
              </g>
            </g>
          </g>
          <g id="Grupo_54853" data-name="Grupo 54853" transform="translate(128.068)">
            <g id="Grupo_54852" data-name="Grupo 54852">
              <path id="Trazado_100222" data-name="Trazado 100222" d="M359.3,141.334a.54.54,0,0,1-.529-.441l-.031-.169a.539.539,0,0,1,1.06-.2l.031.17a.539.539,0,0,1-.431.629A.532.532,0,0,1,359.3,141.334Zm-.368-1.75a.54.54,0,0,1-.524-.416q-.182-.776-.4-1.543a.539.539,0,0,1,1.038-.292q.222.79.41,1.588a.539.539,0,0,1-.525.662Zm-.873-3.112a.54.54,0,0,1-.513-.372q-.246-.757-.526-1.5a.539.539,0,1,1,1.01-.378q.287.768.542,1.548a.539.539,0,0,1-.346.679A.526.526,0,0,1,358.055,136.472Zm-1.132-3.029a.539.539,0,0,1-.5-.33q-.308-.735-.649-1.456a.539.539,0,0,1,.976-.459q.349.743.667,1.5a.538.538,0,0,1-.5.748Zm-1.376-2.925a.54.54,0,0,1-.479-.29q-.367-.708-.764-1.4a.539.539,0,0,1,.936-.536q.407.711.785,1.438a.539.539,0,0,1-.23.727A.534.534,0,0,1,355.547,130.519Zm-1.607-2.806a.538.538,0,0,1-.457-.252q-.425-.676-.875-1.335a.539.539,0,0,1,.889-.608q.463.675.9,1.37a.539.539,0,0,1-.456.826Zm-1.825-2.669a.538.538,0,0,1-.433-.217q-.476-.639-.977-1.26a.539.539,0,0,1,.839-.677q.514.637,1,1.295a.538.538,0,0,1-.432.86Zm-2.032-2.515a.538.538,0,0,1-.406-.184q-.525-.6-1.074-1.179a.539.539,0,0,1,.782-.743q.564.595,1.1,1.211a.539.539,0,0,1-.406.894Zm-2.225-2.345a.54.54,0,0,1-.376-.152q-.571-.556-1.166-1.089a.539.539,0,0,1,.72-.8q.609.547,1.2,1.118a.539.539,0,0,1-.376.925Zm-2.407-2.158a.539.539,0,0,1-.343-.123q-.615-.509-1.251-.989a.539.539,0,0,1,.652-.859q.652.5,1.285,1.018a.539.539,0,0,1-.344.955Zm-2.576-1.953a.537.537,0,0,1-.307-.1q-.655-.455-1.328-.882a.539.539,0,0,1,.577-.91q.692.438,1.366.907a.539.539,0,0,1-.308.981Zm-2.731-1.73a.534.534,0,0,1-.268-.072q-.655-.376-1.324-.726l-.076-.04a.539.539,0,1,1,.5-.956l.076.04q.689.36,1.362.747a.539.539,0,0,1-.269,1.007Zm-2.87-1.489a.541.541,0,0,1-.227-.05q-.723-.337-1.459-.641a.539.539,0,1,1,.413-1q.757.313,1.5.659a.539.539,0,0,1-.228,1.027Zm-32.939-.2a.539.539,0,0,1-.223-1.03q.748-.339,1.508-.645a.539.539,0,0,1,.4,1q-.738.3-1.464.626A.53.53,0,0,1,304.335,112.655Zm29.952-1.038a.547.547,0,0,1-.184-.033q-.749-.273-1.509-.516a.539.539,0,1,1,.327-1.027q.781.248,1.552.53a.539.539,0,0,1-.185,1.046Zm-26.954-.169a.539.539,0,0,1-.18-1.047q.774-.273,1.557-.513a.539.539,0,0,1,.316,1.031q-.761.234-1.514.5A.535.535,0,0,1,307.333,111.448Zm23.875-.813a.532.532,0,0,1-.143-.019q-.77-.211-1.547-.39a.539.539,0,0,1,.242-1.051q.8.184,1.589.4a.539.539,0,0,1-.142,1.059Zm-20.784-.134a.539.539,0,0,1-.136-1.06q.793-.208,1.594-.382a.539.539,0,1,1,.229,1.053q-.779.169-1.55.371A.538.538,0,0,1,310.424,110.5Zm17.634-.592a.5.5,0,0,1-.1-.01q-.785-.147-1.573-.264a.539.539,0,0,1-.455-.612.533.533,0,0,1,.611-.454q.811.119,1.616.27a.539.539,0,0,1-.1,1.069Zm-14.475-.1a.539.539,0,0,1-.093-1.07q.807-.142,1.619-.25a.539.539,0,1,1,.143,1.069q-.791.1-1.576.243A.576.576,0,0,1,313.583,109.813Zm11.275-.375-.058,0q-.792-.084-1.589-.138a.539.539,0,1,1,.072-1.075q.817.054,1.632.141a.539.539,0,0,1-.057,1.075Zm-8.071-.054a.539.539,0,0,1-.05-1.075q.815-.076,1.634-.12a.539.539,0,1,1,.057,1.077q-.8.043-1.59.116Zm4.846-.16h-.015q-.8-.021-1.594-.011h-.007a.539.539,0,0,1-.007-1.078c.547-.007,1.092,0,1.639.011a.539.539,0,0,1-.014,1.077Z" transform="translate(-303.795 -108.131)" fill="#fff"/>
            </g>
          </g>
        </g>
        <g id="Grupo_54891" data-name="Grupo 54891" transform="translate(4.957 61.853)">
          <g id="Grupo_54863" data-name="Grupo 54863" transform="translate(161.042 57.117)">
            <g id="Grupo_54856" data-name="Grupo 54856" transform="translate(4.131)">
              <g id="Grupo_54855" data-name="Grupo 54855">
                <path id="Trazado_100223" data-name="Trazado 100223" d="M348.454,264.813c-1.656,0-2.953-3.706-2.953-8.436s1.3-8.436,2.953-8.436,2.953,3.706,2.953,8.436S350.11,264.813,348.454,264.813Zm0-16.468c-1.231,0-2.55,3.228-2.55,8.033s1.318,8.033,2.55,8.033,2.55-3.228,2.55-8.033S349.685,248.344,348.454,248.344Z" transform="translate(-345.501 -247.941)" fill="#fff"/>
              </g>
            </g>
            <g id="Grupo_54858" data-name="Grupo 54858" transform="translate(0 2.955)">
              <g id="Grupo_54857" data-name="Grupo 54857">
                <path id="Trazado_100224" data-name="Trazado 100224" d="M339.983,264.06a1.708,1.708,0,0,1-1.47-.574c-.963-1.347,1.3-4.557,5.144-7.309s7.617-3.852,8.579-2.505-1.3,4.558-5.144,7.309C344.357,262.938,341.659,264.06,339.983,264.06Zm10.783-10.565c-1.467,0-4.033.98-6.874,3.011-3.909,2.795-5.767,5.744-5.051,6.746s4.108.2,8.017-2.6h0c3.908-2.8,5.767-5.745,5.05-6.746A1.347,1.347,0,0,0,350.766,253.495Z" transform="translate(-338.292 -253.099)" fill="#fff"/>
              </g>
            </g>
            <g id="Grupo_54860" data-name="Grupo 54860" transform="translate(0 2.955)">
              <g id="Grupo_54859" data-name="Grupo 54859">
                <path id="Trazado_100225" data-name="Trazado 100225" d="M350.767,264.06c-1.676,0-4.373-1.121-7.11-3.079h0c-3.847-2.751-6.107-5.962-5.144-7.309s4.732-.246,8.58,2.505,6.107,5.962,5.144,7.309A1.712,1.712,0,0,1,350.767,264.06Zm-10.783-10.565a1.347,1.347,0,0,0-1.143.413c-.716,1,1.142,3.951,5.051,6.746h0c3.907,2.795,7.3,3.6,8.016,2.6s-1.142-3.952-5.05-6.746C344.018,254.475,341.451,253.495,339.984,253.495Z" transform="translate(-338.292 -253.099)" fill="#fff"/>
              </g>
            </g>
            <g id="Grupo_54862" data-name="Grupo 54862" transform="translate(5.821 7.173)">
              <g id="Grupo_54861" data-name="Grupo 54861">
                <circle id="Elipse_1224" data-name="Elipse 1224" cx="1.263" cy="1.263" r="1.263" fill="#641f22"/>
              </g>
            </g>
          </g>
          <g id="Grupo_54872" data-name="Grupo 54872" transform="translate(46.126)">
            <g id="Grupo_54865" data-name="Grupo 54865" transform="translate(0 3.713)">
              <g id="Grupo_54864" data-name="Grupo 54864">
                <path id="Trazado_100226" data-name="Trazado 100226" d="M137.839,155.578c.743-1.48,4.637-.976,8.863,1.147s6.956,4.946,6.213,6.425-4.637.975-8.863-1.148S137.1,157.057,137.839,155.578Zm14.716,7.391c.553-1.1-1.739-3.727-6.034-5.884s-7.77-2.427-8.322-1.326,1.739,3.727,6.033,5.883S152,164.07,152.555,162.969Z" transform="translate(-137.717 -154.73)" fill="#fff"/>
              </g>
            </g>
            <g id="Grupo_54867" data-name="Grupo 54867" transform="translate(4.455)">
              <g id="Grupo_54866" data-name="Grupo 54866">
                <path id="Trazado_100227" data-name="Trazado 100227" d="M146.22,149.318a1.708,1.708,0,0,1,1.173-1.056c1.636-.256,3.49,3.2,4.223,7.877s.023,8.535-1.612,8.791-3.49-3.2-4.222-7.877C145.26,153.729,145.468,150.815,146.22,149.318Zm4.6,14.377c.658-1.31.934-4.044.394-7.493-.743-4.747-2.545-7.732-3.761-7.542s-2.019,3.583-1.276,8.33h0c.743,4.747,2.545,7.732,3.761,7.541C150.273,164.48,150.575,164.188,150.822,163.7Z" transform="translate(-145.493 -148.249)" fill="#fff"/>
              </g>
            </g>
            <g id="Grupo_54869" data-name="Grupo 54869" transform="translate(0.063 3.61)">
              <g id="Grupo_54868" data-name="Grupo 54868">
                <path id="Trazado_100228" data-name="Trazado 100228" d="M138.106,161.645c.752-1.5,2.966-3.4,5.943-4.971h0c4.185-2.2,8.069-2.782,8.84-1.317s-1.9,4.339-6.09,6.542-8.069,2.781-8.84,1.316A1.712,1.712,0,0,1,138.106,161.645Zm14.281-4.893a1.348,1.348,0,0,0,.145-1.207c-.574-1.09-4.044-.753-8.3,1.485h0c-4.251,2.238-6.493,4.907-5.921,6s4.044.752,8.3-1.486C149.7,159.917,151.729,158.062,152.387,156.752Z" transform="translate(-137.827 -154.549)" fill="#fff"/>
              </g>
            </g>
            <g id="Grupo_54871" data-name="Grupo 54871" transform="translate(6.397 7.084)">
              <g id="Grupo_54870" data-name="Grupo 54870">
                <path id="Trazado_100229" data-name="Trazado 100229" d="M150.712,160.748a1.263,1.263,0,1,1-1.7.562A1.263,1.263,0,0,1,150.712,160.748Z" transform="translate(-148.882 -160.613)" fill="#641f22"/>
              </g>
            </g>
          </g>
          <g id="Grupo_54881" data-name="Grupo 54881" transform="translate(149.832 52.939)">
            <g id="Grupo_54874" data-name="Grupo 54874" transform="translate(2.175 0.139)">
              <g id="Grupo_54873" data-name="Grupo 54873">
                <path id="Trazado_100230" data-name="Trazado 100230" d="M322.992,250.087c-.894-.5-.478-2.889.947-5.442s3.241-4.162,4.135-3.663.477,2.889-.948,5.442S323.885,250.586,322.992,250.087Zm4.96-8.887c-.665-.371-2.348.974-3.8,3.567s-1.708,4.732-1.043,5.1,2.348-.974,3.8-3.567S328.616,241.571,327.952,241.2Z" transform="translate(-322.521 -240.892)" fill="#fff"/>
              </g>
            </g>
            <g id="Grupo_54876" data-name="Grupo 54876" transform="translate(0 2.874)">
              <g id="Grupo_54875" data-name="Grupo 54875">
                <path id="Trazado_100231" data-name="Trazado 100231" d="M319.35,248.907a1.055,1.055,0,0,1-.62-.752c-.114-1.017,2.072-2.069,4.978-2.4s5.271.215,5.385,1.232-2.073,2.069-4.978,2.395A8.908,8.908,0,0,1,319.35,248.907Zm9-2.454a8.645,8.645,0,0,0-4.616-.445c-2.951.331-4.843,1.363-4.758,2.119s2.158,1.344,5.109,1.012h0c2.951-.331,4.842-1.364,4.758-2.12C328.821,246.813,328.65,246.619,328.352,246.453Z" transform="translate(-318.726 -245.665)" fill="#fff"/>
              </g>
            </g>
            <g id="Grupo_54878" data-name="Grupo 54878" transform="translate(2.404)">
              <g id="Grupo_54877" data-name="Grupo 54877">
                <path id="Trazado_100232" data-name="Trazado 100232" d="M326.962,250.013a8.9,8.9,0,0,1-2.909-3.8h0c-1.248-2.644-1.5-5.057-.575-5.494s2.627,1.293,3.875,3.937,1.5,5.057.575,5.494A1.056,1.056,0,0,1,326.962,250.013Zm-2.637-8.95a.835.835,0,0,0-.741-.122c-.688.325-.573,2.477.694,5.163h0c1.267,2.685,2.855,4.141,3.544,3.817s.574-2.476-.694-5.162A8.652,8.652,0,0,0,324.325,241.063Z" transform="translate(-322.921 -240.648)" fill="#fff"/>
              </g>
            </g>
            <g id="Grupo_54880" data-name="Grupo 54880" transform="translate(4.405 4.002)">
              <g id="Grupo_54879" data-name="Grupo 54879">
                <path id="Trazado_100233" data-name="Trazado 100233" d="M326.513,248.034a.78.78,0,1,1,.3,1.062A.78.78,0,0,1,326.513,248.034Z" transform="translate(-326.414 -247.633)" fill="#641f22"/>
              </g>
            </g>
          </g>
          <g id="Grupo_54890" data-name="Grupo 54890" transform="translate(0 36.978)">
            <g id="Grupo_54883" data-name="Grupo 54883" transform="translate(2.175 0.139)">
              <g id="Grupo_54882" data-name="Grupo 54882">
                <path id="Trazado_100234" data-name="Trazado 100234" d="M61.475,222.23c-.894-.5-.478-2.889.947-5.442s3.241-4.162,4.135-3.663.477,2.889-.948,5.442S62.368,222.728,61.475,222.23Zm4.96-8.887c-.665-.371-2.348.973-3.8,3.567s-1.708,4.732-1.043,5.1,2.348-.974,3.8-3.567S67.1,213.713,66.435,213.342Z" transform="translate(-61.004 -213.034)" fill="#fff"/>
              </g>
            </g>
            <g id="Grupo_54885" data-name="Grupo 54885" transform="translate(0 2.874)">
              <g id="Grupo_54884" data-name="Grupo 54884">
                <path id="Trazado_100235" data-name="Trazado 100235" d="M57.833,221.049a1.057,1.057,0,0,1-.62-.752c-.114-1.017,2.072-2.069,4.978-2.4s5.271.215,5.385,1.232S65.5,221.2,62.6,221.529A8.908,8.908,0,0,1,57.833,221.049Zm9-2.454a8.645,8.645,0,0,0-4.616-.445c-2.951.331-4.842,1.363-4.758,2.119s2.158,1.344,5.109,1.012h0c2.951-.331,4.842-1.364,4.758-2.119C67.3,218.955,67.133,218.761,66.835,218.595Z" transform="translate(-57.209 -217.807)" fill="#fff"/>
              </g>
            </g>
            <g id="Grupo_54887" data-name="Grupo 54887" transform="translate(2.404)">
              <g id="Grupo_54886" data-name="Grupo 54886">
                <path id="Trazado_100236" data-name="Trazado 100236" d="M65.445,222.155a8.9,8.9,0,0,1-2.909-3.8h0c-1.248-2.643-1.5-5.057-.575-5.494s2.627,1.293,3.875,3.937,1.5,5.057.575,5.494A1.056,1.056,0,0,1,65.445,222.155Zm-2.637-8.95a.834.834,0,0,0-.741-.122c-.688.325-.574,2.477.694,5.163h0c1.267,2.685,2.856,4.141,3.544,3.817s.574-2.476-.694-5.162A8.651,8.651,0,0,0,62.808,213.205Z" transform="translate(-61.404 -212.79)" fill="#fff"/>
              </g>
            </g>
            <g id="Grupo_54889" data-name="Grupo 54889" transform="translate(4.405 4.002)">
              <g id="Grupo_54888" data-name="Grupo 54888">
                <path id="Trazado_100237" data-name="Trazado 100237" d="M65,220.176a.78.78,0,1,1,.3,1.062A.781.781,0,0,1,65,220.176Z" transform="translate(-64.897 -219.775)" fill="#641f22"/>
              </g>
            </g>
          </g>
        </g>
        <g id="Grupo_54892" data-name="Grupo 54892" transform="translate(185.853 106.202)">
          <path id="Trazado_100238" data-name="Trazado 100238" d="M375.122,245.466a4.379,4.379,0,1,1,4.773-7.32c.195-4.371,2.389-8.934,6.542-10.312s9.424,1.128,10.254,5.425c.144-1.145,1.586-3.184,2.736-3.269a2.6,2.6,0,0,1,2.614,1.838c.875-3.372,5.158-6.089,8.641-6.168a11.6,11.6,0,0,1,9.009,4.542,19.582,19.582,0,0,1,3.808,9.6c.451,3.179.061,7.032-2.717,8.64A6.93,6.93,0,0,1,424.161,254a5.278,5.278,0,0,1-3.485,5.458c-2.245.65-4.978-.988-5.143-3.32.24,1.841-2.092,3.546-3.937,3.336a5.233,5.233,0,0,1-3.983-3.492,15.409,15.409,0,0,1-.7-5.493,8.769,8.769,0,0,1-9.284,2.9,8.349,8.349,0,0,1-5.7-7.563c-.877,3.438-5.12,6.02-8.668,6.038A9.048,9.048,0,0,1,375.122,245.466Z" transform="translate(-372.945 -225.656)" fill="#fff"/>
        </g>
        <g id="Grupo_54893" data-name="Grupo 54893" transform="translate(35.964)">
          <path id="Trazado_100239" data-name="Trazado 100239" d="M137.927,74.792A13.159,13.159,0,0,0,151.9,80.163c5.153-1.354,9.467-6.22,9.818-11.536a4.778,4.778,0,0,0,5.146,3.2c2.176-.348,3.893-2.794,3.851-5a7.043,7.043,0,0,0,6.372,2.749c2.407-.289,5.124-1.169,5.823-3.49a9.323,9.323,0,0,0-4.246-10.5c-3.561-1.99-8.608-1.549-11.317,1.5a2.887,2.887,0,0,0-1.625-3.047,3.008,3.008,0,0,0-3.487.533,5.5,5.5,0,0,0-4.065-4.162c-2-.457-4.6.018-5.839,1.649-.26-4.915-3.958-9.312-8.6-10.954A16.685,16.685,0,0,0,129.581,43a13.553,13.553,0,0,0-5.52,6.13c-1.061,2.586-1.579,6.289.043,8.565a3.355,3.355,0,0,0-3.894.37c-1.034.94-1.1,3.116-.486,4.373a6.63,6.63,0,1,0,.234,12.688,8.9,8.9,0,0,0,8.531,7.328C132.561,82.437,137.365,78.825,137.927,74.792Z" transform="translate(-111.33 -40.291)" fill="#fff"/>
        </g>
        <g id="Grupo_54894" data-name="Grupo 54894" transform="translate(28.88 75.09)">
          <path id="Trazado_100240" data-name="Trazado 100240" d="M106.88,175.312a3.958,3.958,0,1,1-3.958-3.958A3.957,3.957,0,0,1,106.88,175.312Z" transform="translate(-98.964 -171.354)" fill="#fff"/>
        </g>
        <g id="Grupo_54895" data-name="Grupo 54895" transform="translate(147.889 50.646)">
          <circle id="Elipse_1225" data-name="Elipse 1225" cx="3.958" cy="3.958" r="3.958" fill="#fff"/>
        </g>
        <g id="Grupo_54896" data-name="Grupo 54896" transform="translate(2.958 145.945)">
          <circle id="Elipse_1226" data-name="Elipse 1226" cx="3.958" cy="3.958" r="3.958" fill="#fff"/>
        </g>
        <g id="Grupo_54897" data-name="Grupo 54897" transform="translate(210.017 57.297)">
          <circle id="Elipse_1227" data-name="Elipse 1227" cx="3.958" cy="3.958" r="3.958" fill="#fff"/>
        </g>
        <g id="Grupo_54898" data-name="Grupo 54898" transform="translate(182.472 176.953)">
          <circle id="Elipse_1228" data-name="Elipse 1228" cx="3.958" cy="3.958" r="3.958" fill="#fff"/>
        </g>
        <g id="Grupo_54899" data-name="Grupo 54899" transform="translate(62.461 49.187)">
          <circle id="Elipse_1229" data-name="Elipse 1229" cx="3.958" cy="3.958" r="3.958" fill="#fff"/>
        </g>
        <g id="Grupo_54900" data-name="Grupo 54900" transform="translate(6.377 75.159)">
          <path id="Trazado_100241" data-name="Trazado 100241" d="M62.672,177.444a2.985,2.985,0,1,1,2.985-2.985A2.988,2.988,0,0,1,62.672,177.444Zm0-4.892a1.907,1.907,0,1,0,1.907,1.907A1.91,1.91,0,0,0,62.672,172.552Z" transform="translate(-59.687 -171.474)" fill="#fff"/>
        </g>
        <g id="Grupo_54901" data-name="Grupo 54901" transform="translate(195.54 180.903)">
          <path id="Trazado_100242" data-name="Trazado 100242" d="M392.838,362.009a2.985,2.985,0,1,1,2.985-2.986A2.988,2.988,0,0,1,392.838,362.009Zm0-4.892a1.907,1.907,0,1,0,1.907,1.907A1.909,1.909,0,0,0,392.838,357.117Z" transform="translate(-389.853 -356.039)" fill="#fff"/>
        </g>
        <g id="Grupo_54902" data-name="Grupo 54902" transform="translate(160.279 45.755)">
          <path id="Trazado_100243" data-name="Trazado 100243" d="M331.294,126.122a2.985,2.985,0,1,1,2.984-2.985A2.988,2.988,0,0,1,331.294,126.122Zm0-4.892a1.907,1.907,0,1,0,1.907,1.907A1.91,1.91,0,0,0,331.294,121.23Z" transform="translate(-328.308 -120.152)" fill="#fff"/>
        </g>
        <g id="Grupo_54903" data-name="Grupo 54903" transform="translate(62.022 83.139)">
          <path id="Trazado_100244" data-name="Trazado 100244" d="M159.8,191.372a2.985,2.985,0,1,1,2.985-2.986A2.989,2.989,0,0,1,159.8,191.372Zm0-4.892a1.907,1.907,0,1,0,1.907,1.907A1.909,1.909,0,0,0,159.8,186.48Z" transform="translate(-156.811 -185.402)" fill="#fff"/>
        </g>
        <g id="Grupo_54904" data-name="Grupo 54904" transform="translate(63.434 120.985)">
          <path id="Trazado_100245" data-name="Trazado 100245" d="M162.26,257.428a2.985,2.985,0,1,1,2.985-2.985A2.988,2.988,0,0,1,162.26,257.428Zm0-4.892a1.907,1.907,0,1,0,1.907,1.907A1.91,1.91,0,0,0,162.26,252.536Z" transform="translate(-159.275 -251.458)" fill="#fff"/>
        </g>
        <g id="Grupo_54905" data-name="Grupo 54905" transform="translate(180.999 102.653)">
          <path id="Trazado_100246" data-name="Trazado 100246" d="M367.459,225.431a2.985,2.985,0,1,1,2.984-2.985A2.988,2.988,0,0,1,367.459,225.431Zm0-4.892a1.907,1.907,0,1,0,1.907,1.907A1.909,1.909,0,0,0,367.459,220.539Z" transform="translate(-364.474 -219.461)" fill="#fff"/>
        </g>
        <g id="Grupo_54906" data-name="Grupo 54906" transform="translate(28.463 67.206)">
          <path id="Trazado_100247" data-name="Trazado 100247" d="M100.287,161.694a2.051,2.051,0,1,1,2.051-2.051A2.053,2.053,0,0,1,100.287,161.694Zm0-3.023a.973.973,0,1,0,.973.973A.974.974,0,0,0,100.287,158.67Z" transform="translate(-98.236 -157.592)" fill="#fff"/>
        </g>
        <g id="Grupo_54907" data-name="Grupo 54907" transform="translate(185.205 62.092)">
          <path id="Trazado_100248" data-name="Trazado 100248" d="M373.866,152.768a2.051,2.051,0,1,1,2.051-2.051A2.053,2.053,0,0,1,373.866,152.768Zm0-3.023a.973.973,0,1,0,.973.973A.974.974,0,0,0,373.866,149.744Z" transform="translate(-371.815 -148.666)" fill="#fff"/>
        </g>
        <g id="Grupo_54908" data-name="Grupo 54908" transform="translate(136.646 29.437)">
          <path id="Trazado_100249" data-name="Trazado 100249" d="M289.111,95.772a2.051,2.051,0,1,1,2.051-2.051A2.053,2.053,0,0,1,289.111,95.772Zm0-3.023a.973.973,0,1,0,.973.973A.974.974,0,0,0,289.111,92.749Z" transform="translate(-287.06 -91.671)" fill="#fff"/>
        </g>
        <g id="Grupo_54909" data-name="Grupo 54909" transform="translate(51.963 130.439)">
          <path id="Trazado_100250" data-name="Trazado 100250" d="M141.3,272.062a2.051,2.051,0,1,1,2.051-2.051A2.053,2.053,0,0,1,141.3,272.062Zm0-3.024a.973.973,0,1,0,.973.973A.973.973,0,0,0,141.3,269.038Z" transform="translate(-139.253 -267.96)" fill="#fff"/>
        </g>
        <g id="Grupo_54910" data-name="Grupo 54910" transform="translate(5.442 119.411)">
          <path id="Trazado_100251" data-name="Trazado 100251" d="M59.529,251.658A1.473,1.473,0,1,1,61,250.184,1.475,1.475,0,0,1,59.529,251.658Zm0-1.868a.4.4,0,1,0,.4.395A.4.4,0,0,0,59.529,249.789Z" transform="translate(-58.056 -248.711)" fill="#fff"/>
        </g>
        <g id="Grupo_54911" data-name="Grupo 54911" transform="translate(175.793 144.922)">
          <path id="Trazado_100252" data-name="Trazado 100252" d="M356.859,296.185a1.474,1.474,0,1,1,1.474-1.474A1.475,1.475,0,0,1,356.859,296.185Zm0-1.869a.4.4,0,1,0,.4.395A.4.4,0,0,0,356.859,294.316Z" transform="translate(-355.386 -293.238)" fill="#fff"/>
        </g>
        <g id="Grupo_54912" data-name="Grupo 54912" transform="translate(190.858 184.568)">
          <path id="Trazado_100253" data-name="Trazado 100253" d="M422.881,377.527c-.048-1.9-.218-4.077-1.95-5.155a4.336,4.336,0,0,0-5.3.982,11.527,11.527,0,0,0-18.325-8.726c-3.337,2.445-5.541,7.9-4.97,11.995a2.615,2.615,0,1,0-4.6,2.438,3.582,3.582,0,0,0-4.822.552,5.845,5.845,0,0,0-1.074,5.078c.739,3.505,2.458,7.609,6.927,6.56,2.817-.662,4.844-3.151,6.121-5.747.049,4.473,3.871,8.908,8.343,8.815a8.825,8.825,0,0,0,8.312-8.747,2.367,2.367,0,0,0,2.376,1.887,3.193,3.193,0,0,0,2.894-1.556,4.217,4.217,0,0,0,.362-3.341,7.007,7.007,0,0,0,1.682,1.283,2.55,2.55,0,0,0,2.072-.066c1.878-1.032,2.013-3.621,1.969-5.507C422.892,378.031,422.887,377.781,422.881,377.527Z" transform="translate(-381.681 -362.436)" fill="#fff"/>
        </g>
      </g>
      <g id="Grupo_54956" data-name="Grupo 54956" transform="translate(79.1 35.874)">
        <path id="Trazado_100254" data-name="Trazado 100254" d="M246.091,198.7c3.931-26-12.5-32.181-9.4-48.295,1.165-6.066,4.078-11.737,4.791-17.872a26.13,26.13,0,0,0-14.9-26.15c-9.591-4.272-21.689-4.972-31.185-.05-9.177,4.756-13.179,14.8-12.6,24.756.728,12.554,8.279,23.265,12.641,34.711,4.313,11.318,4.332,24.685-1.519,35.29" transform="translate(-176.62 -102.906)" fill="#31326f"/>
        <g id="Grupo_54922" data-name="Grupo 54922" transform="translate(36.833 88.691)">
          <g id="Grupo_54914" data-name="Grupo 54914">
            <path id="Trazado_100255" data-name="Trazado 100255" d="M249.235,281.076c1.442-.58,6.539-2.676,11.555-5.3,7.842-4.107,11.534-7.329,12.34-10.775a5.8,5.8,0,0,0-1.364-5.313c-2.513-2.814-6.428-1.933-8.308-1.509l-.247.056a46.523,46.523,0,0,0-7.866,2.7c-1.268.525-2.468,1.02-3.679,1.448-4.473,1.58-9.794,3.217-15.316,3.372l.219,7.8c6.609-.187,12.654-2.032,17.7-3.815,1.4-.5,2.754-1.054,4.06-1.594l.666-.275a112.286,112.286,0,0,1-12.669,5.96Z" transform="translate(-236.35 -257.707)" fill="#485685"/>
          </g>
          <g id="Grupo_54918" data-name="Grupo 54918" transform="translate(0.251 13.075)">
            <g id="Grupo_54915" data-name="Grupo 54915" transform="translate(0 0.083)">
              <path id="Trazado_100256" data-name="Trazado 100256" d="M238,298.43c-4.536-2.031,4.947-18.011,6.792-17.753s7.361-.077,6.907.826c-.655,1.3-2.191,5.731.934,8.01.128.093.223.4-.514.553a13.693,13.693,0,0,0-7.85,4.907C242.561,297.1,240.118,299.376,238,298.43Z" transform="translate(-236.789 -280.674)" fill="#fddc57"/>
            </g>
            <g id="Grupo_54917" data-name="Grupo 54917">
              <g id="Grupo_54916" data-name="Grupo 54916">
                <path id="Trazado_100257" data-name="Trazado 100257" d="M246.085,281.968a5.739,5.739,0,0,0-1.162,1.4c-2.742,4.143-3.666,4.915-5.1,9.669a6.317,6.317,0,0,0-.359,2.3,2.553,2.553,0,0,0,1.079,1.985,1.7,1.7,0,0,0,.57.219c-1.114.828-2.194,1.225-3.1.818-4.536-2.031,4.947-18.011,6.792-17.753.434.061,1.845-.324,2.889.167C247.311,280.835,246.385,281.732,246.085,281.968Z" transform="translate(-236.789 -280.528)" fill="#453248"/>
              </g>
            </g>
          </g>
          <g id="Grupo_54919" data-name="Grupo 54919" transform="translate(7.615 23.202)">
            <path id="Trazado_100258" data-name="Trazado 100258" d="M250.052,299.562c-.205-.271-.473-.568-.4-.9a.617.617,0,0,1,.453-.43,1.149,1.149,0,0,1,.646.044,2.362,2.362,0,0,1,1.45,1.461c.2.569.253,3.141-.857,2.685C250.523,302.083,250.553,300.226,250.052,299.562Z" transform="translate(-249.642 -298.204)" fill="#453248"/>
          </g>
          <g id="Grupo_54920" data-name="Grupo 54920" transform="translate(9.482 22.154)">
            <path id="Trazado_100259" data-name="Trazado 100259" d="M253.31,297.734c-.205-.271-.473-.569-.4-.9a.619.619,0,0,1,.453-.43,1.159,1.159,0,0,1,.646.044,2.364,2.364,0,0,1,1.45,1.462c.2.569.253,3.141-.857,2.684C253.781,300.254,253.811,298.4,253.31,297.734Z" transform="translate(-252.9 -296.375)" fill="#453248"/>
          </g>
          <g id="Grupo_54921" data-name="Grupo 54921" transform="translate(10.624 20.507)">
            <path id="Trazado_100260" data-name="Trazado 100260" d="M255.557,294.944c-.28-.192-.628-.389-.662-.727a.619.619,0,0,1,.293-.552,1.153,1.153,0,0,1,.627-.164,2.363,2.363,0,0,1,1.839.925c.373.476,1.238,2.9.041,2.818C256.805,297.183,256.243,295.413,255.557,294.944Z" transform="translate(-254.893 -293.501)" fill="#453248"/>
          </g>
        </g>
        <g id="Grupo_54931" data-name="Grupo 54931" transform="translate(3.72 94.65)">
          <g id="Grupo_54923" data-name="Grupo 54923">
            <path id="Trazado_100261" data-name="Trazado 100261" d="M205.882,287.5l1.322-7.693a112.25,112.25,0,0,1-13.642-3.16l.711.128c1.391.253,2.827.514,4.3.7,5.307.681,11.609,1.216,18.106.006l-1.428-7.674c-5.437,1.011-10.979.531-15.683-.074-1.275-.164-2.551-.4-3.9-.642a46.583,46.583,0,0,0-8.259-.984l-.251,0c-1.927-.019-5.941-.058-7.8,3.222a5.8,5.8,0,0,0-.217,5.482c1.514,3.2,5.8,5.573,14.331,7.937C198.928,286.265,204.35,287.242,205.882,287.5Z" transform="translate(-178.553 -268.109)" fill="#485685"/>
          </g>
          <g id="Grupo_54927" data-name="Grupo 54927" transform="translate(23.074 8.421)">
            <g id="Grupo_54924" data-name="Grupo 54924">
              <path id="Trazado_100262" data-name="Trazado 100262" d="M235.831,298.756c4.008-2.94-8.625-16.567-10.375-15.926s-7.212,1.473-6.578,2.26c.913,1.133,3.348,5.142.772,8.027-.105.118-.133.44.619.433a13.692,13.692,0,0,1,8.707,3.145C231.1,298.42,233.963,300.126,235.831,298.756Z" transform="translate(-218.827 -282.808)" fill="#fddc57"/>
            </g>
            <g id="Grupo_54926" data-name="Grupo 54926" transform="translate(3.84)">
              <g id="Grupo_54925" data-name="Grupo 54925">
                <path id="Trazado_100263" data-name="Trazado 100263" d="M227.343,284.424a5.745,5.745,0,0,1,1.432,1.129c3.552,3.473,4.617,4.033,7.024,8.379a6.309,6.309,0,0,1,.835,2.175,2.553,2.553,0,0,1-.638,2.168,1.676,1.676,0,0,1-.511.335c1.263.575,2.4.736,3.206.147,4.008-2.94-8.625-16.567-10.375-15.926-.411.151-1.872.07-2.789.771A7,7,0,0,1,227.343,284.424Z" transform="translate(-225.529 -282.808)" fill="#453248"/>
              </g>
            </g>
          </g>
          <g id="Grupo_54928" data-name="Grupo 54928" transform="translate(30.255 18.248)">
            <path id="Trazado_100264" data-name="Trazado 100264" d="M233.436,301.249c.143-.308.342-.655.2-.963a.62.62,0,0,0-.533-.325,1.159,1.159,0,0,0-.623.179,2.365,2.365,0,0,0-1.11,1.734c-.078.6.414,3.125,1.4,2.445C233.5,303.813,233.085,302,233.436,301.249Z" transform="translate(-231.36 -299.96)" fill="#453248"/>
          </g>
          <g id="Grupo_54929" data-name="Grupo 54929" transform="translate(28.209 17.617)">
            <path id="Trazado_100265" data-name="Trazado 100265" d="M229.866,300.148c.143-.308.342-.655.2-.963a.619.619,0,0,0-.533-.325,1.15,1.15,0,0,0-.622.179,2.361,2.361,0,0,0-1.11,1.733c-.078.6.414,3.125,1.4,2.445C229.935,302.711,229.515,300.9,229.866,300.148Z" transform="translate(-227.79 -298.858)" fill="#453248"/>
          </g>
          <g id="Grupo_54930" data-name="Grupo 54930" transform="translate(26.173 16.284)">
            <path id="Trazado_100266" data-name="Trazado 100266" d="M226.654,297.92c.234-.247.532-.513.494-.85a.618.618,0,0,0-.4-.478,1.156,1.156,0,0,0-.647-.028,2.363,2.363,0,0,0-1.6,1.291c-.265.544-.6,3.094.552,2.763C225.905,300.372,226.082,298.523,226.654,297.92Z" transform="translate(-224.237 -296.531)" fill="#453248"/>
          </g>
        </g>
        <g id="Grupo_54932" data-name="Grupo 54932" transform="translate(24.29 52.536)">
          <path id="Trazado_100267" data-name="Trazado 100267" d="M214.756,238.282c.906-8.2-.949-30.224-.042-38.428a19.954,19.954,0,0,1,14.015-5.24,18.952,18.952,0,0,1,13.216,6.128c-.265,9.1-1.416,30.537-1.681,39.641C238.047,243.925,214.948,240.843,214.756,238.282Z" transform="translate(-214.457 -194.604)" fill="#fffffd"/>
        </g>
        <g id="Grupo_54945" data-name="Grupo 54945" transform="translate(15.548 6.287)">
          <g id="Grupo_54933" data-name="Grupo 54933" transform="translate(16.328 47.395)">
            <path id="Trazado_100268" data-name="Trazado 100268" d="M237.706,198.68c-.057-1.272-5.108-2.077-5.108-2.077s-4.957,1.258-4.9,2.53,2.344,2.2,5.108,2.077S237.763,199.952,237.706,198.68Z" transform="translate(-227.697 -196.603)" fill="#fabb8f"/>
          </g>
          <g id="Grupo_54934" data-name="Grupo 54934" transform="translate(17.845 37.964)">
            <path id="Trazado_100269" data-name="Trazado 100269" d="M233.717,193.17l-.051,0a2.554,2.554,0,0,1-2.648-2.369l-.674-10.618,3.927-.043c2.226-.025,1.516,3.732,1.6,5.311l.26,5.057A2.511,2.511,0,0,1,233.717,193.17Z" transform="translate(-230.344 -180.142)" fill="#fabb8f"/>
          </g>
          <g id="Grupo_54935" data-name="Grupo 54935" transform="translate(0 20.029)">
            <path id="Trazado_100270" data-name="Trazado 100270" d="M204.684,150.533a2.818,2.818,0,0,0-3.266-1.609,3.138,3.138,0,0,0-2.22,2.972,3.545,3.545,0,0,0,2.095,3.136,4.082,4.082,0,0,0,3.81-.35" transform="translate(-199.198 -148.838)" fill="#fabb8f"/>
          </g>
          <g id="Grupo_54936" data-name="Grupo 54936" transform="translate(3.21)">
            <path id="Trazado_100271" data-name="Trazado 100271" d="M246.245,139.487c-.446,5.174-2.375,10.42-6.287,13.835-4.181,3.649-10.066,4.748-15.61,4.482-4.667-.224-9.535-1.45-12.852-4.74-5.259-5.216-5.021-13.639-4.422-21.023.336-4.141-1.029-8.663,3.241-11.855,3.482-2.6,7-5.155,11.286-5.869a25.7,25.7,0,0,1,12.779.81C244.983,118.9,247.117,129.377,246.245,139.487Z" transform="translate(-205.641 -113.88)" fill="#fba278"/>
            <path id="Trazado_100272" data-name="Trazado 100272" d="M208.841,141.139a30.27,30.27,0,0,0-2.1,14.008,31.07,31.07,0,0,1-1.829-13.463" transform="translate(-204.8 -125.521)" fill="#641f22"/>
          </g>
          <g id="Grupo_54937" data-name="Grupo 54937" transform="translate(8.69 10.983)">
            <path id="Trazado_100273" data-name="Trazado 100273" d="M243.936,155.615a23.08,23.08,0,0,0,2.91-7.5,25.241,25.241,0,0,0,.355-8.008c-.07-.6-1.624-7.335-1.952-7.046-7.279,6.4-13.528,5.272-20.6,6.872-3.306.748-7,1.565-8.89,4.376-3.744,5.556.7,13.988,5.763,17.025a16.613,16.613,0,0,0,16.724-.009A17.1,17.1,0,0,0,243.936,155.615Z" transform="translate(-214.366 -133.049)" fill="#fabb8f"/>
          </g>
          <g id="Grupo_54939" data-name="Grupo 54939" transform="translate(37.266 24.992)">
            <g id="Grupo_54938" data-name="Grupo 54938">
              <path id="Trazado_100274" data-name="Trazado 100274" d="M266.3,157.5a1.8,1.8,0,0,0-.995.313,2.107,2.107,0,0,0-.337,3.407,1.464,1.464,0,0,0,.471.276C268.243,162.5,268.808,157.549,266.3,157.5Z" transform="translate(-264.242 -157.502)" fill="#453248"/>
            </g>
          </g>
          <g id="Grupo_54941" data-name="Grupo 54941" transform="translate(15.809 24.197)">
            <g id="Grupo_54940" data-name="Grupo 54940">
              <path id="Trazado_100275" data-name="Trazado 100275" d="M228.85,156.113a1.8,1.8,0,0,0-1,.313,2.107,2.107,0,0,0-.336,3.408,1.474,1.474,0,0,0,.47.276C230.792,161.107,231.357,156.16,228.85,156.113Z" transform="translate(-226.791 -156.113)" fill="#453248"/>
            </g>
          </g>
          <g id="Grupo_54942" data-name="Grupo 54942" transform="translate(20.045 31.772)">
            <path id="Trazado_100276" data-name="Trazado 100276" d="M235.767,171.1a10.166,10.166,0,0,1,4-1.417c2.11-.427,4.63-.736,6.116.821,1.423,1.491,1.028,4.095-.4,5.585a8.764,8.764,0,0,1-5.612,2.26,6.645,6.645,0,0,1-3.563-.425A4.094,4.094,0,0,1,235.767,171.1Z" transform="translate(-234.184 -169.334)" fill="#fabb8f"/>
          </g>
          <g id="Grupo_54943" data-name="Grupo 54943" transform="translate(26.166 24.374)">
            <path id="Trazado_100277" data-name="Trazado 100277" d="M246.249,163.742a1.616,1.616,0,1,0-.731-3.116l-.095-3.933a.277.277,0,0,0-.284-.271.284.284,0,0,0-.271.284l.105,4.391a.278.278,0,0,0,.452.209A1.066,1.066,0,0,1,247,162.7a1.119,1.119,0,0,1-1.315.414.277.277,0,0,0-.215.512A1.586,1.586,0,0,0,246.249,163.742Z" transform="translate(-244.869 -156.422)" fill="#453248"/>
          </g>
          <g id="Grupo_54944" data-name="Grupo 54944" transform="translate(23.236 34.773)">
            <path id="Trazado_100278" data-name="Trazado 100278" d="M242.434,179.07a1.959,1.959,0,0,0,1.752-1.938.278.278,0,0,0-.291-.263.272.272,0,0,0-.263.292,1.4,1.4,0,0,1-1.295,1.36,1.913,1.913,0,0,1-1.76-1.071,2.812,2.812,0,0,1-.175-1.938c2.413.954,4.346.807,5.9-.445a.278.278,0,1,0-.348-.433c-1.466,1.179-3.254,1.258-5.63.249a.278.278,0,0,0-.372.167,3.461,3.461,0,0,0,.126,2.654,2.481,2.481,0,0,0,2.3,1.371Z" transform="translate(-239.755 -174.573)" fill="#453248"/>
          </g>
        </g>
        <g id="Grupo_54946" data-name="Grupo 54946" transform="translate(54.826 22.019)">
          <path id="Trazado_100279" data-name="Trazado 100279" d="M271.4,141.433a4.916,4.916,0,0,1,2.9,1.915,1.825,1.825,0,0,1,.4.909.811.811,0,0,1-.452.822c-.4.153-.814-.125-1.177-.348a5.318,5.318,0,0,0-2.866-.78c-.953.018-2.984.14-2.322-1.392C268.415,141.333,270.312,141.2,271.4,141.433Z" transform="translate(-267.755 -141.338)" fill="#641f22"/>
        </g>
        <g id="Grupo_54947" data-name="Grupo 54947" transform="translate(29.927 21.141)">
          <path id="Trazado_100280" data-name="Trazado 100280" d="M228.405,139.837a4.913,4.913,0,0,0-3.365.874,1.819,1.819,0,0,0-.67.732.81.81,0,0,0,.162.924c.326.273.811.145,1.226.052a5.313,5.313,0,0,1,2.964.189c.9.325,2.778,1.1,2.648-.566C231.265,140.709,229.513,139.969,228.405,139.837Z" transform="translate(-224.296 -139.806)" fill="#641f22"/>
        </g>
        <g id="Grupo_54948" data-name="Grupo 54948" transform="translate(14.351 24.715)">
          <path id="Trazado_100281" data-name="Trazado 100281" d="M249.224,150.263a.668.668,0,0,0-.936-.133l-.082.062a12.14,12.14,0,0,0-2.526,2.287c0-.015,0-.032-.008-.048a6.825,6.825,0,0,0-5.582-5.467,8.665,8.665,0,0,0-8.036,2.615,8.243,8.243,0,0,0-1.728,3.023,7.209,7.209,0,0,0-7.852-.274c-.025-.217-.058-.432-.1-.646a6.825,6.825,0,0,0-5.582-5.467,8.659,8.659,0,0,0-8.035,2.614,8.286,8.286,0,0,0-1.847,3.413l-4.566-2.2a9.55,9.55,0,0,0-2.258-.854,3.643,3.643,0,0,0-2.664.4.668.668,0,1,0,.713,1.13,2.4,2.4,0,0,1,1.691-.218,8.425,8.425,0,0,1,1.939.747l4.9,2.359a7.779,7.779,0,0,0,.439,3.526,7.178,7.178,0,0,0,4.656,4.4,7.736,7.736,0,0,0,1.749.331,8.226,8.226,0,0,0,5.235-1.431,8.807,8.807,0,0,0,3.758-6.51,5.914,5.914,0,0,1,7.5.109,7.839,7.839,0,0,0,.4,3.854,7.18,7.18,0,0,0,4.656,4.4,7.771,7.771,0,0,0,1.749.33,8.225,8.225,0,0,0,5.235-1.431,8.806,8.806,0,0,0,3.753-6.44.659.659,0,0,0,.187-.22,8.226,8.226,0,0,1,3.028-3.258l.082-.061A.668.668,0,0,0,249.224,150.263Zm-31.24,9.066a6.793,6.793,0,0,1-5.827.926,5.87,5.87,0,0,1-3.8-3.6,6.916,6.916,0,0,1,1.393-6.931,7.327,7.327,0,0,1,5.879-2.328,6.85,6.85,0,0,1,.895.124,5.541,5.541,0,0,1,4.544,4.423A7.347,7.347,0,0,1,217.984,159.328Zm23.3.749a6.8,6.8,0,0,1-5.827.926,5.869,5.869,0,0,1-3.8-3.6,6.917,6.917,0,0,1,1.393-6.932,7.327,7.327,0,0,1,5.88-2.328,6.871,6.871,0,0,1,.895.124,5.541,5.541,0,0,1,4.543,4.424A7.347,7.347,0,0,1,241.284,160.077Z" transform="translate(-197.109 -146.044)" fill="#c4462f"/>
        </g>
        <g id="Grupo_54950" data-name="Grupo 54950" transform="translate(34.89 56.504)">
          <path id="Trazado_100282" data-name="Trazado 100282" d="M256.472,255.159l9.452-41.3-32.966-1.9.622,40.744Z" transform="translate(-232.958 -205.982)" fill="#6f6389"/>
          <path id="Trazado_100283" data-name="Trazado 100283" d="M265.923,213.6l-2.211-.723-29.19-1.527-1.565.347Z" transform="translate(-232.958 -205.723)" fill="#504768"/>
          <g id="Grupo_54949" data-name="Grupo 54949" transform="translate(6.573)">
            <path id="Trazado_100284" data-name="Trazado 100284" d="M245.2,206.8a23.4,23.4,0,0,0,4.541-1.422l.309-.289c.051-.116,0-.225-.21-.321-1.453-.68-2.186-3.455,4.075-3.227,6.637-.109,5.8,2.727,4.3,3.367s4.566,2.193,4.566,2.193l.262,4-18.36-1Z" transform="translate(-244.536 -201.529)" fill="#d2cfe2"/>
            <path id="Trazado_100285" data-name="Trazado 100285" d="M244.95,208a23.375,23.375,0,0,0,4.54-1.421l.31-.289c.05-.116,0-.225-.211-.321-1.452-.68-2.185-3.455,4.075-3.228,6.637-.109,5.8,2.727,4.3,3.367s4.565,2.193,4.565,2.193l.4,3.314-18.5-.317Z" transform="translate(-244.431 -202.039)" fill="#a69fbf"/>
          </g>
        </g>
        <path id="Trazado_100286" data-name="Trazado 100286" d="M283.535,242.24a4.824,4.824,0,0,0,.958-7.18,1.059,1.059,0,0,0-.177-.323,6.855,6.855,0,0,0-3.946-2.579,3.01,3.01,0,0,0-1.259-.066,1.439,1.439,0,0,0-1.009.7,1.375,1.375,0,0,0-.019,1.435,4.846,4.846,0,0,0,5.451,8.012Z" transform="translate(-216.441 -158.06)" fill="#fba278"/>
        <g id="Grupo_54955" data-name="Grupo 54955" transform="translate(0 57.163)">
          <g id="Grupo_54953" data-name="Grupo 54953" transform="translate(0 0.691)">
            <g id="Grupo_54952" data-name="Grupo 54952">
              <g id="Grupo_54951" data-name="Grupo 54951">
                <path id="Trazado_100287" data-name="Trazado 100287" d="M193.846,231.719c-1.231,3.415-7.536,10.448-9.956,10.687-3.889.384-3.631-12.374-4.16-16.564" transform="translate(-175.336 -213.262)" fill="none" stroke="#fba278" stroke-miterlimit="10" stroke-width="10"/>
                <path id="Trazado_100288" data-name="Trazado 100288" d="M207.018,203.885l5.125,9.206c-2.21,3.315-9.161,12.5-9.329,13.078a32.034,32.034,0,0,1-6.311-3.5Z" transform="translate(-182.5 -203.885)" fill="#fffffd"/>
                <path id="Trazado_100289" data-name="Trazado 100289" d="M173.772,222.052a4.393,4.393,0,1,0,6.161.8A4.393,4.393,0,0,0,173.772,222.052Z" transform="translate(-172.061 -211.253)" fill="#fba278"/>
                <path id="Trazado_100290" data-name="Trazado 100290" d="M186.234,223.853a1.307,1.307,0,0,1,.692.873,2.737,2.737,0,0,1,.012,1.144,6.215,6.215,0,0,1-2.107,3.717.693.693,0,0,1-.422.207C183.5,229.794,183.341,222.587,186.234,223.853Z" transform="translate(-177.085 -212.349)" fill="#fba278"/>
              </g>
            </g>
          </g>
          <g id="Grupo_54954" data-name="Grupo 54954" transform="translate(0.393)">
            <path id="Trazado_100291" data-name="Trazado 100291" d="M172.747,203.968a3.721,3.721,0,0,1,1.488-1.085,3.092,3.092,0,0,1,1.942-.088l7.37,19.484-.684,5.667-4.01-4.062Z" transform="translate(-172.747 -202.678)" fill="#453248"/>
            <path id="Trazado_100292" data-name="Trazado 100292" d="M188.1,236.889l-.517,4.285-.709-.2-.436.595-3.033-3.071,2.153.1,1.051-1.2,1.007.143Z" transform="translate(-177.298 -217.289)" fill="#fabb8f"/>
            <path id="Trazado_100293" data-name="Trazado 100293" d="M175.422,202.976" transform="translate(-173.889 -202.805)" fill="#fabb8f"/>
          </g>
          <path id="Trazado_100294" data-name="Trazado 100294" d="M178.464,225.412a3.02,3.02,0,0,1,1.248,1.73,1.652,1.652,0,0,1-.823,1.84,2.367,2.367,0,0,1-1.9-.236c-.91-.423-3.439-1.534-2.776-2.885C175.027,224.195,177.226,224.5,178.464,225.412Z" transform="translate(-172.932 -212.07)" fill="#fba278"/>
        </g>
        <path id="Trazado_100295" data-name="Trazado 100295" d="M208.042,113.639c13.575-10.548,33.633-6.938,43.637,6.7a15.028,15.028,0,0,1,3.132,8.931c-3.767-4.319-10.039-4.68-15.366-4.739a190.95,190.95,0,0,0-20.057.608c-4.566.433-8.478,2.081-12.748,3.613a3.593,3.593,0,0,1-2.556.219c-1.33-.559-.657-2.288-.688-3.335C203.257,120.905,204.133,116.677,208.042,113.639Z" transform="translate(-185.382 -104.873)" fill="#31326f"/>
      </g>
      <g id="Grupo_54963" data-name="Grupo 54963" transform="translate(0 10.329)">
        <g id="Grupo_54958" data-name="Grupo 54958" transform="translate(0 4.519)">
          <path id="Trazado_100296" data-name="Trazado 100296" d="M37.627,86.106l2.653-3.256,12.7.657,2.633-12.025,4.97-1.49L58.913,87.4,51.55,92.621Z" transform="translate(-35.549 -67.823)" fill="#fff"/>
          <g id="Grupo_54957" data-name="Grupo 54957">
            <path id="Trazado_100297" data-name="Trazado 100297" d="M81.931,97.245l-5.759,14.208s1.365.4,1.45.949.414,1.227-2.217,3.094-3.163,1.332-3.653,1.071-.417-1.682-.417-1.682l-15.313.743,1.113-.79L72,114.072s-.324,2.17.625,1.953a9.222,9.222,0,0,0,2.334-1.161s2.19-1.631,1.748-2.039a5.235,5.235,0,0,0-1.588-.737l5.6-13.851Z" transform="translate(-43.405 -79.462)" fill="#26769e"/>
            <path id="Trazado_100298" data-name="Trazado 100298" d="M49.313,97,61.93,114.778l-15.313.743L34,97.739Z" transform="translate(-34 -79.356)" fill="#3689bb"/>
            <path id="Trazado_100299" data-name="Trazado 100299" d="M74.929,66.207,87.546,83.99,81.787,98.2,69.17,80.415Z" transform="translate(-49.02 -66.207)" fill="#3689bb"/>
            <path id="Trazado_100300" data-name="Trazado 100300" d="M61.455,96.827,74.072,114.61a6.422,6.422,0,0,0,5.87-4.165L67.325,92.662S66.174,96.065,61.455,96.827Z" transform="translate(-45.725 -77.505)" fill="#26769e"/>
            <path id="Trazado_100301" data-name="Trazado 100301" d="M59.909,66.207,54.15,80.415s1.365.4,1.45.949.415,1.228-2.217,3.095-3.163,1.331-3.653,1.07-.417-1.682-.417-1.682L34,84.59l1.113-.79,14.862-.766s-.324,2.17.625,1.953a9.208,9.208,0,0,0,2.334-1.161s2.19-1.631,1.748-2.04a5.23,5.23,0,0,0-1.588-.737L58.7,67.2Z" transform="translate(-34 -66.207)" fill="#54aad6"/>
          </g>
        </g>
        <g id="Grupo_54960" data-name="Grupo 54960" transform="translate(157.876 190.359)">
          <path id="Trazado_100302" data-name="Trazado 100302" d="M357.446,419.883l-.73-4.137-11.406-5.613,3.561-11.784-3.613-3.723-7.028,16.01,3.883,8.15Z" transform="translate(-321.802 -392.304)" fill="#fff"/>
          <g id="Grupo_54959" data-name="Grupo 54959">
            <path id="Trazado_100303" data-name="Trazado 100303" d="M313.618,406.943l-1.9,15.213s-1.388-.315-1.729.122-.96.87.428,3.783,2.113,2.7,2.668,2.715,1.184-1.265,1.184-1.265l13.009,8.112-.587-1.232-12.6-7.912s-.774,2.053-1.5,1.4a9.214,9.214,0,0,1-1.471-2.151s-1.118-2.491-.533-2.633a5.238,5.238,0,0,1,1.746.13l1.859-14.824Z" transform="translate(-309.557 -397.564)" fill="#26769e"/>
            <path id="Trazado_100304" data-name="Trazado 100304" d="M337.473,426.472l-19.684,9.379,13.009,8.112,19.684-9.379Z" transform="translate(-313.073 -405.905)" fill="#3689bb"/>
            <path id="Trazado_100305" data-name="Trazado 100305" d="M334.916,390.574l-19.684,9.379-1.9,15.213,19.684-9.379Z" transform="translate(-311.171 -390.574)" fill="#3689bb"/>
            <path id="Trazado_100306" data-name="Trazado 100306" d="M333.07,423.838l-19.684,9.378a6.421,6.421,0,0,1-3.1-6.5l19.684-9.378S329.32,420.872,333.07,423.838Z" transform="translate(-309.854 -402.005)" fill="#26769e"/>
            <path id="Trazado_100307" data-name="Trazado 100307" d="M347.974,390.574l-1.9,15.213s-1.388-.316-1.729.122-.96.87.427,3.783,2.114,2.7,2.668,2.715,1.184-1.266,1.184-1.266l13.008,8.112-.587-1.232-12.6-7.912s-.775,2.053-1.5,1.4a9.223,9.223,0,0,1-1.472-2.151s-1.118-2.491-.533-2.633a5.242,5.242,0,0,1,1.746.13l1.859-14.824Z" transform="translate(-324.23 -390.574)" fill="#54aad6"/>
          </g>
        </g>
        <g id="Grupo_54962" data-name="Grupo 54962" transform="translate(161.78)">
          <path id="Trazado_100308" data-name="Trazado 100308" d="M340.307,64.888l-2.079-1.332-6.971,2.694-3.675-6.234-3.049.079,4.121,9.416,5.07,1.568Z" transform="translate(-319.857 -59.044)" fill="#fff"/>
          <g id="Grupo_54961" data-name="Grupo 54961">
            <path id="Trazado_100309" data-name="Trazado 100309" d="M316.371,79.693l5.821,6.88s-.689.474-.636.8-.006.761,1.806,1.322,2.011.164,2.237-.072-.076-1.016-.076-1.016l8.689-2.391-.767-.237L325,87.271s.579,1.152.009,1.205a5.417,5.417,0,0,1-1.516-.221s-1.522-.509-1.35-.819a3.073,3.073,0,0,1,.752-.7l-5.667-6.71Z" transform="translate(-316.371 -67.448)" fill="#26769e"/>
            <path id="Trazado_100310" data-name="Trazado 100310" d="M336.133,70.345,332.345,82.59l8.689-2.392,3.788-12.245Z" transform="translate(-323.193 -62.434)" fill="#3689bb"/>
            <path id="Trazado_100311" data-name="Trazado 100311" d="M320.159,58.32l-3.788,12.245,5.821,6.88L325.98,65.2Z" transform="translate(-316.371 -58.32)" fill="#3689bb"/>
            <path id="Trazado_100312" data-name="Trazado 100312" d="M333.251,72.969l-3.788,12.245a3.776,3.776,0,0,1-4.043-1.25l3.788-12.245A4.19,4.19,0,0,0,333.251,72.969Z" transform="translate(-320.236 -64.042)" fill="#26769e"/>
            <path id="Trazado_100313" data-name="Trazado 100313" d="M322.983,58.32,328.8,65.2s-.689.474-.636.8-.006.761,1.805,1.322,2.011.164,2.237-.072-.075-1.016-.075-1.016l8.689-2.391-.767-.237-8.442,2.3s.579,1.153.009,1.205a5.43,5.43,0,0,1-1.517-.221s-1.522-.509-1.35-.819a3.089,3.089,0,0,1,.752-.7l-5.667-6.71Z" transform="translate(-319.195 -58.32)" fill="#54aad6"/>
          </g>
        </g>
      </g>
      <g id="Grupo_55039" data-name="Grupo 55039" transform="translate(20.976 18.871)">
        <g id="Grupo_54978" data-name="Grupo 54978" transform="translate(17.877 67.555)">
          <g id="Grupo_54965" data-name="Grupo 54965">
            <g id="Grupo_54964" data-name="Grupo 54964">
              <path id="Trazado_100314" data-name="Trazado 100314" d="M119.062,233.188a17.248,17.248,0,0,1-3.953-34.037V191.14h7.9v8.011a17.248,17.248,0,0,1-3.952,34.037Zm-2.874-40.97v7.8l-.43.089a16.169,16.169,0,1,0,6.608,0l-.43-.089v-7.8Z" transform="translate(-101.815 -191.14)" fill="#fff"/>
            </g>
          </g>
          <g id="Grupo_54967" data-name="Grupo 54967" transform="translate(3.234 24.027)">
            <g id="Grupo_54966" data-name="Grupo 54966">
              <path id="Trazado_100315" data-name="Trazado 100315" d="M107.494,233.076c-.014.258-.034.514-.034.775a14.013,14.013,0,0,0,28.026,0c0-.261-.02-.517-.034-.775Z" transform="translate(-107.46 -233.076)" fill="#ff950b"/>
            </g>
          </g>
          <g id="Grupo_54969" data-name="Grupo 54969" transform="translate(3.268 20.034)">
            <g id="Grupo_54968" data-name="Grupo 54968">
              <path id="Trazado_100316" data-name="Trazado 100316" d="M107.519,230.1s13.552,10.061,27.958,0C135.477,230.1,121.567,221.117,107.519,230.1Z" transform="translate(-107.519 -226.108)" fill="#ffaf50"/>
            </g>
          </g>
          <g id="Grupo_54971" data-name="Grupo 54971" transform="translate(9.971 30.853)">
            <g id="Grupo_54970" data-name="Grupo 54970">
              <path id="Trazado_100317" data-name="Trazado 100317" d="M120.655,245.71a.719.719,0,1,1-.718-.719A.719.719,0,0,1,120.655,245.71Z" transform="translate(-119.218 -244.991)" fill="#ffaf50"/>
            </g>
          </g>
          <g id="Grupo_54973" data-name="Grupo 54973" transform="translate(13.384 33.907)">
            <g id="Grupo_54972" data-name="Grupo 54972">
              <path id="Trazado_100318" data-name="Trazado 100318" d="M127.106,251.287a.965.965,0,1,1-.965-.965A.965.965,0,0,1,127.106,251.287Z" transform="translate(-125.176 -250.322)" fill="#ffaf50"/>
            </g>
          </g>
          <g id="Grupo_54975" data-name="Grupo 54975" transform="translate(15.314 30.853)">
            <g id="Grupo_54974" data-name="Grupo 54974">
              <circle id="Elipse_1230" data-name="Elipse 1230" cx="0.719" cy="0.719" r="0.719" fill="#ffaf50"/>
            </g>
          </g>
          <g id="Grupo_54977" data-name="Grupo 54977" transform="translate(26.948 27.709)">
            <g id="Grupo_54976" data-name="Grupo 54976">
              <circle id="Elipse_1231" data-name="Elipse 1231" cx="1.168" cy="1.168" r="1.168" fill="#ffaf50"/>
            </g>
          </g>
        </g>
        <g id="Grupo_54993" data-name="Grupo 54993" transform="translate(0 91.387)">
          <g id="Grupo_54980" data-name="Grupo 54980">
            <g id="Grupo_54979" data-name="Grupo 54979">
              <path id="Trazado_100319" data-name="Trazado 100319" d="M90.578,270.681q-.223,0-.446-.006a17.136,17.136,0,0,1-12.064-5.357,17.31,17.31,0,0,1-1.935-21.329l-5.52-5.8,5.729-5.447,5.52,5.8a17.31,17.31,0,0,1,21.2,3.007,17.247,17.247,0,0,1-12.487,29.131ZM72.136,238.222l5.378,5.655-.25.36a16.169,16.169,0,1,0,4.789-4.553l-.372.231L76.3,234.26Z" transform="translate(-70.612 -232.737)" fill="#fff"/>
            </g>
          </g>
          <g id="Grupo_54982" data-name="Grupo 54982" transform="translate(6.094 19.098)">
            <g id="Grupo_54981" data-name="Grupo 54981">
              <path id="Trazado_100320" data-name="Trazado 100320" d="M81.282,266.07c-.014.258-.034.515-.034.776a14.013,14.013,0,1,0,28.026,0c0-.261-.019-.517-.034-.776Z" transform="translate(-81.248 -266.07)" fill="#e84564"/>
            </g>
          </g>
          <g id="Grupo_54984" data-name="Grupo 54984" transform="translate(6.128 15.105)">
            <g id="Grupo_54983" data-name="Grupo 54983">
              <path id="Trazado_100321" data-name="Trazado 100321" d="M81.307,263.094s13.552,10.061,27.958,0C109.265,263.094,95.355,254.112,81.307,263.094Z" transform="translate(-81.307 -259.102)" fill="#ff7697"/>
            </g>
          </g>
          <g id="Grupo_54986" data-name="Grupo 54986" transform="translate(12.83 25.925)">
            <g id="Grupo_54985" data-name="Grupo 54985">
              <path id="Trazado_100322" data-name="Trazado 100322" d="M94.443,278.7a.719.719,0,1,1-.718-.718A.719.719,0,0,1,94.443,278.7Z" transform="translate(-93.006 -277.986)" fill="#ff7697"/>
            </g>
          </g>
          <g id="Grupo_54988" data-name="Grupo 54988" transform="translate(16.244 28.979)">
            <g id="Grupo_54987" data-name="Grupo 54987">
              <path id="Trazado_100323" data-name="Trazado 100323" d="M100.893,284.282a.965.965,0,1,1-.964-.965A.964.964,0,0,1,100.893,284.282Z" transform="translate(-98.964 -283.317)" fill="#ff7697"/>
            </g>
          </g>
          <g id="Grupo_54990" data-name="Grupo 54990" transform="translate(18.173 25.925)">
            <g id="Grupo_54989" data-name="Grupo 54989">
              <circle id="Elipse_1232" data-name="Elipse 1232" cx="0.719" cy="0.719" r="0.719" fill="#ff7697"/>
            </g>
          </g>
          <g id="Grupo_54992" data-name="Grupo 54992" transform="translate(29.808 22.781)">
            <g id="Grupo_54991" data-name="Grupo 54991">
              <circle id="Elipse_1233" data-name="Elipse 1233" cx="1.168" cy="1.168" r="1.168" fill="#ff7697"/>
            </g>
          </g>
        </g>
        <g id="Grupo_55008" data-name="Grupo 55008" transform="translate(128.877 46.745)">
          <g id="Grupo_54995" data-name="Grupo 54995">
            <g id="Grupo_54994" data-name="Grupo 54994">
              <path id="Trazado_100324" data-name="Trazado 100324" d="M312.8,196.866a17.248,17.248,0,0,1-3.953-34.037v-8.011h7.9v8.011a17.248,17.248,0,0,1-3.952,34.037Zm-2.875-40.97v7.8l-.43.089a16.169,16.169,0,1,0,6.608,0l-.429-.089v-7.8Z" transform="translate(-295.554 -154.818)" fill="#fff"/>
            </g>
          </g>
          <g id="Grupo_54997" data-name="Grupo 54997" transform="translate(3.234 24.027)">
            <g id="Grupo_54996" data-name="Grupo 54996">
              <path id="Trazado_100325" data-name="Trazado 100325" d="M329.19,196.754c.014.258.034.514.034.775a14.013,14.013,0,0,1-28.026,0c0-.261.019-.517.034-.775Z" transform="translate(-301.198 -196.754)" fill="#ff950b"/>
            </g>
          </g>
          <g id="Grupo_54999" data-name="Grupo 54999" transform="translate(3.267 20.034)">
            <g id="Grupo_54998" data-name="Grupo 54998">
              <path id="Trazado_100326" data-name="Trazado 100326" d="M329.215,193.778s-13.552,10.061-27.958,0C301.257,193.778,315.167,184.795,329.215,193.778Z" transform="translate(-301.257 -189.786)" fill="#ffaf50"/>
            </g>
          </g>
          <g id="Grupo_55001" data-name="Grupo 55001" transform="translate(23.085 30.853)">
            <g id="Grupo_55000" data-name="Grupo 55000">
              <path id="Trazado_100327" data-name="Trazado 100327" d="M335.847,209.388a.719.719,0,1,0,.719-.719A.719.719,0,0,0,335.847,209.388Z" transform="translate(-335.847 -208.669)" fill="#ffaf50"/>
            </g>
          </g>
          <g id="Grupo_55003" data-name="Grupo 55003" transform="translate(19.18 33.907)">
            <g id="Grupo_55002" data-name="Grupo 55002">
              <path id="Trazado_100328" data-name="Trazado 100328" d="M329.031,214.965A.965.965,0,1,0,330,214,.964.964,0,0,0,329.031,214.965Z" transform="translate(-329.031 -214)" fill="#ffaf50"/>
            </g>
          </g>
          <g id="Grupo_55005" data-name="Grupo 55005" transform="translate(17.743 30.853)">
            <g id="Grupo_55004" data-name="Grupo 55004">
              <path id="Trazado_100329" data-name="Trazado 100329" d="M326.522,209.388a.719.719,0,1,0,.718-.719A.719.719,0,0,0,326.522,209.388Z" transform="translate(-326.522 -208.669)" fill="#ffaf50"/>
            </g>
          </g>
          <g id="Grupo_55007" data-name="Grupo 55007" transform="translate(5.21 27.709)">
            <g id="Grupo_55006" data-name="Grupo 55006">
              <circle id="Elipse_1234" data-name="Elipse 1234" cx="1.168" cy="1.168" r="1.168" fill="#ffaf50"/>
            </g>
          </g>
        </g>
        <g id="Grupo_55023" data-name="Grupo 55023" transform="translate(173.381)">
          <g id="Grupo_55010" data-name="Grupo 55010" transform="translate(0)">
            <g id="Grupo_55009" data-name="Grupo 55009">
              <path id="Trazado_100330" data-name="Trazado 100330" d="M374.576,93a10.7,10.7,0,0,1,2.117-13.066L374.28,75.61l4.266-2.381,2.413,4.323A10.66,10.66,0,1,1,374.576,93Zm.611-17.132,2.351,4.212-.205.178a9.993,9.993,0,1,0,3.566-1.99l-.259.081-2.351-4.212Z" transform="translate(-373.232 -73.229)" fill="#fff"/>
            </g>
          </g>
          <g id="Grupo_55012" data-name="Grupo 55012" transform="translate(2.874 9.947)">
            <g id="Grupo_55011" data-name="Grupo 55011">
              <path id="Trazado_100331" data-name="Trazado 100331" d="M378.248,99.011c.07.144.136.288.215.429A8.661,8.661,0,0,0,393.588,91c-.078-.141-.167-.273-.252-.408Z" transform="translate(-378.248 -90.59)" fill="#ff950b"/>
            </g>
          </g>
          <g id="Grupo_55014" data-name="Grupo 55014" transform="translate(2.874 9.936)">
            <g id="Grupo_55013" data-name="Grupo 55013">
              <path id="Trazado_100332" data-name="Trazado 100332" d="M378.248,99s10.344,1.348,15.088-8.421C393.336,90.582,383.124,89.924,378.248,99Z" transform="translate(-378.248 -90.572)" fill="#ffaf50"/>
            </g>
          </g>
          <g id="Grupo_55016" data-name="Grupo 55016" transform="translate(8.707 19.76)">
            <g id="Grupo_55015" data-name="Grupo 55015">
              <path id="Trazado_100333" data-name="Trazado 100333" d="M389.262,107.946a.444.444,0,1,1-.6-.171A.444.444,0,0,1,389.262,107.946Z" transform="translate(-388.43 -107.718)" fill="#ffaf50"/>
            </g>
          </g>
          <g id="Grupo_55018" data-name="Grupo 55018" transform="translate(11.524 20.287)">
            <g id="Grupo_55017" data-name="Grupo 55017">
              <path id="Trazado_100334" data-name="Trazado 100334" d="M394.464,108.944a.6.6,0,1,1-.811-.23A.6.6,0,0,1,394.464,108.944Z" transform="translate(-393.347 -108.638)" fill="#ffaf50"/>
            </g>
          </g>
          <g id="Grupo_55020" data-name="Grupo 55020" transform="translate(11.591 18.151)">
            <g id="Grupo_55019" data-name="Grupo 55019">
              <path id="Trazado_100335" data-name="Trazado 100335" d="M394.295,105.137a.444.444,0,1,1-.6-.171A.444.444,0,0,1,394.295,105.137Z" transform="translate(-393.463 -104.91)" fill="#ffaf50"/>
            </g>
          </g>
          <g id="Grupo_55022" data-name="Grupo 55022" transform="translate(17.023 12.779)">
            <g id="Grupo_55021" data-name="Grupo 55021">
              <path id="Trazado_100336" data-name="Trazado 100336" d="M404.3,95.9a.722.722,0,1,1-.982-.278A.722.722,0,0,1,404.3,95.9Z" transform="translate(-402.944 -95.534)" fill="#ffaf50"/>
            </g>
          </g>
        </g>
        <g id="Grupo_55038" data-name="Grupo 55038" transform="translate(170.27 118.488)">
          <g id="Grupo_55025" data-name="Grupo 55025">
            <g id="Grupo_55024" data-name="Grupo 55024">
              <path id="Trazado_100337" data-name="Trazado 100337" d="M385.038,317.983a17.247,17.247,0,0,1-12.488-29.131,17.31,17.31,0,0,1,21.2-3.007l5.52-5.806L405,285.485l-5.52,5.806a17.31,17.31,0,0,1-1.936,21.329,17.136,17.136,0,0,1-12.064,5.357C385.336,317.981,385.187,317.983,385.038,317.983Zm.044-33.4a16.16,16.16,0,0,0-11.173,27.874,16.168,16.168,0,0,0,22.858-.576,16.225,16.225,0,0,0,1.585-20.337l-.249-.36,5.377-5.655-4.166-3.961-5.377,5.655-.373-.231A16.055,16.055,0,0,0,385.082,284.579Z" transform="translate(-367.802 -280.039)" fill="#fff"/>
            </g>
          </g>
          <g id="Grupo_55027" data-name="Grupo 55027" transform="translate(3.082 19.098)">
            <g id="Grupo_55026" data-name="Grupo 55026">
              <path id="Trazado_100338" data-name="Trazado 100338" d="M401.173,313.373c.014.258.034.515.034.775a14.013,14.013,0,0,1-28.026,0c0-.261.02-.517.034-.775Z" transform="translate(-373.181 -313.373)" fill="#e84564"/>
            </g>
          </g>
          <g id="Grupo_55029" data-name="Grupo 55029" transform="translate(3.116 15.106)">
            <g id="Grupo_55028" data-name="Grupo 55028">
              <path id="Trazado_100339" data-name="Trazado 100339" d="M401.2,310.4s-13.551,10.06-27.957,0C373.241,310.4,387.151,301.414,401.2,310.4Z" transform="translate(-373.241 -306.405)" fill="#ff7697"/>
            </g>
          </g>
          <g id="Grupo_55031" data-name="Grupo 55031" transform="translate(22.934 25.925)">
            <g id="Grupo_55030" data-name="Grupo 55030">
              <path id="Trazado_100340" data-name="Trazado 100340" d="M407.831,326.006a.718.718,0,1,0,.718-.718A.719.719,0,0,0,407.831,326.006Z" transform="translate(-407.831 -325.288)" fill="#ff7697"/>
            </g>
          </g>
          <g id="Grupo_55033" data-name="Grupo 55033" transform="translate(19.028 28.979)">
            <g id="Grupo_55032" data-name="Grupo 55032">
              <path id="Trazado_100341" data-name="Trazado 100341" d="M401.014,331.584a.965.965,0,1,0,.965-.965A.964.964,0,0,0,401.014,331.584Z" transform="translate(-401.014 -330.619)" fill="#ff7697"/>
            </g>
          </g>
          <g id="Grupo_55035" data-name="Grupo 55035" transform="translate(17.591 25.925)">
            <g id="Grupo_55034" data-name="Grupo 55034">
              <path id="Trazado_100342" data-name="Trazado 100342" d="M398.505,326.006a.719.719,0,1,0,.719-.718A.719.719,0,0,0,398.505,326.006Z" transform="translate(-398.505 -325.288)" fill="#ff7697"/>
            </g>
          </g>
          <g id="Grupo_55037" data-name="Grupo 55037" transform="translate(5.058 22.781)">
            <g id="Grupo_55036" data-name="Grupo 55036">
              <circle id="Elipse_1235" data-name="Elipse 1235" cx="1.168" cy="1.168" r="1.168" fill="#ff7697"/>
            </g>
          </g>
        </g>
      </g>
    </g>
  </g>
</svg>
