<svg xmlns="http://www.w3.org/2000/svg" width="103" height="103" viewBox="0 0 103 103">
  <g id="Grupo_57162" data-name="Grupo 57162" transform="translate(-744 -4215)">
    <circle id="Elipse_1407" data-name="Elipse 1407" cx="51.5" cy="51.5" r="51.5" transform="translate(744 4215)" fill="#9ddfd3"/>
    <g id="tareas" transform="translate(739.49 4229.534)">
      <g id="Grupo_57141" data-name="Grupo 57141" transform="translate(25.01 1.439)">
        <path id="Trazado_101492" data-name="Trazado 101492" d="M401,212.893l11.139-4.071L401,178.344Z" transform="translate(-348.14 -154.126)" fill="#ffd974"/>
        <path id="Trazado_101493" data-name="Trazado 101493" d="M239.628,16.275,237.336,10l-17.163,6.273Z" transform="translate(-193.328 -10.002)" fill="#ffd974"/>
        <path id="Trazado_101494" data-name="Trazado 101494" d="M39.576,106.55l-6,2.194,6,16.428Z" transform="translate(-33.572 -92.66)" fill="#ffd974"/>
        <path id="Trazado_101495" data-name="Trazado 101495" d="M156.59,458.395l2.293,6.273,17.163-6.273Z" transform="translate(-138.892 -393.888)" fill="#ffd974"/>
      </g>
      <path id="Trazado_101496" data-name="Trazado 101496" d="M142.56,24.553l-2.979-2.389a1.012,1.012,0,0,1-.082-1.505h0a1.012,1.012,0,0,0,0-1.431l-3.162-3.161L128.7,23.7l3.162,3.162a1.012,1.012,0,0,0,1.431,0h0a1.012,1.012,0,0,1,1.505.082l2.389,2.979a1.012,1.012,0,0,0,1.505.082l3.949-3.95A1.012,1.012,0,0,0,142.56,24.553Z" transform="translate(-90.004 -13.754)" fill="#ff3c63"/>
      <path id="Trazado_101497" data-name="Trazado 101497" d="M93.494,53.6a1.011,1.011,0,0,0,.375.7l2.979,2.389a1.012,1.012,0,0,1,.082,1.505l-3.949,3.95a1.012,1.012,0,0,1-1.505-.082l-2.389-2.979a1.012,1.012,0,0,0-1.505-.082,1.012,1.012,0,0,1-1.431,0l-3.162-3.162L85.225,53.6H75.307v58.234h46.855V53.6Z" transform="translate(-44.293 -45.885)" fill="#fff6e1"/>
      <path id="Trazado_101498" data-name="Trazado 101498" d="M90.36,55.641,79.308,25.4V7.711a1.439,1.439,0,0,0-1.439-1.439H72.317L70.369.945A1.439,1.439,0,0,0,68.524.087L51.6,6.272h-.379a2.443,2.443,0,0,0-.713-1.817L48.349,2.293a1.438,1.438,0,0,0-2.2-1.829L40.336,6.273H31.015a1.439,1.439,0,0,0-1.439,1.439v6.611l-5.06,1.849a1.439,1.439,0,0,0-.857,1.845l5.917,16.189v31.74a1.439,1.439,0,0,0,1.439,1.439H41.7l1.947,5.328a1.437,1.437,0,0,0,1.845.857l16.924-6.185H77.869a1.439,1.439,0,0,0,1.439-1.439V61.212L89.5,57.486a1.439,1.439,0,0,0,.858-1.845ZM45.916,12.292a2.443,2.443,0,0,0-.529-.487c-.014-.01-.027-.021-.042-.03l-.036-.021a2.452,2.452,0,0,0-1.172-.375q-.067,0-.133,0h-.038l-.087,0-.11.008-.087.01-.108.017-.085.017c-.036.008-.072.017-.108.026l-.081.022c-.036.011-.072.023-.108.036l-.077.027c-.037.014-.073.03-.109.046l-.07.031c-.039.019-.078.04-.116.061l-.057.031c-.056.033-.111.068-.165.105L40.73,9.948h0l5.6-5.6L48.2,6.215a2.454,2.454,0,0,0-.439,1.539c0,.014,0,.028,0,.042s0,.03,0,.045c0,.03.009.06.013.09s.01.079.017.118.017.082.026.122.019.085.032.127.022.068.034.1.031.093.049.138c.012.028.025.056.038.083.022.049.044.1.068.144.013.024.028.047.042.071.028.048.055.1.086.142.016.024.035.047.052.071.031.043.062.087.1.128s.054.06.081.089.056.064.087.095a2.456,2.456,0,0,0,.186.166l0,0,2.608,2.091L48.008,14.9ZM68.161,3.284l1.092,2.989H59.985ZM26.855,18.38l2.721-.994v8.438Zm19,51.993-1.092-2.989h9.271Zm30.573-5.866H32.453V9.15h5.006l-.61.61a1.438,1.438,0,0,0,1.829,2.2l2.162,2.163a2.432,2.432,0,0,0,1.49.706q.121.012.243.012.093,0,.184-.007a2.479,2.479,0,0,0,1.184-.41l2.12,2.643a2.453,2.453,0,0,0,1.778.914c.045,0,.089,0,.134,0,.022,0,.044,0,.066,0l.117-.006c.044,0,.088-.008.132-.014s.077-.01.116-.017.086-.017.129-.027.075-.018.112-.028.086-.027.128-.041.071-.024.106-.038.085-.037.127-.056.066-.029.1-.046.085-.048.128-.073.058-.033.087-.052c.046-.03.09-.064.134-.1.022-.017.046-.032.068-.05a2.4,2.4,0,0,0,.187-.168l.958-.958L52.57,18.22A1.439,1.439,0,1,0,54.6,16.185L52.7,14.278l.957-.957a2.451,2.451,0,0,0-.2-3.645L52.8,9.15H76.431V64.507h0Zm2.877-6.359V33.784l7.855,21.493Z" transform="translate(0)"/>
      <path id="Trazado_101499" data-name="Trazado 101499" d="M352.027,175.822a1.418,1.418,0,0,1-.281-.029,1.454,1.454,0,0,1-.269-.082,1.472,1.472,0,0,1-.249-.132,1.379,1.379,0,0,1-.219-.178,1.45,1.45,0,0,1-.422-1.017,1.419,1.419,0,0,1,.029-.281,1.5,1.5,0,0,1,.082-.27,1.461,1.461,0,0,1,.133-.247,1.394,1.394,0,0,1,.4-.4,1.479,1.479,0,0,1,.249-.132,1.354,1.354,0,0,1,.269-.082,1.424,1.424,0,0,1,.563,0,1.38,1.38,0,0,1,.269.082,1.458,1.458,0,0,1,.247.132,1.425,1.425,0,0,1,.4.4,1.472,1.472,0,0,1,.132.247,1.5,1.5,0,0,1,.082.27,1.408,1.408,0,0,1,.027.281,1.443,1.443,0,0,1-.422,1.017,1.379,1.379,0,0,1-.219.178,1.46,1.46,0,0,1-.247.132,1.487,1.487,0,0,1-.269.082A1.438,1.438,0,0,1,352.027,175.822Z" transform="translate(-279.971 -148.065)"/>
      <path id="Trazado_101500" data-name="Trazado 101500" d="M246.431,175.816H234.784a1.439,1.439,0,1,1,0-2.877h11.647a1.439,1.439,0,1,1,0,2.877Z" transform="translate(-179.595 -148.06)"/>
      <path id="Trazado_101501" data-name="Trazado 101501" d="M251.651,216.909H234.784a1.439,1.439,0,0,1,0-2.877h16.868a1.439,1.439,0,0,1,0,2.877Z" transform="translate(-179.595 -183.241)"/>
      <circle id="Elipse_1405" data-name="Elipse 1405" cx="6.324" cy="6.324" r="6.324" transform="translate(36.827 22.95)" fill="#4b7c91"/>
      <path id="Trazado_101502" data-name="Trazado 101502" d="M113.475,165.054a7.762,7.762,0,1,1,7.762-7.762A7.771,7.771,0,0,1,113.475,165.054Zm0-12.648a4.885,4.885,0,1,0,4.885,4.885A4.891,4.891,0,0,0,113.475,152.406Z" transform="translate(-70.324 -128.017)"/>
      <path id="Trazado_101503" data-name="Trazado 101503" d="M137.9,190.193a1.438,1.438,0,0,1-.544-.107l-1.834-.75a1.439,1.439,0,0,1,1.089-2.663l.948.388,1.816-1.816a1.439,1.439,0,0,1,2.035,2.034l-2.493,2.493A1.439,1.439,0,0,1,137.9,190.193Z" transform="translate(-95.083 -158.234)"/>
      <path id="Trazado_101504" data-name="Trazado 101504" d="M352.027,309.092a1.419,1.419,0,0,1-.281-.029,1.452,1.452,0,0,1-.269-.082,1.474,1.474,0,0,1-.249-.132,1.394,1.394,0,0,1-.4-.4,1.422,1.422,0,0,1-.133-.249,1.455,1.455,0,0,1-.082-.269,1.417,1.417,0,0,1-.029-.281,1.443,1.443,0,0,1,.029-.282,1.524,1.524,0,0,1,.082-.269,1.461,1.461,0,0,1,.133-.247,1.367,1.367,0,0,1,.178-.219,1.421,1.421,0,0,1,.468-.312,1.455,1.455,0,0,1,.269-.082,1.425,1.425,0,0,1,.563,0,1.487,1.487,0,0,1,.269.082,1.434,1.434,0,0,1,.466.312,1.386,1.386,0,0,1,.18.219,1.471,1.471,0,0,1,.132.247,1.521,1.521,0,0,1,.082.269,1.431,1.431,0,0,1,.027.282,1.416,1.416,0,0,1-.027.281,1.453,1.453,0,0,1-.082.269,1.431,1.431,0,0,1-.132.249,1.426,1.426,0,0,1-.4.4,1.46,1.46,0,0,1-.247.132,1.487,1.487,0,0,1-.269.082A1.433,1.433,0,0,1,352.027,309.092Z" transform="translate(-279.972 -262.161)"/>
      <path id="Trazado_101505" data-name="Trazado 101505" d="M246.431,309.094H234.784a1.439,1.439,0,1,1,0-2.877h11.647a1.439,1.439,0,1,1,0,2.877Z" transform="translate(-179.595 -262.164)"/>
      <path id="Trazado_101506" data-name="Trazado 101506" d="M251.651,350.186H234.784a1.439,1.439,0,0,1,0-2.877h16.868a1.439,1.439,0,0,1,0,2.877Z" transform="translate(-179.595 -297.344)"/>
      <circle id="Elipse_1406" data-name="Elipse 1406" cx="6.324" cy="6.324" r="6.324" transform="translate(36.827 42.124)" fill="#00cdb3"/>
      <path id="Trazado_101507" data-name="Trazado 101507" d="M113.475,298.331a7.762,7.762,0,1,1,7.762-7.762A7.771,7.771,0,0,1,113.475,298.331Zm0-12.648a4.885,4.885,0,1,0,4.885,4.885A4.891,4.891,0,0,0,113.475,285.683Z" transform="translate(-70.324 -242.121)"/>
      <path id="Trazado_101508" data-name="Trazado 101508" d="M137.9,323.47a1.438,1.438,0,0,1-.544-.107l-1.834-.749a1.439,1.439,0,0,1,1.089-2.663l.948.388,1.816-1.816a1.439,1.439,0,1,1,2.035,2.034l-2.493,2.493A1.439,1.439,0,0,1,137.9,323.47Z" transform="translate(-95.083 -272.337)"/>
    </g>
  </g>
</svg>
