<svg xmlns="http://www.w3.org/2000/svg" xmlns:xlink="http://www.w3.org/1999/xlink" width="346.966" height="198.857" viewBox="0 0 346.966 198.857">
  <defs>
    <clipPath id="clip-path">
      <rect width="346.966" height="198.857" fill="none"/>
    </clipPath>
  </defs>
  <g id="Cuadrícula_de_repetición_1" data-name="Cuadrícula de repetición 1" clip-path="url(#clip-path)">
    <g id="Grupo_57322" data-name="Grupo 57322" transform="translate(-424 8839.031)">
      <path id="Trazado_101748" data-name="Trazado 101748" d="M329.329,108.441H314.094a13.8,13.8,0,0,1-13.8-13.8h0a13.8,13.8,0,0,1,13.8-13.8h9.591a5.957,5.957,0,0,0,5.959-4.972,5.842,5.842,0,0,0-5.777-6.706H300.978a.69.69,0,0,1-.685-.7,14.022,14.022,0,0,0-14.022-14h-82.62a3.766,3.766,0,0,1-3.738-2.916,3.68,3.68,0,0,1,3.6-4.437h57.592a7.429,7.429,0,0,0,7.41-6.1,7.3,7.3,0,0,0-7.2-8.5H95.748a7.429,7.429,0,0,0-7.41,6.1,7.3,7.3,0,0,0,7.2,8.5h28.28a8.132,8.132,0,0,1,8.111,6.679,8,8,0,0,1-7.886,9.3H39.981A31.181,31.181,0,0,0,8.8,94.263h0A31.183,31.183,0,0,0,34.181,124.9a4.6,4.6,0,0,1,3.707,4.538v2.544a4.634,4.634,0,0,1-4.634,4.634h0a22.941,22.941,0,0,0-22.941,22.941h0a22.941,22.941,0,0,0,22.941,22.94h.083a6.9,6.9,0,0,1,6.895,6.895v.017a7.161,7.161,0,0,1-6.517,7.1,7.493,7.493,0,0,0-1.689.316,17.765,17.765,0,0,0,5.91,34.538H301.783a18.06,18.06,0,0,0,18.131-16.355c.006-.083.013-.165.018-.247a8.554,8.554,0,0,1,8.5-8.052h3.27a14.76,14.76,0,0,0,14.76-14.76h0c0-6.147-4.955-11.231-10.887-13.36a9.05,9.05,0,0,1-6.111-8.472v-.426a9.815,9.815,0,0,1,7.185-9.4,26.449,26.449,0,0,0,19.113-25.41h0A26.437,26.437,0,0,0,329.329,108.441Z" transform="translate(415.2 -8871.535)" fill="#dbf6e9"/>
      <g id="charla" transform="translate(533.984 -8794.278)">
        <g id="Grupo_57199" data-name="Grupo 57199" transform="translate(1.86 66.552)">
          <g id="Grupo_57195" data-name="Grupo 57195" transform="translate(8.519)">
            <circle id="Elipse_1417" data-name="Elipse 1417" cx="12.528" cy="12.528" r="12.528" fill="#f1d0a5"/>
          </g>
          <g id="Grupo_57196" data-name="Grupo 57196" transform="translate(10.181 1.661)">
            <path id="Trazado_101735" data-name="Trazado 101735" d="M65.642,256.637a12.526,12.526,0,0,1-17.1,17.1,12.527,12.527,0,1,0,17.1-17.1Z" transform="translate(-48.544 -256.637)" fill="#f1b986"/>
          </g>
          <g id="Grupo_57197" data-name="Grupo 57197" transform="translate(0 25.056)">
            <path id="Trazado_101736" data-name="Trazado 101736" d="M7.5,360.978V372H49.594V360.978a10.022,10.022,0,0,0-10.022-10.022H17.523A10.022,10.022,0,0,0,7.5,360.978Z" transform="translate(-7.5 -350.956)" fill="#f6e266"/>
          </g>
          <g id="Grupo_57198" data-name="Grupo 57198" transform="translate(26.058 25.056)">
            <path id="Trazado_101737" data-name="Trazado 101737" d="M118.57,350.955h-6.014a10.023,10.023,0,0,1,10.023,10.022V372h6.014V360.977A10.023,10.023,0,0,0,118.57,350.955Z" transform="translate(-112.557 -350.955)" fill="#f1d333"/>
          </g>
        </g>
        <g id="Grupo_57200" data-name="Grupo 57200" transform="translate(1.86 7.921)">
          <path id="Trazado_101738" data-name="Trazado 101738" d="M12.511,13.561H72.646a5.011,5.011,0,0,1,5.011,5.011v40.09a5.011,5.011,0,0,1-5.011,5.011H58.113L48.091,73.7V63.673H12.511A5.011,5.011,0,0,1,7.5,58.662V18.572a5.011,5.011,0,0,1,5.011-5.011Z" transform="translate(-7.5 -13.561)" fill="#c8ea73"/>
        </g>
        <g id="Grupo_57201" data-name="Grupo 57201" transform="translate(49.467 17.943)">
          <path id="Trazado_101739" data-name="Trazado 101739" d="M209.955,53.967a10.535,10.535,0,0,0-10.524,10.524V97.064l3.007-3.007H216.97a5.011,5.011,0,0,0,5.011-5.011V53.967Z" transform="translate(-199.431 -53.967)" fill="#b7e445"/>
        </g>
        <g id="Grupo_57206" data-name="Grupo 57206" transform="translate(83.042 82.087)">
          <g id="Grupo_57202" data-name="Grupo 57202" transform="translate(8.519)">
            <circle id="Elipse_1418" data-name="Elipse 1418" cx="12.528" cy="12.528" r="12.528" fill="#f1d0a5"/>
          </g>
          <g id="Grupo_57203" data-name="Grupo 57203" transform="translate(10.18 1.661)">
            <path id="Trazado_101740" data-name="Trazado 101740" d="M392.934,319.267a12.526,12.526,0,0,1-17.1,17.1,12.527,12.527,0,1,0,17.1-17.1Z" transform="translate(-375.836 -319.267)" fill="#f1b986"/>
          </g>
          <g id="Grupo_57204" data-name="Grupo 57204" transform="translate(0 25.056)">
            <path id="Trazado_101741" data-name="Trazado 101741" d="M334.793,423.608v11.025h42.094V423.608a10.023,10.023,0,0,0-10.022-10.023H344.816A10.022,10.022,0,0,0,334.793,423.608Z" transform="translate(-334.793 -413.585)" fill="#4073c8"/>
          </g>
          <g id="Grupo_57205" data-name="Grupo 57205" transform="translate(26.058 25.056)">
            <path id="Trazado_101742" data-name="Trazado 101742" d="M445.863,413.585H439.85a10.022,10.022,0,0,1,10.022,10.023v11.025h6.014V423.608A10.023,10.023,0,0,0,445.863,413.585Z" transform="translate(-439.85 -413.585)" fill="#30579d"/>
          </g>
        </g>
        <g id="Grupo_57207" data-name="Grupo 57207" transform="translate(54.979 23.455)">
          <path id="Trazado_101743" data-name="Trazado 101743" d="M286.8,76.191H226.666a5.011,5.011,0,0,0-5.011,5.011v40.09a5.011,5.011,0,0,0,5.011,5.011H241.2l10.022,10.023V126.3H286.8a5.011,5.011,0,0,0,5.011-5.011V81.2A5.011,5.011,0,0,0,286.8,76.191Z" transform="translate(-221.655 -76.191)" fill="#ecf4ff"/>
        </g>
        <g id="Grupo_57208" data-name="Grupo 57208" transform="translate(112.609 23.455)">
          <path id="Trazado_101744" data-name="Trazado 101744" d="M461.509,76.191h-7.517A5.011,5.011,0,0,1,459,81.2v40.09a5.011,5.011,0,0,1-5.011,5.011h7.517a5.011,5.011,0,0,0,5.011-5.011V81.2A5.011,5.011,0,0,0,461.509,76.191Z" transform="translate(-453.992 -76.191)" fill="#cbe2ff"/>
        </g>
        <g id="Grupo_57209" data-name="Grupo 57209" transform="translate(0 6.06)">
          <path id="Trazado_101745" data-name="Trazado 101745" d="M33.932,267.5h-1.38a14.388,14.388,0,1,0-19.289,0h-1.38A11.9,11.9,0,0,0,0,279.378V290.4a1.86,1.86,0,0,0,1.86,1.86H43.955a1.86,1.86,0,0,0,1.86-1.86V279.378A11.9,11.9,0,0,0,33.932,267.5ZM12.24,256.827A10.668,10.668,0,1,1,22.908,267.5,10.68,10.68,0,0,1,12.24,256.827Zm29.854,31.715h-6.8v-3.151a1.86,1.86,0,0,0-3.721,0v3.151H14.244v-3.151a1.86,1.86,0,0,0-3.721,0v3.151h-6.8v-9.164a8.171,8.171,0,0,1,8.162-8.162h22.05a8.171,8.171,0,0,1,8.162,8.162Z" transform="translate(0 -183.807)"/>
          <path id="Trazado_101746" data-name="Trazado 101746" d="M361.221,330.126H359.84a14.388,14.388,0,1,0-19.286,0h-1.382a11.9,11.9,0,0,0-11.884,11.881v11.025a1.86,1.86,0,0,0,1.86,1.86h16.708a1.86,1.86,0,0,0,0-3.721h-4.323v-3.151a1.86,1.86,0,0,0-3.721,0v3.151h-6.8v-9.165a8.171,8.171,0,0,1,8.163-8.161h22.048a8.171,8.171,0,0,1,8.163,8.161v9.165h-6.8v-3.151a1.86,1.86,0,0,0-3.721,0v3.151h-4.322a1.86,1.86,0,0,0,0,3.721h16.705a1.86,1.86,0,0,0,1.86-1.86V342.008A11.9,11.9,0,0,0,361.221,330.126ZM339.53,319.457A10.668,10.668,0,1,1,350.2,330.125,10.68,10.68,0,0,1,339.53,319.457Z" transform="translate(-246.108 -230.903)"/>
          <path id="Trazado_101747" data-name="Trazado 101747" d="M120.126,21.595H98.274a1.86,1.86,0,0,0,0,3.721h21.852a3.154,3.154,0,0,1,3.15,3.15V68.556a3.154,3.154,0,0,1-3.15,3.15H84.545a1.86,1.86,0,0,0-1.86,1.86V79.1l-6.845-6.847a1.86,1.86,0,0,0-1.316-.545H59.991a3.155,3.155,0,0,1-3.153-3.15V28.466a3.155,3.155,0,0,1,3.153-3.15h29.6a1.86,1.86,0,0,0,0-3.721H73.879V12.931A6.88,6.88,0,0,0,67.006,6.06H6.871A6.879,6.879,0,0,0,0,12.931V53.022a6.879,6.879,0,0,0,6.871,6.871H17.306a1.86,1.86,0,0,0,0-3.721H6.871a3.154,3.154,0,0,1-3.15-3.15V12.931a3.154,3.154,0,0,1,3.15-3.15H67.006a3.155,3.155,0,0,1,3.153,3.15v8.664H59.991a6.88,6.88,0,0,0-6.873,6.871V56.172h-.645a1.862,1.862,0,0,0-1.316.545l-6.845,6.847V58.032a1.86,1.86,0,0,0-1.86-1.86H25.987a1.86,1.86,0,0,0,0,3.721h14.6v8.163a1.86,1.86,0,0,0,3.176,1.315l9.35-9.353v8.538a6.88,6.88,0,0,0,6.873,6.871H73.753l9.476,9.478a1.86,1.86,0,0,0,3.176-1.315V75.427h33.721A6.879,6.879,0,0,0,127,68.556V28.466a6.879,6.879,0,0,0-6.871-6.871Z" transform="translate(0 -6.06)"/>
        </g>
      </g>
    </g>
  </g>
</svg>
