<svg xmlns="http://www.w3.org/2000/svg" width="346.966" height="198.857" viewBox="0 0 346.966 198.857">
  <g id="Grupo_57324" data-name="Grupo 57324" transform="translate(-424 8376.031)">
    <path id="Trazado_101748" data-name="Trazado 101748" d="M329.329,108.441H314.094a13.8,13.8,0,0,1-13.8-13.8h0a13.8,13.8,0,0,1,13.8-13.8h9.591a5.957,5.957,0,0,0,5.959-4.972,5.842,5.842,0,0,0-5.777-6.706H300.978a.69.69,0,0,1-.685-.7,14.022,14.022,0,0,0-14.022-14h-82.62a3.766,3.766,0,0,1-3.738-2.916,3.68,3.68,0,0,1,3.6-4.437h57.592a7.429,7.429,0,0,0,7.41-6.1,7.3,7.3,0,0,0-7.2-8.5H95.748a7.429,7.429,0,0,0-7.41,6.1,7.3,7.3,0,0,0,7.2,8.5h28.28a8.132,8.132,0,0,1,8.111,6.679,8,8,0,0,1-7.886,9.3H39.981A31.181,31.181,0,0,0,8.8,94.263h0A31.183,31.183,0,0,0,34.181,124.9a4.6,4.6,0,0,1,3.707,4.538v2.544a4.634,4.634,0,0,1-4.634,4.634h0a22.941,22.941,0,0,0-22.941,22.941h0a22.941,22.941,0,0,0,22.941,22.94h.083a6.9,6.9,0,0,1,6.895,6.895v.017a7.161,7.161,0,0,1-6.517,7.1,7.493,7.493,0,0,0-1.689.316,17.765,17.765,0,0,0,5.91,34.538H301.783a18.06,18.06,0,0,0,18.131-16.355c.006-.083.013-.165.018-.247a8.554,8.554,0,0,1,8.5-8.052h3.27a14.76,14.76,0,0,0,14.76-14.76h0c0-6.147-4.955-11.231-10.887-13.36a9.05,9.05,0,0,1-6.111-8.472v-.426a9.815,9.815,0,0,1,7.185-9.4,26.449,26.449,0,0,0,19.113-25.41h0A26.437,26.437,0,0,0,329.329,108.441Z" transform="translate(415.2 -8408.535)" fill="#dbf6e9"/>
    <g id="grupo_2_" data-name="grupo (2)" transform="translate(526.027 -8324.883)">
      <path id="Trazado_101844" data-name="Trazado 101844" d="M313.226,170.7V158.706a8.883,8.883,0,0,0-1.7-5.258,9.011,9.011,0,0,0-4.457-3.286l-1.7-1.7.329-.349,13.7-4.108s2.054,4.108,6.162,4.108S331.711,144,331.711,144l14.685,4.4a8.238,8.238,0,0,1,5.854,7.887v16.472H337.873V170.7a12.323,12.323,0,0,0-24.647,0Zm0,0" transform="translate(-226.962 -107.03)" fill="#ff826e"/>
      <path id="Trazado_101845" data-name="Trazado 101845" d="M47.024,163.738V170.7a12.323,12.323,0,0,0-24.647,0v2.054H8V156.282a8.238,8.238,0,0,1,5.854-7.887L28.539,144s2.054,4.108,6.162,4.108S40.863,144,40.863,144l13,3.9A21.682,21.682,0,0,0,47.024,163.738Zm0,0" transform="translate(-5.946 -107.03)" fill="#ff826e"/>
      <path id="Trazado_101846" data-name="Trazado 101846" d="M333.386,364.755h-10.27a4.12,4.12,0,0,0-4.108,4.108v-12.8a12.322,12.322,0,0,0-9.551-11.995l-12.817-2.957-.082-.021a8.569,8.569,0,0,1,1.6-.7l14.685-4.4s2.054,4.108,6.162,4.108S325.17,336,325.17,336l14.685,4.4a8.238,8.238,0,0,1,5.854,7.887v16.472Zm0,0" transform="translate(-220.42 -249.736)" fill="#b4dd7f"/>
      <path id="Trazado_101847" data-name="Trazado 101847" d="M57.088,341.115l-12.837,2.957a12.322,12.322,0,0,0-9.55,11.995v12.8a4.12,4.12,0,0,0-4.108-4.108H8V348.282a8.238,8.238,0,0,1,5.854-7.887L28.539,336s2.054,4.108,6.162,4.108S40.863,336,40.863,336l14.685,4.4a8.569,8.569,0,0,1,1.6.7Zm0,0" transform="translate(-5.946 -249.736)" fill="#b4dd7f"/>
      <path id="Trazado_101848" data-name="Trazado 101848" d="M126.377,386.917H112V367.959a12.322,12.322,0,0,1,9.55-11.995l12.837-2.958L138.7,352h16.431l4.313,1.047.02-.04,12.817,2.958a12.322,12.322,0,0,1,9.55,11.995v18.958Zm0,0" transform="translate(-83.245 -261.628)" fill="#e6e9ed"/>
      <path id="Trazado_101849" data-name="Trazado 101849" d="M234.27,416l2.054,18.485H224L226.054,416Zm0,0" transform="translate(-166.49 -309.197)" fill="#ff826e"/>
      <path id="Trazado_101850" data-name="Trazado 101850" d="M235.974,379.8l-.185.308-2.054,6.162H225.52l-2.054-6.162-.185-.308,6.346-3.8Zm0,0" transform="translate(-165.956 -279.466)" fill="#ff826e"/>
      <path id="Trazado_101851" data-name="Trazado 101851" d="M260.467,352.986l.082.021-.02.04-2.259,11.276-3.923-2.362-6.346-3.8L256.216,352Zm0,0" transform="translate(-184.329 -261.628)" fill="#ccd1d9"/>
      <path id="Trazado_101852" data-name="Trazado 101852" d="M199.261,352.986l4.251-.986,8.216,6.162-6.346,3.8-3.923,2.362L199.2,353.007Zm0,0" transform="translate(-148.057 -261.628)" fill="#ccd1d9"/>
      <path id="Trazado_101853" data-name="Trazado 101853" d="M360.647,20.323v2.054h-3.265a7.012,7.012,0,0,1-4.95-2.054,7.012,7.012,0,0,1-4.95,2.054H336V20.323a12.323,12.323,0,0,1,24.647,0Zm0,0" transform="translate(-249.736 -5.946)" fill="#b27946"/>
      <path id="Trazado_101854" data-name="Trazado 101854" d="M88.647,22.377H77.166a7.012,7.012,0,0,1-4.95-2.054,7.012,7.012,0,0,1-4.95,2.054H64V20.323a12.323,12.323,0,0,1,24.647,0Zm0,0" transform="translate(-47.569 -5.946)" fill="#b27946"/>
      <path id="Trazado_101855" data-name="Trazado 101855" d="M360,121.52a12.242,12.242,0,0,0,12.323,0v5.772s-2.054,4.108-6.162,4.108S360,127.291,360,127.291Zm0,0" transform="translate(-267.574 -90.321)" fill="#f0d0b4"/>
      <path id="Trazado_101856" data-name="Trazado 101856" d="M354.485,72.821a12.242,12.242,0,0,1-12.324,0A12.291,12.291,0,0,1,336,62.162V58.054h11.481A7.012,7.012,0,0,0,352.431,56a7.012,7.012,0,0,0,4.95,2.054h3.265v4.108a12.211,12.211,0,0,1-3.614,8.709A11.832,11.832,0,0,1,354.485,72.821Zm0,0" transform="translate(-249.736 -41.623)" fill="#f0d0b4"/>
      <path id="Trazado_101857" data-name="Trazado 101857" d="M88,121.52l6.162,1.664a12.029,12.029,0,0,0,6.162-1.664v5.772S98.27,131.4,94.162,131.4,88,127.291,88,127.291Zm0,0" transform="translate(-65.407 -90.321)" fill="#f0d0b4"/>
      <path id="Trazado_101858" data-name="Trazado 101858" d="M82.485,72.821a12.029,12.029,0,0,1-6.162,1.664l-6.162-1.664a11.831,11.831,0,0,1-2.547-1.951A12.211,12.211,0,0,1,64,62.162V58.054h3.265A7.012,7.012,0,0,0,72.216,56a7.012,7.012,0,0,0,4.95,2.054H88.647v4.108A12.291,12.291,0,0,1,82.485,72.821Zm0,0" transform="translate(-47.569 -41.623)" fill="#f0d0b4"/>
      <path id="Trazado_101859" data-name="Trazado 101859" d="M344.216,212.323a7.012,7.012,0,0,1-4.95,2.054H336v-2.054a12.323,12.323,0,0,1,24.647,0v2.054H349.166A7.012,7.012,0,0,1,344.216,212.323Zm0,0" transform="translate(-249.736 -148.652)" fill="#b27946"/>
      <path id="Trazado_101860" data-name="Trazado 101860" d="M85.382,214.377a7.012,7.012,0,0,1-4.95-2.054,7.012,7.012,0,0,1-4.95,2.054H64v-2.054a12.323,12.323,0,0,1,24.647,0v2.054Zm0,0" transform="translate(-47.569 -148.652)" fill="#b27946"/>
      <path id="Trazado_101861" data-name="Trazado 101861" d="M166.84,141.956a21.74,21.74,0,0,1,23.291-4.292,21.99,21.99,0,0,1,7.065,4.724l1.828,1.828a9.011,9.011,0,0,1,4.457,3.286,8.883,8.883,0,0,1,1.7,5.258v16.1c0-.267-.02-.534-.041-.8a8.4,8.4,0,0,0-8.175-7.394,2.04,2.04,0,0,0-.349-.02h-3.759l-2.054-4.108a24.533,24.533,0,0,1-13.576,4.108h-8.668a2.04,2.04,0,0,0-.349.02,8.4,8.4,0,0,0-8.175,7.394c-.021.268-.041.535-.041.8V157.792A21.682,21.682,0,0,1,166.84,141.956Zm0,0" transform="translate(-118.922 -101.083)" fill="#fcd770"/>
      <g id="Grupo_57217" data-name="Grupo 57217" transform="translate(16.431 55.456)">
        <path id="Trazado_101862" data-name="Trazado 101862" d="M360,313.52a12.242,12.242,0,0,0,12.323,0v5.772s-2.054,4.108-6.162,4.108S360,319.291,360,319.291Zm0,0" transform="translate(-284.005 -288.482)" fill="#f0d0b4"/>
        <path id="Trazado_101863" data-name="Trazado 101863" d="M88,313.52l6.162,1.664a12.029,12.029,0,0,0,6.162-1.664v5.772S98.27,323.4,94.162,323.4,88,319.291,88,319.291Zm0,0" transform="translate(-81.838 -288.482)" fill="#f0d0b4"/>
        <path id="Trazado_101864" data-name="Trazado 101864" d="M82.485,264.821a12.028,12.028,0,0,1-6.162,1.664l-6.162-1.664a11.832,11.832,0,0,1-2.547-1.951A12.211,12.211,0,0,1,64,254.162v-4.108H75.481A7.012,7.012,0,0,0,80.431,248a7.012,7.012,0,0,0,4.95,2.054h3.265v4.108A12.291,12.291,0,0,1,82.485,264.821Zm0,0" transform="translate(-64 -239.784)" fill="#f0d0b4"/>
        <path id="Trazado_101865" data-name="Trazado 101865" d="M342.162,264.821A12.291,12.291,0,0,1,336,254.162v-4.108h3.265a7.012,7.012,0,0,0,4.95-2.054,7.012,7.012,0,0,0,4.95,2.054h11.481v4.108a12.211,12.211,0,0,1-3.614,8.709,11.832,11.832,0,0,1-2.547,1.951,12.242,12.242,0,0,1-12.324,0Zm0,0" transform="translate(-266.167 -239.784)" fill="#f0d0b4"/>
        <path id="Trazado_101866" data-name="Trazado 101866" d="M216,333.032v-6.162l.185-.39c6.059,2.342,7.045,2.444,8.031,2.444a14.317,14.317,0,0,0,8.031-2.444l.185.39v6.162l-8.216,6.162Zm0,0" transform="translate(-176.976 -298.116)" fill="#f0d0b4"/>
        <path id="Trazado_101867" data-name="Trazado 101867" d="M310.61,240.274v.02a8.209,8.209,0,0,1-8.216,8.2l-.555-.143a14,14,0,0,0,.555-3.964v-12.3a8.4,8.4,0,0,1,8.175,7.394C310.59,239.74,310.61,240.007,310.61,240.274Zm0,0" transform="translate(-240.777 -227.95)" fill="#f0d0b4"/>
        <path id="Trazado_101868" data-name="Trazado 101868" d="M168.216,244.382a14,14,0,0,0,.555,3.964l-.555.143a8.209,8.209,0,0,1-8.216-8.2v-.02c0-.267.02-.534.041-.8a8.4,8.4,0,0,1,8.175-7.394Zm0,0" transform="translate(-135.353 -227.95)" fill="#f0d0b4"/>
        <path id="Trazado_101869" data-name="Trazado 101869" d="M220.755,220.128v12.3a14,14,0,0,1-.555,3.964,14.357,14.357,0,0,1-13.823,10.413c-.986,0-1.972-.1-8.031-2.444a14.9,14.9,0,0,1-2.136-1.766,14.305,14.305,0,0,1-3.656-6.2,14,14,0,0,1-.555-3.964v-12.3a2.037,2.037,0,0,1,.349-.02h8.668A24.533,24.533,0,0,0,214.593,216l2.054,4.108h3.759A2.037,2.037,0,0,1,220.755,220.128Zm0,0" transform="translate(-159.137 -216)" fill="#f0d0b4"/>
      </g>
      <path id="Trazado_101870" data-name="Trazado 101870" d="M127.343,65.725V49.245a10.206,10.206,0,0,0-7.318-9.836L106.8,35.442v-3.12a14.362,14.362,0,0,0,6.162-11.781V14.377a14.377,14.377,0,0,0-28.755,0v6.162A14.356,14.356,0,0,0,90.372,32.32v3.12l-11.652,3.5a23.736,23.736,0,0,0-31.3-.359L36.97,35.442v-3.12a14.362,14.362,0,0,0,6.162-11.781V14.377a14.377,14.377,0,0,0-28.755,0v6.162A14.356,14.356,0,0,0,20.539,32.32v3.12L7.318,39.406A10.211,10.211,0,0,0,0,49.245v16.48H4.108V49.245a6.121,6.121,0,0,1,4.392-5.9l13.225-3.968a8.933,8.933,0,0,0,7.03,3.757,8.933,8.933,0,0,0,7.03-3.757L44.208,41.9a23.707,23.707,0,0,0-5,11.933,14.358,14.358,0,0,0-24.835,9.836v6.162a14.356,14.356,0,0,0,6.162,11.781v3.12L7.318,88.7A10.211,10.211,0,0,0,0,98.539v18.534H24.647a2.058,2.058,0,0,1,2.054,2.054v8.216h73.941v-8.216a2.058,2.058,0,0,1,2.054-2.054h24.647V98.539a10.206,10.206,0,0,0-7.318-9.836L106.8,84.736v-3.12a14.362,14.362,0,0,0,6.162-11.781V63.673A14.365,14.365,0,0,0,88.318,53.629V51.683a11.045,11.045,0,0,0-5.644-9.639l8.884-2.667a8.458,8.458,0,0,0,14.06,0l13.227,3.968a6.121,6.121,0,0,1,4.39,5.9v16.48ZM28.755,4.108a10.282,10.282,0,0,1,10.27,10.27H29.605A4.992,4.992,0,0,1,26.1,12.925l-1.452-1.452-1.452,1.452a4.992,4.992,0,0,1-3.506,1.452h-1.2A10.282,10.282,0,0,1,28.755,4.108ZM18.485,20.539V18.485h1.2a8.995,8.995,0,0,0,4.958-1.472,8.995,8.995,0,0,0,4.958,1.472h9.419v2.054a10.27,10.27,0,1,1-20.539,0Zm10.27,18.485c-2.183,0-3.6-1.834-4.108-2.619V34.313a14.254,14.254,0,0,0,8.216,0V36.4C32.353,37.192,30.938,39.024,28.755,39.024Zm56.458,36.05a14.44,14.44,0,0,0,5.16,6.542v3.12L77.153,88.7a10.084,10.084,0,0,0-1.272.484l-1.941-.447V84.693a16.517,16.517,0,0,0,4.987-6.736A10.228,10.228,0,0,0,85.212,75.074ZM63.671,88.318a16.318,16.318,0,0,0,6.162-1.209v2.236l-6.162,4.621L57.51,89.345V87.109A16.318,16.318,0,0,0,63.671,88.318Zm-8.684,4.27,5.007,3.757-5.151,3.091-1.3-6.513ZM61.4,108.857h4.539l1.6,14.377H59.8Zm4.9-4.108H61.043l-1.179-3.537,3.808-2.284,3.806,2.284Zm1.05-8.4,5.007-3.757,1.446.333-1.3,6.513ZM82.609,71.924a6.16,6.16,0,0,1-2.594,1.66,16.655,16.655,0,0,0,.088-1.7V62.059a6.2,6.2,0,0,1,4.077,5.107A6.127,6.127,0,0,1,82.609,71.924Zm-6.614-.037a12.323,12.323,0,0,1-24.647,0V61.617h6.973a26.415,26.415,0,0,0,12.726-3.251l1.625,3.251h3.324Zm-28.667,1.7a6.072,6.072,0,0,1-.088-11.523v9.826A16.655,16.655,0,0,0,47.328,73.584Zm1.086,4.373A16.482,16.482,0,0,0,53.4,84.693v4.047l-1.941.447a10.627,10.627,0,0,0-1.27-.484L36.97,84.736v-3.12a14.453,14.453,0,0,0,5.16-6.542A10.228,10.228,0,0,0,48.414,77.956ZM28.755,53.4a10.282,10.282,0,0,1,10.27,10.27h-1.2a4.993,4.993,0,0,1-3.506-1.452l-1.452-1.452L31.41,62.219A4.993,4.993,0,0,1,27.9,63.671H18.485A10.282,10.282,0,0,1,28.755,53.4ZM18.485,69.833V67.779H27.9a8.995,8.995,0,0,0,4.958-1.472,8.995,8.995,0,0,0,4.958,1.472h1.2v2.054a10.27,10.27,0,1,1-20.539,0ZM28.755,84.21a14.291,14.291,0,0,0,4.108-.606V85.7c-.509.788-1.925,2.621-4.108,2.621s-3.6-1.834-4.108-2.619V83.607A14.36,14.36,0,0,0,28.755,84.21Zm-4.108,28.755H16.431V98.588H12.323v14.377H4.108V98.539a6.121,6.121,0,0,1,4.392-5.9l13.225-3.968a8.933,8.933,0,0,0,7.03,3.757,8.933,8.933,0,0,0,7.03-3.757l7.788,2.338-5.728,1.321A14.314,14.314,0,0,0,26.7,106.337v2.52h4.108v-2.52A10.225,10.225,0,0,1,38.77,96.33l10.767-2.485,2.421,12.11,4.3-2.577,1.215,3.648-1.8,16.21H45.186V106.8H41.078v16.431H30.809v-4.108A6.17,6.17,0,0,0,24.647,112.965Zm94.2-20.328a6.121,6.121,0,0,1,4.392,5.9v14.427h-8.216V98.588h-4.108v14.377H102.7a6.17,6.17,0,0,0-6.162,6.162v4.108H86.264V106.8H82.157v16.431H71.671l-1.8-16.21,1.215-3.648,4.3,2.577L77.8,93.845,88.573,96.33a10.225,10.225,0,0,1,7.961,10.007v2.52h4.108v-2.52A14.314,14.314,0,0,0,89.5,92.328l-5.728-1.321,7.788-2.338a8.456,8.456,0,0,0,14.06,0ZM102.7,85.7c-.509.786-1.925,2.619-4.108,2.619s-3.6-1.84-4.108-2.619V83.6a14.231,14.231,0,0,0,8.216,0Zm-4.108-5.6a10.282,10.282,0,0,1-10.27-10.27V67.779h1.2a8.995,8.995,0,0,0,4.958-1.472,8.995,8.995,0,0,0,4.958,1.472h9.419v2.054A10.282,10.282,0,0,1,98.588,80.1Zm0-26.7a10.282,10.282,0,0,1,10.27,10.27H99.438a4.992,4.992,0,0,1-3.506-1.452L94.48,60.767l-1.452,1.452a4.992,4.992,0,0,1-3.506,1.452h-1.2A10.282,10.282,0,0,1,98.588,53.4ZM84.21,59.738A10.79,10.79,0,0,0,77.7,57.51H75.211l-2.526-5.053-1.936,1.29A22.33,22.33,0,0,1,58.321,57.51H49.647a10.79,10.79,0,0,0-6.515,2.228V56.7A19.731,19.731,0,0,1,76.814,42.748l2.179,2.179.46.154a6.949,6.949,0,0,1,4.757,6.6ZM98.588,4.108a10.282,10.282,0,0,1,10.27,10.27h-1.2a4.992,4.992,0,0,1-3.506-1.452L102.7,11.473l-1.452,1.452a4.992,4.992,0,0,1-3.506,1.452H88.318A10.282,10.282,0,0,1,98.588,4.108ZM88.318,20.539V18.485h9.419a8.995,8.995,0,0,0,4.958-1.472,8.995,8.995,0,0,0,4.958,1.472h1.2v2.054a10.27,10.27,0,1,1-20.539,0Zm10.27,18.485c-2.187,0-3.6-1.84-4.108-2.619v-2.1a14.231,14.231,0,0,0,8.216,0V36.4C102.186,37.192,100.771,39.024,98.588,39.024Zm0,0"/>
      <path id="Trazado_101871" data-name="Trazado 101871" d="M184,0h4.108V4.108H184Zm0,0" transform="translate(-136.76)"/>
      <path id="Trazado_101872" data-name="Trazado 101872" d="M184,32h4.108V54.593H184Zm0,0" transform="translate(-136.76 -23.784)"/>
      <path id="Trazado_101873" data-name="Trazado 101873" d="M296,0h4.108V4.108H296Zm0,0" transform="translate(-220.005)"/>
      <path id="Trazado_101874" data-name="Trazado 101874" d="M296,32h4.108V54.593H296Zm0,0" transform="translate(-220.005 -23.784)"/>
      <path id="Trazado_101875" data-name="Trazado 101875" d="M216,32h4.108V46.377H216Zm0,0" transform="translate(-160.544 -23.784)"/>
      <path id="Trazado_101876" data-name="Trazado 101876" d="M216,104h4.108v4.108H216Zm0,0" transform="translate(-160.544 -77.299)"/>
      <path id="Trazado_101877" data-name="Trazado 101877" d="M264,32h4.108V46.377H264Zm0,0" transform="translate(-196.221 -23.784)"/>
      <path id="Trazado_101878" data-name="Trazado 101878" d="M264,104h4.108v4.108H264Zm0,0" transform="translate(-196.221 -77.299)"/>
    </g>
  </g>
</svg>
