<svg xmlns="http://www.w3.org/2000/svg" width="103" height="103" viewBox="0 0 103 103">
  <g id="Grupo_57165" data-name="Grupo 57165" transform="translate(-744 -4576)">
    <g id="Grupo_57157" data-name="Grupo 57157">
      <circle id="Elipse_1413" data-name="Elipse 1413" cx="51.5" cy="51.5" r="51.5" transform="translate(744 4576)" fill="#9ddfd3"/>
      <g id="megafono" transform="translate(759.629 4584.712)">
        <path id="Trazado_101593" data-name="Trazado 101593" d="M68.405,52.807a3.809,3.809,0,0,1-3.151,5.711,74.834,74.834,0,0,0-31.187,8.167L30.742,68.6c0,.015-.046-.078,8.05,14a2.694,2.694,0,0,1-.985,3.678L35.184,87.8a2.692,2.692,0,0,1-3.677-.986L23.432,72.824l-1.311.758a5.386,5.386,0,0,1-7.355-1.971L8.71,61.121a5.386,5.386,0,0,1,1.971-7.355l11.947-6.9A74.845,74.845,0,0,0,45.294,23.944a3.809,3.809,0,0,1,6.521.127L57,33.048A6.225,6.225,0,1,1,63.222,43.83Z" transform="translate(-6.794 -11.804)" fill="#d6f4fc"/>
        <path id="Trazado_101594" data-name="Trazado 101594" d="M344.39,92.5a6.225,6.225,0,0,1-2.279,8.5l-6.225-10.782A6.227,6.227,0,0,1,344.39,92.5Z" transform="translate(-285.683 -68.978)" fill="#4d4e59"/>
        <path id="Trazado_101595" data-name="Trazado 101595" d="M51.815,24.071a3.771,3.771,0,0,1-.122,3.97,87.7,87.7,0,0,1-25.4,25.081l-14,8.081a6.282,6.282,0,0,0-2.254,2.215l-1.327-2.3a5.386,5.386,0,0,1,1.971-7.355l11.947-6.9A74.845,74.845,0,0,0,45.294,23.944a3.809,3.809,0,0,1,6.521.127Z" transform="translate(-6.794 -11.804)" fill="#e8f8fc"/>
        <path id="Trazado_101596" data-name="Trazado 101596" d="M22.628,187.442l11.44,19.816c-2.292,1.323-9.657,5.574-11.947,6.9a5.386,5.386,0,0,1-7.355-1.971L8.71,201.695a5.386,5.386,0,0,1,1.971-7.355Z" transform="translate(-6.794 -152.377)" fill="#fe4f60"/>
        <path id="Trazado_101597" data-name="Trazado 101597" d="M26.25,193.717c-15.2,8.776-14.194,8.165-14.684,8.547a1.934,1.934,0,0,1-2.857-.57,5.386,5.386,0,0,1,1.971-7.355l11.947-6.9Z" transform="translate(-6.793 -152.376)" fill="#ff6d7a"/>
        <path id="Trazado_101598" data-name="Trazado 101598" d="M120.8,336.658c-4.253,2.463-1.124.65-7.3,4.216l-2.185-3.783,7.31-4.219Z" transform="translate(-94.678 -276.071)" fill="#bdeffc"/>
        <path id="Trazado_101599" data-name="Trazado 101599" d="M344.018,99.51a6.156,6.156,0,0,1-1.907,1.71l-6.225-10.782a6.175,6.175,0,0,1,2.435-.8Z" transform="translate(-285.683 -69.194)" fill="#42434d"/>
        <path id="Trazado_101600" data-name="Trazado 101600" d="M58.013,32.379a7.42,7.42,0,0,0-7.323-12.684L46.056,11.67a5.005,5.005,0,0,0-8.569-.168,73.627,73.627,0,0,1-22.3,22.56,1.2,1.2,0,0,0-.4,1.574c.049.089,7.723,13.38,7.774,13.468a1.2,1.2,0,1,0,2.071-1.2l-7.2-12.465A75.981,75.981,0,0,0,39.511,12.777a2.613,2.613,0,0,1,4.475.088L60.575,41.6a2.614,2.614,0,0,1-2.161,3.92,76.021,76.021,0,0,0-31.685,8.3c-.042.021-11.23,6.482-12,6.927A4.192,4.192,0,0,1,9.008,59.21L2.951,48.72A4.193,4.193,0,0,1,4.484,43l7.289-4.208a1.2,1.2,0,0,0-1.2-2.071L3.289,40.928A6.587,6.587,0,0,0,.88,49.915l6.057,10.49a6.587,6.587,0,0,0,8.988,2.408l.276-.159,7.477,12.951a3.885,3.885,0,0,0,5.31,1.423l2.623-1.514a3.885,3.885,0,0,0,1.423-5.31l-5.3-9.179a1.2,1.2,0,0,0-2.071,1.2l5.3,9.179a1.5,1.5,0,0,1-.548,2.044l-2.623,1.514a1.5,1.5,0,0,1-2.044-.548L18.271,61.459l9.574-5.528a73.624,73.624,0,0,1,30.662-8.022,5,5,0,0,0,4.138-7.5Zm-.342-8.258a5.037,5.037,0,0,1-.878,6.147l-4.885-8.462A5.028,5.028,0,0,1,57.671,24.121ZM69.366,18.8l-3.094,1.786a1.2,1.2,0,1,1-1.2-2.071l3.094-1.786a1.2,1.2,0,1,1,1.2,2.071Zm-13.3-6.815.754-2.815a1.2,1.2,0,1,1,2.31.619l-.754,2.815a1.2,1.2,0,1,1-2.31-.619ZM71.7,31.572a1.2,1.2,0,0,1-1.154.886,19.62,19.62,0,0,1-3.126-.8,1.2,1.2,0,0,1,.619-2.31l2.815.754a1.2,1.2,0,0,1,.846,1.465Z" transform="translate(0 0)"/>
      </g>
    </g>
  </g>
</svg>
