<svg xmlns="http://www.w3.org/2000/svg" width="346.966" height="198.857" viewBox="0 0 346.966 198.857">
  <g id="Grupo_57325" data-name="Grupo 57325" transform="translate(-424 8143.031)">
    <path id="Trazado_101748" data-name="Trazado 101748" d="M329.329,108.441H314.094a13.8,13.8,0,0,1-13.8-13.8h0a13.8,13.8,0,0,1,13.8-13.8h9.591a5.957,5.957,0,0,0,5.959-4.972,5.842,5.842,0,0,0-5.777-6.706H300.978a.69.69,0,0,1-.685-.7,14.022,14.022,0,0,0-14.022-14h-82.62a3.766,3.766,0,0,1-3.738-2.916,3.68,3.68,0,0,1,3.6-4.437h57.592a7.429,7.429,0,0,0,7.41-6.1,7.3,7.3,0,0,0-7.2-8.5H95.748a7.429,7.429,0,0,0-7.41,6.1,7.3,7.3,0,0,0,7.2,8.5h28.28a8.132,8.132,0,0,1,8.111,6.679,8,8,0,0,1-7.886,9.3H39.981A31.181,31.181,0,0,0,8.8,94.263h0A31.183,31.183,0,0,0,34.181,124.9a4.6,4.6,0,0,1,3.707,4.538v2.544a4.634,4.634,0,0,1-4.634,4.634h0a22.941,22.941,0,0,0-22.941,22.941h0a22.941,22.941,0,0,0,22.941,22.94h.083a6.9,6.9,0,0,1,6.895,6.895v.017a7.161,7.161,0,0,1-6.517,7.1,7.493,7.493,0,0,0-1.689.316,17.765,17.765,0,0,0,5.91,34.538H301.783a18.06,18.06,0,0,0,18.131-16.355c.006-.083.013-.165.018-.247a8.554,8.554,0,0,1,8.5-8.052h3.27a14.76,14.76,0,0,0,14.76-14.76h0c0-6.147-4.955-11.231-10.887-13.36a9.05,9.05,0,0,1-6.111-8.472v-.426a9.815,9.815,0,0,1,7.185-9.4,26.449,26.449,0,0,0,19.113-25.41h0A26.437,26.437,0,0,0,329.329,108.441Z" transform="translate(415.2 -8175.535)" fill="#dbf6e9"/>
    <g id="grupo" transform="translate(524 -8099.009)">
      <path id="Trazado_101553" data-name="Trazado 101553" d="M42.24,104.879h-26.8a2.109,2.109,0,0,1-2.109-2.109V96.853A15.512,15.512,0,0,1,28.838,81.341h0A15.512,15.512,0,0,1,44.35,96.853v5.917A2.11,2.11,0,0,1,42.24,104.879Z" transform="translate(-9.712 -59.134)" fill="#c3da40"/>
      <path id="Trazado_101554" data-name="Trazado 101554" d="M140.171,271.929c-3-1.984-4.935-4.258-5.738-6.76a13.82,13.82,0,0,1-8.323-12.821,13.666,13.666,0,0,1,13.428-13.862h17.089a13.869,13.869,0,0,1,0,27.724H143.375a13.31,13.31,0,0,0,.137,3.542l.614,3.622a.578.578,0,0,1-.889.58Z" transform="translate(-91.91 -173.663)" fill="#ff62a7"/>
      <path id="Trazado_101555" data-name="Trazado 101555" d="M191.581,252.349a13.666,13.666,0,0,0-13.428-13.862H161.064a12.989,12.989,0,0,0-5.418,1.183,22.032,22.032,0,0,0,22.08,20.44h11.547A14.1,14.1,0,0,0,191.581,252.349Z" transform="translate(-113.436 -173.664)" fill="#fc5479"/>
      <path id="Trazado_101556" data-name="Trazado 101556" d="M217.9,219.558a16.252,16.252,0,0,0,.372-5.373H201.678a17,17,0,1,1-.258-34.005h21.448a17.157,17.157,0,0,1,17.239,16.8,16.939,16.939,0,0,1-10.554,15.937c-1.394,4.222-5.361,7.233-8.451,9.017l-3.183,1.838a.578.578,0,0,1-.853-.632Z" transform="translate(-134.405 -131.169)" fill="#31d2f7"/>
      <path id="Trazado_101557" data-name="Trazado 101557" d="M198.316,202.065a17.021,17.021,0,0,1,17-17.266h19.339a17.338,17.338,0,0,0-11.788-4.619H201.419a17,17,0,1,0,.258,34.005h2.1A16.8,16.8,0,0,1,198.316,202.065Z" transform="translate(-134.405 -131.169)" fill="#13ace8"/>
      <path id="Trazado_101558" data-name="Trazado 101558" d="M412.723,104.879h-26.8a2.109,2.109,0,0,1-2.109-2.109V96.853a15.512,15.512,0,0,1,15.512-15.512h0a15.512,15.512,0,0,1,15.512,15.512v5.917A2.11,2.11,0,0,1,412.723,104.879Z" transform="translate(-279.724 -59.134)" fill="#ffcf59"/>
      <path id="Trazado_101559" data-name="Trazado 101559" d="M42.24,410.407h-26.8a2.109,2.109,0,0,1-2.109-2.109v-5.917a15.512,15.512,0,0,1,15.512-15.512h0A15.512,15.512,0,0,1,44.35,402.381V408.3A2.11,2.11,0,0,1,42.24,410.407Z" transform="translate(-9.712 -281.806)" fill="#ff62a7"/>
      <path id="Trazado_101560" data-name="Trazado 101560" d="M412.723,410.407h-26.8a2.109,2.109,0,0,1-2.109-2.109v-5.917a15.512,15.512,0,0,1,15.512-15.512h0a15.512,15.512,0,0,1,15.512,15.512V408.3A2.11,2.11,0,0,1,412.723,410.407Z" transform="translate(-279.724 -281.806)" fill="#31d2f7"/>
      <path id="Trazado_101561" data-name="Trazado 101561" d="M25.245,102.77V96.853A15.515,15.515,0,0,1,34.8,82.529a15.462,15.462,0,0,0-5.96-1.188h0A15.512,15.512,0,0,0,13.325,96.853v5.917a2.109,2.109,0,0,0,2.109,2.109h11.92A2.109,2.109,0,0,1,25.245,102.77Z" transform="translate(-9.711 -59.134)" fill="#adbc15"/>
      <path id="Trazado_101562" data-name="Trazado 101562" d="M395.727,102.77V96.853a15.515,15.515,0,0,1,9.552-14.323,15.463,15.463,0,0,0-5.96-1.188h0a15.512,15.512,0,0,0-15.512,15.512v5.917a2.109,2.109,0,0,0,2.109,2.109h11.92A2.109,2.109,0,0,1,395.727,102.77Z" transform="translate(-279.723 -59.134)" fill="#ffb55c"/>
      <path id="Trazado_101563" data-name="Trazado 101563" d="M25.245,408.3v-5.917A15.515,15.515,0,0,1,34.8,388.057a15.468,15.468,0,0,0-5.96-1.188h0a15.512,15.512,0,0,0-15.512,15.512V408.3a2.109,2.109,0,0,0,2.109,2.109h11.92A2.109,2.109,0,0,1,25.245,408.3Z" transform="translate(-9.711 -281.806)" fill="#fc5479"/>
      <path id="Trazado_101564" data-name="Trazado 101564" d="M395.727,408.3v-5.917a15.515,15.515,0,0,1,9.552-14.323,15.469,15.469,0,0,0-5.96-1.188h0a15.512,15.512,0,0,0-15.512,15.512V408.3a2.109,2.109,0,0,0,2.109,2.109h11.92A2.109,2.109,0,0,1,395.727,408.3Z" transform="translate(-279.723 -281.806)" fill="#13ace8"/>
      <g id="Grupo_57155" data-name="Grupo 57155" transform="translate(8.939 10.933)">
        <path id="Trazado_101565" data-name="Trazado 101565" d="M43.016,59.875A10.052,10.052,0,1,1,53.068,49.823,10.063,10.063,0,0,1,43.016,59.875Z" transform="translate(-32.964 -39.771)" fill="#fad393"/>
        <path id="Trazado_101566" data-name="Trazado 101566" d="M413.5,59.875A10.052,10.052,0,1,1,423.55,49.823,10.064,10.064,0,0,1,413.5,59.875Z" transform="translate(-302.975 -39.771)" fill="#fad393"/>
        <path id="Trazado_101567" data-name="Trazado 101567" d="M43.016,365.4a10.052,10.052,0,1,1,10.052-10.052A10.064,10.064,0,0,1,43.016,365.4Z" transform="translate(-32.964 -262.444)" fill="#fad393"/>
        <path id="Trazado_101568" data-name="Trazado 101568" d="M413.5,365.4a10.052,10.052,0,1,1,10.052-10.052A10.064,10.064,0,0,1,413.5,365.4Z" transform="translate(-302.975 -262.444)" fill="#fad393"/>
      </g>
      <g id="Grupo_57156" data-name="Grupo 57156" transform="translate(8.939 10.933)">
        <path id="Trazado_101569" data-name="Trazado 101569" d="M42.457,49.823a10.06,10.06,0,0,1,5.305-8.858,10.052,10.052,0,1,0,0,17.716A10.059,10.059,0,0,1,42.457,49.823Z" transform="translate(-32.963 -39.771)" fill="#edb769"/>
        <path id="Trazado_101570" data-name="Trazado 101570" d="M412.94,49.823a10.06,10.06,0,0,1,5.305-8.858,10.052,10.052,0,1,0,0,17.716A10.059,10.059,0,0,1,412.94,49.823Z" transform="translate(-302.975 -39.771)" fill="#edb769"/>
        <path id="Trazado_101571" data-name="Trazado 101571" d="M42.457,355.352a10.06,10.06,0,0,1,5.305-8.858,10.052,10.052,0,1,0,0,17.716A10.06,10.06,0,0,1,42.457,355.352Z" transform="translate(-32.963 -262.444)" fill="#edb769"/>
        <path id="Trazado_101572" data-name="Trazado 101572" d="M412.94,355.352a10.06,10.06,0,0,1,5.305-8.858,10.052,10.052,0,1,0,0,17.716A10.06,10.06,0,0,1,412.94,355.352Z" transform="translate(-302.975 -262.444)" fill="#edb769"/>
      </g>
      <path id="Trazado_101573" data-name="Trazado 101573" d="M125.792,28.575a2.251,2.251,0,0,0,1.132-.306,64.886,64.886,0,0,1,6.732-3.4,2.259,2.259,0,0,0-1.8-4.145,69.439,69.439,0,0,0-7.2,3.636,2.259,2.259,0,0,0,1.136,4.213Z" transform="translate(-90.031 -14.821)"/>
      <path id="Trazado_101574" data-name="Trazado 101574" d="M292.152,8.337a64.746,64.746,0,0,1,7.345,1.721,2.259,2.259,0,0,0,1.287-4.331,69.285,69.285,0,0,0-7.86-1.842,2.259,2.259,0,0,0-.772,4.452Z" transform="translate(-211.558 -2.66)"/>
      <path id="Trazado_101575" data-name="Trazado 101575" d="M235.137,4.839c.045,0,.09,0,.135,0,1.282-.076,2.585-.114,3.872-.114h.007c1.223,0,2.458.034,3.672.1a2.259,2.259,0,0,0,.252-4.511C241.777.24,240.456.2,239.151.2h-.008c-1.375,0-2.767.041-4.137.122a2.259,2.259,0,0,0,.13,4.514Z" transform="translate(-169.726 0)"/>
      <path id="Trazado_101576" data-name="Trazado 101576" d="M490.337,190.315a2.259,2.259,0,0,0-1.674,2.721,65.014,65.014,0,0,1,1.317,7.429,2.259,2.259,0,1,0,4.486-.528,69.429,69.429,0,0,0-1.409-7.948A2.258,2.258,0,0,0,490.337,190.315Z" transform="translate(-356.098 -138.51)"/>
      <path id="Trazado_101577" data-name="Trazado 101577" d="M480.609,313.95a2.259,2.259,0,1,0,4.245,1.545,69.193,69.193,0,0,0,2.313-7.74,2.259,2.259,0,1,0-4.4-1.038A64.767,64.767,0,0,1,480.609,313.95Z" transform="translate(-350.173 -222.122)"/>
      <path id="Trazado_101578" data-name="Trazado 101578" d="M346.766,24.564a64.931,64.931,0,0,1,6.748,3.381,2.259,2.259,0,1,0,2.256-3.914,69.389,69.389,0,0,0-7.22-3.617,2.259,2.259,0,1,0-1.784,4.151Z" transform="translate(-251.73 -14.595)"/>
      <path id="Trazado_101579" data-name="Trazado 101579" d="M8.413,305.3a2.259,2.259,0,0,0-1.677,2.719,69.175,69.175,0,0,0,2.32,7.733A2.259,2.259,0,0,0,13.3,314.2a64.688,64.688,0,0,1-2.168-7.226A2.258,2.258,0,0,0,8.413,305.3Z" transform="translate(-4.864 -222.31)"/>
      <path id="Trazado_101580" data-name="Trazado 101580" d="M178.525,10.314a2.256,2.256,0,0,0,.651-.1,64.73,64.73,0,0,1,7.339-1.745,2.259,2.259,0,1,0-.786-4.449,69.244,69.244,0,0,0-7.854,1.867,2.259,2.259,0,0,0,.65,4.423Z" transform="translate(-128.465 -2.759)"/>
      <path id="Trazado_101581" data-name="Trazado 101581" d="M496.4,247.347a2.258,2.258,0,0,0-2.258,2.259v.143a65.919,65.919,0,0,1-.433,7.536,2.259,2.259,0,1,0,4.488.519,70.429,70.429,0,0,0,.463-8.055v-.143A2.259,2.259,0,0,0,496.4,247.347Z" transform="translate(-359.807 -180.121)"/>
      <path id="Trazado_101582" data-name="Trazado 101582" d="M271.821,491.834a65.351,65.351,0,0,1-7.5.871,2.259,2.259,0,0,0,.129,4.514c.044,0,.088,0,.133,0a69.72,69.72,0,0,0,8.016-.931,2.259,2.259,0,1,0-.781-4.449Z" transform="translate(-191.092 -358.281)"/>
      <path id="Trazado_101583" data-name="Trazado 101583" d="M214.943,492.742a65.391,65.391,0,0,1-7.5-.863,2.259,2.259,0,1,0-.777,4.451,69.852,69.852,0,0,0,8.017.923q.065,0,.13,0a2.259,2.259,0,0,0,.126-4.514Z" transform="translate(-149.259 -358.314)"/>
      <path id="Trazado_101584" data-name="Trazado 101584" d="M159.943,478.171a64.569,64.569,0,0,1-7.094-2.578,2.259,2.259,0,0,0-1.789,4.149,69.2,69.2,0,0,0,7.592,2.758,2.258,2.258,0,1,0,1.291-4.329Z" transform="translate(-109.1 -346.334)"/>
      <path id="Trazado_101585" data-name="Trazado 101585" d="M3.62,203.218a2.256,2.256,0,0,0,2.5-1.987A64.925,64.925,0,0,1,7.415,193.8a2.259,2.259,0,0,0-4.4-1.033,69.525,69.525,0,0,0-1.383,7.952A2.259,2.259,0,0,0,3.62,203.218Z" transform="translate(-1.179 -139.071)"/>
      <path id="Trazado_101586" data-name="Trazado 101586" d="M327.518,475.5a64.736,64.736,0,0,1-7.089,2.584,2.259,2.259,0,1,0,1.3,4.328,69.281,69.281,0,0,0,7.585-2.765,2.259,2.259,0,0,0-1.793-4.147Z" transform="translate(-232.358 -346.263)"/>
      <path id="Trazado_101587" data-name="Trazado 101587" d="M2.976,260.434a2.259,2.259,0,0,0,1.982-2.506,65.863,65.863,0,0,1-.44-7.535,2.259,2.259,0,0,0-2.259-2.257h0A2.259,2.259,0,0,0,0,250.4a70.41,70.41,0,0,0,.471,8.054,2.259,2.259,0,0,0,2.241,2A2.322,2.322,0,0,0,2.976,260.434Z" transform="translate(0 -180.696)"/>
      <path id="Trazado_101588" data-name="Trazado 101588" d="M9.5,71.273H35.6a4.807,4.807,0,0,0,4.8-4.8V61.029a16.31,16.31,0,0,0-.873-5.281,2.038,2.038,0,1,0-3.857,1.317,12.246,12.246,0,0,1,.654,3.965v5.443a.726.726,0,0,1-.725.725H9.5a.726.726,0,0,1-.725-.725V61.029a12.291,12.291,0,0,1,4.086-9.141,11.929,11.929,0,1,0-1.89-3.727A16.369,16.369,0,0,0,4.7,61.029v5.443A4.806,4.806,0,0,0,9.5,71.273ZM22.418,36.834a7.879,7.879,0,1,1-7.878,7.879A7.887,7.887,0,0,1,22.418,36.834Z" transform="translate(-3.427 -23.726)"/>
      <path id="Trazado_101589" data-name="Trazado 101589" d="M375.652,61.03v5.443a4.806,4.806,0,0,0,4.8,4.8h26.1a4.807,4.807,0,0,0,4.8-4.8V61.03a16.312,16.312,0,0,0-.873-5.281,2.038,2.038,0,1,0-3.857,1.317,12.256,12.256,0,0,1,.654,3.965v5.443a.726.726,0,0,1-.725.725h-26.1a.726.726,0,0,1-.725-.725V61.03a12.291,12.291,0,0,1,4.086-9.141,11.928,11.928,0,1,0-1.89-3.727A16.366,16.366,0,0,0,375.652,61.03Zm17.716-24.2a7.879,7.879,0,1,1-7.878,7.879A7.888,7.888,0,0,1,393.368,36.834Z" transform="translate(-273.779 -23.727)"/>
      <path id="Trazado_101590" data-name="Trazado 101590" d="M407.893,359.346a2.038,2.038,0,0,0-1.271,2.587,12.255,12.255,0,0,1,.654,3.965v5.443a.726.726,0,0,1-.725.725h-26.1a.726.726,0,0,1-.725-.725V365.9a12.29,12.29,0,0,1,4.086-9.141,11.926,11.926,0,1,0-1.891-3.727,16.369,16.369,0,0,0-6.271,12.868v5.443a4.807,4.807,0,0,0,4.8,4.8h26.1a4.807,4.807,0,0,0,4.8-4.8V365.9a16.311,16.311,0,0,0-.873-5.281A2.038,2.038,0,0,0,407.893,359.346ZM393.368,341.7a7.879,7.879,0,1,1-7.879,7.879A7.887,7.887,0,0,1,393.368,341.7Z" transform="translate(-273.779 -245.918)"/>
      <path id="Trazado_101591" data-name="Trazado 101591" d="M36.943,359.346a2.038,2.038,0,0,0-1.271,2.587,12.245,12.245,0,0,1,.654,3.965v5.443a.726.726,0,0,1-.725.725H9.5a.726.726,0,0,1-.725-.725V365.9a12.291,12.291,0,0,1,4.086-9.141,11.927,11.927,0,1,0-1.89-3.727A16.369,16.369,0,0,0,4.7,365.9v5.443a4.807,4.807,0,0,0,4.8,4.8H35.6a4.806,4.806,0,0,0,4.8-4.8V365.9a16.31,16.31,0,0,0-.873-5.281A2.039,2.039,0,0,0,36.943,359.346ZM22.418,341.7a7.879,7.879,0,1,1-7.878,7.879A7.887,7.887,0,0,1,22.418,341.7Z" transform="translate(-3.427 -245.918)"/>
      <path id="Trazado_101592" data-name="Trazado 101592" d="M175.5,173.165H153.814a18.932,18.932,0,0,0-18.647,15.813h-.74a15.569,15.569,0,0,0-15.33,15.764,15.742,15.742,0,0,0,8.713,14.221c2.616,6.337,10.779,9.377,11.14,9.508a2.038,2.038,0,0,0,2.554-2.757,14.751,14.751,0,0,1-1.379-5.208h11.391a15.347,15.347,0,0,0,14.077-9.531h3.245a17.713,17.713,0,0,1-1.809,7.037,2.038,2.038,0,0,0,2.523,2.786c.453-.16,10.74-3.87,13.9-11.575a18.905,18.905,0,0,0-7.95-36.057Zm5.572,32.647a2,2,0,0,0-1.165,1.238c-1.144,3.57-4.625,6.228-7.5,7.887a18.3,18.3,0,0,0,.4-6.215,2.044,2.044,0,0,0-2.027-1.824H153.814a14.719,14.719,0,0,1-5.522-1.07,2.027,2.027,0,0,0-2.2.438l-.029.029a2.023,2.023,0,0,0,.677,3.3,18.779,18.779,0,0,0,7.07,1.375h7.215a11.163,11.163,0,0,1-9.513,5.455H138.141a2.033,2.033,0,0,0-2.024,1.8,15.378,15.378,0,0,0,.14,4.278c-1.978-1.306-4.09-3.193-4.866-5.61a2.105,2.105,0,0,0-1.172-1.316,11.649,11.649,0,0,1-7.047-10.841,11.49,11.49,0,0,1,11.254-11.688h.509a18.747,18.747,0,0,0,1.336,6.055,2.023,2.023,0,0,0,3.307.685l.03-.03a2.022,2.022,0,0,0,.441-2.188,14.738,14.738,0,0,1-1.061-5.837,14.966,14.966,0,0,1,15.035-14.5H175.25a15.077,15.077,0,0,1,15.078,14.877A14.774,14.774,0,0,1,181.072,205.812Z" transform="translate(-86.799 -126.057)"/>
    </g>
  </g>
</svg>
