<svg xmlns="http://www.w3.org/2000/svg" width="292" height="341" viewBox="0 0 292 341">
  <g id="Grupo_57265" data-name="Grupo 57265" transform="translate(-284 -743)">
    <g id="Grupo_57264" data-name="Grupo 57264" transform="translate(354.628 743.451)">
      <g id="Grupo_57231" data-name="Grupo 57231" transform="translate(24.868 150.368)">
        <g id="Grupo_57222" data-name="Grupo 57222" transform="translate(6.589 2.715)" style="mix-blend-mode: multiply;isolation: isolate">
          <path id="Trazado_101879" data-name="Trazado 101879" d="M60.9,246.3H59.888l-.136-1c-.452-3.313-.887-6.2-1.27-8.749-1.755-11.677-2.479-16.511,1.094-22.129,3.679-5.78,8.783-9.417,13.719-12.934,5.212-3.713,10.6-7.553,14.288-13.964,3.54-6.154,3.36-12.953-.471-17.743-4.579-5.727-13.155-7.336-22.946-4.3a73.025,73.025,0,0,0-12.425,5.159c-8.179,4.158-8.776,3.238-18.723-12.179-1.028-1.593-2.163-3.351-3.421-5.287l-.559-.858.784-.657c20.5-17.174,45.6-22.478,67.165-14.189,15.775,6.064,26.4,18.295,28.423,32.719,2.3,16.4-6.839,33.267-25.734,47.5-12.278,9.259-11.742,15.563-11.387,19.733.174,2.044.338,3.975-1.062,5.5C84.879,245.479,78.481,246.3,60.9,246.3Zm12.546-84.633c6.491,0,11.966,2.288,15.474,6.675,4.437,5.549,4.693,13.34.669,20.336-3.94,6.849-9.537,10.837-14.95,14.693-4.976,3.545-9.674,6.892-13.111,12.293-3.112,4.89-2.471,9.153-.761,20.547.346,2.3.733,4.87,1.137,7.779,15.272-.03,21.925-.776,23.627-2.627.681-.745.628-1.795.461-3.743-.4-4.677-1-11.746,12.3-21.773,18.2-13.709,27.016-29.81,24.837-45.339-1.9-13.579-11.984-25.126-26.965-30.885-20.489-7.878-44.37-2.956-64.066,13.153q1.558,2.4,2.865,4.431c4.744,7.352,7.358,11.4,9.319,12.743,1.52,1.037,2.75.5,6.419-1.369a74.958,74.958,0,0,1,12.788-5.306A33.8,33.8,0,0,1,73.442,161.666Z" transform="translate(-29.039 -133.627)" fill="#00b8ad"/>
        </g>
        <g id="Grupo_57223" data-name="Grupo 57223" transform="translate(30.705 126.617)" style="mix-blend-mode: multiply;isolation: isolate">
          <path id="Trazado_101880" data-name="Trazado 101880" d="M68.646,277.348c-9.014,0-18.715-5.7-18.715-18.217,0-12.48,9.7-18.166,18.716-18.166,9.353,0,18.823,6.24,18.823,18.166a17.387,17.387,0,0,1-5.927,13.664A19.72,19.72,0,0,1,68.646,277.348Zm0-34.074c-7.9,0-16.407,4.962-16.407,15.857,0,10.93,8.505,15.909,16.406,15.909,7.954,0,16.516-4.979,16.516-15.909C85.162,248.236,76.6,243.274,68.647,243.274Z" transform="translate(-49.931 -240.965)" fill="#00b8ad"/>
        </g>
        <g id="Grupo_57228" data-name="Grupo 57228" style="mix-blend-mode: multiply;isolation: isolate">
          <g id="Grupo_57224" data-name="Grupo 57224" transform="translate(29.595 79.277)">
            <path id="Trazado_101881" data-name="Trazado 101881" d="M57.82,241.05H52.463l-.727-5.308c-.429-3.147-.843-5.909-1.21-8.356l-.051-.332c-1.834-12.217-2.757-18.349,1.82-25.542q.511-.805,1.05-1.558l1.88,1.34q-.5.706-.983,1.457c-4.113,6.465-3.234,12.312-1.483,23.96l.05.332c.368,2.458.784,5.228,1.215,8.386l.451,3.312H57.82c18.932,0,25.28-.951,28.3-4.242a7.11,7.11,0,0,0,1.862-4.675l2.3.126a9.42,9.42,0,0,1-2.466,6.11C84.183,240.025,78.014,241.05,57.82,241.05Z" transform="translate(-48.969 -199.954)" fill="#00b8ad"/>
          </g>
          <g id="Grupo_57225" data-name="Grupo 57225" transform="translate(49.371 35.733)">
            <path id="Trazado_101882" data-name="Trazado 101882" d="M81.661,175.553l-2.295-.253a10.529,10.529,0,0,0,.063-1.153,9.054,9.054,0,0,0-1.2-4.6c-2.022-3.5-6.486-5.334-11.968-4.959l-.157-2.3c6.415-.44,11.646,1.826,14.123,6.105a11.337,11.337,0,0,1,1.513,5.757A12.847,12.847,0,0,1,81.661,175.553Z" transform="translate(-66.102 -162.231)" fill="#00b8ad"/>
          </g>
          <g id="Grupo_57226" data-name="Grupo 57226">
            <path id="Trazado_101883" data-name="Trazado 101883" d="M46.7,178.134c-6.266,0-9.184-4.52-16.981-16.6l-.063-.1c-1.009-1.564-2.12-3.286-3.352-5.179l-2.968-4.561L27.5,148.2a81.669,81.669,0,0,1,32.013-16.925l.577,2.236a79.372,79.372,0,0,0-31.107,16.458l-2.6,2.18L28.233,155c1.233,1.9,2.347,3.621,3.357,5.186l-.9.726.97-.627c7.5,11.629,10.032,15.545,15.041,15.545a12.087,12.087,0,0,0,5.282-1.51l1,2.08A14.113,14.113,0,0,1,46.7,178.134Z" transform="translate(-23.331 -131.275)" fill="#00b8ad"/>
          </g>
          <g id="Grupo_57227" data-name="Grupo 57227" transform="translate(93.417 35.661)">
            <path id="Trazado_101884" data-name="Trazado 101884" d="M106.029,203.268l-1.77-1.482c8.243-9.846,12.6-20.554,12.6-30.965a38.211,38.211,0,0,0-.885-8.159l2.254-.494a40.508,40.508,0,0,1,.94,8.653C119.169,181.782,114.625,193,106.029,203.268Z" transform="translate(-104.259 -162.169)" fill="#00b8ad"/>
          </g>
        </g>
        <g id="Grupo_57230" data-name="Grupo 57230" transform="translate(25.719 131.107)" style="mix-blend-mode: multiply;isolation: isolate">
          <g id="Grupo_57229" data-name="Grupo 57229">
            <path id="Trazado_101885" data-name="Trazado 101885" d="M69.422,281.733h-.109c-11.779,0-23.7-7.969-23.7-23.2a25,25,0,0,1,1.228-7.906l2.191.728a22.686,22.686,0,0,0-1.11,7.178c0,13.717,10.763,20.893,21.393,20.893ZM90.655,269.41,88.6,268.365a21.523,21.523,0,0,0,2.217-9.834,20.528,20.528,0,0,0-3.752-12.322l1.869-1.354a22.78,22.78,0,0,1,4.191,13.676A23.8,23.8,0,0,1,90.655,269.41Z" transform="translate(-45.612 -244.855)" fill="#00b8ad"/>
          </g>
        </g>
      </g>
      <g id="Grupo_57243" data-name="Grupo 57243" transform="translate(134.444 113.153)">
        <g id="Grupo_57233" data-name="Grupo 57233" transform="translate(6.588 4.965)" style="mix-blend-mode: multiply;isolation: isolate">
          <g id="Grupo_57232" data-name="Grupo 57232">
            <path id="Trazado_101886" data-name="Trazado 101886" d="M143.509,171.206H142.5l-.137-1c-.268-1.967-.525-3.682-.753-5.194-1.06-7.057-1.5-9.979.719-13.464,2.235-3.51,5.3-5.7,8.273-7.814,3.2-2.277,6.214-4.427,8.353-8.147,2.006-3.485,1.914-7.322-.239-10.014-2.6-3.246-7.5-4.142-13.127-2.4a42.9,42.9,0,0,0-7.307,3.035c-5.235,2.662-5.85,1.711-11.73-7.4-.609-.945-1.282-1.989-2.03-3.136l-.558-.858.784-.657c12.307-10.313,27.4-13.493,40.369-8.507,9.532,3.664,15.955,11.07,17.181,19.809,1.39,9.917-4.1,20.094-15.469,28.658-7.088,5.344-6.794,8.791-6.581,11.309.107,1.262.218,2.566-.753,3.623C157.978,170.7,154.242,171.206,143.509,171.206Zm7.455-51.214c4,0,7.381,1.42,9.557,4.142,2.758,3.449,2.926,8.281.439,12.606-2.392,4.157-5.76,6.557-9.016,8.877-2.916,2.078-5.672,4.041-7.663,7.172-1.756,2.757-1.383,5.242-.386,11.883.19,1.259.4,2.658.621,4.225,6.1-.018,12.2-.231,13.282-1.409.272-.3.239-.844.152-1.867-.23-2.706-.615-7.235,7.492-13.347,10.666-8.036,15.841-17.445,14.572-26.5-1.107-7.9-6.985-14.616-15.723-17.974-11.9-4.577-25.764-1.778-37.268,7.474q.793,1.222,1.473,2.277c2.785,4.317,4.321,6.7,5.407,7.438.659.45,1.146.27,3.337-.844a44.988,44.988,0,0,1,7.669-3.182A20.588,20.588,0,0,1,150.963,119.993Z" transform="translate(-123.965 -103.336)" fill="#003359"/>
          </g>
        </g>
        <g id="Grupo_57235" data-name="Grupo 57235" transform="translate(21.064 85.592)" style="mix-blend-mode: multiply;isolation: isolate">
          <g id="Grupo_57234" data-name="Grupo 57234">
            <path id="Trazado_101887" data-name="Trazado 101887" d="M148.093,195.735c-5.758,0-11.587-3.879-11.587-11.29,0-7.392,5.829-11.26,11.587-11.26,5.79,0,11.652,3.868,11.652,11.26C159.745,191.856,153.883,195.735,148.093,195.735Zm0-20.242c-4.468,0-9.278,2.8-9.278,8.952,0,6.171,4.81,8.982,9.278,8.982,4.5,0,9.343-2.811,9.343-8.982C157.436,178.294,152.593,175.493,148.093,175.493Z" transform="translate(-136.506 -173.184)" fill="#003359"/>
          </g>
        </g>
        <g id="Grupo_57240" data-name="Grupo 57240" style="mix-blend-mode: multiply;isolation: isolate">
          <g id="Grupo_57236" data-name="Grupo 57236" transform="translate(18.391 40.518)">
            <path id="Trazado_101888" data-name="Trazado 101888" d="M141.931,171.439h-5.357l-.727-5.308c-.261-1.908-.51-3.575-.731-5.049-1.121-7.45-1.789-11.9,1.43-16.96,2.755-4.331,6.383-6.916,9.584-9.2l1.1-.79,1.351,1.872-1.11.8c-3.032,2.161-6.465,4.607-8.978,8.557-2.757,4.331-2.2,8-1.107,15.3.233,1.559.485,3.237.747,5.155l.452,3.312h3.344c10.706,0,15.567-.42,17.959-3.023a6.845,6.845,0,0,0,1.449-5.662c-.2-2.408.045-4.721,5.181-8.683l1.409,1.828c-4.556,3.515-4.421,5.112-4.291,6.657a9.055,9.055,0,0,1-2.048,7.421C158.65,170.87,153.883,171.439,141.931,171.439Z" transform="translate(-134.19 -134.136)" fill="#003359"/>
          </g>
          <g id="Grupo_57237" data-name="Grupo 57237" transform="translate(36.858 27.886)">
            <path id="Trazado_101889" data-name="Trazado 101889" d="M153.436,129.193l-2.226-.612a4.364,4.364,0,0,0,.163-1.145,2.932,2.932,0,0,0-.376-1.488,2.821,2.821,0,0,0-.808-.878l1.344-1.877a5.129,5.129,0,0,1,1.463,1.6,5.214,5.214,0,0,1,.687,2.646A6.594,6.594,0,0,1,153.436,129.193Z" transform="translate(-150.189 -123.193)" fill="#003359"/>
          </g>
          <g id="Grupo_57238" data-name="Grupo 57238">
            <path id="Trazado_101890" data-name="Trazado 101890" d="M135.431,133.184c-5.081,0-7.307-3.449-12.184-11.008l-4.989-7.684L122.427,111c10.193-8.538,22.06-12.7,33.958-11.857l-.163,2.3c-11.307-.794-22.583,3.172-32.312,11.324l-2.6,2.181,3.879,5.976c4.674,7.242,6.421,9.951,10.245,9.951a10.856,10.856,0,0,0,4.947-1.617,40.032,40.032,0,0,1,6.884-2.864,17.072,17.072,0,0,1,3.291-.691l.233,2.3a14.67,14.67,0,0,0-2.841.6,38.018,38.018,0,0,0-6.522,2.716A12.933,12.933,0,0,1,135.431,133.184Z" transform="translate(-118.258 -99.035)" fill="#003359"/>
          </g>
          <g id="Grupo_57239" data-name="Grupo 57239" transform="translate(64.138 24.181)">
            <path id="Trazado_101891" data-name="Trazado 101891" d="M175.837,140.491l-2.015-1.125a27.328,27.328,0,0,0,3.7-13.387,24.2,24.2,0,0,0-.628-5.475l2.251-.521a26.649,26.649,0,0,1,.686,6A29.6,29.6,0,0,1,175.837,140.491Z" transform="translate(-173.822 -119.983)" fill="#003359"/>
          </g>
        </g>
        <g id="Grupo_57242" data-name="Grupo 57242" transform="translate(16.08 80.606)" style="mix-blend-mode: multiply;isolation: isolate">
          <g id="Grupo_57241" data-name="Grupo 57241">
            <path id="Trazado_101892" data-name="Trazado 101892" d="M148.759,201.387c-8.235,0-16.571-5.59-16.571-16.276,0-10.666,8.336-16.246,16.571-16.246,8.065,0,16.637,5.694,16.637,16.246a16.14,16.14,0,0,1-2.295,8.537l-1.97-1.2a13.861,13.861,0,0,0,1.957-7.335c0-9.052-7.383-13.937-14.329-13.937-7.089,0-14.263,4.788-14.263,13.937,0,9.17,7.174,13.967,14.263,13.967Z" transform="translate(-132.188 -168.865)" fill="#003359"/>
          </g>
        </g>
      </g>
      <g id="Grupo_57253" data-name="Grupo 57253" transform="translate(57.762 7.549)">
        <g id="Grupo_57244" data-name="Grupo 57244" transform="translate(7.056 2.706)" style="mix-blend-mode: multiply;isolation: isolate">
          <path id="Trazado_101893" data-name="Trazado 101893" d="M90.43,124.87H89.423l-.136-1c-.463-3.382-.906-6.331-1.3-8.933-1.79-11.914-2.531-16.845,1.114-22.573,3.753-5.9,8.961-9.609,14-13.2,5.323-3.792,10.825-7.713,14.593-14.263,3.62-6.29,3.435-13.241-.483-18.14-4.682-5.854-13.449-7.5-23.451-4.4a74.625,74.625,0,0,0-12.688,5.268C72.746,51.867,72.137,50.927,61.99,35.2c-1.049-1.625-2.206-3.419-3.491-5.394l-.559-.858.784-.657c20.917-17.526,46.54-22.942,68.543-14.482C143.363,20,154.2,32.481,156.267,47.2c2.347,16.731-6.98,33.944-26.261,48.471-12.545,9.461-12,15.9-11.634,20.167.177,2.081.345,4.048-1.078,5.6C114.9,124.034,108.375,124.87,90.43,124.87ZM103.24,38.519c6.619,0,12.2,2.332,15.777,6.8,4.524,5.656,4.785,13.6.681,20.733-4.018,6.987-9.73,11.057-15.254,14.992-5.081,3.62-9.88,7.039-13.391,12.557-3.181,5-2.528,9.353-.779,20.99.353,2.35.749,4.985,1.162,7.965,15.614-.031,22.415-.794,24.158-2.692.7-.765.648-1.843.478-3.839-.406-4.768-1.019-11.977,12.545-22.206,18.582-14,27.589-30.445,25.365-46.307-1.946-13.873-12.242-25.666-27.542-31.549C105.5,7.92,81.11,12.951,61,29.414c1.065,1.64,2.039,3.15,2.935,4.539,4.846,7.509,7.515,11.646,9.522,13.017,1.557,1.067,2.822.513,6.576-1.4A76.612,76.612,0,0,1,93.08,40.158,34.517,34.517,0,0,1,103.24,38.519Z" transform="translate(-57.941 -9.893)" fill="#ffb412"/>
        </g>
        <g id="Grupo_57245" data-name="Grupo 57245" transform="translate(31.669 129.193)" style="mix-blend-mode: multiply;isolation: isolate">
          <path id="Trazado_101894" data-name="Trazado 101894" d="M98.344,156.565c-9.19,0-19.081-5.812-19.081-18.573,0-12.725,9.891-18.521,19.082-18.521,9.538,0,19.193,6.363,19.193,18.521C117.538,150.185,107.883,156.565,98.344,156.565Zm0-34.785c-8.079,0-16.773,5.073-16.773,16.212,0,11.175,8.694,16.264,16.772,16.264,8.133,0,16.885-5.089,16.885-16.264C115.229,126.853,106.477,121.78,98.345,121.78Z" transform="translate(-79.263 -119.471)" fill="#ffb412"/>
        </g>
        <g id="Grupo_57250" data-name="Grupo 57250" transform="translate(0)" style="mix-blend-mode: multiply;isolation: isolate">
          <g id="Grupo_57246" data-name="Grupo 57246" transform="translate(30.283 81.779)">
            <path id="Trazado_101895" data-name="Trazado 101895" d="M87.325,119.639H81.659l-.768-5.616c-.458-3.356-.9-6.281-1.287-8.862-1.88-12.53-2.827-18.82,1.891-26.233.114-.179.229-.357.345-.533l1.928,1.271-.323.5c-4.256,6.687-3.353,12.691-1.556,24.652.389,2.589.831,5.527,1.291,8.894l.5,3.619h3.651c19.42,0,25.947-.992,29.1-4.42a7.238,7.238,0,0,0,1.824-3.66l2.268.426a9.485,9.485,0,0,1-2.392,4.8C114.4,118.528,107.776,119.639,87.325,119.639Z" transform="translate(-78.062 -78.395)" fill="#ffb412"/>
          </g>
          <g id="Grupo_57247" data-name="Grupo 57247" transform="translate(49.857 36.666)">
            <path id="Trazado_101896" data-name="Trazado 101896" d="M111.46,52.732l-2.294-.271a10.894,10.894,0,0,0,.076-1.257,9.032,9.032,0,0,0-1.2-4.585c-2.115-3.652-6.877-5.486-12.791-4.883l-.234-2.3c6.851-.7,12.442,1.562,15.022,6.022a11.31,11.31,0,0,1,1.509,5.742A12.994,12.994,0,0,1,111.46,52.732Z" transform="translate(-95.02 -39.313)" fill="#ffb412"/>
          </g>
          <g id="Grupo_57248" data-name="Grupo 57248">
            <path id="Trazado_101897" data-name="Trazado 101897" d="M75.977,55.524c-6.521,0-9.517-4.645-17.527-17.058-1.048-1.623-2.2-3.411-3.483-5.381l-3.14-4.824,4.409-3.7A84.082,84.082,0,0,1,87.853,7.549l.613,2.226A81.763,81.763,0,0,0,57.722,26.333l-2.843,2.383,2.024,3.11c1.282,1.973,2.439,3.763,3.486,5.388,7.725,11.968,10.327,16,15.589,16a10.66,10.66,0,0,0,4.261-1l.9,2.125A12.818,12.818,0,0,1,75.977,55.524Z" transform="translate(-51.828 -7.549)" fill="#ffb412"/>
          </g>
          <g id="Grupo_57249" data-name="Grupo 57249" transform="translate(95.552 36.233)">
            <path id="Trazado_101898" data-name="Trazado 101898" d="M136.367,81.517l-1.761-1.494c8.67-10.212,13.253-21.335,13.253-32.166a39.3,39.3,0,0,0-.918-8.423l2.254-.5a41.541,41.541,0,0,1,.972,8.919C150.167,59.242,145.4,70.883,136.367,81.517Z" transform="translate(-134.606 -38.938)" fill="#ffb412"/>
          </g>
        </g>
        <g id="Grupo_57252" data-name="Grupo 57252" transform="translate(26.328 133.619)" style="mix-blend-mode: multiply;isolation: isolate">
          <g id="Grupo_57251" data-name="Grupo 57251">
            <path id="Trazado_101899" data-name="Trazado 101899" d="M99.172,161.313h-.114c-12.136,0-24.422-8.214-24.422-23.913a25.726,25.726,0,0,1,1.265-8.147l2.19.73a23.43,23.43,0,0,0-1.146,7.418c0,14.183,11.124,21.6,22.113,21.6Zm21.878-12.7-2.059-1.045a22.248,22.248,0,0,0,2.292-10.165,21.221,21.221,0,0,0-3.88-12.741l1.87-1.354a23.479,23.479,0,0,1,4.318,14.1A24.542,24.542,0,0,1,121.05,148.61Z" transform="translate(-74.636 -123.305)" fill="#ffb412"/>
          </g>
        </g>
      </g>
      <g id="Grupo_57263" data-name="Grupo 57263" transform="translate(13.372 42.873)">
        <g id="Grupo_57254" data-name="Grupo 57254" transform="translate(6.341 4.777)" style="mix-blend-mode: multiply;isolation: isolate">
          <path id="Trazado_101900" data-name="Trazado 101900" d="M37.058,105.248H36.05l-.136-1c-.248-1.816-.486-3.4-.7-4.8-.956-6.363-1.393-9.267.676-12.519s4.923-5.29,7.676-7.251c2.947-2.1,5.732-4.085,7.7-7.51,1.837-3.193,1.755-6.7-.214-9.166-2.378-2.974-6.882-3.794-12.05-2.193a39.618,39.618,0,0,0-6.745,2.8c-4.916,2.5-5.489,1.61-10.961-6.874-.566-.876-1.189-1.841-1.879-2.9l-.559-.858.784-.657c11.41-9.56,25.405-12.509,37.43-7.884,8.848,3.4,14.809,10.277,15.947,18.394,1.291,9.206-3.8,18.649-14.344,26.591-6.517,4.915-6.249,8.077-6.052,10.384.1,1.187.205,2.413-.719,3.419C50.486,104.776,47.016,105.248,37.058,105.248Zm6.9-47.549a11.009,11.009,0,0,1,8.907,3.864c2.575,3.221,2.733,7.726.413,11.759-2.222,3.862-5.344,6.087-8.365,8.238-2.691,1.917-5.233,3.73-7.067,6.611-1.606,2.523-1.262,4.815-.342,10.937.171,1.144.361,2.413.561,3.83,5.6-.018,11.174-.214,12.149-1.276.226-.247.2-.765.118-1.661-.214-2.521-.574-6.741,6.963-12.424C67.134,80.163,71.908,71.489,70.74,63.15,69.72,55.878,64.3,49.687,56.25,46.591c-10.959-4.214-23.724-1.647-34.328,6.852q.71,1.094,1.321,2.043c2.571,3.984,3.986,6.178,4.977,6.855.539.371.908.275,3-.787a41.847,41.847,0,0,1,7.111-2.949A19.111,19.111,0,0,1,43.955,57.7Z" transform="translate(-18.865 -42.289)" fill="#0087eb"/>
        </g>
        <g id="Grupo_57259" data-name="Grupo 57259" transform="translate(0 0)" style="mix-blend-mode: multiply;isolation: isolate">
          <g id="Grupo_57255" data-name="Grupo 57255" transform="translate(17.098 35.96)">
            <path id="Trazado_101901" data-name="Trazado 101901" d="M35.62,105.877H30.426l-.7-5.147c-.242-1.77-.476-3.318-.679-4.684C28,89.109,27.375,84.953,30.408,80.187c2.579-4.052,5.959-6.46,8.94-8.584,1.1-.784,2.138-1.524,3.076-2.3L43.9,71.083c-1,.829-2.074,1.592-3.208,2.4-2.811,2-6,4.272-8.332,7.944-2.571,4.038-2.058,7.442-1.039,14.221.215,1.431.448,2.989.693,4.77l.431,3.151H35.62c9.935,0,14.45-.392,16.687-2.829a6.5,6.5,0,0,0,1.366-5.313c-.2-2.324.051-4.4,5.069-8.185q.937-.7,1.818-1.426L62.021,87.6q-.916.75-1.89,1.481c-4.4,3.318-4.283,4.691-4.159,6.146a8.736,8.736,0,0,1-1.965,7.071C51.22,105.337,46.765,105.877,35.62,105.877Z" transform="translate(-28.184 -69.304)" fill="#0087eb"/>
          </g>
          <g id="Grupo_57256" data-name="Grupo 57256" transform="translate(34.968 27.406)">
            <path id="Trazado_101902" data-name="Trazado 101902" d="M46.026,66.208l-2.214-.657a3.748,3.748,0,0,0,.166-1.07,2.451,2.451,0,0,0-.313-1.242l1.882-1.346c.044.066.084.134.124.2a4.706,4.706,0,0,1,.616,2.385A6.124,6.124,0,0,1,46.026,66.208Z" transform="translate(-43.665 -61.893)" fill="#0087eb"/>
          </g>
          <g id="Grupo_57257" data-name="Grupo 57257">
            <path id="Trazado_101903" data-name="Trazado 101903" d="M29.618,70.286c-4.849,0-6.933-3.23-11.5-10.307l-.133-.205c-.526-.816-1.1-1.708-1.737-2.681l-2.877-4.423,4.042-3.388C26.1,42,36.069,38.151,46.232,38.151a39.217,39.217,0,0,1,5.575.4l-.329,2.284a36.991,36.991,0,0,0-5.246-.373c-9.613,0-19.066,3.663-27.334,10.591l-2.475,2.074,1.76,2.707c.637.977,1.215,1.872,1.743,2.691l.132.205c4.633,7.179,6.122,9.25,9.56,9.25A10.107,10.107,0,0,0,34.24,66.47a37.028,37.028,0,0,1,6.353-2.642,12.505,12.505,0,0,1,6.017-.526l-.455,2.264a10.3,10.3,0,0,0-4.879.467,35.093,35.093,0,0,0-5.991,2.5A12.176,12.176,0,0,1,29.618,70.286Z" transform="translate(-13.372 -38.151)" fill="#0087eb"/>
          </g>
          <g id="Grupo_57258" data-name="Grupo 57258" transform="translate(60.418 22.559)">
            <path id="Trazado_101904" data-name="Trazado 101904" d="M67.776,75.589l-2.063-1.037a24.917,24.917,0,0,0,2.8-11.227,22.658,22.658,0,0,0-.589-5.109l2.247-.523a24.936,24.936,0,0,1,.65,5.632A27.193,27.193,0,0,1,67.776,75.589Z" transform="translate(-65.713 -57.694)" fill="#0087eb"/>
          </g>
        </g>
        <g id="Grupo_57261" data-name="Grupo 57261" transform="translate(14.962 75.525)" style="mix-blend-mode: multiply;isolation: isolate">
          <g id="Grupo_57260" data-name="Grupo 57260">
            <path id="Trazado_101905" data-name="Trazado 101905" d="M41.937,134.209c-7.754,0-15.6-5.266-15.6-15.328,0-10.046,7.849-15.3,15.6-15.3,7.593,0,15.663,5.363,15.663,15.3a14.728,14.728,0,0,1-5.847,12.085l-1.389-1.845a12.273,12.273,0,0,0,4.927-10.24c0-8.439-6.881-12.993-13.354-12.993-6.606,0-13.294,4.463-13.294,12.993,0,8.547,6.688,13.02,13.294,13.02Z" transform="translate(-26.334 -103.579)" fill="#0087eb"/>
          </g>
        </g>
        <g id="Grupo_57262" data-name="Grupo 57262" transform="translate(19.76 80.323)" style="mix-blend-mode: multiply;isolation: isolate">
          <path id="Trazado_101906" data-name="Trazado 101906" d="M41.3,128.77c-5.37,0-10.806-3.618-10.806-10.531,0-6.9,5.436-10.5,10.806-10.5,5.4,0,10.864,3.607,10.864,10.5C52.16,125.152,46.693,128.77,41.3,128.77Zm0-18.725c-4.092,0-8.5,2.564-8.5,8.194,0,5.649,4.4,8.222,8.5,8.222,4.12,0,8.556-2.573,8.556-8.222a7.776,7.776,0,0,0-2.634-6.129A9.061,9.061,0,0,0,41.3,110.045Z" transform="translate(-30.49 -107.736)" fill="#0087eb"/>
        </g>
      </g>
    </g>
    <rect id="Rectángulo_5308" data-name="Rectángulo 5308" width="292" height="341" transform="translate(284 743)" fill="none"/>
  </g>
</svg>
