<svg xmlns="http://www.w3.org/2000/svg" width="500" height="221.126" viewBox="0 0 500 221.126">
  <g id="Grupo_55496" data-name="Grupo 55496" transform="translate(-215 -1149.092)">
    <path id="Trazado_100162" data-name="Trazado 100162" d="M8.642-59.059Q5-63.542,5-67.114t6.024-9.456a10.633,10.633,0,0,1,7.425-3.362q3.923,0,10.927,7a21.325,21.325,0,0,0,5.6,4.553A13.326,13.326,0,0,0,41.7-66.2q13.029,0,13.029-10.647,0-3.222-3.572-5.394a26.187,26.187,0,0,0-8.9-3.152,76.574,76.574,0,0,1-11.488-3.152A75.706,75.706,0,0,1,19.29-93.662a23.214,23.214,0,0,1-8.9-9.316,30.92,30.92,0,0,1-3.572-15.34A29.448,29.448,0,0,1,16-139.824Q25.174-149,41-149a51.163,51.163,0,0,1,15.34,2.171q6.935,2.171,9.6,4.413l3.5,2.662q4.343,4.063,4.343,6.865t-3.362,7.705q-4.763,7-9.807,7-2.942,0-7.285-2.8a16.482,16.482,0,0,1-1.611-1.4A21.377,21.377,0,0,0,49.55-124.2a14.031,14.031,0,0,0-7.5-1.821,12.606,12.606,0,0,0-7.565,2.171,7.012,7.012,0,0,0-3.012,6.024,7.21,7.21,0,0,0,3.572,6.234,22.065,22.065,0,0,0,8.9,3.222,104.9,104.9,0,0,1,11.628,2.592A72.37,72.37,0,0,1,67.2-101.508a20.535,20.535,0,0,1,8.9,8.756q3.572,6.234,3.572,15.34a34,34,0,0,1-3.642,16.041A27.721,27.721,0,0,1,66.5-50.653a43.484,43.484,0,0,1-24.236,7.425A47.023,47.023,0,0,1,29.8-44.839a33.779,33.779,0,0,1-9.526-3.993Q12.845-53.315,9.9-57.518Zm122.3-88.4h77.893a15.5,15.5,0,0,1,6.584,1.051,5.312,5.312,0,0,1,2.8,3.292,20.248,20.248,0,0,1,.7,5.884,19.517,19.517,0,0,1-.7,5.814,4.809,4.809,0,0,1-2.382,3.012,16.32,16.32,0,0,1-7.145,1.261H181.94v70.468a38.825,38.825,0,0,1-.21,4.763,11.371,11.371,0,0,1-1.261,3.572,5.938,5.938,0,0,1-3.713,2.872,23.883,23.883,0,0,1-7,.841,23.157,23.157,0,0,1-6.935-.841,5.917,5.917,0,0,1-3.642-2.872,11.307,11.307,0,0,1-1.261-3.642,40.7,40.7,0,0,1-.21-4.833v-70.328h-26.9a15.5,15.5,0,0,1-6.584-1.051,5.312,5.312,0,0,1-2.8-3.292,20.248,20.248,0,0,1-.7-5.884,19.517,19.517,0,0,1,.7-5.814A4.809,4.809,0,0,1,123.8-146.2,16.32,16.32,0,0,1,130.946-147.459ZM286.871-69.426h43.149a40.7,40.7,0,0,1,4.833.21,11.224,11.224,0,0,1,3.713,1.331q3.783,1.961,3.783,10.927,0,9.807-5.184,11.488a23.424,23.424,0,0,1-7.285.841H274.4q-9.807,0-11.488-5.324a22.029,22.029,0,0,1-.841-7.145V-134.99q0-7.145,2.662-9.737t10.087-2.592h55.2a40.7,40.7,0,0,1,4.833.21,11.224,11.224,0,0,1,3.713,1.331q3.783,1.961,3.783,10.927,0,9.807-5.184,11.488a23.424,23.424,0,0,1-7.285.841H286.871v14.15H314.61a40.7,40.7,0,0,1,4.833.21,11.224,11.224,0,0,1,3.713,1.331q3.783,1.961,3.783,10.927,0,9.807-5.324,11.488a23.424,23.424,0,0,1-7.285.841H286.871ZM496.034-143.4a11.18,11.18,0,0,1,1.331,3.783,42.618,42.618,0,0,1,.21,4.9v77.753q0,9.667-5.324,11.348a22.707,22.707,0,0,1-6.725.841,23.679,23.679,0,0,1-6.444-.7,11.067,11.067,0,0,1-3.643-1.681,6.315,6.315,0,0,1-1.961-2.8,27.861,27.861,0,0,1-.7-7.285V-104.17q-3.5,4.343-10.227,13.8T454-78.532q-1.821,2.382-2.522,3.292a13.475,13.475,0,0,1-3.432,2.522,11.385,11.385,0,0,1-5.884,1.611,11.432,11.432,0,0,1-5.744-1.471,12.935,12.935,0,0,1-3.713-2.872l-1.121-1.541q-2.8-3.5-11.068-14.92t-8.966-12.258v47.212a40.7,40.7,0,0,1-.21,4.833,9.962,9.962,0,0,1-1.331,3.572q-2.1,3.783-10.927,3.783-8.546,0-10.647-3.783a9.946,9.946,0,0,1-1.331-3.642,44.3,44.3,0,0,1-.21-5.043V-134.99a40.7,40.7,0,0,1,.21-4.833,11.224,11.224,0,0,1,1.331-3.713q2.1-3.642,10.927-3.642a20.689,20.689,0,0,1,6.514.911,8.4,8.4,0,0,1,3.572,1.891l.841.841,31.8,41.748q23.816-31.521,31.8-41.608,2.382-3.783,11.278-3.783T496.034-143.4Z" transform="translate(210 1298.092)" fill="#ffc93c"/>
    <path id="Trazado_100161" data-name="Trazado 100161" d="M8.642-59.059Q5-63.542,5-67.114t6.024-9.456a10.633,10.633,0,0,1,7.425-3.362q3.923,0,10.927,7a21.325,21.325,0,0,0,5.6,4.553A13.326,13.326,0,0,0,41.7-66.2q13.029,0,13.029-10.647,0-3.222-3.572-5.394a26.187,26.187,0,0,0-8.9-3.152,76.574,76.574,0,0,1-11.488-3.152A75.706,75.706,0,0,1,19.29-93.662a23.214,23.214,0,0,1-8.9-9.316,30.92,30.92,0,0,1-3.572-15.34A29.448,29.448,0,0,1,16-139.824Q25.174-149,41-149a51.163,51.163,0,0,1,15.34,2.171q6.935,2.171,9.6,4.413l3.5,2.662q4.343,4.063,4.343,6.865t-3.362,7.705q-4.763,7-9.807,7-2.942,0-7.285-2.8a16.482,16.482,0,0,1-1.611-1.4A21.377,21.377,0,0,0,49.55-124.2a14.031,14.031,0,0,0-7.5-1.821,12.606,12.606,0,0,0-7.565,2.171,7.012,7.012,0,0,0-3.012,6.024,7.21,7.21,0,0,0,3.572,6.234,22.065,22.065,0,0,0,8.9,3.222,104.9,104.9,0,0,1,11.628,2.592A72.37,72.37,0,0,1,67.2-101.508a20.535,20.535,0,0,1,8.9,8.756q3.572,6.234,3.572,15.34a34,34,0,0,1-3.642,16.041A27.721,27.721,0,0,1,66.5-50.653a43.484,43.484,0,0,1-24.236,7.425A47.023,47.023,0,0,1,29.8-44.839a33.779,33.779,0,0,1-9.526-3.993Q12.845-53.315,9.9-57.518Zm122.3-88.4h77.893a15.5,15.5,0,0,1,6.584,1.051,5.312,5.312,0,0,1,2.8,3.292,20.248,20.248,0,0,1,.7,5.884,19.517,19.517,0,0,1-.7,5.814,4.809,4.809,0,0,1-2.382,3.012,16.32,16.32,0,0,1-7.145,1.261H181.94v70.468a38.825,38.825,0,0,1-.21,4.763,11.371,11.371,0,0,1-1.261,3.572,5.938,5.938,0,0,1-3.713,2.872,23.883,23.883,0,0,1-7,.841,23.157,23.157,0,0,1-6.935-.841,5.917,5.917,0,0,1-3.642-2.872,11.307,11.307,0,0,1-1.261-3.642,40.7,40.7,0,0,1-.21-4.833v-70.328h-26.9a15.5,15.5,0,0,1-6.584-1.051,5.312,5.312,0,0,1-2.8-3.292,20.248,20.248,0,0,1-.7-5.884,19.517,19.517,0,0,1,.7-5.814A4.809,4.809,0,0,1,123.8-146.2,16.32,16.32,0,0,1,130.946-147.459ZM286.871-69.426h43.149a40.7,40.7,0,0,1,4.833.21,11.224,11.224,0,0,1,3.713,1.331q3.783,1.961,3.783,10.927,0,9.807-5.184,11.488a23.424,23.424,0,0,1-7.285.841H274.4q-9.807,0-11.488-5.324a22.029,22.029,0,0,1-.841-7.145V-134.99q0-7.145,2.662-9.737t10.087-2.592h55.2a40.7,40.7,0,0,1,4.833.21,11.224,11.224,0,0,1,3.713,1.331q3.783,1.961,3.783,10.927,0,9.807-5.184,11.488a23.424,23.424,0,0,1-7.285.841H286.871v14.15H314.61a40.7,40.7,0,0,1,4.833.21,11.224,11.224,0,0,1,3.713,1.331q3.783,1.961,3.783,10.927,0,9.807-5.324,11.488a23.424,23.424,0,0,1-7.285.841H286.871ZM496.034-143.4a11.18,11.18,0,0,1,1.331,3.783,42.618,42.618,0,0,1,.21,4.9v77.753q0,9.667-5.324,11.348a22.707,22.707,0,0,1-6.725.841,23.679,23.679,0,0,1-6.444-.7,11.067,11.067,0,0,1-3.643-1.681,6.315,6.315,0,0,1-1.961-2.8,27.861,27.861,0,0,1-.7-7.285V-104.17q-3.5,4.343-10.227,13.8T454-78.532q-1.821,2.382-2.522,3.292a13.475,13.475,0,0,1-3.432,2.522,11.385,11.385,0,0,1-5.884,1.611,11.432,11.432,0,0,1-5.744-1.471,12.935,12.935,0,0,1-3.713-2.872l-1.121-1.541q-2.8-3.5-11.068-14.92t-8.966-12.258v47.212a40.7,40.7,0,0,1-.21,4.833,9.962,9.962,0,0,1-1.331,3.572q-2.1,3.783-10.927,3.783-8.546,0-10.647-3.783a9.946,9.946,0,0,1-1.331-3.642,44.3,44.3,0,0,1-.21-5.043V-134.99a40.7,40.7,0,0,1,.21-4.833,11.224,11.224,0,0,1,1.331-3.713q2.1-3.642,10.927-3.642a20.689,20.689,0,0,1,6.514.911,8.4,8.4,0,0,1,3.572,1.891l.841.841,31.8,41.748q23.816-31.521,31.8-41.608,2.382-3.783,11.278-3.783T496.034-143.4Z" transform="translate(217.426 1298.092)" fill="#21214b"/>
    <g id="Grupo_55360" data-name="Grupo 55360" transform="translate(218.448 1287.299)">
      <path id="Trazado_99202" data-name="Trazado 99202" d="M506.547,163.879c-8.682-1.459-12.642-19.5-9.015-41.074S510.8,85.477,519.481,86.937s12.642,19.5,9.016,41.074S515.228,165.339,506.547,163.879Zm12.659-75.305c-7.5-1.261-16.68,14.541-20.036,34.506s.148,37.9,7.653,39.161S523.5,147.7,526.858,127.735,526.71,89.836,519.206,88.574Z" transform="translate(-473.784 -86.32)" fill="#31326f"/>
      <path id="Trazado_99203" data-name="Trazado 99203" d="M466.841,157.667c-2.813-.473-4.9-1.5-6.036-3.113a5.923,5.923,0,0,1-.731-5.063c1.852-7.354,14.2-17.838,30.726-26.086,21.427-10.695,41.855-13.907,46.505-7.314a5.925,5.925,0,0,1,.731,5.064c-1.852,7.354-14.2,17.837-30.726,26.085C491.129,155.316,475.518,159.126,466.841,157.667Zm64.209-43.091c-8.133-1.367-23.915,2.532-39.507,10.314-15.867,7.919-28.144,18.2-29.857,25.006a4.344,4.344,0,0,0,.477,3.7c4.051,5.742,24.386,2.15,44.407-7.842h0c15.866-7.919,28.143-18.2,29.857-25.005a4.346,4.346,0,0,0-.478-3.7C535.052,115.778,533.359,114.964,531.049,114.576Z" transform="translate(-459.825 -96.234)" fill="#31326f"/>
      <path id="Trazado_99204" data-name="Trazado 99204" d="M526.521,160.406c-8.843-1.486-22.27-8.874-35.352-20.047h0c-14.35-12.256-24.024-25.588-24.073-33.176a5.765,5.765,0,0,1,1.842-4.6c5.988-5.248,25.132,2.985,43.585,18.744,14.351,12.256,24.025,25.589,24.074,33.177a5.763,5.763,0,0,1-1.843,4.6C533.011,160.632,530.151,161.017,526.521,160.406ZM492.248,139.1c19.03,16.252,36.777,22.82,41.412,18.758a4.184,4.184,0,0,0,1.276-3.341c-.045-7.022-9.7-20.151-23.491-31.924-19.03-16.252-36.776-22.82-41.412-18.758a4.187,4.187,0,0,0-1.277,3.341C468.8,114.2,478.462,127.323,492.248,139.1Z" transform="translate(-462.616 -91.755)" fill="#31326f"/>
      <g id="Grupo_53367" data-name="Grupo 53367" transform="translate(65.467 60.55)">
        <path id="Trazado_99205" data-name="Trazado 99205" d="M572.755,195.82a5.916,5.916,0,0,1-6.185-3.478,5.579,5.579,0,0,1-.376-3.427A5.853,5.853,0,0,1,574.717,185c.108.06.211.124.314.187a5.547,5.547,0,0,1,1.431,1.332C578.958,189.776,577.3,195.165,572.755,195.82Z" transform="translate(-566.077 -184.265)" fill="#9ddfd3"/>
        <path id="Trazado_99206" data-name="Trazado 99206" d="M573.062,197.222a5.916,5.916,0,0,1-6.186-3.478,12.235,12.235,0,0,0,2.622.778,5.985,5.985,0,0,0,7.274-6.55c0-.017,0-.038,0-.055C579.264,191.178,577.605,196.567,573.062,197.222Z" transform="translate(-566.383 -185.666)" opacity="0.5" style="mix-blend-mode: soft-light;isolation: isolate"/>
        <path id="Trazado_99207" data-name="Trazado 99207" d="M575.061,186.713a1.663,1.663,0,0,0-.828-.879c-1.959-1.068-4.957.159-5.486,2.242a1.421,1.421,0,0,0,.589,1.573,2.861,2.861,0,0,0,2.2.133,7.514,7.514,0,0,0,2.714-1.453C574.719,187.95,575.26,187.356,575.061,186.713Z" transform="translate(-567.083 -184.716)" fill="#fff" style="mix-blend-mode: soft-light;isolation: isolate"/>
      </g>
      <g id="Grupo_53368" data-name="Grupo 53368" transform="translate(1.802 38.521)">
        <path id="Trazado_99208" data-name="Trazado 99208" d="M469.428,160.068a5.916,5.916,0,0,1-6.186-3.478,5.582,5.582,0,0,1-.376-3.428,5.853,5.853,0,0,1,8.524-3.919c.108.06.211.124.314.188a5.539,5.539,0,0,1,1.431,1.331C475.631,154.024,473.971,159.413,469.428,160.068Z" transform="translate(-462.75 -148.513)" fill="#9ddfd3"/>
        <path id="Trazado_99209" data-name="Trazado 99209" d="M469.735,161.47a5.917,5.917,0,0,1-6.186-3.478,12.228,12.228,0,0,0,2.623.778,5.985,5.985,0,0,0,7.273-6.55c0-.017,0-.038,0-.055C475.938,155.426,474.278,160.815,469.735,161.47Z" transform="translate(-463.056 -149.915)" opacity="0.5" style="mix-blend-mode: soft-light;isolation: isolate"/>
        <path id="Trazado_99210" data-name="Trazado 99210" d="M471.734,150.961a1.662,1.662,0,0,0-.829-.879c-1.96-1.068-4.957.16-5.486,2.242a1.42,1.42,0,0,0,.59,1.572,2.859,2.859,0,0,0,2.2.134,7.523,7.523,0,0,0,2.714-1.453C471.392,152.2,471.933,151.6,471.734,150.961Z" transform="translate(-463.756 -148.964)" fill="#fff" style="mix-blend-mode: soft-light;isolation: isolate"/>
      </g>
      <g id="Grupo_53369" data-name="Grupo 53369" transform="translate(31.597 0)">
        <path id="Trazado_99211" data-name="Trazado 99211" d="M517.783,97.549a5.917,5.917,0,0,1-6.185-3.478,5.582,5.582,0,0,1-.375-3.428,5.852,5.852,0,0,1,8.524-3.918c.107.06.211.124.314.187a5.543,5.543,0,0,1,1.431,1.331C523.986,91.505,522.327,96.894,517.783,97.549Z" transform="translate(-511.105 -85.994)" fill="#9ddfd3"/>
        <path id="Trazado_99212" data-name="Trazado 99212" d="M518.09,98.951a5.917,5.917,0,0,1-6.186-3.478,12.243,12.243,0,0,0,2.623.778A5.985,5.985,0,0,0,521.8,89.7c0-.017,0-.038,0-.055C524.293,92.907,522.634,98.3,518.09,98.951Z" transform="translate(-511.412 -87.396)" opacity="0.5" style="mix-blend-mode: soft-light;isolation: isolate"/>
        <path id="Trazado_99213" data-name="Trazado 99213" d="M520.09,88.442a1.664,1.664,0,0,0-.829-.879c-1.959-1.068-4.957.159-5.486,2.242a1.42,1.42,0,0,0,.589,1.572,2.86,2.86,0,0,0,2.2.134,7.525,7.525,0,0,0,2.714-1.454C519.747,89.679,520.288,89.085,520.09,88.442Z" transform="translate(-512.112 -86.445)" fill="#fff" style="mix-blend-mode: soft-light;isolation: isolate"/>
      </g>
      <g id="Grupo_53370" data-name="Grupo 53370" transform="translate(29.694 29.523)">
        <path id="Trazado_99214" data-name="Trazado 99214" d="M519.046,152.992a9.771,9.771,0,0,1-10.216-5.743,9.219,9.219,0,0,1-.62-5.661,9.666,9.666,0,0,1,14.078-6.471c.178.1.348.2.518.309a9.158,9.158,0,0,1,2.363,2.2C529.291,143.011,526.55,151.91,519.046,152.992Z" transform="translate(-508.017 -133.908)" fill="#cc3d60"/>
        <path id="Trazado_99215" data-name="Trazado 99215" d="M519.553,155.308a9.771,9.771,0,0,1-10.216-5.743,20.234,20.234,0,0,0,4.332,1.284,10.934,10.934,0,0,0,6.927-.956c3.419-1.852,5.19-5.97,5.086-9.861,0-.028,0-.063-.005-.091C529.8,145.326,527.057,154.226,519.553,155.308Z" transform="translate(-508.524 -136.224)" opacity="0.5" style="mix-blend-mode: soft-light;isolation: isolate"/>
        <path id="Trazado_99216" data-name="Trazado 99216" d="M522.855,137.952a2.745,2.745,0,0,0-1.368-1.452c-3.236-1.764-8.187.263-9.06,3.7a2.347,2.347,0,0,0,.973,2.6,4.726,4.726,0,0,0,3.635.22,12.414,12.414,0,0,0,4.482-2.4C522.29,139.995,523.184,139.013,522.855,137.952Z" transform="translate(-509.68 -134.654)" fill="#fff" style="mix-blend-mode: soft-light;isolation: isolate"/>
      </g>
    </g>
    <g id="Grupo_55361" data-name="Grupo 55361" transform="translate(342.93 1281.005)">
      <path id="Trazado_99231" data-name="Trazado 99231" d="M380.194,172.077a6.174,6.174,0,1,1-12.348,0,6.174,6.174,0,0,1,12.348,0Z" transform="translate(-331.729 -89.041)" fill="#cc3d60"/>
      <path id="Trazado_99232" data-name="Trazado 99232" d="M380.194,174.056a6.194,6.194,0,0,1-.286,1.859,19.212,19.212,0,0,1-5.508.586,23.5,23.5,0,0,1-6.268-.586,6.192,6.192,0,0,1-.286-1.859,6.112,6.112,0,0,1,1.312-3.8,20.592,20.592,0,0,0,9.729,0A6.137,6.137,0,0,1,380.194,174.056Z" transform="translate(-331.729 -91.02)" opacity="0.5" style="mix-blend-mode: soft-light;isolation: isolate"/>
      <path id="Trazado_99233" data-name="Trazado 99233" d="M381.782,85.714a.046.046,0,0,0-.007.021,20.125,20.125,0,0,1-1.346,3.02c-2.379,4.308-6.162,7.645-9.1,11.593-2.761,3.722-4.779,8.521-3.606,12.918a28.286,28.286,0,0,1-6.967,1.442,16.248,16.248,0,0,1-7.809-1.3c1.261-4.438-.777-9.305-3.559-13.065-2.931-3.947-6.718-7.284-9.094-11.593-.144-.259-.28-.522-.406-.787a21.665,21.665,0,0,1,1.52-21.467c6.685-9.687,20.83-11.647,30.813-6.251a20.045,20.045,0,0,1,7.09,6.251A21.756,21.756,0,0,1,381.782,85.714Z" transform="translate(-318.066 -39.75)" fill="#ffc93c"/>
      <path id="Trazado_99234" data-name="Trazado 99234" d="M383.56,109.367a20.128,20.128,0,0,1-1.346,3.02c-2.379,4.308-6.163,7.645-9.1,11.593-2.761,3.722-4.779,8.521-3.606,12.918a28.284,28.284,0,0,1-6.967,1.442,16.248,16.248,0,0,1-7.809-1.3c1.261-4.438-.777-9.305-3.559-13.065-2.931-3.947-6.718-7.284-9.094-11.593-.144-.259-.28-.522-.406-.787,2.093,1.878,4,3.974,6.21,5.713.3.239.611.467.924.692a24.437,24.437,0,0,0,19.05,4.2c6.7-1.5,12.847-6.04,15.505-12.373C383.431,109.68,383.492,109.524,383.56,109.367Z" transform="translate(-319.851 -63.382)" opacity="0.5" style="mix-blend-mode: soft-light;isolation: isolate"/>
      <path id="Trazado_99235" data-name="Trazado 99235" d="M379.054,172.407a16.369,16.369,0,0,1-7.208,1.218,20.276,20.276,0,0,1-7.2-.9c-.258-.1-.514-.2-.766-.323-2.821-1.325-1.825-6.357,1.295-5.415.166.046.325.1.491.146a20.735,20.735,0,0,0,11.6,0c.166-.046.325-.1.491-.146C380.88,166.05,381.876,171.082,379.054,172.407Z" transform="translate(-329.174 -89.483)" fill="#31326f"/>
      <path id="Trazado_99236" data-name="Trazado 99236" d="M379.054,164.085a16.369,16.369,0,0,1-7.208,1.218,20.275,20.275,0,0,1-7.2-.9c-.258-.1-.514-.2-.766-.323-2.821-1.325-1.825-6.356,1.295-5.415.166.046.325.1.491.146a20.731,20.731,0,0,0,11.6,0c.166-.046.325-.1.491-.146C380.88,157.729,381.876,162.76,379.054,164.085Z" transform="translate(-329.174 -85.706)" fill="#31326f"/>
      <path id="Trazado_99237" data-name="Trazado 99237" d="M379.054,155.764a16.376,16.376,0,0,1-7.208,1.218,20.276,20.276,0,0,1-7.2-.9q-.387-.147-.766-.323c-2.821-1.325-1.825-6.357,1.295-5.415.166.046.325.1.491.145a20.729,20.729,0,0,0,11.6,0c.166-.046.325-.1.491-.145C380.88,149.407,381.876,154.438,379.054,155.764Z" transform="translate(-329.174 -81.93)" fill="#31326f"/>
      <path id="Trazado_99238" data-name="Trazado 99238" d="M381.369,110.372c-.094-.33-.65-.236-.7.129-.263,2-.543,3.382-2.675,3.973a4.634,4.634,0,0,1-2.678-.257,4.221,4.221,0,0,0,1.542-1.381,2.4,2.4,0,0,0-.084-2.957,2.444,2.444,0,0,0-3.3.1c-1.359,1.294-1.016,2.667.033,3.98a4.963,4.963,0,0,1-2.965-.227c.867-.805,1.738-1.7,1.48-3a2.1,2.1,0,0,0-2.486-1.6,2.264,2.264,0,0,0-1.907,2.657,3.515,3.515,0,0,0,1.152,1.882,5.826,5.826,0,0,1-3.045.035c.761-.918,1.172-1.725.543-2.933a2.176,2.176,0,0,0-3.052-.808c-1.2.83-.963,2.3-.078,3.257a5.181,5.181,0,0,0,.978.752,5.34,5.34,0,0,1-1.073.558,3.418,3.418,0,0,1-1.178.274c-1.878-.106-2.383-1.773-2.937-3.347-.109-.311-.662-.279-.711.026a3.5,3.5,0,0,0,2.595,4.065,4.1,4.1,0,0,0,1.833-.037.692.692,0,0,0,.186-.051,9.465,9.465,0,0,0,2.133-1.128,6.465,6.465,0,0,0,4.65-.04c.11.057.206.127.323.175a6.7,6.7,0,0,0,4.359.176,4.406,4.406,0,0,0,1.8.719C379.3,115.48,382.408,114.008,381.369,110.372Zm-16.57,2.964c-.1.094-.739-.517-.8-.6a1.987,1.987,0,0,1-.607-1.376.97.97,0,0,1,1.306-.822,1.236,1.236,0,0,1,.828,1.475A2.255,2.255,0,0,1,364.8,113.336Zm4.871-.107c-.042-.047-.1-.06-.146-.107-.418-.476-.85-.788-.868-1.526-.026-1.047.923-1.962,1.973-1.223.607.427.342,1.424-.039,1.971A3.992,3.992,0,0,1,369.67,113.229Zm4.706.425a2.252,2.252,0,0,1-.757-1.809,1.69,1.69,0,0,1,.8-1.319,1.138,1.138,0,0,1,1.788.96,2.724,2.724,0,0,1-1.5,1.992C374.6,113.555,374.491,113.589,374.377,113.654Z" transform="translate(-327.339 -63.257)" style="mix-blend-mode: soft-light;isolation: isolate"/>
      <path id="Trazado_99239" data-name="Trazado 99239" d="M380.5,160.381a37.209,37.209,0,0,1-7,.893c-2.216-.031-4.361-.669-6.542-.735a.1.1,0,0,0-.049.177c1.84,1.224,4.723,1.472,6.868,1.447a15.429,15.429,0,0,0,6.87-1.43C380.855,160.63,380.708,160.345,380.5,160.381Z" transform="translate(-331.285 -86.534)" fill="#9ddfd3"/>
      <path id="Trazado_99240" data-name="Trazado 99240" d="M367.251,168.617a36.98,36.98,0,0,0,6.971.867c2.2-.039,4.321-.685,6.486-.76a.1.1,0,0,1,.052.177c-1.8,1.232-4.665,1.49-6.8,1.472a15.382,15.382,0,0,1-6.854-1.4C366.907,168.867,367.047,168.582,367.251,168.617Z" transform="translate(-331.35 -90.272)" fill="#9ddfd3"/>
      <path id="Trazado_99241" data-name="Trazado 99241" d="M363.608,63.453a11.076,11.076,0,0,0-7.213.06,16.821,16.821,0,0,0-10.79,9.295,9.86,9.86,0,0,0-.125,7.908c1.927,3.985,7.547,4.367,11.37,3.461a16.42,16.42,0,0,0,10.591-8.6c1.886-3.887.9-9.886-3.349-11.915Q363.853,63.548,363.608,63.453Z" transform="translate(-321.227 -42.28)" fill="#fff" style="mix-blend-mode: soft-light;isolation: isolate"/>
      <g id="Grupo_53374" data-name="Grupo 53374" transform="translate(0 0)">
        <path id="Trazado_99242" data-name="Trazado 99242" d="M429.027,48.034c-2.149.686-3.9,2.633-5.609,4.071a57.85,57.85,0,0,0-5.472,4.988c-.713.771.077,2.339,1.165,1.859a55.37,55.37,0,0,0,6.156-3.306c1.967-1.18,4.587-2.226,5.973-4.079C432.447,49.953,431.252,47.324,429.027,48.034Z" transform="translate(-354.344 -35.491)" fill="#ffc93c"/>
        <path id="Trazado_99243" data-name="Trazado 99243" d="M428.939,67.3a32.8,32.8,0,0,0-3.361,1.206,8.238,8.238,0,0,0-2.748,1.442,1.027,1.027,0,0,0,.506,1.691,8.279,8.279,0,0,0,3.134-.265,32.764,32.764,0,0,0,3.5-.772A1.729,1.729,0,0,0,428.939,67.3Z" transform="translate(-356.557 -44.262)" fill="#ffc93c"/>
        <path id="Trazado_99244" data-name="Trazado 99244" d="M416.484,49.031a1.8,1.8,0,0,0-2.4.713c-.358.577-.766,1.146-1.073,1.75s-.531,1.274-.789,1.9a1.292,1.292,0,0,0,2.069,1.491,19.887,19.887,0,0,0,1.527-1.539c.493-.609.922-1.285,1.379-1.921A1.78,1.78,0,0,0,416.484,49.031Z" transform="translate(-351.82 -35.902)" fill="#ffc93c"/>
        <path id="Trazado_99245" data-name="Trazado 99245" d="M329.93,38.815c.8,2.108,2.846,3.746,4.376,5.374a58.105,58.105,0,0,0,5.284,5.186c.81.668,2.331-.208,1.791-1.266a55.221,55.221,0,0,0-3.643-5.964c-1.288-1.9-2.477-4.456-4.4-5.737C331.655,35.293,329.1,36.633,329.93,38.815Z" transform="translate(-314.446 -30.086)" fill="#ffc93c"/>
        <path id="Trazado_99246" data-name="Trazado 99246" d="M349.45,43.458a32.553,32.553,0,0,0,1.391,3.289,8.225,8.225,0,0,0,1.592,2.664,1.027,1.027,0,0,0,1.66-.6,8.27,8.27,0,0,0-.44-3.115,32.535,32.535,0,0,0-.965-3.447A1.729,1.729,0,0,0,349.45,43.458Z" transform="translate(-323.337 -32.425)" fill="#ffc93c"/>
        <path id="Trazado_99247" data-name="Trazado 99247" d="M332.017,58.538a1.8,1.8,0,0,0,.846,2.356c.6.326,1.186.7,1.807.975s1.3.459,1.945.682A1.292,1.292,0,0,0,337.99,60.4a19.8,19.8,0,0,0-1.621-1.439c-.636-.459-1.334-.85-2-1.27A1.781,1.781,0,0,0,332.017,58.538Z" transform="translate(-315.391 -39.84)" fill="#ffc93c"/>
        <path id="Trazado_99248" data-name="Trazado 99248" d="M384.078,25.448a1.691,1.691,0,0,0-1.573-.153,2.118,2.118,0,0,0-1.429,2.009,71.3,71.3,0,0,0,.245,10.265,1.1,1.1,0,0,0,2.151.22,74.238,74.238,0,0,0,1.669-10.617A1.986,1.986,0,0,0,384.078,25.448Z" transform="translate(-337.693 -25.166)" fill="#ffc93c"/>
        <path id="Trazado_99249" data-name="Trazado 99249" d="M427.253,121.688c-1.576-.627-3.4-1.688-5.139-1.4-.429.072-.915.475-.7.98.738,1.72,2.572,2.678,4.045,3.725a1.881,1.881,0,0,0,1.791-3.308Z" transform="translate(-356.018 -68.317)" fill="#ffc93c"/>
        <path id="Trazado_99250" data-name="Trazado 99250" d="M340.284,139.3a.745.745,0,0,0-.741-.695c-1.617-.133-3.021,1.667-4.127,2.651-1.52,1.352-2.965,2.752-4.4,4.2-1.68,1.69,1.052,4.257,2.7,2.53,1.4-1.469,2.762-2.949,4.07-4.5C338.74,142.354,340.467,140.916,340.284,139.3Z" transform="translate(-314.775 -76.652)" fill="#ffc93c"/>
        <path id="Trazado_99251" data-name="Trazado 99251" d="M338.715,132.871c-.686-.566-1.594-.045-2.271.288a15.714,15.714,0,0,0-3.155,1.908,1.215,1.215,0,0,0,1.293,2.056C335.245,136.782,339.974,133.91,338.715,132.871Z" transform="translate(-315.81 -73.936)" fill="#ffc93c"/>
        <path id="Trazado_99252" data-name="Trazado 99252" d="M437.792,113.478c-1.31-1.322-3.505-1.276-5.282-1.454-2.071-.208-4.255-.579-6.252.152-.336.123-.546.638-.2.892,1.681,1.253,3.721,1.556,5.737,1.956,1.883.372,4.091,1.072,5.841.123A1.07,1.07,0,0,0,437.792,113.478Z" transform="translate(-358.068 -64.461)" fill="#ffc93c"/>
        <path id="Trazado_99253" data-name="Trazado 99253" d="M316.283,98.423c-1.62-1.217-4.411-1.069-6.4-1.11-2.368-.049-5.666-.512-7.691.869a1.071,1.071,0,0,0,.059,1.827c2.142,1.232,5.355.513,7.728.28,1.961-.192,4.794-.264,6.308-1.6A.19.19,0,0,0,316.283,98.423Z" transform="translate(-301.713 -57.86)" fill="#ffc93c"/>
        <path id="Trazado_99254" data-name="Trazado 99254" d="M416.637,144.775a39.744,39.744,0,0,0-3.587-2.913,17.456,17.456,0,0,0-3.563-2.387c-.556-.247-1.26.343-.863.921a18.276,18.276,0,0,0,3.148,3.226,39.9,39.9,0,0,0,3.548,2.978C416.4,147.361,417.525,145.645,416.637,144.775Z" transform="translate(-350.184 -77.021)" fill="#ffc93c"/>
        <path id="Trazado_99255" data-name="Trazado 99255" d="M435.072,90.4a1.122,1.122,0,0,0-1.078-.766,35.238,35.238,0,0,0-4.405.649c-.636.133-.62,1.24.043,1.312a35.46,35.46,0,0,0,4.433.22,1.115,1.115,0,0,0,1.025-.835A.833.833,0,0,0,435.072,90.4Z" transform="translate(-359.541 -54.425)" fill="#ffc93c"/>
        <path id="Trazado_99256" data-name="Trazado 99256" d="M332.083,126.247c-1.772-.618-3.963.7-5.587,1.357-1.454.592-3.836.921-4.246,2.645a.738.738,0,0,0,.33.812c1.549.91,3.4-.567,4.858-1.221,1.6-.714,4.066-1.393,4.847-3.093A.347.347,0,0,0,332.083,126.247Z" transform="translate(-311.025 -70.971)" fill="#ffc93c"/>
      </g>
    </g>
    <g id="Grupo_55362" data-name="Grupo 55362" transform="translate(474 1285.501)">
      <path id="Trazado_99217" data-name="Trazado 99217" d="M429.35,371.634c-.707-.89-1.367-1.708-1.931-2.383a1.611,1.611,0,0,0-2.151-.27,47.051,47.051,0,0,0-7.889,7.081c-.277.3-.564.609-.856.926a26.218,26.218,0,0,0-6.488-4.168c.177-.54.346-1.073.514-1.6a51.782,51.782,0,0,0,2.388-10.073,1.613,1.613,0,0,0-1.273-1.769c-3.51-.685-9.576-1.505-13.013-1.807a1.611,1.611,0,0,0-1.716,1.327,46.986,46.986,0,0,0-.568,10.584c.022.593.046,1.219.08,1.849a26.351,26.351,0,0,0-7.263,1.494c-.069.024-.139.055-.208.078-.343-.69-.7-1.375-1.042-2.043a51.843,51.843,0,0,0-5.432-8.809,1.609,1.609,0,0,0-2.154-.348c-2.964,2-7.832,5.7-10.475,7.921a1.615,1.615,0,0,0-.275,2.154,47.033,47.033,0,0,0,7.08,7.889c.359.329.726.671,1.1,1.018-.014.017-.031.029-.046.046a26.6,26.6,0,0,0-3.982,6.525c-.692-.232-1.382-.452-2.061-.666a51.743,51.743,0,0,0-10.073-2.389,1.608,1.608,0,0,0-1.767,1.278c-.688,3.506-1.508,9.572-1.809,13.009a1.612,1.612,0,0,0,1.331,1.713,47.208,47.208,0,0,0,10.582.575l1.586-.068a27.107,27.107,0,0,0,1.686,7.528c-.644.316-1.279.645-1.905.968a51.9,51.9,0,0,0-8.806,5.436,1.6,1.6,0,0,0-.351,2.149c.372.557.807,1.182,1.278,1.839,1.422,1.992,3.195,4.339,4.754,6.31.69.876,1.338,1.676,1.889,2.334a1.61,1.61,0,0,0,2.15.271,46.667,46.667,0,0,0,7.889-7.081c.364-.39.739-.8,1.116-1.215a28.17,28.17,0,0,0,6.71,4.046c-.251.739-.486,1.472-.715,2.2a52.043,52.043,0,0,0-2.387,10.066,1.6,1.6,0,0,0,1.273,1.769c3.514.689,9.576,1.505,13.017,1.812a1.605,1.605,0,0,0,1.708-1.329,46.778,46.778,0,0,0,.573-10.586c-.02-.575-.045-1.173-.078-1.791a26.763,26.763,0,0,0,7.413-1.808q.528,1.067,1.068,2.1a51.833,51.833,0,0,0,5.432,8.809,1.609,1.609,0,0,0,2.153.348c2.968-1.992,7.832-5.7,10.475-7.921a1.6,1.6,0,0,0,.274-2.146,46.719,46.719,0,0,0-7.076-7.893c-.405-.374-.826-.762-1.263-1.153a27.572,27.572,0,0,0,4.214-6.488c.644.221,1.29.426,1.925.626a51.8,51.8,0,0,0,10.071,2.385,1.6,1.6,0,0,0,1.769-1.273c.688-3.507,1.509-9.572,1.81-13.01a1.612,1.612,0,0,0-1.332-1.713,46.687,46.687,0,0,0-10.582-.575l-1.408.057a28.478,28.478,0,0,0-1.866-7.556c.6-.3,1.188-.6,1.76-.895a52.322,52.322,0,0,0,8.809-5.432,1.614,1.614,0,0,0,.352-2.156c-.535-.79-1.189-1.718-1.907-2.705C432.154,375.262,430.672,373.315,429.35,371.634Zm-20.361,21.188a11,11,0,0,1,1.141,3.117,11.588,11.588,0,0,1-11.657,13.892,11.473,11.473,0,0,1-6.238-2.178,11.727,11.727,0,0,1-3.343-3.733l-.006-.009a12.185,12.185,0,0,1-1.59-6.074c.015-5.48,4.491-9.96,9.736-10.914a11.2,11.2,0,0,1,8.949,2.326,11.8,11.8,0,0,1,1.4,1.306A11.234,11.234,0,0,1,408.989,392.822Z" transform="translate(-358.039 -357.565)" fill="#24b3b3"/>
      <g id="Grupo_53372" data-name="Grupo 53372" transform="translate(8.014 8.304)">
        <path id="Trazado_99218" data-name="Trazado 99218" d="M423.051,370.684c.23-1.53-1.207-1.762-1.438-.227-.645,4.3-1.55,8.793-1.523,13.079,0,.472.428.556.574.09C421.951,379.523,422.406,374.981,423.051,370.684Z" transform="translate(-384.62 -369.415)" fill="#263780"/>
        <path id="Trazado_99219" data-name="Trazado 99219" d="M455.9,421.722c1.53.23,1.762-1.207.227-1.438-4.3-.645-8.793-1.55-13.079-1.522-.472,0-.556.427-.09.573C447.061,420.622,451.6,421.076,455.9,421.722Z" transform="translate(-391.37 -384.181)" fill="#263780"/>
        <path id="Trazado_99220" data-name="Trazado 99220" d="M408.872,453.205c-.229,1.53,1.207,1.762,1.438.228.646-4.3,1.55-8.794,1.523-13.079,0-.472-.428-.556-.574-.091C409.973,444.367,409.518,448.908,408.872,453.205Z" transform="translate(-381.256 -390.523)" fill="#263780"/>
        <path id="Trazado_99221" data-name="Trazado 99221" d="M370.744,407.127c-1.53-.23-1.762,1.207-.227,1.437,4.3.646,8.793,1.55,13.079,1.523.472,0,.556-.428.09-.574C379.583,408.227,375.041,407.772,370.744,407.127Z" transform="translate(-369.475 -380.692)" fill="#263780"/>
        <path id="Trazado_99222" data-name="Trazado 99222" d="M448.422,388.748c1.244-.919.392-2.1-.856-1.177-3.5,2.585-7.315,5.122-10.325,8.172-.332.336-.091.7.341.47C441.394,394.221,444.927,391.331,448.422,388.748Z" transform="translate(-389.706 -374.748)" fill="#263780"/>
        <path id="Trazado_99223" data-name="Trazado 99223" d="M440.208,448.482c.919,1.245,2.1.392,1.177-.856-2.585-3.5-5.121-7.314-8.172-10.325-.336-.332-.7-.091-.469.341C434.736,441.455,437.625,444.988,440.208,448.482Z" transform="translate(-388.386 -389.682)" fill="#263780"/>
        <path id="Trazado_99224" data-name="Trazado 99224" d="M379.775,437.485c-1.245.92-.392,2.1.856,1.177,3.5-2.584,7.314-5.121,10.324-8.172.332-.336.091-.7-.341-.47C386.8,432.013,383.27,434.9,379.775,437.485Z" transform="translate(-372.375 -387.529)" fill="#263780"/>
        <path id="Trazado_99225" data-name="Trazado 99225" d="M390.347,378.289c-.919-1.244-2.1-.392-1.177.856,2.584,3.5,5.121,7.314,8.172,10.325.336.331.7.09.469-.342C395.819,385.317,392.93,381.784,390.347,378.289Z" transform="translate(-375.268 -371.888)" fill="#263780"/>
      </g>
      <path id="Trazado_99226" data-name="Trazado 99226" d="M437.776,385.335c.718.987,1.372,1.915,1.907,2.7a1.614,1.614,0,0,1-.352,2.156,52.317,52.317,0,0,1-8.809,5.432c-.572.3-1.16.6-1.76.895a28.476,28.476,0,0,1,1.866,7.556l1.408-.057a46.687,46.687,0,0,1,10.582.575,1.612,1.612,0,0,1,1.332,1.713c-.3,3.437-1.122,9.5-1.81,13.01a1.6,1.6,0,0,1-1.769,1.273,51.791,51.791,0,0,1-10.071-2.385c-.635-.2-1.281-.406-1.925-.626a27.573,27.573,0,0,1-4.214,6.488c.437.391.858.779,1.263,1.153a46.729,46.729,0,0,1,7.076,7.893,1.6,1.6,0,0,1-.274,2.146c-2.643,2.219-7.507,5.929-10.475,7.921a1.61,1.61,0,0,1-2.154-.348,51.841,51.841,0,0,1-5.432-8.809q-.539-1.029-1.068-2.1a26.762,26.762,0,0,1-7.413,1.808c.033.618.057,1.217.078,1.791a46.778,46.778,0,0,1-.573,10.586,1.605,1.605,0,0,1-1.708,1.329c-3.441-.306-9.5-1.122-13.017-1.812a1.6,1.6,0,0,1-1.273-1.769,52.057,52.057,0,0,1,2.387-10.066c.229-.723.464-1.457.715-2.2a28.165,28.165,0,0,1-6.71-4.046c-.377.42-.751.825-1.116,1.215a46.666,46.666,0,0,1-7.889,7.081,1.61,1.61,0,0,1-2.15-.271c-.551-.658-1.2-1.458-1.889-2.334.948-1.027,2-1.961,2.994-2.866q1.4-1.279,2.852-2.5c1.542-1.312,3.105-2.6,4.659-3.891a2.411,2.411,0,0,1,1.152-.645,2.289,2.289,0,0,1,1.822.966c1.246,1.331,3.285,2.087,4.9,2.94a23.686,23.686,0,0,0,34.726-22.4,20.614,20.614,0,0,0-1.219-6.748,5.9,5.9,0,0,1-.637-2.133,3.32,3.32,0,0,1,1.07-2.308,21.636,21.636,0,0,1,3.121-2.117,34.926,34.926,0,0,1,3.535-1.987,35.814,35.814,0,0,0,5.941-3.976C437.509,385.542,437.623,385.453,437.776,385.335Z" transform="translate(-362.378 -365.875)" opacity="0.5" style="mix-blend-mode: soft-light;isolation: isolate"/>
      <path id="Trazado_99227" data-name="Trazado 99227" d="M419.509,402.514a11.794,11.794,0,0,0-1.4-1.306,11.2,11.2,0,0,0-8.949-2.326c-5.245.954-9.722,5.434-9.736,10.914a12.184,12.184,0,0,0,1.59,6.074,9.927,9.927,0,0,1-2.444-6.857,11.408,11.408,0,0,1,5.994-9.741c3.521-2,8.2-2.5,11.592-.312A10.212,10.212,0,0,1,419.509,402.514Z" transform="translate(-370.167 -369.524)" opacity="0.5" style="mix-blend-mode: soft-light;isolation: isolate"/>
      <path id="Trazado_99228" data-name="Trazado 99228" d="M429.35,371.634a16.365,16.365,0,0,1-2.94,2.713q-1.4,1.279-2.852,2.5c-1.542,1.313-3.105,2.6-4.659,3.891a2.4,2.4,0,0,1-1.153.646,2.29,2.29,0,0,1-1.821-.966c-1.247-1.331-3.285-2.087-4.9-2.94a23.686,23.686,0,0,0-34.725,22.4,20.591,20.591,0,0,0,1.219,6.748,5.928,5.928,0,0,1,.637,2.133,3.32,3.32,0,0,1-1.07,2.308,21.623,21.623,0,0,1-3.121,2.118,35.273,35.273,0,0,1-3.535,1.987c-2.288,1.233-4.214,2.654-6.519,3.336-.153.045-.308.086-.465.126-.471-.657-.906-1.282-1.278-1.839a1.6,1.6,0,0,1,.351-2.149,51.9,51.9,0,0,1,8.806-5.436c.626-.322,1.261-.652,1.905-.968a27.107,27.107,0,0,1-1.686-7.528l-1.586.068a47.208,47.208,0,0,1-10.582-.575,1.612,1.612,0,0,1-1.331-1.713c.3-3.437,1.122-9.5,1.809-13.009a1.608,1.608,0,0,1,1.767-1.278,51.743,51.743,0,0,1,10.073,2.389c.679.214,1.369.435,2.061.666a26.6,26.6,0,0,1,3.982-6.525c.014-.017.032-.029.046-.046-.378-.347-.746-.689-1.1-1.018a47.033,47.033,0,0,1-7.08-7.889,1.615,1.615,0,0,1,.275-2.154c2.643-2.219,7.511-5.924,10.475-7.921a1.609,1.609,0,0,1,2.154.348,51.843,51.843,0,0,1,5.432,8.809c.347.669.7,1.353,1.042,2.043.069-.024.139-.055.208-.078a26.351,26.351,0,0,1,7.263-1.494c-.034-.63-.058-1.255-.08-1.849a46.986,46.986,0,0,1,.568-10.584,1.611,1.611,0,0,1,1.716-1.327c3.437.3,9.5,1.122,13.013,1.807a1.613,1.613,0,0,1,1.273,1.769,51.782,51.782,0,0,1-2.388,10.073c-.167.526-.336,1.059-.514,1.6a26.218,26.218,0,0,1,6.488,4.168c.292-.317.578-.625.856-.926a47.051,47.051,0,0,1,7.889-7.081,1.611,1.611,0,0,1,2.151.27C427.983,369.926,428.643,370.744,429.35,371.634Z" transform="translate(-358.039 -357.565)" fill="#fff" style="mix-blend-mode: soft-light;isolation: isolate"/>
      <path id="Trazado_99229" data-name="Trazado 99229" d="M423.591,407.877a10.979,10.979,0,0,1,2.215,6.9,12,12,0,0,1-4.172,8.5,11.11,11.11,0,0,1-14.8-.563,11.436,11.436,0,0,0,17.895-11.714A11.009,11.009,0,0,0,423.591,407.877Z" transform="translate(-372.641 -372.62)" fill="#fff" style="mix-blend-mode: soft-light;isolation: isolate"/>
    </g>
    <g id="matematicas" transform="translate(610.076 1301.794)">
      <path id="Trazado_99316" data-name="Trazado 99316" d="M305.477,202.675l-8.1-8.1,8.1-8.1a2.446,2.446,0,0,0,0-3.459l-4.323-4.323a2.446,2.446,0,0,0-3.459,0l-8.1,8.1-8.1-8.1a2.446,2.446,0,0,0-3.459,0l-4.323,4.323a2.446,2.446,0,0,0,0,3.459l8.1,8.1-8.1,8.1a2.446,2.446,0,0,0,0,3.459l4.323,4.323a2.446,2.446,0,0,0,3.459,0l8.1-8.1,8.1,8.1a2.446,2.446,0,0,0,3.459,0l4.323-4.323A2.446,2.446,0,0,0,305.477,202.675Z" transform="translate(-232.514 -165.674)" fill="#ffc93c"/>
      <g id="Grupo_53408" data-name="Grupo 53408" transform="translate(0 0)">
        <path id="Trazado_99317" data-name="Trazado 99317" d="M286.534,200.527a4.66,4.66,0,0,1-3.317-1.374l-6.513-6.513-6.513,6.513a4.691,4.691,0,0,1-6.633,0l-4.323-4.323a4.69,4.69,0,0,1,0-6.633l6.513-6.513-6.513-6.513a4.69,4.69,0,0,1,0-6.633l4.323-4.323a4.69,4.69,0,0,1,6.633,0l6.513,6.513,6.513-6.513a4.69,4.69,0,0,1,6.633,0l4.323,4.323a4.69,4.69,0,0,1,0,6.633l-6.513,6.513,6.513,6.513a4.69,4.69,0,0,1,0,6.633l-4.323,4.324A4.66,4.66,0,0,1,286.534,200.527ZM276.7,186.292l9.687,9.687a.2.2,0,0,0,.285,0L291,191.655a.2.2,0,0,0,0-.284l-9.687-9.687L291,172a.2.2,0,0,0,0-.285l-4.323-4.323a.2.2,0,0,0-.285,0l-9.687,9.687-9.687-9.687a.2.2,0,0,0-.284,0l-4.324,4.324a.2.2,0,0,0,0,.285l9.687,9.687-9.687,9.687a.2.2,0,0,0,0,.285l4.323,4.323a.2.2,0,0,0,.285,0Z" transform="translate(-219.623 -152.783)" fill="#21214b"/>
        <path id="Trazado_99318" data-name="Trazado 99318" d="M21.88,142.76a4.672,4.672,0,0,1-4.4-3l-5.02-12.677a2.063,2.063,0,0,0-1.929-1.311H0V121.28H10.532a6.529,6.529,0,0,1,6.1,4.147L21.656,138.1a.264.264,0,0,0,.5-.033l9.489-38.078a6.554,6.554,0,0,1,6.369-4.977H74.675v4.489H38.016A2.072,2.072,0,0,0,36,101.078l-9.489,38.077a4.68,4.68,0,0,1-4.3,3.593Q22.047,142.76,21.88,142.76Z" transform="translate(0 -95.016)" fill="#31326f"/>
      </g>
    </g>
  </g>
</svg>
