<svg xmlns="http://www.w3.org/2000/svg" width="346.966" height="198.857" viewBox="0 0 346.966 198.857">
  <g id="Grupo_57322" data-name="Grupo 57322" transform="translate(-888 -1391.51)">
    <path id="Trazado_101438" data-name="Trazado 101438" d="M329.329,108.441H314.094a13.8,13.8,0,0,1-13.8-13.8h0a13.8,13.8,0,0,1,13.8-13.8h9.591a5.957,5.957,0,0,0,5.959-4.972,5.842,5.842,0,0,0-5.777-6.706H300.978a.69.69,0,0,1-.685-.7,14.022,14.022,0,0,0-14.022-14h-82.62a3.766,3.766,0,0,1-3.738-2.916,3.68,3.68,0,0,1,3.6-4.437h57.592a7.429,7.429,0,0,0,7.41-6.1,7.3,7.3,0,0,0-7.2-8.5H95.748a7.429,7.429,0,0,0-7.41,6.1,7.3,7.3,0,0,0,7.2,8.5h28.28a8.132,8.132,0,0,1,8.111,6.679,8,8,0,0,1-7.886,9.3H39.981A31.181,31.181,0,0,0,8.8,94.263h0A31.183,31.183,0,0,0,34.181,124.9a4.6,4.6,0,0,1,3.707,4.538v2.544a4.634,4.634,0,0,1-4.634,4.634h0a22.941,22.941,0,0,0-22.941,22.941h0a22.941,22.941,0,0,0,22.941,22.94h.083a6.9,6.9,0,0,1,6.895,6.895v.017a7.161,7.161,0,0,1-6.517,7.1,7.493,7.493,0,0,0-1.689.316,17.765,17.765,0,0,0,5.91,34.538H301.783a18.06,18.06,0,0,0,18.131-16.355c.006-.083.013-.165.018-.247a8.554,8.554,0,0,1,8.5-8.052h3.27a14.76,14.76,0,0,0,14.76-14.76h0c0-6.147-4.955-11.231-10.887-13.36a9.05,9.05,0,0,1-6.111-8.472v-.426a9.815,9.815,0,0,1,7.185-9.4,26.449,26.449,0,0,0,19.113-25.41h0A26.437,26.437,0,0,0,329.329,108.441Z" transform="translate(879.2 1359.006)" fill="#9ddfd3"/>
    <g id="formacion" transform="translate(998.331 1470)">
      <g id="Grupo_57133" data-name="Grupo 57133" transform="translate(6.645 2.882)">
        <g id="Grupo_57113" data-name="Grupo 57113" transform="translate(79.034 11.291)">
          <path id="Trazado_101414" data-name="Trazado 101414" d="M76.108,11.764V26.818a3.775,3.775,0,0,1-3.764,3.764H64.818l-6.756,6.756a2.661,2.661,0,0,1-4.535-1.882V30.581H49.764A3.775,3.775,0,0,1,46,26.818V11.764A3.775,3.775,0,0,1,49.764,8H72.345A3.775,3.775,0,0,1,76.108,11.764Z" transform="translate(-46 -8)" fill="#e6e9ed"/>
        </g>
        <g id="Grupo_57114" data-name="Grupo 57114" transform="translate(0 94.069)">
          <path id="Trazado_101415" data-name="Trazado 101415" d="M21.576,53.288l1.242,2.484-6.135,2.051a7.483,7.483,0,0,0-4.968,5.495l-.132-.019H7.764A3.775,3.775,0,0,1,4,59.536V52.009H20.936l.038-.019c.188.433.4.866.6,1.3Z" transform="translate(-4 -51.99)" fill="#ccd1d9"/>
        </g>
        <g id="Grupo_57115" data-name="Grupo 57115" transform="translate(30.108 94.069)">
          <path id="Trazado_101416" data-name="Trazado 101416" d="M38.818,52.009v7.527A3.775,3.775,0,0,1,35.054,63.3h-3.82l-.132.019a7.483,7.483,0,0,0-4.968-5.495L20,55.772l1.242-2.484c.207-.433.414-.866.6-1.3l.038.019Z" transform="translate(-20 -51.99)" fill="#ccd1d9"/>
        </g>
        <g id="Grupo_57116" data-name="Grupo 57116" transform="translate(56.453 94.088)">
          <path id="Trazado_101417" data-name="Trazado 101417" d="M49.054,52v3.764l-3.368,1.675a7.586,7.586,0,0,0-4.1,5.852h-3.82A3.775,3.775,0,0,1,34,59.527V52Z" transform="translate(-34 -52)" fill="#ccd1d9"/>
        </g>
        <g id="Grupo_57117" data-name="Grupo 57117" transform="translate(90.325 94.088)">
          <path id="Trazado_101418" data-name="Trazado 101418" d="M67.054,52v7.527a3.775,3.775,0,0,1-3.764,3.764h-3.82a7.586,7.586,0,0,0-4.1-5.852L52,55.764V52Z" transform="translate(-52 -52)" fill="#ccd1d9"/>
        </g>
        <g id="Grupo_57118" data-name="Grupo 57118" transform="translate(7.828 42.923)">
          <path id="Trazado_101419" data-name="Trazado 101419" d="M77.127,30.455a14.089,14.089,0,0,0-8.186-4.008l-5.325-.659A5.9,5.9,0,0,1,62,25.337l-1.449,13-7.527-7.527L45.494,38.34,44.026,25.149a6.123,6.123,0,0,1-1.449.414,36.286,36.286,0,0,0-6.492,1.487c-4.5,1.505-8.976,5.382-10.632,6.925a8.941,8.941,0,0,0-1.581-1.9L15.706,24.81l-.32.358L8.16,32.394l9.409,8.468a12.131,12.131,0,0,0,13.549,1.844l4.911-2.465a5.068,5.068,0,0,1,.056.753V64.685H81.248V40.391A14.059,14.059,0,0,0,77.127,30.455Z" transform="translate(-8.16 -24.81)" fill="#b4dd7f"/>
        </g>
        <g id="Grupo_57119" data-name="Grupo 57119" transform="translate(0 67.744)">
          <path id="Trazado_101420" data-name="Trazado 101420" d="M52.926,41.764V64.345H35.99l-.038-.019a23.945,23.945,0,0,0,1.919-9.39,9.409,9.409,0,1,0-18.818,0,23.945,23.945,0,0,0,1.919,9.39l-.038.019H4V41.764A3.775,3.775,0,0,1,7.764,38h41.4a3.775,3.775,0,0,1,3.764,3.764Z" transform="translate(-4 -38)" fill="#69d6f4"/>
        </g>
        <g id="Grupo_57120" data-name="Grupo 57120" transform="translate(56.453 67.744)">
          <path id="Trazado_101421" data-name="Trazado 101421" d="M82.926,41.764V64.345H67.872V54.936a9.409,9.409,0,1,0-18.818,0v9.409H34V41.764A3.775,3.775,0,0,1,37.764,38h41.4A3.775,3.775,0,0,1,82.926,41.764Z" transform="translate(-34 -38)" fill="#69d6f4"/>
        </g>
        <g id="Grupo_57121" data-name="Grupo 57121" transform="translate(63.98 97.852)">
          <path id="Trazado_101422" data-name="Trazado 101422" d="M71.872,62.411v6.643H38V62.411a6.977,6.977,0,0,1,.056-.884,7.586,7.586,0,0,1,4.1-5.852L45.527,54v7.527H64.345V54l3.368,1.675a7.586,7.586,0,0,1,4.1,5.852A6.977,6.977,0,0,1,71.872,62.411Z" transform="translate(-38 -54)" fill="#fcd770"/>
        </g>
        <g id="Grupo_57122" data-name="Grupo 57122" transform="translate(7.527 97.852)">
          <path id="Trazado_101423" data-name="Trazado 101423" d="M41.872,63.183v5.871H8V63.183a6.722,6.722,0,0,1,.188-1.637,7.483,7.483,0,0,1,4.968-5.495L19.291,54H30.581l6.135,2.051a7.483,7.483,0,0,1,4.968,5.495A6.722,6.722,0,0,1,41.872,63.183Z" transform="translate(-8 -54)" fill="#ff826e"/>
        </g>
        <g id="Grupo_57123" data-name="Grupo 57123" transform="translate(15.054 75.271)">
          <path id="Trazado_101424" data-name="Trazado 101424" d="M30.818,51.409A23.945,23.945,0,0,1,28.9,60.8c-.188.433-.4.866-.6,1.3l-1.242,2.484H15.764L14.522,62.1c-.207-.433-.414-.866-.6-1.3A23.945,23.945,0,0,1,12,51.409a9.409,9.409,0,1,1,18.818,0Z" transform="translate(-12 -42)" fill="#b27946"/>
        </g>
        <g id="Grupo_57124" data-name="Grupo 57124" transform="translate(71.507 75.271)">
          <path id="Trazado_101425" data-name="Trazado 101425" d="M60.818,64.581v7.527H42v-20.7a9.409,9.409,0,0,1,18.818,0V64.581Z" transform="translate(-42 -42)" fill="#b27946"/>
        </g>
        <g id="Grupo_57125" data-name="Grupo 57125" transform="translate(43.695 41.117)">
          <path id="Trazado_101426" data-name="Trazado 101426" d="M29.7,23.85l6.511,7.809-7.527,7.527L27.22,26A5.52,5.52,0,0,0,29.7,23.85Z" transform="translate(-27.22 -23.85)" fill="#a0d468"/>
        </g>
        <g id="Grupo_57126" data-name="Grupo 57126" transform="translate(52.689 41.192)">
          <path id="Trazado_101427" data-name="Trazado 101427" d="M40.976,26.148l-1.449,13L32,31.624l6.436-7.734A5.909,5.909,0,0,0,40.976,26.148Z" transform="translate(-32 -23.89)" fill="#a0d468"/>
        </g>
        <g id="Grupo_57127" data-name="Grupo 57127" transform="translate(63.321 18.818)">
          <path id="Trazado_101428" data-name="Trazado 101428" d="M43.465,13.054A5.643,5.643,0,0,1,40.19,23.291H37.65a10.919,10.919,0,0,0,.659-3.764V12H40.19a5.617,5.617,0,0,1,3.274,1.054Z" transform="translate(-37.65 -12)" fill="#f0d0b4"/>
        </g>
        <g id="Grupo_57128" data-name="Grupo 57128" transform="translate(33.872)">
          <path id="Trazado_101429" data-name="Trazado 101429" d="M59.635,14.533a12.509,12.509,0,0,1-2.371,7.339,5.617,5.617,0,0,0-3.274-1.054H52.108V17.054h-1a35.517,35.517,0,0,1-15.939-3.764l-.489.169a7.5,7.5,0,0,0-5.156,7.132v.226H27.645a5.617,5.617,0,0,0-3.274,1.054A12.535,12.535,0,0,1,34.533,2H47.1A12.528,12.528,0,0,1,59.635,14.533Z" transform="translate(-22 -2)" fill="#656d78"/>
        </g>
        <g id="Grupo_57129" data-name="Grupo 57129" transform="translate(41.399 11.291)">
          <path id="Trazado_101430" data-name="Trazado 101430" d="M48.581,15.527v7.527a10.919,10.919,0,0,1-.659,3.764,11.317,11.317,0,0,1-4.987,6.022,11.338,11.338,0,0,1-11.291,0,11.543,11.543,0,0,1-2.333-1.806A11.4,11.4,0,0,1,26,23.054V15.3a7.5,7.5,0,0,1,5.156-7.132L31.645,8a35.517,35.517,0,0,0,15.939,3.764h1Z" transform="translate(-26 -8)" fill="#f0d0b4"/>
        </g>
        <g id="Grupo_57130" data-name="Grupo 57130" transform="translate(46.179 36.13)">
          <path id="Trazado_101431" data-name="Trazado 101431" d="M41.487,26.262,35.051,34,28.54,26.187a5.733,5.733,0,0,0,.866-3.011V21.2a11.338,11.338,0,0,0,11.291,0v2.164A5.724,5.724,0,0,0,41.487,26.262Z" transform="translate(-28.54 -21.2)" fill="#f0d0b4"/>
        </g>
        <g id="Grupo_57131" data-name="Grupo 57131" transform="translate(33.872 18.818)">
          <path id="Trazado_101432" data-name="Trazado 101432" d="M30.186,23.291h-2.54a5.642,5.642,0,0,1-3.989-9.635,4.333,4.333,0,0,1,.715-.6A5.617,5.617,0,0,1,27.645,12h1.882v7.527A10.919,10.919,0,0,0,30.186,23.291Z" transform="translate(-22 -12)" fill="#f0d0b4"/>
        </g>
        <g id="Grupo_57132" data-name="Grupo 57132" transform="translate(1.882 37.635)">
          <path id="Trazado_101433" data-name="Trazado 101433" d="M18.492,27.288l-.32.358-7.226,7.226-4.215-3.8A5.2,5.2,0,0,1,10.212,22h.339a5.223,5.223,0,0,1,3.462,1.317Z" transform="translate(-5 -22)" fill="#f0d0b4"/>
        </g>
      </g>
      <g id="Grupo_57134" data-name="Grupo 57134" transform="translate(1 1)">
        <path id="Trazado_101434" data-name="Trazado 101434" d="M106.379,110.142h1.882a5.652,5.652,0,0,0,5.645-5.645V74.389a5.652,5.652,0,0,0-5.645-5.645H89.443v-7.35a15.834,15.834,0,0,0-4.669-11.27,16.01,16.01,0,0,0-9.292-4.544l-5.324-.666a3.769,3.769,0,0,1-3.3-3.733V40.022a13.242,13.242,0,0,0,4.356-5.149h1.289a7.535,7.535,0,0,0,7.527-7.527,7.457,7.457,0,0,0-1.863-4.9A14.369,14.369,0,0,0,65.614,1H53.053A14.367,14.367,0,0,0,40.5,22.443a7.458,7.458,0,0,0-1.863,4.9,7.535,7.535,0,0,0,7.527,7.527h1.289a13.242,13.242,0,0,0,4.356,5.149v.958a3.741,3.741,0,0,1-3.175,3.715A38.913,38.913,0,0,0,41.8,46.258,32.51,32.51,0,0,0,32,52.229c-.184-.192-.369-.386-.57-.565L18.783,40.427a7.069,7.069,0,0,0-4.708-1.791h-.339A7.09,7.09,0,0,0,8.992,50.995l13.63,12.267a14.028,14.028,0,0,0,15.656,2.119l2.239-1.12v4.482H10.409a5.652,5.652,0,0,0-5.645,5.645V104.5a5.652,5.652,0,0,0,5.645,5.645h1.882v3.764H1v3.764H117.669v-3.764H106.379ZM25.907,97.414a22.128,22.128,0,0,1-2.326-9.853,7.527,7.527,0,1,1,15.054,0,22.128,22.128,0,0,1-2.326,9.853l-.719,1.438H26.626ZM39.676,99.1c.04-.079.066-.166.105-.247H53.689V104.5a1.884,1.884,0,0,1-1.882,1.882h-2.6A9.372,9.372,0,0,0,43.492,101l-4.085-1.361Zm10.25,11.044h1.882a5.652,5.652,0,0,0,5.645-5.645V87.561h3.764V104.5a5.652,5.652,0,0,0,5.645,5.645h1.882v3.764H49.926ZM76.271,99.571l-2.326,1.163a9.348,9.348,0,0,0-4.778,5.645H66.862A1.884,1.884,0,0,1,64.98,104.5V98.852H76.271Zm-3.764,9.578a5.613,5.613,0,0,1,3.12-5.049l.644-.322v6.364H98.852v-6.364l.644.322a5.613,5.613,0,0,1,3.12,5.049v4.757H72.507Zm7.527-2.77V87.561a7.527,7.527,0,1,1,15.054,0v18.818Zm28.226,0h-2.3a9.348,9.348,0,0,0-4.778-5.645l-2.328-1.163v-.719h11.291V104.5A1.884,1.884,0,0,1,108.261,106.379Zm1.882-31.99v20.7H98.852V87.561a11.291,11.291,0,0,0-22.581,0v7.527H64.98v-20.7a1.884,1.884,0,0,1,1.882-1.882h41.4A1.884,1.884,0,0,1,110.142,74.389ZM65.827,46.956c.152.126.316.237.478.352l-.881,7.928-3.543-3.543Zm6.68-15.848h-.151a13.221,13.221,0,0,0,.151-1.882V23.581a3.764,3.764,0,0,1,0,7.527Zm-26.345,0a3.764,3.764,0,1,1,0-7.527v5.645a13.222,13.222,0,0,0,.151,1.882Zm.158-11.291h-.158a7.411,7.411,0,0,0-2.574.484A10.648,10.648,0,0,1,53.055,4.764H65.616A10.648,10.648,0,0,1,75.081,20.3a7.4,7.4,0,0,0-2.574-.484V16.054H69.632a33.915,33.915,0,0,1-15.1-3.566l-.7-.348-1.24.414A9.387,9.387,0,0,0,46.32,19.818Zm3.605,9.409V21.479A5.638,5.638,0,0,1,53.563,16.2a37.763,37.763,0,0,0,15.18,3.6v9.42a9.409,9.409,0,0,1-18.818,0ZM59.335,42.4a13.1,13.1,0,0,0,3.824-.57,7.506,7.506,0,0,0,.414,1.955l-4.238,5.085-4.29-5.149a7.52,7.52,0,0,0,.448-1.9A13.106,13.106,0,0,0,59.335,42.4Zm-6.581,4.45,4.035,4.842-3.543,3.543-.9-8.109C52.479,47.034,52.626,46.953,52.754,46.849ZM10.409,45.726A3.33,3.33,0,0,1,13.736,42.4h.339a3.316,3.316,0,0,1,2.209.841l3.005,2.672L14.4,50.8l-2.89-2.6a3.332,3.332,0,0,1-1.1-2.473Zm31.439,10.4-2.661,2.661a4.532,4.532,0,0,1,.969,1.451l-3.56,1.78a10.458,10.458,0,0,1-11.454-1.549L17.2,53.321l4.906-4.906,6.82,6.061a6.51,6.51,0,0,1,2.181,4.859h3.764a10.252,10.252,0,0,0-.794-3.927c1.987-1.714,5.493-4.437,8.916-5.578A34.78,34.78,0,0,1,48.71,48.5l1.658,14.932,8.967-8.965L68.3,63.435,69.938,48.68l5.077.634a12.24,12.24,0,0,1,7.1,3.472,12.089,12.089,0,0,1,3.566,8.607v7.35H78.152V62a4.577,4.577,0,0,1,1.33-3.212l-2.661-2.661A8.247,8.247,0,0,0,74.389,62v6.748H66.862a5.652,5.652,0,0,0-5.645,5.645V83.8H57.453V74.389a5.652,5.652,0,0,0-5.645-5.645H44.281V62A8.247,8.247,0,0,0,41.847,56.123ZM10.409,72.507h41.4a1.884,1.884,0,0,1,1.882,1.882v20.7H41.228a25.835,25.835,0,0,0,1.17-7.527,11.291,11.291,0,1,0-22.581,0,25.835,25.835,0,0,0,1.17,7.527H8.527v-20.7a1.884,1.884,0,0,1,1.882-1.882ZM8.527,104.5V98.852H22.435c.04.081.066.166.105.247l.269.536L18.722,101a9.373,9.373,0,0,0-5.711,5.384h-2.6A1.884,1.884,0,0,1,8.527,104.5Zm7.527,5.425a5.642,5.642,0,0,1,3.859-5.357l5.852-1.95H36.452l5.85,1.95a5.642,5.642,0,0,1,3.859,5.357v3.984H16.054Z" transform="translate(-1 -1)"/>
        <path id="Trazado_101435" data-name="Trazado 101435" d="M49,11H67.818v3.764H49Z" transform="translate(41.325 7.818)"/>
        <path id="Trazado_101436" data-name="Trazado 101436" d="M49,15H67.818v3.764H49Z" transform="translate(41.325 11.345)"/>
        <path id="Trazado_101437" data-name="Trazado 101437" d="M73.226,7H50.645A5.652,5.652,0,0,0,45,12.645V27.7a5.652,5.652,0,0,0,5.645,5.645h1.882v2.984a4.543,4.543,0,0,0,7.755,3.212l6.2-6.2h6.748A5.652,5.652,0,0,0,78.872,27.7V12.645A5.652,5.652,0,0,0,73.226,7Zm1.882,20.7a1.885,1.885,0,0,1-1.882,1.882H64.92l-7.3,7.3a.809.809,0,0,1-1.33-.551V29.581H50.645A1.885,1.885,0,0,1,48.764,27.7V12.645a1.885,1.885,0,0,1,1.882-1.882H73.226a1.885,1.885,0,0,1,1.882,1.882Z" transform="translate(37.798 4.291)"/>
      </g>
    </g>
  </g>
</svg>
