<svg xmlns="http://www.w3.org/2000/svg" width="172" height="172" viewBox="0 0 172 172">
  <g id="Grupo_57269" data-name="Grupo 57269" transform="translate(-239 -1396)">
    <rect id="Rectángulo_5306" data-name="Rectángulo 5306" width="172" height="172" transform="translate(239 1396)" fill="#edfff6"/>
    <g id="pregunta" transform="translate(265.223 1423.381)">
      <path id="Trazado_101907" data-name="Trazado 101907" d="M348.074,7.5H317.935a5.782,5.782,0,0,0-5.782,5.782V43.421a5.782,5.782,0,0,0,5.782,5.782h5.408a2.851,2.851,0,0,1,2.851,2.851v4.876a1.075,1.075,0,0,0,1.925.659l5.683-7.323a2.746,2.746,0,0,1,2.17-1.063h12.1a5.782,5.782,0,0,0,5.782-5.782V13.282A5.781,5.781,0,0,0,348.074,7.5Z" transform="translate(-232.796 -5.783)" fill="#f7e365"/>
      <path id="Trazado_101908" data-name="Trazado 101908" d="M447.993,7.5h-6.246a5.782,5.782,0,0,1,5.782,5.782V43.421a5.782,5.782,0,0,1-5.782,5.782h6.246a5.782,5.782,0,0,0,5.782-5.782V13.282A5.782,5.782,0,0,0,447.993,7.5Z" transform="translate(-332.716 -5.783)" fill="#f3d332"/>
      <path id="Trazado_101909" data-name="Trazado 101909" d="M100.659,340.157H39.776l.838-11.5A15.165,15.165,0,0,1,53.4,314.777l4.821-.756a5.031,5.031,0,0,0,4.256-4.972v-17.7h18.09v17.7a5.033,5.033,0,0,0,4.256,4.972l4.824.756a15.163,15.163,0,0,1,12.781,13.881l.649,8.9a2.42,2.42,0,0,1-2.414,2.6Z" transform="translate(-22.788 -224.637)" fill="#faa68e"/>
      <path id="Trazado_101910" data-name="Trazado 101910" d="M58.315,325.008a1.828,1.828,0,0,1,1.769-1.368h7.6a7.454,7.454,0,0,0,7.454-7.454v-3.133a1.329,1.329,0,0,1,1.329-1.329h4.867a5.012,5.012,0,0,1-.769-2.666v-5.266H64.585a1.055,1.055,0,0,1-.865-1.661l3.2-4.576a3.889,3.889,0,0,0-.9-5.364l-.082-.06a4.016,4.016,0,0,0-3.47-.615v17.541a5.031,5.031,0,0,1-4.256,4.972l-4.821.756a15.137,15.137,0,0,0-8.362,4.242L39.868,338.9l-.092,1.263h14.6Z" transform="translate(-22.788 -224.646)" fill="#e09380"/>
      <path id="Trazado_101911" data-name="Trazado 101911" d="M100.659,415.451H39.776l.838-11.5A15.165,15.165,0,0,1,53.4,390.071l4.821-.756a5.186,5.186,0,0,0,.986-.258,16.843,16.843,0,0,0,24.5-.052,5.044,5.044,0,0,0,1.12.31l4.824.756a15.163,15.163,0,0,1,12.781,13.881l.649,8.9a2.422,2.422,0,0,1-2.414,2.6Z" transform="translate(-22.788 -299.931)" fill="#acd980"/>
      <path id="Trazado_101912" data-name="Trazado 101912" d="M60.085,399.1h7.6a7.456,7.456,0,0,0,7.015-4.93,17.163,17.163,0,0,1-3.271.317,16.6,16.6,0,0,1-12.223-5.255c-2.914,1.081-8.97.072-14.17,5.256l-5.166,19.875-.092,1.263h14.6l3.941-15.159A1.827,1.827,0,0,1,60.085,399.1Z" transform="translate(-22.789 -300.106)" fill="#8cc951"/>
      <path id="Trazado_101913" data-name="Trazado 101913" d="M245.45,412.855l-.649-8.9a15.131,15.131,0,0,0-3.968-9.17c-5.2-5.648-11.659-4.7-14.514-5.686l-.033-.012c-.071-.025-.141-.05-.21-.079a15.964,15.964,0,0,1-1.64,1.547l1.313.206a15.163,15.163,0,0,1,12.781,13.881l.649,8.9a2.411,2.411,0,0,1-.729,1.909h4.586A2.42,2.42,0,0,0,245.45,412.855Z" transform="translate(-165.165 -299.931)" fill="#8cc951"/>
      <path id="Trazado_101914" data-name="Trazado 101914" d="M63.588,40.894H55.911A24,24,0,0,0,35.049,53.017a13.094,13.094,0,0,0-9.755,13.039l.663,22.932H93.128V70.433A29.539,29.539,0,0,0,63.588,40.894Z" transform="translate(-11.618 -31.53)" fill="#655e67"/>
      <g id="Grupo_57267" data-name="Grupo 57267" transform="translate(11.939 27.96)">
        <path id="Trazado_101915" data-name="Trazado 101915" d="M34.7,227.721H22.869a5.144,5.144,0,0,1-5.144-5.144v-1.613a5.144,5.144,0,0,1,5.144-5.144H34.7Z" transform="translate(-17.725 -194.361)" fill="#faa68e"/>
        <path id="Trazado_101916" data-name="Trazado 101916" d="M258.155,227.721h11.831a5.144,5.144,0,0,0,5.144-5.144v-1.613a5.144,5.144,0,0,0-5.144-5.144H258.155Z" transform="translate(-203.101 -194.361)" fill="#faa68e"/>
        <path id="Trazado_101917" data-name="Trazado 101917" d="M113.86,147.551c0,16.955-17.105,26.687-27.1,26.687s-27.1-9.733-27.1-26.687c0-10.83,3.01-19.027,7.881-24.524a2.752,2.752,0,0,1,4.122.014A36.735,36.735,0,0,0,75.23,126.6c1.5,1.292,3.279,2.471,5.259,2.492a4.186,4.186,0,0,0,3.4-1.751,2.167,2.167,0,0,1,2.716-.7,55.545,55.545,0,0,0,20.255,5.147,6.342,6.342,0,0,1,5.831,4.877A48.173,48.173,0,0,1,113.86,147.551Z" transform="translate(-50.061 -122.106)" fill="#faa68e"/>
      </g>
      <path id="Trazado_101918" data-name="Trazado 101918" d="M131.775,170.351a6.321,6.321,0,0,0-4.168-4.555,50.243,50.243,0,0,1,.939,9.947c0,17.313-17.466,27.251-27.671,27.251-4.745,0-11.063-2.151-16.464-6.194,5.881,7.2,15.09,11.125,21.431,11.125,9.993,0,27.1-9.733,27.1-26.687a48.157,48.157,0,0,0-1.166-10.886Z" transform="translate(-57.204 -127.832)" fill="#e09380"/>
      <path id="Trazado_101919" data-name="Trazado 101919" d="M33.82,327.164l4.941-19.006a1.843,1.843,0,0,1,1.784-1.379h7.588a7.454,7.454,0,0,0,7.454-7.454v-3.133a1.329,1.329,0,0,1,1.329-1.329h7.409a4.032,4.032,0,0,0,4.068-3.931,3.965,3.965,0,0,0-3.966-4H45.034a1.055,1.055,0,0,1-.865-1.661l3.2-4.576a3.889,3.889,0,0,0-.9-5.364l-.082-.06a4.006,4.006,0,0,0-5.612.885c-2.288,3.173-12.344,17.1-13.338,18.474L19.521,325.1a1.647,1.647,0,0,0,1.594,2.061H33.82Z" transform="translate(-7.13 -211.643)" fill="#f9b1a0"/>
      <g id="Grupo_57268" data-name="Grupo 57268" transform="translate(10.22)">
        <path id="Trazado_101920" data-name="Trazado 101920" d="M376.4,36.641a7.972,7.972,0,0,0-7.963,7.963,1.717,1.717,0,1,0,3.435,0,4.529,4.529,0,1,1,4.529,4.529h-1.09a1.717,1.717,0,0,0-1.717,1.717v5.875a1.717,1.717,0,1,0,3.435,0V52.543a7.964,7.964,0,0,0-.627-15.9Z" transform="translate(-286.413 -28.251)"/>
        <path id="Trazado_101921" data-name="Trazado 101921" d="M392.671,143.284A1.717,1.717,0,0,0,390.954,145v.5a1.717,1.717,0,1,0,3.435,0V145A1.717,1.717,0,0,0,392.671,143.284Z" transform="translate(-303.774 -110.475)"/>
        <path id="Trazado_101922" data-name="Trazado 101922" d="M115.276,0H85.138a7.507,7.507,0,0,0-7.5,7.5V21.088A31.244,31.244,0,0,0,51.97,7.646H44.292A25.8,25.8,0,0,0,22.3,20.027,14.731,14.731,0,0,0,11.959,34.575l.434,14.986a6.843,6.843,0,0,0-2.172,5v1.612a6.869,6.869,0,0,0,6.863,6.86h4.6A27.494,27.494,0,0,0,26.775,71.1L18.919,81.982a1.722,1.722,0,0,0-.269.572l-7.921,30.473a3.364,3.364,0,0,0,3.256,4.211H77.87A4.14,4.14,0,0,0,82,112.8l-.65-8.9a16.73,16.73,0,0,0-1.778-6.408,1.717,1.717,0,0,0-3.062,1.557,13.312,13.312,0,0,1,1.414,5.1l.65,8.9a.7.7,0,0,1-.7.756H69.949v-7.017a1.717,1.717,0,0,0-3.435,0V113.8h-37.6l4.382-16.857a.126.126,0,0,1,.122-.094H41A9.114,9.114,0,0,0,45.27,95.8a18.885,18.885,0,0,0,3.369.3,18.426,18.426,0,0,0,12.778-5.082h.006c.335.07.081.018,5.169.819a13.338,13.338,0,0,1,5.193,1.973,1.717,1.717,0,1,0,1.859-2.888,16.749,16.749,0,0,0-6.521-2.478c-4.406-.739-4.811-.673-5.516-.944A3.293,3.293,0,0,1,59.5,84.464a5.655,5.655,0,0,0,3.2-7c4.062-2.408,9.887-6.966,12.9-14.432h3.233a6.868,6.868,0,0,0,6.86-6.86V54.564a6.852,6.852,0,0,0-2.457-5.257V44.888a7.494,7.494,0,0,0,1.91.249h5.408A1.135,1.135,0,0,1,91.68,46.27v4.877a2.756,2.756,0,0,0,1.889,2.642,2.846,2.846,0,0,0,.922.155,2.753,2.753,0,0,0,2.187-1.087l5.682-7.321a1.026,1.026,0,0,1,.815-.4h12.1a7.507,7.507,0,0,0,7.5-7.5V7.5a7.509,7.509,0,0,0-7.5-7.5ZM13.655,56.176V54.564a3.432,3.432,0,0,1,3.428-3.428h2.787a28.188,28.188,0,0,0,.705,8.465H17.083a3.43,3.43,0,0,1-3.428-3.426ZM48.7,92.662a9.114,9.114,0,0,0,1.476-4.981V84.937h5.907a6.714,6.714,0,0,0,2.076,4.378A15.053,15.053,0,0,1,48.7,92.662Zm8.5-11.16H49.785a3.049,3.049,0,0,0-3.046,3.046v3.133A5.743,5.743,0,0,1,41,93.418H33.415a3.561,3.561,0,0,0-3.446,2.665L25.362,113.8H14.076L21.893,83.73c.606-.839,11.745-16.265,13.15-18.213a2.261,2.261,0,0,1,1.485-.916,2.3,2.3,0,0,1,1.724.415l.084.061a2.136,2.136,0,0,1,.886,1.694,2.111,2.111,0,0,1-.387,1.3l-3.2,4.574A2.772,2.772,0,0,0,37.9,77H57.3a2.248,2.248,0,0,1,2.249,2.27A2.306,2.306,0,0,1,57.194,81.5ZM82.25,56.176A3.429,3.429,0,0,1,78.825,59.6H76.7a25.813,25.813,0,0,0,.751-6.2c0-.766-.016-1.524-.046-2.269h1.415a3.431,3.431,0,0,1,3.426,3.428ZM78.825,47.7H77.164a45.879,45.879,0,0,0-.919-5.571,8.1,8.1,0,0,0-7.409-6.2,53.959,53.959,0,0,1-19.626-4.989,3.906,3.906,0,0,0-4.866,1.3,2.452,2.452,0,0,1-1.958.994c-1.2-.014-2.525-.675-4.16-2.078a35.308,35.308,0,0,1-3.4-3.393,4.484,4.484,0,0,0-3.354-1.515h0a4.461,4.461,0,0,0-3.336,1.5,29.26,29.26,0,0,0-4.261,6.363,1.717,1.717,0,0,0,3.074,1.533,25.822,25.822,0,0,1,3.757-5.617,1.013,1.013,0,0,1,.765-.344,1.045,1.045,0,0,1,.786.356,38.7,38.7,0,0,0,3.73,3.723c1.437,1.233,3.659,2.877,6.357,2.908a5.881,5.881,0,0,0,4.848-2.51.462.462,0,0,1,.564-.1,57.433,57.433,0,0,0,20.886,5.306,4.646,4.646,0,0,1,4.256,3.55,43.549,43.549,0,0,1,.982,6.64c.092,1.239.139,2.537.139,3.859a22.181,22.181,0,0,1-1.234,7.347c-2.566,7.335-8.308,11.717-12.12,13.925A5.642,5.642,0,0,0,57.3,73.57H39.175l2.472-3.532a5.606,5.606,0,0,0-1.292-7.74l-.084-.061a5.724,5.724,0,0,0-8.014,1.271l-3.419,4.738a23.626,23.626,0,0,1-4.346-7.494A26.058,26.058,0,0,1,23.4,49.544a43.354,43.354,0,0,1,1.019-6.785,1.717,1.717,0,1,0-3.343-.789,45.75,45.75,0,0,0-.959,5.732H17.083a6.86,6.86,0,0,0-1.3.126l-.386-13.351a11.315,11.315,0,0,1,8.475-11.327,1.718,1.718,0,0,0,1.057-.81A22.352,22.352,0,0,1,44.292,11.08H51.97A27.855,27.855,0,0,1,79.793,38.9v8.867a6.9,6.9,0,0,0-.969-.07Zm40.518-10.064a4.069,4.069,0,0,1-4.064,4.064h-12.1a4.44,4.44,0,0,0-3.527,1.727l-4.533,5.841v-3A4.573,4.573,0,0,0,90.546,41.7H85.138a4.014,4.014,0,0,1-1.91-.477V38.9A31.1,31.1,0,0,0,81.073,27.5V7.5a4.069,4.069,0,0,1,4.064-4.064h30.138A4.07,4.07,0,0,1,119.343,7.5Z" transform="translate(-10.22)"/>
        <path id="Trazado_101923" data-name="Trazado 101923" d="M134.323,222.636a1.717,1.717,0,0,0,1.717-1.717V219a1.717,1.717,0,1,0-3.435,0v1.917A1.717,1.717,0,0,0,134.323,222.636Z" transform="translate(-104.582 -167.53)"/>
        <path id="Trazado_101924" data-name="Trazado 101924" d="M246.4,222.636a1.717,1.717,0,0,0,1.717-1.717V219a1.717,1.717,0,0,0-3.435,0v1.917A1.717,1.717,0,0,0,246.4,222.636Z" transform="translate(-190.996 -167.53)"/>
        <path id="Trazado_101925" data-name="Trazado 101925" d="M174.511,262.594a6.261,6.261,0,0,1,6.864,0,1.717,1.717,0,0,0,1.73-2.967,9.757,9.757,0,0,0-10.325,0,1.717,1.717,0,1,0,1.731,2.967Z" transform="translate(-134.9 -199.038)"/>
      </g>
    </g>
  </g>
</svg>
