<svg xmlns="http://www.w3.org/2000/svg" width="172" height="172" viewBox="0 0 172 172">
  <g id="Grupo_57274" data-name="Grupo 57274" transform="translate(-239 -1816)">
    <rect id="Rectángulo_5305" data-name="Rectángulo 5305" width="172" height="172" transform="translate(239 1816)" fill="#edfff6"/>
    <g id="gestion-de-datos" transform="translate(261 1819.374)">
      <path id="Trazado_100523" data-name="Trazado 100523" d="M125.25,443.5H14A6.5,6.5,0,0,1,7.5,437v-5a1,1,0,0,1,1-1H130.75a1,1,0,0,1,1,1v5A6.5,6.5,0,0,1,125.25,443.5Z" transform="translate(-5.625 -305.624)" fill="#dbf6e9"/>
      <path id="Trazado_100524" data-name="Trazado 100524" d="M461.5,431H454a1,1,0,0,1,1,1v5a6.5,6.5,0,0,1-6.5,6.5H456a6.5,6.5,0,0,0,6.5-6.5v-5A1,1,0,0,0,461.5,431Z" transform="translate(-336.375 -305.624)" fill="#88c3e0"/>
      <path id="Trazado_100525" data-name="Trazado 100525" d="M143.5,206,46,206a5,5,0,0,1-5-5l0-65a5,5,0,0,1,5-5l97.5,0a5,5,0,0,1,5,5l0,65A5,5,0,0,1,143.5,206Z" transform="translate(-30.75 -80.624)" fill="#9ddfd3"/>
      <path id="Trazado_100526" data-name="Trazado 100526" d="M433.5,201a5,5,0,0,1-5,5H421a5,5,0,0,0,5-5l0-65a5,5,0,0,0-4.988-5H428.5a5,5,0,0,1,5,5Z" transform="translate(-315.75 -80.624)" fill="#9ddfd3"/>
      <path id="Trazado_100527" data-name="Trazado 100527" d="M163.5,221H156l-85,0,0-60,85,0h7.5Z" transform="translate(-53.25 -103.124)" fill="#f3f3f3"/>
      <path id="Trazado_100528" data-name="Trazado 100528" d="M410.995,161h7.5v60h-7.5Z" transform="translate(-308.246 -103.124)" fill="#e4e4e4"/>
      <path id="Trazado_100529" data-name="Trazado 100529" d="M230,437H213a3,3,0,0,1-3-3v-3h23v3A3,3,0,0,1,230,437Z" transform="translate(-157.5 -305.624)" fill="#88c3e0"/>
      <path id="Trazado_100530" data-name="Trazado 100530" d="M289.585,67.848c-.139.987-.472,2.4-.769,3.549a2.43,2.43,0,0,1-2.352,1.824h-3.394a2.429,2.429,0,0,1-2.352-1.824c-.3-1.149-.63-2.562-.769-3.549a2.413,2.413,0,0,0-1.189-1.75l-3.136-1.806a2.417,2.417,0,0,0-2.109-.153c-.928.374-2.328.8-3.476,1.114a2.428,2.428,0,0,1-2.753-1.122L265.593,61.2a2.423,2.423,0,0,1,.4-2.946c.85-.832,1.912-1.827,2.7-2.441a2.409,2.409,0,0,0,.923-1.9V50.306a2.409,2.409,0,0,0-.923-1.9c-.788-.614-1.851-1.61-2.7-2.442a2.423,2.423,0,0,1-.4-2.946l1.695-2.928a2.429,2.429,0,0,1,2.753-1.122c1.148.319,2.548.74,3.476,1.114a2.417,2.417,0,0,0,2.109-.153l3.136-1.806a2.412,2.412,0,0,0,1.189-1.75c.139-.987.472-2.4.769-3.549A2.43,2.43,0,0,1,283.071,31h3.394a2.429,2.429,0,0,1,2.352,1.823c.3,1.149.629,2.563.769,3.549a2.412,2.412,0,0,0,1.189,1.75l3.136,1.806a2.417,2.417,0,0,0,2.109.153c.928-.375,2.328-.8,3.476-1.114a2.428,2.428,0,0,1,2.753,1.122l1.695,2.928a2.423,2.423,0,0,1-.4,2.946c-.85.832-1.912,1.827-2.7,2.442a2.409,2.409,0,0,0-.923,1.9v3.607a2.41,2.41,0,0,0,.923,1.9c.788.614,1.85,1.609,2.7,2.441a2.423,2.423,0,0,1,.4,2.946l-1.695,2.928a2.429,2.429,0,0,1-2.753,1.122c-1.148-.319-2.548-.74-3.476-1.114a2.417,2.417,0,0,0-2.109.153L290.774,66.1A2.412,2.412,0,0,0,289.585,67.848Zm3.539-15.738a8.356,8.356,0,1,0-8.356,8.335A8.346,8.346,0,0,0,293.123,52.11Z" transform="translate(-198.951 -5.624)" fill="#cc3d60"/>
      <path id="Trazado_100531" data-name="Trazado 100531" d="M171.973,197.848c-.139.987-.472,2.4-.769,3.549a2.429,2.429,0,0,1-2.352,1.824h-3.394a2.429,2.429,0,0,1-2.352-1.824c-.3-1.149-.63-2.562-.769-3.549a2.413,2.413,0,0,0-1.189-1.75l-3.136-1.806a2.417,2.417,0,0,0-2.109-.153c-.928.375-2.328.8-3.476,1.114a2.428,2.428,0,0,1-2.753-1.122l-1.695-2.928a2.423,2.423,0,0,1,.4-2.946c.85-.832,1.912-1.827,2.7-2.442a2.409,2.409,0,0,0,.923-1.9v-3.607a2.409,2.409,0,0,0-.923-1.9c-.788-.614-1.85-1.609-2.7-2.442a2.423,2.423,0,0,1-.4-2.946l1.695-2.928a2.429,2.429,0,0,1,2.753-1.122c1.148.318,2.548.74,3.476,1.114a2.417,2.417,0,0,0,2.109-.153l3.136-1.806a2.412,2.412,0,0,0,1.189-1.75c.139-.987.472-2.4.769-3.55A2.429,2.429,0,0,1,165.459,161h3.394a2.429,2.429,0,0,1,2.352,1.823c.3,1.149.629,2.563.769,3.55a2.413,2.413,0,0,0,1.189,1.75l3.136,1.806a2.417,2.417,0,0,0,2.109.153c.928-.374,2.328-.8,3.476-1.114a2.428,2.428,0,0,1,2.753,1.122l1.695,2.928a2.423,2.423,0,0,1-.4,2.946c-.85.832-1.912,1.828-2.7,2.442a2.409,2.409,0,0,0-.923,1.9v3.607a2.41,2.41,0,0,0,.923,1.9c.788.614,1.85,1.61,2.7,2.442a2.423,2.423,0,0,1,.4,2.946l-1.695,2.928a2.429,2.429,0,0,1-2.753,1.122c-1.148-.319-2.548-.74-3.476-1.114a2.417,2.417,0,0,0-2.109.153l-3.136,1.806A2.413,2.413,0,0,0,171.973,197.848Zm3.539-15.738a8.356,8.356,0,1,0-8.356,8.335A8.346,8.346,0,0,0,175.511,182.11Z" transform="translate(-110.742 -103.124)" fill="#ffc328"/>
      <g id="Grupo_55125" data-name="Grupo 55125" transform="translate(0 23.501)">
        <path id="Trazado_100532" data-name="Trazado 100532" d="M125.125,123.5h-6.256a6.829,6.829,0,0,0,.756-3.127l0-50.874a1.875,1.875,0,1,0-3.75,0l0,50.874a3.128,3.128,0,0,1-3.125,3.125l-97.5,0a3.128,3.128,0,0,1-3.125-3.125l0-65a3.128,3.128,0,0,1,3.125-3.125l49.752,0A4.292,4.292,0,0,0,64.768,56H54.7L17.75,56a1.875,1.875,0,0,0-1.875,1.875l0,39.6a1.875,1.875,0,1,0,3.75,0l0-37.723H50.417c-.256,1.022-.542,2.272-.678,3.235a.54.54,0,0,1-.268.387L46.336,65.18a.543.543,0,0,1-.472.039c-1.065-.429-2.587-.88-3.676-1.182a4.305,4.305,0,0,0-4.876,1.99l-1.694,2.928a4.3,4.3,0,0,0,.715,5.225c.805.788,1.954,1.876,2.859,2.581a.536.536,0,0,1,.2.423V80.79a.538.538,0,0,1-.2.423,38.42,38.42,0,0,0-2.859,2.58,4.3,4.3,0,0,0-.715,5.225l1.695,2.928a4.3,4.3,0,0,0,4.877,1.99c1.089-.3,2.611-.753,3.677-1.182a.545.545,0,0,1,.471.039L49.471,94.6a.541.541,0,0,1,.268.387,38.331,38.331,0,0,0,.81,3.757,4.3,4.3,0,0,0,4.167,3.229H58.11a4.3,4.3,0,0,0,4.167-3.229,38.294,38.294,0,0,0,.81-3.757.542.542,0,0,1,.268-.387l3.136-1.806a.544.544,0,0,1,.472-.038c1.065.429,2.587.88,3.676,1.182a4.307,4.307,0,0,0,4.876-1.99l1.695-2.928a4.3,4.3,0,0,0-.715-5.225,38.409,38.409,0,0,0-2.859-2.58.538.538,0,0,1-.2-.424V77.183a.536.536,0,0,1,.2-.423,38.417,38.417,0,0,0,2.86-2.58,4.3,4.3,0,0,0,.715-5.225l-1.694-2.928a4.3,4.3,0,0,0-4.877-1.989c-1.089.3-2.611.753-3.677,1.182a.547.547,0,0,1-.471-.039l-3.136-1.806a.54.54,0,0,1-.268-.387c-.136-.964-.422-2.214-.678-3.236h4.5a4.3,4.3,0,0,0,4.684,1.686c1.09-.3,2.612-.753,3.677-1.182a.545.545,0,0,1,.471.039L78.874,62.1a.541.541,0,0,1,.268.387,38.406,38.406,0,0,0,.81,3.757,4.3,4.3,0,0,0,4.167,3.229h3.394a4.3,4.3,0,0,0,4.167-3.229,38.223,38.223,0,0,0,.81-3.757.542.542,0,0,1,.268-.387l3.136-1.806a.544.544,0,0,1,.472-.038c1.065.429,2.587.88,3.676,1.182a4.307,4.307,0,0,0,4.683-1.686h3.646l0,56.247-88.747,0V105.569a1.875,1.875,0,1,0-3.75,0v12.307a1.875,1.875,0,0,0,1.875,1.875l92.5,0a1.875,1.875,0,0,0,1.875-1.875l0-60A1.875,1.875,0,0,0,110.247,56h-3.382a4.292,4.292,0,0,0-.235-3.75h6.117a3.128,3.128,0,0,1,3.125,3.125v6.17a1.875,1.875,0,1,0,3.75,0v-6.17a6.883,6.883,0,0,0-6.875-6.875h-9.865a.553.553,0,0,1-.044-.21V44.683a.536.536,0,0,1,.2-.423c.9-.705,2.054-1.793,2.859-2.58a4.3,4.3,0,0,0,.715-5.225l-1.694-2.928a4.3,4.3,0,0,0-4.877-1.99c-1.09.3-2.614.753-3.677,1.182a.547.547,0,0,1-.471-.039l-3.136-1.807a.54.54,0,0,1-.268-.387,38.378,38.378,0,0,0-.81-3.757A4.3,4.3,0,0,0,87.514,23.5H84.12a4.3,4.3,0,0,0-4.167,3.229,38.284,38.284,0,0,0-.81,3.757.54.54,0,0,1-.268.387L75.739,32.68a.544.544,0,0,1-.471.039c-1.062-.429-2.586-.88-3.677-1.182a4.306,4.306,0,0,0-4.876,1.99L65.02,36.455a4.3,4.3,0,0,0,.715,5.225c.8.787,1.953,1.874,2.859,2.581a.536.536,0,0,1,.2.423V48.29a.554.554,0,0,1-.044.21l-53.5,0a6.883,6.883,0,0,0-6.875,6.875l0,65a6.831,6.831,0,0,0,.754,3.125H2.875A2.878,2.878,0,0,0,0,126.376v5a8.384,8.384,0,0,0,8.375,8.375H95.966a1.875,1.875,0,0,0,0-3.75H8.375a4.63,4.63,0,0,1-4.625-4.625v-4.125H50.625v1.125a4.881,4.881,0,0,0,4.875,4.875h17a4.881,4.881,0,0,0,4.875-4.875v-1.125H124.25v4.125A4.63,4.63,0,0,1,119.625,136H104.059a1.875,1.875,0,0,0,0,3.75h15.566A8.384,8.384,0,0,0,128,131.376v-5a2.878,2.878,0,0,0-2.875-2.875ZM58.647,60.169a33.913,33.913,0,0,1,.727,3.342,4.259,4.259,0,0,0,2.11,3.113L64.62,68.43a4.266,4.266,0,0,0,3.745.267,34.317,34.317,0,0,1,3.276-1.046.554.554,0,0,1,.629.255l1.694,2.928a.548.548,0,0,1-.093.667,33.983,33.983,0,0,1-2.541,2.3,4.256,4.256,0,0,0-1.645,3.381V80.79a4.255,4.255,0,0,0,1.645,3.381,34,34,0,0,1,2.541,2.3.548.548,0,0,1,.093.667L72.27,90.069a.557.557,0,0,1-.629.255,34.269,34.269,0,0,1-3.276-1.046,4.264,4.264,0,0,0-3.746.267L61.484,91.35a4.261,4.261,0,0,0-2.11,3.113h0a33.884,33.884,0,0,1-.728,3.342.555.555,0,0,1-.536.418H54.716a.556.556,0,0,1-.537-.418,33.915,33.915,0,0,1-.727-3.342,4.261,4.261,0,0,0-2.11-3.113l-3.136-1.806a4.263,4.263,0,0,0-3.746-.267,34.315,34.315,0,0,1-3.276,1.046.554.554,0,0,1-.629-.255l-1.694-2.928a.548.548,0,0,1,.093-.667,34.065,34.065,0,0,1,2.541-2.3,4.255,4.255,0,0,0,1.645-3.381V77.183A4.254,4.254,0,0,0,41.5,73.8a34,34,0,0,1-2.541-2.3.548.548,0,0,1-.093-.667L40.556,67.9a.556.556,0,0,1,.629-.255A34.273,34.273,0,0,1,44.461,68.7a4.265,4.265,0,0,0,3.746-.267l3.135-1.806a4.26,4.26,0,0,0,2.11-3.113,33.884,33.884,0,0,1,.727-3.342.554.554,0,0,1,.528-.417h3.408a.555.555,0,0,1,.531.417ZM68.358,39a.548.548,0,0,1-.093-.667L69.96,35.4a.556.556,0,0,1,.629-.255A34.157,34.157,0,0,1,73.864,36.2a4.265,4.265,0,0,0,3.746-.267l3.135-1.806a4.26,4.26,0,0,0,2.11-3.113,33.824,33.824,0,0,1,.728-3.342.555.555,0,0,1,.536-.418h3.394a.556.556,0,0,1,.537.418,33.852,33.852,0,0,1,.727,3.342,4.259,4.259,0,0,0,2.11,3.113l3.136,1.806a4.263,4.263,0,0,0,3.745.267,34.274,34.274,0,0,1,3.276-1.046.554.554,0,0,1,.629.254l1.694,2.928a.548.548,0,0,1-.093.667,34.038,34.038,0,0,1-2.54,2.3,4.255,4.255,0,0,0-1.646,3.382V48.29a4.255,4.255,0,0,0,1.646,3.381,33.964,33.964,0,0,1,2.541,2.3.548.548,0,0,1,.093.667l-1.694,2.928a.556.556,0,0,1-.629.255,34.271,34.271,0,0,1-3.276-1.046,4.265,4.265,0,0,0-3.746.267L90.887,58.85a4.261,4.261,0,0,0-2.11,3.113h0a33.884,33.884,0,0,1-.728,3.342.555.555,0,0,1-.536.418H84.12a.556.556,0,0,1-.536-.418,33.906,33.906,0,0,1-.727-3.342,4.261,4.261,0,0,0-2.11-3.113l-3.135-1.806a4.263,4.263,0,0,0-3.746-.267,34.268,34.268,0,0,1-3.276,1.046.554.554,0,0,1-.629-.255l-.332-.574c-.01-.02-.022-.039-.033-.058l-1.329-2.3a.548.548,0,0,1,.093-.667,34.1,34.1,0,0,1,2.541-2.3,4.255,4.255,0,0,0,1.645-3.381V44.683A4.255,4.255,0,0,0,70.9,41.3,33.979,33.979,0,0,1,68.358,39Zm5.267,89.376A1.126,1.126,0,0,1,72.5,129.5h-17a1.126,1.126,0,0,1-1.125-1.125v-1.125h19.25Z" transform="translate(0 -23.501)"/>
        <path id="Trazado_100533" data-name="Trazado 100533" d="M312.574,95.024a10.21,10.21,0,1,0-10.231-10.21A10.232,10.232,0,0,0,312.574,95.024Zm-2.922-4.447H315.5a6.476,6.476,0,0,1-5.843,0Zm2.922-12.224a6.478,6.478,0,0,1,6.481,6.46,6.409,6.409,0,0,1-.324,2.014H306.417a6.454,6.454,0,0,1,6.157-8.474Z" transform="translate(-226.757 -61.827)"/>
        <path id="Trazado_100534" data-name="Trazado 100534" d="M184.73,214.813a10.231,10.231,0,1,0,10.231-10.21,10.232,10.232,0,0,0-10.231,10.21Zm16.712,0a6.481,6.481,0,1,1-6.481-6.46,6.478,6.478,0,0,1,6.481,6.46Z" transform="translate(-138.548 -159.328)"/>
      </g>
    </g>
  </g>
</svg>
