<svg xmlns="http://www.w3.org/2000/svg" width="172" height="172" viewBox="0 0 172 172">
  <g id="Grupo_57273" data-name="Grupo 57273" transform="translate(-239 -2461.137)">
    <rect id="Rectángulo_5305" data-name="Rectángulo 5305" width="172" height="172" transform="translate(239 2461.137)" fill="#edfff6"/>
    <g id="lluvia-de-ideas" transform="translate(262.674 2484.812)">
      <path id="Trazado_101682" data-name="Trazado 101682" d="M308.016,296.229h4.947a3.5,3.5,0,0,1,3.5,3.5v2.625a3.5,3.5,0,0,1-3.5,3.5h-4.947Z" transform="translate(-233.027 -224.109)" fill="#ffb09e"/>
      <path id="Trazado_101683" data-name="Trazado 101683" d="M178.125,296.229h-4.947a3.5,3.5,0,0,0-3.5,3.5v2.625a3.5,3.5,0,0,0,3.5,3.5h4.947Z" transform="translate(-128.365 -224.109)" fill="#ffb09e"/>
      <path id="Trazado_101684" data-name="Trazado 101684" d="M332.146,438.15l13.358-4.569h13.158l12.327,4.216v13.049H327.961V444A6.188,6.188,0,0,1,332.146,438.15Z" transform="translate(-248.116 -328.022)" fill="#fe646f"/>
      <path id="Trazado_101685" data-name="Trazado 101685" d="M359.387,433.829l-12.633,4.321a6.187,6.187,0,0,0-4.185,5.855v6.841H327.961v-6.841a6.187,6.187,0,0,1,4.185-5.855l13.359-4.57h13.157Z" transform="translate(-248.116 -328.022)" fill="#fd4755"/>
      <path id="Trazado_101686" data-name="Trazado 101686" d="M400.021,399.525l6.579,8.966,6.579-8.966V388.543H400.021Z" transform="translate(-302.632 -293.949)" fill="#ffb09e"/>
      <path id="Trazado_101687" data-name="Trazado 101687" d="M380.674,307.43v13.7A10.427,10.427,0,0,0,391.1,331.556h1.723a10.427,10.427,0,0,0,10.427-10.427v-13.7a3.193,3.193,0,0,0-3.193-3.193H383.867A3.193,3.193,0,0,0,380.674,307.43Z" transform="translate(-287.995 -230.168)" fill="#ffcebf"/>
      <path id="Trazado_101688" data-name="Trazado 101688" d="M394.395,331.443a10.776,10.776,0,0,1-1.573.117H391.1a10.429,10.429,0,0,1-10.427-10.427v-13.7a3.194,3.194,0,0,1,3.194-3.192h4.869a3.194,3.194,0,0,0-3.194,3.192v13.7A10.433,10.433,0,0,0,394.395,331.443Z" transform="translate(-287.993 -230.171)" fill="#ffb09e"/>
      <path id="Trazado_101689" data-name="Trazado 101689" d="M380.674,286.063H385.2a6.272,6.272,0,0,0,4.559-1.964l3.1-3.277,2.011,3.508a3.449,3.449,0,0,0,2.992,1.733h5.392v-7.045a7.741,7.741,0,0,0-7.741-7.741h-7.1a7.741,7.741,0,0,0-7.741,7.741v7.045Z" transform="translate(-287.995 -205.232)" fill="#68748f"/>
      <path id="Trazado_101690" data-name="Trazado 101690" d="M388.413,271.281h4.869a7.741,7.741,0,0,0-7.742,7.74v7.036c-.114.007-.229.01-.343.01h-4.526v-7.046A7.741,7.741,0,0,1,388.413,271.281Z" transform="translate(-287.993 -205.235)" fill="#5d6980"/>
      <path id="Trazado_101691" data-name="Trazado 101691" d="M46.545,438.15l-13.358-4.569H20.029L7.7,437.8v13.049H50.73V444A6.188,6.188,0,0,0,46.545,438.15Z" transform="translate(-5.827 -328.022)" fill="#aee69c"/>
      <path id="Trazado_101692" data-name="Trazado 101692" d="M27.334,433.581,15,437.8v13.049H7.7V437.8l12.329-4.217Z" transform="translate(-5.826 -328.022)" fill="#89daa4"/>
      <path id="Trazado_101693" data-name="Trazado 101693" d="M58.336,399.525l6.579,8.966,6.579-8.966V388.543H58.336Z" transform="translate(-44.134 -293.949)" fill="#ffb09e"/>
      <path id="Trazado_101694" data-name="Trazado 101694" d="M38.989,307.43v13.7a10.427,10.427,0,0,0,10.427,10.427H51.14a10.427,10.427,0,0,0,10.427-10.427v-13.7a3.193,3.193,0,0,0-3.193-3.193H42.182A3.193,3.193,0,0,0,38.989,307.43Z" transform="translate(-29.497 -230.168)" fill="#ffcebf"/>
      <path id="Trazado_101695" data-name="Trazado 101695" d="M52.714,331.443a10.8,10.8,0,0,1-1.573.117H49.417A10.427,10.427,0,0,1,38.99,321.132v-13.7a3.192,3.192,0,0,1,3.192-3.192h4.869a3.192,3.192,0,0,0-3.192,3.192v13.7A10.431,10.431,0,0,0,52.714,331.443Z" transform="translate(-29.497 -230.171)" fill="#ffb09e"/>
      <path id="Trazado_101696" data-name="Trazado 101696" d="M38.989,286.063h4.526a6.272,6.272,0,0,0,4.559-1.964l3.1-3.277,2.011,3.508a3.449,3.449,0,0,0,2.992,1.733h5.392v-7.045a7.741,7.741,0,0,0-7.741-7.741h-7.1a7.741,7.741,0,0,0-7.741,7.741v7.045Z" transform="translate(-29.497 -205.232)" fill="#68748f"/>
      <path id="Trazado_101697" data-name="Trazado 101697" d="M46.73,271.281H51.6a7.739,7.739,0,0,0-7.74,7.74v7.036c-.114.007-.229.01-.343.01H38.99v-7.046A7.739,7.739,0,0,1,46.73,271.281Z" transform="translate(-29.497 -205.235)" fill="#5d6980"/>
      <path id="Trazado_101698" data-name="Trazado 101698" d="M194.714,418.389l-14.928-5.106h-14.7l-14.928,5.106a6.915,6.915,0,0,0-4.677,6.543V435.49h53.913V424.932A6.915,6.915,0,0,0,194.714,418.389Z" transform="translate(-110.06 -312.665)" fill="#8ac9fe"/>
      <path id="Trazado_101699" data-name="Trazado 101699" d="M172.388,413.281l-14.926,5.108a6.914,6.914,0,0,0-4.677,6.542v10.559h-7.3V424.931a6.914,6.914,0,0,1,4.677-6.542l14.926-5.108Z" transform="translate(-110.062 -312.664)" fill="#60b7ff"/>
      <path id="Trazado_101700" data-name="Trazado 101700" d="M226,375.208l7.089,8.015,7.614-8.015V362.955H226Z" transform="translate(-170.981 -274.59)" fill="#ffb09e"/>
      <path id="Trazado_101701" data-name="Trazado 101701" d="M216.359,26.406a18.868,18.868,0,0,1-7.172,14.819,11.189,11.189,0,0,0-4.173,8.786v4.5a5.843,5.843,0,0,1-5.843,5.843h-3.438a5.843,5.843,0,0,1-5.843-5.843v-4.5a11.272,11.272,0,0,0-4.217-8.821,18.906,18.906,0,1,1,30.686-14.785Z" transform="translate(-135.078 -5.673)" fill="#ffe177"/>
      <path id="Trazado_101702" data-name="Trazado 101702" d="M199.888,60.307a5.766,5.766,0,0,1-.716.044h-3.438a5.843,5.843,0,0,1-5.843-5.843v-4.5a11.272,11.272,0,0,0-4.217-8.821A18.91,18.91,0,0,1,199.9,7.654a18.905,18.905,0,0,0-9.351,33.536,11.272,11.272,0,0,1,4.217,8.821v4.5a5.845,5.845,0,0,0,5.127,5.8Z" transform="translate(-135.079 -5.672)" fill="#ffd15b"/>
      <path id="Trazado_101703" data-name="Trazado 101703" d="M240.265,189.381v2.729a5.843,5.843,0,0,1-5.843,5.843h-3.438a5.843,5.843,0,0,1-5.843-5.843v-2.729Z" transform="translate(-170.328 -143.274)" fill="#eaf6ff"/>
      <path id="Trazado_101704" data-name="Trazado 101704" d="M235.137,197.909a5.768,5.768,0,0,1-.716.044h-3.438a5.843,5.843,0,0,1-5.843-5.843v-2.729h4.869v2.729a5.845,5.845,0,0,0,5.127,5.8Z" transform="translate(-170.328 -143.274)" fill="#d8ecfe"/>
      <path id="Trazado_101705" data-name="Trazado 101705" d="M204.385,272.313v15.308a11.652,11.652,0,0,0,11.652,11.652h1.926a11.652,11.652,0,0,0,11.652-11.652V272.313a3.568,3.568,0,0,0-3.568-3.568H207.953A3.568,3.568,0,0,0,204.385,272.313Z" transform="translate(-154.626 -203.317)" fill="#ffcebf"/>
      <path id="Trazado_101706" data-name="Trazado 101706" d="M219.432,299.181a12.2,12.2,0,0,1-1.471.09h-1.928a11.653,11.653,0,0,1-11.652-11.652V272.31a3.571,3.571,0,0,1,3.569-3.569h4.869a3.571,3.571,0,0,0-3.569,3.569v15.309A11.657,11.657,0,0,0,219.432,299.181Z" transform="translate(-154.623 -203.314)" fill="#ffb09e"/>
      <path id="Trazado_101707" data-name="Trazado 101707" d="M224.2,243.71h-3.366a8.382,8.382,0,0,1-8-5.9l-.772-2.486-2.748,4.423a8.382,8.382,0,0,1-7.12,3.959H193.83v-6.842a10.059,10.059,0,0,1,10.059-10.059h10.252A10.059,10.059,0,0,1,224.2,236.868v6.842Z" transform="translate(-146.64 -171.59)" fill="#68748f"/>
      <path id="Trazado_101708" data-name="Trazado 101708" d="M203.891,226.811h7.3a10.059,10.059,0,0,0-10.06,10.057v6.844h-7.3v-6.844A10.059,10.059,0,0,1,203.891,226.811Z" transform="translate(-146.641 -171.592)" fill="#5d6980"/>
      <g id="Grupo_57187" data-name="Grupo 57187" transform="translate(0 0)">
        <path id="Trazado_101709" data-name="Trazado 101709" d="M374.675,62.027a1.826,1.826,0,1,0,0,3.652H379.8a1.826,1.826,0,1,0,0-3.652Z" transform="translate(-282.076 -46.926)"/>
        <path id="Trazado_101710" data-name="Trazado 101710" d="M373.545,24.006l4.7-2.5a1.826,1.826,0,1,0-1.714-3.225l-4.7,2.5a1.826,1.826,0,0,0-.755,2.469A1.919,1.919,0,0,0,373.545,24.006Z" transform="translate(-280.572 -13.669)"/>
        <path id="Trazado_101711" data-name="Trazado 101711" d="M371.83,99.355l4.7,2.5A1.85,1.85,0,0,0,379,101.1a1.826,1.826,0,0,0-.755-2.469l-4.7-2.5a1.826,1.826,0,1,0-1.714,3.225Z" transform="translate(-280.571 -72.565)"/>
        <path id="Trazado_101712" data-name="Trazado 101712" d="M104.916,65.679h5.128a1.826,1.826,0,1,0,0-3.652h-5.128a1.826,1.826,0,1,0,0,3.652Z" transform="translate(-77.992 -46.926)"/>
        <path id="Trazado_101713" data-name="Trazado 101713" d="M107.79,21.506l4.7,2.5a1.85,1.85,0,0,0,2.469-.755,1.826,1.826,0,0,0-.755-2.469l-4.7-2.5a1.826,1.826,0,0,0-1.714,3.225Z" transform="translate(-80.814 -13.669)"/>
        <path id="Trazado_101714" data-name="Trazado 101714" d="M112.492,96.131l-4.7,2.5a1.826,1.826,0,0,0-.755,2.469,1.85,1.85,0,0,0,2.469.755l4.7-2.5a1.826,1.826,0,0,0-1.714-3.225Z" transform="translate(-80.814 -72.565)"/>
        <path id="Trazado_101715" data-name="Trazado 101715" d="M123.416,108.048l-11.093-3.794v-3.646a12.236,12.236,0,0,0,4.711-9.646V73.786a9.578,9.578,0,0,0-9.567-9.567h-7.1A9.578,9.578,0,0,0,90.8,73.786V90.962a12.235,12.235,0,0,0,4.711,9.646v3.646l-6.578,2.25A8.723,8.723,0,0,0,85.2,104L71.5,99.312V94.98a13.7,13.7,0,0,0,5.264-11.4h3.12a5.336,5.336,0,0,0,5.33-5.329V75.623c0-3.374-3.007-5.126-5.881-5.329V65.277a11.9,11.9,0,0,0-9.343-11.608,7.631,7.631,0,0,0,1.72-4.833v-.9h2a1.826,1.826,0,1,0,0-3.652h-2a9.42,9.42,0,0,1,3.48-7.3,20.722,20.722,0,0,0,7.507-12.4,1.826,1.826,0,0,0-3.589-.675,17.069,17.069,0,0,1-6.185,10.215A12.924,12.924,0,0,0,68.063,44.28H64.152V20.733a1.955,1.955,0,1,1,3.91,0v3.781a1.826,1.826,0,0,0,3.652,0V20.733A5.6,5.6,0,0,0,62.326,16.6a5.6,5.6,0,0,0-9.388,4.136v3.781a1.826,1.826,0,0,0,3.652,0V20.733a1.955,1.955,0,0,1,3.91,0V44.28H56.588a13.022,13.022,0,0,0-4.9-10.189,16.984,16.984,0,0,1-6.439-13.5A17.081,17.081,0,0,1,78.93,16.713a1.826,1.826,0,1,0,3.55-.855A20.733,20.733,0,1,0,49.409,36.946a9.388,9.388,0,0,1,3.527,7.333H51.031a1.826,1.826,0,1,0,0,3.652h1.907v.9a7.632,7.632,0,0,0,1.72,4.833,11.9,11.9,0,0,0-9.343,11.608v5.016c-2.874.2-5.881,1.955-5.881,5.329v2.625a5.335,5.335,0,0,0,5.329,5.329h3.12a13.7,13.7,0,0,0,5.264,11.4v4.332L39.456,104a8.724,8.724,0,0,0-3.741,2.507l-6.577-2.25v-3.647a12.235,12.235,0,0,0,4.711-9.646V73.785a9.569,9.569,0,0,0-8.386-9.491,1.826,1.826,0,0,0-.446,3.625,5.913,5.913,0,0,1,5.18,5.866V79H26.63a1.626,1.626,0,0,1-1.408-.815l-2.011-3.508c-.691-1.244-1.825-1.207-2.911-.346l-3.1,3.276A4.468,4.468,0,0,1,13.97,79h-2.7v-5.22a5.92,5.92,0,0,1,5.914-5.914,1.828,1.828,0,1,0,0-3.652,9.576,9.576,0,0,0-9.566,9.566V90.961a12.235,12.235,0,0,0,4.711,9.646v3.646L1.235,108.048A1.826,1.826,0,0,0,0,109.776v13.049a1.826,1.826,0,0,0,1.826,1.826H99.94a1.826,1.826,0,1,0,0-3.652H91.107v-8.733a8.725,8.725,0,0,0-.372-2.518l5.916-2.024,5.8,7.9a1.826,1.826,0,0,0,2.944,0l5.795-7.9L121,111.081V121H107.9a1.826,1.826,0,1,0,0,3.652h14.926a1.826,1.826,0,0,0,1.826-1.826V109.776a1.825,1.825,0,0,0-1.235-1.728Zm-46.648-34.1h3.12a1.679,1.679,0,0,1,1.678,1.677v2.625a1.679,1.679,0,0,1-1.678,1.677h-3.12Zm-28.884,5.98h-3.12a1.679,1.679,0,0,1-1.677-1.677V75.623a1.679,1.679,0,0,1,1.677-1.677h3.12ZM11.27,90.961v-8.3h2.7a9.446,9.446,0,0,0,7.3-4.027,6.07,6.07,0,0,0,5.365,4.027H30.2v8.3C30.2,102.4,11.27,102.4,11.27,90.961Zm14.216,11.616v2.4l-4.753,6.478-4.752-6.476v-2.4A17.165,17.165,0,0,0,25.486,102.578Zm8.058,9.689V121H3.652v-9.918l9.813-3.356,5.795,7.9a1.826,1.826,0,0,0,2.944,0l5.8-7.9,5.916,2.024a8.725,8.725,0,0,0-.372,2.518ZM68.061,47.932v.9a4.022,4.022,0,0,1-4.017,4.017H60.607a4.022,4.022,0,0,1-4.017-4.017v-.9ZM48.967,65.277A8.242,8.242,0,0,1,57.2,57.044H67.451a8.242,8.242,0,0,1,8.233,8.233v5.016a8.063,8.063,0,0,1-8.574-7.1,1.826,1.826,0,0,0-3.295-.422c-1.58,3.22-4.269,7.52-8.317,7.52H48.966V65.277Zm2.569,19.028V73.946H55.5A10.908,10.908,0,0,0,64.868,68a10.142,10.142,0,0,0,8.247,5.887V84.305c0,13.045-21.58,12.966-21.58,0ZM67.852,96.987v2.9l-5.741,6.043L56.8,99.925V96.987A18.749,18.749,0,0,0,67.852,96.987ZM87.455,121H37.2v-8.733a5.088,5.088,0,0,1,3.442-4.814l13.774-4.714,6.283,7.1a1.826,1.826,0,0,0,2.692.048l6.808-7.167,13.818,4.728a5.088,5.088,0,0,1,3.442,4.814V121Zm7-47.214a5.922,5.922,0,0,1,5.915-5.915h7.1a5.922,5.922,0,0,1,5.915,5.915V79h-3.566c-1.411,0-3.067-3.34-3.419-4.324-.619-1.08-1.721-1.948-2.911-.346-1.263,1.7-4.106,4.67-6.329,4.67h-2.7Zm14.215,31.194-4.752,6.476-4.753-6.478v-2.4a17.168,17.168,0,0,0,9.5,0Zm-3.891-5.417c-5.049.356-10.325-3.057-10.325-8.6v-8.3h2.7a9.445,9.445,0,0,0,7.295-4.027,6.072,6.072,0,0,0,5.365,4.027h3.566v8.3a8.611,8.611,0,0,1-8.6,8.6Z" transform="translate(0 0)"/>
        <path id="Trazado_101716" data-name="Trazado 101716" d="M238.15,340c4.139,0,5.744-1.461,5.744-5.124a1.826,1.826,0,1,0-3.652,0c0,1.977-4.185,1.977-4.185,0a1.826,1.826,0,1,0-3.652,0C232.406,337.673,234.194,340,238.15,340Z" transform="translate(-175.825 -251.965)"/>
      </g>
    </g>
  </g>
</svg>
