<svg xmlns="http://www.w3.org/2000/svg" width="69" height="69" viewBox="0 0 69 69">
  <g id="Grupo_57210" data-name="Grupo 57210" transform="translate(-257 -2933)">
    <g id="Grupo_57193" data-name="Grupo 57193" transform="translate(-367.147 -615.149)">
      <g id="habilidades-blandas" transform="translate(632 3556)">
        <g id="Grupo_57191" data-name="Grupo 57191" transform="translate(0.793 0.793)">
          <path id="Trazado_101718" data-name="Trazado 101718" d="M391.562,89.718l6.347-.31a6.3,6.3,0,1,0-9.365.05Z" transform="translate(-346.807 -71.405)" fill="#99e6fc"/>
          <path id="Trazado_101719" data-name="Trazado 101719" d="M11.54,89.956l5.858-.549,1.057.05a6.3,6.3,0,1,0-9.365-.05Z" transform="translate(-7.498 -71.405)" fill="#99e6fc"/>
          <g id="Grupo_57190" data-name="Grupo 57190" transform="translate(1.593)">
            <circle id="Elipse_1416" data-name="Elipse 1416" cx="18.269" cy="18.269" r="18.269" transform="translate(6.434 16.103)" fill="#a79ba7"/>
            <path id="Trazado_101720" data-name="Trazado 101720" d="M135.654,198.077A14.256,14.256,0,1,1,121.4,212.333,14.256,14.256,0,0,1,135.654,198.077Z" transform="translate(-110.952 -177.961)" fill="#f9f7f8"/>
            <g id="XMLID_561_" transform="translate(15.127 20.116)">
              <g id="Grupo_57189" data-name="Grupo 57189">
                <path id="Trazado_101721" data-name="Trazado 101721" d="M184.515,220.61a13.625,13.625,0,0,0-3.021-6.806v0a9.1,9.1,0,1,0-12.459,0h0a13.625,13.625,0,0,0-3.021,6.806l-.323,2.284a14.256,14.256,0,0,0,19.15,0Z" transform="translate(-165.688 -198.077)" fill="#99e6fc"/>
                <path id="Trazado_101722" data-name="Trazado 101722" d="M170.223,223.873a2.527,2.527,0,0,1-1-2.4l.122-.862a13.625,13.625,0,0,1,3.021-6.806h0a9.095,9.095,0,0,1,4.564-15.572,9.1,9.1,0,0,0-7.9,15.572h0a13.625,13.625,0,0,0-3.021,6.806l-.323,2.284a14.2,14.2,0,0,0,9.575,3.694,14.393,14.393,0,0,0,1.666-.1A14.178,14.178,0,0,1,170.223,223.873Z" transform="translate(-165.688 -198.077)" fill="#62dbfb"/>
              </g>
            </g>
            <path id="Trazado_101723" data-name="Trazado 101723" d="M200.668,17.994l5.742.131,1.755.172a6.3,6.3,0,1,0-9.365-.05Z" transform="translate(-178.75 -7.766)" fill="#99e6fc"/>
            <path id="Trazado_101724" data-name="Trazado 101724" d="M221.374,17.228a4.921,4.921,0,0,0-.476-1.362,4.987,4.987,0,0,0-.85-1.167h0a4.175,4.175,0,1,0-6.261,0h0a4.945,4.945,0,0,0-1.325,2.529l-.2,1.016a6.294,6.294,0,0,0,9.365.05Z" transform="translate(-192.216 -7.762)" fill="#fef48b"/>
            <path id="Trazado_101725" data-name="Trazado 101725" d="M214.711,18.449a.528.528,0,0,1-.14-.468l.145-.753a4.945,4.945,0,0,1,1.325-2.529h0a4.174,4.174,0,0,1,2-6.781,4.174,4.174,0,0,0-4.257,6.781h0a4.945,4.945,0,0,0-1.325,2.529l-.2,1.016a6.285,6.285,0,0,0,5.831,2.01,6.286,6.286,0,0,1-3.387-1.805Z" transform="translate(-192.217 -7.762)" fill="#fef056"/>
            <path id="Trazado_101726" data-name="Trazado 101726" d="M31.676,88.392a4.947,4.947,0,0,0-1.326-2.529,4.176,4.176,0,1,0-6.261,0,4.947,4.947,0,0,0-1.326,2.529l-.194,1.016a6.294,6.294,0,0,0,9.365.05Z" transform="translate(-22.568 -71.405)" fill="#fd8087"/>
            <path id="Trazado_101727" data-name="Trazado 101727" d="M24.872,89.606a.511.511,0,0,1-.136-.452l.146-.763a4.948,4.948,0,0,1,1.071-2.248.468.468,0,0,0,.016-.577,4.174,4.174,0,0,1,2.311-6.5,4.174,4.174,0,0,0-4.19,6.8,4.947,4.947,0,0,0-1.326,2.529l-.194,1.016a6.3,6.3,0,0,0,5.763,2.023,6.279,6.279,0,0,1-3.46-1.825Z" transform="translate(-22.57 -71.405)" fill="#fe646f"/>
            <path id="Trazado_101728" data-name="Trazado 101728" d="M411.558,88.389a4.947,4.947,0,0,0-1.326-2.529,4.175,4.175,0,1,0-6.261,0,4.946,4.946,0,0,0-1.326,2.529l-.257,1.065a6.294,6.294,0,0,0,9.365-.05Z" transform="translate(-362.242 -71.402)" fill="#ade194"/>
            <path id="Trazado_101729" data-name="Trazado 101729" d="M405.026,89.845a.923.923,0,0,1-.267-.894l.136-.563a4.948,4.948,0,0,1,1.075-2.253.459.459,0,0,0,.016-.566,4.174,4.174,0,0,1,2.24-6.491,4.174,4.174,0,0,0-4.256,6.782,4.946,4.946,0,0,0-1.326,2.529l-.257,1.065a6.286,6.286,0,0,0,5.785,1.961A6.277,6.277,0,0,1,405.026,89.845Z" transform="translate(-362.242 -71.401)" fill="#97da7b"/>
          </g>
        </g>
        <g id="Grupo_57192" data-name="Grupo 57192" transform="translate(0 0)">
          <path id="Trazado_101730" data-name="Trazado 101730" d="M128.948,190.574A15.049,15.049,0,1,0,144,205.623,15.066,15.066,0,0,0,128.948,190.574Zm-13.463,15.049a13.445,13.445,0,0,1,5.239-10.649,9.83,9.83,0,0,0-1.661,5.251.793.793,0,1,0,1.585.038,8.291,8.291,0,1,1,.509,3.084.793.793,0,1,0-1.487.55,9.827,9.827,0,0,0,2,3.253,14.4,14.4,0,0,0-2.753,6.639l-.1.688A13.407,13.407,0,0,1,115.484,205.623Zm23.6,8.854-.1-.688c-.05-.353-.117-.72-.2-1.091a.793.793,0,0,0-1.548.343c.073.332.133.659.177.971l.263,1.853a13.436,13.436,0,0,1-17.458,0l.263-1.853a12.815,12.815,0,0,1,2.355-5.781,9.861,9.861,0,0,0,12.226,0,12.915,12.915,0,0,1,1.106,1.808.793.793,0,0,0,1.416-.713,14.477,14.477,0,0,0-1.353-2.18,9.87,9.87,0,0,0,.934-12.184,13.442,13.442,0,0,1,1.916,19.511Z" transform="translate(-101.86 -170.459)"/>
          <path id="Trazado_101731" data-name="Trazado 101731" d="M206.892,310.476a6.686,6.686,0,0,0,5.718-3.194.793.793,0,1,0-1.348-.834,5.13,5.13,0,0,1-8.74,0,.793.793,0,1,0-1.348.834A6.686,6.686,0,0,0,206.892,310.476Z" transform="translate(-179.804 -273.749)"/>
          <path id="Trazado_101732" data-name="Trazado 101732" d="M215.839,256.835a.793.793,0,0,0,.793-.793v-.922a.793.793,0,1,0-1.585,0v.922A.793.793,0,0,0,215.839,256.835Z" transform="translate(-192.316 -227.473)"/>
          <path id="Trazado_101733" data-name="Trazado 101733" d="M284.3,256.835a.793.793,0,0,0,.793-.793v-.922a.793.793,0,1,0-1.585,0v.922A.793.793,0,0,0,284.3,256.835Z" transform="translate(-253.544 -227.473)"/>
          <path id="Trazado_101734" data-name="Trazado 101734" d="M47.192,7.785a7.085,7.085,0,0,0-4.939,12.169l-1.665,2.015a19.015,19.015,0,0,0-12.655-5.582V14.4a7.09,7.09,0,1,0-1.585,0v1.985a19,19,0,0,0-12.7,5.538l-1.624-1.966a7.063,7.063,0,1,0-1.252.974l1.79,2.167A19.049,19.049,0,1,0,45.3,29.776a.793.793,0,0,0-1.514.47,17.493,17.493,0,1,1-1.245-2.99.793.793,0,1,0,1.4-.743,19.184,19.184,0,0,0-2.269-3.364L43.5,20.928A7.089,7.089,0,1,0,47.192,7.785ZM3.654,12.753a3.382,3.382,0,1,1,3.382,3.382A3.386,3.386,0,0,1,3.654,12.753Zm8.939,2.122a5.47,5.47,0,0,1-.508,2.306,5.7,5.7,0,0,0-.9-1.7A4.938,4.938,0,0,0,12,12.753c0-.129-.006-.256-.016-.382A5.465,5.465,0,0,1,12.594,14.875ZM2.073,12.618c0,.045,0,.09,0,.135a4.938,4.938,0,0,0,.819,2.728,5.705,5.705,0,0,0-.855,1.566,5.483,5.483,0,0,1,.04-4.429ZM3.241,18.8l.117-.611a4.134,4.134,0,0,1,.628-1.523,4.952,4.952,0,0,0,6.1,0,4.135,4.135,0,0,1,.628,1.523l.134.7A5.491,5.491,0,0,1,3.241,18.8ZM23.705,5.232a3.382,3.382,0,1,1,3.382,3.382A3.386,3.386,0,0,1,23.705,5.232Zm-.3,5.44a4.135,4.135,0,0,1,.628-1.523,4.952,4.952,0,0,0,6.1,0,4.135,4.135,0,0,1,.628,1.523l.134.7a5.491,5.491,0,0,1-7.607-.085Zm9.235-3.319a5.47,5.47,0,0,1-.508,2.306,5.7,5.7,0,0,0-.9-1.7,4.938,4.938,0,0,0,.819-2.728c0-.127-.006-.253-.015-.378A5.462,5.462,0,0,1,32.645,7.353ZM22.124,5.09c0,.047,0,.094,0,.141a4.938,4.938,0,0,0,.819,2.728,5.705,5.705,0,0,0-.855,1.566,5.494,5.494,0,0,1,.04-4.435ZM52.248,17.047a5.7,5.7,0,0,0-.855-1.566,4.938,4.938,0,0,0,.819-2.728c0-.046,0-.092,0-.138a5.495,5.495,0,0,1,.038,4.431Zm-8.386-4.294a3.382,3.382,0,1,1,3.382,3.382A3.386,3.386,0,0,1,43.862,12.753Zm-1.571-.382c-.01.126-.015.253-.015.382a4.938,4.938,0,0,0,.819,2.728,5.7,5.7,0,0,0-.9,1.7,5.489,5.489,0,0,1,.1-4.809Zm1.141,6.519.134-.7a4.134,4.134,0,0,1,.628-1.523,4.952,4.952,0,0,0,6.1,0,4.137,4.137,0,0,1,.628,1.523l.117.611a5.491,5.491,0,0,1-7.608.085Z" transform="translate(0 -0.264)"/>
        </g>
      </g>
    </g>
    <rect id="Rectángulo_5307" data-name="Rectángulo 5307" width="69" height="69" transform="translate(257 2933)" fill="none"/>
  </g>
</svg>
