<svg xmlns="http://www.w3.org/2000/svg" width="95" height="96" viewBox="0 0 95 96">
  <g id="Grupo_57320" data-name="Grupo 57320" transform="translate(-754 -2890)">
    <g id="Icon" transform="translate(753.524 2889.828)">
      <ellipse id="Base" cx="47.5" cy="48" rx="47.5" ry="48" transform="translate(0.476 0.172)" fill="#fff"/>
    </g>
    <g id="conversacion_1_" data-name="conversacion (1)" transform="translate(771.296 2901.642)">
      <path id="Trazado_102114" data-name="Trazado 102114" d="M27.685,308.846v10.915a9.065,9.065,0,0,1-12.816,8.246h0a9.065,9.065,0,0,1-5.218-7,2.922,2.922,0,1,1,3.031-4.825l.761-4.362.519-2.97H27.685Z" transform="translate(-6.799 -266.505)" fill="#fcd2be"/>
      <path id="Trazado_102115" data-name="Trazado 102115" d="M14.868,350.636a9.065,9.065,0,0,1-5.218-7,2.922,2.922,0,1,1,3.031-4.825l.761-4.362,2.385.484C14.823,336.664,10.588,342.992,14.868,350.636Z" transform="translate(-6.799 -289.135)" fill="#fab998"/>
      <path id="Trazado_102116" data-name="Trazado 102116" d="M46.192,270.779a7.872,7.872,0,0,1-7.872,7.872H30.1v.731a3.147,3.147,0,0,1-3.148,3.146,2.923,2.923,0,0,0-3.114-.661v-3.215a7.873,7.873,0,0,1,7.872-7.872Z" transform="translate(-21.071 -232.855)" fill="#f9ce55"/>
      <path id="Trazado_102117" data-name="Trazado 102117" d="M38.133,270.779H31.709a7.873,7.873,0,0,0-7.872,7.872v3.215a2.923,2.923,0,0,1,3.114.662,3.147,3.147,0,0,0,3.148-3.146v-.731h.163A7.873,7.873,0,0,1,38.133,270.779Z" transform="translate(-21.071 -232.855)" fill="#e2a11e"/>
      <path id="Trazado_102118" data-name="Trazado 102118" d="M72.2,64.264H49.851a2.566,2.566,0,0,0-2.566,2.566V78.116a2.566,2.566,0,0,0,2.566,2.566h12.6v4.64l4.138-4.64H72.2a2.566,2.566,0,0,0,2.566-2.566V66.83A2.566,2.566,0,0,0,72.2,64.264Z" transform="translate(-41.798 -50.303)" fill="#3facc9"/>
      <path id="Trazado_102119" data-name="Trazado 102119" d="M245.246,15.048H267.6a2.566,2.566,0,0,1,2.566,2.566V28.9a2.566,2.566,0,0,1-2.566,2.566h-12.6v4.64l-4.138-4.64h-5.609A2.566,2.566,0,0,1,242.68,28.9V17.614A2.566,2.566,0,0,1,245.246,15.048Z" transform="translate(-214.521 -6.798)" fill="#00c7a9"/>
      <path id="Trazado_102120" data-name="Trazado 102120" d="M328.929,282.511l-.045-.019a8.177,8.177,0,0,1-4.639-7.5l-13.712-13.546c-.642-2.377-.445-6.553,5.457-7.034q.551-.046,1.171-.046c7.045,0,13.957.566,15.42,10.935C333.558,272.236,331.015,278.976,328.929,282.511Z" transform="translate(-274.279 -218.344)" fill="#6b4b3d"/>
      <path id="Trazado_102121" data-name="Trazado 102121" d="M372.416,282.511l-.045-.019a.016.016,0,0,0,0-.007c2.38-20.226-6.782-28.075-12.895-28.075q.551-.046,1.171-.046c7.045,0,13.957.566,15.42,10.935C377.045,272.236,374.5,278.976,372.416,282.511Z" transform="translate(-317.766 -218.344)" fill="#5b3d2d"/>
      <path id="Trazado_102122" data-name="Trazado 102122" d="M330.088,312.816a2.7,2.7,0,0,1-1.017.641,8.357,8.357,0,0,1-16.634-1.146v-7.054s3.7.133,5.167-1.329a7.547,7.547,0,0,0,6.71,3.02h0a7.931,7.931,0,0,0,1.962-.36v2.421h0a2.695,2.695,0,0,1,3.811,3.811Z" transform="translate(-276.184 -262.157)" fill="#fcd2be"/>
      <path id="Trazado_102123" data-name="Trazado 102123" d="M408.833,333.068a2.7,2.7,0,0,1-1.017.641,8.36,8.36,0,0,1-6.3,6.973c4.34-2.381,1.578-13.335,1.541-13.483h0a7.931,7.931,0,0,0,1.962-.36v2.421h0a2.695,2.695,0,0,1,3.811,3.811Z" transform="translate(-354.929 -282.41)" fill="#fab998"/>
      <path id="Trazado_102124" data-name="Trazado 102124" d="M107.454,366.46v-1.5a.892.892,0,1,0-1.785,0v1.5a.892.892,0,1,0,1.785,0Z" transform="translate(-93.408 -315.321)"/>
      <path id="Trazado_102125" data-name="Trazado 102125" d="M139.244,364.961v1.5a.892.892,0,1,0,1.785,0v-1.5a.892.892,0,1,0-1.785,0Z" transform="translate(-123.087 -315.321)"/>
      <path id="Trazado_102126" data-name="Trazado 102126" d="M78.922,417.626a.892.892,0,1,0-1.55.885,5.138,5.138,0,0,0,4.436,2.553h.048a.892.892,0,0,0,.047-1.783A3.392,3.392,0,0,1,78.922,417.626Z" transform="translate(-68.291 -362.265)"/>
      <path id="Trazado_102127" data-name="Trazado 102127" d="M25.121,263.094H10.638a8.773,8.773,0,0,0-8.764,8.764.892.892,0,1,0,1.785,0,6.987,6.987,0,0,1,6.979-6.979H24.172a6.99,6.99,0,0,1-6.922,6.087H9.028a.892.892,0,0,0-.892.892v.73A2.258,2.258,0,0,1,6.2,274.82a3.818,3.818,0,0,0-3.747-.581,3.818,3.818,0,0,0-.4,6.944,9.953,9.953,0,0,0,19.729-1.865v-5.095a.892.892,0,0,0-1.785,0v5.095a8.168,8.168,0,0,1-16.258,1.121.893.893,0,0,0-.588-.721,2.03,2.03,0,0,1-.767-3.352,2,2,0,0,1,.706-.461,2.033,2.033,0,0,1,2.159.455.893.893,0,0,0,.679.266,4.044,4.044,0,0,0,3.993-3.877H17.25a8.773,8.773,0,0,0,8.764-8.764A.893.893,0,0,0,25.121,263.094Z" transform="translate(0 -226.062)"/>
      <path id="Trazado_102128" data-name="Trazado 102128" d="M67.969,70.426a.892.892,0,0,0-.892.892A1.676,1.676,0,0,1,65.4,72.992H59.794a.892.892,0,0,0-.666.3l-2.58,2.893v-2.3a.892.892,0,0,0-.892-.892h-12.6a1.676,1.676,0,0,1-1.674-1.674V60.032a1.676,1.676,0,0,1,1.674-1.674H60.117a.892.892,0,1,0,0-1.785H43.052a3.462,3.462,0,0,0-3.458,3.458V71.318a3.462,3.462,0,0,0,3.458,3.458H54.763v3.748a.892.892,0,0,0,1.558.594l3.872-4.341H65.4a3.462,3.462,0,0,0,3.458-3.458A.893.893,0,0,0,67.969,70.426Z" transform="translate(-35 -43.505)"/>
      <path id="Trazado_102129" data-name="Trazado 102129" d="M238.447,25.561h5.209l3.872,4.341a.892.892,0,0,0,1.558-.594V25.561H260.8a3.462,3.462,0,0,0,3.458-3.458V10.816A3.462,3.462,0,0,0,260.8,7.358h-2.029a.892.892,0,1,0,0,1.785H260.8a1.676,1.676,0,0,1,1.674,1.674V22.1a1.676,1.676,0,0,1-1.674,1.674h-12.6a.892.892,0,0,0-.892.892v2.3l-2.58-2.893a.893.893,0,0,0-.666-.3h-5.609a1.676,1.676,0,0,1-1.674-1.674V10.816a1.675,1.675,0,0,1,1.674-1.674h17.466a.892.892,0,0,0,0-1.785H238.447a3.462,3.462,0,0,0-3.458,3.458V22.1A3.462,3.462,0,0,0,238.447,25.561Z" transform="translate(-207.723)"/>
      <path id="Trazado_102130" data-name="Trazado 102130" d="M356.1,46.32H346.036a.892.892,0,1,0,0,1.785H356.1a.892.892,0,0,0,0-1.785Z" transform="translate(-305.096 -34.441)"/>
      <path id="Trazado_102131" data-name="Trazado 102131" d="M275.87,48.106h5.167a.892.892,0,0,0,0-1.785H275.87a.892.892,0,0,0,0,1.785Z" transform="translate(-243.071 -34.442)"/>
      <path id="Trazado_102132" data-name="Trazado 102132" d="M409.12,77.849h-3.1a.892.892,0,1,0,0,1.785h3.1a.892.892,0,1,0,0-1.785Z" transform="translate(-358.118 -62.312)"/>
      <path id="Trazado_102133" data-name="Trazado 102133" d="M275.87,79.635H288a.892.892,0,1,0,0-1.785H275.87a.892.892,0,0,0,0,1.785Z" transform="translate(-243.071 -62.313)"/>
      <path id="Trazado_102134" data-name="Trazado 102134" d="M275.87,111.163h12.662a.892.892,0,0,0,0-1.785H275.87a.892.892,0,0,0,0,1.785Z" transform="translate(-243.071 -90.182)"/>
      <path id="Trazado_102135" data-name="Trazado 102135" d="M77.98,94.245h5.167a.892.892,0,0,0,0-1.785H77.98a.892.892,0,1,0,0,1.785Z" transform="translate(-68.143 -75.227)"/>
      <path id="Trazado_102136" data-name="Trazado 102136" d="M158.509,94.245a.892.892,0,1,0,0-1.785h-5.167a.892.892,0,1,0,0,1.785Z" transform="translate(-134.761 -75.227)"/>
      <path id="Trazado_102137" data-name="Trazado 102137" d="M77.98,123.988a.892.892,0,1,0,0,1.785H93.617a.892.892,0,1,0,0-1.785Z" transform="translate(-68.143 -103.097)"/>
      <path id="Trazado_102138" data-name="Trazado 102138" d="M125.589,155.517a.892.892,0,1,0,0,1.785h7.138a.892.892,0,0,0,0-1.785Z" transform="translate(-110.228 -130.968)"/>
      <path id="Trazado_102139" data-name="Trazado 102139" d="M77.98,155.517a.892.892,0,1,0,0,1.785H80.53a.892.892,0,1,0,0-1.785Z" transform="translate(-68.143 -130.968)"/>
      <path id="Trazado_102140" data-name="Trazado 102140" d="M368,342.023V340.64a.892.892,0,1,0-1.785,0v1.382a.892.892,0,0,0,1.785,0Z" transform="translate(-323.724 -293.822)"/>
      <path id="Trazado_102141" data-name="Trazado 102141" d="M337.033,342.023V340.64a.892.892,0,1,0-1.785,0v1.382a.892.892,0,0,0,1.785,0Z" transform="translate(-296.348 -293.822)"/>
      <path id="Trazado_102142" data-name="Trazado 102142" d="M362.944,391.613a.892.892,0,0,0,.89.845h.048a4.805,4.805,0,0,0,4.148-2.39.892.892,0,1,0-1.55-.885,3.064,3.064,0,0,1-2.693,1.493A.892.892,0,0,0,362.944,391.613Z" transform="translate(-320.83 -337.122)"/>
      <path id="Trazado_102143" data-name="Trazado 102143" d="M436.024,279.052c-.566-4.01-1.943-6.882-4.211-8.781a.892.892,0,0,0-1.145,1.368c1.914,1.6,3.088,4.109,3.589,7.662a27.024,27.024,0,0,1-3.116,15.89,7.291,7.291,0,0,1-3.093-3.945.892.892,0,1,0-1.7.537,9.085,9.085,0,0,0,4.8,5.432.892.892,0,0,0,1.108-.372A28.977,28.977,0,0,0,436.024,279.052Z" transform="translate(-376.839 -232.223)"/>
      <path id="Trazado_102144" data-name="Trazado 102144" d="M321.167,263.456a3.588,3.588,0,0,0-2.7-6.606v-.885a.893.893,0,0,0-1.194-.84,7.02,7.02,0,0,1-7.665-2.363.892.892,0,0,0-1.338-.087c-.724.724-2.507,1.017-3.819,1.066a4.4,4.4,0,0,1,.693-3.471c.926-1.209,2.682-1.822,5.219-1.822,2.908,0,5.958.083,8.476,1.067a.892.892,0,0,0,.65-1.662c-2.807-1.1-6.048-1.19-9.127-1.19-3.122,0-5.355.849-6.636,2.522a6.657,6.657,0,0,0-.854,5.684.893.893,0,0,0,.83.659,10.8,10.8,0,0,0,5.058-1,8.312,8.312,0,0,0,5.73,2.7,9.8,9.8,0,0,0,2.19-.125v1.289a.893.893,0,0,0,1.526.628,1.806,1.806,0,0,1,1.922-.406,1.8,1.8,0,0,1,.625,2.956,1.8,1.8,0,0,1-.682.43.892.892,0,0,0-.588.721,7.464,7.464,0,0,1-14.858-1.025v-4.034a.892.892,0,0,0-1.785,0v4.034a9.249,9.249,0,0,0,18.328,1.765Z" transform="translate(-267.477 -211.538)"/>
    </g>
  </g>
</svg>
