<svg xmlns="http://www.w3.org/2000/svg" width="346.966" height="198.857" viewBox="0 0 346.966 198.857">
  <g id="Grupo_57346" data-name="Grupo 57346" transform="translate(6072 10518.429)">
    <path id="Trazado_101438" data-name="Trazado 101438" d="M329.329,108.441H314.094a13.8,13.8,0,0,1-13.8-13.8h0a13.8,13.8,0,0,1,13.8-13.8h9.591a5.957,5.957,0,0,0,5.959-4.972,5.842,5.842,0,0,0-5.777-6.706H300.978a.69.69,0,0,1-.685-.7,14.022,14.022,0,0,0-14.022-14h-82.62a3.766,3.766,0,0,1-3.738-2.916,3.68,3.68,0,0,1,3.6-4.437h57.592a7.429,7.429,0,0,0,7.41-6.1,7.3,7.3,0,0,0-7.2-8.5H95.748a7.429,7.429,0,0,0-7.41,6.1,7.3,7.3,0,0,0,7.2,8.5h28.28a8.132,8.132,0,0,1,8.111,6.679,8,8,0,0,1-7.886,9.3H39.981A31.181,31.181,0,0,0,8.8,94.263h0A31.183,31.183,0,0,0,34.181,124.9a4.6,4.6,0,0,1,3.707,4.538v2.544a4.634,4.634,0,0,1-4.634,4.634h0a22.941,22.941,0,0,0-22.941,22.941h0a22.941,22.941,0,0,0,22.941,22.94h.083a6.9,6.9,0,0,1,6.895,6.895v.017a7.161,7.161,0,0,1-6.517,7.1,7.493,7.493,0,0,0-1.689.316,17.765,17.765,0,0,0,5.91,34.538H301.783a18.06,18.06,0,0,0,18.131-16.355c.006-.083.013-.165.018-.247a8.554,8.554,0,0,1,8.5-8.052h3.27a14.76,14.76,0,0,0,14.76-14.76h0c0-6.147-4.955-11.231-10.887-13.36a9.05,9.05,0,0,1-6.111-8.472v-.426a9.815,9.815,0,0,1,7.185-9.4,26.449,26.449,0,0,0,19.113-25.41h0A26.437,26.437,0,0,0,329.329,108.441Z" transform="translate(-6080.8 -10550.933)" fill="#dbf6e9"/>
    <g id="mentalidad" transform="translate(-5966 -10447.088)">
      <g id="Grupo_57338" data-name="Grupo 57338" transform="translate(3.041 3.041)">
        <g id="Grupo_57326" data-name="Grupo 57326" transform="translate(34.69 38.771)">
          <path id="Trazado_102168" data-name="Trazado 102168" d="M55.731,45.487H31.244A12.253,12.253,0,0,1,19,33.244,12.262,12.262,0,0,1,31.244,21h1.041a12.229,12.229,0,0,1,8.673,3.591l.49.49H52.18a12.26,12.26,0,0,1,1.51.082A15.8,15.8,0,0,1,67.974,40.875a15.374,15.374,0,0,1-.816,5l-1.1,3.326a6.138,6.138,0,0,0-4.2-1.673H59.261a4.073,4.073,0,0,0-3.53-2.041Z" transform="translate(-19 -21)" fill="#b27946"/>
        </g>
        <g id="Grupo_57327" data-name="Grupo 57327" transform="translate(26.528 95.908)">
          <path id="Trazado_102169" data-name="Trazado 102169" d="M31.325,75.528H15v-6a19.326,19.326,0,0,1,8.591-16.059,19.545,19.545,0,0,1,7.979-3.04L41.528,49l.1.306a8.513,8.513,0,0,0,8.06,5.816,8.423,8.423,0,0,0,4.959-1.612,8.618,8.618,0,0,0,3.1-4.2l.1-.306,9.958,1.428A19.268,19.268,0,0,1,84.38,69.406v6.122H31.325Z" transform="translate(-15 -49)" fill="#4fc1e9"/>
        </g>
        <g id="Grupo_57328" data-name="Grupo 57328" transform="translate(53.055 88.337)">
          <path id="Trazado_102170" data-name="Trazado 102170" d="M42.427,45.29l1.9,7.571-.1.306a8.618,8.618,0,0,1-3.1,4.2,8.423,8.423,0,0,1-4.959,1.612,8.513,8.513,0,0,1-8.06-5.816l-.1-.306,1.9-7.571a14.268,14.268,0,0,0,12.529,0Z" transform="translate(-28 -45.29)" fill="#f0d0b4"/>
        </g>
        <g id="Grupo_57329" data-name="Grupo 57329" transform="translate(74.951 65.299)">
          <path id="Trazado_102171" data-name="Trazado 102171" d="M39.118,46.244a11.318,11.318,0,0,0,.163-2.041V36.041A4.07,4.07,0,0,0,38.73,34h2.592a6.122,6.122,0,0,1,0,12.244H39.138Z" transform="translate(-38.73 -34)" fill="#f0d0b4"/>
        </g>
        <g id="Grupo_57330" data-name="Grupo 57330" transform="translate(46.934 63.258)">
          <path id="Trazado_102172" data-name="Trazado 102172" d="M53.568,37.081v8.162a11.318,11.318,0,0,1-.163,2.041,14.265,14.265,0,0,1-28.242,0A11.318,11.318,0,0,1,25,45.244V33H49.487a4.091,4.091,0,0,1,4.081,4.081Z" transform="translate(-25 -33)" fill="#f0d0b4"/>
        </g>
        <g id="Grupo_57331" data-name="Grupo 57331" transform="translate(38.771 65.299)">
          <path id="Trazado_102173" data-name="Trazado 102173" d="M27.122,46.244a6.122,6.122,0,0,1,0-12.244h2.041V44.2a11.318,11.318,0,0,0,.163,2.041h-2.2Z" transform="translate(-21 -34)" fill="#f0d0b4"/>
        </g>
        <g id="Grupo_57332" data-name="Grupo 57332" transform="translate(0 53.055)">
          <path id="Trazado_102174" data-name="Trazado 102174" d="M26.487,44.325V60.649H2V28H26.487Z" transform="translate(-2 -28)" fill="#e6e9ed"/>
        </g>
        <g id="Grupo_57333" data-name="Grupo 57333">
          <path id="Trazado_102175" data-name="Trazado 102175" d="M38.731,12.693v.326a11.881,11.881,0,0,1-3.959,8.836L20.365,34.649,5.959,21.855A11.881,11.881,0,0,1,2,13.019v-.326A11.062,11.062,0,0,1,5.245,4.877a9.853,9.853,0,0,1,13.917,0l1.2,1.2,1.2-1.2a9.853,9.853,0,0,1,13.917,0A11.062,11.062,0,0,1,38.731,12.693Z" transform="translate(-2 -2)" fill="#ff826e"/>
        </g>
        <g id="Grupo_57334" data-name="Grupo 57334" transform="translate(104.152 22.895)">
          <path id="Trazado_102176" data-name="Trazado 102176" d="M59.08,14.812a12.07,12.07,0,0,0,6.04-1.592l-1.632,8.122a2.036,2.036,0,0,1-2,1.632H56.672a2.036,2.036,0,0,1-2-1.632L53.04,13.22a12.07,12.07,0,0,0,6.04,1.592Z" transform="translate(-53.04 -13.22)" fill="#aab2bd"/>
        </g>
        <g id="Grupo_57335" data-name="Grupo 57335" transform="translate(97.948 0)">
          <path id="Trazado_102177" data-name="Trazado 102177" d="M62.244,26.487A12.07,12.07,0,0,1,56.2,24.9a12.244,12.244,0,1,1,12.08,0,12.07,12.07,0,0,1-6.04,1.592Z" transform="translate(-50 -2)" fill="#ffeaa7"/>
        </g>
        <g id="Grupo_57336" data-name="Grupo 57336" transform="translate(106.175 7.791)">
          <circle id="Elipse_1427" data-name="Elipse 1427" cx="4.235" cy="4.235" r="4.235" transform="translate(0 0)" fill="#fcd770"/>
        </g>
        <g id="Grupo_57337" data-name="Grupo 57337" transform="translate(93.867 57.137)">
          <path id="Trazado_102178" data-name="Trazado 102178" d="M52.2,44.3v-.041a1.988,1.988,0,0,0-1-1.735L48,40.672l4.04-7.06L55.2,35.448a1.99,1.99,0,0,0,2.02,0l.02-.02a2.006,2.006,0,0,0,1-1.734V30h8.081v3.693a2.006,2.006,0,0,0,1,1.734l.02.02a1.99,1.99,0,0,0,2.02,0l3.163-1.837,4.04,7.06-3.2,1.857a1.988,1.988,0,0,0-1,1.735V44.3a1.988,1.988,0,0,0,1,1.735l3.2,1.857-4.04,7.06L69.365,53.12a1.99,1.99,0,0,0-2.02,0l-.02.02a2.006,2.006,0,0,0-1,1.735v3.693H58.244V54.875a2.006,2.006,0,0,0-1-1.735l-.02-.02a1.99,1.99,0,0,0-2.02,0L52.04,54.956,48,47.9l2.694-1.571.51-.286a1.988,1.988,0,0,0,1-1.735Zm14.162-.02a4.081,4.081,0,1,0-4.081,4.081A4.093,4.093,0,0,0,66.365,44.284Z" transform="translate(-48 -30)" fill="#fcd770"/>
        </g>
      </g>
      <g id="Grupo_57339" data-name="Grupo 57339" transform="translate(1 1)">
        <ellipse id="Elipse_1428" data-name="Elipse 1428" cx="1.882" cy="2.353" rx="1.882" ry="2.353" transform="translate(55.519 70.997)"/>
        <ellipse id="Elipse_1429" data-name="Elipse 1429" cx="1.882" cy="2.353" rx="1.882" ry="2.353" transform="translate(67.752 70.997)"/>
        <path id="Trazado_102179" data-name="Trazado 102179" d="M40.133,39.985a4.563,4.563,0,0,1-8.162,0l-.214-.431L28.106,41.38l.214.429a8.644,8.644,0,0,0,15.464,0L44,41.378l-3.651-1.826Z" transform="translate(27.206 39.117)"/>
        <path id="Trazado_102180" data-name="Trazado 102180" d="M58.122,34a6.122,6.122,0,1,0,6.122,6.122A6.129,6.129,0,0,0,58.122,34Zm0,8.162a2.041,2.041,0,1,1,2.041-2.041A2.043,2.043,0,0,1,58.122,42.162Z" transform="translate(52.07 33.34)"/>
        <path id="Trazado_102181" data-name="Trazado 102181" d="M128.255,71.594l-6.079-10.6-4.9,2.879V58.137H105.1l.037,5.734-4.932-2.881-6.079,10.6L99.1,74.441l-.037.02H88.745a8.084,8.084,0,0,0-1.661-4.883l.745-2.241A17.84,17.84,0,0,0,74.461,44.212v-4.44A2.043,2.043,0,0,1,76.5,37.731h6.122V33.649H76.5a6.129,6.129,0,0,0-6.122,6.122v4.081H62.218V15.284a2.043,2.043,0,0,1,2.041-2.041H99.112A14.078,14.078,0,0,0,105.372,27.2l1.449,7.252a4.1,4.1,0,0,0,4,3.279h4.818a4.094,4.094,0,0,0,4-3.281l1.449-7.25A14.274,14.274,0,1,0,100.346,9.162H64.258a6.129,6.129,0,0,0-6.122,6.122v26.4a14.176,14.176,0,0,0-7.111-1.908H49.974V23.447a6.129,6.129,0,0,0-6.122-6.122H41.406a13.761,13.761,0,0,0,.406-3.267v-.318a13,13,0,0,0-3.834-9.256,11.894,11.894,0,0,0-16.572-.241,11.894,11.894,0,0,0-16.572.241A13,13,0,0,0,1,13.739v.318a13.868,13.868,0,0,0,4.653,10.36l15.753,14,15.753-14a13.774,13.774,0,0,0,2.524-3.012h4.169a2.043,2.043,0,0,1,2.041,2.041V40.373a14.275,14.275,0,0,0-1.561,26.8,8.146,8.146,0,0,0-3.426,3.208H29.568V54.055H1V90.786H29.568V74.461h10.2a8.171,8.171,0,0,0,8.162,8.162h.537a16.354,16.354,0,0,0,7.165,9.754l-1.188,4.744-8.589,1.228a21.35,21.35,0,0,0-18.331,21.134v8.032h73.461V119.34a21.35,21.35,0,0,0-18.331-20.99l-8.589-1.228-1.188-4.744a16.362,16.362,0,0,0,7.165-9.754h.537a8.136,8.136,0,0,0,7.028-4.081h7.213l5.383,9.391L104.993,85l.112.073v5.716h12.176l-.01-5.718,4.906,2.865,6.079-10.6-4.934-2.867ZM115.642,33.649h-4.818l-.9-4.483a13.785,13.785,0,0,0,6.609,0Zm-4.451-18.365a2.041,2.041,0,1,1,2.041,2.041A2.043,2.043,0,0,1,111.192,15.284Zm2.041-10.2a10.2,10.2,0,0,1,2.041,20.2V21.03a6.122,6.122,0,1,0-4.081,0v4.251a10.2,10.2,0,0,1,2.041-20.2Zm-75.5,8.977a9.788,9.788,0,0,1-3.281,7.309L21.406,32.96,8.362,21.365a9.781,9.781,0,0,1-3.281-7.307v-.318A8.951,8.951,0,0,1,7.72,7.369a7.813,7.813,0,0,1,11.048,0l2.638,2.638,2.638-2.638a7.813,7.813,0,0,1,11.048,0,8.948,8.948,0,0,1,2.638,6.371ZM25.487,86.7H5.081V58.137H25.487ZM39.771,54.055a10.215,10.215,0,0,1,10.2-10.2h1.051a10.137,10.137,0,0,1,7.213,2.987l1.092,1.094H70.9A13.776,13.776,0,0,1,84.664,61.7a13.637,13.637,0,0,1-.708,4.351l-.29.867a8.116,8.116,0,0,0-3.083-.614H78.991a6.087,6.087,0,0,0-4.53-2.041H56.1a4.081,4.081,0,1,1,4.081-4.081h4.081a8.162,8.162,0,1,0-16.325,0,8.067,8.067,0,0,0,1.084,3.985A10.183,10.183,0,0,1,39.771,54.055Zm4.081,20.406a4.085,4.085,0,0,1,4.081-4.081v8.162A4.085,4.085,0,0,1,43.852,74.461Zm45.364,30.656a17.245,17.245,0,0,1,7.691,14.237v4.081H84.664v-8.162H80.583v8.162H47.934v-8.162H43.852v8.162H31.609v-3.951a17.275,17.275,0,0,1,14.829-17.1l8.373-1.194a10.5,10.5,0,0,0,18.9,0l8.373,1.2a17.37,17.37,0,0,1,7.138,2.728ZM70.288,98.834a6.43,6.43,0,0,1-12.06,0l1.173-4.7a16.349,16.349,0,0,0,9.711,0ZM76.5,78.542a12.244,12.244,0,0,1-24.487,0V68.34H74.461A2.043,2.043,0,0,1,76.5,70.38Zm4.081,0V70.38a4.081,4.081,0,0,1,0,8.162Zm40.655-.571,1.459.849-2.014,3.516L119.3,81.53a4.046,4.046,0,0,0-3.842-.106l-.251.127a4.073,4.073,0,0,0-2.01,3.506V86.7h-4.014V85.054a4.076,4.076,0,0,0-2.01-3.506l-.175-.1a4.043,4.043,0,0,0-3.916.078l-1.381.806-2.014-3.516,1.459-.849a4.076,4.076,0,0,0,0-7.02L99.689,70.1l2.014-3.516,1.379.806a4.074,4.074,0,0,0,6.1-3.524V62.218H113.2v1.651a4.082,4.082,0,0,0,2.028,3.516,4.035,4.035,0,0,0,4.073.01l1.381-.806L122.7,70.1l-1.459.849a4.074,4.074,0,0,0,0,7.018Z" transform="translate(-1 -1)"/>
        <path id="Trazado_102182" data-name="Trazado 102182" d="M47,17h4.081v4.081H47Z" transform="translate(46.867 15.649)"/>
        <path id="Trazado_102183" data-name="Trazado 102183" d="M43,17h4.081v4.081H43Z" transform="translate(42.705 15.649)"/>
        <path id="Trazado_102184" data-name="Trazado 102184" d="M5,31H17.244v4.081H5Z" transform="translate(3.162 30.218)"/>
        <path id="Trazado_102185" data-name="Trazado 102185" d="M5,35H17.244v4.081H5Z" transform="translate(3.162 34.38)"/>
        <path id="Trazado_102186" data-name="Trazado 102186" d="M5,39H17.244v4.081H5Z" transform="translate(3.162 38.542)"/>
      </g>
    </g>
  </g>
</svg>
