<svg xmlns="http://www.w3.org/2000/svg" width="103" height="103" viewBox="0 0 103 103">
  <g id="Grupo_57159" data-name="Grupo 57159" transform="translate(-744 -3841)">
    <circle id="Elipse_1401" data-name="Elipse 1401" cx="51.5" cy="51.5" r="51.5" transform="translate(744 3841)" fill="#9ddfd3"/>
    <g id="conocimiento" transform="translate(746 3819.226)">
      <path id="Trazado_101464" data-name="Trazado 101464" d="M291.4,106.31a10.056,10.056,0,1,0-20.1.02,10.375,10.375,0,0,0,4.319,8.45,1.719,1.719,0,0,1,.707,1.4l0,4.391h10.053l0-4.391a1.721,1.721,0,0,1,.709-1.4A10.376,10.376,0,0,0,291.4,106.31Z" transform="translate(-219.655 -48.181)" fill="#f7b030"/>
      <rect id="Rectángulo_5304" data-name="Rectángulo 5304" width="13.403" height="4.468" rx="2.234" transform="translate(54.995 70.157)" fill="#c3c6c7"/>
      <path id="Trazado_101465" data-name="Trazado 101465" d="M311.3,288h8.936v2.234A2.234,2.234,0,0,1,318,292.468h-4.468a2.234,2.234,0,0,1-2.234-2.234Z" transform="translate(-254.071 -213.375)" fill="#dadcde"/>
      <path id="Trazado_101466" data-name="Trazado 101466" d="M112.21,329.871h15.637a2.234,2.234,0,0,1,2.234,2.234v2.234a2.234,2.234,0,0,1-2.234,2.234H99.667c-.568,0-22.631-4.468-23.2-4.468H72V312H82.052c5.585,0,16.754,10.052,16.754,10.052l11.169,3.351s2.234,1.117,2.234,2.234v2.234a2.234,2.234,0,0,1-2.234,2.234l-11.169-2.234L90.988,325.4" transform="translate(-48.181 -234.024)" fill="#f7cca9"/>
      <path id="Trazado_101467" data-name="Trazado 101467" d="M24,296h6.7v24.573H24Z" transform="translate(-6.883 -220.258)" fill="#2d85cc"/>
      <path id="Trazado_101468" data-name="Trazado 101468" d="M280.85,108.8A11.595,11.595,0,0,0,282.215,91.2a10.963,10.963,0,0,0-7.909-3.2A11.345,11.345,0,0,0,263.3,99.448a11.524,11.524,0,0,0,4.788,9.357.6.6,0,0,1,.238.492v1.491a3.349,3.349,0,0,0,.558,6.059v1.308a3.355,3.355,0,0,0,3.351,3.351H276.7a3.355,3.355,0,0,0,3.351-3.351v-1.309a3.349,3.349,0,0,0,.558-6.059V109.3A.6.6,0,0,1,280.85,108.8Zm-15.32-9.359a9.1,9.1,0,0,1,8.808-9.211h.127a8.753,8.753,0,0,1,6.181,2.555,9.361,9.361,0,0,1-1.094,14.2,2.84,2.84,0,0,0-1.177,2.312v1.04h-7.819V109.3a2.837,2.837,0,0,0-1.175-2.311,9.285,9.285,0,0,1-3.851-7.542ZM276.7,119.272h-4.468a1.118,1.118,0,0,1-1.117-1.117v-1.117h6.7v1.117A1.118,1.118,0,0,1,276.7,119.272Zm2.234-4.468H270a1.117,1.117,0,1,1,0-2.234h8.936a1.117,1.117,0,1,1,0,2.234Z" transform="translate(-212.769 -41.296)"/>
      <path id="Trazado_101469" data-name="Trazado 101469" d="M351.989,125.286a5.049,5.049,0,0,1,2.909,3.3,1.117,1.117,0,1,0,2.15-.605,7.3,7.3,0,0,0-4.214-4.761,1.117,1.117,0,0,0-.846,2.068Z" transform="translate(-288.481 -71.528)"/>
      <path id="Trazado_101470" data-name="Trazado 101470" d="M337.534,43.351V41.117a1.117,1.117,0,1,0-2.234,0v2.234a1.117,1.117,0,1,0,2.234,0Z" transform="translate(-274.72)"/>
      <path id="Trazado_101471" data-name="Trazado 101471" d="M285.257,55.339a1.118,1.118,0,0,0,1.019-1.572l-.909-2.041a1.117,1.117,0,0,0-2.041.909l.909,2.041A1.117,1.117,0,0,0,285.257,55.339Z" transform="translate(-229.92 -9.519)"/>
      <path id="Trazado_101472" data-name="Trazado 101472" d="M242.952,86.08a1.117,1.117,0,0,0,.748-1.947l-1.66-1.495a1.117,1.117,0,0,0-1.495,1.661l1.66,1.494a1.113,1.113,0,0,0,.747.287Z" transform="translate(-192.876 -36.439)"/>
      <path id="Trazado_101473" data-name="Trazado 101473" d="M217.865,130.6a1.117,1.117,0,0,0-.717-1.407l-2.125-.69a1.117,1.117,0,1,0-.69,2.125l2.125.69a1.116,1.116,0,0,0,1.407-.717Z" transform="translate(-169.978 -76.096)"/>
      <path id="Trazado_101474" data-name="Trazado 101474" d="M211.221,179.713l-2.222.234a1.117,1.117,0,1,0,.233,2.222l2.222-.234a1.117,1.117,0,1,0-.234-2.222Z" transform="translate(-165.193 -120.201)"/>
      <path id="Trazado_101475" data-name="Trazado 101475" d="M447.685,181.934l2.222.234a1.117,1.117,0,1,0,.234-2.222l-2.222-.234a1.117,1.117,0,1,0-.234,2.222Z" transform="translate(-370.553 -120.201)"/>
      <path id="Trazado_101476" data-name="Trazado 101476" d="M442.927,131.369a1.115,1.115,0,0,0,.345-.055l2.125-.69a1.117,1.117,0,0,0-.69-2.125l-2.124.69a1.117,1.117,0,0,0,.345,2.18Z" transform="translate(-366.359 -76.096)"/>
      <path id="Trazado_101477" data-name="Trazado 101477" d="M420.4,85.795l1.66-1.494a1.117,1.117,0,0,0-1.495-1.66l-1.66,1.494a1.117,1.117,0,1,0,1.495,1.66Z" transform="translate(-346.331 -36.441)"/>
      <path id="Trazado_101478" data-name="Trazado 101478" d="M381.971,55.339a1.117,1.117,0,0,0,1.021-.663l.909-2.041a1.117,1.117,0,1,0-2.041-.909l-.909,2.041a1.118,1.118,0,0,0,1.019,1.572Z" transform="translate(-313.915 -9.519)"/>
      <path id="Trazado_101479" data-name="Trazado 101479" d="M79.666,300.1H65.146v-1.117c0-1.677-2.183-2.9-2.851-3.233a1.124,1.124,0,0,0-.179-.071L51.184,292.4c-.692-.611-3.165-2.757-6.188-4.934-4.827-3.475-8.57-5.237-11.125-5.237H24.936v-1.117A1.117,1.117,0,0,0,23.819,280h-6.7A1.117,1.117,0,0,0,16,281.117V305.69a1.117,1.117,0,0,0,1.117,1.117h6.7a1.117,1.117,0,0,0,1.117-1.117v-1.117h3.3c.7.093,6.4,1.218,11.435,2.213,10.078,1.99,11.5,2.255,11.816,2.255h28.18a3.355,3.355,0,0,0,3.351-3.351v-2.234A3.355,3.355,0,0,0,79.666,300.1ZM22.7,304.573H18.234V282.234H22.7Zm58.081,1.117a1.118,1.118,0,0,1-1.117,1.117H51.538c-.7-.093-6.4-1.218-11.435-2.213-10.079-1.99-11.5-2.255-11.817-2.255H24.936V284.468h8.936c4.226,0,12.988,7.049,16.007,9.766a1.119,1.119,0,0,0,.426.24l11.072,3.322a4.167,4.167,0,0,1,1.535,1.227v2.2a1.119,1.119,0,0,1-1.025,1.113l-10.864-2.173-7.661-4.378a1.117,1.117,0,0,0-1.108,1.94l7.819,4.468a1.117,1.117,0,0,0,.335.126l11.169,2.234a1.121,1.121,0,0,0,.219.022,3.357,3.357,0,0,0,3.159-2.234H79.666a1.118,1.118,0,0,1,1.117,1.117Z" transform="translate(0 -206.492)"/>
    </g>
  </g>
</svg>
