<svg xmlns="http://www.w3.org/2000/svg" width="96" height="96" viewBox="0 0 96 96">
  <g id="Grupo_57302" data-name="Grupo 57302" transform="translate(-1064 -2889.999)">
    <g id="Icon" transform="translate(1064.496 2889.827)">
      <circle id="Base" cx="48" cy="48" r="48" transform="translate(-0.496 0.172)" fill="#fff"/>
    </g>
    <g id="investigacion-cualitativa" transform="translate(1082 2905.101)">
      <g id="Grupo_57301" data-name="Grupo 57301" transform="translate(1.966 5.831)">
        <path id="Trazado_102020" data-name="Trazado 102020" d="M55.453,18a3.863,3.863,0,0,1,3.864,3.864V33.458a3.863,3.863,0,0,1-3.864,3.864H53.521l-5.8,3.864V37.322H39.86a13.87,13.87,0,0,0,0-3.864H53.521v-.966a8.7,8.7,0,0,0-7.526-8.618,9.377,9.377,0,0,0-1.169-.077,4.832,4.832,0,0,0,4.831-4.831,4.553,4.553,0,0,0-.1-.966Z" transform="translate(-3.283 -6.407)" fill="#ffeaa7"/>
        <path id="Trazado_102021" data-name="Trazado 102021" d="M39.661,18.966A4.832,4.832,0,0,0,44.492,23.8a9.377,9.377,0,0,0-1.169.077,17.1,17.1,0,0,0-2.976.966,8.678,8.678,0,0,0-3.063,2.792l-.048.039A13.547,13.547,0,0,0,30,22.425v-.56A3.874,3.874,0,0,1,33.864,18h5.893A4.553,4.553,0,0,0,39.661,18.966Z" transform="translate(-2.949 -6.407)" fill="#ffeaa7"/>
        <path id="Trazado_102022" data-name="Trazado 102022" d="M18.424,21.458h6.763a13.487,13.487,0,0,0-9.468,3.864H5.864A3.863,3.863,0,0,1,2,21.458V9.864A3.863,3.863,0,0,1,5.864,6h5.893a4.553,4.553,0,0,0-.1.966A4.832,4.832,0,0,0,16.492,11.8l-1.169.077c-3.237,1.034-4.183,1.681-4.976,2.473A8.651,8.651,0,0,0,7.8,20.492v.966H18.424Z" transform="translate(-2 -6)" fill="#ffeaa7"/>
        <path id="Trazado_102023" data-name="Trazado 102023" d="M31.492,9.864v8.251a3.845,3.845,0,0,0-1.932,3.343v.56a13.446,13.446,0,0,0-3.864-.56v-.966a8.7,8.7,0,0,0-7.526-8.618A9.256,9.256,0,0,0,17,11.8a4.832,4.832,0,0,0,4.831-4.831,4.553,4.553,0,0,0-.1-.966h5.893A3.863,3.863,0,0,1,31.492,9.864Z" transform="translate(-2.508 -6)" fill="#ffeaa7"/>
      </g>
      <path id="Trazado_102024" data-name="Trazado 102024" d="M25.736,20.7v.966H18.973L18.21,12.09v-.01A8.7,8.7,0,0,1,25.736,20.7Z" transform="translate(-0.583 -0.375)" fill="#ff826e"/>
      <path id="Trazado_102025" data-name="Trazado 102025" d="M15.526,12.09l-.763,9.574H8V20.7a8.651,8.651,0,0,1,2.551-6.145c.792-.792,1.739-1.44,4.976-2.473Z" transform="translate(-0.237 -0.375)" fill="#ff826e"/>
      <path id="Trazado_102026" data-name="Trazado 102026" d="M18.1,12.087l.763,9.574H15l.763-9.574v-.01L16.932,12a9.256,9.256,0,0,1,1.169.077Z" transform="translate(-0.474 -0.373)" fill="#e6e9ed"/>
      <path id="Trazado_102027" data-name="Trazado 102027" d="M53.736,32.7v.966H46.973L46.21,24.09v-.01A8.7,8.7,0,0,1,53.736,32.7Z" transform="translate(-1.532 -0.782)" fill="#b4dd7f"/>
      <path id="Trazado_102028" data-name="Trazado 102028" d="M43.577,24.08v.01l-.763,9.574H39.78a13.512,13.512,0,0,0-2.29-5.787l.048-.039A8.678,8.678,0,0,1,40.6,25.046,17.1,17.1,0,0,1,43.577,24.08Z" transform="translate(-1.236 -0.782)" fill="#b4dd7f"/>
      <path id="Trazado_102029" data-name="Trazado 102029" d="M46.1,24.087l.763,9.574H43l.763-9.574v-.01a8.879,8.879,0,0,1,2.338,0Z" transform="translate(-1.423 -0.779)" fill="#e6e9ed"/>
      <path id="Trazado_102030" data-name="Trazado 102030" d="M61.255,47.932V59.526a1.938,1.938,0,0,1-1.932,1.932H41.932A1.938,1.938,0,0,1,40,59.526V47.932A1.938,1.938,0,0,1,41.932,46h17.39A1.938,1.938,0,0,1,61.255,47.932Z" transform="translate(-1.321 -1.524)" fill="#b4dd7f"/>
      <path id="Trazado_102031" data-name="Trazado 102031" d="M11.661,46.966l2.9,2.9.966.966-7.69,7.69A3.416,3.416,0,1,1,3,53.69L10.7,46Z" transform="translate(-0.034 -1.524)" fill="#dfb28b"/>
      <path id="Trazado_102032" data-name="Trazado 102032" d="M17.526,47.178,14.9,49.806l-2.9-2.9,2.628-2.628A13.3,13.3,0,0,0,17.526,47.178Z" transform="translate(-0.373 -1.466)" fill="#fcd770"/>
      <path id="Trazado_102033" data-name="Trazado 102033" d="M17.526,46.424a13.3,13.3,0,0,1-2.9-2.9,13.52,13.52,0,1,1,24.288-9.932,13.87,13.87,0,0,1,0,3.864,13.519,13.519,0,0,1-21.39,8.966Z" transform="translate(-0.373 -0.711)" fill="#e6e9ed"/>
      <circle id="Elipse_1426" data-name="Elipse 1426" cx="10" cy="10" r="10" transform="translate(15 24.9)" fill="#69d6f4"/>
      <path id="Trazado_102034" data-name="Trazado 102034" d="M21.565,5.864a4.553,4.553,0,0,1,.1.966,4.831,4.831,0,1,1-9.661,0,4.553,4.553,0,0,1,.1-.966,4.832,4.832,0,0,1,9.468,0Z" transform="translate(-0.373 -0.034)" fill="#f0d0b4"/>
      <path id="Trazado_102035" data-name="Trazado 102035" d="M49.661,18.831a4.831,4.831,0,0,1-9.661,0,4.553,4.553,0,0,1,.1-.966,4.832,4.832,0,0,1,9.468,0A4.553,4.553,0,0,1,49.661,18.831Z" transform="translate(-1.321 -0.44)" fill="#f0d0b4"/>
      <path id="Trazado_102036" data-name="Trazado 102036" d="M25.627,25A10.627,10.627,0,1,0,36.255,35.627,10.64,10.64,0,0,0,25.627,25Zm0,19.322a8.7,8.7,0,1,1,8.7-8.7A8.705,8.705,0,0,1,25.627,44.322Z" transform="translate(-0.474 -0.813)"/>
      <path id="Trazado_102037" data-name="Trazado 102037" d="M45.442,37.713v4.7l7.056-4.7h1.64a4.836,4.836,0,0,0,4.831-4.831V21.289a4.836,4.836,0,0,0-4.831-4.831H48.968a5.787,5.787,0,0,0-10.917,0H32.882a4.826,4.826,0,0,0-.966.1V9.7a4.836,4.836,0,0,0-4.831-4.831H21.917A5.787,5.787,0,0,0,11,4.864H5.831A4.836,4.836,0,0,0,1,9.7V21.289a4.836,4.836,0,0,0,4.831,4.831h7.756A14.395,14.395,0,0,0,13.008,42.7l-1.381,1.381-.966-.966L2.284,51.488a4.382,4.382,0,0,0,6.2,6.2l8.377-8.378-.966-.966,1.381-1.381a14.47,14.47,0,0,0,22.081-9.247ZM49.306,18.39h4.831a2.9,2.9,0,0,1,2.9,2.9V32.882a2.9,2.9,0,0,1-2.9,2.9H51.912l-4.538,3.026V35.78H39.6c.021-.321.049-.64.049-.966s-.028-.645-.049-.966H53.171V31.916a9.671,9.671,0,0,0-6.09-8.969A5.786,5.786,0,0,0,49.306,18.39ZM46.334,31.916l-.59-7.4a7.741,7.741,0,0,1,5.494,7.4ZM43.779,24.2l.616,7.715H42.624l.615-7.713c.091,0,.18-.016.271-.016S43.689,24.2,43.779,24.2Zm-3.094,7.715H39.352a14.379,14.379,0,0,0-1.918-4.757,7.7,7.7,0,0,1,3.839-2.628Zm2.825-17.39a3.864,3.864,0,1,1-3.864,3.864A3.868,3.868,0,0,1,43.509,14.526Zm-5.8,3.864a5.787,5.787,0,0,0,2.223,4.555,9.649,9.649,0,0,0-3.671,2.582A14.534,14.534,0,0,0,30,21.173a2.9,2.9,0,0,1,2.887-2.782ZM22.255,6.8h4.831a2.9,2.9,0,0,1,2.9,2.9v7.754a4.806,4.806,0,0,0-1.866,3.181,14.31,14.31,0,0,0-2-.258v-.05a9.671,9.671,0,0,0-6.09-8.969A5.786,5.786,0,0,0,22.255,6.8ZM8.729,20.322a7.741,7.741,0,0,1,5.5-7.4l-.591,7.4Zm7.459-7.715c.09,0,.179-.014.27-.014s.18.011.27.014l.616,7.715H15.572Zm2.5.319a7.741,7.741,0,0,1,5.5,7.4h-4.9ZM16.458,2.932A3.864,3.864,0,1,1,12.593,6.8,3.868,3.868,0,0,1,16.458,2.932ZM2.932,21.289V9.7a2.9,2.9,0,0,1,2.9-2.9h4.831a5.786,5.786,0,0,0,2.226,4.557A9.671,9.671,0,0,0,6.8,20.322v1.932H17.955a14.548,14.548,0,0,0-2.62,1.932h-9.5A2.9,2.9,0,0,1,2.932,21.289Zm4.182,35.03A2.45,2.45,0,1,1,3.65,52.854l7.011-7.012,3.465,3.465Zm7.411-9.344-1.532-1.532,1.187-1.187a14.707,14.707,0,0,0,1.532,1.532Zm10.627.4a12.56,12.56,0,1,1,12.56-12.56A12.574,12.574,0,0,1,25.153,47.374Z"/>
      <path id="Trazado_102038" data-name="Trazado 102038" d="M59.289,45H41.9A2.9,2.9,0,0,0,39,47.9V59.492a2.9,2.9,0,0,0,2.9,2.9h17.39a2.9,2.9,0,0,0,2.9-2.9V47.9A2.9,2.9,0,0,0,59.289,45Zm.966,14.492a.967.967,0,0,1-.966.966H41.9a.967.967,0,0,1-.966-.966V47.9a.967.967,0,0,1,.966-.966h17.39a.967.967,0,0,1,.966.966Z" transform="translate(-1.287 -1.491)"/>
      <path id="Trazado_102039" data-name="Trazado 102039" d="M56.526,50.932H54.593v5.8H52.661V52.864H50.729v3.864H48.8V54.8H46.864v1.932H44.932V49H43v9.661H58.458V56.729H56.526Z" transform="translate(-1.423 -1.626)"/>
      <path id="Trazado_102040" data-name="Trazado 102040" d="M55,21h1.932v1.932H55Z" transform="translate(-1.829 -0.678)"/>
      <path id="Trazado_102041" data-name="Trazado 102041" d="M55,25h1.932v1.932H55Z" transform="translate(-1.829 -0.813)"/>
      <path id="Trazado_102042" data-name="Trazado 102042" d="M5,9H6.932v1.932H5Z" transform="translate(-0.136 -0.271)"/>
      <path id="Trazado_102043" data-name="Trazado 102043" d="M5,13H6.932v1.932H5Z" transform="translate(-0.136 -0.407)"/>
    </g>
  </g>
</svg>
