<svg xmlns="http://www.w3.org/2000/svg" xmlns:xlink="http://www.w3.org/1999/xlink" width="564.091" height="433.653" viewBox="0 0 564.091 433.653">
  <defs>
    <linearGradient id="linear-gradient" x1="0.5" y1="-0.011" x2="0.5" y2="0.996" gradientUnits="objectBoundingBox">
      <stop offset="0" stop-color="#fff"/>
      <stop offset="1" stop-color="#fff" stop-opacity="0"/>
    </linearGradient>
  </defs>
  <g id="Grupo_55458" data-name="Grupo 55458" transform="translate(-67.036 -25.151)">
    <path id="Trazado_101131" data-name="Trazado 101131" d="M91.764,406.725S32.281,337.4,99.288,261.959c54.012-60.81,36.766-84.327,34.276-125.333-2.107-34.71,37.253-86.033,96.158-88.6,96.548-4.2,120.55,26.828,171.81,24.633S475.975,52.525,535.515,59.6C646,72.717,631.106,177.429,615.006,255.7s32.279,104.991-2.537,151.091" transform="translate(-0.387 52.016)" fill="#2a2b65"/>
    <g id="Grupo_55385" data-name="Grupo 55385" transform="translate(194.157 152.107)">
      <g id="Grupo_55381" data-name="Grupo 55381" transform="translate(62.604 176.853)">
        <path id="Trazado_101132" data-name="Trazado 101132" d="M416.937,423.73H323.629l10.135-39.847,2.3-9.037,4.46-17.5h59.525l4.459,17.5,2.3,9.037Z" transform="translate(-280.652 -357.347)" fill="#92dacd"/>
        <path id="Trazado_101133" data-name="Trazado 101133" d="M407.826,385.651H334.788l2.3-9.037h68.444Z" transform="translate(-281.676 -359.114)" fill="#edfff6"/>
        <path id="Trazado_101134" data-name="Trazado 101134" d="M448.4,441.108H283.476a7.166,7.166,0,0,1-7.165-7.166h0a7.165,7.165,0,0,1,7.165-7.165H448.4a7.166,7.166,0,0,1,7.166,7.165h0A7.167,7.167,0,0,1,448.4,441.108Z" transform="translate(-276.311 -363.716)" fill="#edfff6"/>
      </g>
      <path id="Trazado_101135" data-name="Trazado 101135" d="M511.862,170.19v175.4a7.563,7.563,0,0,1-7.559,7.559H214.943a7.556,7.556,0,0,1-7.559-7.559V170.19a7.555,7.555,0,0,1,7.559-7.559H504.3A7.562,7.562,0,0,1,511.862,170.19Z" transform="translate(-207.384 -162.631)" fill="#9ddfd3"/>
      <rect id="Rectángulo_5266" data-name="Rectángulo 5266" width="292.776" height="154.62" transform="translate(5.569 5.549)" fill="#edfff6"/>
      <rect id="Rectángulo_5281" data-name="Rectángulo 5281" width="292.776" height="23.123" transform="translate(5.569 137.046)" fill="#6dbaac"/>
      <path id="Trazado_101136" data-name="Trazado 101136" d="M374.267,361.455h0a7.04,7.04,0,0,1-7.019-7.02h0a7.04,7.04,0,0,1,7.019-7.02h0a7.041,7.041,0,0,1,7.02,7.02h0A7.041,7.041,0,0,1,374.267,361.455Z" transform="translate(-222.05 -179.583)" fill="#dbf6e9"/>
      <path id="Trazado_101137" data-name="Trazado 101137" d="M396.609,353.01H376.044l54.085-190.379h20.565Z" transform="translate(-222.857 -162.631)" opacity="0.2" fill="url(#linear-gradient)"/>
      <path id="Trazado_101138" data-name="Trazado 101138" d="M451.168,353.01h-43.63l54.085-190.379h43.63Z" transform="translate(-225.746 -162.631)" opacity="0.2" fill="url(#linear-gradient)"/>
      <g id="Grupo_55383" data-name="Grupo 55383" transform="translate(44.645 144.52)">
        <path id="Trazado_101139" data-name="Trazado 101139" d="M499.009,328.282h-240.2a2.271,2.271,0,1,1,0-4.541h240.2a2.271,2.271,0,1,1,0,4.541Z" transform="translate(-256.538 -321.931)" fill="#edfff6"/>
        <path id="Trazado_101140" data-name="Trazado 101140" d="M378.91,323.746v4.541h-120.1a2.271,2.271,0,1,1,0-4.541Z" transform="translate(-256.538 -321.931)" fill="#cc3d60"/>
        <circle id="Elipse_1391" data-name="Elipse 1391" cx="4.087" cy="4.087" r="4.087" transform="translate(118.342)" fill="#fff"/>
      </g>
      <g id="Grupo_55384" data-name="Grupo 55384" transform="translate(14.186 137.635)">
        <circle id="Elipse_1392" data-name="Elipse 1392" cx="9.12" cy="9.12" r="9.12" transform="translate(0 17.753) rotate(-76.718)" fill="#fff"/>
        <path id="Trazado_101141" data-name="Trazado 101141" d="M233.52,321.737l5,3.853a.3.3,0,0,1,0,.479l-5,3.852a.3.3,0,0,1-.487-.239v-7.7A.3.3,0,0,1,233.52,321.737Z" transform="translate(-223.923 -314.857)" fill="#cc3d60"/>
      </g>
    </g>
    <g id="Grupo_55392" data-name="Grupo 55392" transform="translate(107.191 314.46)">
      <path id="Trazado_101156" data-name="Trazado 101156" d="M127.2,294.418v12.927a.875.875,0,0,1-.17.523.894.894,0,0,1-.742.389H107.3a.931.931,0,0,1-.629-.247v-12a.8.8,0,0,1,.8-.792H120.81a.8.8,0,0,0,.791-.8.8.8,0,0,1,.792-.8H126.4A.8.8,0,0,1,127.2,294.418Z" transform="translate(-102.158 -293.619)" fill="#dbf6e9"/>
      <path id="Trazado_101157" data-name="Trazado 101157" d="M124.392,309.822a.894.894,0,0,1-.742.389H104.66a.931.931,0,0,1-.629-.247.884.884,0,0,1-.191-.269.282.282,0,0,1-.028-.064l-4.226-9.647a.763.763,0,0,1,.7-1.067h18.828a.76.76,0,0,1,.7.452l3.958,9.032Z" transform="translate(-99.521 -295.574)" fill="#9ddfd3"/>
    </g>
    <g id="Grupo_55396" data-name="Grupo 55396" transform="translate(126.926 25.151)">
      <path id="Rectángulo_5282" data-name="Rectángulo 5282" d="M4.484,0H129.14a6.647,6.647,0,0,1,6.647,6.647V103a1.432,1.432,0,0,1-1.432,1.432H1.432A1.432,1.432,0,0,1,0,103V4.484A4.484,4.484,0,0,1,4.484,0Z" transform="translate(0 3.452)" fill="#dbf6e9"/>
      <rect id="Rectángulo_5283" data-name="Rectángulo 5283" width="125.242" height="22.485" rx="2.827" transform="translate(5.348 80.334)" fill="#fff"/>
      <rect id="Rectángulo_5284" data-name="Rectángulo 5284" width="125.242" height="9.12" rx="1.801" transform="translate(5.348 67.494)" fill="#fff"/>
      <g id="Grupo_55393" data-name="Grupo 55393" transform="translate(4.793 17.058)">
        <path id="Trazado_101158" data-name="Trazado 101158" d="M212.113,96.281H140.652a2.013,2.013,0,0,1-2.013-2.013h0a2.013,2.013,0,0,1,2.013-2.013h71.461a2.013,2.013,0,0,1,2.013,2.013h0A2.013,2.013,0,0,1,212.113,96.281Z" transform="translate(-138.639 -92.256)" fill="#fff" opacity="0.31"/>
        <path id="Trazado_101159" data-name="Trazado 101159" d="M212.113,105.44h-71.46a2.013,2.013,0,0,1-2.014-2.012h0a2.013,2.013,0,0,1,2.014-2.014h71.46a2.013,2.013,0,0,1,2.013,2.014h0A2.012,2.012,0,0,1,212.113,105.44Z" transform="translate(-138.639 -93.096)" fill="#fff" opacity="0.31"/>
        <path id="Trazado_101160" data-name="Trazado 101160" d="M212.113,114.6h-71.46a2.013,2.013,0,0,1-2.014-2.013h0a2.013,2.013,0,0,1,2.014-2.013h71.46a2.013,2.013,0,0,1,2.013,2.013h0A2.013,2.013,0,0,1,212.113,114.6Z" transform="translate(-138.639 -93.937)" fill="#fff" opacity="0.31"/>
        <path id="Trazado_101161" data-name="Trazado 101161" d="M212.113,123.759h-71.46a2.013,2.013,0,0,1-2.014-2.012h0a2.013,2.013,0,0,1,2.014-2.014h71.46a2.013,2.013,0,0,1,2.013,2.014h0A2.012,2.012,0,0,1,212.113,123.759Z" transform="translate(-138.639 -94.777)" fill="#fff" opacity="0.31"/>
        <path id="Trazado_101162" data-name="Trazado 101162" d="M212.113,132.919h-71.46a2.013,2.013,0,0,1-2.014-2.013h0a2.013,2.013,0,0,1,2.014-2.013h71.46a2.013,2.013,0,0,1,2.013,2.013h0A2.013,2.013,0,0,1,212.113,132.919Z" transform="translate(-138.639 -95.617)" fill="#fff" opacity="0.31"/>
        <path id="Trazado_101163" data-name="Trazado 101163" d="M195.325,142.081H140.653a2.013,2.013,0,0,1-2.014-2.013h0a2.013,2.013,0,0,1,2.014-2.013h54.673a2.013,2.013,0,0,1,2.013,2.013h0A2.013,2.013,0,0,1,195.325,142.081Z" transform="translate(-138.639 -96.458)" fill="#fff" opacity="0.31"/>
      </g>
      <path id="Trazado_101164" data-name="Trazado 101164" d="M267.774,73.475H134.738a1.377,1.377,0,0,0-1.376,1.376V85.039H269.15V74.851A1.377,1.377,0,0,0,267.774,73.475Z" transform="translate(-133.362 -73.475)" fill="#9ddfd3"/>
      <g id="Grupo_55394" data-name="Grupo 55394" transform="translate(113.128 4.527)">
        <path id="Trazado_101165" data-name="Trazado 101165" d="M260.427,79.714a1.255,1.255,0,1,1-1.255-1.255A1.254,1.254,0,0,1,260.427,79.714Z" transform="translate(-257.917 -78.459)" fill="#fff"/>
        <path id="Trazado_101166" data-name="Trazado 101166" d="M267.291,79.714a1.255,1.255,0,1,1-1.254-1.255A1.254,1.254,0,0,1,267.291,79.714Z" transform="translate(-258.547 -78.459)" fill="#fff"/>
        <path id="Trazado_101167" data-name="Trazado 101167" d="M274.155,79.714a1.255,1.255,0,1,1-1.254-1.255A1.254,1.254,0,0,1,274.155,79.714Z" transform="translate(-259.176 -78.459)" fill="#fff"/>
      </g>
      <g id="Grupo_55395" data-name="Grupo 55395" transform="translate(85.433 17.062)">
        <path id="Trazado_101168" data-name="Trazado 101168" d="M272.581,93.56v43.006a1.313,1.313,0,0,1-1.315,1.314H228.724a1.311,1.311,0,0,1-1.3-1.314V93.56a1.308,1.308,0,0,1,1.3-1.3h42.542A1.31,1.31,0,0,1,272.581,93.56Z" transform="translate(-227.424 -92.26)" fill="#fff"/>
        <path id="Trazado_101169" data-name="Trazado 101169" d="M274.878,131.058v8.06a1.314,1.314,0,0,1-1.315,1.314h-21.1l.9-9.374,9.932-10.984Z" transform="translate(-229.721 -94.812)" fill="#52d6be"/>
        <path id="Trazado_101170" data-name="Trazado 101170" d="M266.672,139.967H228.724a1.311,1.311,0,0,1-1.3-1.314v-8.06l14.851-15.586Z" transform="translate(-227.424 -94.347)" fill="#52d6be"/>
        <path id="Trazado_101171" data-name="Trazado 101171" d="M269.508,105.318a5.236,5.236,0,1,1-5.235-5.235A5.235,5.235,0,0,1,269.508,105.318Z" transform="translate(-230.324 -92.978)" fill="#52d6be"/>
      </g>
    </g>
    <g id="Grupo_55404" data-name="Grupo 55404" transform="translate(183.317 75.174)">
      <path id="Trazado_101172" data-name="Trazado 101172" d="M336.094,290.91l-14.2-24.36-22.57,1.777-6.156,5.614c-.79-.918-.617-.708-1.234-1.4-4.762-5.332-15.908-14.2-24.745-23.324a214.826,214.826,0,0,1-17.548-20.731l-1.786.891c.007-.95.013-1.559.013-1.559l-7.944-10.626-9.627-.626-7.147,8.691.368,4.647s.115,7.162,5.71,7.886c1.68.217,5.925,1.027,7.263,1.942a27.8,27.8,0,0,1,8.973,10.394c6.308,12.367,15.506,30.01,24.142,45.129a18.058,18.058,0,0,0,.99,1.621c3,4.788,12.316,18.633,19.928,19.286C299.739,316.952,336.094,290.91,336.094,290.91Z" transform="translate(-197.991 -90.646)" fill="#f7b59c"/>
      <g id="Grupo_55403" data-name="Grupo 55403" transform="translate(162.399 0)">
        <path id="Trazado_101173" data-name="Trazado 101173" d="M383.1,156.421s3.032-4.528,7.2-5.607-4.576,9.695-4.576,9.695-2.355,1.043-2.626.869S383.1,156.421,383.1,156.421Z" transform="translate(-375.052 -84.607)" fill="#01263a"/>
        <path id="Trazado_101174" data-name="Trazado 101174" d="M467.528,121.383s29.739,10.675-5.665,41.357l-5.329-1.622Z" transform="translate(-381.8 -81.914)" fill="#21214b"/>
        <path id="Trazado_101175" data-name="Trazado 101175" d="M385.844,217.149A57.893,57.893,0,0,0,418.993,237.2c32.939-.626,38.556-18.774,38.556-18.774l-18.4-4.085s-.556-24.021,9.648-38.84c7.646,1.473,11.228-10.587,9.128-13.826-2.278-3.514-4.84-3.051-4.84-3.051-2.168,2.354-4.14,7.9-5.113,10.63L402.08,192.988a26.074,26.074,0,0,1,1.233,3.3,53.315,53.315,0,0,1,2.048,9.925,67.534,67.534,0,0,1,.4,9.017ZM444.7,174.49c.973-1.658,2.029-3.336,3.2-5.024-.408,1.168-.714,2.224-.936,3.086C445.666,173.647,444.729,174.462,444.7,174.49Z" transform="translate(-375.315 -85.328)" fill="#f7b59c"/>
        <path id="Trazado_101176" data-name="Trazado 101176" d="M405.078,198.161a53.313,53.313,0,0,1,2.048,9.925c38.219-8.378,39.312-29.063,39.312-29.063l-19.619,7.961Z" transform="translate(-377.08 -87.201)" fill="#ed9780"/>
        <path id="Trazado_101177" data-name="Trazado 101177" d="M397.95,107.183s-8.322,15.475-2.59,25.669l13.249-17.173" transform="translate(-376.003 -80.611)" fill="#01263a"/>
        <path id="Trazado_101178" data-name="Trazado 101178" d="M381.925,185.988c8.807,13.908,41.085,13.589,56.228-6.336s17.614-42.785,10.042-56.838c-4.211-7.811-14.279-12.327-24.175-13.057a26.91,26.91,0,0,0-7.876.584,28.727,28.727,0,0,0-15.608,9.5c-.371.438-.717.876-1.062,1.328l-2.325,3.069c-.305.4-.584.8-.863,1.222a26.456,26.456,0,0,0-3.361,7.054,25.6,25.6,0,0,0-.944,4,26.608,26.608,0,0,1-5.42,12.712C379.92,157.4,373.133,172.094,381.925,185.988Z" transform="translate(-374.572 -80.84)" fill="#f7b59c"/>
        <path id="Trazado_101179" data-name="Trazado 101179" d="M402.833,119.9a38.84,38.84,0,0,0,10.259,2.668c7.7.927,23.224,2.466,28.433,8.128A14.44,14.44,0,0,1,445,137.122c1.279,4.449-2.891-15.124-2.891-15.124L418.449,110.4A28.736,28.736,0,0,0,402.833,119.9Z" transform="translate(-376.874 -80.906)" fill="#ed9780"/>
        <path id="Trazado_101180" data-name="Trazado 101180" d="M448.636,146.641s-.075,20.153-10.732,25.482-17.955-1.242-22.822-4.721c-2.8-2-3.784,3.129-3.784,3.129s5.561,9.238,8.341,9.238,13.978-.154,14.827-.695,7.26-3.63,7.26-3.63,4.4-7.524,4.711-8.319,5.329-9.366,5.1-10.448-.154-8.186-.154-8.186Z" transform="translate(-377.65 -84.231)" fill="#ed9780"/>
        <path id="Trazado_101181" data-name="Trazado 101181" d="M396.5,78.079c-2.512.489-4.787,5.647-5.811,7.958a19.286,19.286,0,0,0,2.115,20.123c7.259,10.059,22.937,10.079,34.637,13.091,10.4,2.677,15.581,9.38,14.9,17.017a7.756,7.756,0,0,0,1.933,5.745l.222.254a6.275,6.275,0,0,1,1.421,5.369c-1.221,6.04-5.036,18.426-14.419,21.2-8.109,2.394-11.435-.651-12.774-1.67-4.718-3.59-7.383-7.568-16.591-12.058-4.789-2.335-9.942-2.012-16.658-2.992-1.25-.183-2.978-.347-3.172-2.37,0,0-14.659,17.2-4.4,35.079a18.741,18.741,0,0,0,11.87,8.946,48.558,48.558,0,0,0,31.65-3.388c21.778-9.847,28.961-32.321,31.857-39.388s10.426-26.1,4.809-43.635c-3.466-10.82-14.442-19.968-32.38-20.775C413.2,86.021,403.939,76.63,396.5,78.079Z" transform="translate(-374.252 -77.927)" fill="#01080d"/>
        <path id="Trazado_101182" data-name="Trazado 101182" d="M412.193,173.809a10.534,10.534,0,0,1-.926,1.39c-1.965,2.568-7.127,7.414-15.931,3.133a8.8,8.8,0,0,1-4.81-4.985c-1.343-3.809.659-7.72.659-7.72a69.189,69.189,0,0,0,7.7,4.226c3.836,1.817,8.563,3.587,12.807,3.92C411.859,173.79,412.026,173.8,412.193,173.809Z" transform="translate(-375.702 -85.972)" fill="#8d1612"/>
        <path id="Trazado_101183" data-name="Trazado 101183" d="M411.972,173.421l-.232.778-.426,1.427c-1.965,2.568-7.127,7.414-15.931,3.133a8.8,8.8,0,0,1-4.81-4.985,11.515,11.515,0,0,1,7.257-3.494h5.913Z" transform="translate(-375.749 -86.399)" fill="#ff4c2f"/>
        <path id="Trazado_101184" data-name="Trazado 101184" d="M391.532,165.626s-2.463,3.068-2.47,3.945c-.009,1.361,16.218,8.98,17.087,9.038s2.38-3.068,2.38-3.068l-6.574-3.916" transform="translate(-375.61 -85.972)" fill="#fafff7"/>
        <path id="Trazado_101185" data-name="Trazado 101185" d="M392.609,129.3c-.385.863-.074.058-.424,1.279a2.346,2.346,0,0,0,1.675,2.817c3.041,1.087,12.261,4.735,12.261,4.735.964.558.977-.478.679-1.1-1.211-2.537-2.426-5.689-11.158-8.648C394.418,127.971,393.136,128.123,392.609,129.3Z" transform="translate(-375.889 -82.537)" fill="#003051"/>
        <path id="Trazado_101186" data-name="Trazado 101186" d="M438.734,148.044c-.361.873.01.1-.636,1.188a2.346,2.346,0,0,1-3.2.723c-2.881-1.46-11.871-5.642-11.871-5.642-1.067-.315-.325-1.038.333-1.252,2.674-.866,5.8-2.153,13.952,2.15C438.457,145.815,439.229,146.85,438.734,148.044Z" transform="translate(-378.677 -83.822)" fill="#003051"/>
        <path id="Trazado_101187" data-name="Trazado 101187" d="M387.659,166.022s5.113,6.5,12.212,4.518c0,0,.067,5.317,12,7.061l1.043-4.164s-7.678-4.094-8.183-3.785-7.8-1.949-9.193-2.21-6.139-3.968-6.139-3.968Z" transform="translate(-375.482 -85.775)" fill="#003051"/>
        <path id="Trazado_101188" data-name="Trazado 101188" d="M460.739,163.184s-4.331,6.172-3.667,8.863c0,0,.165-1.562,4.151-1.539,0,0,2.576-3.589,1.28-6.265A1.611,1.611,0,0,0,460.739,163.184Z" transform="translate(-381.843 -85.746)" fill="#ed9780"/>
        <g id="Grupo_55399" data-name="Grupo 55399" transform="translate(43.555 65.092)">
          <g id="Grupo_55397" data-name="Grupo 55397">
            <path id="Trazado_101189" data-name="Trazado 101189" d="M423.4,150.689c-1.361,2.217-1.929,4.634.3,6.4a2.132,2.132,0,0,0,2.566-.264,8.3,8.3,0,0,0,1.952-2.858c1.52-2.885-3.077-6.1-4.814-3.272Z" transform="translate(-422.206 -149.594)" fill="#452e17"/>
          </g>
          <g id="Grupo_55398" data-name="Grupo 55398" transform="translate(1.256 2.068)">
            <path id="Trazado_101190" data-name="Trazado 101190" d="M423.9,152.19c-.357.582-.507,1.216.077,1.678a.56.56,0,0,0,.673-.07c.3-.284.219-.579.393-.91a.67.67,0,0,0-1.143-.7Z" transform="translate(-423.589 -151.87)" fill="#fff"/>
          </g>
        </g>
        <g id="Grupo_55402" data-name="Grupo 55402" transform="translate(19.991 57.294)">
          <g id="Grupo_55400" data-name="Grupo 55400">
            <path id="Trazado_101191" data-name="Trazado 101191" d="M397.287,141.88c-1.124,1.719-1.627,3.614.09,5.055a1.685,1.685,0,0,0,2.032-.152,7.369,7.369,0,0,0,1.551-2.477c1.265-2.243-2.239-4.621-3.673-2.426Z" transform="translate(-396.262 -141.008)" fill="#452e17"/>
          </g>
          <g id="Grupo_55401" data-name="Grupo 55401" transform="translate(1.021 1.659)">
            <path id="Trazado_101192" data-name="Trazado 101192" d="M397.655,143.076c-.294.45-.427.947.024,1.325a.44.44,0,0,0,.533-.04c.241-.217.185-.451.332-.708a.53.53,0,0,0-.888-.577Z" transform="translate(-397.386 -142.835)" fill="#fff"/>
          </g>
        </g>
      </g>
      <path id="Trazado_101193" data-name="Trazado 101193" d="M247.414,227.19s-11.39-24.459-19.336-30.22c0,0-2.8.438-2.47,3.836s5.15,7.569,5.367,10.749-1.92,2.739-4.551,2.135-22.088-11.433-24.007-10.485c-1.956.965.054,2.988,1.423,4.084s11.756,7.628,11.756,7.628-18.713-10.269-20.113-6.7c-.907,2.315,16.491,11.247,16.491,11.247s-14.947-8.373-15.63-5.267c-.582,2.651,12.08,8.592,12.08,8.592s-7.826-4.1-8.414-2.3c-.747,2.279,10.123,8.183,13.274,10.24s10.825,5.351,13.867,5.272,5.291-.381,6.962,1.319" transform="translate(-195.449 -88.848)" fill="#f7b59c"/>
      <path id="Trazado_101194" data-name="Trazado 101194" d="M466.02,281.017l6.285,23.261H358.146c.009-6.013-.318-13.188-.79-20.272L332.8,299.046c-8.029-15.913-25.531-31.053-25.776-31.063,17.048-16.727,37.953-35.67,49.342-43.572,5.45-3.787,31.629-5.311,35.026-5.647a9.008,9.008,0,0,0,7-4.659s3.642,8.465,9.582,11.526c1.617.663,1.762,10.263,3.778,10.209.6-.018,5.014-10.045,5.586-10.136,0,0,7.03-1.19,14.8-12.888l1.39,1.9a8.954,8.954,0,0,0,5.186,3.442,130.052,130.052,0,0,1,18.02,5.631c9.791,3.951,20.572,22.743,20.572,22.743l2.425,34.487-14.387-.654Z" transform="translate(-205.685 -90.302)" fill="#31326f"/>
      <path id="Trazado_101195" data-name="Trazado 101195" d="M470.512,281.4l2.714,29.171H487.3l-2.5-19.012Z" transform="translate(-220.683 -96.594)" fill="#f4f4f4"/>
      <path id="Trazado_101196" data-name="Trazado 101196" d="M513.57,276.336l12.716,33.772h-37.92l-6.282-13.714" transform="translate(-221.745 -96.129)" fill="#f7b59c"/>
      <path id="Trazado_101197" data-name="Trazado 101197" d="M455.607,219.6s29.062,4.2,37.75,12.856c4.331,4.312,7.881,12.577,13.318,24.977,8.894,20.284,13.086,31.332,13.086,31.332s-22,15.292-44.042,10.75l-10.8-31.108Z" transform="translate(-219.316 -90.924)" fill="#31326f"/>
      <ellipse id="Elipse_1393" data-name="Elipse 1393" cx="9.189" cy="8.272" rx="9.189" ry="8.272" transform="translate(174.473 65.568) rotate(-67.998)" fill="none" stroke="#fff" stroke-miterlimit="10" stroke-width="1"/>
      <ellipse id="Elipse_1394" data-name="Elipse 1394" cx="9.189" cy="8.272" rx="9.189" ry="8.272" transform="translate(196.872 74.662) rotate(-67.999)" fill="none" stroke="#fff" stroke-miterlimit="10" stroke-width="1"/>
      <path id="Trazado_101198" data-name="Trazado 101198" d="M408.473,146.87s4.955-.529,6.833,3.522" transform="translate(-214.992 -84.25)" fill="none" stroke="#fff" stroke-miterlimit="10" stroke-width="1"/>
      <line id="Línea_188" data-name="Línea 188" x2="25.456" y2="1.603" transform="translate(215.963 71.461)" fill="none" stroke="#fff" stroke-linecap="round" stroke-miterlimit="10" stroke-width="1"/>
      <path id="Trazado_101199" data-name="Trazado 101199" d="M369.461,311.183H363.23c.009-6.013-.318-13.188-.79-20.272l5.05-2.825S369.606,304.771,369.461,311.183Z" transform="translate(-210.769 -97.207)" fill="#f4f4f4"/>
      <path id="Trazado_101200" data-name="Trazado 101200" d="M410.551,149.594s-6.628,5.128-7.348,7.811c-.423,1.582,2.233,3.334,2.233,3.334" transform="translate(-214.504 -84.502)" fill="none" stroke="#ed9780" stroke-linecap="round" stroke-miterlimit="10" stroke-width="1"/>
    </g>
    <g id="Grupo_55419" data-name="Grupo 55419" transform="translate(393.896 237.204)">
      <g id="Grupo_55415" data-name="Grupo 55415" transform="translate(0 80.597)">
        <g id="Grupo_55414" data-name="Grupo 55414" transform="translate(24.663 4.107)">
          <path id="Trazado_101230" data-name="Trazado 101230" d="M458.009,431.732V349.914a.331.331,0,0,0-.331-.332h-1.985a.331.331,0,0,0-.331.332v81.819a1.158,1.158,0,0,0-.91,1.121,1.174,1.174,0,0,0,1.174,1.173h2.118a1.174,1.174,0,0,0,1.174-1.173A1.158,1.158,0,0,0,458.009,431.732Z" transform="translate(-454.452 -349.582)" fill="#fff"/>
          <path id="Trazado_101231" data-name="Trazado 101231" d="M636.731,431.679h-.067v-82.1h-2.647v82.1h-.067a.843.843,0,0,0-.843.843v.662a.844.844,0,0,0,.843.843h2.781a.843.843,0,0,0,.843-.843v-.662A.843.843,0,0,0,636.731,431.679Z" transform="translate(-470.842 -349.582)" fill="#fff"/>
        </g>
        <path id="Trazado_101232" data-name="Trazado 101232" d="M638.445,349.986H429.761a2.463,2.463,0,0,1-2.463-2.463h0a2.463,2.463,0,0,1,2.463-2.463H638.445a2.463,2.463,0,0,1,2.463,2.463h0A2.463,2.463,0,0,1,638.445,349.986Z" transform="translate(-427.298 -345.06)" fill="#edfff6"/>
      </g>
      <path id="Trazado_101233" data-name="Trazado 101233" d="M545.2,337.883H484.963l-11.925-37.489a2.927,2.927,0,0,1,2.789-3.815h54.092a2.928,2.928,0,0,1,2.79,2.04Z" transform="translate(-431.481 -260.016)" fill="#31326f"/>
      <path id="Trazado_101234" data-name="Trazado 101234" d="M544.189,338.064H487.145l-11.992-38.081a1.1,1.1,0,0,1,1.036-1.431h54.653a1.238,1.238,0,0,1,1.179.87Z" transform="translate(-431.683 -260.197)" fill="#fff"/>
      <path id="Trazado_101235" data-name="Trazado 101235" d="M508.865,304.934H482.589a.708.708,0,0,1-.708-.708h0a.709.709,0,0,1,.708-.709h26.276a.71.71,0,0,1,.709.709h0A.709.709,0,0,1,508.865,304.934Z" transform="translate(-432.305 -260.652)" fill="#c2e0f2"/>
      <path id="Trazado_101236" data-name="Trazado 101236" d="M513.041,308.542h-29.3a.709.709,0,0,1-.708-.709h0a.708.708,0,0,1,.708-.708h29.3a.708.708,0,0,1,.708.708h0A.709.709,0,0,1,513.041,308.542Z" transform="translate(-432.411 -260.983)" fill="#c2e0f2"/>
      <path id="Trazado_101237" data-name="Trazado 101237" d="M510.434,312.149H484.914a.709.709,0,0,1-.709-.708h0a.71.71,0,0,1,.709-.709h25.519a.709.709,0,0,1,.708.709h0A.708.708,0,0,1,510.434,312.149Z" transform="translate(-432.519 -261.314)" fill="#c2e0f2"/>
      <path id="Trazado_101238" data-name="Trazado 101238" d="M506.285,315.757H486.058a.708.708,0,0,1-.708-.708h0a.709.709,0,0,1,.708-.709h20.227a.71.71,0,0,1,.709.709h0A.709.709,0,0,1,506.285,315.757Z" transform="translate(-432.624 -261.645)" fill="#c2e0f2"/>
      <path id="Trazado_101239" data-name="Trazado 101239" d="M516.539,319.365h-29.3a.71.71,0,0,1-.709-.709h0a.709.709,0,0,1,.709-.708h29.3a.708.708,0,0,1,.708.708h0A.709.709,0,0,1,516.539,319.365Z" transform="translate(-432.732 -261.976)" fill="#c2e0f2"/>
      <path id="Trazado_101240" data-name="Trazado 101240" d="M513.913,322.972h-25.52a.708.708,0,0,1-.708-.708h0a.709.709,0,0,1,.708-.709h25.52a.709.709,0,0,1,.708.709h0A.708.708,0,0,1,513.913,322.972Z" transform="translate(-432.838 -262.307)" fill="#c2e0f2"/>
      <path id="Trazado_101241" data-name="Trazado 101241" d="M520,330.187H490.7a.709.709,0,0,1-.709-.708h0a.71.71,0,0,1,.709-.709H520a.709.709,0,0,1,.708.709h0A.708.708,0,0,1,520,330.187Z" transform="translate(-433.049 -262.969)" fill="#c2e0f2"/>
      <path id="Trazado_101242" data-name="Trazado 101242" d="M521.17,333.795h-29.3a.709.709,0,0,1-.708-.709h0a.708.708,0,0,1,.708-.708h29.3a.709.709,0,0,1,.709.708h0A.71.71,0,0,1,521.17,333.795Z" transform="translate(-433.157 -263.3)" fill="#c2e0f2"/>
      <path id="Trazado_101243" data-name="Trazado 101243" d="M539.4,331.007h-9.465a2.021,2.021,0,0,1-1.927-1.413l-7.89-24.973a2.022,2.022,0,0,1,1.927-2.631h9.465a2.021,2.021,0,0,1,1.927,1.413l7.89,24.973A2.021,2.021,0,0,1,539.4,331.007Z" transform="translate(-435.804 -260.512)" fill="#c2e0f2"/>
      <path id="Trazado_101244" data-name="Trazado 101244" d="M551.248,344.669h-65.5a1.938,1.938,0,0,1-1.938-1.938h0a1.938,1.938,0,0,1,1.938-1.937h65.5a1.937,1.937,0,0,1,1.937,1.937h0A1.938,1.938,0,0,1,551.248,344.669Z" transform="translate(-432.482 -264.072)" fill="#31326f"/>
      <g id="Grupo_55416" data-name="Grupo 55416" transform="translate(121.938 21.529)">
        <path id="Trazado_101245" data-name="Trazado 101245" d="M564.887,289.012a1.438,1.438,0,0,1-1.248-.72l-1.9-3.341a1.428,1.428,0,0,1,.575-1.969l5.286-2.791a1.434,1.434,0,0,1,1.922.579l1.8,3.312a1.429,1.429,0,0,1-.573,1.938l-5.191,2.819A1.41,1.41,0,0,1,564.887,289.012Zm3.378-8.327a.759.759,0,0,0-.356.088l-5.286,2.792a.769.769,0,0,0-.31,1.061h0l1.9,3.34a.773.773,0,0,0,1.036.3l5.192-2.819a.769.769,0,0,0,.307-1.044l-1.8-3.312A.771.771,0,0,0,568.265,280.685Z" transform="translate(-561.553 -280.027)" fill="#1a1a47"/>
      </g>
      <path id="Trazado_101246" data-name="Trazado 101246" d="M552.7,321.195a11.355,11.355,0,0,1-.764.893,26.435,26.435,0,0,0-4.061-2.632c-.877-.219-2.787.322-3.841.537-1.727.354-1.01-1.058-1.01-1.058s-1.164.408-2.183.822c-1.164.472-2.376,1.445-2.727,1.53-.666.159-1.318-.172-.7-1.1a32.518,32.518,0,0,1,6.079-5.641c1.323-.628,3.124-1.542,4.568-1.005s6.147,4.06,6.147,4.06C554.346,318.805,553.407,320.28,552.7,321.195Z" transform="translate(-437.377 -261.557)" fill="#f7b59c"/>
      <path id="Trazado_101247" data-name="Trazado 101247" d="M552.893,321.331s15.579,13.626,27.237,15.013,31.317-20.731,31.317-20.731-1.237-11.782-8.507-10.4-17.013,18.9-21.235,19.722-26.173-8.484-26.173-8.484a5.7,5.7,0,0,0-1.358,1.673A14.651,14.651,0,0,0,552.893,321.331Z" transform="translate(-438.82 -260.798)" fill="#dbf6e9"/>
      <path id="Trazado_101248" data-name="Trazado 101248" d="M588.412,263.916c-3.716-4.253-9.207-4.71-13.448-4.242a14.045,14.045,0,0,0-12.011,9.734,12.5,12.5,0,0,0,.252,8.017c3.46,9.555,7.134,14.819,9.962,17.407,1.242,1.137,3.862-.411,6.495-1.336a.741.741,0,0,1,.9.345l1.5,2.777,10.856-2.215a38.305,38.305,0,0,1-2.291-6.3C592.055,286.309,595.21,271.7,588.412,263.916Z" transform="translate(-439.693 -256.617)" fill="#f7b59c"/>
      <path id="Trazado_101249" data-name="Trazado 101249" d="M568.317,277.255a2.8,2.8,0,0,1,2.84,1.667c.8,1.913,2.044,4.588,3.02,5.459a1,1,0,0,0,1.074.01.841.841,0,0,0,.491-.834,22.711,22.711,0,0,0-1.13-3.808,2.563,2.563,0,0,1,1.926-3.55,4.352,4.352,0,0,1,1.589.1c2.89.876.9,5.408.841,7.775-.042,1.669,1.956,5.536,2.842,5.884a9.077,9.077,0,0,0,9.638-2.774c2.333-2.883,2.842-12.52,1.565-18.287s-5.89-9.02-7.414-9.39a5.388,5.388,0,0,0-1.812-.141,1.68,1.68,0,0,1-1.273-.416c-1.537-1.336-6.126-4.391-13.389-1.255A16.835,16.835,0,0,0,558.7,273.753c.107,2.463,2.042,2.281,3.382,1.852a2.239,2.239,0,0,1,2.129.461A5.428,5.428,0,0,0,568.317,277.255Z" transform="translate(-439.352 -256.323)" fill="#0b0b3a"/>
      <path id="Trazado_101251" data-name="Trazado 101251" d="M605.592,371.194c-.348.084-.726.166-1.119.242a97.222,97.222,0,0,1-12.809,1.014c-15.637-.28-22.578-8.711-25.119-13.059a16.261,16.261,0,0,1-1.248-2.548,14.377,14.377,0,0,0,5.2-7.183c1.179-3.879-.061-13.127-2.08-16.65-1.112-1.935-4.4-5.86-6.465-10-1.694-3.4-2.57-6.949-.719-9.656a34.8,34.8,0,0,1,11.849-10.344s13.308-5.331,24.643-4.121c7.191.756,13.595,4.143,15.3,13.194C617.433,335.4,605.592,371.194,605.592,371.194Z" transform="translate(-439.49 -260.212)" fill="#dbf6e9"/>
      <path id="Trazado_101252" data-name="Trazado 101252" d="M573.447,429.057a5.163,5.163,0,0,1-2.808,1.584,4.983,4.983,0,0,1-3.27-.607l-.869-2.509,6-1.307Z" transform="translate(-440.068 -271.909)" fill="#f7b59c"/>
      <path id="Trazado_101253" data-name="Trazado 101253" d="M538.863,432.5a5.163,5.163,0,0,1-3.024,1.118,4.985,4.985,0,0,1-3.132-1.118l-.461-2.615H538.4Z" transform="translate(-436.926 -272.245)" fill="#f7b59c"/>
      <path id="Trazado_101254" data-name="Trazado 101254" d="M572,421.761c-.393.181-1.591.672-2.022.824A55.974,55.974,0,0,1,564.479,424c-5.159-11.15-13.575-39.211-13.575-39.211-1.173-4.96,2.359-6.964,5.46-7.153a6.573,6.573,0,0,1,2.858.416c2.964,1.255,7.312,9.64,7.312,9.64a51.593,51.593,0,0,1,2.707,8.885C570.624,402.562,572,421.761,572,421.761Z" transform="translate(-438.616 -267.451)" fill="#1a1a47"/>
      <path id="Trazado_101255" data-name="Trazado 101255" d="M581.145,377.541c-.038,2.82-.786,7.32-5.014,8.589-6.306,1.89-10.964.816-18.276-.446-6.124-1.051-15.8-4.635-18.759-5.762-.386-.144-.314.049-.239.45,1.4,6.835-.866,43.769-.866,43.769a17.548,17.548,0,0,1-2.087.484,8.5,8.5,0,0,1-1.2.105c-1.589,0-4.508-.3-4.508-.3s-5.609-26.014-6.494-40.57.005-16.8,6.9-19.2c7.684-2.672,31.322-1.954,31.322-1.954l.008.007a22.555,22.555,0,0,0,6.654,8.915A28.047,28.047,0,0,0,581.145,377.541Z" transform="translate(-436.116 -266.074)" fill="#3d3d72"/>
      <g id="Grupo_55417" data-name="Grupo 55417" transform="translate(110.232 55.56)">
        <path id="Trazado_101256" data-name="Trazado 101256" d="M594.359,395.34v37.377a2.412,2.412,0,0,1-4.824,0V395.34Z" transform="translate(-552.414 -324.636)" fill="#94c1f7"/>
        <path id="Trazado_101257" data-name="Trazado 101257" d="M594.456,397.13v35.647a2.58,2.58,0,0,1-2.077,2.493,2.413,2.413,0,0,1-1.542-.3l-.244-.455V398.12a.99.99,0,0,1,.99-.99Z" transform="translate(-552.51 -324.8)" fill="#b5d0ff"/>
        <path id="Trazado_101258" data-name="Trazado 101258" d="M597.063,393.748a1.948,1.948,0,0,1-.067.514,2.092,2.092,0,0,1-2.012,1.566H587.8a2.083,2.083,0,0,1-2.079-2.08,2.09,2.09,0,0,1,2.079-2.079h7.183A2.078,2.078,0,0,1,597.063,393.748Z" transform="translate(-552.064 -324.299)" fill="#94c1f7"/>
        <path id="Trazado_101259" data-name="Trazado 101259" d="M597.237,394.524a2.092,2.092,0,0,1-2.012,1.566h-6.874a2.046,2.046,0,0,1,.538-.961,2.1,2.1,0,0,1,1.474-.6Z" transform="translate(-552.305 -324.561)" fill="#b5d0ff"/>
        <path id="Trazado_101260" data-name="Trazado 101260" d="M619.258,321.732c0,.023-.012.034-.012.057a6.61,6.61,0,0,1-.125.71c-.584,2.44-2.646,7.216-2.944,14.374-.2,4.4-.012,16.07-.218,23.125v.011c-.035,1.055-.069,1.993-.114,2.807-.378,6.242-2.509,15.5-9.026,20.182-6.62,4.97-19.941,4.112-28.027,3.928s-28.119-3.837-29.722-6.815a2.587,2.587,0,0,1-.378-1.718c0-.011,0-.011.012-.023a2.084,2.084,0,0,1,.618-1.145,3.12,3.12,0,0,1,2.956-.733c3.264.813,12.977,2.691,17.352-2.852,5.292-6.712,4.627-14.466,6.895-30.81,2.142-15.463,6.965-20.2,14.947-23.285,8.533-3.288,22.243-1.879,25.667-.848A2.93,2.93,0,0,1,619.258,321.732Z" transform="translate(-548.664 -317.495)" fill="#cfe3ff"/>
        <path id="Trazado_101261" data-name="Trazado 101261" d="M617.342,441.036a.887.887,0,0,1-.886.885H562.272a.883.883,0,0,1-.144-1.755l27.236-4.415,6.851,1.111,20.378,3.3A.885.885,0,0,1,617.342,441.036Z" transform="translate(-549.831 -328.343)" fill="#b5d0ff"/>
      </g>
      <path id="Trazado_101262" data-name="Trazado 101262" d="M531.279,432.765a9.982,9.982,0,0,0,3.112.646,7.494,7.494,0,0,0,3.064-.646s3.156,4.019,1.479,8.5a.609.609,0,0,1-.57.386H517.2a.475.475,0,0,1-.48-.46,1.77,1.77,0,0,1,1.489-1.746c1.953-.6,3.969-.93,5.481-1.466s3.684-2.757,4.9-3.166A6.6,6.6,0,0,0,531.279,432.765Z" transform="translate(-435.501 -272.509)" fill="#1a1a47"/>
      <path id="Trazado_101263" data-name="Trazado 101263" d="M566.134,430.321a9.97,9.97,0,0,0,3.174.144,7.494,7.494,0,0,0,2.922-1.124s3.755,3.468,2.81,8.156a.608.608,0,0,1-.5.471s-11.168,2.5-14.945,3.044a53.62,53.62,0,0,1-5.954.331.506.506,0,0,1-.548-.391,1.77,1.77,0,0,1,1.192-1.961c1.834-.9,3.772-1.548,5.18-2.316s3.2-3.307,4.334-3.9A6.6,6.6,0,0,0,566.134,430.321Z" transform="translate(-438.836 -272.195)" fill="#1a1a47"/>
      <path id="Trazado_101264" data-name="Trazado 101264" d="M518.751,341.971s-2.17-.9-3.3-1.3c-.454-.158-.877-.272-1.225-.355a6.557,6.557,0,0,0-1.49-.159H500.4a.648.648,0,0,1-.643-.65,1.405,1.405,0,0,1,.643-1.187l1.323-.854,3.955-2.556c1.958-1.263,3.381-1.341,5.71-1.136a21.35,21.35,0,0,1,2.425.85c2.311.763,2.813,1.11,4.349,1.655a10.51,10.51,0,0,0,1.292.392,1.27,1.27,0,0,0,.53.054A7.4,7.4,0,0,1,518.751,341.971Z" transform="translate(-433.945 -263.42)" fill="#f7b59c"/>
      <path id="Trazado_101265" data-name="Trazado 101265" d="M568.9,310.261c-1.616-.986-6.5-3.7-12.8,6.126s-8.233,14.018-10.055,17.073c-2.205,1.323-24.412.757-24.412.757a20.144,20.144,0,0,0-1.607,5.5,80.937,80.937,0,0,0,27.45,6.971c12.122,0,24.61-23.688,25.178-26.649S572.761,312.62,568.9,310.261Z" transform="translate(-435.804 -261.17)" fill="#dbf6e9"/>
      <g id="Grupo_55418" data-name="Grupo 55418" transform="translate(122.547 20.371)">
        <path id="Trazado_101266" data-name="Trazado 101266" d="M562.553,286.637a.329.329,0,0,1-.15-.622l12.279-6.293c1.39-.712,4.234-2.169,6.345.928a.329.329,0,1,1-.544.371c-1.646-2.416-3.61-1.683-5.477-.725l-12.3,6.3A.321.321,0,0,1,562.553,286.637Z" transform="translate(-562.223 -278.751)" fill="#1a1a47"/>
      </g>
      <path id="Trazado_101267" data-name="Trazado 101267" d="M575.908,280.291l1.621,5.179a1.646,1.646,0,0,0,2.478-.18c1.215-1.4,2.274-6.26.044-7.071S576.471,278.557,575.908,280.291Z" transform="translate(-440.931 -258.307)" fill="#f7b59c"/>
      <path id="Trazado_101268" data-name="Trazado 101268" d="M618.765,319.9a.085.085,0,0,1-.012-.034,3.005,3.005,0,0,0-1.615-1.169c-3.424-1.031-17.134-2.44-25.667.848-7.983,3.081-12.806,7.822-14.947,23.285-2.268,16.344-1.6,24.1-6.895,30.81-4.375,5.543-14.088,3.665-17.352,2.852a3.12,3.12,0,0,0-2.956.733,2.126,2.126,0,0,0-.629,1.168,2.587,2.587,0,0,0,.378,1.718c1.6,2.977,21.636,6.62,29.722,6.815S600.2,387.968,606.819,383c6.517-4.685,8.648-13.939,9.026-20.182.045-.814.08-1.752.114-2.807-.137.573-4.614,13.184-20.375,10.278-15.182-2.8-16.562-19.453-16.019-25.056.072-.609.144-1.2.213-1.749.137-1.039.971-5.429,2-9.266a18.649,18.649,0,0,1,5.974-9.279,8.936,8.936,0,0,1,1.448-.868c.149-.092.321-.183.492-.275.23-.126.47-.241.745-.367l.79-.343c.2-.08.4-.16.6-.229,12.335-4.879,25.6-1.707,26.469-1.569C619.12,321.423,618.823,320.129,618.765,319.9Z" transform="translate(-438.432 -261.935)" fill="#52d6be"/>
    </g>
    <g id="Grupo_55420" data-name="Grupo 55420" transform="translate(231.417 423.232)">
      <path id="Trazado_101269" data-name="Trazado 101269" d="M255.764,451.813l1.352-3.6s21.468,1.015,31.647,7.349l-19.37.363Z" transform="translate(-252.018 -448.214)" fill="#e1efff"/>
      <path id="Trazado_101270" data-name="Trazado 101270" d="M325.1,451.813l-1.352-3.6s-21.468,1.015-31.647,7.349l19.37.363Z" transform="translate(-255.351 -448.214)" fill="#e1efff"/>
      <path id="Trazado_101271" data-name="Trazado 101271" d="M288.651,455.817c-11.629-4.514-34.109-4.831-34.109-4.831v7.658h68.219v-7.658S300.28,451.3,288.651,455.817Z" transform="translate(-251.906 -448.468)" fill="#cce1ff"/>
      <rect id="Rectángulo_5285" data-name="Rectángulo 5285" width="73.49" height="2.595" transform="translate(0 8.046)" fill="#9ddfd3"/>
    </g>
    <path id="Trazado_101272" data-name="Trazado 101272" d="M496.918,148.235l6.473-4.243a8.619,8.619,0,0,0,4.658,1.366h31.183a8.664,8.664,0,0,0,8.664-8.665v-9.808a8.664,8.664,0,0,0-8.664-8.664H508.049a8.664,8.664,0,0,0-8.665,8.664v9.808a8.621,8.621,0,0,0,1.49,4.857Zm11.105-8.459A.779.779,0,0,1,508.8,139h29.985a.777.777,0,1,1,0,1.554H508.8A.779.779,0,0,1,508.023,139.777Zm30.763-3.276H522.944a.777.777,0,1,1,0-1.554h15.842a.777.777,0,1,1,0,1.554Zm-30.763-4.83a.78.78,0,0,1,.777-.777h29.985a.777.777,0,1,1,0,1.555H508.8A.78.78,0,0,1,508.023,131.671Zm30.763-3.276H516.667a.777.777,0,1,1,0-1.555h22.119a.777.777,0,1,1,0,1.555Zm-30.763-4.831a.78.78,0,0,1,.777-.777h29.985a.777.777,0,1,1,0,1.555H508.8A.78.78,0,0,1,508.023,123.563Z" transform="translate(-39.788 -45.036)" fill="#cc3d60"/>
    <g id="Grupo_55421" data-name="Grupo 55421" transform="translate(139.494 88.192)">
      <path id="Trazado_101273" data-name="Trazado 101273" d="M195.856,237.823h-45a3.656,3.656,0,0,0-3.656,3.656V380.2a3.656,3.656,0,0,0,3.656,3.656h3.259" transform="translate(-147.2 -105.614)" fill="none" stroke="#9acee2" stroke-linecap="round" stroke-miterlimit="10" stroke-width="1" stroke-dasharray="12 5"/>
      <path id="Trazado_101274" data-name="Trazado 101274" d="M549.1,186.678h86.127a6.424,6.424,0,0,1,6.423,6.424V305.574A6.423,6.423,0,0,1,635.229,312H625.4" transform="translate(-184.07 -100.922)" fill="none" stroke="#9acee2" stroke-linecap="round" stroke-miterlimit="10" stroke-width="1" stroke-dasharray="12 5"/>
      <path id="Trazado_101275" data-name="Trazado 101275" d="M288.872,92.26h51.884a10.5,10.5,0,0,1,10.5,10.5v49.547" transform="translate(-160.197 -92.26)" fill="none" stroke="#9acee2" stroke-linecap="round" stroke-miterlimit="10" stroke-width="1" stroke-dasharray="12 5"/>
    </g>
    <g id="Grupo_55428" data-name="Grupo 55428" transform="translate(548.691 218.643)">
      <g id="Grupo_55427" data-name="Grupo 55427">
        <g id="Grupo_55426" data-name="Grupo 55426">
          <g id="Grupo_55425" data-name="Grupo 55425" transform="translate(0.738 17.865)">
            <path id="Trazado_101280" data-name="Trazado 101280" d="M604.478,260.11l-5.937,3.167,2.969-7.719" transform="translate(-598.541 -255.558)" fill="#52d6be"/>
          </g>
          <path id="Trazado_101281" data-name="Trazado 101281" d="M622.827,248.437a12.549,12.549,0,1,1-12.549-12.549A12.549,12.549,0,0,1,622.827,248.437Z" transform="translate(-597.728 -235.888)" fill="#52d6be"/>
        </g>
      </g>
      <path id="Trazado_101282" data-name="Trazado 101282" d="M605.729,248.151l3.808,4.739,6.757-7.086" transform="translate(-598.462 -236.798)" fill="none" stroke="#fff" stroke-linecap="round" stroke-linejoin="round" stroke-width="1.38"/>
    </g>
    <g id="Grupo_55432" data-name="Grupo 55432" transform="translate(147.566 259.887)">
      <g id="Grupo_55431" data-name="Grupo 55431">
        <g id="Grupo_55430" data-name="Grupo 55430">
          <g id="Grupo_55429" data-name="Grupo 55429" transform="translate(18.423 17.866)">
            <path id="Trazado_101283" data-name="Trazado 101283" d="M176.371,305.52l5.937,3.167-2.969-7.719" transform="translate(-176.371 -300.968)" fill="#cc3d60"/>
          </g>
          <path id="Trazado_101284" data-name="Trazado 101284" d="M156.087,293.846A12.549,12.549,0,1,0,168.636,281.3,12.549,12.549,0,0,0,156.087,293.846Z" transform="translate(-156.087 -281.297)" fill="#cc3d60"/>
        </g>
      </g>
      <path id="Trazado_101285" data-name="Trazado 101285" d="M164.088,293.561,167.9,298.3l6.757-7.086" transform="translate(-156.821 -282.207)" fill="none" stroke="#fff" stroke-linecap="round" stroke-linejoin="round" stroke-width="1.38"/>
    </g>
    <g id="Grupo_55435" data-name="Grupo 55435" transform="translate(535.262 93.461)">
      <rect id="Rectángulo_5288" data-name="Rectángulo 5288" width="51.958" height="52.589" rx="1.77" transform="translate(0 0)" fill="#fff"/>
      <g id="Grupo_55434" data-name="Grupo 55434" transform="translate(9.502 5.01)" opacity="0.5">
        <path id="Trazado_101286" data-name="Trazado 101286" d="M601.683,143.294a14.879,14.879,0,0,1-4.228,10.44.039.039,0,0,1-.021.01,13.769,13.769,0,0,1-1.291,1.186,14.026,14.026,0,0,1-2.14,1.458,13.518,13.518,0,0,1-1.846.871,14.666,14.666,0,0,1-4.564,1.007q-.456.031-.913.032a15.006,15.006,0,0,1-3.452-29.608l.136-.031a12.787,12.787,0,0,1,1.459-.262,15.462,15.462,0,0,1,1.857-.115,15,15,0,0,1,13.209,7.89q.252.471.472.975A14.832,14.832,0,0,1,601.683,143.294Z" transform="translate(-571.677 -124.759)" fill="#9ddfd3"/>
        <g id="Grupo_55433" data-name="Grupo 55433" transform="translate(1.254 3.523)">
          <path id="Trazado_101287" data-name="Trazado 101287" d="M590.581,156.619c.108.753-.808,1.2-1.546,1.377-.435.108-.876.215-1.315.307-.3.021-.609.031-.917.031a14.94,14.94,0,0,1-9.45-3.348,2.459,2.459,0,0,1-.041-.394,6.878,6.878,0,0,1,.322-1.695,7.58,7.58,0,0,0,.2-1.433.727.727,0,0,0-.108-.507,1.087,1.087,0,0,0-.4-.22A1.946,1.946,0,0,1,576.2,148.5c.728-1.794,3.292-1.207,1.6-5.678-.362-.96.4-1.206.342-1.472-.143-.593-2.365-.431-2.969-.529a2.089,2.089,0,0,1-1.131-.374,1.629,1.629,0,0,1-.39-.619,8.256,8.256,0,0,1-.6-2.523,15.02,15.02,0,0,1,10.428-8.616l.046.486q-.23,2.557-.322,5.114a2.609,2.609,0,0,1-.133.891,1.578,1.578,0,0,1-1.643.845,1.138,1.138,0,0,0-.717.02c-.343.2-.261.707-.312,1.1-.1.681-.7,1.152-1.116,1.7s-.578,1.485.026,1.817c.153.082.348.124.435.272.117.2-.042.461-.241.594a2.409,2.409,0,0,0-.584.379c-.3.353-.082.916.256,1.229a10.853,10.853,0,0,1,1.07.865c.369.45.451,1.1.855,1.51.983,1.014,3.005-.046,4,.957.517.511.517,1.371.973,1.935a4.773,4.773,0,0,0,1.105.829,3.567,3.567,0,0,1,1.479,2.678c.066,1.126-.353,2.447.42,3.266C589.577,155.7,590.478,155.913,590.581,156.619Z" transform="translate(-573.058 -128.32)" fill="#81a8cc" opacity="0.5" style="mix-blend-mode: screen;isolation: isolate"/>
          <path id="Trazado_101288" data-name="Trazado 101288" d="M601.169,136.171a5.709,5.709,0,0,0-.752.062.437.437,0,0,0-.262.117.576.576,0,0,0-.072.435,1.678,1.678,0,0,1-.563,1.316.545.545,0,0,1-.255.138c-.282.051-.471-.276-.574-.548-.276-.717-.548-1.439-.818-2.161a1.333,1.333,0,0,0-.364-.593c-.332-.256-.839-.144-1.193-.369-.43-.272-.645-1.009-1.136-.886-.4.1-.4.665-.277,1.054s.282.89-.03,1.157c-.333.282-.85,0-1.106-.353s-.456-.8-.865-.957c-.584-.221-1.183.312-1.5.849s-.61,1.178-1.2,1.388a5.624,5.624,0,0,0-.881.23c-.553.308-.532,1.111-.338,1.716a2.529,2.529,0,0,1,.19,1.837.5.5,0,0,1-.246.262c-.251.092-.491-.139-.655-.343a23.022,23.022,0,0,1-2.355-3.711,1.472,1.472,0,0,1-.22-.819,2.774,2.774,0,0,1,.169-.522,9.629,9.629,0,0,0,.1-1.879c.133-1.06,1-2.058.66-3.072a8.737,8.737,0,0,0-.573-1.034.943.943,0,0,1,.055-1.085,14.771,14.771,0,0,1,1.858-.118A14.993,14.993,0,0,1,601.169,136.171Z" transform="translate(-574.217 -128.282)" fill="#81a8cc" opacity="0.5" style="mix-blend-mode: screen;isolation: isolate"/>
          <path id="Trazado_101289" data-name="Trazado 101289" d="M603.77,144.186a15.01,15.01,0,0,1-2.887,8.856.005.005,0,0,1-.005-.005.719.719,0,0,1-.041-.3,2.513,2.513,0,0,1,.2-1.065c.107-.2.261-.373.373-.573a2.95,2.95,0,0,0,.169-1.7,1.4,1.4,0,0,0-.292-.87c-.138-.139-.328-.221-.466-.359-.322-.342-.225-.88-.148-1.346s.025-1.054-.4-1.229a14.886,14.886,0,0,1-1.761,2.033.792.792,0,0,0-1-.794,1.117,1.117,0,0,0-.707,1.208c-.435.011-.532-.609-.471-1.039.1-.732.205-1.464.3-2.2-.476-.2-.825.553-1.332.666-.425.092-.824-.333-.87-.768a2.357,2.357,0,0,1,.343-1.243c.225-.461.451-.916.676-1.377a3.074,3.074,0,0,1,1.213-1.531,3.448,3.448,0,0,1,2.35.083,2.384,2.384,0,0,0,2.278-.292,2.427,2.427,0,0,0,.548-1.285c.082-.4.2-.86.573-1.024l.036.005A14.843,14.843,0,0,1,603.77,144.186Z" transform="translate(-575.018 -129.177)" fill="#81a8cc" opacity="0.5" style="mix-blend-mode: screen;isolation: isolate"/>
        </g>
        <path id="Trazado_101291" data-name="Trazado 101291" d="M605.129,142.871A18.465,18.465,0,0,0,586.661,124.4a.966.966,0,1,0,0,1.933,16.535,16.535,0,1,1-12.8,27.006.967.967,0,0,0-1.359-.134.964.964,0,0,0-.135,1.359,18.4,18.4,0,0,0,13.154,6.735v3.224h-5.582a1.223,1.223,0,0,0,0,2.446H593.5a1.223,1.223,0,1,0,0-2.446H587.92v-3.251A18.477,18.477,0,0,0,605.129,142.871Z" transform="translate(-571.72 -124.403)" fill="#12b295"/>
      </g>
    </g>
    <g id="Grupo_55455" data-name="Grupo 55455" transform="translate(115.708 53.294)">
      <g id="Grupo_55436" data-name="Grupo 55436" transform="translate(152.462 310.836)">
        <path id="Trazado_101292" data-name="Trazado 101292" d="M298.946,400.477a5.057,5.057,0,1,1-5.666-4.365A5.057,5.057,0,0,1,298.946,400.477Z" transform="translate(-288.872 -396.069)" fill="#9999f1"/>
        <path id="Trazado_101293" data-name="Trazado 101293" d="M292.044,401.985l2.224,1.659,2.176-3.9" transform="translate(-289.163 -396.406)" fill="none" stroke="#fff" stroke-linecap="round" stroke-linejoin="round" stroke-width="1.056"/>
      </g>
      <g id="Grupo_55437" data-name="Grupo 55437" transform="translate(166.287 45.664)">
        <path id="Trazado_101294" data-name="Trazado 101294" d="M313.959,107.6a5.058,5.058,0,1,1-6.381-3.232A5.057,5.057,0,0,1,313.959,107.6Z" transform="translate(-304.093 -104.113)" fill="#9999f1"/>
        <path id="Trazado_101295" data-name="Trazado 101295" d="M307.416,110.388l2.494,1.215,1.41-4.24" transform="translate(-304.398 -104.411)" fill="none" stroke="#fff" stroke-linecap="round" stroke-linejoin="round" stroke-width="1.056"/>
      </g>
      <g id="Grupo_55438" data-name="Grupo 55438" transform="translate(432.736 134.582)">
        <path id="Trazado_101296" data-name="Trazado 101296" d="M612.9,210.316a7.734,7.734,0,1,1-7.145-8.282A7.735,7.735,0,0,1,612.9,210.316Z" transform="translate(-597.456 -202.013)" fill="#9ddfd3"/>
        <path id="Trazado_101297" data-name="Trazado 101297" d="M602.2,210.448l2.821,3.169,4.46-5.177" transform="translate(-597.891 -202.602)" fill="none" stroke="#fff" stroke-linecap="round" stroke-linejoin="round" stroke-width="1.616"/>
      </g>
      <path id="Trazado_101298" data-name="Trazado 101298" d="M587.962,210.038a1.86,1.86,0,1,1-1.86-1.859A1.86,1.86,0,0,1,587.962,210.038Z" transform="translate(-163.507 -67.996)" fill="#9999f1"/>
      <path id="Trazado_101299" data-name="Trazado 101299" d="M519.011,69.2a1.86,1.86,0,1,1-1.859-1.86A1.86,1.86,0,0,1,519.011,69.2Z" transform="translate(-157.182 -55.076)" fill="#9999f1" opacity="0.3"/>
      <path id="Trazado_101300" data-name="Trazado 101300" d="M185.222,255.813a2.969,2.969,0,1,1-2.968-2.968A2.968,2.968,0,0,1,185.222,255.813Z" transform="translate(-126.357 -72.094)" fill="#9999f1"/>
      <path id="Trazado_101301" data-name="Trazado 101301" d="M681.655,288.734a4.566,4.566,0,1,1-4.566-4.566A4.566,4.566,0,0,1,681.655,288.734Z" transform="translate(-171.606 -74.967)" fill="#9999f1" opacity="0.3"/>
      <path id="Trazado_101302" data-name="Trazado 101302" d="M132.068,219.309a4.565,4.565,0,1,1-4.566-4.565A4.566,4.566,0,0,1,132.068,219.309Z" transform="translate(-121.188 -68.598)" fill="#9999f1" opacity="0.3"/>
      <path id="Trazado_101303" data-name="Trazado 101303" d="M640.693,334.215a2.969,2.969,0,1,1-2.968-2.968A2.968,2.968,0,0,1,640.693,334.215Z" transform="translate(-168.141 -79.286)" fill="#9999f1" opacity="0.3"/>
      <path id="Trazado_101304" data-name="Trazado 101304" d="M385.646,80.922a2.968,2.968,0,1,1-2.968-2.968A2.968,2.968,0,0,1,385.646,80.922Z" transform="translate(-144.744 -56.049)" fill="#9999f1" opacity="0.3"/>
      <path id="Trazado_101305" data-name="Trazado 101305" d="M446.479,64.523a2.969,2.969,0,1,1-2.968-2.968A2.968,2.968,0,0,1,446.479,64.523Z" transform="translate(-150.324 -54.545)" fill="#9999f1" opacity="0.2"/>
      <g id="Grupo_55442" data-name="Grupo 55442" transform="translate(0 105.161)">
        <g id="Grupo_55441" data-name="Grupo 55441">
          <g id="Grupo_55439" data-name="Grupo 55439" transform="translate(2.093)">
            <path id="Trazado_101306" data-name="Trazado 101306" d="M123.907,174.99a.592.592,0,0,1-.592-.593v-4.184a.593.593,0,0,1,1.186,0V174.4A.593.593,0,0,1,123.907,174.99Z" transform="translate(-123.315 -169.62)" fill="#9999f1"/>
          </g>
          <g id="Grupo_55440" data-name="Grupo 55440" transform="translate(0 2.092)">
            <path id="Trazado_101307" data-name="Trazado 101307" d="M125.789,173.109H121.6a.593.593,0,0,1,0-1.186h4.185a.593.593,0,0,1,0,1.186Z" transform="translate(-121.011 -171.923)" fill="#9999f1"/>
          </g>
        </g>
      </g>
      <g id="Grupo_55446" data-name="Grupo 55446" transform="translate(32.834)" opacity="0.3">
        <g id="Grupo_55445" data-name="Grupo 55445">
          <g id="Grupo_55443" data-name="Grupo 55443" transform="translate(2.092)">
            <path id="Trazado_101308" data-name="Trazado 101308" d="M160.057,59.208a.594.594,0,0,1-.593-.593V54.43a.594.594,0,0,1,1.187,0v4.184A.594.594,0,0,1,160.057,59.208Z" transform="translate(-159.464 -53.837)" fill="#9999f1"/>
          </g>
          <g id="Grupo_55444" data-name="Grupo 55444" transform="translate(0 2.092)">
            <path id="Trazado_101309" data-name="Trazado 101309" d="M161.939,57.326h-4.185a.593.593,0,1,1,0-1.186h4.185a.593.593,0,1,1,0,1.186Z" transform="translate(-157.161 -56.14)" fill="#9999f1"/>
          </g>
        </g>
      </g>
      <g id="Grupo_55450" data-name="Grupo 55450" transform="translate(380.979 50.081)">
        <g id="Grupo_55449" data-name="Grupo 55449">
          <g id="Grupo_55447" data-name="Grupo 55447" transform="translate(2.092)">
            <path id="Trazado_101310" data-name="Trazado 101310" d="M543.367,114.347a.594.594,0,0,1-.593-.593v-4.184a.593.593,0,1,1,1.186,0v4.184A.594.594,0,0,1,543.367,114.347Z" transform="translate(-542.774 -108.976)" fill="#9999f1"/>
          </g>
          <g id="Grupo_55448" data-name="Grupo 55448" transform="translate(0 2.092)">
            <path id="Trazado_101311" data-name="Trazado 101311" d="M545.248,112.465h-4.184a.593.593,0,1,1,0-1.186h4.184a.593.593,0,0,1,0,1.186Z" transform="translate(-540.471 -111.279)" fill="#9999f1"/>
          </g>
        </g>
      </g>
      <g id="Grupo_55454" data-name="Grupo 55454" transform="translate(510.049 270.981)">
        <g id="Grupo_55453" data-name="Grupo 55453">
          <g id="Grupo_55451" data-name="Grupo 55451" transform="translate(2.092)">
            <path id="Trazado_101312" data-name="Trazado 101312" d="M685.473,357.559a.594.594,0,0,1-.593-.593V352.78a.593.593,0,0,1,1.186,0v4.185A.594.594,0,0,1,685.473,357.559Z" transform="translate(-684.88 -352.188)" fill="#9999f1"/>
          </g>
          <g id="Grupo_55452" data-name="Grupo 55452" transform="translate(0 2.092)">
            <path id="Trazado_101313" data-name="Trazado 101313" d="M687.354,355.677H683.17a.593.593,0,1,1,0-1.186h4.184a.593.593,0,1,1,0,1.186Z" transform="translate(-682.577 -354.491)" fill="#9999f1"/>
          </g>
        </g>
      </g>
    </g>
    <g id="Grupo_55413" data-name="Grupo 55413" transform="translate(114.21 311.216)">
      <path id="Trazado_101201" data-name="Trazado 101201" d="M208.563,345.82s2.721,9.489-7.483,9.485a8.318,8.318,0,0,1-3.707-.886c-3.767-1.814-4.644-8.141-4.644-8.141,3.189-.817,2.07-5.424,2.07-5.424l11.335.26s-.56,2.963.267,3.809C207.845,346.4,208.563,345.82,208.563,345.82Z" transform="translate(-149.465 -310.983)" fill="#f7b59c"/>
      <path id="Trazado_101202" data-name="Trazado 101202" d="M190.362,346.013s-.638,8.415,7.283,8.415c7.166,0,7.253-5.574,6.724-8.645,8.183.729,17.133,4.035,21.7,7.786,5.422,7.014,9.185,17.744,9.185,17.744a42.929,42.929,0,0,1-5.087,1.955,21.1,21.1,0,0,0-4.639,2.022L222.328,418.6H172.2l-.855-43.34s-3.293-.789-5.957-1.662a17.1,17.1,0,0,1-5.357-2.528,90.608,90.608,0,0,1,7.548-16.18C172.185,350.636,180.8,347.129,190.362,346.013Z" transform="translate(-146.465 -311.435)" fill="#20204d"/>
      <path id="Trazado_101203" data-name="Trazado 101203" d="M160.568,374.175s-4.78,16.908-4.34,24.985,19.532,19.386,19.532,19.386l2.5-8.519s-7.93-3.377-9.105-9.546,5.483-21.639,5.483-21.639-2.942-.862-6.963-1.964A41.694,41.694,0,0,1,160.568,374.175Z" transform="translate(-146.113 -314.04)" fill="#f7b59c"/>
      <path id="Trazado_101204" data-name="Trazado 101204" d="M240.431,374.175s4.781,16.908,4.341,24.985-19.533,19.386-19.533,19.386l-2.5-8.519s7.931-3.377,9.105-9.546-5.717-22.012-5.717-22.012,3.175-.715,7.2-1.817A57.136,57.136,0,0,0,240.431,374.175Z" transform="translate(-152.218 -314.04)" fill="#f7b59c"/>
      <path id="Trazado_101205" data-name="Trazado 101205" d="M228.957,422.628H167.016l-1.405-38.809a1.777,1.777,0,0,1,1.776-1.841h61.2a1.777,1.777,0,0,1,1.777,1.841Z" transform="translate(-146.977 -314.756)" fill="#edfff6"/>
      <g id="Grupo_55405" data-name="Grupo 55405" transform="translate(0 96.842)">
        <path id="Trazado_101206" data-name="Trazado 101206" d="M229.841,436.344a6.034,6.034,0,0,1,4.385-1.64c1.988-.054,7.619,1.219,10.305,1.174s5.481-.633,7.022,1.66c2.616,3.89,1.486,7.4-2.919,7.926-2.4.287-4.374-1.3-8.18-.918-3.688.366-9.44-.866-11.114-3.5" transform="translate(-152.823 -416.435)" fill="#4c4051"/>
        <path id="Trazado_101207" data-name="Trazado 101207" d="M223.806,434.515a28.625,28.625,0,0,0,4.941.955c1.971.106,6.393-.385,8.391.871,2.163,1.362,1.362,5.05-.009,5.92-2.214,1.406-4,.678-8.055-.6a25.307,25.307,0,0,0-8.806-.79" transform="translate(-151.991 -416.418)" fill="#f7b59c"/>
        <path id="Trazado_101208" data-name="Trazado 101208" d="M222.944,441.531s-45.924-.827-58.16-2.439a57.824,57.824,0,0,1-14-3.433c-5.5-3.277-7.518-11.083-3.774-18.273,1.747-3.355,7.129-2.754,7.878-2.754.191,0,.291.011.291.011,14.887.581,28.454,4.384,43.788,10.514a177.063,177.063,0,0,0,25.177,8.064C224.947,439.081,222.944,441.531,222.944,441.531Z" transform="translate(-145.095 -414.59)" fill="#36b7a0"/>
        <path id="Trazado_101209" data-name="Trazado 101209" d="M242.773,438.68s-1.217-.678-1.622.053a10.707,10.707,0,0,0-.415,4.309c.381.858,2.164.55,2.164.55l1.456-3.926Z" transform="translate(-153.861 -416.774)" fill="#4c4051"/>
      </g>
      <g id="Grupo_55406" data-name="Grupo 55406" transform="translate(1.912 97.097)">
        <path id="Trazado_101210" data-name="Trazado 101210" d="M171.174,436.407a6.266,6.266,0,0,0-4.548-1.72c-2.066-.064-7.918,1.237-10.708,1.181s-5.533-.661-7.312,1.213c-3.352,3.53-.232,7.962,4.341,8.527,2.487.307,3.222-1.127,7.173-.721,3.828.394,9.807-.864,11.557-3.594" transform="translate(-147.2 -416.688)" fill="#594a5f"/>
        <path id="Trazado_101211" data-name="Trazado 101211" d="M178.012,434.531a29.782,29.782,0,0,1-5.134.973c-2.048.1-6.639-.424-8.718.873-2.253,1.405-1.434,5.239-.014,6.149,2.3,1.468,4.157.72,8.37-.59a26.292,26.292,0,0,1,9.148-.787" transform="translate(-148.627 -416.674)" fill="#f7b59c"/>
        <path id="Trazado_101212" data-name="Trazado 101212" d="M244.909,435.528l-.011.012a56.39,56.39,0,0,1-14.8,3.713c-12.247,1.566-58.183,2.226-58.183,2.226s-1.99-2.472-1.163-8.321a176.485,176.485,0,0,0,25.21-7.964c15.01-5.916,28.331-9.664,42.815-10.323,2.835.282,6.113,1.532,8.428,6.386C250.294,427.677,247.906,434.4,244.909,435.528Z" transform="translate(-149.342 -414.87)" fill="#36b7a0"/>
        <path id="Trazado_101213" data-name="Trazado 101213" d="M162.633,437.061s1.556-.859,2.069.074a13.657,13.657,0,0,1,.509,5.5c-.489,1.093-2.762.692-2.762.692l-1.838-5.014Z" transform="translate(-148.43 -416.873)" fill="#594a5f"/>
      </g>
      <path id="Trazado_101214" data-name="Trazado 101214" d="M215.434,316.573s4.254-.432-.569,10.587c-1.818,4.154-2.466,3.878-2.5,4.079a3.977,3.977,0,0,1-1.63-2.079c0-.7.07-6.152.14-6.431S215.434,316.573,215.434,316.573Z" transform="translate(-151.117 -308.756)" fill="#2c1e56"/>
      <path id="Trazado_101215" data-name="Trazado 101215" d="M188.058,319.344s-3.292-.917-1.965,5.654a12.942,12.942,0,0,0,3.271,6.491,3.977,3.977,0,0,0,1.63-2.079c0-.7-.07-6.152-.14-6.431S188.058,319.344,188.058,319.344Z" transform="translate(-148.827 -309.006)" fill="#2c1e56"/>
      <path id="Trazado_101216" data-name="Trazado 101216" d="M189.094,328.352s-1.4-1.35-1.79.45,1.068,6.469,2.925,4.669" transform="translate(-148.961 -309.792)" fill="#e5a18c"/>
      <path id="Trazado_101217" data-name="Trazado 101217" d="M212.918,328.352s1.4-1.35,1.79.45-1.069,6.469-2.925,4.669" transform="translate(-151.213 -309.792)" fill="#e5a18c"/>
      <path id="Trazado_101218" data-name="Trazado 101218" d="M200.46,342.073h-.109c-1.3.078-12.829.189-11.37-20.775h21.973S213.618,340.814,200.46,342.073Z" transform="translate(-149.109 -309.189)" fill="#f7b59c"/>
      <path id="Trazado_101219" data-name="Trazado 101219" d="M207.38,308.326c4.137,1.226,6.81,6.458,4.767,10.6s-8.623,6.549-15.978,4.983c-4.33-.922-5.723-2.663-8.319-2.532a4.572,4.572,0,0,1-4.512-2.991c-.945-2.546-1.5-5.987,1.136-8.038C191.648,312.412,201.172,306.486,207.38,308.326Z" transform="translate(-148.531 -307.966)" fill="#2c1e56"/>
      <path id="Trazado_101220" data-name="Trazado 101220" d="M204.354,402.587a3.986,3.986,0,1,1-3.986-3.985A3.986,3.986,0,0,1,204.354,402.587Z" transform="translate(-149.8 -316.281)" fill="#d1deff"/>
      <path id="Trazado_101221" data-name="Trazado 101221" d="M195.2,342.266a9.205,9.205,0,0,0,1.643.8,9.609,9.609,0,0,0,3.858.637,11.165,11.165,0,0,0,2.091-.292,13.021,13.021,0,0,0,1.776-.543,13.479,13.479,0,0,0,1.67-.757,7.555,7.555,0,0,1-1.54,1.044,10.257,10.257,0,0,1-1.778.732,9.266,9.266,0,0,1-2.182.373,7.972,7.972,0,0,1-2.222-.218,8.138,8.138,0,0,1-1.8-.691A6.072,6.072,0,0,1,195.2,342.266Z" transform="translate(-149.691 -311.099)" fill="#eaa18b"/>
      <g id="Grupo_55409" data-name="Grupo 55409" transform="translate(44.679 20.34)">
        <g id="Grupo_55407" data-name="Grupo 55407">
          <path id="Trazado_101222" data-name="Trazado 101222" d="M195.9,330.987c.084.749.15,1.636-.668,1.733a.861.861,0,0,1-.838-.475,2.7,2.7,0,0,1-.1-1.069c-.045-.945,1.5-1.146,1.606-.189Z" transform="translate(-194.287 -330.361)" fill="#452e17"/>
        </g>
        <g id="Grupo_55408" data-name="Grupo 55408" transform="translate(0.838 1.108)">
          <path id="Trazado_101223" data-name="Trazado 101223" d="M195.6,331.733c.038.193.015.381-.191.448a.161.161,0,0,1-.176-.086c-.052-.107,0-.18-.015-.288a.2.2,0,0,1,.382-.074Z" transform="translate(-195.21 -331.58)" fill="#fff"/>
        </g>
      </g>
      <g id="Grupo_55412" data-name="Grupo 55412" transform="translate(54.761 20.34)">
        <g id="Grupo_55410" data-name="Grupo 55410">
          <path id="Trazado_101224" data-name="Trazado 101224" d="M207,330.987c.084.749.15,1.636-.668,1.733a.861.861,0,0,1-.838-.475,2.7,2.7,0,0,1-.1-1.069c-.045-.945,1.5-1.146,1.606-.189Z" transform="translate(-205.387 -330.361)" fill="#452e17"/>
        </g>
        <g id="Grupo_55411" data-name="Grupo 55411" transform="translate(0.838 1.108)">
          <path id="Trazado_101225" data-name="Trazado 101225" d="M206.7,331.733c.038.193.015.381-.191.448a.161.161,0,0,1-.176-.086c-.052-.107,0-.18-.015-.288a.2.2,0,0,1,.382-.074Z" transform="translate(-206.31 -331.58)" fill="#fff"/>
        </g>
      </g>
      <path id="Trazado_101226" data-name="Trazado 101226" d="M208.087,327.98c.063.183.016.015.055.261s-.218.411-.554.418c-.834.017-3.376.134-3.376.134-.273.044-.232-.146-.129-.243.422-.394.871-.9,3.258-.92C207.675,327.625,208,327.731,208.087,327.98Z" transform="translate(-150.499 -309.77)" fill="#003051"/>
      <path id="Trazado_101227" data-name="Trazado 101227" d="M192.989,327.98c-.063.183-.017.015-.055.261s.218.411.554.418c.834.017,3.376.134,3.376.134.273.044.233-.146.129-.243-.422-.394-.872-.9-3.258-.92C193.4,327.625,193.074,327.731,192.989,327.98Z" transform="translate(-149.483 -309.77)" fill="#003051"/>
      <path id="Trazado_101228" data-name="Trazado 101228" d="M200.7,332.584s-.965,2.119-.662,2.535,1.44.435,1.44.435" transform="translate(-150.13 -310.225)" fill="none" stroke="#eaa18b" stroke-linecap="round" stroke-miterlimit="10" stroke-width="0.5"/>
      <path id="Trazado_101229" data-name="Trazado 101229" d="M197.938,339.247s3.04,1.787,5.761-.143" transform="translate(-149.943 -310.823)" fill="none" stroke="#c9806f" stroke-linecap="round" stroke-miterlimit="10" stroke-width="0.5"/>
    </g>
  </g>
</svg>
